<svg width="389" height="84" viewBox="0 0 389 84" fill="none" xmlns="http://www.w3.org/2000/svg">
<path d="M95.65 82.89L90.36 68.92H73.2L67.91 82.89H60.55L78.68 35.48H84.94L103.07 82.89H95.65ZM87.97 62.57L81.9 44.44H81.77L75.64 62.57H87.97Z" fill="#085EA9"/>
<path d="M113.2 35.47H125.59C139.08 35.47 140.5 45.27 140.5 48.6C140.5 53.85 137.85 56.16 136.24 57.57C138.24 58.72 143.34 61.73 143.34 69.1C143.34 73.97 140.63 82.88 127.47 82.88H113.2V35.47ZM120.17 55.21H125.85C132.37 55.21 133.53 51.3 133.53 48.55C133.53 41.82 127.01 41.82 125.46 41.82H120.17V55.21V55.21ZM120.17 76.54H127.72C134.75 76.54 136.37 71.54 136.37 69.11C136.37 67.38 135.66 65.71 134.69 64.43C132.56 61.61 129.33 61.55 126.88 61.55H120.17V76.54Z" fill="#085EA9"/>
<path d="M155.15 82.89V35.47H162.12V82.88H155.15V82.89Z" fill="#085EA9"/>
<path d="M198.7 83.78C184.44 83.78 173.86 72.18 173.86 59.18C173.86 46.3 184.12 34.58 198.7 34.58C212.9 34.58 223.54 45.79 223.54 59.31C223.54 72.25 212.9 83.78 198.7 83.78ZM198.7 40.92C186.37 40.92 180.83 51.62 180.83 59.18C180.83 66.93 186.44 77.44 198.7 77.44C211.03 77.44 216.57 66.8 216.57 59.37C216.58 50.98 210.58 40.92 198.7 40.92Z" fill="#085EA9"/>
<path d="M279.04 82.89V42.84H278.85L262.78 82.89H258.59L242.46 42.84H242.33V82.89H235.36V35.47H246.33L260.66 71.8L275.05 35.47H286.02V82.88H279.04V82.89Z" fill="#085EA9"/>
<path d="M302.72 82.89V35.47H328.47V41.81H309.69V55.78H328.47V62.12H309.69V76.54H328.47V82.88H302.72V82.89Z" fill="#085EA9"/>
<path d="M344.02 35.47H359.51C369.45 35.47 375.38 39.25 379 44.18C382.42 48.92 383.9 54.69 383.9 59.3C383.9 65.71 381.45 72.56 377.9 76.02C372.42 81.4 365.96 82.88 359.25 82.88H344.02V35.47ZM350.99 76.54H359.31C367.7 76.54 376.93 72.37 376.93 59.3C376.93 52.12 372.48 41.81 359.44 41.81H350.99V76.54Z" fill="#085EA9"/>
<path d="M11.77 27.95C6.78999 27.95 2.73999 32.17 2.73999 37.35V43.89C2.73999 49.08 6.78999 53.29 11.77 53.29H15.84C20.82 53.29 24.87 49.07 24.87 43.89V37.35C24.87 32.16 20.82 27.95 15.84 27.95H11.77V27.95ZM6.66999 43.89V37.35C6.66999 34.33 8.95999 31.87 11.77 31.87H15.84C18.65 31.87 20.94 34.33 20.94 37.35V43.89C20.94 46.91 18.65 49.37 15.84 49.37H11.77C8.95999 49.36 6.66999 46.91 6.66999 43.89Z" fill="#085EA9"/>
<path d="M38.91 29.45C32.91 29.45 28.02 34.58 28.02 40.88V49.2C28.02 55.5 32.9 60.63 38.91 60.63H44.05C50.05 60.63 54.94 55.5 54.94 49.2V40.88C54.94 34.58 50.06 29.45 44.05 29.45H38.91V29.45ZM31.95 49.2V40.88C31.95 36.74 35.07 33.38 38.91 33.38H44.05C47.89 33.38 51.01 36.74 51.01 40.88V49.2C51.01 53.34 47.89 56.7 44.05 56.7H38.91C35.07 56.7 31.95 53.33 31.95 49.2Z" fill="#A31C49"/>
<path d="M8.71 0.75C3.95 0.75 0.0899963 4.75 0.0899963 9.66V15.76C0.0899963 20.68 3.96 24.67 8.71 24.67H12.55C17.31 24.67 21.18 20.67 21.18 15.76V9.66C21.18 4.75 17.31 0.75 12.55 0.75H8.71V0.75ZM4.02 15.77V9.67C4.02 6.92 6.13 4.69 8.72 4.69H12.56C15.15 4.69 17.26 6.93 17.26 9.67V15.77C17.26 18.52 15.15 20.76 12.56 20.76H8.72C6.12 20.76 4.02 18.52 4.02 15.77Z" fill="#085EA9"/>
<path d="M33.07 2.33C28.28 2.33 24.39 6.35 24.39 11.3V17.45C24.39 22.4 28.28 26.42 33.07 26.42H36.94C41.73 26.42 45.62 22.4 45.62 17.45V11.3C45.62 6.36 41.73 2.33 36.94 2.33H33.07ZM28.32 17.45V11.3C28.32 8.52 30.45 6.26 33.07 6.26H36.94C39.56 6.26 41.69 8.52 41.69 11.3V17.45C41.69 20.23 39.56 22.49 36.94 22.49H33.07C30.45 22.49 28.32 20.23 28.32 17.45Z" fill="#A31C49"/>
<path d="M384.54 30.77C386.76 30.77 388.53 32.58 388.53 34.83C388.53 37.12 386.76 38.91 384.52 38.91C382.3 38.91 380.49 37.12 380.49 34.83C380.49 32.57 382.3 30.77 384.52 30.77H384.54ZM384.53 31.4C382.74 31.4 381.28 32.94 381.28 34.83C381.28 36.76 382.74 38.28 384.55 38.28C386.36 38.3 387.8 36.76 387.8 34.85C387.8 32.94 386.36 31.4 384.55 31.4H384.53ZM383.77 37.2H383.05V32.67C383.43 32.62 383.79 32.56 384.33 32.56C385.02 32.56 385.47 32.7 385.74 32.9C386.01 33.1 386.16 33.41 386.16 33.84C386.16 34.44 385.76 34.8 385.28 34.94V34.98C385.68 35.05 385.95 35.41 386.04 36.08C386.15 36.78 386.26 37.06 386.33 37.2H385.57C385.46 37.06 385.35 36.64 385.26 36.04C385.15 35.46 384.86 35.24 384.29 35.24H383.78V37.2H383.77ZM383.77 34.69H384.29C384.89 34.69 385.39 34.47 385.39 33.91C385.39 33.51 385.1 33.11 384.29 33.11C384.05 33.11 383.89 33.13 383.77 33.15V34.69Z" fill="#085EA9"/>
</svg>
