<?xml version="1.0" encoding="utf-8"?>
<!-- Generator: Adobe Illustrator 25.0.1, SVG Export Plug-In . SVG Version: 6.00 Build 0)  -->
<svg version="1.1" xmlns="http://www.w3.org/2000/svg" xmlns:xlink="http://www.w3.org/1999/xlink" x="0px" y="0px"
	 viewBox="0 0 3030.19 790.97" style="enable-background:new 0 0 3030.19 790.97;" xml:space="preserve">
<style type="text/css">
	.st0{fill:#00558F;}
	.st1{fill:#8E8F92;}
	.st2{fill:#CD1141;}
	.st3{fill:#2C7C2F;}
</style>
<g id="Layer_1">
	<g>
		<path class="st0" d="M344.74,392.07L134.41,181.74c-0.36-0.37-0.76-0.67-1.19-0.9c-0.65-0.35-1.36-0.55-2.08-0.6
			c-0.72-0.05-1.45,0.06-2.14,0.33c-0.54,0.21-1.04,0.51-1.49,0.91c-0.43,0.38-0.78,0.82-1.05,1.3c0,0,0,0,0,0.01
			c-0.37,0.67-0.58,1.4-0.63,2.15c0,0,0,0,0,0s0,0,0,0c-0.04,0.72,0.07,1.45,0.35,2.14c0,0,0,0,0,0.01l0,0
			c0.18,0.45,0.42,0.87,0.74,1.26l118.15,151.91c0.76,0.98,1.51,1.95,2.25,2.89c0.15,0.31,0.32,0.6,0.54,0.88
			c3.88,5.1,4.67,12.18,1.96,17.61c-2.32,4.68-7.01,8.2-12.27,9.25l-0.81,0.07c-0.92,0.08-1.84,0.16-2.76,0.24
			c-0.06,0-0.12,0-0.19-0.01c-0.5-0.02-1,0.03-1.46,0.14c-10.06,0.86-20.13,1.72-30.2,2.58l-6.15,0.52
			c-28.44,2.42-56.89,4.85-85.33,7.27c0.87-12.82,2.71-25.61,5.48-38.11c5.7-25.73,15.3-50.33,28.5-73.05l0.24-0.41
			c1.41-2.37,0.64-5.44-1.73-6.85c-2.19-1.31-4.98-0.74-6.5,1.22c-20.74,21.75-36.41,48.24-45.3,76.61
			c-4.38,13.95-7.18,28.38-8.32,42.96l-11.13,0.95c-7.98,0.68-15.96,1.36-23.93,2.04l-41.8,3.56c-0.46,0.03-0.91,0.13-1.33,0.28
			c0,0,0,0,0,0c-0.72,0.25-1.36,0.67-1.88,1.2c-0.5,0.51-0.9,1.13-1.15,1.83c-0.19,0.53-0.3,1.11-0.29,1.7
			c0,0.58,0.1,1.13,0.28,1.65c0.25,0.72,0.67,1.36,1.19,1.88c0.52,0.51,1.15,0.92,1.86,1.17c0.42,0.15,0.86,0.24,1.32,0.27
			l15.7,1.34c8.72,0.74,17.44,1.49,26.16,2.23c11.52,0.98,23.05,1.96,34.57,2.95c1.13,27.59,8.27,54.88,20.76,79.21
			c8.57,16.7,19.64,32.03,32.84,45.54l0.05,0.09c1.13,1.95,3.38,2.85,5.48,2.35c0.95-0.18,1.85-0.64,2.59-1.37
			c1.96-1.95,1.96-5.12,0.01-7.07l-0.07-0.07c-0.01-0.01-0.03-0.03-0.04-0.04c-7.62-13.03-14.09-26.87-19.23-41.13
			c-8.69-24.14-13.62-49.39-14.67-75.15l90.25,7.5c11.56,0.96,23.12,1.92,34.67,2.87c0.35,0.11,0.72,0.17,1.11,0.2
			c6.42,0.43,12.46,4.9,14.69,10.88c1.71,4.61,1.08,10.05-1.7,14.63l-0.6,0.77c-0.63,0.81-1.27,1.63-1.88,2.42
			c-0.26,0.26-0.48,0.55-0.66,0.85c-0.41,0.53-0.82,1.06-1.23,1.59l-59.89,77c-19.37,24.9-38.73,49.8-58.1,74.7
			c-0.31,0.38-0.55,0.8-0.73,1.24c-0.29,0.7-0.4,1.45-0.35,2.19v0c0,0,0,0,0,0c0.05,0.72,0.25,1.44,0.61,2.09
			c0.27,0.49,0.63,0.94,1.07,1.33c0.44,0.39,0.92,0.68,1.43,0.89c0.6,0.25,1.24,0.37,1.88,0.37c0.1,0,0.19,0,0.29-0.01
			c0,0,0.01,0,0.01,0c0.75-0.04,1.5-0.26,2.17-0.64c0.4-0.23,0.78-0.52,1.12-0.86l210.33-210.33c0.98-0.98,1.46-2.26,1.46-3.54
			C346.21,394.33,345.72,393.05,344.74,392.07z"/>
		<path class="st1" d="M792.87,394.01c-0.26-0.75-0.69-1.41-1.25-1.94c-0.49-0.48-1.09-0.85-1.75-1.09
			c-0.44-0.16-0.9-0.26-1.38-0.29l-13.92-1.19c-9.31-0.79-18.62-1.59-27.93-2.39l-3.29-0.28c-10.43-0.89-20.85-1.77-31.28-2.67
			c-1.13-27.59-8.27-54.88-20.76-79.21c-8.58-16.7-19.64-32.04-32.84-45.53l-0.06-0.1c-1.39-2.38-4.45-3.19-6.84-1.8
			c-2.38,1.39-3.19,4.46-1.8,6.84l0.38,0.65c0.09,0.15,0.17,0.29,0.26,0.44l-0.02,0.02c0.02,0.02,0.04,0.04,0.07,0.07
			c7.62,13.03,14.09,26.87,19.23,41.13c8.69,24.14,13.62,49.39,14.67,75.15l-90.25-7.5c-11.56-0.95-23.12-1.91-34.67-2.87
			c-0.35-0.11-0.72-0.17-1.11-0.2c-6.42-0.43-12.46-4.9-14.68-10.88c-1.71-4.61-1.08-10.05,1.7-14.63l0.49-0.63
			c0.67-0.86,1.34-1.72,1.99-2.56c0.26-0.27,0.48-0.55,0.67-0.86c0.36-0.47,0.73-0.93,1.09-1.4l64.09-82.39
			c18.01-23.16,36.01-46.31,54.03-69.46c1.6-1.96,1.48-4.86-0.35-6.69c-0.58-0.58-1.28-0.99-2.01-1.23
			c-0.63-0.2-1.28-0.27-1.93-0.22c-0.01,0-0.01,0-0.01,0c-0.54,0.04-1.08,0.18-1.58,0.4c0,0-0.01,0-0.01,0
			c-0.59,0.26-1.13,0.63-1.6,1.12L449.91,392.14c-0.98,0.98-1.46,2.26-1.46,3.54s0.49,2.56,1.46,3.54l210.33,210.33
			c0.35,0.36,0.74,0.66,1.16,0.89c0,0,0.01,0,0.01,0c0.65,0.36,1.36,0.56,2.08,0.61c0.11,0.01,0.22,0.01,0.34,0.01
			c0.63,0,1.27-0.12,1.87-0.36c0.51-0.21,1-0.5,1.43-0.88c0.44-0.39,0.8-0.85,1.08-1.34c0.36-0.65,0.56-1.36,0.61-2.07
			c0,0,0,0,0-0.01v0c0.05-0.74-0.07-1.5-0.35-2.21c0,0,0,0,0,0c0,0,0,0,0,0c-0.18-0.44-0.42-0.85-0.72-1.23L549.58,451.02
			c-0.76-0.98-1.51-1.95-2.25-2.89c-0.15-0.31-0.32-0.6-0.54-0.88c-3.88-5.1-4.67-12.18-1.96-17.61c2.32-4.68,7-8.2,12.26-9.25
			l0.95-0.08c0.87-0.08,1.75-0.15,2.62-0.22c0.06,0,0.13,0,0.19,0.01c0.51,0.02,1-0.03,1.47-0.14c10.58-0.9,21.17-1.81,31.74-2.71
			c29.97-2.56,59.95-5.11,89.93-7.66c-0.87,12.82-2.71,25.61-5.48,38.11c-5.7,25.72-15.3,50.33-28.51,73.07l-0.22,0.38
			c-1.42,2.37-0.66,5.44,1.71,6.86c2.19,1.32,4.99,0.76,6.52-1.22c20.74-21.75,36.4-48.23,45.29-76.61
			c4.38-13.95,7.18-28.38,8.33-42.96l11.5-0.98c7.86-0.67,15.71-1.34,23.56-2.01l41.8-3.56c0.46-0.03,0.9-0.12,1.31-0.27
			c0.73-0.26,1.38-0.68,1.91-1.22l0,0c0,0,0,0,0,0c0.5-0.51,0.89-1.13,1.14-1.82c0.19-0.52,0.29-1.08,0.29-1.66
			C793.16,395.11,793.06,394.54,792.87,394.01z"/>
		<path class="st2" d="M610.67,125.79c-0.04-0.04-0.07-0.07-0.11-0.11c0,0,0,0-0.01-0.01c-0.15-0.14-0.31-0.27-0.47-0.39
			c0,0,0,0-0.01,0c0,0,0,0,0,0c-0.8-0.58-1.73-0.9-2.68-0.95c-0.88-0.05-1.77,0.14-2.58,0.56c-0.24,0.13-0.47,0.27-0.69,0.43
			c-0.02,0.02-0.04,0.03-0.06,0.05l-151.96,118.2c-0.98,0.76-1.95,1.51-2.88,2.24c-0.31,0.15-0.6,0.32-0.88,0.54
			c-5.1,3.88-12.18,4.67-17.61,1.96c-4.68-2.32-8.2-7-9.25-12.26l-0.08-0.92c-0.08-0.88-0.16-1.77-0.23-2.66c0-0.05,0-0.1,0.01-0.15
			c0.03-0.52-0.02-1.03-0.14-1.51c-0.9-10.58-1.81-21.17-2.71-31.74l-0.78-9.1c-2.3-26.94-4.59-53.88-6.88-80.83
			c12.82,0.87,25.61,2.71,38.11,5.48c25.73,5.7,50.34,15.31,73.09,28.52l0.36,0.21c2.37,1.42,5.44,0.65,6.86-1.71
			c1.31-2.19,0.76-4.98-1.21-6.51c-21.75-20.75-48.24-36.41-76.62-45.3c-13.95-4.38-28.38-7.17-42.96-8.32l-0.94-11.06
			c-0.68-8-1.36-16-2.05-23.99l-3.56-41.8c-0.03-0.46-0.12-0.9-0.27-1.32c-0.26-0.74-0.69-1.39-1.23-1.92
			c-0.5-0.49-1.11-0.87-1.78-1.12c-0.53-0.19-1.1-0.3-1.7-0.3c-0.61,0.01-1.13,0.1-1.65,0.28c-0.74,0.26-1.39,0.68-1.92,1.22
			c-0.5,0.51-0.89,1.12-1.14,1.81c-0.15,0.43-0.25,0.88-0.28,1.35l-1.01,11.84c-0.85,10-1.71,20.01-2.56,30.01l-0.41,4.87
			c-0.84,9.9-1.69,19.8-2.53,29.7c-27.59,1.13-54.88,8.28-79.21,20.76c-16.69,8.57-32.03,19.63-45.53,32.84l-0.07,0.04
			c-2.39,1.38-3.21,4.44-1.83,6.83c1.38,2.39,4.44,3.21,6.83,1.83l0.67-0.39c0.14-0.08,0.28-0.16,0.42-0.25l0.02,0.02
			c0.03-0.03,0.06-0.06,0.09-0.09c13.03-7.62,26.87-14.09,41.13-19.23c24.14-8.69,49.39-13.62,75.15-14.67l-7.5,90.25
			c-0.96,11.56-1.92,23.12-2.88,34.67c-0.11,0.35-0.17,0.72-0.2,1.11c-0.43,6.42-4.9,12.46-10.88,14.69
			c-4.61,1.71-10.05,1.08-14.63-1.7l-0.78-0.6c-0.81-0.63-1.62-1.26-2.41-1.88c-0.27-0.26-0.55-0.48-0.85-0.67
			c-0.53-0.42-1.07-0.83-1.61-1.25l-76.97-59.87c-24.92-19.38-49.84-38.76-74.76-58.15c-0.97-0.76-2.14-1.11-3.28-1.05
			c-1.21,0.05-2.4,0.54-3.33,1.46c-1.95,1.95-1.95,5.12,0,7.07l210.38,210.38c0.12,0.12,0.24,0.23,0.37,0.33c0,0,0,0,0,0
			c0.76,0.62,1.66,0.99,2.58,1.09c0.19,0.02,0.39,0.03,0.58,0.03c1.28,0,2.56-0.49,3.54-1.46c0,0,0.01-0.01,0.01-0.01l210.37-210.36
			C612.63,130.91,612.63,127.75,610.67,125.79z"/>
		<path class="st3" d="M612.7,661.33L612.7,661.33C612.7,661.33,612.7,661.32,612.7,661.33c-0.05-0.74-0.25-1.46-0.62-2.11
			c-0.23-0.42-0.53-0.81-0.88-1.16L400.87,447.73c-1.95-1.95-5.12-1.95-7.07,0L183.46,658.06c-0.36,0.35-0.66,0.75-0.89,1.17
			c-0.36,0.65-0.56,1.37-0.61,2.09c0,0,0,0,0,0.01v0c-0.05,0.74,0.07,1.49,0.36,2.19c0,0,0,0.01,0,0.01
			c0.21,0.51,0.5,0.99,0.88,1.42c0.39,0.44,0.84,0.8,1.33,1.07c0,0,0.01,0,0.01,0.01c0.65,0.36,1.36,0.56,2.08,0.61
			c0.74,0.05,1.5-0.07,2.21-0.35c0.44-0.18,0.86-0.42,1.24-0.73l151.91-118.15c0.98-0.76,1.95-1.51,2.89-2.25
			c0.31-0.14,0.6-0.32,0.88-0.54c5.1-3.88,12.18-4.67,17.61-1.96c4.68,2.32,8.2,7.01,9.25,12.26l0.07,0.86
			c0.08,0.91,0.16,1.81,0.23,2.72c0,0.06,0,0.11-0.01,0.17c-0.03,0.51,0.02,1.01,0.14,1.48c0.9,10.58,1.81,21.17,2.71,31.75
			c2.55,29.97,5.11,59.95,7.66,89.93c-12.82-0.87-25.61-2.71-38.11-5.48c-25.73-5.7-50.33-15.3-73.06-28.5l-0.42-0.24
			c-2.38-1.41-5.44-0.62-6.85,1.76c-1.3,2.19-0.73,4.97,1.23,6.49c21.75,20.74,48.24,36.4,76.61,45.29
			c13.96,4.38,28.39,7.18,42.96,8.32l0.99,11.58c0.67,7.83,1.33,15.66,2,23.48l3.56,41.8c0.03,0.47,0.13,0.92,0.28,1.35
			c0.26,0.72,0.67,1.35,1.19,1.87c0.51,0.5,1.13,0.9,1.83,1.15c0,0,0,0,0,0c0.53,0.19,1.09,0.29,1.68,0.29c0,0,0.01,0,0.01,0
			c0.57,0,1.13-0.1,1.65-0.28c0.75-0.26,1.41-0.69,1.94-1.25c0,0,0,0,0.01-0.01c0.48-0.5,0.86-1.09,1.1-1.76
			c0.16-0.43,0.26-0.89,0.29-1.37l1.13-13.26c0.81-9.53,1.62-19.06,2.44-28.59l0.17-1.95c0.93-10.87,1.85-21.75,2.78-32.62
			c27.59-1.13,54.88-8.28,79.21-20.76c16.7-8.57,32.03-19.64,45.53-32.84l0.09-0.05c1.96-1.14,2.85-3.4,2.35-5.5
			c-0.19-0.95-0.65-1.85-1.38-2.58c-1.96-1.95-5.13-1.93-7.07,0.03c-0.03,0.03-0.06,0.07-0.1,0.1
			c-13.02,7.62-26.86,14.08-41.14,19.23c-24.14,8.69-49.39,13.62-75.15,14.67l7.5-90.25c0.95-11.56,1.91-23.12,2.87-34.67
			c0.11-0.35,0.17-0.72,0.2-1.11c0.43-6.42,4.9-12.46,10.88-14.69c4.61-1.71,10.05-1.08,14.62,1.7c1.07,0.83,2.14,1.67,3.19,2.48
			c0.26,0.25,0.55,0.47,0.85,0.66c0.59,0.46,1.18,0.92,1.81,1.4l75.97,59.1c25.17,19.58,50.34,39.15,75.51,58.73
			c0.4,0.32,0.83,0.57,1.28,0.75c0.69,0.27,1.42,0.39,2.14,0.34c0.74-0.04,1.46-0.25,2.12-0.62c0.49-0.27,0.94-0.63,1.33-1.07
			c0.38-0.43,0.67-0.91,0.88-1.42C612.63,662.82,612.75,662.07,612.7,661.33z"/>
		<g>
			<path class="st1" d="M969.32,289.92h30.52l85.4,198.24h-40.32l-18.48-45.36h-85.96l-17.92,45.36h-39.48L969.32,289.92z
				 M1014.12,412.56l-30.52-80.64l-31.08,80.64H1014.12z"/>
			<path class="st1" d="M1107.35,289.92h131.32v31.92h-96.04v48.72h91v31.92h-91v53.76h101.08v31.92h-136.36V289.92z"/>
			<path class="st1" d="M1278.43,289.92h68.88c38.08,0,73.92,12.32,73.92,56.84c0,28.56-16.52,49.56-45.92,53.76l52.64,87.64h-42.56
				l-45.92-84h-25.76v84h-35.28V289.92z M1341.15,373.92c19.88,0,43.12-1.68,43.12-27.44c0-23.52-21.84-26.32-40.04-26.32h-30.52
				v53.76H1341.15z"/>
			<path class="st1" d="M1548.91,284.88c61.88-1.12,105.56,40.32,105.56,103.88c0,61.88-43.68,103.32-105.56,104.44
				c-61.04,0-104.72-41.44-104.72-103.32C1444.19,326.32,1487.87,284.88,1548.91,284.88z M1549.19,461.28
				c41.16,0,68.32-31.36,68.32-73.64c0-39.48-27.16-70.84-68.32-70.84c-40.88,0-68.04,31.36-68.04,70.84
				C1481.15,429.92,1508.31,461.28,1549.19,461.28z"/>
			<path class="st0" d="M1737.34,383.72l-66.64-93.8h30.24l53.48,77.56l52.92-77.56h29.4l-66.64,93.8l73.08,104.44h-31.08
				l-58.8-87.92l-59.08,87.92h-29.12L1737.34,383.72z"/>
			<path class="st0" d="M2005.86,330.8c-11.76-15.96-30.52-24.08-49.56-24.08c-44.24,0-75.6,38.92-75.6,82.32
				c0,45.92,31.08,82.32,75.6,82.32c24.08,0,43.4-9.8,57.4-27.72l17.64,14.84c-17.64,23.8-43.4,34.72-75.04,34.72
				c-56.84,0-100.8-43.96-100.8-104.16c0-58.24,42-104.16,100.8-104.16c26.88,0,53.2,9.24,70,31.08L2005.86,330.8z"/>
			<path class="st0" d="M2064.1,289.92h23.52v84h105.84v-84h23.52v198.24h-23.52v-92.4h-105.84v92.4h-23.52V289.92z"/>
			<path class="st0" d="M2330.66,289.92h22.12l84.28,198.24h-27.44l-20.16-48.72h-99.12l-20.44,48.72h-26.6L2330.66,289.92z
				 M2341.3,320.16h-0.56l-41.16,97.44h80.92L2341.3,320.16z"/>
			<path class="st0" d="M2463.37,289.92h29.68l114.8,164.64h0.56V289.92h23.52v198.24h-29.68l-114.8-164.64h-0.56v164.64h-23.52
				V289.92z"/>
			<path class="st0" d="M2849.77,474.72c-22.68,12.6-48.44,18.48-74.2,18.48c-61.6,0-105.84-42-105.84-104.16
				c0-62.44,47.32-104.16,106.68-104.16c26.04,0,51.24,7,70,26.04l-17.64,18.48c-13.44-14.56-33.88-22.68-54.04-22.68
				c-45.36,0-79.8,34.16-79.8,82.32c0,47.32,33.32,82.32,82.04,82.32c15.96,0,34.72-4.2,49.28-11.48v-60.76h-45.64v-21.84h69.16
				V474.72z"/>
			<path class="st0" d="M2899.05,289.92h124.6v21.84h-101.08v62.16h94.36v21.84h-94.36v70.56h106.12v21.84h-129.64V289.92z"/>
		</g>
	</g>
</g>
<g id="Layer_3">
</g>
<g id="Layer_2">
</g>
</svg>
