<?xml version="1.0" encoding="utf-8"?>
<!-- Generator: Adobe Illustrator 26.3.1, SVG Export Plug-In . SVG Version: 6.00 Build 0)  -->
<svg version="1.1" id="Layer_1" xmlns="http://www.w3.org/2000/svg" xmlns:xlink="http://www.w3.org/1999/xlink" x="0px" y="0px"
	 viewBox="0 0 1211.7 398.1" style="enable-background:new 0 0 1211.7 398.1;" xml:space="preserve">
<style type="text/css">
	.st0{fill:none;stroke:#5E9741;stroke-width:7;stroke-miterlimit:10;}
	.st1{clip-path:url(#SVGID_00000091706211805381866500000008798651665928355980_);}
	.st2{clip-path:url(#SVGID_00000045603601648422697110000009238682569791044030_);fill:#5B903F;}
	.st3{fill:#5B903F;}
	.st4{clip-path:url(#SVGID_00000049209752109278205850000014935429550944299911_);}
</style>
<path class="st0" d="M433-533.8"/>
<g>
	<g>
		<defs>
			<rect id="SVGID_1_" x="962.3" y="38.6" width="211.6" height="211.6"/>
		</defs>
		<clipPath id="SVGID_00000008118183180251478690000014734095005987291067_">
			<use xlink:href="#SVGID_1_"  style="overflow:visible;"/>
		</clipPath>
		<g style="clip-path:url(#SVGID_00000008118183180251478690000014734095005987291067_);">
			<defs>
				<rect id="SVGID_00000026851540864337946260000003615237545347953853_" x="962.3" y="38.6" width="211.6" height="211.6"/>
			</defs>
			<clipPath id="SVGID_00000178193679638427832650000007277853371909331635_">
				<use xlink:href="#SVGID_00000026851540864337946260000003615237545347953853_"  style="overflow:visible;"/>
			</clipPath>
			<path style="clip-path:url(#SVGID_00000178193679638427832650000007277853371909331635_);fill:#5B903F;" d="M1089.4,234.7
				c0-4.1,3.3-7.1,7.3-7.1c3.9,0,7.2,3,7.2,7.1c0,4.1-3.3,7.2-7.2,7.2C1092.7,241.8,1089.4,238.8,1089.4,234.7 M1096.7,240.6
				c3.2,0,5.8-2.5,5.8-6c0-3.4-2.6-6-5.8-6c-3.3,0-5.8,2.6-5.8,6C1090.8,238.1,1093.4,240.6,1096.7,240.6 M1095.1,238.8h-1.2v-8.3
				h3.2c1.9,0,2.9,0.7,2.9,2.4c0,1.5-0.9,2.1-2.1,2.3l2.3,3.6h-1.4l-2.2-3.6h-1.5V238.8z M1096.6,234.2c1.1,0,2-0.1,2-1.3
				c0-1-0.9-1.2-1.8-1.2h-1.7v2.6H1096.6z"/>
			<path style="clip-path:url(#SVGID_00000178193679638427832650000007277853371909331635_);fill:#5B903F;" d="M1072,195.6
				l23.9,23.2c-2.3,2.3-4.7,4.8-7,7.2l-17.9-18.2L1072,195.6z"/>
			<path style="clip-path:url(#SVGID_00000178193679638427832650000007277853371909331635_);fill:#5B903F;" d="M1066.8,195.6
				l-23.9,23.2c2.4,2.3,4.7,4.8,7.1,7.2l17.9-18.2L1066.8,195.6z"/>
			<path style="clip-path:url(#SVGID_00000178193679638427832650000007277853371909331635_);fill:#5B903F;" d="M1069.4,233.5
				l-1.5-19.6l-14.7,15.3c8.9,9.3,16.4,17.4,16.4,17.4l16.6-17.4l-15.4-15.3L1069.4,233.5z"/>
			<path style="clip-path:url(#SVGID_00000178193679638427832650000007277853371909331635_);fill:#5B903F;" d="M1072.8,175.8
				l33.4,32.3c-1.1,1.7-4.9,5.7-7.2,7.6l-27-28L1072.8,175.8z"/>
			<path style="clip-path:url(#SVGID_00000178193679638427832650000007277853371909331635_);fill:#5B903F;" d="M1065.4,175.8
				l-33.4,32.3c1.1,1.7,4.9,5.7,7.1,7.6l27-28L1065.4,175.8z"/>
			<path style="clip-path:url(#SVGID_00000178193679638427832650000007277853371909331635_);fill:#5B903F;" d="M1074.4,153.3
				l29.2,28.4c0,0,8.9,11,5,22.1l-35.1-36.3L1074.4,153.3z"/>
			<path style="clip-path:url(#SVGID_00000178193679638427832650000007277853371909331635_);fill:#5B903F;" d="M1064.5,153.3
				l-29.2,28c0,0-8.8,11-5,22.1l35.1-35.9L1064.5,153.3z"/>
			<path style="clip-path:url(#SVGID_00000178193679638427832650000007277853371909331635_);fill:#5B903F;" d="M1170.5,145.4
				l-32.8-33.2c0,0-14.5-12.7-28.5-2.4c-14,10.3-31.5,30.7-31.5,30.7l73.9,4.4l-73.9,5.4l28,29.2c0,0,16.8,13.6,29.9-0.2
				C1148.7,165.5,1170.5,145.4,1170.5,145.4"/>
			<path style="clip-path:url(#SVGID_00000178193679638427832650000007277853371909331635_);fill:#5B903F;" d="M1069.3,43.6
				l-33.2,32.8c0,0-12.8,14.6-2.5,28.5c10.3,14,30.7,31.5,30.7,31.5l5.1-73.7l4.8,73.7l29.2-28c0,0,13.6-16.8-0.2-29.9
				C1089.5,65.4,1069.3,43.6,1069.3,43.6"/>
			<path style="clip-path:url(#SVGID_00000178193679638427832650000007277853371909331635_);fill:#5B903F;" d="M968.3,145.2
				l32.8,33.2c0,0,14.5,12.8,28.5,2.5c13.9-10.3,31.5-30.7,31.5-30.7l-73.9-5.2l73.9-4.6l-28-29.2c0,0-16.8-13.6-29.9,0.2
				C990.1,125.1,968.3,145.2,968.3,145.2"/>
		</g>
	</g>
</g>
<g>
	<path d="M35.8,292.4h35.5v9.2H47v17h22.6v9.2H47v26.1H35.8V292.4z"/>
	<path d="M100.6,336.4l-5.3,17.4H83.7l19.7-61.4h14.3l20,61.4h-12l-5.6-17.4H100.6z M118.2,328l-4.8-15.1c-1.2-3.7-2.2-7.9-3.1-11.5
		h-0.2c-0.9,3.6-1.8,7.8-2.9,11.5l-4.7,15.1H118.2z"/>
	<path d="M158.9,293.2c4.2-0.7,10.5-1.3,17-1.3c8.8,0,14.9,1.5,19,4.9c3.4,2.8,5.3,7.1,5.3,12.3c0,7.9-5.4,13.3-11.1,15.4v0.3
		c4.4,1.6,7,5.9,8.6,11.9c1.9,7.7,3.6,14.8,4.8,17.1h-11.6c-0.9-1.8-2.4-6.8-4.1-14.5c-1.7-8-4.6-10.6-11-10.8h-5.7v25.2h-11.1
		V293.2z M170.1,320.4h6.7c7.6,0,12.3-4,12.3-10.1c0-6.7-4.7-9.8-12-9.8c-3.6,0-5.8,0.3-6.9,0.5V320.4z"/>
	<path d="M275.3,328.8c-0.4-7.9-0.8-17.5-0.7-25.8h-0.3c-2,7.5-4.6,15.8-7.3,23.5l-8.9,26.6h-8.7l-8.2-26.3
		c-2.4-7.8-4.6-16.2-6.2-23.9h-0.2c-0.3,8-0.6,17.8-1.1,26.2l-1.4,24.7h-10.5l4.1-61.4h14.8l8,24.7c2.2,7.2,4.1,14.5,5.7,21.3h0.3
		c1.6-6.7,3.7-14.2,6.1-21.4l8.5-24.6h14.6l3.6,61.4h-10.9L275.3,328.8z"/>
	<path d="M387.1,352c-2.6,1.4-8.5,2.7-15.9,2.7c-19.5,0-31.4-12.2-31.4-30.9c0-20.2,14-32.5,32.8-32.5c7.4,0,12.7,1.5,14.9,2.7
		l-2.5,8.9c-2.9-1.3-6.9-2.4-12-2.4c-12.5,0-21.5,7.8-21.5,22.6c0,13.5,7.9,22.2,21.4,22.2c4.6,0,9.3-0.9,12.2-2.3L387.1,352z"/>
	<path d="M409.4,293.2c4.2-0.7,10.5-1.3,17-1.3c8.8,0,14.9,1.5,19,4.9c3.4,2.8,5.3,7.1,5.3,12.3c0,7.9-5.4,13.3-11.1,15.4v0.3
		c4.4,1.6,7,5.9,8.6,11.9c1.9,7.7,3.6,14.8,4.8,17.1h-11.6c-0.9-1.8-2.4-6.8-4.1-14.5c-1.7-8-4.6-10.6-11-10.8h-5.7v25.2h-11.1
		V293.2z M420.5,320.4h6.7c7.6,0,12.3-4,12.3-10.1c0-6.7-4.7-9.8-12-9.8c-3.6,0-5.8,0.3-6.9,0.5V320.4z"/>
	<path d="M508.3,326.6h-23.2v18H511v9.2h-37.1v-61.4h35.7v9.2h-24.5v15.9h23.2V326.6z"/>
	<path d="M533.5,293.2c4.9-0.8,11.2-1.3,17.9-1.3c11.5,0,19.4,2.4,25.1,7.1c5.9,4.8,9.6,12.1,9.6,22.6c0,10.9-3.7,19.1-9.6,24.4
		c-6.1,5.6-15.9,8.4-27.8,8.4c-6.6,0-11.5-0.4-15.1-0.8V293.2z M544.7,345.3c1.5,0.3,3.9,0.3,6.2,0.3c14.6,0.1,23.2-7.9,23.2-23.5
		c0.1-13.6-7.7-21.3-21.8-21.3c-3.6,0-6.1,0.3-7.7,0.6V345.3z"/>
	<path d="M619.7,292.4v61.4h-11.2v-61.4H619.7z"/>
	<path d="M656.9,301.8h-17.5v-9.4h46.4v9.4h-17.7v52.1h-11.2V301.8z"/>
	<path d="M737.3,293.2c3.6-0.7,10-1.3,16.3-1.3c8.3,0,13.4,1,17.6,3.9c3.8,2.3,6.4,6.3,6.4,11.5c0,5.7-3.6,10.8-10.2,13.3v0.2
		c6.5,1.6,12.4,6.7,12.4,15.2c0,5.5-2.4,9.8-5.9,12.7c-4.4,3.8-11.6,5.7-22.8,5.7c-6.2,0-10.9-0.5-13.8-0.8V293.2z M748.4,317.5h5.7
		c7.7,0,12.1-3.6,12.1-8.8c0-5.7-4.4-8.4-11.5-8.4c-3.3,0-5.2,0.2-6.4,0.5V317.5z M748.4,345.7c1.5,0.2,3.4,0.3,5.9,0.3
		c7.2,0,13.6-2.7,13.6-10.3c0-7.1-6.2-10-13.9-10h-5.6V345.7z"/>
	<path d="M814.5,336.4l-5.3,17.4h-11.6l19.7-61.4h14.3l20,61.4h-12l-5.6-17.4H814.5z M832.1,328l-4.8-15.1
		c-1.2-3.7-2.2-7.9-3.1-11.5h-0.2c-0.9,3.6-1.8,7.8-2.9,11.5l-4.7,15.1H832.1z"/>
	<path d="M872.8,353.8v-61.4h12.8l15.9,26.3c4.1,6.8,7.7,13.9,10.5,20.6h0.2c-0.7-8.2-1-16.1-1-25.5v-21.4h10.4v61.4h-11.6l-16-27
		c-3.9-6.7-8-14.3-11-21.2l-0.3,0.1c0.5,7.9,0.5,16,0.5,26.2v22H872.8z"/>
	<path d="M947.1,292.4h11.1v28.3h0.3c1.5-2.4,3-4.6,4.5-6.7l16-21.6h13.9l-21.1,26.2l22.5,35.3h-13.1l-17.4-28.2l-5.5,6.6v21.6
		h-11.1V292.4z"/>
</g>
<path class="st3" d="M36.2,233.6h199.7c0,0,6.4,7,11.6,9.7H36.2V233.6z"/>
<path class="st3" d="M993.6,233.6H336.8c0,0-5.1,6.1-14.5,9.7h671.3V233.6z"/>
<g>
	<path d="M328.6,122.8l0.4,2.4c5.1-2,10.1-4.1,15.6-5.1c0-1.6,0.2-3.7,0.2-5.1c0-6.5-4.5-11.9-10.5-11.9c-7.1,0-15.4,8.1-20.3,11.9
		c-6.9-5.5-15.8-9.3-27.4-9.3c-22.9,0-35.9,13-35.9,28.8c0,9.3,3.4,16.2,11.8,21.9c-9.7,4.7-15.8,11.1-15.8,22.3
		c0,6.1,1.8,10.7,7.3,13.8c-5.5,5.7-9.7,11.6-9.7,19.7c0,14,13.8,23.3,38.1,23.3c29.2,0,54.1-11.8,54.1-36.5
		c0-15.8-6.3-26.6-25.1-26.6c-23.1,0-32,2.6-37.9,2.6c-8.9,0-13.4-1.4-13.4-7.1c0-4.3,4.2-6.7,7.3-8.3c5.7,2.2,11.6,3.6,19.3,3.6
		c22.9,0,35.9-13,35.9-28.8c0-5.3-1.8-10.9-5.1-15.6c2.6-2.4,6.3-4.7,10.3-4.7c2.8,0,4.3,2.4,4.3,4.5
		C332,120.8,330,122.4,328.6,122.8z M308.1,192.3c14.4,0,20.7,3.1,20.7,10.1c0,8.3-8.7,14.8-38.9,14.8c-23.1,0-30.2-5.1-30.2-14.2
		c0-2,0.4-4.3,0.4-6.7C276.5,193.7,291.3,192.3,308.1,192.3z M286.2,156.8c-9.1,0-13.6-8.1-13.6-22.3c0-14.2,4.5-22.3,13.6-22.3
		c9.1,0,13.6,8.1,13.6,22.3C299.8,148.7,295.3,156.8,286.2,156.8z"/>
	<path d="M468.5,168.9c0,9.7,7.1,11.9,14.8,11.9v4.1c-7.1-0.4-13-0.8-27-0.8c-13.2,0-20.1,0.4-26.4,0.8v-4.1
		c7.5,0,14.6-2.2,14.6-11.9v-46.4c0-6.9-4.3-10.1-14.6-10.1v-4.1c14.4-0.4,28.6-1.8,39.1-4.5c-0.2,6.7-0.6,13.2-0.6,19.4V168.9z
		 M470.9,74c0,8.9-6.9,15.6-15.6,15.6c-8.7,0-15.6-6.7-15.6-15.6c0-8.9,6.9-15.6,15.6-15.6C464,58.4,470.9,65.1,470.9,74z"/>
	<g>
		<defs>
			<path id="SVGID_00000034797459469298387420000000724759737522954645_" d="M859.9,147.9c7.9-7.3,27.6-17.4,27.6-28.2
				c0-5-4.7-6.5-8.1-7.3v-4.1c8.1,0.4,16,0.8,24.1,0.8c8.1,0,16-0.4,24.1-0.8v4.1c-14.6,1-26.4,21.5-39.2,32
				c12.4,16.2,28.4,35.3,47.3,37.3v4.1c-9.5-0.4-19.1-0.8-28.6-0.8c-9.7,0-19.3,0.4-28.8,0.8v-4.1c6.3-1.2,9.9-2.2,9.9-6.1
				c0-4.1-5.1-9.7-8.1-13.6l-10.5-13.4l-9.7,6.5v14.6c0,9.7,7.1,12,14.8,12v4.1c-7.1-0.4-13-0.8-27-0.8c-13.2,0-20.1,0.4-26.4,0.8
				v-4.1c7.5,0,14.6-2.2,14.6-12V59.3c0-6.9-4.3-10.1-14.2-10.1v-4c14-0.4,28.2-1.8,38.1-4.5V147.9z"/>
		</defs>
		<use xlink:href="#SVGID_00000034797459469298387420000000724759737522954645_"  style="overflow:visible;"/>
		<clipPath id="SVGID_00000096742677566592568240000018126181933086178435_">
			<use xlink:href="#SVGID_00000034797459469298387420000000724759737522954645_"  style="overflow:visible;"/>
		</clipPath>
		<path style="clip-path:url(#SVGID_00000096742677566592568240000018126181933086178435_);" d="M971.7,149.6
			c-19.6-1.6-39.9-1.8-59.5-4.1c19.6-2.7,40-3.3,59.6-3.9c-8.6-8.8-16.5-18.3-26.6-27.1c-5.8-4.4-13-5.9-19.6-3.1
			c-16.7,5.7-25.6,22.3-38.7,33.8c11.5,10.2,19.1,22.6,32,32.2c0.7,0,3.3,1.2,4.7,1.5c5.8,1.5,10.9,1.6,16,0.1
			C947.6,176.3,966.6,154,971.7,149.6z"/>
	</g>
	<path d="M670.8,126.4c0-8.8-3.2-13.5-9.6-13.5c-9,0-10.6,7.2-10.6,13.2c0,2.6,0.2,4.4,0.4,5.6c-9.8-2.2-17.9-4.2-26.7-5.4
		c2-17.1,18.7-20.9,33.1-20.9c17.1,0,36.9,5.2,36.9,23.3c0,9.6-1,24.3-1,31.3c0,5.8,1.4,11.6,8.4,11.6c4.4,0,8-3,11.2-5.8l3.2,3.6
		c-6.6,5.6-10,17-24.7,16.9c-6.8,0-13.4-6-17.9-10.6c-9.8,6-20.9,10.6-32.5,10.6c-11.4,0-22.5-8-22.5-18.3
		c0-25.3,31.3-26.7,52.4-26.7V126.4z M657.4,174.2c4.8,0,9.8-1.6,13.4-5c-0.2-3.6-0.4-6.8-0.4-10.2c0-3.6,0.2-7.2,0.4-10.8
		c-3.6-0.6-7-0.8-10.6-0.8c-8,0-16.3,4.6-16.3,13.5C643.9,169.2,649.1,174.2,657.4,174.2z"/>
	<path d="M746.6,118.9c9.5-8.1,18.4-13,30.2-13c16.4,0,26.8,10.1,26.8,25.7v38.1c0,9.7,7.1,12,13.4,12v4.1
		c-5.7-0.4-11.6-0.8-25.5-0.8c-13.2,0-20.1,0.4-24.7,0.8v-4.1c5.9,0,13-2.2,13-12v-37.7c0-7.9-6.5-13.2-16-13.2
		c-6.5,0-12.4,3.4-17,7.9v43c0,9.7,7.1,12,13.2,12v4.1c-5.5-0.4-11.4-0.8-25.3-0.8c-13.2,0-20.1,0.4-25.7,0.8v-4.1
		c6.9,0,14-2.2,14-12v-46.4c0-6.9-4.3-10.1-13.4-10.1v-4.1c13.2-0.4,27.4-0.8,37.3-3.2V118.9z"/>
	<path d="M384.2,166.7c0,9.7,5.3,13.8,19.9,14.2v4.1c-9.5-0.4-18.9-0.8-28.4-0.8c-9.5,0-18.8,0.4-28.4,0.8v-4.1
		c8.9-0.4,14.2-4.5,14.2-14.2v-40.1c0-9.7-5.3-13.8-14.2-14.2v-4.1c7.5,0,30-2.8,36.9-4.1v14.2c9.1-7.3,18-16.2,30.4-16.2
		c9.9,0,13.4,6.5,13.4,18.4c-6.5,3-18.9,8.5-23.5,11.4l-2.4-1.6c1.8-1.2,5.3-4.2,5.3-6.9c0-4.9-3-7.1-7.7-7.1
		c-3.8,0-12.2,5.3-15.4,9.5V166.7z"/>
	<path d="M93.8,180.1c15.2-1.6,18.7-9.3,24.1-22.1l39.7-92.6l-3.6-9.7c8.5-1.6,17.2-3.8,24.9-7.3l44,119.4
		c3.2,8.7,12.6,12.4,20.9,12.4v4.9c-10.5-0.6-26.3-0.8-36.7-0.8c-11.4,0-22.7,0.2-33.9,0.8v-4.9c14-1,20.7-4.3,20.7-11.3
		c0-5.1-4.7-15.6-6.7-21.3l-6.9-20.1h-40.3L129.7,156c-1.2,3.6-3.2,6.9-3.2,12.2c0,6.7,10.5,10.7,17.8,12v4.9
		c-8.7-0.6-17.4-0.8-26.2-0.8c-8.1,0-16.2,0.2-24.3,0.8V180.1z M177.6,119.7l-16.6-47.4h-0.4l-17.6,47.4H177.6z"/>
	<path d="M584.6,115.9v-0.4c11.4-4,21-13.8,21-26.6c0-23.8-23.4-36.4-44.6-36.4c-25,0-50,1.2-74.4,1.2v4.4c17,0.4,21,9.6,21,23.6
		v74.4c0,9.7-0.5,15.3-3.9,18.7l24.7-4.4c-0.1-5.3-0.1-10.9-0.1-10.9c-0.1-6.9-1.2-14,1.9-20.4c1.9-3.4,4.6-6.7,9.5-9.7
		c1-0.5,1.6-0.8,3.3-1.2c2.5-0.5,4.2-0.6,6.7-0.7c4.5-0.2,7.9,0,11.3,0.1c6.3,0.3,13.6,0.8,19.9,0.4c-0.4,6.3,0.3,13.8,0.6,20
		c0.2,3.4,0.1,8.1-0.3,11.8c-0.4,3.3-1.5,7.5-2.8,10.7c-2.2,5.5-7.6,8.7-13.5,9.5c-11.1,0.8-21.2-0.1-31.4-0.2
		c2.8-1.4,5.3-2.9,7.7-4.4c10.4,2.6,29.9-1.8,29.9-1.8c-13.3,1.4-22.3,0.6-27.1-0.1c5.2-3.5,9.3-7.1,12.6-10.5
		c9.9,0.3,23.1-7.9,23.1-7.9c-11.1,3.7-17.4,5-20.9,5.4c10.2-11.9,10.2-21.7,10.2-21.7c-3.1,11.2-12.3,20-21.2,26.2
		c-0.5-3.9-0.7-10.9,1-22.4c0,0-5.7,14.5-3.6,24.2c-8.8,5.7-16.5,8.7-16.5,8.7l-33.3,2.9c-2.4,0.5-5.2,0.8-8.6,1.1v4.8
		c8.2-0.4,15.4-0.8,32.2-0.8c12.6,0,22.6,0.4,30.6,1c7.8,0.4,13.6,1,17.8,1c27.6,0,48.8-8.8,48.8-35.4
		C616,132.9,600.8,119.3,584.6,115.9z M550.4,115.7c-6.4,0-11.6-1.2-16-2.8V61.2c4.4-0.2,8.4-0.6,12.6-0.6c18.2,0,29.8,8.8,29.8,28
		C576.8,103.7,566.8,115.7,550.4,115.7z"/>
</g>
</svg>
