<svg xmlns="http://www.w3.org/2000/svg" width="590.993" height="150.079" viewBox="2.144 345.912 590.993 150.079"><g fill="#FFF"><path d="M28.926 486.986c-20.548-9.984-23.325-47.189-5.557-83.299 17.219-35.543 48.317-56.09 68.864-46.095 12.218 6.112 18.881 22.214 18.881 41.67 2.222-23.881-3.89-43.317-18.881-50.535-23.325-11.122-57.757 11.643-77.193 51.626-19.436 39.982-16.657 81.632 6.668 92.74 14.436 7.217 33.871.555 51.095-15.553-15.552 11.664-32.21 15.553-43.872 9.426l-.005.02z"/><path d="M55.56 424.791l18.88-27.215 2.778 27.215H55.56zm-8.329 11.656h31.644l1.111 11.662-5.556.557-4.439 11.107h33.32l2.773-11.107-3.329-.557-1.111-4.439-8.299-68.858H76.682l-47.2 68.858-4.465 4.996-3.329.555-4.464 11.107H41.7l2.772-11.107-4.995-.555 7.773-12.219h-.019zM130.55 382.029l-4.445-.556 2.778-11.662 29.987-.556-6.662 17.769-17.769 56.645-1.111 4.997 4.995.554-3.329 11.108h-29.436l6.111-16.659 17.77-56.645zM174.978 430.341H172.2l-9.425 29.986H139.46l6.111-16.658 18.325-56.646 1.111-4.995-5.001-.556 3.334-11.107 29.987-.556-6.667 17.769-12.238 38.871h2.773a44.395 44.395 0 0 0 9.995-6.662 19.934 19.934 0 0 0 9.426-14.44 9.155 9.155 0 0 0-1.111-7.773l22.765-.556a9.433 9.433 0 0 1 .556 3.89c-1.111 10.551-14.436 19.991-23.315 25.542l10.551 22.77 3.885.557-3.329 11.107H185.53l-10.552-30.543z"/><path d="M237.174 427.007c1.662-6.107 7.773-18.88 14.991-18.88 3.89 0 5.001 2.778 4.465 6.667a13.421 13.421 0 0 1-7.223 9.997 23.955 23.955 0 0 1-12.213 2.217h-.02zm37.205 13.328a71.173 71.173 0 0 1-29.432 8.33c-6.667 0-11.662-2.773-10.551-9.996 16.103.557 41.094-9.996 43.316-28.876a10.655 10.655 0 0 0-4.465-10.551 18.548 18.548 0 0 0-12.218-3.333 47.944 47.944 0 0 0-32.74 14.44 50.75 50.75 0 0 0-16.658 30.543c-1.667 14.996 11.106 21.104 23.881 21.104a93.335 93.335 0 0 0 34.427-7.219l4.44-14.442zM306.569 424.234h1.667c5.552-11.107 19.992-28.325 33.316-28.325a5.6 5.6 0 0 1 5 1.667l-10.551 20.547a7.147 7.147 0 0 0-5.557-2.223c-9.995 0-21.098 14.441-26.653 22.215l-7.773 22.213h-23.315l6.663-18.324 9.425-30.543.551-2.778-4.44-.555 2.818-11.107 29.432-.555-10.552 27.779-.031-.011zM365.452 424.234h1.667a74.543 74.543 0 0 1 12.218-17.218c4.995-4.996 14.436-11.107 21.103-11.107 5.114-.19 9.414 3.803 9.604 8.917v.012a9.009 9.009 0 0 1-.178 2.192c-.556 2.223-1.667 5.556-2.223 7.778l-3.334 9.425h1.667a80.203 80.203 0 0 1 12.773-17.774 34.279 34.279 0 0 1 21.658-11.107c5.612.304 9.918 5.097 9.619 10.71-.03.5-.095.997-.193 1.488-.556 2.778-1.111 5-1.667 7.778l-8.885 27.779-1.11 4.996 4.995.555-2.773 11.107h-28.275l6.106-16.658 7.218-21.102c1.667-6.112 1.667-7.774-.556-7.774-4.995 0-17.769 16.659-21.103 21.102l-2.218 1.662-7.778 23.314h-21.673l5.556-16.656 7.218-21.104c2.223-7.218.556-7.773 0-7.773-4.995 0-17.769 16.658-21.103 21.104l-1.111 1.105-7.773 23.314h-21.658l6.111-16.656 9.426-29.988 1.111-5-5.001-.555 3.334-11.107 27.779-.556-10.551 27.779v.018zM471.522 427.007c1.666-6.107 7.772-18.88 14.99-18.88 3.89 0 5.001 2.778 5.001 6.667a13.423 13.423 0 0 1-7.223 9.997 25.004 25.004 0 0 1-12.768 2.216zm37.759 13.328a71.173 71.173 0 0 1-29.432 8.33c-6.662 0-11.662-2.773-10.551-9.996 16.103.557 41.094-9.996 43.316-28.876a10.655 10.655 0 0 0-4.465-10.551 18.548 18.548 0 0 0-12.218-3.333 47.886 47.886 0 0 0-32.74 14.44 54.568 54.568 0 0 0-17.229 30.543c-1.667 14.996 11.106 21.104 24.437 21.104a93.335 93.335 0 0 0 34.427-7.219l4.465-14.441h-.01zM558.705 408.127a16.26 16.26 0 0 0-5.552-1.667 7.26 7.26 0 0 0-7.772 5.556c-.556 4.44 3.884 7.773 6.662 9.996 5.551 4.996 12.218 9.996 11.106 18.881a23.489 23.489 0 0 1-11.106 16.102 38.88 38.88 0 0 1-20.548 5 82.617 82.617 0 0 1-23.88-3.889l6.111-17.213 11.106.555-1.111 6.662a17.015 17.015 0 0 0 9.426 2.223 8.087 8.087 0 0 0 8.885-6.662c.556-4.465-3.334-7.223-5.557-9.426-4.995-5-11.657-10.551-10.551-18.879a21.635 21.635 0 0 1 11.662-16.107 43.789 43.789 0 0 1 20.548-3.889c6.146.004 12.278.562 18.324 1.667l-6.106 17.218-11.107-.556-.556-5.556.016-.016zM585.919 396.464a7.223 7.223 0 1 0 7.218 7.228 7.352 7.352 0 0 0-7.218-7.228zm0 1.111a5.953 5.953 0 0 1 5.551 5.556 5.247 5.247 0 0 1-4.926 5.551h-.625a5.953 5.953 0 0 1-5.556-5.551 5.566 5.566 0 0 1 5.556-5.556zm-1.667 6.668h.556c1.111 0 1.667.555 1.667 1.106 0 1.111.551 1.667.551 2.223h1.667a8.796 8.796 0 0 0-.556-2.223c0-1.106-.556-1.662-1.111-1.662a1.777 1.777 0 0 0 1.667-1.667 2.045 2.045 0 0 0-.556-1.667c-.556-.556-1.111-.556-2.773-.556h-2.777v7.753h1.666v-3.307zm0-3.334h1.106c1.111 0 1.662.555 1.662 1.111s-.551 1.111-1.662 1.111h-.556v-2.222h-.55z"/></g></svg>