<?xml version="1.0" encoding="utf-8"?>
<!-- Generator: Adobe Illustrator 24.0.0, SVG Export Plug-In . SVG Version: 6.00 Build 0)  -->
<svg version="1.1" id="Ebene_1" xmlns="http://www.w3.org/2000/svg" xmlns:xlink="http://www.w3.org/1999/xlink" x="0px" y="0px"
	 viewBox="0 0 1000 101.58" style="enable-background:new 0 0 1000 101.58;" xml:space="preserve">
<style type="text/css">
	.st0{fill:#3C289B;}
</style>
<g>
	<path class="st0" d="M56.15,78.03H73.3C65.82,52.25,56.85,26.58,45.8,0.8H28.42C17.73,25.68,8.4,51.45,0,78.03h17.27
		c1.5-5.18,3-10.35,4.6-15.55H38.9l4.15-15.08H26.82c3.23-9.42,6.68-18.75,10.25-28.07C44.3,38.68,50.62,58.13,56.15,78.03
		 M143.4,21.4c-8.05,0-13.47,3.45-17.15,9.1c-3.9-5.98-10.6-9.1-18.07-9.1c-6.68,0-11.98,3.68-15.07,9.1l-0.57-7.7h-14.5v55.25
		h16.12v-31.1c0-7.35,4.15-11.5,9.9-11.5c5.75,0,9.68,4.03,9.68,10.92v31.65h16.1V47.65c0-8.05,4.5-12.2,10.25-12.2
		c5.18,0,9.55,3.35,9.55,10.82v31.77h16.1V43.98C165.73,29.35,155.38,21.4,143.4,21.4 M229.38,49.83c0-15.3-12.2-28.42-28.65-28.42
		c-15.88,0-29.23,12.2-29.23,29.22c0,16.58,12.65,28.88,29.57,28.88c10.93,0,21.98-5.4,26.35-16.67h-16.35
		c-2.53,2.65-5.97,3.58-10.25,3.58c-5.4,0-12.33-3.35-13.93-10.25h41.9C229.15,54.1,229.38,51.9,229.38,49.83 M200.7,33.73
		c7.37,0,12.78,4.95,14.38,11.4h-28.4C188.17,38.68,193.35,33.73,200.7,33.73 M265.9,21.88c-6.22,0-12.32,3.92-14.72,11.5
		l-0.58-10.6h-14.72v55.25h16.1V51.45c0-8.05,5.3-14.62,15.07-14.62c1.28,0,2.43,0.12,3.68,0.12v-14.5
		C268.9,22.1,267.28,21.88,265.9,21.88 M277.75,16.13h16.35V0h-16.35V16.13z M277.85,78.03h16.22V22.8h-16.22V78.03z M326,79.4
		c13.92,0,24.05-6.9,24.05-18.3c0-9.1-6.33-14.95-18.42-17.02l-5.18-0.93c-6.1-0.93-8.52-2.3-8.52-5.53c0-2.65,2.65-4.38,6.8-4.38
		c5.07,0,7.7,2.18,8.62,5.98h15.43c-1.38-11.05-9.67-17.85-23.83-17.85c-15.77,0-23.12,7.38-23.12,17.6
		c0,11.28,9.2,15.53,17.95,17.03l5.75,0.93c4.73,0.8,7.13,2.53,7.13,5.17c0,3-2.52,4.6-7.25,4.6c-4.95,0-7.6-1.6-8.62-5.4h-15.42
		C302.88,73.88,312.55,79.4,326,79.4 M385.38,79.4c17.15,0,30.72-12.42,30.72-29s-13.57-29-30.72-29c-16.93,0-30.62,12.42-30.62,29
		C354.78,66.98,368.35,79.4,385.38,79.4 M385.5,65.15c-8.05,0-14.63-6.68-14.63-14.72s6.55-14.72,14.63-14.72
		c8.05,0,14.62,6.55,14.62,14.72C400.12,58.48,393.55,65.15,385.5,65.15 M459.38,22.8v31.07c0,7.38-4.95,11.5-10.83,11.5
		c-5.75,0-9.77-4.03-9.77-10.93V22.8h-16.12v34.07c0,15.3,9.9,22.55,21.88,22.55c7.02,0,12.9-3.67,15.88-9.43l0.57,8.05h14.5V22.8
		H459.38z M515.15,21.88c-6.23,0-12.33,3.92-14.73,11.5l-0.57-10.6h-14.73v55.25h16.1V51.45c0-8.05,5.3-14.62,15.07-14.62
		c1.28,0,2.43,0.12,3.68,0.12v-14.5C518.15,22.1,516.53,21.88,515.15,21.88 M551.45,79.4c12.42,0,25.08-6.8,28.55-22.45h-15.88
		c-1.95,5.08-6.67,8.18-12.55,8.18c-8.17,0-13.7-6.55-13.7-14.73c0-8.05,5.53-14.72,13.7-14.72c5.75,0,10.25,2.88,12.43,8.3h16
		c-3-14.38-15.07-22.55-28.55-22.55c-16.8,0-29.7,12.33-29.7,29C521.75,67.2,534.65,79.4,551.45,79.4 M642.53,49.83
		c0-15.3-12.2-28.42-28.65-28.42c-15.88,0-29.22,12.2-29.22,29.22c0,16.58,12.65,28.88,29.57,28.88c10.93,0,21.98-5.4,26.35-16.67
		h-16.35c-2.52,2.65-5.97,3.58-10.25,3.58c-5.4,0-12.33-3.35-13.93-10.25h41.9C642.3,54.1,642.53,51.9,642.53,49.83 M613.88,33.73
		c7.38,0,12.78,4.95,14.38,11.4h-28.42C601.33,38.68,606.5,33.73,613.88,33.73 M693.97,37.53c7.47-3.22,11.18-9.32,11.18-16.67
		c0-11.05-10.03-20.03-27.05-20.03h-28.55v77.22h29c20.6,0,29.8-10.48,29.8-22.45C708.35,48.68,704.42,40.75,693.97,37.53
		 M679.22,63.75h-12.55V15.3h11.17c6.8,0,10.35,3.32,10.35,8.28c0,5.65-4.02,8.4-10.47,8.4h-1.5l-3.8,14.38h6.8
		c6.8,0,11.17,3,11.17,8.63S686.03,63.75,679.22,63.75 M771.88,49.83c0-15.3-12.2-28.42-28.65-28.42C727.35,21.4,714,33.6,714,50.63
		c0,16.58,12.65,28.88,29.57,28.88c10.93,0,21.98-5.4,26.35-16.67h-16.35c-2.53,2.65-5.97,3.58-10.25,3.58
		c-5.4,0-12.32-3.35-13.92-10.25h41.9C771.65,54.1,771.88,51.9,771.88,49.83 M743.23,33.73c7.38,0,12.77,4.95,14.38,11.4h-28.42
		C730.67,38.68,735.85,33.73,743.23,33.73 M809.05,21.88c-6.22,0-12.3,3.92-14.73,11.5l-0.58-10.6h-14.73v55.25h16.1V51.45
		c0-8.05,5.3-14.62,15.08-14.62c1.28,0,2.42,0.12,3.67,0.12v-14.5C812.05,22.1,810.43,21.88,809.05,21.88 M861.07,22.8l-0.45,5.52
		c-3.93-4.15-9.55-6.9-16.68-6.9c-14.95,0-28.65,11.85-28.65,28.3c0,16.35,13.7,28.3,28.65,28.3c6.68,0,12.07-2.43,15.88-6.22v1.95
		c0,10.25-4.72,14.38-13.35,14.38c-5.75,0-10.35-2.08-12.55-6.8h-15.2c3.23,14.15,14.27,20.25,27.4,20.25
		c19.68,0,29.93-12.65,29.93-28.43V22.8H861.07z M845.75,63.88c-8.17,0-14.63-6.33-14.63-14.15s6.45-14.27,14.63-14.27
		c8.05,0,14.5,6.32,14.5,14.27C860.25,57.55,853.83,63.88,845.75,63.88 M940.05,49.83c0-15.3-12.2-28.42-28.65-28.42
		c-15.88,0-29.23,12.2-29.23,29.22c0,16.58,12.65,28.88,29.57,28.88c10.92,0,21.98-5.4,26.35-16.67h-16.35
		c-2.53,2.65-5.98,3.58-10.25,3.58c-5.4,0-12.33-3.35-13.92-10.25h41.9C939.82,54.1,940.05,51.9,940.05,49.83 M911.4,33.73
		c7.38,0,12.77,4.95,14.38,11.4h-28.43C898.85,38.68,904.02,33.73,911.4,33.73 M978.12,21.4c-7.12,0-12.9,3.68-15.88,9.2l-0.58-7.82
		h-14.5v55.25h16.13V46.95c0-7.35,4.95-11.5,10.7-11.5c5.75,0,9.9,4.03,9.9,10.92v31.65h16.1V43.98C1000,28.65,990,21.4,978.12,21.4
		"/>
</g>
</svg>
