<?xml version="1.0" encoding="utf-8"?>
<!-- Generator: Adobe Illustrator 24.2.3, SVG Export Plug-In . SVG Version: 6.00 Build 0)  -->
<svg version="1.1" id="Layer_1" xmlns="http://www.w3.org/2000/svg" xmlns:xlink="http://www.w3.org/1999/xlink" x="0px" y="0px"
	 viewBox="0 0 134 48" style="enable-background:new 0 0 134 48;" xml:space="preserve">
<style type="text/css">
	.st0{fill:#142848;}
</style>
<path class="st0" d="M70.1,35.5H57.5V48h12.6V35.5z"/>
<path class="st0" d="M70.1,12.6h15.4V0H42.2l0,12.6h15.4v15.9h12.6V12.6z"/>
<path class="st0" d="M131.5,14.4C126.6,0.9,112.2,0,108.7,0H90.2v28.5h13v-16h6.4c3.1,0,5.7,1,7.5,3.2c5,6,2.4,14.3,0,16.5
	c-2.1,2-4.4,3.3-7.5,3.3H90.2V48h18.5c16.6-0.3,21.6-11.5,22.8-14.5C135.1,24.4,132.6,17.4,131.5,14.4z"/>
<path class="st0" d="M24.1,20.7l2.9,7.8h13.5L29.2,0H18.9L7.7,28.5h13.4L24.1,20.7z"/>
<path class="st0" d="M2.3,42.1L0,48h13.8l2.2-5.9h16l2.2,5.9h14.1l-5-12.5C20.4,35.6,8.5,38.9,2.3,42.1z"/>
</svg>
