<?xml version="1.0" encoding="utf-8"?>
<!-- Generator: Adobe Illustrator 27.2.0, SVG Export Plug-In . SVG Version: 6.00 Build 0)  -->
<svg version="1.1" id="Layer_1" xmlns="http://www.w3.org/2000/svg" xmlns:xlink="http://www.w3.org/1999/xlink" x="0px" y="0px" viewBox="0 0 436.6 73.9" style="enable-background:new 0 0 436.6 73.9;" xml:space="preserve">
  <style type="text/css">
	.st0{fill:#00BCE7;}
	.st1{fill:#002B5C;}
</style>
  <g>
    <polygon class="st0" points="29.2,31.5 16,4.9 2.8,31.5 	" />
    <polygon class="st1" points="207.3,7.3 221.7,49.2 233.9,7.3 246.5,7.3 227.4,68.6 216.2,68.6 203.9,32.9 191.6,68.6 180.9,68.6 
		161.2,7.3 174.2,7.3 187.2,49.2 200.7,7.3 	" />
    <rect x="258.8" y="7.3" class="st1" width="12.5" height="61.3" />
    <polygon class="st1" points="344.6,68.6 336.9,68.6 305,29.4 305,68.6 292.9,68.6 292.9,7.3 302.4,7.3 332.5,43.8 332.5,7.3 
		344.6,7.3 	" />
    <path class="st1" d="M367.9,49c4.5,6.4,11.1,10,17.8,10c6.4,0,11.1-2.8,11.1-8c0-5.6-5.8-6.4-15-8.4c-9.1-2.1-19-5-19-17.2
		c0-11.7,10.1-19,22.8-19c10.6,0,18.9,4.7,23.1,10.8l-8.3,8.1c-3.6-5-8.4-8.4-15.2-8.4c-6,0-10.1,2.9-10.1,7.3
		c0,4.8,4.4,5.7,12.5,7.5c9.7,2.1,21.7,4.6,21.7,18c0,12.4-10.9,19.8-24,19.8c-10.3,0-21.1-4.7-26-12.1L367.9,49z" />
    <polygon class="st1" points="75,68.6 42.9,4 36.1,17.6 49.4,44.3 22.8,44.3 10.8,68.6 24.1,68.6 30.8,55 54.7,55 61.5,68.6 	" />
    <polygon class="st1" points="117.2,58.9 96.9,29 96.9,68.6 85.1,68.6 85.1,7.3 96.6,7.3 117.2,39.1 137.6,7.3 148.9,7.3 
		148.9,68.6 136.9,68.6 136.9,29 	" />
  </g>
  <g>
    <path class="st1" d="M425.2,15.8c-2.7,0-4.9-2.1-4.9-4.9c0-2.8,2.2-4.9,4.9-4.9c2.7,0,4.9,2.1,4.9,4.9
		C430.2,13.7,428,15.8,425.2,15.8z M425.2,6.6c-2.3,0-4.2,1.8-4.2,4.3c0,2.4,1.9,4.3,4.2,4.3c2.3,0,4.2-1.8,4.2-4.3
		C429.4,8.4,427.6,6.6,425.2,6.6z M426.3,13.2l-1.2-1.8h-0.8v1.8h-1.1v-5h2.3c1.2,0,1.9,0.6,1.9,1.5c0,0.8-0.6,1.2-1.1,1.4l1.4,2
		H426.3z M425.3,9.2h-1v1.4h1c0.5,0,0.9-0.2,0.9-0.7C426.2,9.4,425.8,9.2,425.3,9.2z" />
  </g>
</svg>