<?xml version="1.0" encoding="utf-8"?>
<!-- Generator: Adobe Illustrator 26.0.3, SVG Export Plug-In . SVG Version: 6.00 Build 0)  -->
<svg version="1.1" id="Layer_1" xmlns="http://www.w3.org/2000/svg" xmlns:xlink="http://www.w3.org/1999/xlink" x="0px" y="0px"
	 viewBox="0 0 369.1 66.1" style="enable-background:new 0 0 369.1 66.1;" xml:space="preserve">
<style type="text/css">
	.st0{fill:#463797;}
</style>
<path class="st0" d="M83.3,2h15.4l15,35.5L120.1,2h15l-11,62.6h-14.5L93.7,27.3l-6.6,37.3h-15L83.3,2z"/>
<path class="st0" d="M149.8,64.6l8.5-48.7h-13.3L147.4,2h41.4l-2.5,13.9h-13l-8.5,48.7H149.8z"/>
<path class="st0" d="M201,2h37l-2.5,13.8h-22l-1.8,10.6h22l-2.5,13.9h-22l-1.8,10.6h22L227,64.6h-37L201,2z"/>
<path class="st0" d="M338.2,40.6h-16.8l-4.2,24h-15l11-62.6h15L324,25.6h16.8L345,2h15l-11,62.6h-15L338.2,40.6z"/>
<path class="st0" d="M61.1,64.6L51.5,2H36.6L21,31.2c-6.3-1.3-13.3-2-21-2v11.5c5.6,0,10.7,0.4,15.3,1.2L3.1,64.6h15.4l10-19
	c9.2,4,15.1,10.4,17.2,19H61.1z M34,35.4l6.4-12.1v0h0l2.4,17.3c-1-0.7-2-1.5-3.1-2.1C37.9,37.4,36,36.3,34,35.4z"/>
<path class="st0" d="M294.1,48.2c-1.2,2.8-2.8,5.5-4.9,8c-2,2.5-4.6,4.8-7.6,6.5c-3,1.7-6.4,2.9-10,3.3c-1.8,0.2-3.6,0.2-5.3,0
	c-1.8-0.2-3.6-0.6-5.4-1.2c-3.5-1.2-6.6-3.3-9.1-5.9c-2.5-2.5-4.3-5.5-5.6-8.6c-2.6-6.2-2.9-12.6-2.2-18.5c0.7-5.7,2.4-11.6,5.6-17
	c1.6-2.7,3.6-5.2,6.1-7.4c2.4-2.2,5.3-4.1,8.4-5.4c3.1-1.3,6.6-2,10.1-2c1.8,0,3.5,0.2,5.3,0.6c1.7,0.4,3.5,0.9,5.1,1.8
	c1.7,0.8,3.3,1.8,4.7,3.1c1.4,1.2,2.7,2.6,3.7,4c2.1,2.9,3.3,6,4.2,9l-14.3,4.1c-0.6-2.1-2.3-7.4-8.7-7.2
	c-7.1,0.3-13.1,6.6-14.6,18.3c-0.6,4.9,0.2,15.3,8.5,16.7c6.7,1,10.8-5,12.5-8.5L294.1,48.2z"/>
<g>
	<path class="st0" d="M354.9,57.6c0-3.9,3.1-7,7.1-7c4,0,7.1,3.1,7.1,7c0,3.9-3.1,7-7.1,7S354.9,61.6,354.9,57.6z M367.8,57.6
		c0-3.4-2.4-5.8-5.8-5.8c-3.4,0-5.8,2.4-5.8,5.8c0,3.5,2.6,5.8,5.8,5.8C365.3,63.4,367.8,61,367.8,57.6z M359.5,54.1h2.6
		c1.7,0,2.7,0.7,2.7,2.1v0c0,1-0.6,1.6-1.3,1.9l1.7,2.9h-1.9l-1.5-2.6h-0.6V61h-1.8V54.1z M362,57.2c0.7,0,1.1-0.3,1.1-0.9v0
		c0-0.7-0.4-0.9-1.1-0.9h-0.8v1.8H362z"/>
</g>
</svg>
