<svg width="753" height="255" viewBox="0 0 753 255" fill="none" xmlns="http://www.w3.org/2000/svg">
<g id="Logo Assets/logo-sm">
<g id="Frame" clip-path="url(#clip0_821_2332)">
<g id="Group 273">
<g id="Group 20">
<path id="Path 200" d="M103.073 158.215L135.642 105.694L111.91 79.299L0 201.667H281.395L338.778 101.835L254.344 139.807L278.578 119.355L207.728 42.1758L103.073 158.215Z" fill="#036A36"/>
</g>
<path id="Path 201" d="M378.718 201.357L374.627 177.74H336.385L324.152 201.318H300.535L359.346 95.4668H379.914L401.331 201.357H378.718ZM367.681 138.417C366.601 132.243 365.713 125.875 365.25 121.939C363.591 125.798 360.388 132.088 357.069 138.417L346.959 157.712H371L367.681 138.417Z" fill="#036A36"/>
<path id="Path 202" d="M484.492 156.596L476.774 201.359H455.743L463.461 158.409C463.838 156.112 464.045 153.791 464.078 151.463C464.078 143.745 460.451 139.886 453.003 139.886C444.706 139.886 439.265 144.71 436.988 157.869L429.27 201.282H408.393L422.324 121.865H443.201L442.275 127.345C447.135 122.75 453.609 120.254 460.296 120.399C477.391 120.399 485.534 129.158 485.534 145.057C485.453 148.936 485.105 152.804 484.492 156.634" fill="#036A36"/>
<path id="Path 203" d="M544.576 141.621H526.131L520.535 173.651C520.295 174.792 520.191 175.958 520.226 177.124C520.226 181.793 522.966 183.144 527.481 183.144C531.717 182.939 535.741 181.229 538.827 178.32L532.035 199.043C527.457 201.571 522.329 202.936 517.101 203.017C505.138 203.017 498.192 195.608 498.192 184.571C498.191 182.735 498.346 180.902 498.655 179.092L505.292 141.583H491.979L495.452 121.941H508.765L512.393 101.527L535.083 91.1074L529.642 121.979H547.972L544.576 141.621Z" fill="#036A36"/>
<path id="Path 204" d="M615.195 168.364H568.309C567.113 179.285 576.027 183.375 583.166 183.375C588.872 183.262 594.407 181.403 599.026 178.05L609.175 192.56C601.251 199.232 591.248 202.93 580.889 203.017C560.437 203.017 547.432 190.013 547.432 168.518C547.432 141.313 565.762 120.281 588.723 120.281C608.712 120.281 617.626 134.83 617.626 152.504C617.554 157.877 616.736 163.215 615.195 168.364V168.364ZM585.713 138.418C577.995 138.418 573.48 144.631 571.049 152.658H598.061C598.795 144.94 595.167 138.418 585.79 138.418" fill="#036A36"/>
<path id="Path 205" d="M674.971 146.64C671.762 143.296 667.37 141.343 662.738 141.199C655.792 141.199 650.466 143.63 647.611 160.262L640.356 201.399H619.479L633.525 121.982H654.402L653.515 127.346C655.423 125.129 657.794 123.358 660.461 122.158C663.128 120.958 666.026 120.358 668.951 120.399C671.858 120.295 674.752 120.839 677.422 121.994C680.093 123.149 682.472 124.885 684.386 127.075L674.971 146.64Z" fill="#036A36"/>
<path id="Path 206" d="M719.04 120.281C737.64 120.281 750.22 133.44 750.22 154.472C750.22 180.481 733.125 203.017 708.621 203.017C689.982 203.017 677.44 189.858 677.44 168.827C677.44 142.818 694.536 120.281 719.04 120.281ZM710.859 182.912C720.236 182.912 728.687 172.917 728.687 155.899C728.687 146.059 723.555 140.464 716.725 140.464C707.347 140.464 698.896 150.458 698.896 167.476C698.896 177.278 704.029 182.912 710.859 182.912Z" fill="#036A36"/>
<path id="Path 207" d="M513.435 254.306H507.067L501.665 238.484H492.017L489.2 254.306H483.335L490.397 214.365H505.832C513.936 214.365 518.76 217.838 518.76 225.016C518.895 228.124 517.867 231.171 515.876 233.561C513.885 235.952 511.075 237.514 507.993 237.943L513.435 254.306ZM505.292 219.961H495.298L493.059 232.811H504.212C509.344 232.811 512.47 230.419 512.47 225.402C512.47 222.045 510.27 219.999 505.292 219.999" fill="#F4A71C"/>
<path id="Path 208" d="M545.001 241.34H526.015C525.821 242.212 525.802 243.113 525.957 243.992C526.113 244.872 526.44 245.712 526.92 246.464C527.4 247.217 528.024 247.868 528.756 248.379C529.488 248.89 530.314 249.252 531.186 249.444C531.762 249.52 532.346 249.52 532.922 249.444C535.346 249.29 537.681 248.476 539.676 247.09L542.222 251.18C539.358 253.487 535.789 254.74 532.112 254.731C524.394 254.731 519.609 248.981 520.535 240.105C521.268 229.84 527.481 223.512 535.083 223.512C542.685 223.512 545.927 228.683 545.927 235.629C545.922 237.495 545.663 239.351 545.155 241.147L545.001 241.34ZM534.427 228.837C530.568 228.837 527.983 232.04 526.902 236.555H540.254C540.64 232.233 538.827 228.837 534.35 228.837" fill="#F4A71C"/>
<path id="Path 209" d="M569.466 231.997C567.083 230.035 564.102 228.945 561.015 228.909C558.507 228.909 557.156 229.913 556.925 231.688C556.693 233.463 557.465 234.196 562.443 236.473C567.421 238.75 570.701 241.065 570.161 246.005C569.659 252.758 564.141 254.919 559.047 254.919C554.62 254.996 550.325 253.413 547.007 250.481L550.133 246.12C552.71 248.46 556.068 249.754 559.549 249.748C562.481 249.748 564.372 248.474 564.411 246.313C564.45 244.152 563.562 243.458 559.317 241.683C553.413 239.097 550.596 237.013 551.059 232.035C551.522 226.324 555.805 223.7 561.478 223.7C565.425 223.669 569.273 224.929 572.438 227.289L569.466 231.997Z" fill="#F4A71C"/>
<path id="Path 210" d="M586.561 254.918C578.843 254.918 573.904 248.821 574.599 240.254C575.293 229.989 582.317 223.699 589.494 223.699C597.212 223.699 602.306 229.874 601.573 238.44C600.878 248.705 593.855 254.918 586.561 254.918V254.918ZM588.954 229.295C584.323 229.295 580.85 234.003 580.503 240.486C580.194 245.695 582.509 249.323 587.102 249.323C591.694 249.323 595.36 244.499 595.707 238.209C596.054 232.999 593.7 229.295 588.954 229.295" fill="#F4A71C"/>
<path id="Path 211" d="M605.857 241.798L608.944 224.355H614.809L611.877 241.065C611.71 242.021 611.62 242.989 611.606 243.959C611.606 247.818 612.957 249.516 616.469 249.516C619.98 249.516 623.029 246.699 624.187 241.026L627.081 224.355H632.869L627.544 254.301H621.678L622.141 251.715C621.202 252.741 620.056 253.556 618.779 254.108C617.502 254.66 616.123 254.936 614.732 254.918C613.647 255.047 612.548 254.961 611.496 254.664C610.445 254.367 609.463 253.865 608.606 253.188C607.749 252.51 607.034 251.67 606.503 250.715C605.971 249.76 605.634 248.71 605.509 247.625C605.432 246.958 605.432 246.285 605.509 245.618C605.553 244.323 605.695 243.033 605.934 241.759" fill="#F4A71C"/>
<path id="Path 212" d="M654.711 231.071C653.524 230.109 652.032 229.603 650.505 229.644C646.916 229.644 644.215 231.573 643.134 237.94L640.278 254.302H634.413L639.7 224.357H645.604L645.064 227.097C645.936 226.065 647.024 225.237 648.251 224.67C649.477 224.104 650.813 223.812 652.164 223.817C654.006 223.744 655.813 224.332 657.258 225.476L654.711 231.071Z" fill="#F4A71C"/>
<path id="Path 213" d="M677.055 233.468C676.415 232.233 675.453 231.193 674.271 230.46C673.089 229.726 671.731 229.326 670.34 229.3C665.632 229.3 662.12 233.815 661.734 240.414C661.349 245.855 663.741 249.328 668.411 249.328C670.969 249.175 673.366 248.025 675.087 246.126L678.251 249.985C676.907 251.492 675.269 252.708 673.437 253.557C671.605 254.407 669.619 254.872 667.6 254.924C659.882 254.924 654.981 248.943 655.714 240.144C656.486 229.725 663.432 223.705 670.726 223.705C672.854 223.61 674.967 224.103 676.832 225.131C678.698 226.159 680.244 227.682 681.299 229.532L677.055 233.468Z" fill="#F4A71C"/>
<path id="Path 214" d="M707.116 241.34H688.13C687.936 242.212 687.917 243.113 688.072 243.992C688.227 244.872 688.555 245.712 689.035 246.464C689.515 247.217 690.139 247.868 690.871 248.379C691.603 248.89 692.429 249.252 693.301 249.444C693.877 249.52 694.461 249.52 695.037 249.444C697.461 249.29 699.796 248.476 701.791 247.09L704.337 251.18C701.473 253.487 697.904 254.74 694.227 254.731C686.509 254.731 681.724 248.981 682.65 240.105C683.383 229.84 689.596 223.512 697.198 223.512C704.8 223.512 708.042 228.683 708.042 235.629C708.037 237.495 707.778 239.351 707.27 241.147L707.116 241.34ZM696.542 228.837C692.683 228.837 690.098 232.04 688.824 236.555H702.331C702.717 232.233 700.903 228.837 696.427 228.837" fill="#F4A71C"/>
<path id="Path 215" d="M731.581 231.997C729.198 230.035 726.217 228.945 723.13 228.909C720.622 228.909 719.271 229.913 719.001 231.688C718.731 233.463 719.58 234.196 724.558 236.473C729.536 238.75 732.816 241.065 732.276 246.005C731.774 252.758 726.256 254.919 721.162 254.919C716.735 254.996 712.44 253.413 709.122 250.481L712.248 246.12C714.825 248.46 718.183 249.754 721.664 249.748C724.597 249.748 726.487 248.474 726.526 246.313C726.565 244.152 725.677 243.458 721.432 241.683C715.528 239.097 712.711 237.013 713.174 232.035C713.637 226.324 717.921 223.7 723.555 223.7C727.501 223.669 731.35 224.929 734.514 227.289L731.581 231.997Z" fill="#F4A71C"/>
<path id="Path 216" d="M235.397 0.229827C183.417 -3.39759 138.383 37.4688 134.601 91.4942V94.3112L141.122 101.527L207.96 27.6284L284.869 112.526L317.786 85.7058C311.495 41.4821 279.929 3.35558 235.397 0.229827ZM138.923 74.7463C136.983 80.8459 135.538 87.0919 134.601 93.4237C135.325 87.0536 136.776 80.7872 138.923 74.7463" fill="#F4A71C"/>
</g>
</g>
</g>
<defs>
<clipPath id="clip0_821_2332">
<rect width="250.073" height="85" fill="white" transform="scale(3)"/>
</clipPath>
</defs>
</svg>
