<svg width="101" height="17" viewBox="0 0 101 17" fill="none" xmlns="http://www.w3.org/2000/svg">
    <path d="M11.06 13.41c.186.555.302.972.302 1.226 0 .231-.325.37-.812.416l-.673.07c-.162.115-.14.485.047.577.673-.023 1.554-.069 2.668-.069 1.044 0 1.857.023 2.808.07.116-.093.163-.463 0-.579l-.626-.069c-.998-.116-1.3-.462-1.973-2.45l-3.18-9.296c-.347-1.017-.719-2.08-1.02-3.098C8.554.046 8.39 0 8.253 0c-.256.3-.65.717-1.207.879.07.37-.07.809-.395 1.641L4.284 8.763c-.974 2.59-1.624 4.092-2.042 5.156-.325.832-.835 1.087-1.392 1.133l-.766.07c-.14.115-.093.485.046.577.627-.023 1.462-.069 2.228-.069 1.091.023 1.81.023 2.414.07.209-.093.209-.463.046-.579l-.766-.069c-.557-.046-.673-.185-.673-.462 0-.255.163-.879.51-1.92l.813-2.427c.163-.486.302-.555.882-.555h3.504c.696 0 .79.07.952.578l1.02 3.144zM6.908 4.185c.255-.694.487-1.249.557-1.364h.046c.14.277.348.902.534 1.456l1.253 3.77c.209.624.162.716-.51.716H5.931c-.65 0-.673-.023-.487-.555l1.462-4.023zM23.829 1.85c0-.74.023-.833 1.253-.833 2.414 0 3.736 1.457 3.736 3.7 0 2.011-.905 3.422-3.41 3.884-.14.046-.14.393.022.463.952 0 2.182-.209 3.203-.694.998-.486 2.32-1.55 2.32-3.676 0-1.596-.789-2.798-1.856-3.469-1.09-.67-2.53-.924-4.456-.924-1.926 0-3.365.023-4.595.185-.185.092-.208.439-.046.578l.835.092c1.045.116 1.091.509 1.091 2.474v8.532c0 2.428-.046 2.705-1.392 2.89l-.488.07c-.139.138-.092.508.047.577a59.343 59.343 0 0 1 2.831-.069c.928 0 1.694.023 3.017.07.139-.07.186-.463.046-.579l-.626-.069c-1.486-.162-1.532-.462-1.532-2.89V1.85zM42.102 16.509c4.479 0 8.053-3.4 8.053-8.07 0-4.07-2.692-7.93-8.053-7.93-4.78 0-8.261 3.537-8.261 8.162 0 4.161 3.11 7.838 8.261 7.838zm.302-.717c-4.572 0-6.243-4.44-6.243-7.861 0-5.064 3.133-6.706 5.547-6.706 4.432 0 6.126 4.116 6.126 7.931 0 4.555-2.646 6.636-5.43 6.636zM56.137 12.162c0 2.428-.046 2.751-1.392 2.89l-.696.07c-.14.138-.093.508.046.577 1.3-.046 2.042-.069 3.017-.069h2.135c2.39 0 4.595.023 5.778.07.325-.625.975-2.983.975-3.238 0-.161-.44-.254-.58-.138-.464 1.179-1.068 2.011-1.532 2.289-.371.208-.858.3-2.83.3-1.834 0-2.275-.277-2.53-.531-.418-.44-.488-1.041-.488-2.498V3.838c0-2.428.047-2.798 1.416-2.913l.557-.046c.139-.093.093-.51-.047-.578-1.16.046-1.949.069-2.854.069-.928 0-1.717-.023-3.017-.07-.14.07-.185.486-.046.579l.58.046c1.462.115 1.508.485 1.508 2.913v8.324zM72.089 12.162c0 2.428-.047 2.751-1.393 2.89l-.696.07c-.14.138-.093.508.046.577 1.3-.046 2.043-.069 3.017-.069h2.135c2.39 0 4.595.023 5.779.07.325-.625.974-2.983.974-3.238 0-.161-.44-.254-.58-.138-.464 1.179-1.067 2.011-1.531 2.289-.372.208-.86.3-2.832.3-1.833 0-2.274-.277-2.53-.531-.417-.44-.486-1.041-.486-2.498V3.838c0-2.428.046-2.798 1.415-2.913l.557-.046c.14-.093.093-.51-.046-.578-1.16.046-1.95.069-2.855.069-.928 0-1.717-.023-3.017-.07-.139.07-.185.486-.046.579l.58.046c1.462.115 1.509.485 1.509 2.913v8.324zM92.6 16.509c4.479 0 8.053-3.4 8.053-8.07 0-4.07-2.692-7.93-8.053-7.93-4.78 0-8.261 3.537-8.261 8.162 0 4.161 3.11 7.838 8.261 7.838zm.302-.717c-4.572 0-6.243-4.44-6.243-7.861 0-5.064 3.133-6.706 5.547-6.706 4.432 0 6.126 4.116 6.126 7.931 0 4.555-2.645 6.636-5.43 6.636z" fill="#000"/>
</svg>
