<svg xmlns="http://www.w3.org/2000/svg" xmlns:xlink="http://www.w3.org/1999/xlink" id="Layer_1" x="0px" y="0px" viewBox="0 0 227.5 174.8" xml:space="preserve"><g id="Layer_2_00000068662337752295561980000002047561283894279849_">	<g id="Layer_1_Image">		<path fill="#FFFFFF" d="M127.3,30.5c-23.2,6.5-36,29.6-39.8,38.2H28.1C40.2,45,68.3,6.3,107.7,0.7L127.3,30.5z M142,4.2l-4.3,24.7   c24.8-0.6,48.8,22.3,60.1,39.8h13.7C198.7,48.5,175.7,15.8,142,4.2z"></path>		<path fill="#FFFFFF" d="M132.6,29.4l4.6-26.7c-5.1-1.4-10.4-2.3-15.7-2.6c-2.7-0.2-5.4-0.2-8.1,0L132.6,29.4z"></path>		<path fill="#FFFFFF" d="M5.9,171.6l1.5-1.9c1.6,1.8,3.9,2.9,6.3,2.9c3.6,0,4.8-1.9,4.8-3.5c0-5.2-12-2.3-12-9.5c0-3.3,3-5.6,7-5.6   c2.7-0.1,5.3,0.9,7.1,2.9l-1.5,1.8c-1.5-1.6-3.6-2.5-5.8-2.4c-2.4,0-4.1,1.3-4.1,3.2c0,4.5,12,1.9,12,9.5c0,2.9-2,5.9-7.4,5.9   C10.7,175,7.9,173.8,5.9,171.6z M29.4,164.4c0-6,4-10.4,10-10.4s10,4.5,10,10.4s-4.1,10.4-10,10.4S29.4,170.4,29.4,164.4   L29.4,164.4z M46.9,164.4c0-4.7-2.9-8.2-7.4-8.2s-7.5,3.5-7.5,8.2s2.9,8.2,7.4,8.2S46.9,169.1,46.9,164.4L46.9,164.4z M59.4,174.5   v-20.2h2.5v18h9.4v2.2L59.4,174.5z M79.6,166.6v-12.4h2.5v12.3c0,3.7,2,6,5.7,6s5.7-2.3,5.7-6v-12.3h2.5v12.3c0,5-2.8,8.2-8.3,8.2   S79.6,171.6,79.6,166.6L79.6,166.6z M111.5,174.5v-18h-6.4v-2.2h15.3v2.2H114v17.9L111.5,174.5z M129.6,174.5v-20.2h2.5v20.2   L129.6,174.5z M141.7,164.4c0-6,4.1-10.4,10-10.4s10,4.5,10,10.4s-4.1,10.4-10,10.4S141.7,170.4,141.7,164.4L141.7,164.4z    M159.2,164.4c0-4.7-2.9-8.2-7.4-8.2s-7.4,3.5-7.4,8.2s2.9,8.2,7.4,8.2S159.2,169.1,159.2,164.4L159.2,164.4z M186,174.5   l-11.8-16.1v16.1h-2.5v-20.2h2.6l11.6,15.8v-15.8h2.5v20.2H186z M197.7,171.6l1.5-1.9c1.6,1.8,3.9,2.9,6.3,2.9   c3.6,0,4.8-1.9,4.8-3.5c0-5.2-11.9-2.3-11.9-9.5c0-3.3,3-5.6,7-5.6c2.7-0.1,5.3,0.9,7.1,2.9l-1.5,1.8c-1.5-1.6-3.6-2.5-5.8-2.4   c-2.4,0-4.1,1.3-4.1,3.2c0,4.5,11.9,1.9,11.9,9.5c0,2.9-2,5.9-7.4,5.9C202.6,175,199.7,173.8,197.7,171.6L197.7,171.6z"></path>		<path fill="#FFFFFF" d="M143.9,101.1l15.7,22.9h-10l-10.8-15.8l-4.5,6.2v9.7h-8.7V79.6h8.7v21.2l15.4-21.2h9.9L143.9,101.1z    M186.6,99v-7.2h-22.9V124h22.9v-7.4H172v-5.4h12.1v-6.9H172V99H186.6z M221.8,91.8h-9.3l-6.1,12.3l-6.9-12.3h-9.3l12.1,21.6V124   h8.3v-10.4L221.8,91.8z M113,97.9c-4.1-0.5-8.1,1.5-10.1,5.1V79.6h-4.4v44.2h4.4V109c1.1-8.9,9.5-7,10.6-6.6s3.6,1.8,3.6,6.6v14.8   h4.1v-14.6C121.1,102,118.3,98.5,113,97.9z M56.2,103.2v-4.7h-4.4v25.2h4.4v-12.8c0-11.1,9.6-8.9,10.4-8.6l2.5-3.8   C62.8,96.7,58.7,99,56.2,103.2z M83.5,120.6c-4.9,0-8.9-3-8.9-9.4s4-9.4,8.9-9.4c2.6,0,5.1,1.2,6.7,3.2l3.2-2.6   c-4.8-5.5-13.2-6.1-18.7-1.3c-5.5,4.8-6.1,13.2-1.3,18.7c4.8,5.5,13.2,6.1,18.7,1.3c0.5-0.4,0.9-0.9,1.4-1.4l-3-2.6   C88.8,119.4,86.2,120.6,83.5,120.6z M28.4,79.6l17.9,44.2h-4L37.8,113H14.2l-4.3,10.7H5.6l18.1-44.2   C23.7,79.6,28.3,79.6,28.4,79.6z M36.3,109.2L25.9,84l-10.2,25.2L36.3,109.2z"></path>		<rect y="137.9" fill="#FFFFFF" width="227.5" height="1.4"></rect>	</g></g></svg>