<?xml version="1.0" encoding="UTF-8"?> <svg xmlns="http://www.w3.org/2000/svg" xmlns:xlink="http://www.w3.org/1999/xlink" width="173" height="44"><defs><path id="a" d="M.049.721h22.244v20.325H.049z"></path></defs><g fill="none" fill-rule="evenodd"><g transform="translate(0 21.906)"><mask id="b" fill="#fff"><use xlink:href="#a"></use></mask><path fill="#0057B8" mask="url(#b)" d="M17.57 4.5L0 9.589 6.704.721l-.106 4.106L17.57 4.5M22.293 4.242l-7.104 16.852-2.674-10.79 3.126 2.672 6.652-8.734"></path></g><path fill="#0057B8" d="M24.202 22.646l8.549 16.165-10.042-4.76 4.042-.73-2.55-10.675M22.833 18.041l18.008 3.175-9.923 5.014 1.906-3.645-9.991-4.544M19.562 16.895l14-11.781-2.535 10.825-1.566-3.795-9.9 4.75M15.83 18.99L15.04.716l7.031 8.607-3.966-1.071L15.83 18.99M15.404 23.26L.494 12.667l11.117-.263-3.284 2.468 7.077 8.39M54.322 10.157h-.084l-3.345 10.168h6.734l-3.305-10.168zm3.85 11.632h-7.74l-1.632 4.81c-.796 2.342-1.214 4.143 1.297 4.184v.712h-6.192v-.712c2.26-.335 2.803-1.549 3.555-3.765L54.07 7.27h2.47l6.944 20.626c.712 2.216 1.297 2.886 3.43 2.886v.712h-8.45v-.712c1.631 0 2.425-.711 1.883-2.344l-2.176-6.65zM73.813 28.692c0 1.631.502 2.091 2.468 2.091v.712h-7.823v-.712c2.26 0 2.51-.585 2.51-2.844v-8.075c0-2.176-.543-2.427-3.053-2.427v-.71l5.187-.46h.711v3.222c2.761-2.387 4.058-3.223 5.063-3.223.836 0 1.966.502 2.719 1.17l-1.13 2.638c-1.213-.67-2.51-1.298-3.514-1.298-.962 0-1.8.503-3.138 1.798v8.118M95.357 21.496h-.712c-.628-2.678-2.51-4.394-4.98-4.394-2.928 0-4.978 2.512-4.978 6.15 0 4.059 2.554 7.448 5.566 7.448 1.799 0 3.974-.963 5.521-3.096v1.088c-1.59 2.174-3.848 3.262-6.526 3.262-4.393 0-7.447-3.054-7.447-7.488 0-4.56 3.43-8.2 7.656-8.2 2.218 0 3.431.836 4.184.836.376 0 .753-.29 1.004-.836h.712v5.23M112.338 27.939c0 2.26.418 2.844 2.385 2.844v.712h-7.698v-.712c2.008 0 2.468-.46 2.468-2.384v-7.322c0-1.966-1.171-3.222-2.97-3.222-1.674 0-2.887.796-4.31 2.804v8.116c0 1.548.628 2.008 2.47 2.008v.712h-7.95v-.712c2.218-.041 2.636-.46 2.636-2.844V8.65c0-1.924-.544-2.216-2.636-2.216v-.711l4.769-.504h.711v14.016c1.883-2.176 3.264-2.97 5.188-2.97 2.469 0 4.937 1.63 4.937 5.146v6.527"></path><path fill="#333F48" d="M125.714 42.598h.908V.677h-.908zM161.32 11.973c-1.72.036-2.386 1.23-2.246 3.126l1.018 12.393c.21 2.458.631 3.231 2.493 3.406v.597h-7.232v-.597c1.649-.282 2.211-1.018 2.07-3.02l-.983-12.99h-.07l-6.88 16.607h-.527l-6.742-16.607h-.07l-1.123 12.394c-.176 2.035.561 3.23 2.598 3.616v.597h-6.25v-.597c2.037-.282 2.353-1.475 2.564-3.687l1.228-13.833c-.772-.843-1.474-1.228-2.633-1.405v-.596h5.09l6.426 15.834 6.53-15.834h4.74v.596M169.81 27.703c0 2.457.597 3.195 2.282 3.195v.597h-7.232v-.597c1.65 0 2.282-.632 2.282-3.195V15.168c0-2.528-.562-3.195-2.282-3.195v-.596h7.232v.596c-1.685 0-2.282.774-2.282 3.195v12.535"></path></g></svg> 