<?xml version="1.0" encoding="UTF-8"?> <svg xmlns="http://www.w3.org/2000/svg" xmlns:xlink="http://www.w3.org/1999/xlink" width="280" height="47"><defs><path id="a" d="M0 .785h24.278V22.92H0z"></path></defs><g fill="none" fill-rule="evenodd"><path d="M157.823 12.384v.636c-.935 0-1.583.256-1.944.767-.363.512-.543 1.423-.543 2.732V30.2c0 1.31.18 2.217.543 2.723.361.505 1.009.758 1.944.758v.635h-7.89v-.635c.96 0 1.614-.25 1.963-.75.349-.499.524-1.409.524-2.731v-13.68c0-1.347-.172-2.267-.515-2.76-.343-.493-1-.739-1.972-.739v-.636h7.89M164.105 20.387v2.71c1.583-1.807 3.216-2.71 4.898-2.71 1.309 0 2.4.446 3.272 1.338.872.893 1.31 2.069 1.31 3.53v6.121c0 .937.154 1.555.466 1.854.312.3.923.45 1.833.45v.635h-7.236v-.635c.898 0 1.512-.116 1.842-.347.33-.23.495-.677.495-1.339v-7.097c0-.949-.283-1.704-.85-2.265-.568-.563-1.293-.843-2.179-.843-1.27 0-2.555.884-3.851 2.654v6.632c0 1.124.146 1.84.435 2.146.291.305.9.459 1.828.459v.635h-7.142v-.635c1.033 0 1.67-.166 1.906-.497.236-.332.356-1.035.356-2.11V23.42c0-.812-.143-1.347-.43-1.603-.287-.256-.897-.384-1.832-.384v-.637l4.225-.41h.654M186.428 20.387v4.168h-.766c-.125-1.047-.498-1.879-1.122-2.496a3.099 3.099 0 00-2.262-.925c-.673 0-1.216.168-1.627.505-.411.336-.617.785-.617 1.346 0 .549.19 1.031.57 1.45.38.416 1.207.918 2.478 1.504 1.645.747 2.732 1.465 3.262 2.15.53.685.795 1.508.795 2.468 0 1.135-.424 2.116-1.272 2.944-.847.83-1.85 1.244-3.01 1.244-.598 0-1.39-.219-2.373-.654-.537-.237-.892-.355-1.067-.355a.786.786 0 00-.598.261 1.084 1.084 0 00-.28.655h-.655v-4.619h.655c.237 1.215.76 2.18 1.57 2.893.81.715 1.739 1.071 2.786 1.071.673 0 1.237-.224 1.692-.674.455-.449.682-1.005.682-1.666 0-.637-.21-1.19-.628-1.658-.42-.468-1.327-1.008-2.722-1.621-1.57-.688-2.604-1.331-3.101-1.93-.498-.598-.747-1.322-.747-2.17 0-1.06.409-1.974 1.225-2.741a4.1 4.1 0 012.907-1.15c.524 0 1.09.124 1.702.373.435.174.79.262 1.065.262.362 0 .63-.212.804-.635h.654M202.47 20.387h.636V31.77c0 .748.159 1.254.477 1.516.317.262.937.394 1.86.394v.635l-4.936.262V32.09h-.075c-1.359 1.77-2.941 2.655-4.75 2.655-1.295 0-2.358-.433-3.186-1.301-.83-.868-1.244-1.957-1.244-3.267V23.23c0-.7-.174-1.174-.523-1.424-.35-.249-.979-.373-1.889-.373v-.637l4.356-.41h.655v9.684c0 .948.278 1.695.832 2.244.554.549 1.3.822 2.234.822 1.296 0 2.493-.742 3.59-2.224v-7.325c0-.937-.144-1.523-.43-1.761-.287-.238-1.023-.369-2.207-.393v-.637l4.6-.41M211.576 20.387v2.935c1.245-1.085 2.215-1.845 2.906-2.282.692-.435 1.268-.653 1.73-.653.86 0 1.688.354 2.487 1.065l-1.029 2.411c-1.446-.796-2.518-1.196-3.216-1.196-.773 0-1.732.549-2.878 1.645v7.457c0 .75.155 1.254.466 1.517.312.262.91.394 1.795.394v.635h-7.16v-.635c.947 0 1.567-.15 1.86-.45.292-.301.44-1.02.44-2.157v-7.408c0-.938-.16-1.544-.477-1.82-.318-.274-1.094-.411-2.328-.411v-.637l4.749-.41h.655M227.747 31.566v-4.599c-.386.162-.947.368-1.683.617-1.358.461-2.227.92-2.608 1.374-.38.455-.57 1.07-.57 1.842 0 .673.202 1.256.608 1.748.405.492.888.739 1.45.739.51 0 1.046-.165 1.606-.496.561-.33.96-.739 1.197-1.225zm-3.646 3.179c-1.06 0-1.97-.352-2.73-1.056-.76-.704-1.14-1.555-1.14-2.552 0-.947.328-1.73.982-2.347.654-.616 1.984-1.206 3.992-1.767 1.259-.348 2.106-.648 2.542-.897v-1.01c0-.984-.274-1.78-.822-2.383-.549-.605-1.284-.907-2.206-.907-.836 0-1.578.262-2.225.785-.649.524-1.104 1.234-1.365 2.132l-.692-.188c.274-1.258.87-2.268 1.786-3.029.916-.76 1.99-1.14 3.225-1.14 1.457 0 2.639.44 3.543 1.318.904.88 1.355 2.098 1.355 3.655v5.815c0 .823.053 1.381.16 1.674.105.292.308.439.606.439a.58.58 0 00.487-.253c.124-.168.268-.52.43-1.056h.654c-.063.848-.327 1.52-.795 2.02-.467.497-1.08.747-1.841.747-1.11 0-1.876-.642-2.3-1.926-.673.735-1.27 1.24-1.795 1.515-.523.274-1.14.41-1.851.41zM238.33 20.387v2.71c1.582-1.807 3.215-2.71 4.898-2.71 1.308 0 2.4.446 3.272 1.338.872.893 1.308 2.069 1.308 3.53v6.121c0 .937.156 1.555.468 1.854.311.3.922.45 1.832.45v.635h-7.236v-.635c.898 0 1.512-.116 1.843-.347.33-.23.495-.677.495-1.339v-7.097c0-.949-.284-1.704-.851-2.265-.568-.563-1.293-.843-2.178-.843-1.272 0-2.556.884-3.852 2.654v6.632c0 1.124.146 1.84.436 2.146.29.305.9.459 1.827.459v.635h-7.142v-.635c1.034 0 1.67-.166 1.907-.497.236-.332.355-1.035.355-2.11V23.42c0-.812-.144-1.347-.43-1.603-.287-.256-.897-.384-1.832-.384v-.637l4.225-.41h.654M264.355 20.387v4.786h-.655c-.286-1.247-.835-2.231-1.645-2.955-.81-.722-1.776-1.084-2.898-1.084-1.346 0-2.382.576-3.29 1.57-1.027 1.126-1.57 2.536-1.271 4.076.351 1.811.5 3.44 1.504 4.786 1.003 1.347 2.197 2.02 3.58 2.02.923 0 1.836-.25 2.74-.748a7.14 7.14 0 002.327-2.076v.992c-1.47 1.994-3.464 2.99-5.983 2.99-2.006 0-3.643-.635-4.907-1.906-1.265-1.272-1.898-2.923-1.898-4.955 0-2.081.682-3.852 2.047-5.31 1.365-1.457 3.013-2.186 4.946-2.186.86 0 1.819.174 2.878.523.462.149.78.224.955.224.386 0 .69-.249.915-.747h.655M269.44 25.396h7.385v-.261c0-1.209-.346-2.168-1.037-2.88-.692-.71-1.555-1.065-2.59-1.065-1.097 0-1.979.374-2.645 1.122-.667.747-1.038 1.776-1.112 3.084zm10.19 5.442v.99c-.823 1.047-1.661 1.795-2.515 2.244-.853.45-1.88.673-3.075.673-2.12 0-3.868-.664-5.245-1.991-1.377-1.327-2.065-3.013-2.065-5.058 0-2.057.656-3.788 1.972-5.197 1.315-1.409 2.926-2.112 4.833-2.112 1.57 0 2.941.529 4.113 1.588 1.172 1.06 1.758 2.325 1.758 3.796v.28h-9.965v.188c0 1.495.227 2.794.682 3.897.455 1.104 1.118 1.967 1.991 2.59.872.623 1.782.935 2.73.935.885 0 1.642-.184 2.271-.552.63-.367 1.468-1.125 2.515-2.271z" fill="#333F48"></path><g transform="translate(0 23.856)"><mask id="b" fill="#fff"><use xlink:href="#a"></use></mask><path fill="#0057B8" mask="url(#b)" d="M19.135 4.9L0 10.443 7.3.785l-.115 4.472 11.95-.357M24.278 4.62L16.54 22.972l-2.912-11.75 3.404 2.909 7.245-9.513"></path></g><path fill="#0057B8" d="M26.357 24.662l9.31 17.605-10.937-5.182 4.403-.796-2.776-11.627M24.866 19.648l19.612 3.457-10.808 5.46 2.077-3.969-10.88-4.948M21.304 18.4L36.55 5.57l-2.76 11.788-1.706-4.133-10.78 5.174M17.238 20.68L16.38.78l7.657 9.374-4.32-1.167-2.479 11.694M16.775 25.332L.54 13.794l12.106-.286-3.576 2.686 7.706 9.138M59.16 11.061h-.092l-3.643 11.074h7.334l-3.6-11.074zm4.192 12.668h-8.43l-1.777 5.239c-.866 2.55-1.32 4.511 1.414 4.556v.775h-6.744v-.775c2.46-.364 3.052-1.685 3.871-4.1l7.2-21.505h2.69l7.563 22.463c.774 2.413 1.412 3.142 3.734 3.142v.775h-9.202v-.775c1.777 0 2.642-.774 2.05-2.551l-2.369-7.244zM80.386 31.247c0 1.776.547 2.277 2.688 2.277v.775h-8.52v-.775c2.46 0 2.735-.637 2.735-3.097v-8.793c0-2.37-.592-2.644-3.326-2.644v-.774l5.65-.501h.773v3.508c3.007-2.598 4.42-3.508 5.514-3.508.91 0 2.14.547 2.96 1.275l-1.23 2.871c-1.32-.73-2.733-1.413-3.827-1.413-1.047 0-1.959.547-3.417 1.958v8.841M103.849 23.41h-.776c-.684-2.916-2.733-4.785-5.422-4.785-3.19 0-5.422 2.735-5.422 6.697 0 4.42 2.78 8.111 6.06 8.111 1.96 0 4.329-1.048 6.014-3.37v1.184c-1.731 2.368-4.19 3.553-7.108 3.553-4.783 0-8.109-3.326-8.109-8.155 0-4.967 3.736-8.93 8.337-8.93 2.416 0 3.737.91 4.557.91.41 0 .82-.317 1.093-.91h.776v5.695M122.342 30.427c0 2.46.456 3.097 2.597 3.097v.775h-8.383v-.775c2.186 0 2.687-.5 2.687-2.595v-7.975c0-2.14-1.275-3.51-3.234-3.51-1.822 0-3.143.868-4.694 3.055v8.839c0 1.685.684 2.186 2.69 2.186v.775h-8.658v-.775c2.415-.045 2.871-.5 2.871-3.097V9.422c0-2.096-.593-2.414-2.87-2.414v-.774l5.194-.55h.773V20.95c2.05-2.37 3.555-3.234 5.65-3.234 2.69 0 5.377 1.775 5.377 5.604v7.108"></path><path fill="#333F48" d="M136.91 46.392h.988V.737h-.989z"></path></g></svg> 