<?xml version="1.0" encoding="utf-8"?>
<!-- Generator: Adobe Illustrator 26.0.1, SVG Export Plug-In . SVG Version: 6.00 Build 0)  -->
<svg version="1.1" id="Layer_1" xmlns="http://www.w3.org/2000/svg" xmlns:xlink="http://www.w3.org/1999/xlink" x="0px" y="0px"
	 viewBox="0 0 99.3 32.4" style="enable-background:new 0 0 99.3 32.4;" xml:space="preserve">
<style type="text/css">
	.st0{fill:#8DC63F;}
	.st1{fill:#1C4D88;}
</style>
<g>
	<polygon class="st0" points="82.6,2.1 95.1,20 97.1,16.6 82.6,2.1 	"/>
	<path class="st0" d="M80.7,1.7C80.4,2,67.8,20.1,67.8,20.1L82.1,4.8L80.7,1.7L80.7,1.7z"/>
	<polygon class="st0" points="68,20.8 82.9,6.3 84.5,9.7 68,20.8 	"/>
	<polygon class="st0" points="81.7,1.5 92.8,24 94.4,21.4 81.7,1.5 	"/>
	<path class="st1" d="M6.6,24.4l-0.6-1.9c-0.1-0.5-0.3-1.2-0.4-1.7h0c-0.1,0.5-0.3,1.2-0.4,1.7l-0.5,1.9H6.6L6.6,24.4z M4.3,25.9
		l-0.6,2.3H1.6l2.7-9H7l2.8,9H7.6l-0.7-2.3H4.3L4.3,25.9z"/>
	<path class="st1" d="M10.6,26.4c0.4,0.2,1.1,0.5,1.7,0.5c0.6,0,0.9-0.2,0.9-0.5c0-0.3-0.2-0.5-0.9-0.7c-1.4-0.5-1.9-1.2-1.9-1.9
		c0-1.2,1-2.1,2.7-2.1c0.8,0,1.4,0.2,1.8,0.4l-0.3,1.4c-0.3-0.1-0.9-0.4-1.4-0.4c-0.5,0-0.8,0.2-0.8,0.5c0,0.3,0.3,0.5,1.1,0.7
		c1.2,0.4,1.7,1.1,1.8,2c0,1.2-0.9,2.1-2.8,2.1c-0.9,0-1.6-0.2-2.1-0.5L10.6,26.4L10.6,26.4z"/>
	<path class="st1" d="M20.8,28c-0.4,0.2-1,0.3-1.8,0.3c-2.1,0-3.5-1.3-3.5-3.3c0-1.9,1.3-3.5,3.7-3.5c0.5,0,1.1,0.1,1.5,0.3
		l-0.3,1.5c-0.2-0.1-0.6-0.2-1.1-0.2c-1.1,0-1.8,0.8-1.7,1.8c0,1.2,0.8,1.8,1.8,1.8c0.5,0,0.9-0.1,1.2-0.2L20.8,28L20.8,28z"/>
	<path class="st1" d="M25.4,24.2c0-0.5-0.2-1.3-1.1-1.3c-0.9,0-1.2,0.8-1.3,1.3H25.4L25.4,24.2z M23,25.6c0.1,0.8,0.9,1.2,1.8,1.2
		c0.7,0,1.3-0.1,1.8-0.3l0.3,1.4c-0.7,0.3-1.5,0.4-2.4,0.4c-2.2,0-3.5-1.3-3.5-3.3c0-1.7,1-3.5,3.3-3.5c2.1,0,2.9,1.6,2.9,3.3
		c0,0.3,0,0.7-0.1,0.8H23L23,25.6z"/>
	<path class="st1" d="M28,23.7c0-0.8,0-1.5-0.1-2.1h1.8l0.1,0.9h0c0.3-0.4,0.9-1.1,2-1.1c1.3,0,2.3,0.9,2.3,2.8v3.9h-2v-3.6
		c0-0.8-0.3-1.4-1-1.4c-0.6,0-0.9,0.4-1,0.8C30,24,30,24.2,30,24.4v3.8h-2V23.7L28,23.7z"/>
	<path class="st1" d="M39.4,24.4c0-0.1,0-0.3,0-0.4c-0.1-0.5-0.6-1-1.2-1c-0.9,0-1.4,0.8-1.4,1.9c0,1.1,0.5,1.8,1.4,1.8
		c0.6,0,1.1-0.4,1.2-1c0-0.1,0-0.3,0-0.5V24.4L39.4,24.4z M41.4,19v7.2c0,0.7,0,1.5,0.1,1.9h-1.8l-0.1-0.9h0c-0.4,0.7-1.2,1.1-2,1.1
		c-1.5,0-2.8-1.3-2.8-3.3c0-2.2,1.4-3.5,2.9-3.5c0.8,0,1.4,0.3,1.7,0.7h0V19H41.4L41.4,19z"/>
	<path class="st1" d="M49.1,24.5l-1.1-3c-0.2-0.6-0.3-1.1-0.5-1.6h0c-0.1,0.5-0.3,1-0.5,1.6l-1.1,3H49.1L49.1,24.5z M45.7,25.1
		l-1.1,3.1H44l3.2-8.9h0.6l3.2,8.9h-0.7l-1.1-3.1H45.7L45.7,25.1z"/>
	<path class="st1" d="M51.8,23.3c0-0.6,0-1-0.1-1.5h0.6l0,1.1h0c0.3-0.7,1.2-1.3,2.2-1.3c0.6,0,2.2,0.3,2.2,2.7v3.8h-0.6v-3.8
		c0-1.2-0.5-2.2-1.8-2.2c-0.9,0-1.7,0.6-1.9,1.5c0,0.1-0.1,0.4-0.1,0.6v4h-0.6V23.3L51.8,23.3z"/>
	<path class="st1" d="M61.4,24.8c-1.4,0-3.2,0.2-3.2,1.7c0,0.9,0.6,1.3,1.3,1.3c1.1,0,1.7-0.7,1.9-1.3c0.1-0.1,0.1-0.3,0.1-0.4V24.8
		L61.4,24.8z M62,26.7c0,0.5,0,1,0.1,1.5h-0.6l-0.1-0.9h0c-0.3,0.5-1,1.1-2,1.1c-1.3,0-1.9-0.9-1.9-1.8c0-1.5,1.3-2.4,3.9-2.3v-0.2
		c0-0.6-0.1-1.9-1.6-1.9c-0.6,0-1.1,0.1-1.6,0.5L58,22.2c0.6-0.4,1.3-0.5,1.9-0.5c1.8,0,2.2,1.4,2.2,2.5V26.7L62,26.7z"/>
	<polygon class="st1" points="63.6,19.1 64.2,19.1 64.2,28.2 63.6,28.2 63.6,19.1 	"/>
	<path class="st1" d="M65.8,21.8l1.7,4.2c0.2,0.5,0.3,1,0.5,1.4h0c0.1-0.4,0.3-0.9,0.5-1.4l1.6-4.1h0.7l-1.9,4.8
		c-0.8,2-1.3,3.2-2.2,3.9c-0.5,0.4-1,0.6-1.1,0.7l-0.2-0.5c0.3-0.1,0.7-0.3,1.1-0.7c0.3-0.3,0.7-0.8,1.1-1.6
		c0.1-0.1,0.1-0.2,0.1-0.3c0-0.1,0-0.1-0.1-0.3l-2.4-5.9H65.8L65.8,21.8z"/>
	<path class="st1" d="M72.5,20.4v1.4h1.8v0.5h-1.8v4.1c0,0.8,0.3,1.3,0.9,1.3c0.3,0,0.6,0,0.7-0.1l0.1,0.5c-0.2,0.1-0.5,0.1-0.9,0.1
		c-0.5,0-0.8-0.1-1.1-0.4c-0.3-0.3-0.4-0.9-0.4-1.5v-4h-1.1v-0.5h1.1v-1.2L72.5,20.4L72.5,20.4z"/>
	<path class="st1" d="M75.4,28.2v-6.4H76v6.4H75.4L75.4,28.2z M75.7,20.5c-0.3,0-0.5-0.3-0.5-0.5c0-0.3,0.2-0.6,0.5-0.6
		c0.3,0,0.5,0.3,0.5,0.6C76.2,20.3,76,20.5,75.7,20.5L75.7,20.5L75.7,20.5z"/>
	<path class="st1" d="M81.8,27.9c-0.3,0.1-0.9,0.4-1.9,0.4c-1.8,0-3.1-1.3-3.1-3.3c0-2,1.4-3.4,3.3-3.4c0.8,0,1.4,0.2,1.7,0.4
		l-0.2,0.5c-0.3-0.2-0.8-0.4-1.5-0.4c-1.7,0-2.6,1.3-2.6,2.8c0,1.7,1,2.8,2.5,2.8c0.8,0,1.2-0.2,1.6-0.4L81.8,27.9L81.8,27.9z"/>
	<path class="st1" d="M82.8,27.4c0.3,0.2,0.9,0.4,1.4,0.4c1,0,1.5-0.5,1.5-1.2c0-0.7-0.4-1.1-1.3-1.4c-1-0.4-1.6-1-1.6-1.7
		c0-0.9,0.7-1.7,2-1.7c0.6,0,1.1,0.2,1.4,0.4l-0.2,0.5c-0.2-0.2-0.6-0.4-1.3-0.4c-0.8,0-1.2,0.5-1.2,1.1c0,0.7,0.5,0.9,1.3,1.3
		c1,0.4,1.6,0.9,1.6,1.9c0,1.1-0.8,1.8-2.2,1.8c-0.6,0-1.2-0.2-1.6-0.4L82.8,27.4L82.8,27.4z"/>
</g>
</svg>
