<?xml version="1.0" encoding="utf-8"?>
<!-- Generator: Adobe Illustrator 22.1.0, SVG Export Plug-In . SVG Version: 6.00 Build 0)  -->
<svg version="1.1" id="Layer_1" xmlns="http://www.w3.org/2000/svg" xmlns:xlink="http://www.w3.org/1999/xlink" x="0px" y="0px"
	 viewBox="0 0 758.2 65.2" style="enable-background:new 0 0 758.2 65.2;" xml:space="preserve">
<style type="text/css">
	.st0{fill:none;}
	.st1{fill:#FFFFFF;}
	.st2{fill:#5091CD;}
</style>
<rect class="st0" width="758.2" height="65.2"/>
<path class="st1" d="M89.2,1.8c7.4,17.6,18.8,45.3,22.9,53.4c-1.4-0.2-2.7-0.4-4-0.4c-1.4,0-2.7,0.2-4,0.4
	c-1.4-5.2-5.1-13.6-7.8-20.4c-3.3-0.1-6.6-0.2-10-0.2c-3.1,0-6.2,0.1-9.3,0.2c-3.2,7.8-6.1,15.6-7.4,20.4c-1-0.2-1.9-0.4-2.8-0.4
	S65,55,64,55.2c8.1-17.8,16-35.5,23.8-53.4C87.8,1.8,89.2,1.8,89.2,1.8z M86.7,12.1l-8.3,19.3c2.7,0,5.5,0.2,8.2,0.2
	c2.8,0,5.7-0.1,8.5-0.2C95.1,31.4,86.7,12.1,86.7,12.1z M121.2,22.5c0-5.2-0.1-10.5-0.2-15.7c-5.2,0-12,0.3-16.3,0.8
	c0.2-0.8,0.4-1.6,0.4-2.4s-0.2-1.5-0.4-2.4c6.5,0.2,13.1,0.4,19.6,0.4c6.5,0,13.1-0.2,19.6-0.4c-0.2,0.8-0.4,1.6-0.4,2.4
	s0.2,1.6,0.4,2.4c-4.3-0.5-11-0.8-16.3-0.8c-0.2,5.2-0.2,10.5-0.2,15.7v13.1c0,6.5,0.3,13.1,0.6,19.7c-1.3-0.2-2.5-0.4-3.7-0.4
	s-2.4,0.2-3.7,0.4c0.3-6.5,0.6-13.1,0.6-19.7V22.5z M189.4,22.5c0-6.5-0.3-13.1-0.6-19.7c1.3,0.2,2.5,0.4,3.7,0.4s2.4-0.2,3.7-0.4
	c-0.3,6.5-0.6,13.1-0.6,19.7v13.1c0,6.5,0.3,13.1,0.6,19.7c-1.3-0.2-2.5-0.4-3.7-0.4s-2.4,0.2-3.7,0.4c0.3-6.5,0.6-13.1,0.6-19.7
	v-6.8c-5.3-0.1-10.6-0.2-15.9-0.2c-5.3,0-10.6,0.1-15.9,0.2v6.8c0,6.5,0.3,13.1,0.6,19.7c-1.3-0.2-2.5-0.4-3.7-0.4s-2.4,0.2-3.7,0.4
	c0.3-6.5,0.6-13.1,0.6-19.7V22.5c0-6.5-0.3-13.1-0.6-19.7c1.3,0.2,2.5,0.4,3.7,0.4s2.4-0.2,3.7-0.4c-0.3,6.5-0.6,13.1-0.6,19.7v2.7
	c5.3,0.1,10.6,0.2,15.9,0.2c5.3,0,10.6-0.2,15.9-0.2V22.5z M207.5,22.4c0-6.5-0.3-13.1-0.6-19.6c4.6,0.2,9,0.4,13.6,0.4
	s9-0.2,13.5-0.4c-0.2,0.8-0.2,1.5-0.2,2.3s0.1,1.5,0.2,2.3c-6.4-0.5-10.1-1-20-1c-0.1,3.3-0.3,5.9-0.3,9.7c0,4,0.1,8.1,0.1,10
	c9,0,14-0.4,18.5-0.8c-0.2,0.8-0.2,1.6-0.2,2.4s0.1,1.5,0.2,2.3c-5.2-0.5-14.8-0.7-18.5-0.7c-0.1,1.8-0.1,3.7-0.1,11
	c0,5.8,0.1,9.5,0.2,11.4c6.8,0,15.7-0.1,20.5-1c-0.2,0.7-0.2,1.7-0.2,2.4s0.1,1.5,0.2,2.2c-4.5-0.2-9-0.4-13.7-0.4
	c-4.6,0-9.2,0.2-13.8,0.4c0.3-6.6,0.6-13.2,0.6-19.8V22.4z M285.2,56.3c-11.6-13.6-25.4-28.2-38.4-42c-0.1,2.8-0.2,7.4-0.2,15.4
	c0,6.5,0.3,22.6,0.7,25.6c-0.8-0.2-1.7-0.4-2.7-0.4s-1.8,0.2-2.8,0.4c0.6-3.6,1.6-23,1.6-33.1c0-9.6,0-16.9-0.2-20.4h1.2
	c12.4,13.5,29.2,31.8,38.5,41.1c0-13.6,0-28.4-0.6-40.1c0.8,0.2,1.7,0.4,2.6,0.4c0.8,0,1.6-0.2,2.4-0.4c-0.5,4.5-1.2,19.5-1.2,25.5
	c0,7.8,0.2,24.5,0.2,28C286.3,56.3,285.2,56.3,285.2,56.3z M297,22.4c0-6.5-0.3-13.1-0.6-19.6c4.6,0.2,9,0.4,13.6,0.4
	s9-0.2,13.5-0.4c-0.2,0.8-0.2,1.5-0.2,2.3s0.1,1.5,0.2,2.3c-6.4-0.5-10.1-1-20-1c-0.1,3.3-0.3,5.9-0.3,9.7c0,4,0.1,8.1,0.1,10
	c9,0,14-0.4,18.5-0.8c-0.2,0.8-0.2,1.6-0.2,2.4s0.1,1.5,0.2,2.3c-5.2-0.5-14.8-0.7-18.5-0.7c-0.1,1.8-0.1,3.7-0.1,11
	c0,5.8,0.1,9.5,0.2,11.4c6.8,0,15.7-0.1,20.5-1c-0.2,0.7-0.2,1.7-0.2,2.4s0.1,1.5,0.2,2.2c-4.5-0.2-9-0.4-13.7-0.4
	c-4.6,0-9.2,0.2-13.8,0.4c0.3-6.6,0.6-13.2,0.6-19.8L297,22.4L297,22.4z M8.1,7.6C5.9,9,3.9,10.5,2,12.2c17.4,3,31.4,11.7,40.1,24.2
	C37.3,22.5,26.3,12.6,8.1,7.6z"/>
<path class="st1" d="M20.6,2c-3.2,0.9-6.3,2.1-9.3,3.7c22.9,7.1,32,21.8,35,35.9C46.2,25.5,37.6,12.2,20.6,2z"/>
<path class="st1" d="M48.7,47.1c4.9-21.9-5.9-37.6-15.4-46.7c-0.6,0-1.2-0.1-1.8-0.1c-2.4,0-4.8,0.2-7.1,0.7
	C45.7,15,50.2,32.3,48.7,47.1z"/>
<path class="st1" d="M50.6,50.8c6.8-14.7,6.3-30.2-1.5-45.6c-3.5-2-7.3-3.5-11.5-4.2C46.6,10.6,57.1,27.6,50.6,50.8z"/>
<path class="st1" d="M61.1,17.2c-2.1-3.3-4.6-6.3-7.6-8.8c6.6,16,5.8,32.3-2.4,47.4c5.4-7.7,8.9-16.7,9.9-26.7
	C61.5,25.1,61.5,21.1,61.1,17.2z"/>
<path class="st2" d="M350.3,20.5h12.8c6.6,0,16.4,4.4,16.4,16.7s-9.8,16.7-16.4,16.7h-12.8V20.5z M354.2,50.2h7.5
	c7.6,0,13.4-3.9,13.4-13s-5.8-13-13.4-13h-7.5V50.2z M385.1,37c0-2-0.2-3.8-0.2-5.2h3.5c0,1.2,0.1,2.4,0.1,3.6h0.1
	c1-2.2,3.7-4.2,7.4-4.2c0.5,0,1,0,1.5,0.2l-0.2,3.7c-0.6-0.2-1.3-0.3-2-0.3c-4.5,0-6.5,3.2-6.5,8.2v10.7h-3.7L385.1,37L385.1,37z
	 M403.9,20.5c1.5,0,2.7,1.2,2.7,2.7c0,1.6-1.1,2.7-2.7,2.7s-2.7-1.1-2.7-2.7C401.2,21.7,402.4,20.5,403.9,20.5z M402.1,31.8h3.7
	v22.1h-3.7V31.8z M423.1,53.9H419l-9-22.1h4.3l6.9,17.3h0.1l6.6-17.3h4L423.1,53.9z M455.5,49.9c-2.6,3.3-5.7,4.6-9.8,4.6
	c-6.9,0-11.2-5.2-11.2-11.6c0-6.8,4.8-11.6,11.3-11.6c6.2,0,10.5,4.2,10.5,11.5V44h-17.8c0.3,3.8,3.2,7.1,7.2,7.1
	c3.2,0,5.3-1.1,7-3.3L455.5,49.9z M452.3,40.8c-0.1-3.7-2.6-6.2-6.6-6.2c-4.1,0-6.7,2.5-7.2,6.2H452.3L452.3,40.8z M462,37
	c0-2-0.2-3.8-0.2-5.2h3.5c0,1.2,0.1,2.4,0.1,3.6h0.1c1-2.2,3.7-4.2,7.4-4.2c5.8,0,8.4,3.7,8.4,9v13.6h-3.7V40.6c0-3.7-1.6-6-5-6
	c-4.8,0-6.8,3.4-6.8,8.5v10.7H462V37z M513.3,34.9h-6.5v11c0,2.8,0,5.1,3.3,5.1c1.1,0,2.3-0.2,3.3-0.8l0.1,3.3
	c-1.3,0.6-2.9,0.8-4.3,0.8c-5.2,0-6.1-2.8-6.1-7.4v-12h-4.8v-3.1h4.8v-6.3h3.7v6.3h6.5L513.3,34.9L513.3,34.9z M528.4,31.2
	c6.8,0,11.8,4.7,11.8,11.6s-5,11.6-11.8,11.6s-11.8-4.7-11.8-11.6S521.6,31.2,528.4,31.2z M528.4,51c4.8,0,7.8-3.6,7.8-8.2
	s-3.1-8.2-7.8-8.2c-4.8,0-7.8,3.6-7.8,8.2C520.5,47.4,523.6,51,528.4,51z M577.3,49.9c-1.5,2.5-4.6,4.5-8.6,4.5c-6.2,0-11-5-11-11.6
	c0-6.7,4.7-11.6,11.6-11.6c3.2,0,5.9,1.4,7.9,3.8h0.1V18.2h3.7v35.6h-3.7V49.9z M569.5,34.6c-4.8,0-7.8,3.6-7.8,8.2s3.1,8.2,7.8,8.2
	c4.8,0,7.8-3.6,7.8-8.2S574.2,34.6,569.5,34.6z M598.2,31.2c6.8,0,11.8,4.7,11.8,11.6s-5,11.6-11.8,11.6s-11.8-4.7-11.8-11.6
	C586.5,35.9,591.5,31.2,598.2,31.2z M598.2,51c4.8,0,7.8-3.6,7.8-8.2s-3.1-8.2-7.8-8.2c-4.8,0-7.8,3.6-7.8,8.2S593.5,51,598.2,51z
	 M628.8,37c0-2-0.2-3.8-0.2-5.2h3.5c0,1.2,0.1,2.4,0.1,3.6h0.1c1-2.2,3.7-4.2,7.4-4.2c4.8,0,6.3,2.7,7,4.2c1.6-2.6,3.6-4.2,7-4.2
	c6.3,0,8.4,3.5,8.4,9.2v13.4h-3.7V40.7c0-3.1-1.1-6-5.4-6c-3.1,0-5.7,2.5-5.7,6.5v12.7h-3.7V41.4c0-4.9-1.2-6.7-4.2-6.7
	c-4.8,0-6.8,3.4-6.8,8.5v10.7h-3.7L628.8,37L628.8,37z M679.5,31.2c6.8,0,11.8,4.7,11.8,11.6s-5,11.6-11.8,11.6s-11.8-4.7-11.8-11.6
	S672.7,31.2,679.5,31.2z M679.5,51c4.8,0,7.8-3.6,7.8-8.2s-3.1-8.2-7.8-8.2c-4.8,0-7.8,3.6-7.8,8.2S674.7,51,679.5,51z M697,37
	c0-2-0.2-3.8-0.2-5.2h3.5c0,1.2,0.1,2.4,0.1,3.6h0.1c1-2.2,3.7-4.2,7.4-4.2c0.5,0,1,0,1.5,0.2l-0.2,3.7c-0.6-0.2-1.3-0.3-2-0.3
	c-4.5,0-6.5,3.2-6.5,8.2v10.7H697V37z M732.5,49.9c-2.6,3.3-5.7,4.6-9.8,4.6c-6.9,0-11.2-5.2-11.2-11.6c0-6.8,4.8-11.6,11.3-11.6
	c6.2,0,10.5,4.2,10.5,11.5V44h-17.8c0.3,3.8,3.2,7.1,7.2,7.1c3.2,0,5.3-1.1,7-3.3L732.5,49.9z M729.3,40.8c-0.1-3.7-2.6-6.2-6.6-6.2
	c-4.1,0-6.7,2.5-7.2,6.2H729.3z M744.9,51.3c0,1.6-1.4,2.8-2.8,2.8c-1.5,0-2.8-1.3-2.8-2.8c0-1.6,1.3-2.8,2.8-2.8
	S744.9,49.8,744.9,51.3z M742,25.3c3.3,0,5.9,2.6,5.9,5.9S745.2,37,742,37c-3.3,0-5.9-2.6-5.9-5.8C736.1,27.9,738.7,25.3,742,25.3z
	 M742,36.2c2.8,0,5-2.3,5-5c0-2.8-2.2-5-5-5s-5,2.2-5,5C737,33.9,739.3,36.2,742,36.2z M743.5,34.5l-1.4-2.6h-0.9v2.6h-1.6v-6.7h2.9
	c1.2,0,2.5,0.5,2.5,2.1c0,0.9-0.6,1.5-1.3,1.8l1.8,2.8H743.5z M742.3,30.7c0.5,0,1-0.3,1-0.9c0-0.5-0.6-0.8-1-0.8h-1.2v1.6
	L742.3,30.7L742.3,30.7z"/>
</svg>
