<?xml version="1.0" encoding="utf-8"?>
<!-- Generator: Adobe Illustrator 22.0.1, SVG Export Plug-In . SVG Version: 6.00 Build 0)  -->
<svg version="1.1"
	 id="svg2" inkscape:version="0.48.5 r10040" sodipodi:docname="atrium-logo-teal.svg" xmlns:cc="http://creativecommons.org/ns#" xmlns:dc="http://purl.org/dc/elements/1.1/" xmlns:inkscape="http://www.inkscape.org/namespaces/inkscape" xmlns:rdf="http://www.w3.org/1999/02/22-rdf-syntax-ns#" xmlns:sodipodi="http://sodipodi.sourceforge.net/DTD/sodipodi-0.dtd" xmlns:svg="http://www.w3.org/2000/svg"
	 xmlns="http://www.w3.org/2000/svg" xmlns:xlink="http://www.w3.org/1999/xlink" x="0px" y="0px" viewBox="0 0 290 65"
	 style="enable-background:new 0 0 290 65;" xml:space="preserve">
<style type="text/css">
	.st0{fill:none;}
	.st1{fill:#FFFFFF;}
</style>
<rect x="-19.5" y="-23.5" class="st0" width="329.5" height="110"/>
<path id="path22" inkscape:connector-curvature="0" class="st1" d="M131.4,19.8v2.5c0,1.2-0.9,2.1-2.1,2.1h-2.5v-2.5
	c0-1.2,0.9-2.1,2.1-2.1H131.4z M154.9,44.2V27.1h2.3c1.1,0,2.1,0.9,2.1,2.1c0.9-1.7,3.1-2.6,5-2.6c2.3,0,4.2,1,5.1,2.8
	c1.4-2.1,3.2-2.8,5.4-2.8c3.2,0,6.2,1.9,6.2,6.5v11.1h-4.5V34c0-1.8-0.9-3.2-3-3.2c-2,0-3.2,1.5-3.2,3.4v10h-4.6V34
	c0-1.8-0.9-3.2-3-3.2c-2,0-3.2,1.5-3.2,3.4v10H154.9z M146.7,42.3c-0.9,1.6-2.9,2.3-4.7,2.3c-4.1,0-6.5-3-6.5-6.7V27.1h2.5
	c1.2,0,2.1,0.9,2.1,2.1V37c0,1.9,1,3.4,3.1,3.4c2,0,3.2-1.4,3.2-3.4v-9.9h4.6v14c0,1.3,0.1,2.5,0.2,3.1h-4.4
	C146.7,43.8,146.7,43,146.7,42.3 M126.7,44.2V29.2c0-1.2,0.9-2.1,2.1-2.1h2.5v17.1H126.7z M123.9,31.7c-0.5-0.1-1-0.1-1.4-0.1
	c-2.4,0-4.4,1.1-4.4,4.8v7.8h-4.6V27.1h4.5v2.5c1-2.3,3.4-2.7,4.9-2.7c0.4,0,0.7,0,1.1,0.1V31.7z M106.3,27.1h3.4v4.1h-3.4v7.1
	c0,1.5,0.7,2,2,2c0.6,0,1.2-0.1,1.4-0.1V44c-0.4,0.2-1.2,0.4-2.6,0.4c-3.3,0-5.4-2-5.4-5.3v-7.9h-3.1v-4.1h0.9
	c1.8,0,2.6-1.2,2.6-2.7V22h4.2L106.3,27.1z M83.8,34.2h6.8l-3.4-9.3L83.8,34.2z M92.2,38.6h-10l-1.5,4.2c-0.3,0.8-1.1,1.4-2,1.4
	h-3.6l9.4-24.6H90l9.4,24.6h-3.7c-0.9,0-1.7-0.6-2-1.4L92.2,38.6z M39.2,55.2v-2.1c0-0.5,0.2-0.9,0.6-1.1L52,44.8
	c0.3-0.2,0.5-0.5,0.5-0.8v-4c0-0.6-0.3-1.1-0.8-1.4c-0.2-0.1-0.5-0.2-0.7-0.2c-0.3,0-0.5,0.1-0.8,0.2L37.6,46
	c-0.8,0.5-1.3,1.4-1.3,2.3v11.4C51.1,59.3,63,47.1,63,32.2C63,17,50.7,4.7,35.5,4.7S8,17,8,32.2c0,14.9,11.9,27.1,26.7,27.5V48.3
	c0-1-0.5-1.8-1.3-2.3l-12.6-7.4c-0.2-0.1-0.5-0.2-0.8-0.2c-0.2,0-0.5,0.1-0.7,0.2c-0.5,0.3-0.8,0.8-0.8,1.4v4c0,0.3,0.2,0.7,0.5,0.8
	L31.2,52c0.4,0.2,0.6,0.7,0.6,1.1v2.1c0,0.8-0.8,1.4-1.6,1.3C19.1,54,10.7,44.1,10.7,32.2c0-13.7,11.1-24.8,24.8-24.8
	s24.8,11.1,24.8,24.8c0,11.9-8.4,21.8-19.5,24.2C39.9,56.6,39.2,56,39.2,55.2 M41,14.1c0-0.2-0.1-0.3-0.2-0.4L36,10.9
	c-0.2-0.1-0.3-0.1-0.5-0.1c-0.2,0-0.3,0-0.5,0.1l-4.8,2.8c-0.1,0.1-0.2,0.2-0.2,0.4c0,0.2,0.1,0.3,0.2,0.4l4.8,2.8
	c0.3,0.2,0.7,0.2,1,0l4.9-2.8C40.9,14.4,41,14.3,41,14.1 M36.3,39v5.7l19.3-11.4c0.3-0.2,0.5-0.5,0.5-0.8v-4c0-0.6-0.3-1-0.8-1.3
	C55.1,27,54.8,27,54.6,27c-0.3,0-0.5,0.1-0.8,0.2l-16.2,9.5C36.8,37.2,36.3,38.1,36.3,39 M36.3,20.6v5.7l9.3-5.4
	c0.3-0.2,0.5-0.5,0.5-0.8v-4c0-0.6-0.3-1-0.8-1.3c-0.2-0.1-0.5-0.2-0.8-0.2c-0.3,0-0.5,0.1-0.8,0.2l-6.1,3.6
	C36.8,18.7,36.3,19.6,36.3,20.6 M36.3,29.8v5.7L52,26.3c0.3-0.2,0.5-0.5,0.5-0.8v-4c0-0.6-0.3-1-0.8-1.3c-0.2-0.1-0.5-0.2-0.8-0.2
	c-0.3,0-0.5,0.1-0.8,0.2l-12.6,7.4C36.8,28,36.3,28.9,36.3,29.8 M33.3,36.7l-16.2-9.5C16.9,27,16.7,27,16.4,27
	c-0.3,0-0.5,0.1-0.8,0.2c-0.5,0.3-0.8,0.8-0.8,1.3v4c0,0.3,0.2,0.7,0.5,0.8l19.3,11.4V39C34.7,38.1,34.2,37.2,33.3,36.7 M33.3,18.2
	l-6.1-3.6c-0.2-0.1-0.5-0.2-0.8-0.2c-0.3,0-0.5,0.1-0.8,0.2c-0.5,0.3-0.8,0.8-0.8,1.3v4c0,0.3,0.2,0.7,0.5,0.8l9.3,5.4v-5.7
	C34.7,19.6,34.2,18.7,33.3,18.2 M33.3,27.5l-12.6-7.4c-0.2-0.1-0.5-0.2-0.8-0.2c-0.3,0-0.5,0.1-0.8,0.2c-0.5,0.3-0.8,0.8-0.8,1.3v4
	c0,0.3,0.2,0.7,0.5,0.8l15.7,9.3v-5.7C34.7,28.9,34.2,28,33.3,27.5 M275.6,29.4c-2.7,0-4.5,2-4.6,5.1v9.7h-2.4V20.6
	c0-0.6,0.5-1.1,1.1-1.1h1.3v10.7c0.4-0.3,1.7-2.9,5.8-2.9c3.6,0,5.7,2.4,5.7,6.3v10.5h-2.4v-9.9C280.2,31.1,278.5,29.4,275.6,29.4
	 M258.4,39.9v-10h-3.3v-2h0.4c2,0,3.2-1.2,3.2-3.2v-2.3h2.1v5.5h3.8v2h-3.8v9.5c0,1.9,1,2.9,2.9,2.9c0.2,0,0.5,0,0.8-0.1v1.9
	c-0.4,0.1-1,0.2-1.8,0.2C260,44.3,258.4,42.7,258.4,39.9 M250.3,19.6h1.3v24.6h-2.4V20.6C249.2,20.1,249.7,19.6,250.3,19.6
	 M236.4,42.9c-2.1,0-3.3-1.5-3.3-3c0-1.7,1.1-2.8,3-3.1l5.9-0.9v1.4C242,40.9,240,42.9,236.4,42.9 M242.1,41.6v1.2
	c0,0.4,0.1,1,0.1,1.4h2.3c-0.1-0.5-0.1-1.3-0.1-2.3v-8.7c0-3.7-2.4-5.8-6.7-5.8c-3.4,0-6,1.9-6.5,4.7l2.3,0.5
	c0.4-2.1,2.1-3.4,4.4-3.4c3.1,0,4.3,1.9,4.3,3.6c0,0.6-0.2,1.6-1.8,1.8l-4.7,0.7c-1.5,0.2-4.8,1.1-4.8,4.8c0,2.3,1.9,4.7,5.3,4.7
	C239.9,44.7,241.3,42.7,242.1,41.6 M214.5,34.2c0.2-2.4,2-4.9,5.2-4.9c3.1,0,5.2,1.9,5.3,4.9l0,0.5h-10.6L214.5,34.2z M225.3,39.4
	c-0.9,2.2-2.7,3.4-5.2,3.4c-3.3,0-5.7-2.4-5.7-5.8l0-0.5h13.1c0-0.2,0-0.4,0-0.6c0-5.4-2.9-8.6-7.8-8.6c-4.4,0-7.8,3.8-7.8,8.7
	c0,6,4.3,8.8,8.2,8.8c3.3,0,6-1.8,7.1-4.7C227.3,40.1,225.3,39.4,225.3,39.4z M205.9,44.2V32.8h-13.8v11.4h-2.5V19.6h1.5
	c0.6,0,1.1,0.5,1.1,1.1v9.9h13.8v-9.9c0-0.6,0.5-1.1,1.1-1.1h1.5v24.6C208.5,44.2,205.9,44.2,205.9,44.2z"/>
</svg>
