<?xml version="1.0" encoding="UTF-8"?>
<svg id="Layer_1" data-name="Layer 1" xmlns="http://www.w3.org/2000/svg" viewBox="0 0 348.22 131.24">
  <defs>
    <style>
      .cls-1 {
        fill: #221f1f;
      }

      .cls-2 {
        fill: #28aae1;
      }
    </style>
  </defs>
  <g>
    <path class="cls-1" d="M89.17,74.46V1.79h15.21c3.33,0,6.18,.51,8.52,1.53,2.35,1.02,4.27,2.38,5.77,4.08,1.49,1.7,2.57,3.66,3.21,5.87,.64,2.21,.97,4.51,.97,6.89v2.65c0,1.97-.15,3.64-.46,5-.31,1.36-.77,2.55-1.38,3.57-1.16,1.91-2.93,3.54-5.31,4.9,2.45,1.16,4.25,2.86,5.41,5.1,1.16,2.24,1.74,5.31,1.74,9.18v4.09c0,6.4-1.55,11.29-4.64,14.7-3.1,3.4-8.05,5.1-14.85,5.1h-14.19Zm10.41-62.88V31.59h4.69c3.47,0,5.8-.87,6.99-2.6,1.19-1.73,1.79-4.27,1.79-7.6s-.66-5.72-1.99-7.35c-1.32-1.63-3.72-2.45-7.19-2.45h-4.29Zm0,29.19v23.27h4.49c2.11,0,3.76-.31,4.95-.92,1.19-.61,2.1-1.46,2.71-2.55,.61-1.09,.98-2.38,1.12-3.88,.14-1.5,.2-3.13,.2-4.9s-.1-3.44-.31-4.8c-.2-1.36-.61-2.51-1.23-3.47-.68-.95-1.6-1.65-2.75-2.09-1.16-.44-2.69-.66-4.6-.66h-4.59Z"/>
    <path class="cls-1" d="M151.74,74.46v-5.31h-.2c-1.36,1.91-2.74,3.37-4.13,4.39-1.4,1.02-3.35,1.53-5.87,1.53-1.22,0-2.47-.19-3.72-.56-1.26-.37-2.47-1.07-3.62-2.1-1.16-.95-2.09-2.33-2.81-4.13-.71-1.8-1.07-4.13-1.07-6.99s.24-5.5,.71-7.71c.48-2.21,1.36-4.06,2.66-5.56,1.22-1.43,2.89-2.5,5-3.21,2.11-.72,4.8-1.08,8.07-1.08h1.12c.41,0,.78,.04,1.12,.11,.34,.07,.75,.1,1.22,.1s.99,.04,1.53,.1v-5.41c0-1.77-.38-3.23-1.12-4.39-.75-1.16-2.11-1.73-4.08-1.73-1.36,0-2.61,.44-3.73,1.33-1.12,.89-1.85,2.18-2.19,3.88h-10.1c.27-4.63,1.84-8.37,4.69-11.23,1.36-1.36,2.99-2.43,4.9-3.21,1.91-.78,4.05-1.17,6.43-1.17,2.18,0,4.22,.34,6.12,1.02,1.9,.68,3.57,1.7,5,3.06,1.36,1.36,2.45,3.06,3.27,5.11,.82,2.04,1.22,4.42,1.22,7.14v36.03h-10.41Zm0-22.25c-1.16-.2-2.11-.31-2.86-.31-2.25,0-4.17,.53-5.77,1.58-1.6,1.06-2.4,2.98-2.4,5.77,0,1.97,.48,3.57,1.43,4.8,.95,1.22,2.28,1.84,3.98,1.84s3.15-.58,4.14-1.74c.98-1.16,1.48-2.79,1.48-4.9v-7.04Z"/>
    <path class="cls-1" d="M171.23,1.79h10.41V59.87c0,1.98,.36,3.32,1.08,4.03,.71,.71,2.06,1.17,4.03,1.38v9.8c-2.38,0-4.53-.19-6.43-.56-1.91-.37-3.54-1.1-4.9-2.19-1.36-1.02-2.4-2.47-3.11-4.34-.71-1.87-1.07-4.34-1.07-7.4V1.79Z"/>
    <path class="cls-1" d="M196.24,74.46V30.88h-5.1v-8.16h5.1v-7.05c0-2.51,.37-4.64,1.12-6.38,.75-1.74,1.77-3.18,3.06-4.34,1.22-1.16,2.64-1.97,4.24-2.45,1.6-.47,3.25-.71,4.95-.71h4.8V11.59h-4.69c-2.04,0-3.07,1.19-3.07,3.57v7.56h7.76v8.16h-7.76v43.59h-10.41Z"/>
    <path class="cls-1" d="M218.7,40.07c0-2.11,.13-4.05,.4-5.82,.27-1.77,.78-3.33,1.54-4.69,1.22-2.24,2.97-4.05,5.26-5.41,2.28-1.36,5.05-2.05,8.32-2.05s6.04,.68,8.32,2.05c2.28,1.36,4.03,3.16,5.26,5.41,.75,1.36,1.26,2.93,1.53,4.69,.27,1.77,.41,3.71,.41,5.82v17.05c0,2.11-.14,4.05-.41,5.82-.27,1.77-.78,3.33-1.53,4.7-1.23,2.24-2.97,4.05-5.26,5.41-2.28,1.36-5.05,2.04-8.32,2.04s-6.04-.68-8.32-2.04c-2.28-1.36-4.03-3.16-5.26-5.41-.75-1.36-1.26-2.93-1.54-4.7-.27-1.77-.4-3.71-.4-5.82v-17.05Zm10.41,18.68c0,1.98,.46,3.46,1.38,4.44,.92,.99,2.16,1.48,3.72,1.48s2.81-.5,3.73-1.48c.92-.98,1.38-2.46,1.38-4.44v-20.31c0-1.98-.46-3.46-1.38-4.44-.92-.98-2.16-1.48-3.73-1.48s-2.81,.5-3.72,1.48c-.92,.99-1.38,2.47-1.38,4.44v20.31Z"/>
    <path class="cls-2" d="M290.55,22.71v51.75h-10.41v-5h-.21c-1.09,1.63-2.4,2.98-3.93,4.03-1.53,1.05-3.49,1.58-5.87,1.58-1.29,0-2.59-.22-3.88-.66-1.29-.44-2.45-1.17-3.47-2.19-1.02-1.02-1.84-2.33-2.45-3.93-.61-1.6-.92-3.56-.92-5.87V22.71h10.41V58.54c0,1.91,.44,3.4,1.33,4.49,.88,1.09,2.14,1.63,3.78,1.63,1.97,0,3.33-.61,4.08-1.84,.75-1.22,1.13-2.99,1.13-5.31V22.71h10.41Z"/>
    <path class="cls-1" d="M301.17,74.46V22.72h10.41v5.51c2.11-1.9,4.18-3.4,6.23-4.49,2.04-1.09,4.56-1.64,7.55-1.64v11.03c-1.02-.41-2.08-.61-3.16-.61s-2.27,.19-3.52,.56c-1.26,.38-2.4,1.01-3.42,1.89-1.09,.88-1.98,2.04-2.65,3.47-.68,1.43-1.02,3.2-1.02,5.31v30.72h-10.41Z"/>
  </g>
  <g>
    <path d="M95.04,113.5c-.02-2.14,.28-4.07,.91-5.79,.63-1.71,1.52-3.17,2.67-4.37,1.14-1.2,2.5-2.12,4.08-2.77s3.29-.97,5.15-.97c.8,0,1.49,.02,2.07,.07,.58,.05,1.08,.11,1.52,.19,.43,.07,.81,.15,1.12,.24,.32,.09,.61,.16,.87,.23l.56,.16-.99,5.91h-3.02s-.51-4.37-.51-4.37c-.3-.14-.64-.26-1.01-.35-.37-.09-.79-.14-1.27-.13-.91,0-1.72,.18-2.44,.53-.72,.35-1.35,.82-1.9,1.41-.55,.59-1.01,1.28-1.4,2.06-.38,.78-.7,1.61-.94,2.47-.24,.86-.42,1.74-.52,2.63-.1,.89-.14,1.74-.12,2.54,.03,1.16,.14,2.23,.33,3.21,.19,.98,.48,1.83,.86,2.54,.39,.72,.87,1.27,1.46,1.67s1.3,.6,2.13,.6c.26,0,.56-.02,.89-.05,.33-.03,.67-.09,1.02-.19s.68-.23,1-.41c.32-.17,.6-.4,.83-.69,.08-.09,.18-.27,.3-.53,.11-.26,.23-.55,.34-.87,.11-.32,.22-.62,.32-.93,.1-.3,.17-.54,.21-.7h2.59s-.65,4.68-.65,4.68c-.28,.17-.64,.37-1.08,.59-.44,.22-.97,.43-1.58,.62-.62,.19-1.34,.35-2.15,.49-.81,.13-1.73,.2-2.76,.2-1.62,0-2.99-.27-4.11-.83s-2.04-1.29-2.75-2.21c-.71-.92-1.22-1.98-1.54-3.17-.33-1.19-.49-2.43-.51-3.7Z"/>
    <path d="M115.42,116.44c0-1.55,.26-3.01,.76-4.37s1.18-2.55,2.06-3.57c.87-1.02,1.9-1.83,3.08-2.41,1.18-.59,2.45-.88,3.83-.89,.83,0,1.55,.09,2.15,.29,.6,.19,1.1,.46,1.49,.8,.4,.34,.69,.74,.88,1.2,.19,.46,.29,.96,.31,1.49,.02,.81-.13,1.53-.46,2.18-.33,.65-.76,1.23-1.3,1.74s-1.17,.95-1.87,1.32-1.43,.67-2.17,.91c-.74,.24-1.47,.42-2.2,.54-.73,.12-1.39,.18-1.97,.18-.02,.67,.03,1.31,.14,1.92,.11,.61,.29,1.15,.54,1.61,.25,.46,.58,.83,.99,1.1,.41,.27,.89,.41,1.45,.41,.52,0,1.01-.07,1.48-.2s.9-.31,1.31-.53c.41-.22,.8-.49,1.15-.78,.36-.3,.69-.61,1.01-.95l.88,1.47c-.22,.32-.53,.69-.94,1.09-.41,.41-.91,.79-1.5,1.15-.59,.36-1.26,.66-2.01,.9-.76,.24-1.58,.36-2.48,.36-1.19,0-2.2-.2-3.04-.59-.84-.4-1.52-.92-2.05-1.57-.53-.65-.91-1.4-1.15-2.23-.24-.83-.36-1.69-.35-2.55Zm4.61-2.42c.53,0,1.13-.11,1.8-.32,.67-.21,1.3-.52,1.89-.92,.59-.4,1.08-.88,1.47-1.45,.39-.56,.58-1.21,.56-1.96-.02-.73-.17-1.27-.44-1.61s-.65-.52-1.14-.52c-.46,0-.88,.11-1.25,.33-.38,.22-.71,.5-1,.85-.29,.35-.55,.76-.77,1.23-.22,.47-.41,.95-.56,1.45-.15,.5-.27,1-.37,1.5-.09,.5-.16,.97-.2,1.41Z"/>
    <path d="M133.36,121.26c0-.17,.01-.37,.04-.61,.03-.24,.05-.44,.07-.59l2.74-20.16-2-.67,.31-1.3,5.36-.66,.78,.42-2.97,22.1c-.05,.37-.04,.65,.03,.87,.07,.21,.21,.32,.42,.32,.16,0,.34-.06,.56-.17,.22-.11,.55-.34,.98-.7l.45,1c-.07,.12-.22,.3-.45,.55-.23,.25-.52,.5-.87,.75-.35,.25-.76,.47-1.23,.67-.47,.19-.98,.29-1.55,.29-.38,0-.72-.04-1.05-.12-.32-.08-.6-.2-.84-.37-.24-.17-.43-.38-.57-.65-.14-.27-.21-.59-.21-.98Z"/>
    <path d="M143.26,116.4c0-1.55,.26-3.01,.76-4.37,.5-1.36,1.18-2.55,2.06-3.57,.87-1.02,1.9-1.83,3.08-2.41,1.18-.59,2.45-.88,3.83-.89,.83,0,1.55,.1,2.15,.29,.6,.19,1.1,.46,1.49,.8,.4,.34,.69,.74,.88,1.2,.19,.46,.29,.96,.31,1.49,.02,.81-.13,1.53-.46,2.18-.33,.65-.76,1.23-1.3,1.74s-1.17,.95-1.87,1.32c-.71,.37-1.43,.67-2.17,.91-.74,.24-1.47,.42-2.2,.54-.73,.12-1.39,.18-1.97,.18-.02,.67,.03,1.31,.14,1.92s.29,1.15,.54,1.61c.25,.46,.58,.83,.99,1.1,.41,.27,.89,.41,1.45,.41,.52,0,1.01-.07,1.48-.2,.46-.13,.9-.31,1.31-.53,.41-.22,.8-.49,1.15-.78,.36-.3,.69-.61,1.01-.95l.88,1.47c-.22,.32-.53,.69-.94,1.09-.41,.41-.91,.79-1.5,1.15-.59,.36-1.26,.66-2.01,.9-.76,.24-1.58,.36-2.48,.36-1.19,0-2.2-.2-3.04-.59-.84-.4-1.52-.92-2.05-1.57-.53-.65-.91-1.4-1.15-2.23-.24-.84-.36-1.69-.35-2.55Zm4.61-2.42c.53,0,1.13-.11,1.8-.32,.67-.21,1.3-.52,1.89-.92,.59-.4,1.08-.88,1.47-1.45,.39-.56,.58-1.21,.56-1.96-.02-.73-.17-1.27-.44-1.61s-.65-.52-1.14-.52c-.46,0-.88,.11-1.25,.33-.38,.21-.71,.5-1,.85-.29,.35-.55,.76-.77,1.23-.22,.47-.41,.95-.56,1.45-.15,.5-.27,1-.37,1.5-.09,.5-.16,.97-.2,1.41Z"/>
    <path d="M161.05,123.33l2.96-23.21-1.56-.67,.33-1.31,4.81-.62,.83,.42-1.21,9.14c.25-.26,.53-.5,.85-.74,.32-.24,.67-.45,1.05-.63,.38-.18,.79-.32,1.23-.43,.44-.11,.91-.16,1.41-.16,.91,0,1.69,.15,2.36,.47s1.22,.76,1.67,1.33c.45,.58,.78,1.28,1,2.1,.22,.82,.33,1.74,.33,2.75,0,.94-.1,1.89-.32,2.83s-.52,1.84-.93,2.69c-.4,.85-.9,1.64-1.5,2.38-.59,.73-1.27,1.37-2.04,1.91-.76,.54-1.61,.96-2.54,1.27-.93,.31-1.94,.46-3.02,.47-.32,0-.66-.02-1-.06-.34-.04-.68-.09-1.01-.16-.33-.06-.64-.13-.95-.22-.3-.08-.58-.16-.83-.23l-1.94,.67Zm9.24-15.73c-.35,0-.69,.06-1.02,.18-.32,.12-.63,.27-.92,.46-.29,.19-.56,.41-.81,.65-.25,.25-.47,.5-.67,.75l-1.51,11.33c.26,.11,.54,.19,.84,.24,.3,.04,.63,.07,1,.07,.66,0,1.25-.13,1.77-.4,.52-.27,.99-.63,1.4-1.09,.41-.46,.76-1,1.06-1.61s.54-1.27,.73-1.96c.19-.7,.33-1.42,.42-2.16,.09-.74,.13-1.46,.13-2.17,0-.62-.05-1.2-.16-1.73-.11-.53-.26-.98-.46-1.36-.2-.38-.46-.67-.76-.88-.3-.21-.65-.31-1.05-.31Z"/>
    <path d="M180.46,123.29l1.96-15.03-1.63-.94,.26-1.39,4.56-.82,.8,.47-.26,3.86c.17-.48,.41-.97,.73-1.49,.32-.51,.71-.98,1.17-1.4,.46-.42,.97-.77,1.55-1.04,.58-.27,1.21-.41,1.9-.41,.22,0,.42,.03,.62,.08,.19,.06,.33,.12,.42,.18l-.9,4.56c-.12-.08-.31-.17-.59-.26-.28-.09-.65-.14-1.11-.14-.34,0-.7,.04-1.05,.1s-.71,.18-1.04,.34c-.33,.16-.65,.37-.94,.63-.29,.26-.54,.58-.75,.95l-1.53,11.72h-4.17Z"/>
    <path d="M193.88,116.73c0-.9,.1-1.82,.3-2.75,.2-.93,.5-1.82,.89-2.68,.39-.86,.88-1.67,1.47-2.42,.59-.75,1.27-1.41,2.04-1.98,.77-.57,1.64-1.01,2.59-1.33,.95-.32,2-.49,3.13-.49,.58,0,1.19,.06,1.81,.19,.62,.13,1.17,.27,1.64,.41l2.14-.61-2.01,14.63c-.05,.42-.02,.72,.1,.9s.27,.27,.45,.27c.15,0,.33-.04,.55-.14,.22-.09,.51-.28,.87-.56l.47,.98c-.07,.12-.22,.31-.45,.54s-.51,.47-.86,.7c-.34,.24-.74,.44-1.19,.61s-.94,.26-1.48,.26c-.73,0-1.31-.17-1.75-.51-.44-.34-.64-.87-.61-1.59l-.12-.2c-.27,.29-.58,.58-.92,.86-.34,.28-.71,.53-1.11,.74-.4,.21-.82,.39-1.28,.52-.46,.13-.94,.2-1.45,.2-.93,0-1.72-.17-2.38-.5-.66-.34-1.2-.8-1.63-1.39-.42-.59-.73-1.28-.93-2.08-.19-.8-.29-1.65-.29-2.57Zm6.71,4.15c.3,0,.6-.05,.91-.16,.3-.11,.59-.25,.87-.44s.55-.4,.8-.63c.25-.24,.48-.48,.7-.73l1.54-11.58c-.23-.08-.47-.14-.73-.17-.26-.03-.52-.05-.79-.05-.68,0-1.29,.14-1.83,.42s-1.02,.66-1.44,1.13c-.42,.48-.77,1.03-1.06,1.66-.29,.63-.53,1.29-.71,1.98-.19,.69-.32,1.4-.41,2.13-.09,.72-.13,1.42-.13,2.07,0,1.38,.19,2.45,.58,3.21,.38,.76,.95,1.15,1.7,1.15Z"/>
    <path d="M214.37,120.48c0-.05,0-.12,0-.21,0-.09,.02-.24,.04-.45s.05-.5,.09-.87c.04-.37,.1-.85,.19-1.45l1.31-10.1h-1.88s.36-1.58,.36-1.58l1.9-.76c.21-.2,.42-.47,.62-.8,.21-.33,.41-.68,.62-1.07,.2-.39,.39-.79,.58-1.2,.18-.42,.35-.82,.51-1.2h2.3s-.51,4.25-.51,4.25h3.62s-.34,2.35-.34,2.35h-3.58s-1.28,9.5-1.28,9.5c-.08,.55-.15,1.02-.19,1.41-.04,.39-.06,.73-.06,1,0,.49,.09,.84,.26,1.04,.17,.2,.49,.29,.96,.29,.2,0,.42-.03,.67-.09,.25-.06,.5-.13,.75-.22s.49-.2,.73-.33c.24-.13,.45-.27,.64-.41l.35,1.23c-.21,.25-.5,.51-.87,.79s-.8,.54-1.3,.79c-.49,.24-1.04,.44-1.65,.6s-1.24,.24-1.91,.24c-.39,0-.76-.04-1.11-.13-.35-.09-.67-.24-.95-.45-.28-.22-.5-.5-.66-.86-.16-.36-.24-.8-.24-1.32Z"/>
    <path d="M226.72,121.11c.07-.6,.17-1.32,.29-2.17,.12-.85,.26-1.81,.42-2.88,.16-1.07,.33-2.24,.52-3.52,.19-1.27,.38-2.63,.59-4.06l-2.02-.86,.25-1.27,5.58-.78,.83,.36-2.06,13.85c-.11,.75,.04,1.13,.46,1.13,.18,0,.38-.06,.61-.18,.23-.12,.54-.34,.94-.66l.45,1c-.08,.11-.24,.28-.48,.52-.23,.24-.53,.48-.9,.72-.36,.24-.79,.45-1.27,.63s-1.02,.28-1.62,.28c-.91,0-1.59-.18-2.04-.54-.45-.36-.64-.89-.56-1.57Zm4.71-18.72c-.3,0-.59-.06-.85-.19-.27-.12-.5-.29-.7-.5s-.36-.45-.48-.72c-.12-.27-.17-.55-.17-.84,0-.38,.08-.73,.22-1.06,.14-.33,.33-.62,.57-.87,.24-.25,.52-.44,.85-.59,.33-.15,.68-.22,1.07-.22,.36,0,.69,.06,.98,.18,.29,.12,.53,.28,.73,.48,.2,.2,.36,.43,.46,.69,.1,.26,.16,.53,.16,.81-.01,.38-.08,.73-.2,1.08-.12,.34-.31,.64-.55,.9-.25,.26-.54,.46-.89,.61-.35,.15-.75,.23-1.2,.23Z"/>
    <path d="M237.38,123.22l2.01-14.93-1.61-1.08,.26-1.37,4.94-.81,.78,.4-.26,3.33c.37-.54,.79-1.04,1.25-1.49,.46-.46,.94-.85,1.46-1.18,.51-.33,1.06-.59,1.62-.78,.57-.19,1.15-.28,1.74-.29,.57,0,1.09,.08,1.56,.24,.47,.16,.88,.42,1.22,.78,.34,.36,.61,.84,.8,1.44,.19,.59,.28,1.32,.29,2.18,0,.3-.03,.67-.08,1.11s-.12,.92-.19,1.42c-.08,.5-.16,1.01-.25,1.52-.09,.51-.17,.98-.26,1.41-.06,.39-.13,.79-.21,1.21s-.15,.83-.21,1.24-.12,.81-.16,1.19c-.05,.38-.08,.75-.08,1.08,0,.37,.03,.62,.12,.77,.09,.14,.21,.21,.37,.21,.16,0,.33-.05,.53-.15,.2-.1,.48-.28,.86-.55l.45,1c-.07,.1-.22,.27-.44,.49-.22,.23-.51,.46-.87,.69-.36,.23-.78,.44-1.26,.62-.48,.18-1.01,.27-1.59,.27-.53,0-.97-.06-1.31-.18-.34-.12-.62-.29-.81-.5-.2-.21-.33-.47-.41-.75-.07-.29-.11-.59-.09-.92,0-.28,.04-.6,.08-.98,.05-.37,.11-.77,.18-1.18,.07-.42,.15-.85,.23-1.29,.08-.45,.16-.88,.23-1.31,.09-.43,.18-.9,.27-1.41s.17-1.03,.25-1.56c.08-.53,.14-1.06,.19-1.59s.08-1.02,.08-1.48c0-.48-.04-.87-.1-1.17s-.16-.52-.28-.68c-.12-.16-.27-.27-.45-.32-.18-.06-.39-.08-.63-.08-.34,0-.71,.1-1.1,.29-.39,.2-.78,.46-1.18,.79-.4,.33-.78,.73-1.15,1.19-.37,.46-.71,.95-1.02,1.47l-1.58,11.69h-4.17Z"/>
    <path d="M257.36,116.64c0-.9,.1-1.82,.3-2.75,.2-.93,.5-1.82,.89-2.68,.39-.86,.88-1.67,1.47-2.42,.59-.75,1.27-1.41,2.04-1.98,.77-.57,1.64-1.01,2.59-1.33,.95-.32,2-.49,3.13-.49,.66,0,1.31,.07,1.97,.22,.66,.15,1.22,.3,1.69,.47l2.25-.69-2.75,19.41c-.18,1.31-.58,2.41-1.2,3.29-.62,.88-1.37,1.58-2.23,2.11-.86,.53-1.79,.9-2.79,1.12-1,.22-1.96,.33-2.88,.33-.37,0-.74-.02-1.13-.06-.39-.04-.76-.09-1.11-.15-.35-.06-.67-.13-.95-.2-.29-.07-.51-.14-.67-.22l.79-3.24c.15,.09,.37,.21,.67,.37,.3,.16,.64,.31,1.04,.46,.4,.15,.82,.28,1.27,.39,.45,.11,.89,.17,1.33,.16,.59,0,1.09-.05,1.5-.14,.41-.09,.75-.27,1.02-.53,.28-.26,.49-.61,.65-1.05,.16-.44,.28-1.02,.37-1.73l.51-3.93c-.51,.48-1.13,.9-1.87,1.26-.74,.36-1.58,.54-2.53,.54-.94,0-1.74-.17-2.42-.5-.67-.34-1.23-.8-1.67-1.39-.44-.59-.76-1.28-.97-2.08s-.31-1.65-.32-2.57Zm6.82,4.04c.33,0,.65-.05,.96-.15,.31-.1,.6-.24,.88-.4s.55-.36,.8-.58,.47-.45,.67-.68l1.69-11.37c-.27-.16-.55-.28-.85-.35s-.61-.11-.95-.11c-.68,0-1.29,.14-1.83,.42s-1.02,.66-1.44,1.13c-.42,.47-.77,1.03-1.06,1.66-.29,.63-.53,1.3-.72,1.99-.19,.69-.32,1.4-.41,2.12-.09,.72-.13,1.4-.13,2.06,0,1.37,.22,2.42,.65,3.16,.43,.74,1.01,1.11,1.74,1.11Z"/>
    <path d="M286.4,116.24c-.01-.4,0-.81,0-1.22s.05-.85,.1-1.32l1.62-12.31-2.19-.37,.2-1.68h9.39s-.17,1.61-.17,1.61l-2.76,.4-1.58,11.94c-.07,.6-.13,1.15-.17,1.67-.04,.51-.06,.97-.06,1.37,.02,1.55,.4,2.77,1.12,3.64,.72,.88,1.76,1.32,3.1,1.31,.93,0,1.74-.18,2.43-.53,.69-.36,1.28-.88,1.77-1.56,.49-.69,.89-1.54,1.21-2.55,.32-1.01,.56-2.17,.72-3.49l1.59-11.77-2.22-.4,.17-1.67h7.05s-.2,1.61-.2,1.61l-1.98,.39-1.54,11.81c-.24,1.82-.62,3.37-1.13,4.63-.52,1.27-1.18,2.3-2,3.09-.81,.79-1.77,1.37-2.86,1.73-1.1,.36-2.35,.54-3.74,.55-1.35,0-2.52-.17-3.5-.51-.98-.34-1.79-.82-2.44-1.43-.65-.61-1.13-1.33-1.44-2.18-.31-.84-.48-1.77-.49-2.77Z"/>
  </g>
  <g>
    <path class="cls-1" d="M72.98,32.63L41.66,1.75c-2.37-2.33-6.2-2.33-8.57,0L1.77,32.63c-2.37,2.33-2.37,6.12,0,8.45l13.68,13.49,21.92-17.71-17.81,21.77,13.52,13.33c2.37,2.33,6.2,2.33,8.57,0l31.32-30.88c2.37-2.33,2.37-6.12,0-8.45"/>
    <polygon class="cls-2" points="14.89 57.86 17.41 75.99 13.03 80.42 14.89 57.86"/>
  </g>
  <path class="cls-1" d="M337.69,22.71v1.41h-2.77v8.25h-1.62v-8.25h-2.79v-1.41h7.19Z"/>
  <path class="cls-1" d="M343.88,28.32l2.79-5.6h1.55v9.67h-1.57v-6.47l-2.21,4.61h-1.15l-2.17-4.57v6.43h-1.57v-9.67h1.54l2.79,5.6Z"/>
</svg>