<?xml version="1.0" encoding="utf-8"?>
<!-- Generator: Adobe Illustrator 28.0.0, SVG Export Plug-In . SVG Version: 6.00 Build 0)  -->
<svg version="1.1" id="Layer_1" xmlns="http://www.w3.org/2000/svg" xmlns:xlink="http://www.w3.org/1999/xlink" x="0px" y="0px"
	 viewBox="0 0 400 70.4" style="enable-background:new 0 0 400 70.4;" xml:space="preserve">
<style type="text/css">
	.st0{fill:#364248;}
</style>
<path class="st0" d="M37.4,62.4c0.3,0,0.4,0,0.4-0.3c0-0.3-0.2-0.3-0.4-0.3h-0.3v0.5H37.4z M37.2,63.4h-0.3v-1.8h0.7
	c0.4,0,0.7,0.1,0.7,0.5c0,0.3-0.2,0.5-0.4,0.5l0.5,0.7h-0.3l-0.4-0.7h-0.5V63.4z M37.4,63.7c0.7,0,1.2-0.5,1.2-1.3
	c0-0.7-0.5-1.3-1.2-1.3c-0.7,0-1.2,0.5-1.2,1.3C36.2,63.3,36.7,63.7,37.4,63.7z M35.9,62.5c0-0.9,0.7-1.5,1.6-1.5
	c0.8,0,1.6,0.6,1.6,1.5S38.4,64,37.5,64C36.6,64,35.9,63.4,35.9,62.5z"/>
<path class="st0" d="M47.8,21.8V0H35.9v33.7L47.8,21.8z"/>
<path class="st0" d="M36.6,34.4h22.8V22.5H48.4L36.6,34.4z"/>
<path class="st0" d="M48.4,47.8h22V35.9H36.6L48.4,47.8z"/>
<path class="st0" d="M35.9,36.7v22.8h11.9v-11L35.9,36.7z"/>
<path class="st0" d="M34.3,33.7V10.9H22.6v10.9L34.3,33.7z"/>
<path class="st0" d="M21.9,22.5H0v11.9h33.7L21.9,22.5z"/>
<path class="st0" d="M33.7,35.9H10.9v11.9h11L33.7,35.9z"/>
<path class="st0" d="M22.6,48.5v21.8h11.8V36.7L22.6,48.5z"/>
<path class="st0" d="M82.2,9.8c0-3.4-0.2-4.3-2.2-4.4l-1.5-0.1c-0.1-0.1-0.1-0.2-0.2-0.3c0-0.1-0.1-0.2,0-0.3c0-0.1,0-0.2,0.1-0.3
	c0-0.1,0.1-0.2,0.2-0.2c2.5-0.2,5.6-0.4,9.9-0.4C91.3,3.8,94,4,96.1,5c1.1,0.5,2,1.3,2.6,2.3c0.6,1,0.9,2.2,0.9,3.4
	c0,3.3-1.9,5-4.7,6.3c0,0.5,0.4,0.6,0.9,0.7c1.8,0.3,3.3,1.3,4.5,2.7c1.1,1.4,1.7,3.1,1.7,4.9c0,5.3-3.9,8.9-12.2,8.9
	c-1.3,0-3.6-0.1-5.5-0.1s-3.6,0.1-5.3,0.1c-0.1-0.2-0.2-0.3-0.3-0.6c0-0.2,0-0.4,0.2-0.6l0.8-0.1c2.4-0.4,2.5-0.9,2.5-5.7L82.2,9.8z
	 M85.9,15.9c0,1.3,0,1.4,2.4,1.3c4.7-0.2,7.2-1.6,7.2-5.9c0-4.5-3.3-6.2-6.9-6.2c-0.7,0-1.4,0.1-2.1,0.3c-0.5,0.1-0.6,0.4-0.6,1.2
	L85.9,15.9z M85.9,26.6c0,1.7,0.1,4,1,5c0.9,1,2.2,1.3,3.6,1.3c4.1,0,7.2-1.8,7.2-6.4c0-3.6-1.8-7.8-9.1-7.8c-2.5,0-2.7,0.3-2.7,1.2
	L85.9,26.6z"/>
<path class="st0" d="M114.1,24.6c0.7-0.2,0.8-0.6,0.8-1.3l0-2.1c0-1.7-0.5-4-3.3-4c-1.3,0-2.8,0.6-2.9,2.1c0,0.8-0.1,1.3-0.5,1.6
	c-0.8,0.5-1.7,0.8-2.6,0.9c-0.1,0-0.2,0-0.3,0c-0.1,0-0.2-0.1-0.2-0.1s-0.1-0.1-0.1-0.2c0-0.1,0-0.2,0-0.3c0-2.4,5.2-5.6,8.5-5.6
	c3.3,0,4.9,1.9,4.8,5.3l-0.3,8c-0.1,2.1,0.3,4,2.1,4c0.4,0,0.8-0.1,1.1-0.3c0.2-0.1,0.5-0.3,0.6-0.3c0.1,0,0.3,0.3,0.3,0.6
	c-0.4,0.6-1,1.1-1.7,1.5s-1.4,0.5-2.1,0.6c-0.6,0-1.1-0.1-1.7-0.4c-0.5-0.2-1-0.6-1.3-1.1c-0.2-0.3-0.5-0.6-0.8-0.6
	c-0.6,0.2-1.2,0.5-1.8,0.9c-1,0.7-2.1,1.1-3.3,1.1c-1.2,0.1-2.3-0.3-3.2-1.1c-0.5-0.4-0.8-0.9-1.1-1.5c-0.2-0.6-0.4-1.2-0.4-1.8
	c0-1.8,0.9-2.8,3.8-3.9L114.1,24.6z M111.3,32.7c1-0.1,2-0.5,2.8-1.1c0.5-0.5,0.5-1.2,0.6-2.2l0.1-2.7c0-0.5-0.2-0.6-0.5-0.6
	c-0.6,0.1-1.3,0.2-1.9,0.5c-2.7,0.9-4,1.6-4,3.4c0,0.4,0.1,0.7,0.2,1.1c0.1,0.3,0.4,0.7,0.6,0.9c0.3,0.3,0.6,0.5,0.9,0.6
	C110.5,32.7,110.9,32.7,111.3,32.7"/>
<path class="st0" d="M122.1,42.7c0-0.2,0-0.5,0.1-0.7c0.1-0.2,0.2-0.4,0.4-0.6c0.2-0.2,0.4-0.3,0.6-0.4c0.2-0.1,0.5-0.1,0.7-0.1h0.9
	c0.3,0,0.6-0.1,0.9-0.2c0.3-0.1,0.5-0.4,0.6-0.6c0.9-1.3,1.7-2.7,2.2-4.2c0.2-0.6,0.4-1.3,0.5-2c0-0.9-0.2-1.5-0.8-3.2l-3.6-9.8
	c-0.8-2.2-1.1-3.3-2.7-3.6l-1.2-0.2c-0.3-0.2-0.2-1,0.1-1.2c1.5,0.1,2.8,0.1,4.3,0.1c1.2,0,2.5,0,4-0.1c0.4,0.1,0.4,0.9,0.1,1.2
	l-1.2,0.2c-0.6,0.1-1,0.3-1,0.6c0.3,1.5,0.8,2.9,1.3,4.3l1.5,4.2c0.4,1.1,0.8,2.2,1.3,3.3c0.7-1.1,1.2-2.2,1.7-3.4l1.5-3.6
	c0.7-1.5,1.2-3,1.6-4.6c0-0.3-0.3-0.6-1.1-0.8l-1.4-0.2c-0.3-0.2-0.3-1,0.1-1.2c1.5,0.1,2.8,0.1,4,0.1c1.2,0,2.2,0,3.5-0.1
	c0.1,0.1,0.2,0.1,0.2,0.2c0.1,0.1,0.1,0.2,0.1,0.3c0,0.1,0,0.2,0,0.3c0,0.1-0.1,0.2-0.2,0.3l-0.8,0.1c-1.5,0.3-2.3,1.6-3.9,4.9
	l-2.6,5.3c-1.5,3-4.9,10.1-7.1,15.1c-0.8,1.7-1.9,2.1-2.9,2.1c-0.3,0-0.5,0-0.8-0.1c-0.3-0.1-0.5-0.2-0.7-0.4
	c-0.2-0.2-0.3-0.4-0.4-0.7S122.1,43,122.1,42.7"/>
<path class="st0" d="M146,29c0,3.3,0.1,3.8,1.7,4l1.1,0.1c0.1,0.1,0.1,0.2,0.2,0.3c0,0.1,0,0.2,0,0.3c0,0.1,0,0.2-0.1,0.3
	c0,0.1-0.1,0.2-0.2,0.2c-1.5-0.1-2.8-0.1-4.4-0.1c-1.6,0-3,0-4.4,0.1c-0.1-0.1-0.2-0.2-0.2-0.2c0-0.1-0.1-0.2-0.1-0.3
	c0-0.1,0-0.2,0-0.3c0-0.1,0.1-0.2,0.2-0.3l1.1-0.1c1.7-0.2,1.7-0.7,1.7-4V8.3c0-2.7,0-3-1.4-3.8l-0.5-0.3c-0.1-0.1-0.2-0.3-0.2-0.5
	s0.1-0.3,0.2-0.5c1.7-0.5,3.4-1.2,5-1.9c0.1,0,0.2,0,0.3,0.1c0.1,0,0.1,0.1,0.2,0.2c0,1.4-0.1,3.7-0.1,5.7V29z"/>
<path class="st0" d="M169.5,24.9c0,5.7-3.9,9.9-9.7,9.9c-5.3,0-9.4-3.7-9.4-9.4c0-1.3,0.2-2.6,0.7-3.8c0.5-1.2,1.2-2.3,2.1-3.2
	c0.9-0.9,2-1.7,3.2-2.1c1.2-0.5,2.5-0.7,3.8-0.7c1.2,0,2.5,0.2,3.6,0.7c1.2,0.5,2.2,1.2,3.1,2.1c0.9,0.9,1.6,1.9,2,3.1
	C169.3,22.4,169.5,23.7,169.5,24.9L169.5,24.9z M159.6,16.8c-3,0-5.3,2.9-5.3,7.9c0,4.2,1.9,8.7,5.9,8.7s5.3-4.2,5.3-7.7
	C165.5,21.7,164,16.8,159.6,16.8z"/>
<path class="st0" d="M174.4,21c0-1.8,0-2-1.2-2.8l-0.4-0.3c-0.1-0.1-0.1-0.3-0.1-0.4c0-0.2,0.1-0.3,0.2-0.4c1.6-0.7,3.1-1.4,4.6-2.3
	c0.2,0,0.4,0.1,0.4,0.3v2.7c0,0.2,0,0.4,0.1,0.4c1.6-1.3,3.3-2.8,5-2.8c0.3,0,0.5,0,0.8,0.1c0.2,0.1,0.5,0.2,0.7,0.4
	c0.2,0.2,0.3,0.4,0.5,0.6s0.2,0.5,0.2,0.7c0,0.3,0,0.5-0.1,0.8c-0.1,0.3-0.2,0.5-0.4,0.7c-0.2,0.2-0.4,0.4-0.6,0.5
	c-0.2,0.1-0.5,0.2-0.8,0.2c-0.4,0-0.7-0.1-1-0.3c-0.6-0.4-1.3-0.7-2-0.8c-0.3,0-0.6,0.1-0.9,0.3s-0.5,0.4-0.7,0.7
	c-0.5,0.6-0.6,2-0.6,3.5V29c0,3.3,0.1,3.8,1.8,4l1.6,0.1c0.1,0.1,0.1,0.2,0.2,0.3c0,0.1,0,0.2,0,0.3c0,0.1,0,0.2-0.1,0.3
	c0,0.1-0.1,0.2-0.2,0.2c-2.1-0.1-3.5-0.1-5.1-0.1c-1.6,0-3,0-4.2,0.1c-0.1-0.1-0.2-0.1-0.2-0.2c-0.1-0.1-0.1-0.2-0.1-0.3
	c0-0.1,0-0.2,0-0.3c0-0.1,0.1-0.2,0.2-0.3l0.9-0.1c1.7-0.3,1.7-0.7,1.7-4V21z"/>
<path class="st0" d="M194.5,34.9c-2.5,0.1-5-0.5-7.2-1.7c-0.5-1-1.1-4.3-1.2-6.4c0.2-0.3,0.9-0.4,1.1-0.1c0.7,2.3,2.6,6.9,7.9,6.9
	c3.8,0,5.7-2.5,5.7-5.3c0-2-0.4-4.3-3.8-6.4l-4.3-2.9c-2.3-1.5-5-4.1-5-7.9c0-4.4,3.4-7.9,9.3-7.9c1.4,0,2.9,0.2,4.3,0.6
	c0.5,0.2,1.1,0.3,1.6,0.3c0.5,1.8,0.8,3.7,0.8,5.6c-0.2,0.3-0.9,0.4-1.1,0.1c-0.6-2.2-1.8-5.2-6.2-5.2c-4.4,0-5.4,3-5.4,5.1
	c0,2.7,2.2,4.6,3.9,5.6l3.7,2.3c2.9,1.8,5.7,4.4,5.7,8.8C204.3,31.4,200.5,34.8,194.5,34.9"/>
<path class="st0" d="M222.4,16.2c0.5,0.5,0.7,1.2,0.7,1.8c0,0.8-0.5,1.7-1,1.7c-0.1,0-0.2,0-0.4-0.1c-0.1-0.1-0.2-0.1-0.3-0.2
	c-0.5-0.7-1.2-1.3-2-1.7c-0.8-0.4-1.7-0.7-2.5-0.7c-3.2,0-6.3,2.5-6.3,7.4c0,3.6,2.5,7.8,7.4,7.8c1,0,2-0.2,2.9-0.7
	c0.9-0.5,1.6-1.2,2.2-2.1c0.1,0,0.2,0,0.3,0c0.1,0,0.2,0.1,0.3,0.1c0.1,0.1,0.1,0.1,0.2,0.2c0,0.1,0.1,0.2,0.1,0.3
	c-0.7,1.4-1.8,2.6-3.1,3.4c-1.3,0.8-2.9,1.3-4.5,1.2c-2.3,0.1-4.6-0.8-6.3-2.3c-0.9-0.9-1.6-1.9-2-3.1c-0.5-1.2-0.7-2.4-0.6-3.7
	c0-4.9,3.5-10.2,11.1-10.2C219.7,15.4,221.1,15.7,222.4,16.2"/>
<path class="st0" d="M243.4,24.9c0,5.7-3.9,9.9-9.7,9.9c-5.3,0-9.4-3.7-9.4-9.4c0-1.3,0.2-2.6,0.7-3.8c0.5-1.2,1.2-2.3,2.1-3.2
	c0.9-0.9,2-1.7,3.2-2.1c1.2-0.5,2.5-0.7,3.8-0.7c1.2,0,2.5,0.2,3.6,0.7c1.2,0.5,2.2,1.2,3.1,2.1c0.9,0.9,1.6,1.9,2,3.1
	C243.2,22.4,243.4,23.7,243.4,24.9L243.4,24.9z M233.5,16.8c-3,0-5.3,2.9-5.3,7.9c0,4.2,1.9,8.7,5.9,8.7c4,0,5.3-4.2,5.3-7.7
	C239.4,21.7,237.9,16.8,233.5,16.8z"/>
<path class="st0" d="M252.1,18c-0.8,0-0.8,0.1-0.8,1.1v8.6c0,2.7,0.3,5.1,3.3,5.1c0.4,0,0.8-0.1,1.2-0.2c0.4-0.1,1-0.6,1.2-0.6
	c0.4,0,0.5,0.5,0.5,0.8c-0.6,0.7-1.3,1.2-2.2,1.6c-0.8,0.4-1.7,0.5-2.6,0.5c-3.9,0-4.8-2.2-4.8-4.9V19.3c0-1.2,0-1.3-1-1.3h-1.3
	c-0.1-0.1-0.2-0.3-0.2-0.5c0-0.2,0-0.4,0.1-0.5c1.1-0.3,2-0.8,2.9-1.4c0.8-0.8,1.4-1.7,1.9-2.7c0.2-0.1,0.8-0.1,1,0.2v2.1
	c0,0.8,0,0.9,0.8,0.9h5.1c0.2,0.3,0.4,0.6,0.4,1c0,0.4-0.1,0.7-0.3,1H252.1z"/>
<path class="st0" d="M265.9,18c-0.8,0-0.8,0.1-0.8,1.1v8.6c0,2.7,0.3,5.1,3.3,5.1c0.4,0,0.8-0.1,1.2-0.2c0.4-0.1,1-0.6,1.1-0.6
	c0.4,0,0.5,0.5,0.5,0.8c-0.6,0.7-1.3,1.2-2.2,1.6c-0.8,0.4-1.7,0.5-2.6,0.5c-3.9,0-4.8-2.2-4.8-4.9V19.3c0-1.2,0-1.3-1-1.3h-1.3
	c-0.1-0.1-0.2-0.3-0.2-0.5c0-0.2,0-0.4,0.1-0.5c1.1-0.3,2.1-0.8,2.9-1.4c0.8-0.8,1.4-1.7,1.9-2.7c0.2-0.1,0.8-0.1,1,0.2v2.1
	c0,0.8,0,0.9,0.8,0.9h5.1c0.2,0.3,0.4,0.6,0.4,1c0,0.4-0.1,0.7-0.3,1H265.9z"/>
<path class="st0" d="M278.9,15c0-0.8,0.1-1.5,0.4-2.2c0.3-0.7,0.7-1.3,1.2-1.9c0.5-0.5,1.2-0.9,1.9-1.2c0.7-0.3,1.4-0.4,2.2-0.4
	c2.1,0,4.3,1.3,4.3,3.4c0,0.8-0.4,1.6-0.9,2.2c-0.6,0.6-1.3,1-2.2,1c-0.2,0-0.9,0-0.4-0.8c0.2-0.3,0.4-0.6,0.5-1
	c0.1-0.4,0-0.7-0.1-1.1c-0.2-0.5-0.5-1-1-1.3c-0.4-0.3-1-0.5-1.5-0.5c-0.4-0.1-0.7,0-1.1,0.1c-0.3,0.1-0.7,0.3-1,0.5
	c-0.3,0.2-0.5,0.5-0.7,0.8c-0.2,0.3-0.2,0.7-0.3,1c0,1.5,0.9,2.5,4,4.2c4,2.2,7.5,4.1,10.5,10.2c1-1.2,1.6-2.8,1.5-4.3
	c0-1.1-0.3-2.2-1-3c-0.2-0.3-0.5-0.5-0.7-0.6c-0.3-0.2-0.6-0.3-0.9-0.3c-0.4-0.1-0.8,0-1.2,0.1c-0.4,0.1-0.8,0.3-1.1,0.6
	c-0.1,0.1-0.2,0.1-0.3,0.2c-0.1,0-0.2,0-0.3,0c-0.3-0.1-0.4-0.6-0.3-1.1c0.2-1.5,1.8-2.7,4.1-2.7c0.8,0,1.5,0.1,2.3,0.3
	c0.6,0.1,1.2,0.2,1.8,0.3c0.2,0,0.4,0,0.6-0.1c0.2-0.1,0.4-0.2,0.5-0.4c0,0,0.1-0.2,0.3-0.2c0.1,0,0.2,0,0.3,0.1
	c0.1,0.1,0.2,0.1,0.2,0.2c0,1.7-1,2.7-3.2,3.3c0.5,0.9,0.7,1.9,0.7,3c0,2.2-0.9,4.4-2.4,5.9c1.4,2.5,2.7,3.5,4.9,3.5
	c0.4,0,0.8,0,1.2-0.2c0.2-0.1,0.5-0.1,0.8-0.2c0.2,0,0.3,0.1,0.3,0.3c0,0.9-1.9,1.5-4.4,1.5c-2.4,0-3.6-0.5-5.6-2.3
	c-3,1.8-5,2.4-7.6,2.4c-5.5,0-9.8-3.6-9.8-8.2c0-4.8,3.6-6.6,5.3-7.3C279.4,17.6,278.9,16.5,278.9,15L278.9,15z M281.7,19.9
	c-1.8,0.4-2.7,1.5-2.7,3.7c0,4.7,4,8.8,8.4,8.8c1.6,0,3.2-0.4,4.6-1.3c-0.7-0.8-1.4-1.7-2-2.6l-1-1.4c-1.7-2.6-3.8-4.8-6.3-6.5
	L281.7,19.9z"/>
<path class="st0" d="M296.4,4.8c-0.1-0.1-0.1-0.2-0.1-0.3c0-0.1,0-0.2,0-0.3c0-0.1,0-0.2,0.1-0.3c0.1-0.1,0.1-0.2,0.2-0.2
	c1.2,0.1,3.3,0.1,4.7,0.1c1.3,0,3.6,0,5.2-0.1c0.4,0.1,0.4,0.8,0.1,1.1l-1.1,0.1c-1,0.1-1.5,0.4-1.5,0.8c0,0.5,1,2.9,2.4,6.1
	c2.6,5.7,5.3,11.4,7.9,17.1c1.1-2.3,2.3-4.9,3.5-7.4c0.3-0.6,0.6-1.2,0.8-1.9c-0.1-0.4-0.2-0.8-0.4-1.2c-1.6-3.7-3.3-7.3-5-11
	c-0.7-1.4-1.4-2.4-2.9-2.5l-1.1-0.1c-0.1-0.1-0.1-0.2-0.2-0.3c0-0.1-0.1-0.2,0-0.3c0-0.1,0-0.2,0.1-0.3c0.1-0.1,0.1-0.2,0.2-0.2
	c1.3,0.1,3,0.1,4.9,0.1c2.3,0,4,0,5-0.1c0.3,0.1,0.4,0.8,0.1,1.1l-1.2,0.1c-1.8,0.1-1.8,0.5-1,2.5c1,2.2,2.2,5.1,3.5,8
	c0.9-1.8,1.7-3.5,2.7-6c1.7-3.9,1.4-4.4,0-4.5l-1.4-0.1c-0.3-0.5-0.2-1,0.1-1.1c1.2,0.1,2.6,0.1,4.3,0.1c1.5,0,3.3,0,4.4-0.1
	c0.3,0.1,0.4,0.8,0.1,1.1l-1.3,0.1c-1.9,0.1-2.8,2.2-3.8,4.1c-1,1.7-2.9,5.7-3.6,7.3c-0.2,0.3-0.3,0.7-0.4,1.1
	c0,0.4,0.2,0.8,0.3,1.1c1.5,3.5,3.2,7,4.7,10.4c1.4-3.2,2.8-6.4,4.1-9.7c0.9-2.2,3.3-8.3,3.7-9.1c0.6-1.3,1-2.7,1.4-4.2
	c0-0.6-0.5-1-1.5-1.1l-1.3-0.1c-0.4-0.4-0.3-0.9,0-1.1c1.7,0.1,3,0.1,4.4,0.1c1.7,0,3,0,4.3-0.1c0.4,0.1,0.4,0.8,0.1,1.1L341,4.9
	c-2.3,0.2-2.7,1.6-5.4,8l-3.3,7.7c-2,4.7-3.8,9.1-5.7,14.1c-0.2,0.1-0.4,0.1-0.5,0.1c-0.2,0-0.4,0-0.6-0.1c-1.5-4.1-4.1-9.8-5.5-13
	c-1.6,3.3-4.4,9.2-5.7,13c-0.2,0.1-0.4,0.1-0.5,0.1c-0.2,0-0.5,0-0.7-0.1c-0.8-1.9-2.6-6-3.2-7.4c-2.9-6.4-5.8-12.7-8.7-19.1
	c-0.9-1.9-1.4-3.1-3.3-3.3L296.4,4.8z"/>
<path class="st0" d="M340.6,8.3c0-2.9-0.2-3.3-0.9-3l-1-1c-0.2-0.1-1.7-0.3-1.1-0.3c3.7,0,4.5-1.6,6.1-2.5c0,0,0.1,0,0.2,0
	c0.1,0,0.1,0,0.2,0c0,0,0.1,0.1,0.1,0.1c0,0,0,0.1,0,0.2C344.1,3,344,5.3,344,7.3v9.6c0,0.4,0,0.8,0.2,0.9c1.7-1.5,3.9-2.3,6.2-2.4
	c4.3,0,5.9,2.7,5.9,5.9V29c0,3.3,0.1,3.8,1.7,4l1.2,0.1c0.1,0.1,0.1,0.2,0.2,0.3c0,0.1,0,0.2,0,0.3c0,0.1,0,0.2-0.1,0.3
	c0,0.1-0.1,0.2-0.2,0.2c-1.6-0.1-3-0.1-4.6-0.1s-3,0-4.3,0.1c-0.1-0.1-0.2-0.2-0.2-0.2c0-0.1-0.1-0.2-0.1-0.3c0-0.1,0-0.2,0-0.3
	c0-0.1,0.1-0.2,0.2-0.3l0.9-0.1c1.7-0.3,1.7-0.7,1.7-4v-6.5c0-2.9-1.4-4.9-4.4-4.9c-1.3,0-2.6,0.4-3.6,1.2c-0.8,0.7-1,0.9-1,2.5V29
	c0,3.3,0.1,3.8,1.7,4l0.9,0.1c0.3,0.2,0.2,1-0.1,1.2c-1.4-0.1-2.7-0.1-4.3-0.1c-1.6,0-3,0-4.5,0.1c-0.1-0.1-0.2-0.2-0.2-0.2
	c0-0.1-0.1-0.2-0.1-0.3s0-0.2,0-0.3c0-0.1,0.1-0.2,0.2-0.3l1.1-0.1c1.7-0.2,1.7-0.7,1.7-4L340.6,8.3z"/>
<path class="st0" d="M363.5,21c0-1.8,0-2-1.2-2.8l-0.4-0.3c-0.1-0.1-0.1-0.3-0.1-0.4c0-0.2,0.1-0.3,0.2-0.4c1.6-0.6,3.2-1.4,4.7-2.3
	c0.1,0,0.2,0,0.3,0.1c0.1,0.1,0.1,0.1,0.2,0.2c-0.1,1.6-0.2,3.8-0.2,5.7V29c0,3.3,0.1,3.8,1.7,4l1,0.1c0.1,0.1,0.1,0.2,0.2,0.3
	c0,0.1,0,0.2,0,0.3c0,0.1,0,0.2-0.1,0.3c-0.1,0.1-0.1,0.2-0.2,0.2c-1.4-0.1-2.7-0.1-4.3-0.1c-1.6,0-3,0-4.3,0.1
	c-0.1-0.1-0.2-0.2-0.2-0.2s-0.1-0.2-0.1-0.3c0-0.1,0-0.2,0-0.3c0-0.1,0.1-0.2,0.2-0.3l1-0.1c1.7-0.2,1.7-0.7,1.7-4L363.5,21z
	 M367.3,9.4c0,0.6-0.2,1.2-0.7,1.7c-0.4,0.5-1,0.7-1.7,0.7c-0.6,0-1.2-0.2-1.7-0.7c-0.5-0.4-0.7-1-0.7-1.7c0-0.3,0-0.7,0.2-1
	c0.1-0.3,0.3-0.6,0.5-0.8c0.2-0.2,0.5-0.4,0.8-0.5c0.3-0.1,0.6-0.2,1-0.2c0.3,0,0.6,0.1,0.9,0.2c0.3,0.1,0.5,0.3,0.8,0.5
	c0.2,0.2,0.4,0.5,0.5,0.8S367.3,9.1,367.3,9.4"/>
<path class="st0" d="M377.9,18c-0.8,0-0.8,0.1-0.8,1.1v8.6c0,2.7,0.3,5.1,3.3,5.1c0.4,0,0.8-0.1,1.2-0.2c0.4-0.1,1-0.6,1.1-0.6
	c0.4,0,0.5,0.5,0.5,0.8c-0.6,0.7-1.3,1.2-2.2,1.6c-0.8,0.4-1.7,0.5-2.6,0.5c-3.9,0-4.8-2.2-4.8-4.9V19.3c0-1.2,0-1.3-1-1.3h-1.3
	c-0.1-0.1-0.2-0.3-0.2-0.5c0-0.2,0-0.4,0.1-0.5c1.1-0.3,2-0.8,2.9-1.4c0.8-0.8,1.4-1.7,1.9-2.7c0.2-0.1,0.8-0.1,1,0.2v2.1
	c0,0.8,0,0.9,0.8,0.9h5.1c0.2,0.3,0.4,0.6,0.4,1c0,0.4-0.1,0.7-0.3,1H377.9z"/>
<path class="st0" d="M388.6,22.4c-1.2,0-1.2,0.1-1.2,1.2c0,4.6,2.7,8.6,7.6,8.6c1.5,0,2.8-0.5,4.2-2.2c0.1,0,0.2,0,0.3,0
	c0.1,0,0.2,0,0.3,0.1c0.1,0.1,0.1,0.1,0.2,0.2c0,0.1,0.1,0.2,0.1,0.3c-1.5,3.1-4.8,4.3-7.2,4.3c-1.3,0-2.5-0.2-3.7-0.7
	c-1.2-0.5-2.2-1.3-3-2.3c-1.3-1.7-2-3.8-1.9-6c0-5.6,3.7-10.4,9.2-10.4c3.9,0,6.5,2.7,6.5,5.5c0,0.4,0,0.8-0.2,1.2
	c-0.1,0.3-0.8,0.3-2.7,0.3L388.6,22.4z M391.4,21c3.4,0,4.4-0.2,4.8-0.5c0.1-0.1,0.3-0.3,0.3-0.9c0-1.3-0.9-2.9-3.5-2.9
	c-2.7,0-5,2.5-5.1,4c0,0.1,0,0.2,0.3,0.2H391.4z"/>
<path class="st0" d="M83.7,49.5V54h4.7v-4.5H91v11.7h-2.6v-5.1h-4.7v5.1h-2.6V49.5H83.7z"/>
<path class="st0" d="M110.6,49.5v2.2h-6.2v2.5h5.7v2h-5.7v2.9h6.3v2.2h-8.9V49.5H110.6z"/>
<path class="st0" d="M126.9,49.5l4.4,11.7h-2.7l-0.9-2.6h-4.4l-1,2.6h-2.6l4.4-11.7H126.9z M127.1,56.7l-1.5-4.3l-1.5,4.3H127.1z"/>
<path class="st0" d="M143.5,49.5v9.5h5.7v2.2h-8.3V49.5H143.5z"/>
<path class="st0" d="M158.3,51.7v-2.2h9.6v2.2h-3.5v9.5h-2.6v-9.5H158.3z"/>
<path class="st0" d="M180.4,49.5V54h4.7v-4.5h2.6v11.7h-2.6v-5.1h-4.7v5.1h-2.6V49.5H180.4z"/>
</svg>
