<svg xmlns="http://www.w3.org/2000/svg" width="258.453" height="75.081" viewBox="0 0 258.453 75.081">
  <g id="Group_5087" data-name="Group 5087" transform="translate(-8.444 -9.012)">
    <path id="Path_1" data-name="Path 1" d="M231.709,224.417c.065.014.086.017.012-.006Z" transform="translate(-183.196 -176.742)" fill="none"/>
    <g id="Group_3" data-name="Group 3" transform="translate(104.585 18.522)">
      <g id="Group_1" data-name="Group 1" transform="translate(1.07 1.07)">
        <path id="Path_2" data-name="Path 2" d="M559.443,75.657c3,.313,4.247,1.734,4.247,4.045,0,3.428-2.764,4.554-6.743,4.554h-6.835V67.965h5.943c4.448,0,6.865.934,6.865,4.019,0,2.19-1.345,3.4-3.476,3.574Zm-4.981-1.29h1.982c1.448,0,2.175-.6,2.175-1.814,0-1.177-.8-1.689-2.2-1.689h-1.954Zm0,6.991h1.99c1.875,0,2.786-.51,2.786-1.948,0-1.305-.951-2.146-2.753-2.146h-2.023Z" transform="translate(-550.111 -67.965)" fill="#3b397c"/>
        <path id="Path_3" data-name="Path 3" d="M639.614,91.987a6.063,6.063,0,0,1,1.27-1.02,3.228,3.228,0,0,1,1.614-.436,3.631,3.631,0,0,1,.935.111,3.452,3.452,0,0,1,.734.287l-.391,3.3a2.194,2.194,0,0,0-1.536-.612,2.5,2.5,0,0,0-1.383.481,6.126,6.126,0,0,0-1.307,1.2v7.479h-4.136V90.8h4.136l-.026,1.187Z" transform="translate(-620.106 -86.48)" fill="#3b397c"/>
        <path id="Path_4" data-name="Path 4" d="M697.9,102.771a1.512,1.512,0,0,1-.247-.611h-.07a6.2,6.2,0,0,1-3.3.882c-3.059,0-4.554-1.322-4.554-3.442,0-2.29,1.743-3.811,7.768-4.518v-.371c0-1.067-.389-1.838-1.443-1.838-.882,0-1.312.732-1.563,1.434l-4.127-.287c.532-1.717,1.929-3.489,5.776-3.489,3.3,0,5.5.939,5.5,4.769v5.667c0,.935.065,1.467.4,1.622v.183Zm-.4-5.539c-2.569.309-3.533,1.084-3.533,2.07a1.144,1.144,0,0,0,1.3,1.182,4.366,4.366,0,0,0,2.229-.654Z" transform="translate(-664.675 -86.48)" fill="#3b397c"/>
        <path id="Path_5" data-name="Path 5" d="M779.589,102.771V96.492a4.419,4.419,0,0,0-.383-2.246,1.34,1.34,0,0,0-1.22-.589,3.693,3.693,0,0,0-1.518.361,8.707,8.707,0,0,0-1.616,1.066v7.687h-4.136V90.8h4.136l-.033,1.334h.122a11.52,11.52,0,0,1,2.221-1.159,6.777,6.777,0,0,1,2.367-.445,4.087,4.087,0,0,1,3.186,1.16,5.333,5.333,0,0,1,1.01,3.576v7.5Z" transform="translate(-731.125 -86.48)" fill="#3b397c"/>
        <path id="Path_6" data-name="Path 6" d="M853.892,76.463h4.136v2.795h2.509V81.8h-2.509v4.544c0,1.619.379,2.508,1.34,2.508a2.8,2.8,0,0,0,1.663-.693l.829,2.52a8.051,8.051,0,0,1-3.374.82c-2.953,0-4.594-1.2-4.594-4.414V81.8h-1.519V79.258h1.519Z" transform="translate(-798.127 -74.938)" fill="#3b397c"/>
        <path id="Path_7" data-name="Path 7" d="M915.141,117.974a3.294,3.294,0,0,1-3.392,2.947,3.657,3.657,0,0,1-2.465-.828,4.454,4.454,0,0,1-1.158-3.48,4.331,4.331,0,0,1,1.139-3.283,3.631,3.631,0,0,1,2.494-.877,3.047,3.047,0,0,1,3.31,2.872l-2.148.138c-.162-1.057-.474-1.558-1.177-1.558-.837,0-1.388.78-1.388,2.8,0,2.051.613,2.766,1.376,2.766.747,0,1.133-.664,1.228-1.681Z" transform="translate(-843.874 -104.469)" fill="#3b397c"/>
        <path id="Path_8" data-name="Path 8" d="M957.762,127.773c0,1.883-1.188,3.113-3.492,3.113-2.44,0-3.494-1.316-3.494-3.124,0-2.146,1.378-3.132,3.494-3.132s3.492.986,3.492,3.132Zm-3.48,1.857c.721,0,1.36-.62,1.36-1.856,0-1.321-.686-1.866-1.371-1.866s-1.373.565-1.373,1.866.654,1.856,1.373,1.856Z" transform="translate(-878.871 -114.461)" fill="#3b397c"/>
        <path id="Path_9" data-name="Path 9" d="M1003.239,130.751v-3.194a2.182,2.182,0,0,0-.2-1.115.6.6,0,0,0-.516-.238,1.5,1.5,0,0,0-.687.207,3.119,3.119,0,0,0-.668.524v3.816H999.1v-3.208a2.006,2.006,0,0,0-.21-1.107.6.6,0,0,0-.494-.231,1.4,1.4,0,0,0-.7.206,3.423,3.423,0,0,0-.667.525v3.816H994.96v-5.986h2.067l-.016.671h.052a4.384,4.384,0,0,1,1-.577,3.418,3.418,0,0,1,1.2-.229,2.143,2.143,0,0,1,1.172.284,1.8,1.8,0,0,1,.543.589h.048a4.843,4.843,0,0,1,1.035-.622,3.189,3.189,0,0,1,1.264-.251,1.9,1.9,0,0,1,1.441.519,2.589,2.589,0,0,1,.538,1.855v3.747Z" transform="translate(-915.124 -114.461)" fill="#3b397c"/>
        <path id="Path_10" data-name="Path 10" d="M1067.254,130.751v-3.194a2.173,2.173,0,0,0-.2-1.115.6.6,0,0,0-.516-.238,1.494,1.494,0,0,0-.686.207,3.106,3.106,0,0,0-.67.524v3.816h-2.067v-3.208a2,2,0,0,0-.21-1.107.6.6,0,0,0-.494-.231,1.4,1.4,0,0,0-.7.206,3.408,3.408,0,0,0-.668.525v3.816h-2.068v-5.986h2.068l-.017.671h.052a4.407,4.407,0,0,1,1-.577,3.407,3.407,0,0,1,1.2-.229,2.135,2.135,0,0,1,1.172.284,1.806,1.806,0,0,1,.544.589h.048a4.859,4.859,0,0,1,1.035-.622,3.19,3.19,0,0,1,1.265-.251,1.9,1.9,0,0,1,1.44.519,2.588,2.588,0,0,1,.539,1.855v3.747Z" transform="translate(-967.651 -114.461)" fill="#3b397c"/>
        <path id="Path_11" data-name="Path 11" d="M1124.738,125.382v3.141a2.223,2.223,0,0,0,.188,1.125.744.744,0,0,0,.643.286,2.31,2.31,0,0,0,1.561-.664v-3.888h2.068v5.986h-2.068l.016-.73h-.062a3.553,3.553,0,0,1-.8.546,3.59,3.59,0,0,1-1.5.318,2.138,2.138,0,0,1-1.623-.575,2.673,2.673,0,0,1-.5-1.778v-3.768Z" transform="translate(-1019.915 -115.078)" fill="#3b397c"/>
        <path id="Path_12" data-name="Path 12" d="M1170.177,130.751v-3.14a2.2,2.2,0,0,0-.192-1.123.669.669,0,0,0-.609-.294,1.848,1.848,0,0,0-.76.181,4.3,4.3,0,0,0-.807.533v3.844h-2.068v-5.986h2.068l-.017.667h.061a5.781,5.781,0,0,1,1.111-.58,3.4,3.4,0,0,1,1.183-.223,2.045,2.045,0,0,1,1.594.58,2.67,2.67,0,0,1,.5,1.789v3.752Z" transform="translate(-1055.255 -114.461)" fill="#3b397c"/>
        <path id="Path_13" data-name="Path 13" d="M1209.976,113.738v-1.106h2.068v1.106Zm2.068,7.168h-2.068V114.92h2.068Z" transform="translate(-1091.552 -104.616)" fill="#3b397c"/>
        <path id="Path_14" data-name="Path 14" d="M1228.709,117.6h2.068V119h1.255v1.272h-1.255v2.272c0,.81.19,1.254.67,1.254a1.406,1.406,0,0,0,.831-.346l.414,1.259a4.016,4.016,0,0,1-1.686.41c-1.477,0-2.3-.6-2.3-2.207v-2.642h-.76V119h.76Z" transform="translate(-1106.299 -108.693)" fill="#3b397c"/>
        <path id="Path_15" data-name="Path 15" d="M1259.961,131.893a4.52,4.52,0,0,1-1.148,1.833,2.718,2.718,0,0,1-1.791.579,3.832,3.832,0,0,1-1.006-.128,4.187,4.187,0,0,1-.753-.275l.494-1.287a1.935,1.935,0,0,0,.438.272,1.637,1.637,0,0,0,.631.137.8.8,0,0,0,.609-.277,2.32,2.32,0,0,0,.434-.8l.193-.784-2.776-5.783h2.366l.632,1.8a17.711,17.711,0,0,1,.652,2.011H1259c.144-.825.3-1.439.454-2.031l.43-1.777h2.179Z" transform="translate(-1128.712 -115.078)" fill="#3b397c"/>
        <path id="Path_16" data-name="Path 16" d="M751.3,165.982h-2.9v-4.616H744.79v4.616h-2.9v-10.86h2.9v4.319H748.4v-4.319h2.9Z" transform="translate(-707.471 -139.48)" fill="#3b397c"/>
        <path id="Path_17" data-name="Path 17" d="M804.1,174.91c.152,1.473.688,2.042,1.481,2.042A1.439,1.439,0,0,0,806.9,176l2.885.119a3.89,3.89,0,0,1-1.356,1.6,4.911,4.911,0,0,1-2.866.787,4.518,4.518,0,0,1-3.1-.974,4.039,4.039,0,0,1-1.194-3.225,4.1,4.1,0,0,1,1.228-3.168,4.513,4.513,0,0,1,3.052-.975,4.09,4.09,0,0,1,2.933,1.015,4.942,4.942,0,0,1,1.3,3.729Zm2.843-1.335c-.2-1.282-.726-1.855-1.412-1.855s-1.267.48-1.436,1.855Z" transform="translate(-756.194 -151.824)" fill="#3b397c"/>
        <path id="Path_18" data-name="Path 18" d="M859.169,178.327a1,1,0,0,1-.165-.407h-.046a4.144,4.144,0,0,1-2.2.588c-2.039,0-3.036-.882-3.036-2.3,0-1.527,1.163-2.54,5.179-3.013v-.247c0-.712-.259-1.226-.962-1.226-.588,0-.875.489-1.042.956l-2.751-.191c.354-1.144,1.286-2.326,3.851-2.326,2.2,0,3.665.626,3.665,3.18v3.777c0,.624.044.979.265,1.082v.122Zm-.264-3.693c-1.712.2-2.355.723-2.355,1.38a.763.763,0,0,0,.869.788,2.909,2.909,0,0,0,1.486-.436Z" transform="translate(-799.234 -151.824)" fill="#3b397c"/>
        <path id="Path_19" data-name="Path 19" d="M909.768,165.776V154.871h2.757v10.905Z" transform="translate(-845.221 -139.274)" fill="#3b397c"/>
        <path id="Path_20" data-name="Path 20" d="M934.741,160.789H937.5v1.863h1.673v1.7H937.5v3.03c0,1.079.253,1.671.893,1.671a1.87,1.87,0,0,0,1.109-.461l.552,1.679a5.359,5.359,0,0,1-2.249.548c-1.969,0-3.063-.8-3.063-2.943v-3.523h-1.012v-1.7h1.012Z" transform="translate(-864.882 -144.13)" fill="#3b397c"/>
        <path id="Path_21" data-name="Path 21" d="M980.02,165.776v-4.184a2.974,2.974,0,0,0-.256-1.5.891.891,0,0,0-.81-.389,2.447,2.447,0,0,0-1.016.241,5.847,5.847,0,0,0-1.078.71v5.125H974.1V154.871h2.757v3.813h.064a7.482,7.482,0,0,1,1.477-.772,4.509,4.509,0,0,1,1.578-.3,2.729,2.729,0,0,1,2.124.773,3.562,3.562,0,0,1,.673,2.385v5Z" transform="translate(-898.012 -139.274)" fill="#3b397c"/>
        <path id="Path_22" data-name="Path 22" d="M1032.513,173.376c-.1-.879-.273-1.435-.688-1.435-.547,0-.808.651-.808,2.394s.293,2.4.8,2.4c.426,0,.594-.658.7-1.549l2.783.085a3.22,3.22,0,0,1-3.464,3.24c-2.727,0-3.642-1.892-3.642-4.186,0-2.613,1.282-4.155,3.632-4.155a3.1,3.1,0,0,1,3.438,3.144Z" transform="translate(-942.392 -151.824)" fill="#3b397c"/>
        <path id="Path_23" data-name="Path 23" d="M1077.309,178.327a1.016,1.016,0,0,1-.165-.407h-.047a4.138,4.138,0,0,1-2.2.588c-2.04,0-3.036-.882-3.036-2.3,0-1.527,1.162-2.54,5.179-3.013v-.247c0-.712-.26-1.226-.962-1.226-.588,0-.875.489-1.042.956l-2.75-.191c.354-1.144,1.286-2.326,3.851-2.326,2.2,0,3.665.626,3.665,3.18v3.777c0,.624.043.979.265,1.082v.122Zm-.264-3.693c-1.712.2-2.355.723-2.355,1.38a.763.763,0,0,0,.869.788,2.907,2.907,0,0,0,1.485-.436Z" transform="translate(-978.225 -151.824)" fill="#3b397c"/>
        <path id="Path_24" data-name="Path 24" d="M1128.467,171.137a4.09,4.09,0,0,1,.847-.68,2.158,2.158,0,0,1,1.077-.291,2.463,2.463,0,0,1,.624.074,2.333,2.333,0,0,1,.489.191l-.26,2.2a1.544,1.544,0,0,0-.4-.271,1.5,1.5,0,0,0-.626-.137,1.67,1.67,0,0,0-.923.321,4.059,4.059,0,0,0-.871.8v4.985h-2.758v-7.981h2.758l-.017.791Z" transform="translate(-1022.375 -151.824)" fill="#3b397c"/>
        <path id="Path_25" data-name="Path 25" d="M1162.871,174.91c.152,1.473.689,2.042,1.481,2.042a1.436,1.436,0,0,0,1.317-.95l2.886.119a3.883,3.883,0,0,1-1.357,1.6,4.91,4.91,0,0,1-2.866.787,4.52,4.52,0,0,1-3.1-.974,4.041,4.041,0,0,1-1.195-3.225,4.1,4.1,0,0,1,1.229-3.168,4.514,4.514,0,0,1,3.052-.975,4.088,4.088,0,0,1,2.932,1.015,4.937,4.937,0,0,1,1.3,3.729Zm2.843-1.335c-.2-1.282-.727-1.855-1.412-1.855s-1.267.48-1.436,1.855Z" transform="translate(-1050.577 -151.824)" fill="#3b397c"/>
        <path id="Path_26" data-name="Path 26" d="M1215.734,171.532a.881.881,0,0,0-.866-.742,1.031,1.031,0,0,0-.616.191.54.54,0,0,0-.19.425.934.934,0,0,0,.549.8,8.442,8.442,0,0,0,1.231.6,5.638,5.638,0,0,1,1.425.853,2.173,2.173,0,0,1,.753,1.649,2.236,2.236,0,0,1-.763,1.706,3.608,3.608,0,0,1-2.459.8c-2.034,0-2.963-.939-3.146-2.209l2.153-.093a.98.98,0,0,0,.993.866,1.166,1.166,0,0,0,.784-.265.7.7,0,0,0,.206-.518.85.85,0,0,0-.413-.747c-.268-.17-.592-.335-1.171-.632a6.268,6.268,0,0,1-1.544-.963,2.164,2.164,0,0,1-.777-1.691,1.893,1.893,0,0,1,.732-1.557,3.621,3.621,0,0,1,2.308-.658c1.742,0,2.695.887,2.887,2.115Z" transform="translate(-1092.926 -151.158)" fill="#36387b"/>
        <path id="Path_27" data-name="Path 27" d="M1254.053,188.795a4.505,4.505,0,0,1-1.15,1.833,2.713,2.713,0,0,1-1.791.578,3.871,3.871,0,0,1-1.005-.128,4.286,4.286,0,0,1-.753-.275l.494-1.288a1.915,1.915,0,0,0,.44.272,1.627,1.627,0,0,0,.631.137.8.8,0,0,0,.608-.277,2.323,2.323,0,0,0,.434-.8l.194-.784-2.776-5.783h2.366l.632,1.8a17.588,17.588,0,0,1,.654,2.011h.065c.144-.824.3-1.439.453-2.032l.431-1.776h2.181Z" transform="translate(-1123.863 -161.768)" fill="#36387b"/>
        <path id="Path_28" data-name="Path 28" d="M1292.782,183.2a.6.6,0,0,0-.571-.524.674.674,0,0,0-.4.11.442.442,0,0,0-.139.347.529.529,0,0,0,.322.433,5.361,5.361,0,0,0,.976.38,3.288,3.288,0,0,1,1.355.724,1.571,1.571,0,0,1,.462,1.177,1.7,1.7,0,0,1-.675,1.371,3.1,3.1,0,0,1-1.934.568,3.268,3.268,0,0,1-1.668-.371,2.059,2.059,0,0,1-.913-1.222l1.924-.086a.627.627,0,0,0,.613.535.547.547,0,0,0,.418-.159.607.607,0,0,0,.124-.411.6.6,0,0,0-.294-.468,4.114,4.114,0,0,0-1.042-.4,2.769,2.769,0,0,1-1.248-.71,1.659,1.659,0,0,1-.43-1.117,1.624,1.624,0,0,1,.74-1.375,3.008,3.008,0,0,1,1.778-.468,2.8,2.8,0,0,1,1.738.516,1.662,1.662,0,0,1,.667,1.069Z" transform="translate(-1156.885 -161.15)" fill="#36387b"/>
        <path id="Path_29" data-name="Path 29" d="M1322.326,174.5h2.067v1.4h1.255v1.271h-1.255v2.272c0,.81.19,1.254.67,1.254a1.4,1.4,0,0,0,.832-.347l.414,1.26a4.014,4.014,0,0,1-1.687.41c-1.476,0-2.3-.6-2.3-2.207v-2.643h-.76V175.9h.76Z" transform="translate(-1183.115 -155.38)" fill="#36387b"/>
        <path id="Path_30" data-name="Path 30" d="M1352.347,185.09c.114,1.1.516,1.532,1.112,1.532a1.078,1.078,0,0,0,.989-.712l2.164.09a2.929,2.929,0,0,1-1.017,1.2,3.681,3.681,0,0,1-2.149.59,3.389,3.389,0,0,1-2.324-.73,3.029,3.029,0,0,1-.9-2.419,3.072,3.072,0,0,1,.921-2.375,3.386,3.386,0,0,1,2.289-.731,3.066,3.066,0,0,1,2.2.762,3.705,3.705,0,0,1,.974,2.8Zm2.133-1c-.152-.962-.545-1.392-1.059-1.392s-.949.359-1.077,1.392Z" transform="translate(-1206.629 -161.15)" fill="#36387b"/>
        <path id="Path_31" data-name="Path 31" d="M1399.183,187.653v-3.194a2.184,2.184,0,0,0-.2-1.115.6.6,0,0,0-.516-.238,1.5,1.5,0,0,0-.687.206,3.191,3.191,0,0,0-.669.524v3.816h-2.068v-3.208a1.987,1.987,0,0,0-.21-1.107.6.6,0,0,0-.494-.232,1.39,1.39,0,0,0-.7.206,3.357,3.357,0,0,0-.668.524v3.817H1390.9v-5.986h2.069l-.017.67h.053a4.405,4.405,0,0,1,1-.577,3.4,3.4,0,0,1,1.2-.228,2.133,2.133,0,0,1,1.171.283,1.8,1.8,0,0,1,.543.589h.05a4.814,4.814,0,0,1,1.033-.622,3.2,3.2,0,0,1,1.265-.251,1.9,1.9,0,0,1,1.441.519,2.592,2.592,0,0,1,.538,1.855v3.747Z" transform="translate(-1240.009 -161.15)" fill="#36387b"/>
      </g>
      <g id="Group_2" data-name="Group 2">
        <path id="Path_32" data-name="Path 32" d="M553.48,69.693c3,.312,4.246,1.734,4.246,4.044,0,3.428-2.763,4.555-6.743,4.555h-6.835V62h5.943c4.448,0,6.865.934,6.865,4.019,0,2.19-1.345,3.4-3.476,3.574ZM548.5,68.4h1.982c1.448,0,2.175-.6,2.175-1.815,0-1.177-.8-1.689-2.2-1.689H548.5Zm0,6.992h1.99c1.875,0,2.786-.51,2.786-1.948,0-1.306-.951-2.146-2.754-2.146H548.5Z" transform="translate(-544.148 -62.001)" fill="#ffa800"/>
        <path id="Path_33" data-name="Path 33" d="M633.65,86.023A6.077,6.077,0,0,1,634.92,85a3.231,3.231,0,0,1,1.614-.436,3.652,3.652,0,0,1,.936.111,3.5,3.5,0,0,1,.734.288l-.391,3.3a2.194,2.194,0,0,0-1.535-.613,2.5,2.5,0,0,0-1.383.481,6.089,6.089,0,0,0-1.308,1.2v7.478h-4.136V84.836h4.136l-.026,1.187Z" transform="translate(-614.142 -80.516)" fill="#ffa800"/>
        <path id="Path_34" data-name="Path 34" d="M691.94,96.807a1.516,1.516,0,0,1-.247-.611h-.069a6.2,6.2,0,0,1-3.3.882c-3.059,0-4.554-1.323-4.554-3.442,0-2.29,1.743-3.81,7.769-4.518v-.372c0-1.067-.389-1.838-1.443-1.838-.882,0-1.312.733-1.562,1.434l-4.127-.287c.532-1.716,1.929-3.489,5.777-3.489,3.3,0,5.5.939,5.5,4.769V95c0,.935.066,1.467.4,1.623v.183Zm-.4-5.539c-2.569.308-3.533,1.083-3.533,2.07a1.144,1.144,0,0,0,1.3,1.182,4.371,4.371,0,0,0,2.229-.654Z" transform="translate(-658.712 -80.516)" fill="#ffa800"/>
        <path id="Path_35" data-name="Path 35" d="M773.627,96.807V90.527a4.42,4.42,0,0,0-.383-2.246,1.342,1.342,0,0,0-1.221-.589,3.69,3.69,0,0,0-1.517.361,8.689,8.689,0,0,0-1.616,1.066v7.687h-4.136V84.836h4.136l-.032,1.334h.121a11.54,11.54,0,0,1,2.222-1.16,6.779,6.779,0,0,1,2.367-.445,4.09,4.09,0,0,1,3.186,1.16,5.336,5.336,0,0,1,1.009,3.577v7.5Z" transform="translate(-725.163 -80.516)" fill="#ffa800"/>
        <path id="Path_36" data-name="Path 36" d="M847.929,70.5h4.136v2.795h2.509v2.542h-2.509v4.544c0,1.619.379,2.508,1.34,2.508a2.8,2.8,0,0,0,1.663-.693l.829,2.52a8.044,8.044,0,0,1-3.374.82c-2.953,0-4.593-1.2-4.593-4.414V75.837H846.41V73.295h1.519Z" transform="translate(-792.164 -68.975)" fill="#ffa800"/>
        <path id="Path_37" data-name="Path 37" d="M745.339,160.015h-2.9V155.4h-3.611v4.615h-2.9v-10.86h2.9v4.32h3.611v-4.32h2.9Z" transform="translate(-701.508 -133.514)" fill="#ffa800"/>
        <path id="Path_38" data-name="Path 38" d="M798.134,168.946c.152,1.472.688,2.043,1.482,2.043a1.438,1.438,0,0,0,1.317-.951l2.885.12a3.881,3.881,0,0,1-1.357,1.6,4.906,4.906,0,0,1-2.865.787,4.523,4.523,0,0,1-3.1-.974,4.038,4.038,0,0,1-1.195-3.225,4.1,4.1,0,0,1,1.229-3.167,4.514,4.514,0,0,1,3.052-.975,4.088,4.088,0,0,1,2.932,1.015,4.938,4.938,0,0,1,1.3,3.728Zm2.843-1.335c-.2-1.282-.727-1.854-1.411-1.854s-1.267.479-1.436,1.854Z" transform="translate(-750.228 -145.86)" fill="#ffa800"/>
        <path id="Path_39" data-name="Path 39" d="M853.208,172.362a1.017,1.017,0,0,1-.165-.407H853a4.134,4.134,0,0,1-2.2.588c-2.039,0-3.036-.882-3.036-2.3,0-1.527,1.162-2.54,5.179-3.012v-.247c0-.712-.259-1.225-.962-1.225-.588,0-.875.488-1.041.956l-2.752-.191c.354-1.144,1.286-2.326,3.851-2.326,2.2,0,3.665.626,3.665,3.179v3.778c0,.624.044.978.265,1.081v.121Zm-.264-3.693c-1.712.206-2.356.723-2.356,1.381a.763.763,0,0,0,.869.788,2.919,2.919,0,0,0,1.487-.436Z" transform="translate(-793.272 -145.86)" fill="#ffa800"/>
        <path id="Path_40" data-name="Path 40" d="M903.8,159.809V148.9h2.757v10.905Z" transform="translate(-839.258 -133.308)" fill="#ffa800"/>
        <path id="Path_41" data-name="Path 41" d="M928.78,154.822h2.757v1.863h1.673v1.695h-1.673v3.03c0,1.08.253,1.672.893,1.672a1.867,1.867,0,0,0,1.108-.461l.553,1.68a5.366,5.366,0,0,1-2.249.547c-1.969,0-3.063-.8-3.063-2.943V158.38h-1.013v-1.695h1.013Z" transform="translate(-858.92 -138.164)" fill="#ffa800"/>
        <path id="Path_42" data-name="Path 42" d="M974.056,159.809v-4.184a2.969,2.969,0,0,0-.255-1.5.891.891,0,0,0-.809-.389,2.445,2.445,0,0,0-1.016.241,5.812,5.812,0,0,0-1.078.71v5.125h-2.757V148.9H970.9v3.813h.064a7.458,7.458,0,0,1,1.476-.771,4.511,4.511,0,0,1,1.579-.3,2.726,2.726,0,0,1,2.123.773,3.553,3.553,0,0,1,.673,2.385v5Z" transform="translate(-892.048 -133.308)" fill="#ffa800"/>
        <path id="Path_43" data-name="Path 43" d="M1026.549,167.412c-.1-.88-.273-1.435-.688-1.435-.548,0-.809.651-.809,2.394s.294,2.4.8,2.4c.426,0,.593-.658.7-1.549l2.784.085a3.22,3.22,0,0,1-3.464,3.239c-2.727,0-3.643-1.891-3.643-4.186,0-2.613,1.282-4.155,3.631-4.155a3.1,3.1,0,0,1,3.439,3.144Z" transform="translate(-936.428 -145.86)" fill="#ffa800"/>
        <path id="Path_44" data-name="Path 44" d="M1071.344,172.362a1.012,1.012,0,0,1-.166-.407h-.046a4.135,4.135,0,0,1-2.2.588c-2.039,0-3.036-.882-3.036-2.3,0-1.527,1.162-2.54,5.179-3.012v-.247c0-.712-.26-1.225-.962-1.225-.588,0-.874.488-1.041.956l-2.752-.191c.354-1.144,1.287-2.326,3.851-2.326,2.2,0,3.665.626,3.665,3.179v3.778c0,.624.044.978.266,1.081v.121Zm-.264-3.693c-1.713.206-2.356.723-2.356,1.381a.762.762,0,0,0,.868.788,2.926,2.926,0,0,0,1.487-.436Z" transform="translate(-972.26 -145.86)" fill="#ffa800"/>
        <path id="Path_45" data-name="Path 45" d="M1122.5,165.173a4.066,4.066,0,0,1,.847-.68,2.147,2.147,0,0,1,1.075-.291,2.464,2.464,0,0,1,.624.074,2.375,2.375,0,0,1,.49.191l-.26,2.2a1.533,1.533,0,0,0-.4-.271,1.507,1.507,0,0,0-.627-.137,1.669,1.669,0,0,0-.922.32,4.1,4.1,0,0,0-.872.8v4.985H1119.7v-7.98h2.757l-.017.791Z" transform="translate(-1016.408 -145.86)" fill="#ffa800"/>
        <path id="Path_46" data-name="Path 46" d="M1156.913,168.946c.152,1.472.688,2.043,1.481,2.043a1.437,1.437,0,0,0,1.318-.951l2.884.12a3.883,3.883,0,0,1-1.355,1.6,4.913,4.913,0,0,1-2.866.787,4.523,4.523,0,0,1-3.1-.974,4.035,4.035,0,0,1-1.194-3.225,4.093,4.093,0,0,1,1.229-3.167,4.517,4.517,0,0,1,3.052-.975,4.089,4.089,0,0,1,2.932,1.015,4.939,4.939,0,0,1,1.3,3.728Zm2.843-1.335c-.2-1.282-.726-1.854-1.411-1.854s-1.267.479-1.437,1.854Z" transform="translate(-1044.618 -145.86)" fill="#ffa800"/>
      </g>
    </g>
    <g id="Group_5" data-name="Group 5" transform="translate(8.444 9.012)">
      <path id="Path_47" data-name="Path 47" d="M117.375,40.762A43.336,43.336,0,0,0,32.28,52.343H65.4" transform="translate(-28.002 -9.012)" fill="#ffce70"/>
      <path id="Path_48" data-name="Path 48" d="M209.646,197.5a43.365,43.365,0,0,1-1.568-11.582h53.545" transform="translate(-172.25 -154.173)" fill="#ffd27b"/>
      <path id="Path_49" data-name="Path 49" d="M261.623,185.923H208.078a43.332,43.332,0,0,0,86.663,0Z" transform="translate(-172.25 -154.173)" fill="#545692"/>
      <path id="Path_50" data-name="Path 50" d="M335.2,275.845c.777-.154,2.071-.467,3.747-.979l-.024-.023c-.438.136-.877.267-1.316.389C336.812,275.458,336.008,275.666,335.2,275.845Z" transform="translate(-276.561 -227.134)" fill="none"/>
      <path id="Path_51" data-name="Path 51" d="M483.769,218.369c-3.368-1.382-4.995-4.39-6.271-8.106-.544-.971-.3-1.923-2.369-3.618a3.723,3.723,0,0,0-3.786.176l-.037.019c.043.189.083.378.118.57a3.39,3.39,0,0,1,2.941-.513,3.943,3.943,0,0,1,2.082,2.267c1.031,2.5,1.621,4.619,2.987,6.447,2.532,3.819,7.863,4.733,12.623,4.107a51.828,51.828,0,0,0,12.119-3.114,61.872,61.872,0,0,1-9.126,2.278C491.159,219.547,487.065,219.77,483.769,218.369Z" transform="translate(-388.238 -170.797)" fill="none"/>
      <path id="Path_52" data-name="Path 52" d="M263.829,250.221a16.8,16.8,0,0,1-8.176-.325c-3.4-1.087-5.224-4.123-6.482-6.377,1.261,3.284,3.727,6.151,7.168,6.886a18.758,18.758,0,0,0,8.272-.262C263.968,250.269,263.682,250.288,263.829,250.221Z" transform="translate(-205.968 -201.432)" fill="none"/>
      <path id="Path_53" data-name="Path 53" d="M294.442,267.847c3.038.93,6.55.676,10.186-.131-.12-.143-.236-.29-.35-.439C300.784,268.139,297.332,268.543,294.442,267.847Z" transform="translate(-243.115 -220.927)" fill="none"/>
      <path id="Path_54" data-name="Path 54" d="M474.763,217.823c.84.026,1.176.843,1.455,1.448-.225-.617-.453-1.557-1.511-1.648a5.532,5.532,0,0,0-1.767.587c.008.114.014.229.019.345A5.686,5.686,0,0,1,474.763,217.823Z" transform="translate(-389.578 -180.184)" fill="none"/>
      <path id="Path_55" data-name="Path 55" d="M473.65,214.005a1.809,1.809,0,0,1,2.278.555,6.748,6.748,0,0,1,.8,1.594c.387,1.036.7,2.043,1.077,3.033a11.8,11.8,0,0,0,9.612,8.168,23.715,23.715,0,0,0,8.313-.655,33.474,33.474,0,0,0,5.449-1.873c-5.523,1.714-11.881,3.146-17.38.7a11.467,11.467,0,0,1-5.548-6.226c-.577-1.3-.924-2.629-1.587-4.078a2.428,2.428,0,0,0-2.688-1.661,11.09,11.09,0,0,0-1.373.6c.014.115.027.23.038.346C472.972,214.344,473.3,214.171,473.65,214.005Z" transform="translate(-389.298 -176.805)" fill="none"/>
      <path id="Path_56" data-name="Path 56" d="M330.847,277.7c1.077-.18,2.149-.418,3.188-.692A22.907,22.907,0,0,0,330.847,277.7Z" transform="translate(-272.986 -228.912)" fill="none"/>
      <path id="Path_57" data-name="Path 57" d="M274.853,250.878a6.543,6.543,0,0,1-1.384.031c-4.871.582-9.362,1.31-12.279-2.211a14.989,14.989,0,0,1-1.917-2.55,12.833,12.833,0,0,0,.948,2.162C263.32,253.036,269.282,252.212,274.853,250.878Z" transform="translate(-214.258 -203.59)" fill="none"/>
      <path id="Path_58" data-name="Path 58" d="M477.8,231.12l-.017-.036C477.773,231.086,477.783,231.1,477.8,231.12Z" transform="translate(-393.55 -191.229)" fill="none"/>
      <path id="Path_59" data-name="Path 59" d="M233.086,222.666c.065.014.086.017.012-.006Z" transform="translate(-192.77 -184.317)" fill="none"/>
      <path id="Path_60" data-name="Path 60" d="M522.374,212.1c-.758.314-1.519.661-2.279,1.018-3.879,2.289-8.376,4.183-12.534,6.363-1.543.681-3.211,1.5-4.884,2.339a10.161,10.161,0,0,1-3.029.844,97.013,97.013,0,0,0,14.923-7.383,1.955,1.955,0,0,0-.944.335c.027-.165.054-.33.054-.33s-.5.253-1,.5c.555-.573,3.033-1.826,2.069-1.491-2.254.986-4.458,2.088-6.668,3.275l-1.218.422.6-.106-1.207.632q-.689.262-1.384.519l.183-.023c-.28.089-.562.177-.842.265a51.827,51.827,0,0,1-12.119,3.114c-4.759.626-10.091-.289-12.623-4.107-1.366-1.827-1.956-3.948-2.987-6.447a3.943,3.943,0,0,0-2.082-2.267,3.39,3.39,0,0,0-2.941.513c.045.248.084.5.114.751a11.091,11.091,0,0,1,1.373-.6,2.428,2.428,0,0,1,2.688,1.661c.663,1.449,1.01,2.774,1.587,4.078a11.466,11.466,0,0,0,5.548,6.226c5.5,2.443,11.857,1.012,17.38-.7a33.474,33.474,0,0,1-5.449,1.873,23.715,23.715,0,0,1-8.313.655,11.8,11.8,0,0,1-9.612-8.168c-.382-.99-.691-2-1.077-3.033a6.748,6.748,0,0,0-.8-1.594,1.809,1.809,0,0,0-2.278-.555c-.347.166-.679.338-1.014.509.009.106.017.212.024.318a5.532,5.532,0,0,1,1.767-.587c1.058.09,1.286,1.031,1.511,1.648-.279-.6-.615-1.422-1.455-1.448a5.686,5.686,0,0,0-1.8.732c.005.159.012.319.012.48a12.447,12.447,0,0,1-.314,2.766l1.556-.88c.909,2.165,2.326,6.169,5.058,8.484,3.305,2.848,7.545,3.567,11.348,3.448a48.661,48.661,0,0,0,19.608-5.676c3.781-2.084,7.393-4.146,11.359-6.463C521.783,213.191,523.328,211.729,522.374,212.1Zm-49.854,1.224.017.036C472.516,213.338,472.507,213.323,472.52,213.321Z" transform="translate(-388.283 -173.466)" fill="#1b1d66"/>
      <path id="Path_61" data-name="Path 61" d="M67.086,211.2a18.758,18.758,0,0,1-8.272.262c-3.441-.735-5.907-3.6-7.168-6.886,1.259,2.254,3.08,5.29,6.482,6.377a16.8,16.8,0,0,0,8.176.325,22.9,22.9,0,0,1,3.188-.692c.439-.122.878-.253,1.316-.389q-.448-.439-.852-.919c-3.636.807-7.148,1.061-10.186.131,2.89.7,6.342.292,9.836-.57q-.179-.235-.347-.478-.79.154-1.569.267a23.48,23.48,0,0,1-7.35.67c-1.519-.075-3.064-1.4-3.866-2.266a10.668,10.668,0,0,1-2.385-4.308c-.335-.939-.567-1.875-1.078-3.2a5.6,5.6,0,0,0-2.264-2.92,4.24,4.24,0,0,0-3.518-.3,7.682,7.682,0,0,0-1.438.788c-3.447,2.422-6.728,4.772-9.719,7.045-.842.443-1.675.911-2.525,1.327A15.619,15.619,0,0,0,36.616,204a1.264,1.264,0,0,1,.3-.108l.5-.4a44.118,44.118,0,0,0,8.89-5.836,5.228,5.228,0,0,1,1.449-.762,3.5,3.5,0,0,1,2.928.462,5.72,5.72,0,0,1,1.84,2.486c.519,1.2.837,2.155,1.217,3.059a13.764,13.764,0,0,0,2.446,4.2,6.677,6.677,0,0,0,3.8,2.221,4.56,4.56,0,0,1-2.168-.245,8.038,8.038,0,0,1-3.6-4.023c-.439-.936-.81-1.952-1.195-3.036-.534-1.164-.442-2.053-2.032-3.978,1.44,2.019,1.142,2.835,1.536,3.984a15.548,15.548,0,0,0,.927,3.029,14.991,14.991,0,0,0,1.917,2.55c2.917,3.521,7.408,2.793,12.279,2.211a6.543,6.543,0,0,0,1.384-.031c-5.571,1.334-11.533,2.158-14.631-2.568a12.834,12.834,0,0,1-.948-2.162,11.618,11.618,0,0,1-.933-2.083c-.277-.895-.513-1.706-.85-2.53-.435-.722-.483-1.879-2.423-2.595-2.075-.114-2.289.911-2.726,1.108l-1.2,1.145a25.1,25.1,0,0,1-6.391,4.662,29.6,29.6,0,0,0,4.728-3.614c.77-.7,1.5-1.39,2.139-2.022.712-.532.778-1.3,2.721-1.786a4.859,4.859,0,0,0-2.6,1.308c-.538.414-1.116.873-1.724,1.339-1.216.946-2.552,1.975-3.929,2.981a51.946,51.946,0,0,1-8.021,4.973c-5.723,2.459-4.8,2.476-9.989,4.431a65.647,65.647,0,0,1-8.479,2.8,65.679,65.679,0,0,0,9.343-2.217c6.782-2.18,14.3-7.121,15.544-7.935.628-.405-.183.377-3.692,2.646a57.584,57.584,0,0,1-21.542,8.155c1.18.312,13.4-2.653,13.789-3.012.233.109-4.438,1.848-9.289,2.759-4.838.966-9.721,1.252-9.487,1.345.9.414,10.977-.093,12.78-.763.65-.232,1.216-.354,1.367-.652a39.6,39.6,0,0,0,6.491-2.243c5.9-2.638,10.674-6.613,16.392-9.764a19.172,19.172,0,0,0,1.971-1.775c.272-.187.656-.464.952-.661.252.642.507,1.752.766,2.717a14.821,14.821,0,0,0,3.6,7.01A13.1,13.1,0,0,0,62.2,214.9a48.165,48.165,0,0,0,11.9-2.4,12.4,12.4,0,0,1-3.263-2.282C69.158,210.731,67.863,211.044,67.086,211.2ZM48.76,200.837l.012-.006C48.846,200.854,48.825,200.851,48.76,200.837Z" transform="translate(-8.444 -162.488)" fill="#1b1d66"/>
      <path id="Path_62" data-name="Path 62" d="M330.674,277.7c-.147.067.139.048.782-.078.805-.178,1.609-.386,2.406-.614C332.823,277.282,331.751,277.52,330.674,277.7Z" transform="translate(-272.814 -228.912)" fill="#191f69"/>
      <path id="Path_63" data-name="Path 63" d="M470.837,204.821a3.723,3.723,0,0,1,3.786-.176c2.065,1.7,1.826,2.647,2.369,3.618,1.276,3.716,2.9,6.724,6.271,8.106,3.3,1.4,7.39,1.179,11.28.512a61.871,61.871,0,0,0,9.126-2.278c.281-.088.562-.176.842-.265l-.183.023c-1.279.162-2.416.324-3.857.6-3.99.914-8.426,2.292-12.516,2.037a10.721,10.721,0,0,1-7.317-2.965c-1.882-1.91-2.441-4.226-4-7.783a5.309,5.309,0,0,0-1.51-1.838,3.957,3.957,0,0,0-3.929-.275c-.191.1-.353.177-.506.256.039.146.075.294.111.442Z" transform="translate(-387.732 -168.798)" fill="#1b1d66"/>
      <path id="Path_64" data-name="Path 64" d="M267.691,235.512a7.66,7.66,0,0,0,2.387,4.5c1.54,1.177,3.9,1.554,6.587,1.306-2.727.014-4.95-.609-6.3-1.787A7.717,7.717,0,0,1,267.691,235.512Z" transform="translate(-221.165 -194.863)" fill="#191f69"/>
      <path id="Path_65" data-name="Path 65" d="M322.948,262.941c-.056-.083-.109-.169-.164-.254a35.368,35.368,0,0,1-5.087.927,27.763,27.763,0,0,0,3.747-.314q.779-.114,1.569-.267C322.992,263,322.969,262.972,322.948,262.941Z" transform="translate(-262.196 -217.161)" fill="#191f69"/>
      <g id="Group_4" data-name="Group 4" transform="translate(58.632 26.47)">
        <path id="Path_66" data-name="Path 66" d="M385.735,210.505c-1.752.926-3.511,1.843-5.3,2.693a93.394,93.394,0,0,1-10.949,4.633,3.044,3.044,0,0,0-.9.638q.856-.265,1.7-.538a114.466,114.466,0,0,0,13.312-5.73l3.262-1.673a.751.751,0,0,0,.279-.12c-.035-.192-.074-.381-.118-.57Z" transform="translate(-362.578 -200.266)" fill="#ffae00"/>
        <path id="Path_67" data-name="Path 67" d="M386.328,243.872c-.735.359-2.98,1.285-2.508,1.713-3.158,1.363-6.31,2.66-9.557,3.714a12.384,12.384,0,0,0,17.426-8.4l-.411.232C389.676,242.079,387.985,242.937,386.328,243.872Z" transform="translate(-367.242 -225.756)" fill="#ffae00"/>
        <path id="Path_68" data-name="Path 68" d="M342.047,174.069c.907-.479,2.194-.933,2.773-1.175,2.9-1.239,5.774-2.606,8.594-4.069,1.423-.7,2.819-1.464,4.215-2.216.681-.358,1.033-.562,1.84-.975a12.38,12.38,0,1,0-22.37,9.926c1.053-.266,2.109-.57,3.155-.9C340.857,174.5,341.451,174.281,342.047,174.069Z" transform="translate(-335.143 -156.505)" fill="#ffa800"/>
        <path id="Path_69" data-name="Path 69" d="M361.85,260.627c.2-.1.626-.316,1.164-.559-2.351.994-4.7,1.918-7.067,2.651l.024.023C357.61,262.241,359.613,261.549,361.85,260.627Z" transform="translate(-352.213 -241.482)" fill="#ffae00"/>
        <path id="Path_70" data-name="Path 70" d="M354.872,224.487c-1.831.636-3.733,1.233-5.622,1.7.114.149.23.3.35.439a83.815,83.815,0,0,0,10.265-3.212c1.4-.528,2.8-.97,4.245-1.482l1.44-.7a15.868,15.868,0,0,0,1.84-1.031c1.3-.6,2.571-1.262,3.86-1.89.074-.031.146-.064.217-.1,0-.116-.011-.231-.019-.345-.166.075-.337.15-.52.217-1.44.614-2.9,1.365-4.519,2.15,1.737-.91,3.317-1.82,5.015-2.685-.011-.115-.024-.23-.038-.346-.263.137-.5.267-.841.422A132.45,132.45,0,0,1,354.872,224.487Z" transform="translate(-346.718 -206.307)" fill="#ffae00"/>
      </g>
      <path id="Path_71" data-name="Path 71" d="M373.066,222.818c-.072.034-.143.068-.217.1-1.289.628-2.559,1.287-3.86,1.89a15.866,15.866,0,0,1-1.84,1.031l-1.44.7c-1.448.512-2.847.954-4.245,1.482a83.817,83.817,0,0,1-10.265,3.212q.4.481.852.919c2.365-.733,4.716-1.657,7.067-2.651-.539.243-.968.455-1.164.559-2.237.922-4.239,1.614-5.878,2.116a12.4,12.4,0,0,0,3.263,2.282c3.247-1.054,6.4-2.35,9.557-3.714-.472-.428,1.774-1.353,2.508-1.713,1.657-.935,3.348-1.793,4.95-2.739l.411-.232a12.447,12.447,0,0,0,.314-2.766C373.078,223.137,373.071,222.977,373.066,222.818Z" transform="translate(-289.686 -184.447)" fill="#565692"/>
      <path id="Path_72" data-name="Path 72" d="M366.146,214.806a114.466,114.466,0,0,1-13.312,5.73q-.844.272-1.7.538a.3.3,0,0,0-.085.3c-1.247.361-2.5.665-3.731.9q.168.243.347.478c1.889-.466,3.791-1.064,5.622-1.7a132.448,132.448,0,0,0,15.674-6.865c.341-.155.578-.285.841-.422-.031-.253-.069-.5-.114-.751a.751.751,0,0,1-.279.12Z" transform="translate(-286.5 -176.402)" fill="#565692"/>
      <path id="Path_73" data-name="Path 73" d="M449.381,219.66c.183-.067.353-.141.52-.217q-.011-.159-.024-.318c-1.7.865-3.279,1.775-5.015,2.685C446.477,221.026,447.942,220.275,449.381,219.66Z" transform="translate(-366.539 -181.417)" fill="#565692"/>
      <path id="Path_74" data-name="Path 74" d="M384.977,210.566c-2.82,1.464-5.692,2.831-8.594,4.069-.579.243-1.865.7-2.773,1.175a93.394,93.394,0,0,0,10.949-4.633c1.793-.85,3.552-1.768,5.3-2.693l1.28-.667c-.035-.148-.071-.3-.111-.442-.808.412-1.16.617-1.84.975C387.8,209.1,386.4,209.865,384.977,210.566Z" transform="translate(-308.075 -171.776)" fill="#565692"/>
      <path id="Path_75" data-name="Path 75" d="M350.088,255.013a3.044,3.044,0,0,1,.9-.638c-.6.212-1.19.427-1.793.587-1.046.335-2.1.639-3.155.9.055.085.107.171.164.254C347.5,255.792,348.8,255.413,350.088,255.013Z" transform="translate(-285.456 -210.34)" fill="#565692"/>
      <path id="Path_76" data-name="Path 76" d="M350.837,257.93c-1.289.4-2.591.779-3.881,1.108.021.031.044.06.065.091,1.235-.239,2.484-.543,3.731-.9A.3.3,0,0,1,350.837,257.93Z" transform="translate(-286.204 -213.257)" fill="#565692"/>
      <path id="Path_77" data-name="Path 77" d="M12.037,241.3C27.725,244.466,51.5,225.291,51.5,225.291s1.426,28.842,44.371,2.06c1.641-1.023,3.17,28.366,49.759-1.11" transform="translate(-11.392 -186.476)" fill="none" stroke="#fff" stroke-miterlimit="1" stroke-width="2.101"/>
    </g>
  </g>
</svg>
