<svg width="175" height="33" viewBox="0 0 175 33" fill="none" xmlns="http://www.w3.org/2000/svg">
<g clip-path="url(#clip0_1374_7168)">
<path d="M24.58 0H8.09358C3.62362 0 0 3.62137 0 8.08855V24.5648C0 29.032 3.62362 32.6533 8.09358 32.6533H24.58C29.05 32.6533 32.6736 29.032 32.6736 24.5648V8.08855C32.6736 3.62137 29.05 0 24.58 0Z" fill="white"/>
<path d="M4.97167 3.29881C8.39284 6.24426 12.4292 7.93509 16.0583 7.93509C19.9159 7.93509 24.5177 6.08639 27.7892 3.22403L29.4062 1.60383C28.0126 0.559647 26.3176 -0.0045051 24.5758 -0.00390577H8.09355C6.35569 -0.00421272 4.66428 0.556803 3.27148 1.59552L4.97167 3.29881Z" fill="#ED1C24"/>
<path d="M24.4553 16.3275C24.4907 18.1672 24.8817 19.9827 25.6068 21.6741C24.6566 21.1164 23.6674 20.6277 22.6471 20.2118C22.298 18.9462 22.1163 17.6403 22.1067 16.3275C22.1067 13.328 23.1085 10.5321 24.314 8.25137C21.7413 9.51675 18.9248 10.2098 16.0583 10.2828C12.8949 10.2828 9.49863 9.19441 6.3726 7.23355C5.73243 6.81811 5.10473 6.38191 4.49782 5.90416C4.49782 5.90416 3.66643 5.25607 3.22164 4.86556L1.6129 3.25781C0.565502 4.64947 -0.000602802 6.34382 1.08302e-06 8.0852V24.5656C-0.000900064 26.3012 0.560583 27.9904 1.60043 29.3805L3.29646 27.6855C6.37676 24.092 8.21829 19.8545 8.21829 16.3275C8.17599 14.4784 7.77358 12.6553 7.03356 10.96C7.9899 11.526 8.98763 12.019 10.0182 12.4348C10.3687 13.7031 10.5518 15.0117 10.5628 16.3275C10.4939 19.089 9.76865 21.7946 8.44692 24.2208C10.8578 22.9703 13.5217 22.2841 16.237 22.2142C20.3649 22.2142 24.526 24.1252 27.5647 26.273C27.7726 26.4226 27.9763 26.5763 28.1758 26.7341C28.1758 26.7341 29.0072 27.3822 29.452 27.7727L31.0607 29.3805C32.1087 27.9891 32.6748 26.2946 32.6736 24.5531V8.0852C32.6724 6.34928 32.1096 4.66028 31.069 3.27029L29.373 4.96526C26.2927 8.55879 24.4553 12.8004 24.4553 16.3275Z" fill="#ED1C24"/>
<path d="M27.7014 29.3542C24.962 27.0277 20.5431 24.5684 16.2365 24.5684C12.6034 24.5684 8.35911 26.3838 4.8839 29.4248L3.2627 31.045C4.65749 32.0905 6.35373 32.656 8.09722 32.6569H24.5795C26.3166 32.6563 28.0069 32.0937 29.3974 31.0533L27.7014 29.3542Z" fill="#ED1C24"/>
<path d="M12.9609 19.6957C12.9609 19.6957 14.3203 18.117 14.3203 16.3265C14.3203 14.5359 12.9609 12.9531 12.9609 12.9531C12.9609 12.9531 14.5447 14.3074 16.3364 14.3074C18.0657 14.3074 19.7118 12.9531 19.7118 12.9531C19.7118 12.9531 18.3567 14.5359 18.3567 16.3265C18.3567 18.117 19.7118 19.6957 19.7118 19.6957C19.7118 19.6957 18.128 18.3413 16.3364 18.3413C14.6071 18.3413 12.9609 19.6957 12.9609 19.6957Z" fill="white"/>
<path d="M61.0529 21.5069C61.0529 25.5284 58.143 27.8506 53.6328 27.8506H43.918V5.85742H53.5704C57.6234 5.85742 60.2963 7.80583 60.2963 11.578C60.2963 13.7757 59.3527 15.0967 57.5611 16.0065C59.9222 16.7917 61.0529 18.9271 61.0529 21.5069ZM52.9718 10.1323H48.3992V14.5608H53.0965C54.9547 14.5608 55.7694 13.8089 55.7694 12.3299C55.7694 10.7263 54.8591 10.1323 52.9718 10.1323ZM56.4927 21.1289C56.4927 19.5253 55.8318 18.6778 53.508 18.6778H48.4116V23.58H53.5372C55.8318 23.58 56.4927 22.6037 56.4927 21.1289Z" fill="#003A70"/>
<path d="M81.3924 20.3733H68.1276C68.4103 23.1401 70.2934 24.5276 72.6213 24.5276C74.3506 24.5276 75.8595 23.7425 76.4581 22.359H81.1098C79.8211 26.4428 76.3625 28.2333 72.6545 28.2333C67.2505 28.2333 63.5342 24.3988 63.5342 19.2474C63.5342 14.096 67.2754 10.1992 72.5589 10.1992C78.283 10.1951 81.8331 14.6859 81.3924 20.3733ZM68.3479 17.0747H76.6161C76.4164 16.1495 75.8969 15.3242 75.1489 14.7437C74.4008 14.1633 73.472 13.8648 72.5257 13.9008C70.3266 13.9008 68.9133 15.2218 68.3479 17.0747Z" fill="#003A70"/>
<path d="M89.387 5.49594C89.3911 5.85833 89.3204 6.21767 89.1796 6.55163C89.0387 6.88559 88.8306 7.18701 88.5683 7.43716C88.3059 7.68731 87.9948 7.88085 87.6543 8.00572C87.3139 8.1306 86.9514 8.18415 86.5894 8.16305C86.2281 8.18326 85.8664 8.12958 85.5265 8.0053C85.1867 7.88103 84.8758 7.68876 84.6128 7.44027C84.3499 7.19177 84.1404 6.89228 83.9973 6.56011C83.8541 6.22794 83.7803 5.87007 83.7803 5.5084C83.7803 5.14673 83.8541 4.78886 83.9973 4.45668C84.1404 4.12451 84.3499 3.82502 84.6128 3.57653C84.8758 3.32804 85.1867 3.13578 85.5265 3.01151C85.8664 2.88723 86.2281 2.83355 86.5894 2.85376C88.2231 2.83715 89.387 3.93805 89.387 5.49594ZM84.3239 10.585H88.8217V27.8672H84.3239V10.585Z" fill="#003A70"/>
<path d="M135.006 20.3733H121.741C122.024 23.1401 123.907 24.5276 126.235 24.5276C127.964 24.5276 129.473 23.7425 130.071 22.359H134.723C133.434 26.4428 129.976 28.2333 126.268 28.2333C120.864 28.2333 117.147 24.3988 117.147 19.2474C117.147 14.096 120.889 10.1992 126.172 10.1992C131.896 10.1951 135.446 14.6859 135.006 20.3733ZM121.961 17.0747H130.229C130.031 16.1498 129.512 15.3246 128.765 14.7441C128.017 14.1636 127.089 13.865 126.143 13.9008C123.94 13.9008 122.527 15.2218 121.961 17.0747Z" fill="#003A70"/>
<path d="M154.107 17.0128V27.8515H149.609V17.9849C149.609 15.7249 148.778 14.4662 146.371 14.4662C143.822 14.4662 142.471 15.9451 142.471 18.7742V27.8515H137.974V10.5694H142.471V12.9291C143.061 12.0546 143.864 11.3448 144.805 10.8665C145.745 10.3882 146.792 10.1573 147.846 10.1955C151.746 10.1955 154.107 12.7712 154.107 17.0128Z" fill="#003A70"/>
<path d="M174.89 20.3733H161.622C161.904 23.1401 163.791 24.5276 166.119 24.5276C167.849 24.5276 169.358 23.7425 169.952 22.359H174.608C173.319 26.4428 169.861 28.2333 166.148 28.2333C160.744 28.2333 157.032 24.3988 157.032 19.2474C157.032 14.096 160.773 10.1992 166.057 10.1992C171.777 10.1951 175.331 14.6859 174.89 20.3733ZM161.842 17.0747H170.11C169.911 16.1498 169.393 15.3246 168.645 14.7441C167.898 14.1636 166.97 13.865 166.024 13.9008C163.821 13.9008 162.407 15.2218 161.842 17.0747Z" fill="#003A70"/>
<path d="M104.144 17.2363V20.9503H109.07C108.407 21.8942 107.527 22.6648 106.503 23.197C105.479 23.7292 104.342 24.0073 103.188 24.0079C102.609 24.0051 102.033 23.9312 101.472 23.7878L98.4785 27.2234C100.516 28.144 102.78 28.4469 104.988 28.0947C107.197 27.7425 109.254 26.7506 110.904 25.2418V28.2122H114.62V17.2363H104.144Z" fill="#ED1C24"/>
<path d="M103.129 5.43359C96.6525 5.43359 91.685 10.3357 91.685 16.8041C91.6547 18.723 92.1205 20.6173 93.0374 22.3036C93.9542 23.9898 95.2911 25.4111 96.9186 26.4298L99.8284 23.1063C97.646 21.9555 96.2244 19.6582 96.2244 16.8083C96.2244 12.6954 99.18 9.70844 103.142 9.70844C104.396 9.68331 105.632 10.0117 106.708 10.6561C107.785 11.3004 108.658 12.2347 109.227 13.3518H114.078C112.64 8.674 108.383 5.43359 103.129 5.43359Z" fill="#003A70"/>
</g>
<defs>
<clipPath id="clip0_1374_7168">
<rect width="174.929" height="32.6533" fill="white"/>
</clipPath>
</defs>
</svg>
