<svg xmlns="http://www.w3.org/2000/svg" viewBox="0 0 342.44 176.88"><defs><style>.cls-1{fill:#006540;}</style></defs><title>Asset 1</title><g id="Layer_2" data-name="Layer 2"><g id="Layer_1-2" data-name="Layer 1"><path class="cls-1" d="M175.77,67.78c-7.88,0-9.28-2.05-9.28-10.58V33.8h.81c3.06,0,11.41-.18,15.23,1.1,6.11,2.52,10.08,7.77,10.08,15.94,0,11.87-7.66,16.94-16.84,16.94m8.31-36.48v-.22c5.29-1.29,14.25-5.93,14.25-15.43,0-5.4-1.95-9.28-5.61-11.87S184.19,0,177,0H148.79V1.51C157.32,2.7,158,4,158.07,15.65V28.54h8.42V5.61c0-2.16.32-2.59,1-2.91.86-.43,2.38-.54,5.94-.54,12.74,0,15.43,8.2,15.43,14.68,0,9.22-5,14-15,14.12h-31.6l-.17,7.57h1.07c2.84-5.57,8.35-4.74,14.94-4.74V54.5c0,11.66-.86,13-9.93,14.14v1.5h26c7.47-.16,13.74-1.3,18.72-4.09,6.26-3.56,10-9,10-16.62,0-10.9-8.85-16.73-18.78-18.13"/><path class="cls-1" d="M12.59,111.24v12.44c0,2,.58,3.35,6,3.35,4.59,0,8.59-1.6,8.66-7.2,0-6.11-4.3-8.58-10.34-8.58Zm0-2.4h4.59c5.1,0,8.52-1.82,8.52-6.76-.07-5.53-4.37-6.91-9-6.77-3.13,0-4.15.29-4.15,2.18ZM19.22,92.9C28.54,92.83,33,95.52,33,101.49c0,4.15-2.84,7.35-8.52,8.08v.22c4.8.44,10.12,2.84,10.34,9.53.07,7.2-5.46,10-13.76,10.11H0v-2c5.24-.29,5.61-.36,5.61-4.15V99.09c0-3.78-.44-3.86-5.61-4.15v-2Z"/><path class="cls-1" d="M74.18,92.9v9.17h-2c-.8-6-3.57-6.77-9-6.77H57.8c-1.24,0-1.6.51-1.6,1.82v12.15h7.21c4.73,0,5.68-.87,6.19-4.8h2v12h-2c-.51-3.93-1.46-4.8-6.19-4.8H56.2v10.4c0,2.11.37,3.35,1.17,4s3.13.95,6.48.95c4.08,0,6.62-.44,7.93-1.6,1.09-1.09,2-3.64,2.4-5.89h2l-.65,9.89h-32v-2c5.24-.29,5.61-.36,5.61-4.15V99.09c0-3.78-.44-3.86-5.61-4.15v-2Z"/><path class="cls-1" d="M109.05,102.8c-1.38-6.26-4.3-8.37-9.1-8.37-4.37,0-6.84,2.4-6.84,6.11,0,4.58,4.88,5.68,8.3,6.77,4.15,1.31,12.23,3.35,12.23,11.57,0,6.11-4.22,11.42-14.56,11.42-3.79,0-9.1-1-11.94-3.2l-.51-9.82h2c1.67,6.4,4.95,10.62,11,10.62,4.66,0,7.57-2.4,7.57-6.62,0-4.87-4.15-6.33-7.93-7.49-6.12-1.82-12.23-4.37-12.23-10.84S91.8,92,100.61,92c3.93,0,7.86.8,10.48,2.4v8.37Z"/><path class="cls-1" d="M147.13,102.8c-1.38-6.26-4.3-8.37-9.1-8.37-4.37,0-6.84,2.4-6.84,6.11,0,4.58,4.88,5.68,8.3,6.77,4.15,1.31,12.23,3.35,12.23,11.57,0,6.11-4.22,11.42-14.56,11.42-3.79,0-9.1-1-11.94-3.2l-.51-9.82h2c1.67,6.4,4.95,10.62,11,10.62,4.66,0,7.57-2.4,7.57-6.62,0-4.87-4.15-6.33-7.93-7.49-6.12-1.82-12.23-4.37-12.23-10.84S129.87,92,138.68,92c3.93,0,7.86.8,10.48,2.4v8.37Z"/><path class="cls-1" d="M191.68,92.9v9.17h-2c-.8-6-3.57-6.77-9-6.77H175.3c-1.24,0-1.6.51-1.6,1.82v12.15h7.21c4.73,0,5.68-.87,6.19-4.8h2v12h-2c-.51-3.93-1.46-4.8-6.19-4.8H173.7v10.4c0,2.11.36,3.35,1.17,4s3.13.95,6.48.95c4.08,0,6.62-.44,7.93-1.6,1.09-1.09,2-3.64,2.4-5.89h2l-.65,9.89h-32v-2c5.24-.29,5.61-.36,5.61-4.15V99.09c0-3.78-.44-3.86-5.61-4.15v-2Z"/><path class="cls-1" d="M204,129.42v-2l2.33-.22a2.65,2.65,0,0,0,2.62-2.18,48.13,48.13,0,0,0,.36-6.4V99.09c0-3.78-.44-3.86-5.61-4.15v-2h14.12c1.67,4.22,3.42,8.44,5.17,12.66l6,14.33h.22l6.11-14.33c1.82-4.22,3.64-8.44,5.32-12.66h13.83v2c-5.24.29-5.61.36-5.61,4.15v24.15c0,3.78.44,3.86,5.61,4.15v2H236.67v-2c5.1-.29,5.46-.36,5.46-4.15V97.41h-.29l-13.69,32H226l-13.61-32h-.14v21.17a48.16,48.16,0,0,0,.36,6.4c.22,1.45,1.24,2,3.13,2.18l2.55.22v2Z"/><path class="cls-1" d="M294.18,92.9v9.17h-2c-.8-6-3.57-6.77-9-6.77H277.8c-1.24,0-1.6.51-1.6,1.82v12.15h7.21c4.73,0,5.68-.87,6.19-4.8h2v12h-2c-.51-3.93-1.46-4.8-6.19-4.8H276.2v10.4c0,2.11.36,3.35,1.17,4s3.13.95,6.48.95c4.08,0,6.62-.44,7.93-1.6,1.09-1.09,2-3.64,2.4-5.89h2l-.65,9.89h-32v-2c5.24-.29,5.61-.36,5.61-4.15V99.09c0-3.78-.44-3.86-5.61-4.15v-2Z"/><path class="cls-1" d="M322.64,110.14c5,0,7.86-2.26,7.86-7.35,0-6.26-4.44-7.49-8.08-7.49-3.42,0-4.88.29-4.88,2.26v12.59Zm-5.09,2.4v10.7c0,3.78.44,3.86,5.6,4.15v2H305v-2c5.24-.29,5.6-.36,5.6-4.15V99.09c0-3.78-.44-3.86-5.6-4.15v-2h19.66c9.9,0,13.4,4,13.4,9.46,0,5.09-3.79,8.29-9,8.88v.15c5.82,1.31,6.77,4.73,7.5,9.31a11.51,11.51,0,0,0,2.11,5.31,4.89,4.89,0,0,0,3.79,1.38v2h-5.68c-3.35,0-5.32-1.38-6.33-4.29-1.16-3.2-1.53-7.71-2.55-9.89-.8-1.75-2.55-2.69-5.68-2.69Z"/><path class="cls-1" d="M102.78,171.67c0,2.8.32,2.85,5,3.07v1.51H92.67v-1.51c4.68-.21,5-.27,5-3.07V151H94.87c-4.25,0-5.38,1.18-5.86,5.38H87.5v-7.15h25.4v7.15h-1.51c-.48-4.19-1.61-5.38-5.87-5.38h-2.74Z"/><path class="cls-1" d="M135.29,162c3.66,0,5.81-1.67,5.81-5.43,0-4.62-3.28-5.54-6-5.54-2.53,0-3.61.21-3.61,1.67V162Zm-3.77,1.77v7.91c0,2.8.32,2.85,4.14,3.07v1.51H122.21v-1.51c3.88-.21,4.14-.27,4.14-3.07V153.81c0-2.8-.32-2.85-4.14-3.07v-1.51h14.53c7.32,0,9.9,3,9.9,7,0,3.76-2.8,6.13-6.62,6.56v.11c4.3,1,5,3.49,5.54,6.88a8.52,8.52,0,0,0,1.56,3.93,3.61,3.61,0,0,0,2.8,1v1.51h-4.2c-2.47,0-3.93-1-4.68-3.17-.86-2.37-1.13-5.7-1.88-7.31-.59-1.29-1.88-2-4.2-2Z"/><path class="cls-1" d="M188.4,149.24v1.51c-3.82.21-4.14.27-4.14,3.07v12.32c0,4-1.08,6.67-3.07,8.34s-5,2.42-8.88,2.42-6.94-.86-8.88-2.42-3.07-4.36-3.07-8.34V153.81c0-2.8-.32-2.85-4.14-3.07v-1.51h13.45v1.51c-3.87.21-4.14.27-4.14,3.07V166.4c0,5.49,1.83,8.71,6.78,8.71s6.78-3.23,6.78-8.71V153.81c0-2.8-.27-2.85-4.14-3.07v-1.51Z"/><path class="cls-1" d="M213.64,156.56c-1-4.62-3.18-6.18-6.73-6.18-3.23,0-5.06,1.78-5.06,4.52,0,3.39,3.61,4.19,6.14,5,3.07,1,9,2.47,9,8.55,0,4.52-3.12,8.44-10.76,8.44-2.8,0-6.73-.75-8.83-2.37l-.38-7.26h1.51c1.24,4.73,3.66,7.85,8.13,7.85,3.44,0,5.6-1.78,5.6-4.89,0-3.6-3.07-4.68-5.87-5.54-4.52-1.34-9-3.23-9-8s3.5-8.07,10-8.07a15.58,15.58,0,0,1,7.75,1.77v6.18Z"/><path class="cls-1" d="M241.79,171.67c0,2.8.32,2.85,5,3.07v1.51H231.67v-1.51c4.68-.21,5-.27,5-3.07V151h-2.74c-4.25,0-5.38,1.18-5.87,5.38H226.5v-7.15h25.4v7.15H250.4c-.48-4.19-1.61-5.38-5.86-5.38h-2.74Z"/></g></g></svg>