<?xml version="1.0" encoding="utf-8"?>
<!-- Generator: Adobe Illustrator 16.0.0, SVG Export Plug-In . SVG Version: 6.00 Build 0)  -->
<!DOCTYPE svg PUBLIC "-//W3C//DTD SVG 1.1//EN" "http://www.w3.org/Graphics/SVG/1.1/DTD/svg11.dtd">
<svg version="1.1" id="Layer_1" xmlns="http://www.w3.org/2000/svg" xmlns:xlink="http://www.w3.org/1999/xlink" x="0px" y="0px" width="141px" height="60px"
	 viewBox="0 0 792 337" xml:space="preserve">
<linearGradient id="SVGID_1_" gradientUnits="userSpaceOnUse" x1="394.6597" y1="321.9707" x2="394.6597" y2="13.1611">
	<stop  offset="0" style="stop-color:#484749"/>
	<stop  offset="1" style="stop-color:#666666"/>
</linearGradient>
<path fill="url(#SVGID_1_)" d="M74.287,253.215c-4.079,0.346-8.933,0.514-14.841,0.514c-8.29,0-15.268-0.18-20.177-0.516
	c-0.36-0.039-0.553,0.159-0.635,0.281c-0.269,0.396-0.097,1.059,0.075,1.383c0.124,0.232,0.279,0.351,0.462,0.351l-0.041-0.003
	l0.6,0.073c3.349,0.392,5.031,0.591,5.839,1.923c0.844,1.387,0.882,4.063,0.882,9.503v22.197c0,5.404-0.038,8.063-0.882,9.434
	c-0.808,1.312-2.491,1.493-5.844,1.854l-0.591,0.064l0.037-0.001c-0.122,0-0.295,0.055-0.433,0.315
	c-0.161,0.302-0.35,1.08-0.062,1.502c0.136,0.198,0.358,0.297,0.608,0.268c5.663-0.389,13.908-0.438,20.456-0.438
	c3.199,0,6.19,0.129,8.592,0.232c1.725,0.073,3.214,0.139,4.355,0.139c1.345,0,1.977-0.252,2.408-1.809
	c0.455-1.601,1.124-5.105,1.412-6.918c0.035-0.172-0.039-0.354-0.2-0.48c-0.356-0.273-1.289-0.289-1.588-0.143
	c-0.143,0.071-0.228,0.2-0.228,0.346l0.009-0.074c-1.065,4.691-1.618,5.576-12.762,5.576h-3.921c-3.021,0-4.248-0.39-4.248-10.161
	c0,0,0-9.82,0-10.463c0.625,0,7.28,0,7.28,0c6.797,0,6.975,0.911,7.36,2.91l0.004,0.022l0.008,0.023
	c0.086,0.255,0.382,0.334,0.597,0.372c0.04,0.008,0.991,0.173,1.312-0.224c0.107-0.133,0.132-0.307,0.066-0.469l0.023,0.085
	c-0.072-0.567-0.072-2.049-0.072-2.844c0-1.812,0.162-3.492,0.433-4.494l0.052-0.192l-0.14-0.14
	c-0.242-0.243-1.22-0.407-1.611-0.317c-0.249,0.057-0.335,0.211-0.365,0.298l-0.006,0.021l-0.096,0.46
	c-0.15,0.766-0.219,1.115-1.026,1.374c-0.948,0.307-2.843,0.432-6.539,0.432c0,0-6.654,0-7.28,0c0-0.638,0-9.128,0-9.128
	c0-4.983,0.099-7.889,0.329-9.572c0.544,0,6.807,0,6.807,0c9.897,0,10.967,1.022,11.5,3.939l0.005,0.023l0.008,0.026
	c0.167,0.487,1.235,0.497,1.559,0.411c0.385-0.101,0.476-0.379,0.437-0.586l0.003,0.02c-0.072-0.572-0.072-2.059-0.072-2.772
	c0-1.599,0.083-2.856,0.499-4.185l0.153-0.486L74.287,253.215z M99.411,271.049c-0.274,0.385-0.115,1.153,0.052,1.476
	c0.134,0.261,0.309,0.315,0.433,0.315l-0.041-0.002c1.76,0.21,2.623,0.541,2.978,1.141c0.138,0.235,0.208,0.531,0.208,0.905
	c0,0.814-0.333,1.997-1.025,3.697c0,0.002-4.763,11.798-6.046,14.978c-0.574-1.423-6.045-14.976-6.045-14.976
	c-0.73-1.811-1.076-3.015-1.076-3.818c0-0.349,0.065-0.623,0.193-0.839c0.389-0.653,1.501-0.906,3.051-1.088l-0.04,0.002
	c0.099,0,0.283-0.037,0.406-0.287c0.158-0.323,0.265-1.196-0.005-1.546c-0.114-0.149-0.291-0.217-0.469-0.181l0.032-0.004
	c-1.906,0.199-4.317,0.293-7.587,0.293c-2.163,0-6.192,0-7.568-0.216c-0.266-0.033-0.497,0.071-0.648,0.287
	c-0.13,0.187-0.187,0.44-0.187,0.689c0,0.234,0.051,0.464,0.138,0.63c0.111,0.213,0.292,0.334,0.494,0.334l-0.028-0.001
	c3.633,0.29,5.05,1.554,6.887,6.15c0.001,0.001,9.621,23.526,9.621,23.526l-0.009-0.024c0.107,0.332,0.466,0.543,0.96,0.565
	c0.444,0.021,1.034-0.128,1.236-0.607l9.546-23.459c1.786-4.362,3.042-5.862,6.956-6.151l-0.025,0.001
	c0.098,0,0.28-0.036,0.405-0.277c0.163-0.315,0.232-1.045-0.035-1.42c-0.134-0.187-0.34-0.276-0.563-0.244
	c-1.382,0.217-3.552,0.217-5.651,0.217c-2.988,0-3.92-0.071-6.027-0.292C99.729,270.793,99.536,270.875,99.411,271.049z
	 M153.578,269.727l0.002-0.004c-2.633,2.32-6.206,4.799-9.104,6.317c-0.257,0.126-0.469,0.465-0.264,1.021
	c0.141,0.381,0.508,0.91,0.947,0.798l0.013-0.004l0.012-0.004c1.723-0.573,2.694-0.649,3.244-0.252
	c0.635,0.457,0.895,1.68,0.895,4.22v12.431c0,5.337-0.396,5.378-5.242,5.878l0.035-0.003c-0.094,0-0.268,0.037-0.374,0.275
	c-0.121,0.273-0.3,1.296,0.035,1.664c0.132,0.146,0.325,0.196,0.516,0.134l-0.059,0.013c2.053-0.292,5.607-0.292,8.463-0.292
	c2.259,0,5.422,0.078,6.903,0.292l-0.056-0.011c0.195,0.062,0.393,0.009,0.529-0.144c0.33-0.366,0.208-1.307,0.067-1.622
	c-0.121-0.269-0.309-0.31-0.411-0.31l0.033,0.003c-3.734-0.357-4.206-1.015-4.206-5.878c0,0,0-15.63,0-16.013
	c5.474-3.241,7.082-3.769,9.348-3.769c3.775,0,4.987,2.109,4.987,8.684v11.098c0,5.27-0.749,5.527-4.281,5.878l0.034-0.003
	c-0.127,0-0.305,0.058-0.427,0.333c-0.142,0.318-0.306,1.25,0.018,1.607c0.132,0.146,0.325,0.195,0.515,0.133l-0.06,0.014
	c2.125-0.293,4.434-0.293,7.356-0.293c2.395,0,6.686,0.079,8.007,0.291c0.167,0.034,0.345-0.035,0.463-0.188
	c0.282-0.366,0.214-1.317,0.061-1.628c-0.119-0.242-0.312-0.27-0.39-0.27l0.025,0.001c-4.921-0.355-5.086-0.912-5.086-5.876v-14.355
	c0-6.452-2.581-9.589-7.89-9.589c-3.508,0-7.128,1.508-12.782,5.337c-0.085-1.828-0.22-4.015-0.345-5.035l-0.001-0.014l-0.003-0.013
	c-0.098-0.485-0.819-0.925-1.157-0.97C153.78,269.59,153.657,269.647,153.578,269.727z M213.563,302.458
	c-2.061-2.011-5.563-2.969-10.413-2.851l-5.625,0.145c-2.633,0.054-3.809-0.703-4.274-1.16c-0.359-0.353-0.548-0.752-0.548-1.16
	c0-0.728,4.595-2.416,9.09-3.972c5.491-1.876,9.181-6.584,9.181-11.712c0-2.392-0.724-4.612-2.086-6.471
	c2.623,0,3.357,0.005,4.129,0.146c0.137,0.029,0.509,0.051,0.8-0.402c0.556-0.869,0.563-3.083,0.012-3.822
	c-0.2-0.269-0.482-0.374-0.775-0.288c-0.694,0.205-2.94,0.205-6.049,0.205c-1.559,0-2.898-0.224-4.193-0.44
	c-1.324-0.221-2.693-0.448-4.313-0.448c-3.86,0-7.409,1.374-9.996,3.87c-2.423,2.339-3.813,5.505-3.813,8.686
	c0,4.829,2.869,9.065,7.891,11.727c-0.579,0.223-1.237,0.439-1.926,0.667c-2.536,0.836-4.931,1.625-4.931,3.07
	c0,1.38,2.012,4.377,4.791,5.989c-5.12,1.702-8.267,4.969-8.267,8.662c0,4.399,4.867,9.073,13.884,9.073
	c9.209,0,19.509-6.095,19.509-14.254C215.64,305.572,214.941,303.803,213.563,302.458z M191,280.785
	c0-5.225,2.074-7.875,6.166-7.875c3.732,0,7.499,3.351,7.499,10.836c0,4.811-2.085,7.569-5.721,7.569
	C195.645,291.315,191,288.048,191,280.785z M199.238,318.103c-7.61,0-10.311-3.642-10.311-6.76c0-2.787,1.257-4.458,4.474-5.947
	c0.146-0.003,8.808-0.218,8.808-0.218c2.781-0.079,5.094,0.637,6.514,2.018c0.979,0.951,1.497,2.179,1.497,3.553
	C210.219,315.146,205.806,318.103,199.238,318.103z M242.832,295.754l-0.096,0.112C242.759,295.821,242.793,295.785,242.832,295.754
	z M244.033,297.292c-0.002,0.003-0.006,0.008-0.009,0.011c-0.013,0.012-0.025,0.023-0.04,0.035L244.033,297.292z M244.039,282.895
	l0.221-0.771c0.144-0.476,0.307-1.014,0.307-1.49c0-2.397-1.126-4.966-3.013-6.869c-1.563-1.579-4.371-3.459-8.874-3.459
	c-8.467,0-16.472,8.435-16.472,17.355c0,9.004,6.106,15.292,14.849,15.292c4.618,0,9.949-2.322,12.967-5.65
	c-0.013,0.012-0.025,0.023-0.04,0.035l0.049-0.046c-0.002,0.003-0.006,0.008-0.009,0.011c0.138-0.129,0.187-0.326,0.129-0.536
	c-0.108-0.395-0.697-1.062-1.043-1.099c-0.105-0.011-0.203,0.023-0.279,0.086l-0.096,0.112c0.024-0.045,0.058-0.081,0.096-0.112
	l0.003-0.007c-2.597,1.932-5.974,3.041-9.265,3.041c-2.862,0-5.475-1.093-7.356-3.073c-2.224-2.342-3.4-5.895-3.4-10.271
	c0-0.685,0.002-1.387,0.051-2.033C223.466,283.398,244.039,282.895,244.039,282.895z M230.683,273.281
	c4.625,0,7.041,4.329,7.325,7.464c-0.674,0.016-13.989,0.33-14.807,0.35C224.331,276.266,227.167,273.281,230.683,273.281z
	 M257.874,246.807c-2.148,1.941-5.866,3.928-8.857,5.523l-1.065,0.567l-0.023,0.019c-0.181,0.143-0.274,0.359-0.274,0.611
	c0,0.176,0.046,0.367,0.139,0.562c0.193,0.401,0.497,0.609,0.793,0.54l0.014-0.003l0.014-0.005c1.698-0.545,2.662-0.604,3.222-0.197
	c0.65,0.476,0.916,1.679,0.916,4.157v35.668c0,5.326-0.396,5.373-5.248,5.949l0.041-0.002c-0.1,0-0.285,0.037-0.409,0.29
	c-0.158,0.321-0.264,1.191,0.006,1.542c0.115,0.147,0.291,0.215,0.471,0.179l-0.022,0.004c2.12-0.293,5.193-0.293,8.166-0.293
	c2.903,0,6.195,0,8.314,0.293l-0.021-0.004c0.179,0.036,0.355-0.031,0.47-0.179c0.271-0.351,0.165-1.221,0.008-1.542
	c-0.124-0.253-0.31-0.29-0.409-0.29l0.04,0.002c-4.809-0.571-5.097-0.605-5.097-5.949v-35.958c0-3.294,0.089-9.212,0.428-10.497
	c0.116-0.535-0.534-0.912-0.936-1.053C258.173,246.607,257.976,246.687,257.874,246.807z M291.256,279.38
	c0,4.584,4.035,6.891,7.938,9.12c3.452,1.972,6.712,3.834,6.712,7.085c0,3.203-1.582,4.76-4.837,4.76
	c-4.263,0-7.458-3.063-8.995-8.626l-0.053-0.197l-0.198-0.047c-0.011-0.002-1.139-0.227-1.564,0.111
	c-0.12,0.095-0.186,0.227-0.186,0.373c0,1.758,0.043,3.826,0.111,5.396c0.137,3.119,0.302,3.232,0.512,3.337
	c2.706,1.438,6.029,2.261,9.116,2.261c3.225,0,6.178-1.076,8.315-3.03c2.064-1.89,3.201-4.402,3.201-7.077
	c0-4.976-4.328-7.296-8.146-9.344c-3.27-1.754-6.358-3.408-6.358-6.42c0-2.743,1.36-4.317,3.732-4.317
	c3.049,0,6.176,2.946,7.435,7.007l0.009,0.03l0.015,0.028c0.252,0.475,1.595,0.226,1.608,0.223c0.388-0.097,0.447-0.326,0.447-0.452
	c0-2.214-0.426-7.5-1.127-7.916l-0.012-0.01l-0.014-0.005c-1.99-0.956-4.005-1.364-6.737-1.364
	C295.009,270.306,291.256,274.871,291.256,279.38z M290.702,300.696c-0.002-0.001-0.007-0.004-0.007-0.004L290.702,300.696z
	 M324.618,264.626l-0.009,0.01l-0.008,0.009c-2.664,2.919-5.933,6.268-9.997,8.972l0.079-0.039
	c-0.509,0.173-0.291,1.117-0.265,1.226c0.198,0.801,0.661,0.792,0.798,0.771c0.657-0.067,2.588-0.071,4.259-0.071
	c-0.009,0.673-0.289,19.776-0.289,19.776l0,0c-0.041,2.715,0.538,4.642,1.769,5.891c1.184,1.2,2.968,1.783,5.457,1.783
	c1.943,0,6.402-0.955,9.798-3.01l0.019-0.011l0.018-0.016c0.119-0.093,0.373-0.375,0.173-0.942
	c-0.003-0.009-0.315-0.846-0.757-0.846h-0.042l-0.041,0.01c-1.875,0.463-3.815,0.729-5.322,0.729c-1.698,0-2.909-0.393-3.703-1.2
	c-0.814-0.826-1.211-2.095-1.211-3.875c0-0.067,0.001-0.135,0.002-0.202c0,0,0.253-15.62,0.293-18.088c0.585,0,4.543,0,4.543,0
	c2.652,0,4.138,0.065,4.968,0.219c0.184,0.03,0.52,0.007,0.79-0.476c0.476-0.852,0.671-3.195,0.196-3.744
	c-0.137-0.158-0.338-0.211-0.526-0.138l0.021-0.009c-0.909,0.28-3.46,0.28-6.413,0.28c0,0-2.93,0-3.542,0
	c0.04-0.463,0.119-1.375,0.119-1.375c0.147-1.705,0.33-3.825,0.437-4.83l-0.004,0.027c0.03-0.158,0.015-0.456-0.419-0.695
	C325.802,264.758,324.935,264.328,324.618,264.626z M364.729,275.787c-3.708,3.4-5.836,7.945-5.836,12.469
	c0,8.38,6.096,14.697,14.179,14.697c6.343,0,10.927-4.004,12.604-5.728l-0.032,0.029c0.324-0.257,0.298-0.722-0.065-1.215
	c-0.343-0.464-0.727-0.634-1.006-0.445c-2.838,2.104-5.748,3.123-8.908,3.123c-5.097,0-10.241-4.148-10.241-13.424
	c0-7.229,2.497-10.454,8.094-10.454c2.271,0,4.077,0.927,5.67,1.745c1.192,0.611,2.223,1.14,3.21,1.14
	c1.322,0,3.006-3.041,3.006-4.488c0-1.384-2.71-2.931-6.337-2.931C373.675,270.306,368.583,272.251,364.729,275.787z M458.65,300.36
	l-0.039-0.012l-0.04-0.003c-5.815-0.42-7.212-2.576-10.654-11.617c0-0.001-13.685-35.744-13.685-35.744
	c-0.111-0.331-0.482-0.573-0.938-0.605c-0.48-0.034-0.9,0.186-1.097,0.573c-0.007,0.016-16.062,35.759-16.062,35.759
	c-3.625,8.108-5.45,11.205-10.292,11.562l0.026-0.001c-0.128,0-0.306,0.058-0.438,0.335c-0.135,0.291-0.33,1.155,0.004,1.56
	c0.133,0.163,0.331,0.23,0.545,0.19l0,0l0.043-0.008c-0.014,0.003-0.028,0.004-0.043,0.008l0.869-0.105
	c2.269-0.274,2.74-0.333,6.637-0.333c3.096,0,4.808,0.149,7.06,0.438l-0.041-0.008c0.239,0.06,0.463-0.012,0.618-0.198
	c0.298-0.364,0.235-1.116,0.058-1.493c-0.158-0.336-0.392-0.386-0.516-0.386l0.029,0.001c-3.372-0.3-4.422-0.607-4.422-1.953
	c0-2.031,1.322-5.032,3.15-9.187c0.004-0.001,2.058-4.692,2.505-5.714c0.43,0,15.95,0,16.405,0c0.156,0.412,2.141,5.696,2.141,5.696
	l0.444,1.167c1.203,3.146,2.341,6.118,2.341,8.037c0,1.398-0.91,1.556-3.788,1.843l-1.082,0.11l0.037-0.001
	c-0.126,0-0.305,0.058-0.436,0.335c-0.137,0.291-0.333,1.155,0.002,1.56c0.134,0.163,0.331,0.23,0.546,0.19
	c-0.001,0-0.001,0-0.001,0l0.046-0.008c-0.017,0.003-0.03,0.004-0.045,0.008c3.228-0.384,7.326-0.438,11.276-0.438
	c3.271,0,6.278,0.156,8.469,0.438c0.427,0.043,0.741-0.199,0.831-0.632C459.208,301.274,459.049,300.487,458.65,300.36z
	 M423.115,280.735c0.385-0.876,7.188-16.282,7.804-17.679c0.521,1.433,6.121,16.842,6.425,17.679
	C436.459,280.735,424.064,280.735,423.115,280.735z M463.178,279.379c0,4.585,4.034,6.892,7.935,9.121
	c3.451,1.972,6.712,3.834,6.712,7.085c0,3.203-1.581,4.76-4.834,4.76c-4.268,0-7.461-3.063-8.995-8.626l-0.054-0.197l-0.199-0.047
	c-0.01-0.003-1.148-0.222-1.568,0.111c-0.119,0.095-0.186,0.227-0.186,0.373c0,1.764,0.042,3.832,0.112,5.396
	c0.14,3.154,0.309,3.236,0.523,3.342l-0.008-0.005c2.706,1.438,6.029,2.261,9.116,2.261c3.224,0,6.177-1.076,8.312-3.03
	c2.063-1.89,3.197-4.402,3.197-7.077c0-4.976-4.324-7.296-8.143-9.344c-3.268-1.754-6.355-3.408-6.355-6.42
	c0-2.743,1.357-4.317,3.728-4.317c3.046,0,6.175,2.946,7.438,7.007l0.009,0.027l0.012,0.024c0.242,0.479,1.577,0.235,1.591,0.232
	c0.403-0.095,0.464-0.325,0.464-0.455c0-2.214-0.427-7.501-1.127-7.917l-0.014-0.009l-0.014-0.005
	c-1.984-0.956-3.998-1.364-6.731-1.364C466.93,270.306,463.178,274.871,463.178,279.379z M489.382,279.379
	c0,4.585,4.036,6.892,7.939,9.121c3.455,1.972,6.715,3.834,6.715,7.085c0,3.203-1.583,4.76-4.841,4.76
	c-4.26,0-7.453-3.063-8.99-8.629l-0.054-0.195l-0.199-0.046c-0.01-0.003-1.143-0.224-1.563,0.111
	c-0.119,0.095-0.185,0.227-0.185,0.373c0,1.771,0.042,3.84,0.11,5.396c0.135,3.153,0.306,3.236,0.519,3.342l-0.009-0.005
	c2.708,1.438,6.029,2.261,9.112,2.261c3.229,0,6.184-1.076,8.319-3.03c2.064-1.89,3.202-4.402,3.202-7.077
	c0-4.976-4.329-7.296-8.146-9.344c-3.271-1.754-6.36-3.408-6.36-6.42c0-2.743,1.359-4.317,3.728-4.317
	c3.053,0,6.182,2.946,7.442,7.007l0.009,0.026l0.01,0.024c0.239,0.479,1.583,0.236,1.594,0.233c0.405-0.095,0.467-0.325,0.467-0.455
	c0-2.213-0.429-7.499-1.133-7.917l-0.015-0.009l-0.013-0.005c-1.984-0.956-4-1.364-6.736-1.364
	C493.135,270.306,489.382,274.871,489.382,279.379z M542.493,275.114c-3.021-3.102-7.237-4.809-11.87-4.809
	c-11.035,0-16.991,8.678-16.991,16.84c0,4.154,1.554,8.06,4.376,10.996c2.983,3.104,7.174,4.812,11.8,4.812
	c4.921,0,9.373-1.834,12.532-5.165c2.93-3.087,4.61-7.342,4.61-11.675C546.95,281.969,545.366,278.063,542.493,275.114z
	 M537.957,296.779c-1.531,2.137-3.76,3.268-6.445,3.268c-6.912,0-11.204-6.077-11.204-15.86c0-3.03,0.772-5.782,2.175-7.746
	c1.544-2.163,3.796-3.305,6.513-3.305c3.293,0,6.072,1.449,8.035,4.192c2.021,2.821,3.089,6.882,3.089,11.743
	C540.119,292.091,539.351,294.828,537.957,296.779z M556.618,275.787c-3.709,3.4-5.837,7.945-5.837,12.469
	c0,8.38,6.097,14.697,14.181,14.697c6.352,0,10.929-4.004,12.603-5.728l-0.031,0.029c0.319-0.255,0.297-0.715-0.059-1.204
	c-0.269-0.369-0.677-0.683-1.015-0.457c-2.83,2.105-5.74,3.124-8.912,3.124c-5.094,0-10.235-4.149-10.235-13.424
	c0-7.23,2.496-10.454,8.094-10.454c2.276,0,4.081,0.927,5.673,1.746c1.191,0.612,2.218,1.138,3.203,1.138
	c1.322,0,3.011-3.04,3.011-4.487c0-1.384-2.71-2.931-6.337-2.931C565.564,270.306,560.475,272.251,556.618,275.787z
	 M632.559,299.217c-0.167-0.364-0.43-0.782-0.737-0.715l-0.017,0.004l-0.021,0.01c-2.474,0.822-4.099,0.927-4.968,0.317
	c-0.555-0.389-0.841-1.116-0.87-2.224c-0.039-2.091,0.08-5.963,0.196-9.707c0.107-3.515,0.21-6.835,0.174-8.42
	c-0.075-4.967-2.967-8.177-7.37-8.177c-6.868,0-15.599,6.429-15.806,9.625c-0.012,0.082-0.019,0.164-0.019,0.245
	c0,0.354,0.123,0.691,0.357,0.969c0.388,0.459,1.035,0.721,1.78,0.721c2.625,0,5.298-1.702,5.298-3.373
	c0-0.53-0.101-0.892-0.197-1.243c-0.09-0.317-0.172-0.621-0.172-1.056c0-0.76,1.858-1.725,3.948-1.725
	c1.804,0,3.268,0.271,4.117,0.765c1.209,0.702,1.902,2.348,1.902,4.517c0,1.409-0.068,5.008-0.137,7.817
	c-5.963,0.366-10.496,1.354-13.456,2.95c-2.716,1.461-4.094,3.39-4.094,5.73c0,4.012,2.903,6.705,7.226,6.705
	c3.436,0,7.306-1.521,10.26-3.984c0.502,2.613,2.421,4.21,5.135,4.21c2.168,0,4.441-0.934,7.371-3.025
	C632.611,300.042,632.814,299.777,632.559,299.217z M619.648,296.369c-2.348,1.89-4.019,2.568-6.328,2.568
	c-2.814,0-4.243-1.129-4.243-3.353c0-2.447,1.307-5.048,10.843-5.845C619.846,291.892,619.717,294.979,619.648,296.369z
	 M643.351,264.626l-0.008,0.01l-0.009,0.009c-2.666,2.919-5.934,6.267-9.998,8.972l0.079-0.039
	c-0.509,0.173-0.291,1.117-0.265,1.225c0.197,0.802,0.66,0.793,0.797,0.772c0.658-0.067,2.589-0.071,4.262-0.071
	c-0.012,0.673-0.291,19.776-0.291,19.776l0,0c-0.04,2.715,0.538,4.642,1.771,5.891c1.182,1.2,2.968,1.783,5.454,1.783
	c1.944,0,6.403-0.956,9.8-3.01l0.018-0.011l0.018-0.016c0.12-0.093,0.375-0.375,0.175-0.942c-0.005-0.009-0.316-0.846-0.757-0.846
	h-0.043l-0.04,0.01c-1.875,0.463-3.814,0.729-5.323,0.729c-1.696,0-2.908-0.393-3.701-1.199c-0.814-0.827-1.212-2.098-1.212-3.877
	c0-0.067,0.001-0.134,0.002-0.201c0,0,0.284-17.438,0.294-18.088c0.585,0,4.543,0,4.543,0c2.653,0,4.139,0.065,4.969,0.219
	c0.183,0.03,0.52,0.007,0.789-0.476c0.475-0.852,0.671-3.195,0.195-3.744c-0.136-0.158-0.338-0.211-0.526-0.139l0.022-0.008
	c-0.911,0.28-3.459,0.28-6.413,0.28c0,0-2.93,0-3.542,0c0.04-0.462,0.119-1.361,0.119-1.361c0.146-1.711,0.33-3.836,0.438-4.844
	l-0.004,0.027c0.029-0.158,0.014-0.456-0.421-0.695C644.533,264.758,643.668,264.33,643.351,264.626z M633.869,274.895
	c-0.001,0-0.005,0-0.009,0C633.864,274.895,633.866,274.895,633.869,274.895z M706.566,275.114
	c-3.021-3.102-7.238-4.809-11.871-4.809c-11.035,0-16.99,8.678-16.99,16.84c0,4.154,1.553,8.06,4.377,10.996
	c2.981,3.104,7.172,4.812,11.8,4.812c4.921,0,9.371-1.834,12.531-5.165c2.929-3.087,4.609-7.342,4.609-11.675
	C711.022,281.969,709.44,278.063,706.566,275.114z M702.029,296.779c-1.529,2.137-3.758,3.268-6.444,3.268
	c-6.912,0-11.205-6.077-11.205-15.86c0-3.03,0.771-5.782,2.176-7.746c1.543-2.163,3.796-3.305,6.512-3.305
	c3.293,0,6.072,1.449,8.036,4.192c2.02,2.821,3.089,6.882,3.089,11.743C704.192,292.091,703.425,294.828,702.029,296.779z
	 M722.691,269.727l0.002-0.004c-2.632,2.318-6.206,4.799-9.104,6.317c-0.258,0.126-0.47,0.462-0.264,1.021
	c0.139,0.382,0.508,0.911,0.947,0.799l0.011-0.004l0.013-0.004c1.724-0.573,2.693-0.649,3.243-0.252
	c0.638,0.457,0.896,1.68,0.896,4.22v12.431c0,5.337-0.396,5.378-5.242,5.878l0.036-0.003c-0.096,0-0.269,0.037-0.375,0.277
	c-0.12,0.271-0.3,1.294,0.036,1.662c0.132,0.146,0.325,0.196,0.515,0.134l-0.059,0.013c2.055-0.292,5.608-0.292,8.463-0.292
	c2.262,0,5.426,0.078,6.904,0.292l-0.056-0.011c0.196,0.062,0.394,0.009,0.529-0.144c0.328-0.366,0.207-1.307,0.065-1.622
	c-0.119-0.269-0.308-0.31-0.41-0.31l0.031,0.003c-3.733-0.357-4.204-1.015-4.204-5.878c0,0,0-15.631,0-16.014
	c5.475-3.24,7.082-3.768,9.348-3.768c3.775,0,4.986,2.109,4.986,8.684v11.098c0,5.27-0.746,5.527-4.281,5.878l0.035-0.003
	c-0.128,0-0.306,0.058-0.427,0.333c-0.142,0.318-0.306,1.25,0.017,1.607c0.132,0.146,0.326,0.195,0.517,0.133l-0.062,0.014
	c2.126-0.293,4.434-0.293,7.355-0.293c2.396,0,6.69,0.079,8.009,0.291c0.165,0.034,0.345-0.034,0.461-0.188
	c0.284-0.366,0.217-1.317,0.062-1.628c-0.118-0.242-0.312-0.27-0.39-0.27l0.025,0.001c-4.923-0.355-5.086-0.912-5.086-5.876v-14.355
	c0-6.452-2.582-9.589-7.892-9.589c-3.506,0-7.128,1.508-12.781,5.337c-0.087-1.834-0.22-4.021-0.345-5.035l-0.001-0.014
	l-0.002-0.013c-0.099-0.487-0.821-0.925-1.158-0.971C722.894,269.59,722.771,269.647,722.691,269.727z M591.907,269.747
	c-2.207,2.068-6.183,4.291-9.09,5.917l-0.837,0.47l-0.021,0.018c-0.182,0.143-0.271,0.359-0.271,0.608
	c0,0.18,0.048,0.377,0.146,0.577c0.196,0.396,0.501,0.598,0.796,0.522l0.013-0.004l0.011-0.004c1.726-0.576,2.699-0.65,3.248-0.254
	c0.63,0.453,0.889,1.655,0.889,4.15v12.502c0,5.333-0.392,5.38-5.173,5.949l0.04-0.002c-0.1,0-0.285,0.037-0.407,0.29
	c-0.158,0.319-0.264,1.191,0.005,1.541c0.116,0.148,0.291,0.216,0.472,0.18l-0.022,0.004c2.12-0.293,5.411-0.293,8.314-0.293
	c2.938,0,5.971,0,8.092,0.293l-0.021-0.004c0.178,0.036,0.355-0.031,0.469-0.18c0.271-0.35,0.166-1.222,0.007-1.541
	c-0.125-0.253-0.309-0.29-0.408-0.29l0.039,0.002c-4.808-0.571-5.096-0.605-5.096-5.949v-12.802c0-3.113,0.091-9.357,0.43-10.717
	c0.114-0.533-0.54-0.913-0.944-1.055C592.203,269.542,592.007,269.626,591.907,269.747z M587.157,258.842
	c0,1.989,1.649,3.67,3.602,3.67c2.188,0,3.969-1.715,3.969-3.82c0-2.032-1.75-3.75-3.82-3.75
	C588.875,254.941,587.157,256.729,587.157,258.842z M669.785,269.744c-2.211,2.075-6.207,4.31-9.127,5.939l-0.804,0.45l-0.022,0.018
	c-0.178,0.142-0.27,0.357-0.27,0.606c0,0.181,0.051,0.379,0.149,0.58c0.196,0.396,0.501,0.597,0.794,0.521l0.013-0.004l0.012-0.004
	c1.726-0.576,2.695-0.65,3.246-0.254c0.631,0.453,0.887,1.655,0.887,4.15v12.502c0,5.334-0.389,5.381-5.17,5.949l0.04-0.002
	c-0.1,0-0.284,0.037-0.41,0.29c-0.157,0.319-0.264,1.191,0.007,1.541c0.114,0.148,0.292,0.216,0.47,0.18l-0.021,0.004
	c2.118-0.293,5.41-0.293,8.315-0.293c2.936,0,5.969,0,8.089,0.293l-0.021-0.004c0.182,0.036,0.356-0.031,0.471-0.18
	c0.269-0.35,0.164-1.222,0.007-1.541c-0.123-0.253-0.309-0.29-0.408-0.29l0.04,0.002c-4.81-0.572-5.097-0.606-5.097-5.949v-12.802
	c0-3.104,0.089-9.343,0.434-10.717c0.107-0.529-0.535-0.907-0.932-1.05C670.087,269.542,669.888,269.624,669.785,269.744z
	 M665.109,258.816c0,1.988,1.648,3.668,3.599,3.668c2.189,0,3.97-1.713,3.97-3.819c0-2.031-1.748-3.749-3.82-3.749
	C666.827,254.916,665.109,256.702,665.109,258.816z M349.881,269.744c-2.209,2.075-6.206,4.31-9.126,5.939l-0.802,0.45l-0.022,0.018
	c-0.179,0.142-0.27,0.357-0.27,0.606c0,0.181,0.049,0.379,0.148,0.58c0.196,0.396,0.501,0.597,0.794,0.521l0.013-0.004l0.012-0.004
	c1.725-0.576,2.697-0.65,3.247-0.254c0.63,0.453,0.888,1.655,0.888,4.15v12.502c0,5.334-0.391,5.381-5.172,5.949l0.04-0.002
	c-0.099,0-0.285,0.037-0.409,0.29c-0.158,0.321-0.263,1.191,0.008,1.542c0.114,0.147,0.29,0.215,0.469,0.179l-0.021,0.004
	c2.119-0.293,5.41-0.293,8.314-0.293c2.936,0,5.971,0,8.09,0.293l-0.021-0.004c0.179,0.036,0.355-0.031,0.469-0.179
	c0.271-0.351,0.166-1.221,0.009-1.542c-0.125-0.253-0.311-0.29-0.41-0.29l0.041,0.002c-4.81-0.572-5.097-0.606-5.097-5.949v-12.802
	c0-3.104,0.092-9.341,0.434-10.717c0.108-0.53-0.537-0.907-0.934-1.05C350.183,269.542,349.984,269.624,349.881,269.744z
	 M345.204,258.852c0,1.989,1.648,3.669,3.599,3.669c2.189,0,3.969-1.712,3.969-3.818c0-2.032-1.749-3.749-3.82-3.749
	C346.92,254.953,345.204,256.738,345.204,258.852z M279.037,269.731l0-0.002c-2.212,2.078-6.212,4.314-9.132,5.946l-0.815,0.458
	l-0.022,0.018c-0.353,0.28-0.317,0.8-0.125,1.188c0.195,0.396,0.498,0.594,0.792,0.521l0.013-0.003l0.012-0.005
	c1.727-0.574,2.699-0.65,3.249-0.254c0.629,0.453,0.885,1.655,0.885,4.15v12.502c0,5.333-0.39,5.38-5.171,5.949l0.041-0.002
	c-0.098,0-0.283,0.037-0.406,0.288c-0.158,0.321-0.265,1.195,0.006,1.544c0.114,0.147,0.29,0.215,0.469,0.179l-0.021,0.004
	c2.125-0.293,5.413-0.293,8.315-0.293c2.935,0,5.971,0,8.096,0.293l-0.023-0.004c0.18,0.036,0.355-0.031,0.47-0.179
	c0.269-0.349,0.164-1.223,0.005-1.544c-0.124-0.251-0.308-0.288-0.407-0.288l0.041,0.002c-4.813-0.572-5.102-0.606-5.102-5.949
	v-12.802c0-3.104,0.09-9.341,0.435-10.717c0.112-0.554-0.594-0.938-0.983-1.066C279.311,269.552,279.132,269.63,279.037,269.731z
	 M274.341,258.852c0,1.989,1.649,3.669,3.6,3.669c2.189,0,3.97-1.712,3.97-3.818c0-2.032-1.749-3.749-3.82-3.749
	C276.059,254.953,274.341,256.738,274.341,258.852z M141.689,299.204c-0.241-0.52-0.487-0.756-0.73-0.701l-0.017,0.003l-0.02,0.01
	c-2.476,0.822-4.101,0.927-4.969,0.318c-0.556-0.39-0.842-1.117-0.874-2.225c-0.036-2.066,0.082-5.881,0.196-9.57
	c0.109-3.575,0.213-6.953,0.174-8.557c-0.071-4.967-2.961-8.177-7.366-8.177c-6.875,0-15.603,6.429-15.804,9.625
	c-0.013,0.082-0.021,0.164-0.021,0.246c0,0.355,0.123,0.691,0.359,0.972c0.386,0.455,1.033,0.717,1.774,0.717
	c2.627,0,5.304-1.702,5.304-3.373c0-0.53-0.101-0.892-0.197-1.241c-0.088-0.319-0.173-0.623-0.173-1.058
	c0-0.759,1.857-1.725,3.943-1.725c1.809,0,3.273,0.271,4.124,0.765c1.205,0.702,1.896,2.35,1.896,4.517
	c0,1.386-0.063,4.969-0.136,7.817c-5.963,0.366-10.494,1.354-13.453,2.95c-2.716,1.461-4.093,3.39-4.093,5.73
	c0,4.012,2.904,6.705,7.226,6.705c3.431,0,7.3-1.521,10.259-3.983c0.498,2.612,2.416,4.209,5.131,4.209
	c2.171,0,4.446-0.934,7.377-3.025C141.751,300.038,141.952,299.77,141.689,299.204z M129.103,296.741
	c-2.367,1.928-4.208,2.688-6.72,2.688c-2.667,0-4.591-1.034-4.591-3.696c0-2.887,1.67-5.474,11.36-6.219L129.103,296.741z
	 M108.852,131.318c-9.666,6.015-17.348,13.721-22.834,22.905c-5.482,9.183-8.318,18.779-8.428,28.524
	c0.037,10.003,2.556,19.324,7.485,27.714c4.898,8.428,12.08,15.303,21.343,20.432c9.272,5.102,20.613,7.771,33.707,7.928
	c8.082-0.034,15.672-1.15,22.569-3.314c6.859-2.179,14.036-5.317,21.33-9.332l0.651-0.357l-0.564-0.484
	c-1.125-0.964-1.821-2.32-2.126-4.144c-0.306-1.875-0.441-4.06-0.411-6.677v-0.011c-0.09-7.034,0.102-12.169,0.583-15.697
	c0.475-3.41,1.717-5.649,3.794-6.844c2.208-1.265,5.936-2.071,10.777-2.333l0.065-0.002l0.062-0.02
	c1.021-0.322,1.073-1.621,1.09-2.045c0.044-0.671-0.138-1.263-0.514-1.654c-0.286-0.296-0.668-0.454-1.077-0.442l-0.024,0.001
	l-0.025,0.003c-2.944,0.36-6.095,0.613-9.631,0.777c-3.833,0.165-7.603,0.249-11.208,0.249c-4.472,0.023-9.243-0.018-15.017-0.13
	c-5.222-0.116-9.456-0.408-12.941-0.895l-0.03-0.004l-0.031-0.001c-0.67-0.014-1.058,0.265-1.265,0.503
	c-0.342,0.388-0.466,0.96-0.361,1.652c0.172,1.169,0.608,1.864,1.297,2.063l0.057,0.016l0.059,0.003
	c6.337,0.342,10.277,0.936,12.777,1.936c2.507,0.982,4.135,3.157,4.839,6.46c0.724,3.388,1.027,8.481,0.929,15.571
	c0,1.862-0.092,3.869-0.273,5.973c-0.153,2.078-0.389,3.626-0.721,4.738l-0.012,0.037l-0.005,0.04
	c-0.19,1.37-1.871,3.019-4.994,4.899c-3.131,1.917-9.174,2.981-17.964,3.169c-8.216-0.022-15.98-2.142-23.067-6.3
	c-7.148-4.166-13.045-10.468-17.529-18.732c-4.473-8.268-6.814-18.708-6.96-31.028c0.069-10.12,2.041-18.907,5.861-26.105
	c3.814-7.173,9.076-12.736,15.643-16.533c6.309-3.637,13.723-5.405,22.667-5.405c7.448,0,14.646,1.441,19.748,3.954
	c5.655,2.737,10.151,6.275,13.367,10.519c3.186,4.187,4.989,8.58,5.357,13.059l0.006,0.063l0.021,0.061
	c0.23,0.673,1.157,0.839,1.835,0.905c0.989,0.098,2.146-0.243,2.44-1.083l0.021-0.063l0.006-0.066
	c0.301-3.803,0.415-7.25,0.348-10.537c-0.069-3.774-0.228-6.521-0.5-8.645c-0.363-3.241-0.843-4.035-1.175-4.351l-0.022-0.022
	l-0.026-0.02c-1.313-0.971-3.871-2.252-7.603-3.81c-3.671-1.563-8.096-3.001-13.523-4.396c-5.27-1.306-10.724-2.003-16.217-2.074
	C129.872,122.125,118.553,125.289,108.852,131.318z M292.973,72.947c-5.568-4.687-12.831-7.501-21.608-8.394
	c5.636-2.13,10.323-5.242,13.948-9.277c4.165-4.592,6.349-9.593,6.491-14.861v-0.022c-0.103-5.854-1.823-10.853-5.113-14.856
	c-3.304-3.951-7.775-7.079-13.292-9.303c-6.242-2.515-19.679-3.043-29.853-3.043c-2.097,0-4.71,0.093-7.207,0.188
	c-0.003,0-7.709,0.338-7.709,0.338c-2.455,0.104-5.699,0.172-7.19,0.172c-2.02,0.009-3.796,0.057-5.362,0.098
	c-2.326,0.062-4.334,0.116-6.285,0.023c-3.197-0.145-6.239-0.404-9.866-0.842l-0.045-0.006l-0.046,0.003
	c-0.471,0.026-0.922,0.285-1.268,0.726c-0.433,0.551-0.628,1.296-0.51,1.941c0.216,1.079,0.571,1.705,1.085,1.922l0.076,0.032
	l0.083,0.008c5.145,0.423,8.745,1.13,11.006,2.158c2.164,0.979,3.558,3.287,4.144,6.856c0.609,3.743,0.881,9.939,0.809,18.415
	v51.445c0.072,8.471-0.2,14.655-0.809,18.391c-0.584,3.518-1.976,5.775-4.135,6.708c-2.339,0.993-5.862,1.65-10.767,2.003
	l-0.087,0.006l-0.08,0.034c-0.513,0.221-1.122,0.959-1.326,2.113c-0.108,0.64,0.054,1.292,0.443,1.794
	c0.342,0.441,0.83,0.72,1.34,0.762l0.049,0.004l0.05-0.005c7.024-0.771,14.903-0.769,25.268-0.681
	c1.496,0.018,3.598,0.082,6.245,0.19c0.002,0,8.335,0.318,8.335,0.318c2.298,0.102,11.403,0.159,16.293,0.19l2.528,0.018
	l0.008-0.075c13.252-0.25,23.997-3.803,31.937-10.564c7.76-6.609,11.762-15.088,11.896-25.2
	C302.278,84.698,299.089,78.068,292.973,72.947z M278.575,116.431c-4.674,3.826-13.058,5.933-23.001,5.782h-0.02
	c-4.999,0.124-17.702-0.433-19.52-1.319c-1.899-0.963-3.164-3.161-3.751-6.528c-0.539-3.18-0.811-8.046-0.811-14.483
	c0-0.637,0.003-1.288,0.008-1.955V44.425c-0.002-0.573-0.002-1.135-0.002-1.688c0-5.311,0.082-9.732,0.249-13.477
	c0.157-3.541,0.516-6.484,1.094-8.993c0.804-0.364,1.806-0.657,2.807-0.807c0.651-0.1,2.627-0.405,3.903-0.469
	c9.988-0.503,23.189,0.026,29.355,5.409c4.604,4.02,6.903,9.948,7.026,18.124c0.077,7.867-2.202,13.378-6.774,16.383
	c-5.229,3.435-22.217,4.928-32.052,4.857l-0.087-0.001l-0.083,0.028c-0.7,0.24-1.546,1.473-1.546,2.643
	c0,1.261,0.689,2.017,1.369,2.111l0.061,0.009l0.061-0.006c7.897-0.771,24.871-0.144,30.874,2.089
	c5.803,2.197,10.321,5.502,13.428,9.822c3.081,4.285,4.666,9.333,4.709,15.003C285.851,105.405,283.396,112.463,278.575,116.431z
	 M344.068,33.178c-2.225,0.304-4.92,0.517-8.241,0.654c-3.292,0.154-6.473,0.231-9.455,0.231c-4.038,0-7.916-0.057-11.528-0.169
	c-3.674-0.139-6.873-0.374-9.778-0.717l-0.054-0.006l-0.054,0.006c-0.35,0.032-0.656,0.214-0.884,0.525
	c-0.349,0.476-0.485,1.25-0.34,1.927c0.244,1.204,0.51,1.743,0.948,1.916l0.07,0.028l0.077,0.006
	c4.131,0.333,7.179,0.93,9.058,1.771c1.76,0.791,2.9,2.674,3.388,5.599c0.507,3.222,0.714,8.056,0.649,15.209
	c0,0.005,0.074,41.824,0.074,41.824c0.068,6.542-0.157,11.632-0.649,14.722c-0.488,2.899-1.624,4.743-3.376,5.475
	c-1.962,0.854-4.615,1.365-8.61,1.66l-0.078,0.005l-0.072,0.029c-0.471,0.186-1.235,1.046-1.408,2.028
	c-0.126,0.635,0.095,1.502,0.539,2.098c0.291,0.39,0.64,0.614,1.009,0.647l0.055,0.006l0.054-0.007
	c3.436-0.406,6.242-0.619,9.382-0.715c3.703-0.118,7.582-0.172,11.527-0.158h0.002c2.801,0,5.894,0.073,9.455,0.225
	c2.985,0.11,5.755,0.328,8.235,0.647l0.057,0.008l0.056-0.006c0.201-0.018,0.496-0.107,0.763-0.431
	c0.479-0.581,0.66-1.682,0.587-2.424c-0.112-1.064-1.036-1.695-1.628-1.861l-0.053-0.015l-0.057-0.003
	c-4.026-0.226-6.661-0.749-8.542-1.7c-1.696-0.881-2.742-2.815-3.108-5.745c-0.419-3.217-0.58-8.216-0.475-14.861V60.161
	c-0.104-6.653,0.056-11.669,0.475-14.917c0.368-2.954,1.419-4.926,3.124-5.862c1.783-0.926,4.829-1.535,9.043-1.803l0.054-0.003
	l0.052-0.016c0.818-0.228,1.053-1.458,1.115-1.978c0.06-0.55-0.032-1.38-0.481-1.928c-0.23-0.283-0.527-0.447-0.857-0.478
	l-0.059-0.006L344.068,33.178z M395.72,33.148c-2.278,0.279-4.838,0.485-8.055,0.644c-3.347,0.141-6.503,0.209-9.646,0.209
	c-8.177,0.063-14.789-0.209-20.812-0.854l-0.017-0.001l-0.019-0.001c-0.416-0.016-0.784,0.135-1.066,0.435
	c-0.466,0.5-0.567,1.285-0.507,1.853c0.09,0.748,0.338,1.69,1.013,1.982l0.078,0.034l0.083,0.007
	c4.155,0.353,7.19,0.955,9.021,1.788c1.744,0.808,2.857,2.691,3.303,5.595c0.492,3.034,0.692,8.009,0.616,15.214v41.484
	c0.1,6.978-0.084,12.084-0.545,15.187c-0.458,2.896-1.62,4.655-3.551,5.369c-1.667,0.652-4.463,1.54-9.589,1.744
	c-0.736,0.029-1.545,1.276-1.637,2.222c-0.054,0.588,0.07,1.412,0.577,1.967c0.334,0.365,0.785,0.56,1.303,0.56h0.016l0.017-0.001
	c6.035-0.383,11.711-0.599,18.403-0.7c7.223-0.112,14.503-0.167,22.258-0.167c3.476,0.025,4.131,0.08,5.318,0.178
	c0.613,0.051,1.377,0.115,2.741,0.191c4.521,0.224,7.605,0.334,10.011,0.358c1.192,0.047,2.175-0.168,2.901-0.643
	c0.741-0.497,1.286-1.431,1.629-2.781l-0.003,0.011c0.4-1.447,0.777-3.243,1.188-5.65c0.376-2.408,0.654-4.506,0.845-6.418
	l0.006-0.052l-0.006-0.052c-0.082-0.826-1.351-0.982-2.101-1.001c-1.135,0-1.674,0.813-1.731,0.905l-0.05,0.08l-0.02,0.091
	c-0.471,2.356-1.16,3.996-2.305,5.483c-0.956,1.212-3.065,2.047-6.263,2.476c-3.432,0.449-6.17,0.642-13.318,0.605h-4.516
	l-0.009,0.001c-2.269,0.093-4-0.263-5.15-1.06c-1.118-0.755-1.873-2.473-2.247-5.107c-0.405-2.826-0.598-7.143-0.571-12.832V60.059
	c-0.083-6.741,0.082-11.758,0.488-14.915c0.4-2.98,1.476-4.949,3.2-5.851c1.804-0.936,4.835-1.538,9.271-1.837l0.076-0.005
	l0.068-0.025c0.436-0.16,0.69-0.702,0.879-1.868c0.122-0.813,0.019-1.411-0.314-1.833c-0.266-0.338-0.654-0.533-1.155-0.578
	l-0.054-0.005L395.72,33.148z M463.564,33.147c-2.454,0.299-4.876,0.497-7.868,0.646c-3.297,0.138-6.535,0.209-9.623,0.209
	c-7.991,0.061-14.508-0.211-20.514-0.854l-0.017-0.001l-0.019-0.001c-0.465-0.017-0.901,0.169-1.235,0.528
	c-0.417,0.444-0.632,1.108-0.565,1.729c0.157,1.181,0.503,1.888,1.028,2.112l0.078,0.033l0.082,0.007
	c4.15,0.353,7.181,0.956,9.005,1.789c1.77,0.817,2.856,2.648,3.319,5.596c0.474,3.098,0.682,8.076,0.632,15.216
	c0,0.001-0.098,41.456-0.098,41.456c0.079,7.081-0.121,12.188-0.599,15.185c-0.421,2.848-1.603,4.654-3.51,5.375
	c-2.058,0.802-3.871,1.396-8.536,1.743l-0.109,0.01l-0.098,0.053c-0.717,0.389-0.903,1.256-0.982,1.875l-0.003,0.023
	c-0.055,0.677,0.249,1.524,0.74,2.057c0.396,0.43,0.888,0.657,1.423,0.657h0.017l0.016-0.001c5.378-0.342,9.263-0.589,16.627-0.7
	c7.079-0.11,14.554-0.167,22.219-0.167c3.489,0.025,4.142,0.079,5.328,0.178c0.614,0.051,1.376,0.115,2.749,0.191
	c4.486,0.224,7.576,0.334,10.023,0.358c1.168,0.047,2.169-0.176,2.878-0.645c0.724-0.46,1.26-1.367,1.642-2.77l0.001-0.004
	c0.506-1.924,0.895-3.772,1.187-5.651c0.36-2.271,0.634-4.495,0.861-6.401l0.006-0.059l-0.004-0.059
	c-0.094-0.821-1.37-0.977-2.124-0.996c-0.91,0-1.545,0.576-1.735,0.94l-0.031,0.064l-0.013,0.07
	c-0.498,2.401-1.198,4.04-2.342,5.479c-0.938,1.219-3.04,2.052-6.252,2.481c-3.405,0.449-6.135,0.642-13.308,0.605h-4.513
	l-0.013,0.001c-2.262,0.093-4-0.265-5.167-1.061c-1.092-0.753-1.849-2.471-2.243-5.11c-0.397-2.884-0.584-7.203-0.56-12.827
	c0-0.001,0.099-42.343,0.099-42.343c-0.088-6.782,0.072-11.797,0.479-14.917c0.398-2.979,1.479-4.948,3.208-5.851
	c1.811-0.942,4.788-1.544,9.104-1.838l0.062-0.003l0.059-0.019c0.812-0.258,1.035-1.952,1.045-2.024l-0.004,0.025
	c0.117-0.662-0.098-1.42-0.531-1.889C464.525,33.273,464.062,33.097,463.564,33.147z M541.726,32.807
	c-0.577,0-1.125,0.266-1.546,0.748c-0.462,0.529-0.698,1.232-0.617,1.833c0.095,0.908,0.588,1.733,1.224,2.039l0.094,0.045
	l0.103,0.005c4.45,0.239,5.6,1.018,6.641,2.008c2.529,2.539,3.354,5.467,2.374,8.459c0.004-0.011-19.133,53.279-22.448,62.511
	c-2.946-8.406-18.597-53.074-22.087-63.488c-0.377-1.132-0.729-2.074-1.013-2.83c-0.565-1.518-0.861-2.352-0.861-2.995
	c0-0.348,0.085-0.641,0.266-0.954c0.609-1.073,2.013-2.519,7.126-2.69l0.043-0.001l0.041-0.008c0.922-0.186,1.559-1.05,1.748-2.373
	c0.021-0.126,0.032-0.25,0.032-0.372c0-0.461-0.146-0.883-0.424-1.21c-0.252-0.296-0.732-0.649-1.587-0.649H510.8l-0.031,0.004
	c-2.661,0.339-5.339,0.565-8.688,0.732c-3.924,0.154-7.381,0.228-10.561,0.228c-9.087,0.075-16.363-0.231-22.904-0.961l-0.036-0.005
	l-0.035,0.002c-0.546,0.015-1.019,0.237-1.361,0.641c-0.405,0.475-0.546,1.088-0.546,1.595c0,0.112,0.006,0.216,0.018,0.313
	c0.091,0.997,0.827,1.704,1.435,2.008l0.087,0.045l0.1,0.008c4.322,0.355,8.02,1.327,10.989,2.888
	c2.945,1.539,6.065,4.361,9.277,8.39c5.095,7.326,5.867,9.598,15.254,37.182c2.703,7.943,6.069,17.828,10.455,30.543
	c-0.001-0.004,0.379,1.042,0.379,1.042c0.65,1.746,1.538,4.123,1.538,7.11c0,1.236-0.152,2.577-0.534,4.021
	c-6.182,21.537-20.353,38.654-40.992,49.55c0-1.448,0-9.604,0-9.604c-0.02-1.291-0.027-2.523-0.027-3.694
	c0-5.034,0.162-8.94,0.472-11.426c0.343-2.881,1.421-4.653,3.396-5.583c2.07-0.992,5.597-1.667,10.202-1.952l0.07-0.003l0.067-0.024
	c0.612-0.213,1.065-1.056,1.105-2.049c0.003-0.034,0.003-0.069,0.003-0.104c0-0.582-0.246-1.2-0.646-1.599
	c-0.287-0.287-0.635-0.434-0.979-0.415l-0.016,0.001l-0.015,0.001c-2.497,0.288-5.293,0.491-8.799,0.636
	c-3.881,0.157-7.19,0.233-10.12,0.233c-3.634,0.004-7.191-0.051-10.88-0.167c0.008,0-1.814-0.077-1.814-0.077
	c-3.283-0.134-8.244-0.338-10.737-0.625l-0.015-0.001l-0.015-0.001c-0.355-0.021-0.719,0.147-1.019,0.471
	c-0.363,0.395-0.577,0.946-0.577,1.458c0,0.08,0.006,0.16,0.017,0.237c0.075,0.745,0.313,1.716,1.001,2.013l0.087,0.037l0.094,0.004
	c5.128,0.233,9.69,1.057,11.622,2.097c1.505,0.811,2.612,3.014,3.119,6.201c0.45,2.754,0.67,7.143,0.67,13.385
	c0,0.579-0.002,1.175-0.005,1.787c0,0,0,13.91,0,14.655c-12.692,4.26-24.562,5.355-35.281,3.239
	c-4.255-0.839-7.594-1.902-11.526-3.665l-0.107-0.051l-0.117,0.004c-0.582,0.02-1.962,0.146-2.244,0.919
	c-0.101,0.276-0.103,0.71,0.461,1.216l0.04,0.036l0.046,0.028c5.281,3.034,10.765,4.981,17.257,6.132
	c8.906,1.57,17.962,1.746,26.921,0.527c9.512-1.294,18.633-4.135,27.113-8.446c9.137-4.646,17.421-10.957,24.621-18.757
	c7.796-8.444,14.336-18.662,19.44-30.369c4.615-9.979,11.89-31.715,18.308-50.891c5.93-17.715,11.53-34.448,13.636-37.659
	c2.29-3.492,6.894-5.853,8.251-6.494c2.948-1.415,6.17-2.163,10.454-2.427l0.031-0.002l0.032-0.006
	c1.265-0.241,1.996-1.139,2.175-2.671c0.07-0.537-0.041-0.98-0.33-1.31c-0.343-0.392-0.893-0.582-1.68-0.582h-0.034l-0.283,0.039
	c-2.288,0.308-3.941,0.53-5.919,0.7c-2.188,0.15-4.833,0.227-7.846,0.227c-4.543,0.019-11.722-0.135-14.416-0.272
	c-2.728-0.133-4.986-0.391-8.12-0.768l-0.03-0.003H541.726z M466.657,35.448c-0.002-0.004-0.002-0.008-0.002-0.013
	c0-0.003-0.001-0.007-0.001-0.01L466.657,35.448z M711.612,235.036c-0.141-1.466-0.909-1.899-1.354-2.03l-0.056-0.015l-0.057-0.003
	c-4.639-0.3-7.937-0.672-10.042-1.614c-1.928-0.877-3.079-2.734-3.517-5.678c-0.455-3.062-0.701-7.889-0.751-14.758
	c0-0.005-0.882-43.4-0.882-43.4c-0.092-2.56-0.139-4.866-0.139-6.906c0-3.342,0.125-5.979,0.369-7.877
	c0.328-2.916,1.469-4.843,3.397-5.741c2.059-0.938,5.54-1.56,10.348-1.843l0.119-0.007l0.104-0.058
	c0.436-0.246,0.706-0.856,0.786-1.76c0.021-0.144,0.035-0.281,0.035-0.408c0-0.373-0.098-0.682-0.29-0.922
	c-0.163-0.203-0.479-0.45-1.052-0.479l-0.051-0.004l-0.051,0.007c-3.484,0.507-7.504,0.84-11.944,0.991
	c-4.388,0.156-8.901,0.066-13.802-0.278l-0.424-0.029l-0.108,0.41c-1.012,3.762-2.452,7.97-4.283,12.505
	c-1.929,4.756-3.923,9.441-5.933,13.927c-0.001,0.003-18.081,41.305-21.19,48.41c-0.937-2.004-35.029-74.947-35.029-74.947
	l-0.331,0.002c-5.043,0.029-10.04-0.006-14.85-0.106c-3.812-0.113-7.494-0.412-10.937-0.885l-0.022-0.002l-0.022-0.002
	c-0.468-0.023-0.754,0.17-0.909,0.337c-0.279,0.3-0.386,0.762-0.314,1.374c0.079,0.635,0.265,1.515,0.965,1.87l0.089,0.044
	l0.096,0.009c5.348,0.498,9.348,1.979,11.883,4.406c2.536,2.392,3.771,6.011,3.679,10.764l-1.005,50.593
	c-0.051,6.398-0.358,11.241-0.918,14.398c-0.495,2.91-1.661,4.873-3.461,5.828l-0.02,0.012l-0.02,0.013
	c-1.791,1.161-3.725,1.833-8.311,1.833c-4.162,0-6.929-1.36-8.205-2.172c-1.648-1.113-4.032-3.216-5.963-6.868
	c-1.778-3.316-3.73-7.849-5.806-13.476c-0.001-0.008-26.711-69.767-26.711-69.767l-0.012-0.021
	c-0.216-0.446-0.688-0.985-1.695-1.037c-0.812-0.073-1.506,0.277-1.954,0.989l-0.02,0.031l-31.342,69.771
	c-2.388,5.486-4.463,9.707-6.349,12.91c-1.9,3.292-3.25,4.907-5.352,6.399l-0.012,0.008l-0.016,0.012
	c-2.205,1.8-6.334,2.917-10.775,2.917c-4.777,0-6.539-0.53-8.68-1.716c-1.979-1.097-3.098-2.951-3.425-5.673
	c-0.396-3.173-0.539-7.787-0.447-14.518V190.72l-0.695,0.261c-2.869,1.079-13.042,3.606-13.042,3.606v15.428
	c0.002,0.611,0.005,1.206,0.005,1.787c0,6.23-0.22,10.599-0.669,13.329c-0.478,2.979-1.489,4.806-3.1,5.584
	c-1.379,0.667-4.431,1.597-11.136,2.238c-0.494,0.049-0.589,0.059-0.692,0.146c-0.522,0.296-1.083,0.929-1.171,1.89
	c-0.012,0.094-0.018,0.188-0.018,0.281c0,0.554,0.196,1.099,0.537,1.458c0.269,0.282,0.604,0.422,0.948,0.397l0.022-0.002
	c3.393-0.39,11.296-0.642,12.846-0.688c3.028-0.147,5.864-0.194,10.125-0.167c1.311,0,3.86,0.122,6.814,0.263
	c4.081,0.195,9.158,0.44,12.791,0.44c3.053,0,6.287-0.142,9.141-0.266c2.485-0.107,4.83-0.209,6.748-0.209
	c3.179,0,5.758,0.073,7.668,0.22c0.005,0.001,1.987,0.101,1.987,0.101c1.461,0.065,2.972,0.133,4.436,0.332l0.036,0.004h0.033
	c0.36,0,0.712-0.163,0.988-0.458c0.346-0.368,0.544-0.905,0.544-1.461c0-0.049-0.003-0.099-0.005-0.15
	c-0.03-1.019-0.742-1.918-1.388-2.107l-0.053-0.015l-0.056-0.004c-2.978-0.216-5.157-0.595-6.66-1.159
	c-1.257-0.497-1.848-1.367-1.848-2.74c0-0.012,0-0.026,0-0.039c0.026-1.987,0.588-4.422,1.667-7.233
	c1.157-3.127,2.587-6.6,4.373-10.623c0.001-0.001,4.142-9.407,4.946-11.231c0.649,0,31.512,0,32.202,0
	c0.236,0.629,4.197,11.205,4.197,11.205c1.522,3.859,2.757,7.189,3.779,10.184c0.959,2.768,1.418,5.1,1.491,7.558
	c0,1.566-0.707,2.52-2.161,2.901c-1.53,0.392-3.63,0.928-6.984,1.198l-0.091,0.006l-0.08,0.038
	c-0.465,0.213-1.011,0.895-1.113,1.891c-0.008,0.086-0.011,0.17-0.011,0.255c0,0.613,0.208,1.209,0.557,1.568
	c0.246,0.255,0.558,0.384,0.874,0.363l2.075-0.142c4.26-0.298,9.562-0.667,16.87-0.611c1.672,0,3.919,0.046,5.9,0.086
	c1.638,0.035,3.185,0.066,4.133,0.066c1.321,0,2.708,0.082,4.05,0.162c1.615,0.098,3.142,0.187,4.546,0.144
	c1.405,0.009,4.381-0.096,7.007-0.187l3.63-0.118c2.11-0.105,5.133-0.126,7.196-0.102c3.108,0.037,11.245,0.464,14.464,0.674
	l0.018,0.001h0.015c0.335,0,0.664-0.15,0.923-0.426c0.349-0.368,0.55-0.925,0.55-1.509c0-0.049-0.002-0.1-0.005-0.15
	c-0.059-1.456-0.945-1.878-1.468-1.998l-0.039-0.009l-0.039-0.003c-3.953-0.288-6.785-0.701-8.688-1.887
	c-1.778-1.072-2.824-3.067-3.203-6.103c-0.232-2.162-0.348-4.983-0.348-8.42c0-1.717,0.028-3.587,0.087-5.608
	c0-0.005,0.65-35.688,0.82-44.959c1.776,3.733,33.435,70.261,33.435,70.261l0.012,0.021c0.427,0.708,1.073,1.063,1.873,1.028
	l0.021-0.002c0.767-0.063,1.305-0.361,1.596-0.883l0.013-0.021c0,0,30.9-70.243,32.685-74.299
	c0.074,4.269,0.853,48.848,0.853,48.848c0.05,1.933,0.075,3.72,0.075,5.364c0,4.201-0.162,7.448-0.479,9.693
	c-0.419,2.907-1.437,4.784-3.021,5.576c-1.676,0.839-4.337,1.165-7.816,1.396l-0.071,0.006l-0.067,0.023
	c-0.473,0.169-1.062,0.657-1.191,2.012l-0.001,0.014v0.012c-0.002,0.042-0.003,0.084-0.003,0.125c0,0.61,0.199,1.16,0.557,1.521
	c0.266,0.268,0.602,0.41,0.948,0.398h0.016l0.989-0.088c1.93-0.173,4.572-0.409,8.014-0.488c3.108-0.098,6.734-0.137,10.779-0.115
	c2.968,0,6.294,0.067,10.165,0.207c3.63,0.157,6.175,0.312,8.878,0.499c0.322,0.023,0.638-0.105,0.887-0.356
	c0.345-0.35,0.554-0.931,0.554-1.518C711.621,235.167,711.617,235.101,711.612,235.036z M522.943,195.01
	c0.592-1.343,14.536-32.919,15.486-35.07c0.801,2.207,12.28,33.786,12.748,35.07C549.819,195.01,524.399,195.01,522.943,195.01z
	 M423.92,235.101c-0.1-1.302-0.812-1.814-1.392-2.013l-0.07-0.024l-0.072-0.004c-3.818-0.177-9.323-1.256-11.559-2.687
	c-1.647-1.055-2.674-3.042-3.056-5.909c-0.422-3.105-0.616-8.562-0.545-15.37v-39.734c-0.073-6.976,0.1-12.067,0.515-15.14
	c0.375-2.815,1.396-4.792,3.026-5.877c1.839-1.223,6.739-2.476,11.757-2.455h0.116l0.106-0.05c0.502-0.24,0.836-0.877,0.99-1.893
	c0.088-0.637-0.068-1.228-0.42-1.631c-0.31-0.354-0.75-0.542-1.271-0.542h-0.031l-0.03,0.004c-4.619,0.57-13.574,0.868-20.032,0.868
	c-4.537,0.005-8.806-0.087-12.018-0.167c-3.832-0.136-7.055-0.358-10.138-0.702l-0.015-0.002l-0.014,0
	c-0.351-0.02-0.701,0.142-0.988,0.452c-0.416,0.45-0.63,1.125-0.548,1.717l-0.003-0.024c0.042,0.479,0.227,1.632,0.987,1.979
	l0.08,0.037l0.088,0.008c5.258,0.455,8.292,0.963,10.141,1.701c1.824,0.718,3.081,2.784,3.545,5.819
	c0.458,3.041,0.655,8.181,0.579,15.278v42.143c0.076,7.108-0.125,12.438-0.579,15.422c-0.465,3.027-1.707,4.215-3.429,5.071
	c-2.565,1.272-5.856,1.513-11.032,1.513c-3.661-0.101-6.274-0.786-8.727-2.293c-2.288-1.387-4.144-3.509-5.839-6.676
	c-1.735-3.235-3.68-7.771-5.781-13.478c-0.003-0.007-26.731-69.733-26.731-69.733c-0.184-0.444-0.621-0.979-1.676-1.089
	l-0.012-0.001l-0.012-0.001c-0.842-0.047-1.518,0.301-1.95,1.006l-0.017,0.028l-31.328,69.757
	c-2.326,5.298-4.466,9.653-6.362,12.945c-1.681,2.871-3.466,5.078-5.308,6.583c-1.011-0.592-2.5-1.52-4.506-3.024
	c-6.073-4.57-11.8-10.395-17.021-17.313c-5.029-6.652-8.961-13.558-11.708-20.534c4.929-2.137,8.764-4.634,11.69-7.631
	c2.988-3.052,5.159-6.276,6.456-9.581c1.27-3.153,1.914-6.16,1.914-8.939c0-0.082,0-0.163-0.002-0.244
	c-0.074-5.44-1.897-9.923-5.419-13.324c-3.492-3.354-8.214-5.846-14.033-7.405c-5.795-1.554-12.342-2.326-19.457-2.295
	c-8.395-0.032-15.562,0.265-21.903,0.909c-5.943,0.604-11.222,1.507-14.486,2.48l-0.042,0.012l-0.039,0.02
	c-0.872,0.432-1.25,1.328-0.988,2.339c0.302,1.049,0.957,1.67,1.845,1.764l0.074,0.007l1.49-0.271
	c1.243-0.232,2.141-0.4,3.296-0.432c4.065-0.145,6.045,0.917,6.837,3.666c0.922,3.096,1.332,9.194,1.155,17.18
	c0,0.014,0.292,43.326,0.292,43.326c0.081,7.498-0.175,10.721-0.615,13.492c-0.624,4.065-1.782,6.55-3.35,7.189
	c-1.989,0.841-4.749,1.359-8.691,1.63l-0.032,0.003l-0.03,0.006c-0.706,0.137-1.243,0.926-1.365,2.012
	c-0.044,0.392-0.087,1.357,0.428,1.89c0.214,0.222,0.5,0.329,0.801,0.307c6.577-0.524,13.442-0.749,20.99-0.692
	c0.004,0,0.707,0,0.707,0c2.988-0.001,6.079-0.002,9.019,0.145c3.224,0.142,6.005,0.263,8.292,0.545l0.048,0.005l0.048-0.003
	c0.365-0.024,0.684-0.195,0.924-0.493c0.276-0.343,0.426-0.834,0.426-1.371c0-0.142-0.012-0.288-0.034-0.434
	c-0.113-1.035-0.628-1.619-1.073-1.824l-0.089-0.04l-0.099-0.005c-4.526-0.227-7.212-0.792-8.982-1.89l-0.021-0.013l-0.022-0.01
	c-1.469-0.726-2.717-3.547-3.183-7.187c-0.323-2.411-0.521-4.952-0.521-9.877c0-1.005,0.009-2.109,0.025-3.332
	c0,0,0-16.591,0-17.695c0.753,0.099,1.385,0.16,1.945,0.188c0.736,0.022,1.761,0.022,3.181,0.022c1.637,0,3.595-0.104,5.461-0.211
	c2.185-0.162,3.963-0.353,5.557-0.593c2.115,7.638,5.494,14.919,10.066,21.643c4.69,6.926,10.979,12.641,18.691,16.984
	c8.316,4.673,16.023,6.633,26.597,6.768c2.205,0.16,5.301,0.081,9.471-0.245l-0.04,0.002c0.45,0,0.729-0.193,0.883-0.353
	c0.269-0.281,0.4-0.698,0.4-1.275c0-0.056-0.001-0.114-0.003-0.172c-0.015-0.403-0.062-1.633-0.97-1.977l-0.072-0.026l-0.077-0.006
	c-2.485-0.159-5.541-0.423-7.121-1.039c-0.931-0.374-1.386-1.494-1.386-3.42c0-0.068,0-0.138,0.001-0.208
	c0.014-1.902,0.573-4.331,1.658-7.22c1.09-2.934,2.606-6.552,4.508-10.759c0.002-0.005,4.108-9.416,4.906-11.244
	c0.653,0,31.546,0,32.229,0c0.239,0.618,4.207,10.861,4.207,10.861c1.133,2.893,2.045,5.528,2.928,8.076l0.678,1.953
	c1.191,3.533,1.747,5.966,1.801,7.88c0,1.634-0.717,2.624-2.19,3.014c-0.726,0.188-1.964,0.407-3.161,0.622
	c-1.639,0.291-3.188,0.566-3.822,0.815c-0.469,0.19-1.27,0.685-1.422,1.896l-0.002,0.021c-0.005,0.065-0.008,0.132-0.008,0.199
	c0,0.579,0.206,1.153,0.558,1.537c0.268,0.291,0.603,0.451,0.943,0.451h0.019l2.417-0.175c4.895-0.36,9.122-0.67,16.527-0.609
	c1.229,0,3.527,0.102,6.188,0.217c3.995,0.175,8.969,0.393,12.984,0.393c3.555,0,8.681-0.186,13.64-0.366
	c4.371-0.159,8.498-0.308,11.018-0.308c6.962,0,14.17,0.494,18.983,0.866l0.037,0.003l0.039-0.003
	c0.954-0.065,1.763-1.01,1.763-2.064v-0.018L423.92,235.101z M228.876,187.839c0.004,0-2.254,0.043-2.254,0.043l-0.916,0.024
	c-0.323,0.017-1.027,0.007-1.792-0.033c0-0.928,0-22.457,0-22.457c0-0.333-0.001-0.664-0.001-0.989c0-9.627,0.309-15.747,0.94-18.69
	c0.878-0.361,1.365-0.528,2.414-0.749c0.852-0.182,2.552-0.295,3.64-0.295h0.005c5.064-0.051,9.583,0.593,13.43,1.913
	c3.834,1.324,6.948,3.761,9.516,7.449c2.707,3.815,3.951,8.662,3.808,14.819c-0.096,5.753-2.403,10.851-6.33,13.99
	C247.197,186.169,240.061,187.751,228.876,187.839z M309.762,194.945c0.593-1.342,14.52-32.928,15.47-35.082
	c0.803,2.21,12.277,33.797,12.745,35.082C336.618,194.945,311.219,194.945,309.762,194.945z"/>
</svg>
