<svg width="138" height="31" viewBox="0 0 138 31" fill="none" xmlns="http://www.w3.org/2000/svg">
<path fill-rule="evenodd" clip-rule="evenodd" d="M8.36278 6.71833L11.8797 4.68786L15.4863 6.77014L23.061 0.638496V11.1434V24.0545L11.8797 30.51L0.698333 24.0545V13.0509L0.693359 13.0538V0.51001L8.36278 6.71833ZM2.65329 14.1168V22.9258L11.8797 28.2526L21.106 22.9258V14.2542L11.8706 19.6855L2.65329 14.1168ZM3.02518 12.0574L11.884 17.4096L20.8607 12.1305L11.8797 6.94527L3.02518 12.0574ZM17.5011 7.65438L21.106 9.76901V4.73624C19.9044 5.70893 18.7027 6.68163 17.5011 7.65438ZM2.64832 9.64053L6.25321 7.52585L2.64832 4.60775C2.64832 6.28531 2.64832 7.96292 2.64832 9.64053Z" fill="white"/>
<path fill-rule="evenodd" clip-rule="evenodd" d="M34.0781 15.6566H34.2673C34.8725 15.6566 35.7898 15.5714 35.7898 16.432C35.7898 17.2169 34.863 17.1885 34.3146 17.1885H34.0781V15.6566ZM35.0806 18.6071C36.3856 18.6071 37.6622 18.1153 37.6622 16.6211C37.6622 15.6282 37.2272 14.9378 36.2059 14.8054V14.7866C36.7828 14.4934 36.9908 13.9733 36.9908 13.3302C36.9908 11.9684 36.1397 11.4767 34.8725 11.4767H32.2246V18.6071H35.0806ZM34.0781 12.8952H34.2105C34.7117 12.8952 35.2886 12.933 35.2886 13.5855C35.2886 14.1908 34.7779 14.2759 34.2862 14.2759H34.0781V12.8952Z" fill="white"/>
<path fill-rule="evenodd" clip-rule="evenodd" d="M43.3174 11.4767H41.4639V18.6071H45.5397V17.0372H43.3174V11.4767Z" fill="white"/>
<path fill-rule="evenodd" clip-rule="evenodd" d="M52.5653 11.2404C50.5132 11.2404 48.6221 12.7534 48.6221 14.9096C48.6221 17.217 50.2771 18.8435 52.5653 18.8435C54.854 18.8435 56.5088 17.217 56.5088 14.9096C56.5088 12.7534 54.6175 11.2404 52.5653 11.2404ZM52.5653 13.0371C53.672 13.0371 54.5798 13.9355 54.5798 14.919C54.5798 16.1484 53.672 17.0468 52.5653 17.0468C51.4591 17.0468 50.5514 16.1484 50.5514 14.919C50.5514 13.9355 51.4591 13.0371 52.5653 13.0371Z" fill="white"/>
<path fill-rule="evenodd" clip-rule="evenodd" d="M65.3043 11.6469C64.7558 11.42 64.2073 11.2876 63.6115 11.2876C62.6091 11.2876 61.597 11.7226 60.8974 12.4413C60.2166 13.1411 59.8477 14.0774 59.8477 15.0514C59.8477 16.1105 60.2069 17.0373 60.992 17.7465C61.7293 18.418 62.6752 18.7962 63.668 18.7962C64.245 18.7962 64.6897 18.6544 65.3043 18.4652V16.2429C64.9166 16.7063 64.3111 16.9995 63.7061 16.9995C62.5521 16.9995 61.7766 16.1862 61.7766 15.0608C61.7766 13.9544 62.5429 13.0844 63.6776 13.0844C64.3111 13.0844 64.9258 13.3586 65.3043 13.8693V11.6469Z" fill="white"/>
<path fill-rule="evenodd" clip-rule="evenodd" d="M71.1576 14.4177H71.1388V11.4767H69.2852V18.6071H71.1388V15.5147H71.1576L73.5502 18.6071H75.9523L72.8597 14.8528L75.6969 11.4767H73.399L71.1576 14.4177Z" fill="white"/>
<path fill-rule="evenodd" clip-rule="evenodd" d="M79.29 18.6071H81.9191C83.8954 18.6071 85.541 17.0467 85.541 15.0419C85.541 13.0371 83.9051 11.4767 81.9191 11.4767H79.29V18.6071ZM81.1437 13.0465H81.5787C82.7704 13.0465 83.612 13.7652 83.612 15.0419C83.612 16.432 82.6661 17.0372 81.5599 17.0372H81.1437V13.0465Z" fill="white"/>
<path fill-rule="evenodd" clip-rule="evenodd" d="M93.6077 17.3682L94.0712 18.6071H96.0475L93.3619 11.4767H91.3383L88.5957 18.6071H90.5628L91.0544 17.3682H93.6077ZM93.1065 15.9497H91.5652L92.331 13.6801H92.3498L93.1065 15.9497Z" fill="white"/>
<path fill-rule="evenodd" clip-rule="evenodd" d="M103.519 13.0465V11.4767H99.4619V18.6071H103.519V17.0372H101.315V15.8079H103.405V14.238H101.315V13.0465H103.519Z" fill="white"/>
<path fill-rule="evenodd" clip-rule="evenodd" d="M107.074 18.6071H108.918L109.514 14.5028H109.533L111.169 18.6071H111.907L113.618 14.5028H113.637L114.157 18.6071H116.011L114.933 11.4767H113.089L111.556 15.2878L110.11 11.4767H108.285L107.074 18.6071Z" fill="white"/>
<path fill-rule="evenodd" clip-rule="evenodd" d="M123.217 11.2404C121.165 11.2404 119.273 12.7534 119.273 14.9096C119.273 17.217 120.928 18.8435 123.217 18.8435C125.505 18.8435 127.16 17.217 127.16 14.9096C127.16 12.7534 125.269 11.2404 123.217 11.2404ZM123.217 13.0371C124.323 13.0371 125.231 13.9355 125.231 14.919C125.231 16.1484 124.323 17.0468 123.217 17.0468C122.11 17.0468 121.202 16.1484 121.202 14.919C121.202 13.9355 122.11 13.0371 123.217 13.0371Z" fill="white"/>
<path fill-rule="evenodd" clip-rule="evenodd" d="M130.858 18.6071H132.712V14.238H132.73L136.126 18.6071H137.979V11.4767H136.126V15.8362H136.107L132.712 11.4767H130.858V18.6071Z" fill="white"/>
</svg>
