<?xml version="1.0" encoding="UTF-8"?> <!-- Generator: Adobe Illustrator 26.0.2, SVG Export Plug-In . SVG Version: 6.00 Build 0) --> <svg xmlns="http://www.w3.org/2000/svg" xmlns:xlink="http://www.w3.org/1999/xlink" version="1.1" id="Layer_1" x="0px" y="0px" viewBox="0 0 284.7 57.8" style="enable-background:new 0 0 284.7 57.8;" xml:space="preserve"> <style type="text/css"> .st0{fill:#3E3E3E;} .st1{fill:#3DAE2B;} </style> <path class="st0" d="M45.3,41c-3.7,0-6.1-1.8-6.1-6.1V9.4h5.5V34c0,1.3,0.3,2.2,2.2,2.2c0.5,0,0.6,0,0.9,0v4.5 C46.6,40.9,46.4,41,45.3,41"></path> <path class="st0" d="M63.6,23.8c-0.7-0.8-1.9-1.4-3.4-1.4s-2.7,0.7-3.4,1.4c-1.3,1.4-1.6,3.6-1.6,5.7s0.3,4.2,1.6,5.7 c0.7,0.8,1.9,1.4,3.4,1.4s2.7-0.6,3.4-1.4c1.3-1.4,1.6-3.5,1.6-5.7S64.9,25.2,63.6,23.8 M68.1,37.8c-1.6,1.9-4.5,3.5-7.9,3.5 s-6.3-1.6-7.9-3.5c-1.7-2.1-2.6-4.5-2.6-8.3s0.9-6.2,2.6-8.3c1.6-1.9,4.5-3.5,7.9-3.5s6.3,1.6,7.9,3.5c1.7,2.1,2.6,4.5,2.6,8.3 C70.7,33.2,69.8,35.6,68.1,37.8"></path> <path class="st0" d="M87.4,23.8c-0.7-0.8-1.9-1.4-3.4-1.4s-2.7,0.7-3.4,1.4c-1.3,1.4-1.6,3.6-1.6,5.7s0.3,4.2,1.6,5.7 c0.7,0.8,1.9,1.4,3.4,1.4s2.7-0.6,3.4-1.4c1.3-1.4,1.6-3.5,1.6-5.7S88.7,25.2,87.4,23.8 M91.9,37.8c-1.6,1.9-4.5,3.5-7.9,3.5 s-6.3-1.6-7.9-3.5c-1.7-2.1-2.6-4.5-2.6-8.3s0.9-6.2,2.6-8.3c1.6-1.9,4.5-3.5,7.9-3.5s6.3,1.6,7.9,3.5c1.7,2.1,2.6,4.5,2.6,8.3 C94.5,33.2,93.6,35.6,91.9,37.8"></path> <path class="st0" d="M124.6,40.7v-14c0-2.8-0.7-4.4-3.5-4.4c-3.1,0-4.4,3.2-4.4,6.1v12.3h-5.4v-14c0-2.8-0.7-4.4-3.5-4.4 c-3.1,0-4.5,3.2-4.5,6.1v12.3h-5.4V18.2h4.5l0.4,3c1.2-2.1,3.4-3.5,6.4-3.5c3.2,0,5.3,1.4,6.4,3.7c1.3-2.3,3.8-3.7,6.8-3.7 c4.8,0,7.3,3.2,7.3,7.9v15.2L124.6,40.7L124.6,40.7z"></path> <path class="st1" d="M149,23.3c-0.7-0.8-1.9-1.3-3.4-1.3c-1.6,0-3,0.7-3.8,1.7s-1.1,2-1.2,3.5h9.7C150.3,25.5,149.8,24.2,149,23.3 M155.7,31.1h-15c-0.1,1.7,0.6,3.4,1.6,4.4c0.8,0.7,1.9,1.4,3.3,1.4c1.6,0,2.5-0.3,3.3-1.1c0.5-0.5,0.9-1.1,1.1-1.9h5.2 c-0.1,1.3-1,3.1-1.9,4.2c-1.9,2.3-4.7,3.2-7.6,3.2c-3.1,0-5.3-1.1-7.1-2.8c-2.3-2.2-3.5-5.3-3.5-9c0-3.6,1.1-6.8,3.2-9 c1.7-1.7,4.1-2.8,7.2-2.8c3.3,0,6.4,1.3,8.2,4.2c1.6,2.5,2,5,1.9,7.8C155.8,29.6,155.7,30.7,155.7,31.1"></path> <path class="st1" d="M173.7,40.7V26.9c0-2.6-0.9-4.2-3.7-4.2c-1.9,0-3.2,1.2-3.9,2.9c-0.8,1.8-0.7,4.1-0.7,6v9.2H160V18.2h4.5 l0.4,2.9c1.3-2.4,4-3.5,6.6-3.5c4.8,0,7.6,3.4,7.6,8v15h-5.4V40.7z"></path> <path class="st1" d="M196.9,23.3c-0.7-0.8-1.9-1.3-3.4-1.3c-1.6,0-3,0.7-3.8,1.7s-1.1,2-1.2,3.5h9.7 C198.2,25.5,197.8,24.2,196.9,23.3 M203.6,31.1h-15.1c0,1.7,0.6,3.4,1.6,4.4c0.8,0.7,1.9,1.4,3.3,1.4c1.6,0,2.5-0.3,3.3-1.1 c0.5-0.5,0.9-1.1,1.1-1.9h5.2c-0.1,1.3-1,3.1-1.9,4.2c-1.9,2.3-4.7,3.2-7.6,3.2c-3.1,0-5.3-1.1-7.1-2.8c-2.2-2.2-3.5-5.3-3.5-9 c0-3.6,1.1-6.8,3.2-9c1.7-1.7,4.1-2.8,7.2-2.8c3.3,0,6.4,1.3,8.2,4.2c1.6,2.5,2,5,2,7.8C203.7,29.6,203.6,30.7,203.6,31.1"></path> <path class="st1" d="M219.1,23c-3.8,0-5.8,2.7-5.8,6.4v11.3h-5.5V18.2h4.6l0.5,3.4c1-2.6,3.7-3.7,6.4-3.7c0.6,0,1.1,0.1,1.7,0.1v5.2 C220.4,23.1,219.7,23,219.1,23"></path> <path class="st1" d="M232,21.7c-2.5,0-4,1.8-4,4.2s1.5,4.2,4,4.2s4-1.7,4-4.2C236,23.5,234.5,21.7,232,21.7 M233,41h-4.2 c-1.2,0.4-2,1.3-2,2.8c0,2.9,3.5,3.1,5.7,3.1s6-0.1,6-3.1C238.4,41,235,41,233,41 M232.6,51.2c-2.7,0-5.6-0.2-8-1.9 c-1.7-1.2-2.7-2.8-2.7-4.9c0-2,1-3.7,2.7-4.6c-1.4-0.8-2.2-2.4-2.2-3.9c0-1.9,0.9-3.4,2.7-4.5c-1.4-1.4-2.2-3.2-2.2-5.5 c0-5.4,4.2-8.3,9.2-8.3c1.9,0,3.6,0.5,5.1,1.4c0.9-1.9,2.7-2.8,4.6-2.8c0.3,0,1.1,0,1.5,0.1v4.2c-0.1,0-0.3,0-0.4,0 c-1.3,0-2.4,0.4-2.7,1.4c0.7,1.2,1.2,2.5,1.2,4.1c0,5.1-4.3,8.2-9.2,8.2c-1.3,0-2.5-0.2-3.6-0.6c-0.5,0.3-1.1,0.9-1.1,1.6 c0,1.3,1.3,1.7,2.5,1.7h3.7c2.3,0,5.2,0,7.3,1.5c1.9,1.3,2.7,3.2,2.7,5.4C243.5,49.6,237.6,51.2,232.6,51.2"></path> <path class="st1" d="M258.3,44.5c-1.1,2.9-3,5.6-6.9,5.6c-1.8,0-3-0.3-4.2-0.6V45c1.4,0.3,1.8,0.4,3,0.4c1,0,2-0.3,2.6-1.7l1.3-3.1 l-8.9-22.5h5.9l5.9,16.3l5.6-16.3h5.5L258.3,44.5z"></path> <path class="st0" d="M24.6,36.2c-2.7,0-4.7-1.6-4.9-4.5l0,0v-4.6h2.9l0,0h1.5c2.8,0,5.3,1.4,5.3,4.6C29.4,34.5,27.3,36.2,24.6,36.2 M24.6,14.3L24.6,14.3c2.4,0,4.1,1.8,4.1,4c0,2.8-1.7,4.1-4.7,4.1h-1.3l0,0h-3.1v-8L24.6,14.3L24.6,14.3z M30,24.6 c2.7-1,4.4-3.8,4.4-6.5c0-5.2-4.2-8.6-9.7-8.6H14.4v22.2l0,0l0,0C14.5,37.3,19,41,24.6,41c5.7,0,10.3-3.2,10.3-9.2 C34.9,28.6,33.1,25.5,30,24.6"></path> <path class="st1" d="M274.4,19.9c-0.1-0.1-0.3-0.1-0.5-0.1h-0.2v1h0.4c0.2,0,0.4,0,0.5-0.1s0.2-0.2,0.2-0.4S274.6,19.9,274.4,19.9 M272.7,22.7v-3.5c0.2,0,0.5,0,1,0c0.4,0,0.7,0,0.7,0c0.3,0,0.5,0.1,0.7,0.2c0.3,0.2,0.5,0.5,0.5,0.8s-0.1,0.5-0.2,0.6 c-0.2,0.1-0.4,0.2-0.6,0.2c0.2,0,0.4,0.1,0.5,0.2c0.2,0.2,0.3,0.4,0.3,0.8v0.3v0.1v0.1v0.1h-0.9c0-0.1,0-0.3-0.1-0.5 c0-0.2,0-0.4-0.1-0.4c0-0.1-0.1-0.2-0.3-0.3c-0.1,0-0.2-0.1-0.3-0.1h-0.2h-0.2v1.2h-0.8V22.7z M272.3,19.1c-0.5,0.5-0.8,1.1-0.8,1.8 c0,0.7,0.3,1.4,0.8,1.9s1.1,0.8,1.8,0.8c0.7,0,1.3-0.3,1.8-0.8s0.8-1.1,0.8-1.9c0-0.7-0.3-1.3-0.8-1.8s-1.1-0.8-1.8-0.8 C273.4,18.3,272.8,18.6,272.3,19.1 M276.3,23.2c-0.6,0.6-1.4,0.9-2.2,0.9c-0.9,0-1.6-0.3-2.2-0.9S271,21.8,271,21 c0-0.9,0.3-1.7,1-2.3c0.6-0.6,1.3-0.9,2.2-0.9c0.9,0,1.6,0.3,2.2,0.9s0.9,1.4,0.9,2.2C277.3,21.8,277,22.6,276.3,23.2"></path> </svg> 