<?xml version="1.0" encoding="utf-8"?>
<!-- Generator: Adobe Illustrator 27.5.0, SVG Export Plug-In . SVG Version: 6.00 Build 0)  -->
<svg version="1.1" id="Layer_1" xmlns="http://www.w3.org/2000/svg" xmlns:xlink="http://www.w3.org/1999/xlink" x="0px" y="0px"
	 width="276.9px" height="46px" viewBox="0 0 276.9 46" style="enable-background:new 0 0 276.9 46;" xml:space="preserve">
<style type="text/css">
	.st0{fill:#231F20;}
	.st1{fill:#0081C6;}
	.st2{fill:#FFFFFF;}
</style>
<g>
	<g>
		<path class="st0" d="M101.3,13h1.6V1.5h-1.6V1h6.6c2.2,0,3.9,0.5,3.9,2.6c0,2-1.6,2.9-3.4,3l0,0c2.1,0,4.1,1.1,4.1,3.5
			c0,2-1.4,3.4-4.4,3.4h-7V13H101.3z M105.7,6.4h1.1c1.5,0,2.1-0.6,2.1-2.4s-0.5-2.5-2.2-2.5h-1C105.7,1.5,105.7,6.4,105.7,6.4z
			 M105.7,13h1c2,0,3-0.7,3-3.1c0-2-0.6-2.9-2.6-2.9h-1.2v6H105.7z"/>
		<path class="st0" d="M113.2,13h1.2V1.5h-1.2V1h1.1c0.9,0,1.7,0,2.7-0.1V13h1.2v0.5h-5V13H113.2z"/>
		<path class="st0" d="M128,13h1.2v0.5c-1.7,0-2.7,0-3.7,0.1v-1.4l0,0c-0.6,1-1.7,1.4-2.7,1.4c-1.9,0.1-3.1-0.6-3.1-2.9V5.4h-1.2
			V4.9h1.1c0.9,0,1.7,0,2.7-0.1v6.5c0,1.4,0.6,1.5,1.4,1.5c1.1,0,2-0.9,2-2.7V5.4h-1.2V4.9h1.1c0.9,0,1.7,0,2.7-0.1V13H128z"/>
		<path class="st0" d="M132.5,8.7v0.7c0,1.5,0.2,3.5,2.2,3.5c1.5,0,2.4-0.9,3-2.1l0.5,0.2c-0.7,1.7-2.1,2.6-3.9,2.6
			c-2.7,0-4.5-1.7-4.5-4.5c0-2.6,1.9-4.5,4.5-4.5c2.2,0,4,1.5,4,4H132.5z M135.6,8.2V7.4c0-1-0.2-2.2-1.4-2.2c-1.6,0-1.6,1.9-1.7,3
			h3.1V8.2z"/>
		<path class="st0" d="M150.7,5.4h-0.5c-0.1-2.1-1.9-4-4-4c-3.4,0-3.9,3.5-3.9,5.9c0,2.2,0.2,6,3.7,6c2.1,0,3.9-1.9,4.1-4h0.5v3.5
			c-1.4,0.5-3.2,1-4.7,1c-4,0-6.6-2.7-6.6-6.5s2.5-6.5,6.6-6.5c1.5,0,3,0.4,4.6,1v3.6H150.7z"/>
		<path class="st0" d="M151.5,13h1.2V5.5h-1.2V4.9h1.1c0.9,0,1.7,0,2.7-0.1v1.5l0,0c0.4-0.9,1.2-1.5,2.2-1.5c1.1,0,1.6,0.7,1.6,1.7
			c0,0.7-0.4,1.1-1.1,1.1c-0.6,0-1.1-0.4-1.1-0.9c0-0.5,0-0.5,0-0.9c0-0.2-0.1-0.4-0.4-0.4c-1,0-1.4,2.4-1.4,3.7V13h1.2v0.5h-5V13z"
			/>
		<path class="st0" d="M163.8,13.7c-2.7,0-4.5-1.7-4.5-4.5c0-2.6,1.9-4.5,4.5-4.5s4.5,1.9,4.5,4.5C168.4,11.7,166.5,13.7,163.8,13.7
			z M163.8,5.2c-1.9,0-1.9,1.9-1.9,4c0,2,0,4,1.9,4s1.9-1.9,1.9-4S165.7,5.2,163.8,5.2z"/>
		<path class="st0" d="M169.3,10.2h0.5c0.1,1.6,1.1,2.9,2.6,2.9c0.9,0,1.7-0.4,1.7-1.2c0-2-4.7-1.1-4.7-4.5c0-1.7,1.4-2.7,3.1-2.7
			c1.4,0,2,0.2,2.7,0.5v2.4h-0.5c-0.1-1.2-1.1-2.2-2.2-2.2c-0.7,0-1.2,0.4-1.2,1.1c0,1.7,4.7,1,4.7,4.4c0,2-1.7,3-3.5,3
			c-1.4,0-2.4-0.4-3.1-0.6v-2.9H169.3z"/>
		<path class="st0" d="M176.8,10.2h0.5c0.1,1.6,1.1,2.9,2.6,2.9c0.9,0,1.7-0.4,1.7-1.2c0-2-4.7-1.1-4.7-4.5c0-1.7,1.4-2.7,3.1-2.7
			c1.4,0,2,0.2,2.7,0.5v2.4h-0.5c-0.1-1.2-1.1-2.2-2.2-2.2c-0.7,0-1.2,0.4-1.2,1.1c0,1.7,4.7,1,4.7,4.4c0,2-1.7,3-3.5,3
			c-1.4,0-2.4-0.4-3.1-0.6v-2.9H176.8z"/>
		<path class="st0" d="M188.2,13h1.6V1.5h-1.6V1h6.6c2.2,0,3.9,0.5,3.9,2.6c0,2-1.6,2.9-3.4,3l0,0c2.1,0,4.1,1.1,4.1,3.5
			c0,2-1.4,3.4-4.4,3.4h-6.9V13z M192.6,6.4h1.1c1.5,0,2.1-0.6,2.1-2.4s-0.5-2.5-2.2-2.5h-1L192.6,6.4L192.6,6.4z M192.6,13h1
			c2,0,3-0.7,3-3.1c0-2-0.6-2.9-2.6-2.9h-1.2v6H192.6z"/>
		<path class="st0" d="M200.1,13h1.2V1.5h-1.2V1h1.1c0.9,0,1.7,0,2.7-0.1V13h1.2v0.5h-5V13H200.1z"/>
		<path class="st0" d="M214.9,13h1.2v0.5c-1.7,0-2.7,0-3.7,0.1v-1.4l0,0c-0.6,1-1.7,1.4-2.7,1.4c-1.7,0-3-0.6-3-2.9V5.4h-1.2V4.9
			h1.1c0.9,0,1.7,0,2.7-0.1v6.5c0,1.4,0.6,1.5,1.4,1.5c1.1,0,2-0.9,2-2.7V5.4h-1.2V4.9h1.1c0.9,0,1.7,0,2.7-0.1V13H214.9z"/>
		<path class="st0" d="M219.4,8.7v0.7c0,1.5,0.2,3.5,2.2,3.5c1.5,0,2.4-0.9,3-2.1l0.5,0.2c-0.7,1.7-2.1,2.6-3.9,2.6
			c-2.7,0-4.5-1.7-4.5-4.5c0-2.6,1.9-4.5,4.5-4.5c2.2,0,4,1.5,4,4H219.4z M222.6,8.2V7.4c0-1-0.2-2.2-1.4-2.2c-1.6,0-1.6,1.9-1.7,3
			h3.1V8.2z"/>
		<path class="st0" d="M226.1,9.2h0.6c0.1,1.7,1.5,3.7,3.7,3.7c1.4,0,2.7-0.5,2.7-2.1c0-3.1-6.9-2.1-6.9-6.5c0-2.6,2.2-3.7,4.1-3.7
			c1,0,2,0.1,3.5,0.7l0.1,3h-0.6c-0.4-1.7-1.6-3.1-3.4-3.1c-1.1,0-2,0.7-2,1.9c0,2.7,6.7,1.7,6.7,6.6c0,2.2-2,3.9-4.5,3.9
			c-1.4,0-2.7-0.2-4.1-0.9L226.1,9.2z"/>
		<path class="st0" d="M235.5,13h1.2V1.5h-1.2V1h1.1c0.9,0,1.7,0,2.7-0.1v5.2l0,0c0.6-0.9,1.5-1.4,2.7-1.4c1.7,0,3,1,3,2.9V13h1.2
			v0.5h-5V13h1.2V7.2c0-1.4-0.6-1.7-1.4-1.7c-1,0-2,1-2,2.4v5h1.2v0.5h-5L235.5,13L235.5,13z"/>
		<path class="st0" d="M246.6,13h1.2V5.5h-1.2V4.9h1.1c0.9,0,1.7,0,2.7-0.1v8.1h1.2v0.5h-5V13H246.6z M249.1,0.7
			c0.7,0,1.4,0.6,1.4,1.4s-0.6,1.4-1.4,1.4c-0.7,0-1.4-0.6-1.4-1.4S248.3,0.7,249.1,0.7z"/>
		<path class="st0" d="M254.8,8.7v0.7c0,1.5,0.2,3.5,2.2,3.5c1.5,0,2.4-0.9,3-2.1l0.5,0.2c-0.7,1.7-2.1,2.6-3.9,2.6
			c-2.7,0-4.5-1.7-4.5-4.5c0-2.6,1.9-4.5,4.5-4.5c2.2,0,4,1.5,4,4H254.8z M258,8.2V7.4c0-1-0.2-2.2-1.4-2.2c-1.6,0-1.6,1.9-1.7,3
			h3.1V8.2z"/>
		<path class="st0" d="M261.2,13h1.2V1.5h-1.2V1h1.1c0.9,0,1.7,0,2.7-0.1V13h1.2v0.5h-5V13H261.2z"/>
		<path class="st0" d="M273.1,12.5L273.1,12.5c-0.6,1-1.6,1.2-2.6,1.2c-2.6,0-3.7-2.1-3.7-4.5s1.4-4.5,3.9-4.5c1.1,0,2,0.4,2.4,1.2
			l0,0V1.5h-1.2V1h1.1c0.9,0,1.7,0,2.7-0.1V13h1.2v0.5c-1.7,0-2.7,0-3.7,0.1L273.1,12.5L273.1,12.5z M271.3,5.4
			c-1.7,0-1.9,1.6-1.9,3.7c0,2.5,0.5,3.7,1.9,3.7c1.9,0,2-2.1,2-3.7C273.1,7.7,273,5.4,271.3,5.4z"/>
		<path class="st0" d="M106.1,34.7c-2.7,0-4.5-1.7-4.5-4.5c0-2.6,1.9-4.5,4.5-4.5c2.6,0,4.5,1.9,4.5,4.5
			C110.6,32.7,108.8,34.7,106.1,34.7z M106.1,26.2c-1.9,0-1.9,1.9-1.9,4c0,2,0,4,1.9,4s1.9-1.9,1.9-4S108,26.2,106.1,26.2z"/>
		<path class="st0" d="M111.1,33.9h1.2v-7.5h-1.2v-0.5h1.2v-1.1c0-1.9,1-3.1,3.5-3.1c0.7,0,2.9,0.2,2.9,1.9c0,0.9-0.4,1.2-1.1,1.2
			c-0.9,0-1.1-0.5-1.1-1.1c0-0.7,0-1.5-0.7-1.5c-0.7,0-0.9,0.6-0.9,1.4v2.2h1.5v0.5h-1.5v7.5h1.5v0.5h-5.2
			C111.1,34.3,111.1,33.9,111.1,33.9z"/>
		<path class="st0" d="M128.2,21.7c4,0,6.6,2.7,6.6,6.5c0,3.7-2.5,6.5-6.6,6.5c-4,0-6.6-2.7-6.6-6.5
			C121.7,24.4,124.2,21.7,128.2,21.7z M128.2,34c3.2,0,3.5-3.7,3.5-6s-0.2-5.9-3.5-5.9s-3.5,3.7-3.5,5.9
			C124.7,30.3,124.9,34,128.2,34z"/>
		<path class="st0" d="M135.5,33.9h1.2V22.4h-1.2v-0.5h1.1c0.9,0,1.7,0,2.7-0.1v8h1l2-3.4H141v-0.5h3.6v0.5h-1.5l-1.2,2.1l3.6,5.5
			h0.9v0.5h-5V34h1.1l-2.4-3.6h-0.7V34h1.2v0.5h-5v-0.6H135.5z"/>
		<path class="st0" d="M146.6,33.9h1.2V22.4h-1.2v-0.5h1.1c0.9,0,1.7,0,2.7-0.1v12.1h1.2v0.5h-5v-0.5H146.6z"/>
		<path class="st0" d="M160.3,32.4c0,1.1,0.1,1.5,1.2,1.5v0.5c-0.6,0-1.4,0.1-2,0.1c-1,0-1.6-0.2-1.7-1.2l0,0
			c-0.4,1.1-1.7,1.4-2.9,1.4c-1.7,0-2.6-1.1-2.6-2.7c0-2.1,1.6-2.2,3.7-2.7c0.4-0.1,1.2-0.4,1.7-0.5v-1.1c0-0.7-0.2-1.4-1.5-1.4
			c-2.4,0-0.5,2.4-2.4,2.4c-0.5,0-1-0.2-1-1c0-1.5,2.1-1.9,3.4-1.9c2.4,0,4.1,0.2,4.1,2.6v4.1H160.3z M157.8,29.2l-1.5,0.5
			c-1,0.4-1.5,0.9-1.5,2.4c0,0.9,0.4,1.6,1.2,1.6c1.6,0,1.6-2.1,1.6-3.1v-1.4H157.8z"/>
		<path class="st0" d="M161.9,33.9h1.2V22.4h-1.2v-0.5h1.1c0.9,0,1.7,0,2.7-0.1v5.2l0,0c0.6-0.9,1.5-1.4,2.7-1.4c1.7,0,3,1,3,2.9
			v5.4h1.2v0.5h-5v-0.5h1.2v-5.7c0-1.4-0.6-1.7-1.4-1.7c-1,0-2,1-2,2.4v5h1.2v0.5h-5L161.9,33.9L161.9,33.9z"/>
		<path class="st0" d="M177.9,34.7c-2.7,0-4.5-1.7-4.5-4.5c0-2.6,1.9-4.5,4.5-4.5c2.6,0,4.5,1.9,4.5,4.5
			C182.4,32.7,180.5,34.7,177.9,34.7z M177.9,26.2c-1.9,0-1.9,1.9-1.9,4c0,2,0,4,1.9,4s1.9-1.9,1.9-4
			C179.6,28,179.6,26.2,177.9,26.2z"/>
		<path class="st0" d="M183.1,33.9h1.2v-7.5h-1.2v-0.5h1.1c0.9,0,1.7,0,2.7-0.1v1.4l0,0c0.6-1,1.7-1.4,2.7-1.4
			c1.5,0,2.5,0.4,2.9,1.6l0,0c0.5-1.2,1.9-1.6,2.9-1.6c1.7,0,3,0.6,3,2.9V34h1.2v0.5h-5V34h1.2v-5.9c0-1.4-0.6-1.6-1.4-1.6
			c-1.1,0-2,0.9-2,2.7v4.6h1.2v0.5h-5v-0.5h1.2V28c0-1.4-0.6-1.6-1.4-1.6c-1.1,0-2,0.9-2,2.7v4.6h1.2v0.5h-5v-0.4H183.1z"/>
		<path class="st0" d="M208.6,32.4c0,1.1,0.1,1.5,1.2,1.5v0.5c-0.6,0-1.4,0.1-2,0.1c-1,0-1.6-0.2-1.7-1.2l0,0
			c-0.4,1.1-1.7,1.4-2.9,1.4c-1.7,0-2.6-1.1-2.6-2.7c0-2.1,1.6-2.2,3.7-2.7c0.4-0.1,1.2-0.4,1.7-0.5v-1.1c0-0.7-0.2-1.4-1.5-1.4
			c-2.4,0-0.5,2.4-2.4,2.4c-0.5,0-1-0.2-1-1c0-1.5,2.1-1.9,3.4-1.9c2.4,0,4.1,0.2,4.1,2.6v4.1H208.6z M206.1,29.2l-1.5,0.5
			c-1,0.4-1.5,0.9-1.5,2.4c0,0.9,0.4,1.6,1.2,1.6c1.6,0,1.6-2.1,1.6-3.1v-1.4H206.1z"/>
	</g>
	<g>
		<g>
			<path class="st1" d="M34.8,43.5c0-1.2,1-2.2,2.2-2.2c1.2,0,2.2,1,2.2,2.2s-1,2.2-2.2,2.2C35.8,45.8,34.8,44.8,34.8,43.5z
				 M38.9,43.5c0-1.1-0.7-2-1.9-2s-1.9,0.9-1.9,2c0,1.1,0.7,2,1.9,2S38.9,44.6,38.9,43.5z M38.1,44.8h-0.4L37,43.6h-0.6v1.1h-0.2
				v-2.5h1.1c0.6,0,0.9,0.2,0.9,0.6c0,0.5-0.4,0.7-0.7,0.7L38.1,44.8z M36.9,43.4c0.4,0,0.9,0,0.9-0.5c0-0.4-0.4-0.5-0.6-0.5h-0.7
				v0.9h0.5V43.4z"/>
			<path class="st1" d="M77.5,43.5c0-1.2,1-2.2,2.2-2.2s2.2,1,2.2,2.2s-1,2.2-2.2,2.2S77.5,44.8,77.5,43.5z M81.8,43.5
				c0-1.1-0.7-2-1.9-2c-1.1,0-1.9,0.9-1.9,2c0,1.1,0.9,2,1.9,2S81.8,44.6,81.8,43.5z M81,44.8h-0.4l-0.7-1.1h-0.6v1.1h-0.4v-2.5H80
				c0.6,0,0.9,0.2,0.9,0.6c0,0.5-0.4,0.7-0.7,0.7L81,44.8z M79.8,43.4c0.4,0,0.9,0,0.9-0.5c0-0.4-0.4-0.5-0.6-0.5h-0.7v0.9h0.5V43.4
				z"/>
			<polygon class="st1" points="32.5,45.6 32.5,33 45,33 45,13 32.5,13 32.5,0.5 12.5,0.5 12.5,13 0,13 0,33 12.5,33 12.5,45.6 			
				"/>
			<path class="st1" d="M69.7,46c8.6-4.7,13.8-12.3,16.6-20.7C89,16.6,88.6,6.4,85.4,0c-5,2.5-10,3.7-15.7,3.7C64,3.7,59,2.5,54,0
				c-3.2,6.4-3.7,16.7-0.9,25.3C55.8,33.7,61.1,41.3,69.7,46L69.7,46z"/>
			<g>
				<path class="st2" d="M11,18.7l8.4,0.7c1.6,0.2,1.7,1.7,1.4,2.6L15,32.8l0,0c-2.9-2.2-4.7-5.7-4.7-9.7
					C10.2,21.6,10.5,20.1,11,18.7L11,18.7z"/>
				<path class="st2" d="M34.2,18.7l-8.4,0.7c-1.6,0.2-1.7,1.7-1.4,2.6l5.7,10.7l0,0c2.9-2.2,4.7-5.7,4.7-9.7
					C34.9,21.6,34.7,20.1,34.2,18.7L34.2,18.7z"/>
				<path class="st2" d="M22.6,12.2c1.5,0,1.9,1.6,1.2,2.5c-0.6,0.7-0.7,1-0.6,1.7c0,0.6,0.6,1.4,1.9,1.4h8.9
					c-2-4.2-6.2-7.1-11.2-7.1s-9.2,2.9-11.2,7.1h8.9c1.2,0,1.9-0.7,1.9-1.4c0-0.7-0.1-1-0.6-1.7C20.7,14,21.1,12.2,22.6,12.2z"/>
				<path class="st2" d="M22.6,35.4c2.5,0,4.9-0.7,6.9-2l0,0l-6-9c-0.4-0.6-1.1-0.6-1.5,0l-6,9l0,0C17.7,34.7,20.1,35.4,22.6,35.4"
					/>
				<path class="st2" d="M69.7,42.1c7.1-4.4,11-10.7,13.3-17.8c2.1-6.4,2.7-13.7,0.2-19.6c-3.6,1.2-5.6,1.6-7.6,1.9
					c-1.7,0.2-3.4,0.5-6.1,0.5l0,0c-2.6,0-4.2-0.2-6.1-0.5c-2-0.2-4-0.6-7.6-1.9C53.5,10.5,54,18,56.2,24.3
					C58.8,31.4,62.6,37.8,69.7,42.1L69.7,42.1z"/>
			</g>
			<g>
				<path class="st1" d="M12.2,20.6l6.2,0.6c0.5,0,0.5,0.2,0.4,0.5L14.5,30c-1.6-1.9-2.6-4.2-2.6-7C11.8,22.2,12,21.3,12.2,20.6z"/>
				<path class="st1" d="M19.6,12.8c-0.6,1-0.1,2.4,0.5,3.1c0.1,0.1,0,0.2,0,0.2h-5.6C15.8,14.6,17.6,13.5,19.6,12.8z"/>
				<path class="st1" d="M32.9,20.6l-6.2,0.6c-0.5,0-0.5,0.1-0.5,0.4l4.4,8.4c1.6-1.9,2.6-4.2,2.6-7C33.2,22.2,33,21.3,32.9,20.6z"
					/>
				<path class="st1" d="M25.6,12.8c0.6,1,0.1,2.4-0.5,3.1c-0.1,0.1,0,0.2,0,0.2h5.6C29.3,14.6,27.6,13.5,25.6,12.8z"/>
				<path class="st1" d="M69.7,40.4c4.9-3,10.2-9.8,12.5-18.9c1.1-4.7,1.5-10.2,0-14.5C80,7.6,78,8,75.9,8.4
					c-2.1,0.2-4.1,0.5-6.1,0.5l0,0c-2,0-4.1-0.2-6.1-0.5c-2.1-0.2-4.1-0.7-6.2-1.4c-1.5,4.2-1.2,9.7,0,14.5
					C59.5,30.5,64.9,37.4,69.7,40.4L69.7,40.4z"/>
				<path class="st1" d="M22.3,26.4c0.1-0.1,0.2-0.1,0.4,0l4.1,6.4c-1.4,0.6-2.7,0.9-4.4,0.9c-1.5,0-3-0.4-4.4-0.9L22.3,26.4
					c0.1-0.1,0.2-0.1,0.4,0"/>
			</g>
			<g>
				<path class="st2" d="M64.8,12.1c-1.6,0.9-2.2,2.9-1.5,4.5c0.6,1.4,1.9,2.4,3.4,2.7c0.7,0.2,1.5,0.2,2.2,0.2
					c0.9,0,1.7,0.1,2.6,0.2c0.2,0,0.4,0.1,0.5,0.4c0.2,0.5,0,0.9-0.5,1.1c0,0.7-0.1,2.4-0.1,2.4s3.7-0.4,3.1-3.7
					c-0.1-0.9-0.7-1.6-1.5-2c-1.9-1-4-0.5-5.9-1.1c-0.6-0.2-1.6-0.5-1.7-1.2c-0.1-0.2,0-0.9,0.2-1c0.5-0.1,1,0.2,1.7,0.4
					c0.5,0.1,0.9,0.1,1.2,0c0.1,0,0.4-0.1,0.4-0.2c0-0.1-0.2-0.1-0.2-0.2c-0.2-0.1-0.5-0.1-0.6-0.2c-0.4-0.1-0.7-0.4-1.1-0.5
					c0.4-0.1,1-0.1,1.4,0c0.2,0,1.2,0,1.5,0c0,0,0.2-0.1,0.1-0.1c-0.1-0.1-0.2-0.2-0.4-0.4c-0.2-0.4-0.5-0.7-0.9-0.9
					C67.4,11.6,66.1,11.5,64.8,12.1z"/>
				<path class="st2" d="M71.2,24.2v-4c0,0-0.5-0.1-1.2-0.1c-0.9-0.1-1.4,0-1.4,0v0.4l-0.5,0.2c0,0-0.1,0.2-0.1,0.4
					c0.4,1,0.9,1.9,1,3C69.7,24.1,70.3,24.1,71.2,24.2z"/>
				<path class="st2" d="M66.4,23.6c-0.1,1.5,0.9,2.4,2,2.6c0.9,0.2,1.7,0.2,2.6,0.4c0.1,0,0.4,0,0.5,0.1c0.1,0.1,0.2,0.1,0.2,0.2
					c0,0.1,0,0.2-0.1,0.4c-0.1,0.1-0.4,0.2-0.4,0.2v1.9c0,0,0.7,0,1.4-0.4s0.9-0.7,1.1-1.4c0.1-0.6,0-1.2-0.4-1.9
					c-0.2-0.4-0.9-0.7-1.4-0.9c-1.1-0.4-2.2-0.4-3.5-0.5c-0.1,0-0.4-0.1-0.4-0.4c0-0.2,0.2-0.4,0.2-0.4s-0.1-0.5-0.2-0.9
					c-0.1-0.4-0.4-0.7-0.5-1C66.9,22.1,66.4,22.8,66.4,23.6z"/>
				<path class="st2" d="M71.1,27.1v3.4L70.2,30l-0.9-0.4v-2.7C70.1,26.9,70.4,26.9,71.1,27.1z"/>
				<path class="st2" d="M67.3,28.9c-0.5,1.1,0.1,2.1,1,2.6c0.5,0.2,1.1,0.5,1.6,0.6c0.5,0.2,1.4,0.7,1.5,1c0,0.1-0.1,0.4-0.1,0.4
					v1.4c0,0,0.5-0.1,1-0.5c0.4-0.4,0.6-0.7,0.6-1.4c0-0.7-0.4-1.2-1.4-1.9c-0.7-0.5-1.7-0.9-2.5-1.1c-0.1,0-0.2-0.2-0.1-0.4
					c0-0.1,0.1-0.2,0.1-0.2v-1.5c0,0-0.6,0.1-0.9,0.2C67.8,28.3,67.4,28.5,67.3,28.9z"/>
				<path class="st2" d="M70.9,33.4c0-0.1,0-0.1-0.1-0.2c-0.2-0.2-0.5-0.4-0.6-0.5c-0.2-0.1-0.7-0.4-0.7-0.4s0,3.5,0.1,5.2
					c0,0.4,0.2,0.5,0.6,0.5c0.5,0,0.6-0.2,0.6-0.5C70.8,37.1,70.9,34.7,70.9,33.4z"/>
				<path class="st2" d="M71.3,11.2c0.1,0.1,0.1,0.1,0.2,0.4c0.1,0.5,0,1.4,0.1,1.7c0,0.1,0.1,0.1,0.2,0.1c0.7-0.4,1.2-1.1,2-1.5
					c0.4-0.1,1.4,0.4,1.1,1.1c-0.1,0.4-0.2,0.4-0.5,0.6c-0.5,0.5-1.1,0.9-1.6,1.5c-0.4,0.4-0.9,0.7-1.1,1.1
					c-0.1,0.1-0.2,0.4-0.2,0.4c-1.1-0.2-2.1-0.1-3-0.4v-1.2c0,0,0.9-0.1,1-0.5c0,0,0-0.1-0.1-0.2c-0.1-0.1-0.4-0.2-0.5-0.2
					c0.9,0.1,1.4,0.2,2.2,0.6c0-0.1,0-0.2,0-0.4c-0.1-0.1-0.1-0.1-0.5-0.2c-0.5-0.1-1.9-0.2-1.9-0.2s0.6,0,1.1-0.1
					c0.2,0,0.5-0.1,0.5-0.1c0-0.1,0-0.4-0.2-0.5c-0.1-0.1-0.2-0.2-0.4-0.4s-0.4-0.5-0.5-0.6c-0.2-0.1-0.6-0.4-0.6-0.4
					s-0.1-0.6,0-0.9c0.1-0.2,0.4-0.4,0.5-0.2C69.8,10.7,70.4,11.1,71.3,11.2z"/>
				<g>
					<path class="st2" d="M68.6,34.7c-0.2,0.2-0.5,0.6-0.6,1.4c0,0.6,0.1,0.7,0.2,1.1c0.1,0.2,0.4,0.2,0.5,0c0.1-0.2,0-0.4,0-0.9
						c0-0.4,0.4-0.5,0.4-0.5v-1.5C69.2,34.2,68.9,34.3,68.6,34.7z"/>
				</g>
			</g>
			<g>
				<path class="st1" d="M68.6,12.6c-0.1,0.1-0.2,0.2-0.5,0.2c-0.4,0-0.2-0.2-0.5-0.4c-0.1-0.1-0.2,0-0.4-0.2c0.5,0,1.1,0,1.5,0.4
					C68.7,12.5,68.6,12.5,68.6,12.6z"/>
			</g>
		</g>
	</g>
</g>
</svg>
