<svg id="Layer_1" data-name="Layer 1" xmlns="http://www.w3.org/2000/svg" viewBox="0 0 476.83 148.91"><defs><style>.cls-1{fill:#1566c5;}</style></defs><title>BluePoint_HomePageGraphics</title><path d="M323.71,65.34a20.15,20.15,0,0,1-20.52,20.1H294.4v18.42H281V45.24h22.19A20.15,20.15,0,0,1,323.71,65.34Zm-13.4,0c0-4.27-3-7.54-7.12-7.54H294.4V72.88h8.79C307.29,72.88,310.31,69.61,310.31,65.34Z"/><path d="M146.47,86.65c0,10.38-8.45,17.15-18.91,17.15H103V45.24h22.92c10.21,0,18.49,6.61,18.49,16.73a14.69,14.69,0,0,1-5.1,11.47A15.1,15.1,0,0,1,146.47,86.65ZM116.35,57.79V68.16h9.54a5.19,5.19,0,0,0,0-10.37Zm16.74,27.86a5.29,5.29,0,0,0-5.53-5.6H116.35v11.2h11.21A5.29,5.29,0,0,0,133.09,85.65Z"/><path d="M155.94,45.2h12.55v58.6H155.94Z"/><path d="M219.63,62V103.8H207.09V99.87c-2.26,3.1-6.45,5.11-12,5.11-8.45,0-15.65-6-15.65-17.32V62H192V85.82c0,5.18,3.27,7.61,7.28,7.61,4.6,0,7.79-2.68,7.79-8.62V62Z"/><path d="M251.61,93.76a10.93,10.93,0,0,0,8-3.17l10,5.77c-4.1,5.69-10.29,8.62-18.24,8.62-14.31,0-23.18-9.63-23.18-22.09s9-22.09,22.26-22.09c12.21,0,21.25,9.46,21.25,22.09a24.63,24.63,0,0,1-.5,5h-29.7C243.16,92.26,247,93.76,251.61,93.76Zm7.69-15.22c-1.34-4.85-5.1-6.61-8.86-6.61-4.77,0-7.95,2.34-9.12,6.61Z"/><path d="M325.77,82.89A22.17,22.17,0,1,1,347.94,105,21.92,21.92,0,0,1,325.77,82.89Zm31.79,0c0-5.94-4.18-9.87-9.62-9.87s-9.62,3.93-9.62,9.87,4.18,9.87,9.62,9.87S357.56,88.83,357.56,82.89Z"/><path d="M377.07,50.76a7.53,7.53,0,1,1,7.53,7.53A7.61,7.61,0,0,1,377.07,50.76ZM378.32,62h12.55V103.8H378.32Z"/><path d="M442.18,78.12V103.8H429.63V80c0-5.19-3.26-7.61-7.27-7.61-4.6,0-7.78,2.67-7.78,8.61V103.8H402V62h12.55v3.94c2.25-3.1,6.44-5.11,12-5.11C435,60.8,442.18,66.82,442.18,78.12Z"/><path d="M468.22,74V88.83c0,3.6,3.1,3.93,8.61,3.6V103.8c-16.39,1.68-21.16-3.26-21.16-15V74H449V62h6.69V54l12.55-3.76V62h8.61V74Z"/><path class="cls-1" d="M17.22,71.59a20.79,20.79,0,0,1,41.2,0H75.5A37.74,37.74,0,0,0,17,42.88V0H0V71.59Z"/><path d="M58.42,77.26a20.79,20.79,0,0,1-41.2,0H0v71.65H17V106A37.74,37.74,0,0,0,75.5,77.26Z"/></svg>