<?xml version="1.0" encoding="utf-8"?>
<!-- Generator: Adobe Illustrator 26.3.1, SVG Export Plug-In . SVG Version: 6.00 Build 0)  -->
<svg version="1.1" id="Layer_1" xmlns="http://www.w3.org/2000/svg" xmlns:xlink="http://www.w3.org/1999/xlink" x="0px" y="0px"
	 viewBox="0 0 417 42" style="enable-background:new 0 0 417 42;" xml:space="preserve">
<style type="text/css">
	.st0{fill-rule:evenodd;clip-rule:evenodd;fill:#0099D8;}
	.st1{fill-rule:evenodd;clip-rule:evenodd;fill:#0092D0;}
	.st2{fill-rule:evenodd;clip-rule:evenodd;fill:#FFFFFF;}
	.st3{fill-rule:evenodd;clip-rule:evenodd;fill:#1C1C1A;}
	.st4{fill-rule:evenodd;clip-rule:evenodd;}
</style>
<g id="Logo---New">
	<path id="Fill-1" class="st0" d="M61.2,4.9c-4.9,0-9-1.2-13.2-3.3C45.3,7,44.9,15.7,47.2,23c2.3,7,6.7,13.5,14,17.5
		c7.3-4,11.7-10.4,14-17.5c2.4-7.3,1.9-16-0.8-21.4C70.2,3.7,66.1,4.8,61.2,4.9z"/>
	<path id="Fill-3" class="st1" d="M61.2,35.8L61.2,35.8L61.2,35.8z"/>
	<path id="Fill-5" class="st2" d="M61.2,37.3L61.2,37.3L61.2,37.3c-6-3.7-9.2-9-11.2-15.1c-1.8-5.3-2.3-11.6-0.3-16.5
		c3,1,4.8,1.3,6.4,1.6c1.5,0.2,2.9,0.4,5.1,0.4l0,0c2.2,0,3.6-0.2,5.1-0.4c1.6-0.3,3.4-0.6,6.4-1.6c2,4.9,1.6,11.1-0.3,16.5
		C70.4,28.2,67.2,33.5,61.2,37.3z"/>
	<path id="Fill-7" class="st0" d="M61.2,9.1L61.2,9.1c-1.7,0-3.5-0.2-5.2-0.4c-1.8-0.2-3.5-0.6-5.3-1.1c-1.3,3.6-1,8.2,0,12.2
		c1.8,7.6,6.4,13.4,10.5,16c4.1-2.6,8.7-8.4,10.5-16c1-4,1.2-8.6,0-12.2c-1.8,0.5-3.5,0.9-5.3,1.1C64.7,9,62.9,9.1,61.2,9.1z"/>
	<path id="Fill-9" class="st2" d="M65.5,12.8c-0.1,0.3-0.2,0.3-0.4,0.5c-0.4,0.4-1,0.8-1.5,1.3c-0.3,0.3-0.7,0.5-0.9,0.9
		c-0.1,0.1-0.2,0.3-0.2,0.3c-0.9-0.2-1.8-0.2-2.5-0.3v-0.8c0,0,0.9,0,1-0.5c0,0,0-0.2-0.1-0.3s-0.4-0.2-0.5-0.2
		c0.7,0.1,1.3,0.4,2,0.7c0-0.1-0.1-0.3-0.1-0.4c-0.1-0.1-0.2-0.2-0.4-0.3c-0.4-0.1-1.5-0.2-1.5-0.2s0.4,0,0.9,0
		c0.2,0,0.4-0.1,0.5-0.2c0.1-0.1,0-0.3-0.2-0.4c-0.1-0.1-0.2-0.2-0.3-0.3s-0.2-0.4-0.4-0.6c-0.2-0.3-0.9-0.5-0.9-0.5
		s-0.1-0.5,0.1-0.7c0.1-0.2,0.5-0.2,0.6-0.1c0.5,0.3,1.1,0.6,1.8,0.7c0.1,0.1,0.1,0.1,0.2,0.3c0.1,0.5-0.1,1.1,0,1.5
		c0,0.1,0.1,0.1,0.2,0.1c0.6-0.3,1.1-0.9,1.7-1.2C64.9,11.7,65.7,12.2,65.5,12.8"/>
	<path id="Fill-11" class="st2" d="M62.7,21.6c0,0,0.1-1.4,0.1-2c0.4-0.1,0.4-0.5,0.3-0.8c-0.1-0.2-0.4-0.3-0.5-0.3
		c-0.7-0.2-1.4-0.2-2.2-0.3c-0.7-0.1-1.2-0.2-1.8-0.3c-1.3-0.3-2.4-0.9-2.9-2.1c-0.7-1.4-0.1-3.2,1.3-3.9c1-0.5,2.2-0.4,3.3,0
		c0.4,0.1,0.6,0.5,0.8,0.8c0.1,0.1,0.3,0.2,0.3,0.3s-0.1,0.1-0.1,0.1c-0.2,0.1-1,0.1-1.3,0c-0.3,0-0.8,0-1.2,0
		c0.3,0.2,0.7,0.4,1,0.5c0.2,0.1,0.4,0.1,0.5,0.2c0.1,0,0.3,0.1,0.3,0.2c0,0.1-0.2,0.1-0.3,0.2c-0.3,0.1-0.7,0.1-1.1,0
		c-0.6-0.1-0.9-0.5-1.3-0.3c-0.2,0.2-0.3,0.5-0.2,0.8c0.1,0.5,0.7,0.8,1.2,0.9c1.6,0.5,3.4,0.2,5,1.1c0.6,0.3,1.3,1,1.4,1.6
		C65.9,21.3,62.7,21.6,62.7,21.6"/>
	<path id="Fill-13" class="st2" d="M60.1,18.8c0,0,0.3,0,1.1,0.1c0.6,0,1,0.2,1,0.2L62.1,22c-0.6-0.1-1.1-0.2-1.7-0.3
		c-0.2-1-0.5-1.4-0.9-2.2c-0.1-0.2,0-0.2,0-0.3C59.6,19.1,60,19,60,19L60.1,18.8z"/>
	<path id="Fill-15" class="st2" d="M64.5,25c-0.1,0.5-0.4,0.8-0.9,1.1c-0.5,0.3-1.1,0.3-1.1,0.3v-1.6c0,0,0.1,0,0.2-0.1
		c0.1-0.1,0.1-0.2,0.1-0.3c0-0.1-0.1-0.2-0.2-0.3C62.4,24,62.2,24,62.1,24c-0.8-0.1-1.5-0.2-2.3-0.3c-1.4-0.2-2.4-1-2.3-2.3
		c0.1-0.9,1-1.2,1.6-1.4c0.2,0.4,0.4,0.8,0.5,1c0.1,0.4,0.2,0.6,0.2,0.6s-0.3,0.1-0.3,0.3c0,0.2,0.3,0.3,0.4,0.3
		c1,0.1,2.2,0.3,2.9,0.5c0.4,0.2,0.9,0.4,1.1,0.8C64.5,24.1,64.6,24.5,64.5,25"/>
	<path id="Fill-17" class="st2" d="M60.7,24.5c0.6,0.1,0.9,0.1,1.4,0.2L62,27.2l-0.6-0.3l-0.6-0.3L60.7,24.5z"/>
	<path id="Fill-19" class="st2" d="M63.1,30.6c-0.3,0.3-0.8,0.4-0.8,0.4v-1.1c0,0,0.1-0.1,0.1-0.2c-0.1-0.2-0.8-0.8-1.3-0.9
		c-0.4-0.2-1-0.3-1.4-0.5c-1-0.4-1.3-1.3-0.9-2.2c0.1-0.3,0.5-0.6,0.7-0.7s0.6-0.2,0.6-0.2l0.1,1.3c0,0-0.1,0-0.2,0.2
		c-0.1,0.2,0.1,0.4,0.2,0.4c0.6,0.3,1.5,0.6,2.2,1c0.9,0.5,1.1,0.9,1.1,1.5C63.6,30,63.4,30.4,63.1,30.6"/>
	<path id="Fill-21" class="st2" d="M61.9,33.5c0,0.2-0.1,0.4-0.5,0.4c-0.3,0-0.5-0.1-0.5-0.4c-0.1-1.5-0.1-4.3-0.1-4.3
		s0.4,0.1,0.6,0.2c0.1,0,0.3,0.2,0.5,0.4c0,0.1,0.1,0.1,0.1,0.2C61.9,31,61.9,33,61.9,33.5"/>
	<path id="Fill-23" class="st2" d="M60.3,33c-0.1,0.3-0.3,0.2-0.4,0c-0.2-0.3-0.3-0.5-0.3-0.9c-0.1-0.7,0.3-1.1,0.5-1.3
		c0.2-0.2,0.4-0.3,0.4-0.3l0.1,1.2c0,0-0.2,0.1-0.3,0.5C60.1,32.6,60.3,32.8,60.3,33z"/>
	<path id="Fill-25" class="st0" d="M59.7,12.5c0.2,0,0.2-0.1,0.4-0.2h0.2C60,12,59.3,12,58.9,12c0.1,0.2,0.2,0.1,0.4,0.2
		C59.4,12.3,59.4,12.5,59.7,12.5z"/>
	<polygon id="Fill-27" class="st0" points="29.1,12.4 29.1,1.6 11.8,1.6 11.8,12.4 1,12.4 1,29.7 11.8,29.7 11.8,40.5 29.1,40.5 
		29.1,29.7 39.9,29.7 39.9,12.4 	"/>
	<path id="Fill-30" class="st2" d="M27,29.4l-4.9-9.2c-0.4-0.8-0.2-2.1,1.1-2.3l7.1-0.7l0,0l0,0c0.4,1.2,0.7,2.4,0.7,3.8
		C31.1,24.4,29.5,27.4,27,29.4L27,29.4z"/>
	<path id="Fill-32" class="st2" d="M26.3,29.9L26.3,29.9c-1.7,1.1-3.7,1.7-5.9,1.7s-4.2-0.6-5.8-1.7l0,0l0,0l0,0l5.2-7.8
		c0.4-0.5,1-0.5,1.3,0L26.3,29.9L26.3,29.9L26.3,29.9z"/>
	<path id="Fill-34" class="st2" d="M10.5,17.3l7.1,0.7c1.3,0.2,1.5,1.5,1.1,2.3l-4.9,9.2l0,0c-2.5-1.9-4.1-5-4.1-8.4
		C9.8,19.7,10,18.4,10.5,17.3z"/>
	<path id="Fill-36" class="st0" d="M20.4,23.8l-0.2,0.1l-3.6,5.5c1.1,0.5,2.4,0.8,3.7,0.8c1.3,0,2.6-0.3,3.7-0.8l-3.6-5.5V23.8z"/>
	<path id="Fill-38" class="st0" d="M11.5,18.8c-0.2,0.7-0.3,1.4-0.3,2.2c0,2.3,0.8,4.4,2.2,6l3.8-7.2c0.1-0.2,0.1-0.4-0.3-0.4
		L11.5,18.8z"/>
	<path id="Fill-40" class="st2" d="M30.1,16.5h-7.6c-1.1,0-1.6-0.7-1.6-1.2c0-0.6,0.1-0.8,0.6-1.5s0.2-2.1-1.1-2.2
		c-1.2,0-1.6,1.4-1.1,2.2c0.5,0.7,0.6,0.8,0.6,1.5c0,0.5-0.5,1.1-1.6,1.2h-7.6c1.7-3.6,5.4-6.1,9.6-6.1
		C24.7,10.4,28.4,12.9,30.1,16.5z"/>
	<path id="Fill-42" class="st0" d="M27.4,15c-1.1-1.3-2.7-2.3-4.4-2.8c0.5,0.9,0.1,2.1-0.4,2.6c-0.1,0.1,0,0.2,0,0.2
		S27.4,15,27.4,15z"/>
	<path id="Fill-44" class="st0" d="M23.9,19.3c-0.4,0-0.4,0.2-0.3,0.4l3.8,7.2c1.4-1.6,2.2-3.7,2.2-6c0-0.7-0.1-1.5-0.3-2.2
		L23.9,19.3z"/>
	<path id="Fill-46" class="st0" d="M13.5,15h4.8c0.1,0,0.1-0.1,0-0.2c-0.5-0.6-0.9-1.7-0.4-2.6C16.1,12.7,14.6,13.7,13.5,15z"/>
	<path id="Fill-48" class="st3" d="M84.3,11.7V1.3h3.9C90.1,1.2,92,1.9,92,4c0,1.1-0.8,1.9-1.8,2.3l0,0c1.3,0.3,2.3,1.2,2.3,2.7
		c0,2.1-2.6,2.8-4.2,2.7H84.3z M88.3,5.4c0.9,0,1.5-0.4,1.5-1.2S89.3,3,88.3,3h-1.7v2.4C86.6,5.4,88.3,5.4,88.3,5.4z M88.3,9.9
		c1.1,0,1.8-0.2,1.8-1.4s-0.7-1.4-1.8-1.4h-1.7v2.8H88.3z"/>
	<polygon id="Fill-50" class="st3" points="93.9,11.7 96.1,11.7 96.1,1.3 93.9,1.3 	"/>
	<path id="Fill-52" class="st3" d="M102.6,10.8c-0.5,0.7-1.1,1.1-2.2,1.1c-0.7,0-2.1-0.5-2.4-1.6c-0.1-0.4-0.1-0.9-0.1-1.2V4.4h2.2
		v4.3c0,0.8,0.2,1.7,1.3,1.7c0.7,0,1.3-0.6,1.3-1.7V4.4h2.2v5.9c0,0.4,0,0.9,0.1,1.3h-2.2L102.6,10.8z"/>
	<path id="Fill-53" class="st3" d="M108.6,8.6c0,0.9,0.1,1.8,1.2,1.8c0.7,0,1.1-0.3,1.3-0.9h1.9c-0.2,1.8-1.6,2.4-3.3,2.4
		c-2.5,0-3.5-1.4-3.5-3.8c0-2.2,1.3-3.8,3.5-3.8c1.4,0,2.5,0.5,3.1,1.7c0.2,0.4,0.3,0.8,0.4,1.3c0.1,0.4,0.1,0.9,0.1,1.4h-4.7V8.6z
		 M111.1,7.2c0-0.8-0.2-1.5-1.3-1.5c-1,0-1.2,0.7-1.2,1.5H111.1z"/>
	<path id="Fill-54" class="st3" d="M120.6,4.6c0-1.1-0.6-2-2-2c-1.6,0-2,2.3-2,3.8s0.4,3.8,2,3.8c1.3,0,2-0.9,2-2h2.4
		c-0.1,2.6-2,3.6-4.4,3.6c-3,0-4.4-2.4-4.4-5.4s1.4-5.4,4.4-5.4c2.4,0,4.3,1,4.4,3.6C123,4.6,120.6,4.6,120.6,4.6z"/>
	<path id="Fill-55" class="st3" d="M126.1,4.4v1.3l0,0c0.5-1.1,1.4-1.4,2.5-1.4v1.9h-0.9c-0.4,0-0.8,0.2-1.1,0.5
		c-0.2,0.4-0.3,0.8-0.3,1.3v3.6h-2.1V5.8c0-0.3,0-0.9-0.1-1.4H126.1z"/>
	<path id="Fill-56" class="st3" d="M133.4,11.9c-2.4,0-3.8-1.6-3.8-3.8c0-2.3,1.4-3.8,3.8-3.8c2.4,0,3.8,1.6,3.8,3.8
		C137.1,10.3,135.7,11.9,133.4,11.9 M133.4,10.4c1.3,0,1.5-1.2,1.5-2.4c0-1.1-0.2-2.4-1.5-2.4s-1.5,1.2-1.5,2.4
		C131.8,9.2,132.1,10.4,133.4,10.4"/>
	<path id="Fill-57" class="st3" d="M142.3,6.4c0-0.5-0.5-0.7-1-0.7c-0.6,0-0.9,0.2-0.9,0.6c0,1.1,4.1,0.5,4.1,3.2
		c0,1.6-1.9,2.4-3.3,2.4c-1.7,0-3.2-0.7-3.2-2.3h2c0,0.6,0.5,0.9,1.2,0.9c0.6,0,1-0.2,1-0.8s-1-0.8-1.5-0.9
		c-1.4-0.3-2.7-0.6-2.7-2.3c0-1.5,1.8-2.2,3.1-2.2c1.5,0,2.8,0.5,2.9,2.1C144,6.4,142.3,6.4,142.3,6.4z"/>
	<path id="Fill-58" class="st3" d="M149.5,6.4c0-0.5-0.5-0.7-1-0.7c-0.6,0-0.9,0.2-0.9,0.6c0,1.1,4.1,0.5,4.1,3.2
		c0,1.6-1.9,2.4-3.3,2.4c-1.7,0-3.2-0.7-3.2-2.3h2c0,0.6,0.5,0.9,1.2,0.9c0.6,0,1-0.2,1-0.8s-1-0.8-1.5-0.9
		c-1.4-0.3-2.7-0.6-2.7-2.3c0-1.5,1.8-2.2,3.1-2.2c1.5,0,2.8,0.5,2.9,2.1C151.2,6.4,149.5,6.4,149.5,6.4z"/>
	<path id="Fill-59" class="st3" d="M84.3,25.8V15.4h3.9c1.9-0.1,3.8,0.7,3.8,2.7c0,1.1-0.8,1.9-1.8,2.3l0,0c1.3,0.3,2.3,1.2,2.3,2.7
		c0,2.1-2.6,2.8-4.2,2.7C88.3,25.8,84.3,25.8,84.3,25.8z M88.3,19.5c0.9,0,1.5-0.4,1.5-1.2s-0.5-1.2-1.5-1.2h-1.7v2.4
		C86.6,19.5,88.3,19.5,88.3,19.5z M88.3,24c1.1,0,1.8-0.2,1.8-1.4s-0.7-1.4-1.8-1.4h-1.7V24H88.3z"/>
	<polygon id="Fill-60" class="st3" points="93.9,25.8 96.1,25.8 96.1,15.4 93.9,15.4 	"/>
	<path id="Fill-61" class="st3" d="M102.6,24.9c-0.5,0.7-1.1,1.1-2.2,1.1c-0.7,0-2.1-0.5-2.4-1.6c-0.1-0.4-0.1-0.9-0.1-1.2v-4.7h2.2
		v4.3c0,0.8,0.2,1.7,1.3,1.7c0.7,0,1.3-0.6,1.3-1.7v-4.3h2.2v5.9c0,0.4,0,0.9,0.1,1.3h-2.2L102.6,24.9z"/>
	<path id="Fill-62" class="st3" d="M108.6,22.7c0,0.9,0.1,1.8,1.2,1.8c0.7,0,1.1-0.3,1.3-0.9h1.9c-0.2,1.8-1.6,2.4-3.3,2.4
		c-2.5,0-3.5-1.4-3.5-3.8c0-2.2,1.3-3.8,3.5-3.8c1.4,0,2.5,0.5,3.1,1.7c0.2,0.4,0.3,0.8,0.4,1.3c0.1,0.4,0.1,0.9,0.1,1.4h-4.7V22.7z
		 M111.1,21.3c0-0.8-0.2-1.5-1.3-1.5c-1,0-1.2,0.7-1.2,1.5H111.1z"/>
	<path id="Fill-63" class="st3" d="M120.3,18.3c-0.1-1-0.6-1.6-1.7-1.6c-0.8,0-1.7,0.4-1.7,1.3c0,1.1,1,1.3,1.9,1.5
		c1.6,0.4,3.9,0.8,3.9,2.9c0,2.6-2.2,3.5-4.5,3.5c-2.4,0-4.1-0.9-4-3.5h2.3c-0.1,1.1,0.6,1.9,1.7,1.9c0.9,0,2.1-0.3,2.1-1.4
		c0-1.2-1.5-1.3-2.4-1.5c-1.5-0.4-3.4-1-3.4-2.9c0-2.4,2.2-3.4,4.3-3.4c2,0,3.6,1.1,3.6,3.2H120.3z"/>
	<path id="Fill-64" class="st3" d="M124.3,25.8V15.4h2.1v4l0,0c0.4-0.7,1.1-1.1,2.2-1.1c0.7,0,2.1,0.5,2.4,1.6
		c0.1,0.4,0.1,0.9,0.1,1.2v4.7h-2.2v-4.3c0-0.8-0.2-1.7-1.3-1.7c-0.7,0-1.3,0.6-1.3,1.7v4.3H124.3z"/>
	<path id="Fill-65" class="st3" d="M133,17.2h2.3v-1.9H133V17.2z M133.1,25.8h2.2v-7.2h-2.2V25.8z"/>
	<path id="Fill-66" class="st3" d="M139,22.7c0,0.9,0.1,1.8,1.2,1.8c0.7,0,1.1-0.3,1.3-0.9h1.9c-0.2,1.8-1.6,2.4-3.3,2.4
		c-2.5,0-3.5-1.4-3.5-3.8c0-2.2,1.3-3.8,3.5-3.8c1.4,0,2.5,0.5,3.1,1.7c0.2,0.4,0.3,0.8,0.4,1.3c0.1,0.4,0.1,0.9,0.1,1.4H139V22.7z
		 M141.5,21.3c0-0.8-0.2-1.5-1.3-1.5c-1,0-1.2,0.7-1.2,1.5H141.5z"/>
	<polygon id="Fill-67" class="st3" points="145.1,25.8 147.3,25.8 147.3,15.4 145.1,15.4 	"/>
	<path id="Fill-68" class="st3" d="M154.1,15.4h2.2v8.9c0,0.5,0,1,0.1,1.4h-2.2c0-0.3-0.1-0.7-0.1-1l0,0c-0.5,0.8-1.3,1.2-2.2,1.2
		c-2.1,0-3.1-2-3.1-3.8c0-1.9,1.1-3.8,3.4-3.8c0.7,0,1.5,0.4,1.9,1.1l0,0L154.1,15.4L154.1,15.4z M152.5,24.5c1.2,0,1.6-1.4,1.6-2.4
		s-0.4-2.4-1.6-2.4c-1.4,0-1.6,1.3-1.6,2.4S151.2,24.5,152.5,24.5L152.5,24.5z"/>
	<path id="Fill-69" class="st3" d="M69.3,38.6v-0.5h0.3c0.2,0,0.4,0,0.4,0.2c0,0.3-0.2,0.3-0.4,0.3H69.3z M69.3,38.8h0.3l0.4,0.7
		h0.3l-0.5-0.7c0.2,0,0.4-0.2,0.4-0.5s-0.2-0.5-0.6-0.5H69v1.7h0.3V38.8z M69.6,40.2c0.8,0,1.5-0.6,1.5-1.4c0-0.8-0.7-1.4-1.5-1.4
		s-1.5,0.6-1.5,1.4C68.1,39.6,68.8,40.2,69.6,40.2L69.6,40.2z M68.4,38.7c0-0.7,0.5-1.2,1.2-1.2s1.2,0.5,1.2,1.2s-0.5,1.2-1.2,1.2
		S68.4,39.4,68.4,38.7L68.4,38.7z"/>
	<path id="Fill-70" class="st4" d="M32.1,38.9v-0.5h0.3c0.2,0,0.4,0,0.4,0.2c0,0.3-0.2,0.3-0.4,0.3H32.1z M32.1,39.2h0.3l0.4,0.7
		h0.3l-0.5-0.7c0.2,0,0.4-0.2,0.4-0.5s-0.2-0.5-0.6-0.5h-0.6v1.7h0.3C32.1,39.9,32.1,39.2,32.1,39.2z M32.4,40.5
		c0.8,0,1.5-0.6,1.5-1.4c0-0.8-0.7-1.4-1.5-1.4s-1.5,0.6-1.5,1.4C30.9,39.9,31.6,40.5,32.4,40.5L32.4,40.5z M31.2,39
		c0-0.7,0.5-1.2,1.2-1.2s1.2,0.5,1.2,1.2s-0.5,1.2-1.2,1.2C31.7,40.3,31.2,39.7,31.2,39L31.2,39z"/>
	<path id="Fill-71" class="st3" d="M91,36.6l-2.2-5.7l-2.2,5.7H91z M84.3,40.2l4-10.1h1.1l4,10.1h-1l-1.1-2.7h-5l-1.1,2.7H84.3z"/>
	<path id="Fill-72" class="st3" d="M95.2,40.2h-0.8v-5.4c0-0.5,0-1.1-0.1-1.6h0.9v1l0,0c0.3-0.7,0.9-1.2,1.6-1.2c0.3,0,0.6,0,0.8,0
		v0.8c-0.2,0-0.4-0.1-0.5-0.1c-1.2,0-1.9,0.9-1.9,2.2V40.2z"/>
	<path id="Fill-73" class="st3" d="M98.8,40.2h0.8v-7h-0.8V40.2z M98.8,31.1h1v-1h-1V31.1z"/>
	<polygon id="Fill-74" class="st3" points="101.1,39.4 105.2,33.9 101.1,33.9 101.1,33.1 106.2,33.1 106.2,33.9 102.2,39.4 
		106.2,39.4 106.2,40.2 101.1,40.2 	"/>
	<path id="Fill-75" class="st3" d="M110.5,33.7c-1.7,0-2.4,1.7-2.4,3s0.7,3,2.4,3s2.4-1.7,2.4-3C112.8,35.3,112.1,33.7,110.5,33.7
		 M113.7,36.6c0,1.8-1,3.7-3.3,3.7c-2.2,0-3.3-1.9-3.3-3.7s1-3.7,3.3-3.7C112.7,32.9,113.7,34.8,113.7,36.6"/>
	<path id="Fill-76" class="st3" d="M116.1,40.2h-0.8v-5.4c0-0.5,0-1.1-0.1-1.6h0.9v1l0,0c0.5-0.9,1.3-1.3,2.2-1.3
		c2.3,0,2.5,2,2.5,2.8v4.4H120v-4.5c0-1.2-0.7-1.9-1.8-1.9c-1.4,0-2,1.2-2,2.4L116.1,40.2L116.1,40.2z"/>
	<path id="Fill-77" class="st3" d="M124.7,39.6c1.8,0,2.2-1.5,2.1-3c-1.2,0-3.7-0.2-3.7,1.6C123.1,39.2,123.8,39.6,124.7,39.6
		L124.7,39.6z M126.8,35.2c-0.1-1.1-0.7-1.5-1.7-1.5c-0.9,0-1.6,0.3-1.7,1.2h-0.9c0.2-1.4,1.3-2,2.6-2c1.6,0,2.5,0.7,2.5,2.3v3.3
		c0,0.5,0,1.1,0.1,1.6h-0.9v-1l0,0v0.1c-0.3,0.6-1.2,1.1-2.2,1.1c-1.3,0-2.3-0.8-2.3-2.2c0-1,0.6-1.7,1.4-2c0.9-0.4,2.2-0.3,3.2-0.3
		L126.8,35.2L126.8,35.2z"/>
</g>
</svg>
