<?xml version="1.0" encoding="UTF-8"?><svg version="1.1" width="245px" height="41px" viewBox="0 0 245.0 41.0" xmlns="http://www.w3.org/2000/svg" xmlns:xlink="http://www.w3.org/1999/xlink"><defs><clipPath id="i0"><path d="M26.8506664,0.000888385721 C39.6093701,0.0578285367 52.2388512,2.85991486 52.2388512,10.7147821 C52.2388512,13.8248742 46.4207993,17.5237849 38.611259,18.8502664 C48.5308585,19.6419171 56.136053,24.2666907 56.136053,28.9030691 C56.136053,36.5027134 42.1159151,39.0164187 29.2259859,39.0164187 L0,39.0164187 L6.74189668,35.6414339 L6.74189668,3.37246201 L0,0 Z M29.2259859,21.0965562 L18.6454161,21.0965562 L18.6454161,35.8407341 L29.2259859,35.8407341 C37.0269486,35.8407341 43.6376604,33.201394 43.6376604,28.9030691 C43.6376604,24.7364336 37.3564246,21.0965562 29.2259859,21.0965562 Z M26.4494062,3.17820739 L18.6454161,3.17820739 L18.6454161,17.9208716 L26.4494062,17.9208716 C34.0500597,17.9208716 39.8065556,14.6811082 39.8065556,10.7127638 C39.8065556,6.67832244 34.1832628,3.17820739 26.4494062,3.17820739 Z"></path></clipPath><clipPath id="i1"><path d="M67.0531626,0 L67.0531626,40.7359 L0,40.7359 L0,0 L67.0531626,0 Z"></path></clipPath><clipPath id="i2"><path d="M33.5298609,0 C54.155665,0 67.0531626,10.1860058 67.0531626,20.3720117 C67.0531626,30.5554947 54.155665,40.7359505 33.5298609,40.7359505 C12.8929566,40.7359505 -0.00252278726,30.5554947 0,20.3720117 C0,10.1860058 12.8964885,0 33.5298609,0 Z M33.5298609,3.24279074 C18.6474343,3.24279074 14.6821173,12.6361368 14.6821173,20.3720117 C14.6821173,28.1068774 18.6474343,37.499719 33.5298609,37.499719 C48.4032055,37.499719 52.3765954,28.1068774 52.3765954,20.3720117 C52.3765954,12.6361368 48.4032055,3.24279074 33.5298609,3.24279074 Z"></path></clipPath><clipPath id="i3"><path d="M26.4509199,0 L19.8361717,3.30989689 L35.3114533,17.2599013 L50.1893389,3.30989689 L43.5750952,0 L64.474874,0 L57.7955425,3.37246201 L38.4841105,20.967894 L38.4841105,35.6459749 L45.2325665,39.0159141 L19.8361717,39.0159141 L26.5790775,35.6459749 L26.5790775,20.8962469 L6.87610896,3.43754992 L0,0 L26.4509199,0 Z"></path></clipPath><clipPath id="i4"><path d="M32.0050883,0 C52.0466149,0 65.4688522,9.51948545 65.4688522,19.5107321 C65.4688522,29.4959241 52.0445966,39.0164187 32.0050883,39.0164187 L0,39.0164187 L6.75097871,35.6414339 L6.75097871,3.37246201 L0,0 Z M29.2295178,3.17820739 L18.6509662,3.17820739 L18.6509662,35.8382113 L29.2295178,35.8382113 C44.2436339,35.8382113 50.8548502,27.1810145 50.8548502,19.5107321 C50.8548502,11.8354042 44.2436339,3.17820739 29.2295178,3.17820739 Z"></path></clipPath><clipPath id="i5"><path d="M9.82418769,0 L9.82418769,9.6209015 L0,9.6209015 L0,0 L9.82418769,0 Z"></path></clipPath><clipPath id="i6"><path d="M4.92700352,0 C7.69651937,0 9.82423815,2.12872789 9.82423815,4.78118642 C9.82423815,7.49267816 7.69651937,9.6209015 4.92700352,9.6209015 C2.18624744,9.6209015 0,7.49267816 0,4.78118642 C0,2.12872789 2.18624744,0 4.92700352,0 Z M4.92700352,0.962191061 C2.79777107,0.962191061 1.22405638,2.68273197 1.22405638,4.78118642 C1.22405638,6.90991431 2.79777107,8.60068633 4.95576329,8.60068633 C7.0547223,8.60068633 8.60018177,6.90991431 8.60018177,4.81045075 C8.60018177,2.68273197 7.0547223,0.962191061 4.92700352,0.962191061 Z M4.89723463,2.36183343 C5.80089703,2.36183343 6.20958856,2.50765054 6.55975144,2.71199631 C6.82161675,2.91533296 7.02495341,3.29476016 7.02495341,3.76097125 C7.02495341,4.28621556 6.61777554,4.69389798 6.03450713,4.86897941 L6.03450713,4.92700352 C6.50122277,5.10208496 6.76308809,5.45224783 6.90840063,6.09354035 C7.0547223,6.82212131 7.14150618,7.11426008 7.25856351,7.28883695 L6.06276234,7.28883695 C5.9174498,7.11426008 5.8296568,6.67630421 5.68434426,6.12280468 C5.59756037,5.59756037 5.30592617,5.36495939 4.69389798,5.36495939 L4.16865367,5.36495939 L4.16865367,7.28883695 L3.05963639,7.28883695 L3.05963639,2.50765054 C3.49809682,2.4203621 4.11012501,2.36183343 4.89723463,2.36183343 Z M4.81045075,3.14894306 C4.51881654,3.14894306 4.31497533,3.17820739 4.19842256,3.20747172 L4.19842256,4.57784976 L4.72215319,4.57784976 C5.33418138,4.57784976 5.8296568,4.373504 5.8296568,3.87752402 C5.8296568,3.44057727 5.51077649,3.14894306 4.81045075,3.14894306 Z"></path></clipPath></defs><g transform="translate(-121.0 -13.0)"><g transform="translate(121.00000000000172 12.999999999999837)"><g transform="translate(0.0 0.8608759248364137)"><g clip-path="url(#i0)"><polygon points="0,0 56.136053,0 56.136053,39.0164187 0,39.0164187 0,0" stroke="none" fill="#005595"></polygon></g></g><g transform="translate(57.19759143342679 0.0)"><g clip-path="url(#i1)"><g clip-path="url(#i2)"><polygon points="0,0 67.0531626,0 67.0531626,40.7359 0,40.7359 0,0" stroke="none" fill="#005595"></polygon></g></g></g><g transform="translate(113.7370885820311 0.8609768363268451)"><g clip-path="url(#i3)"><polygon points="0,0 64.474874,0 64.474874,39.0159141 0,39.0159141 0,0" stroke="none" fill="#005595"></polygon></g></g><g transform="translate(171.92527766123874 0.8608759248364137)"><g clip-path="url(#i4)"><polygon points="0,0 65.4688522,0 65.4688522,39.0164187 0,39.0164187 0,0" stroke="none" fill="#005595"></polygon></g></g><g transform="translate(234.4129017015975 1.0946373924115527)"><g clip-path="url(#i5)"><g clip-path="url(#i6)"><polygon points="0,0 9.82418769,0 9.82418769,9.6209015 0,9.6209015 0,0" stroke="none" fill="#005595"></polygon></g></g></g></g></g></svg>