<?xml version="1.0" encoding="utf-8"?>
<!-- Generator: Adobe Illustrator 24.2.0, SVG Export Plug-In . SVG Version: 6.00 Build 0)  -->
<svg version="1.1" id="Layer_1" xmlns="http://www.w3.org/2000/svg" xmlns:xlink="http://www.w3.org/1999/xlink" x="0px" y="0px"
	 viewBox="0 0 234 62.7" style="enable-background:new 0 0 234 62.7;" xml:space="preserve">
<style type="text/css">
	.st0{fill:#B5985A;}
	.st1{fill:#587B7C;}
</style>
<g id="Logo">
	<g>
		<g>
			<path class="st0" d="M162.4,24.3c0-5.5-12.3-5.9-12.3-9.4c0-4.6,11.2-5.7,29.5-5.8c-4.3-4.9-10.5-8-17.5-8
				c-12.8,0-23.2,10.4-23.2,23.2c0,4.8,1.5,9.3,4,13C145.7,31.9,162.4,29.8,162.4,24.3z"/>
			<path class="st0" d="M163.3,14.1c0,4.1,20.5,2.2,22.1,10.5c0-0.1,0-0.2,0-0.4c0-5.4-1.9-10.4-5-14.3
				C166.8,10.1,163.3,11.4,163.3,14.1z"/>
		</g>
	</g>
	<g>
		<g>
			<g>
				<path class="st1" d="M0,54.3c2.2,0,2.6-0.5,2.6-2.9C2.6,48,2.8,40.5,2.8,38s-0.4-2.9-2.5-2.9v-0.7c1.4,0,2.9,0.1,4.2,0.1
					c1.1,0,1.8-0.1,3.2-0.1c5.4,0,8,1.9,8,4.8c0,3.6-3,4.4-5.2,5v0.1c3.3,0.7,6.3,1.6,6.3,5.5c0,4.3-4.7,5.3-8.1,5.3
					c-0.4,0-1.1,0-1.8-0.1c-0.8,0-1.5,0-2.1,0H0V54.3L0,54.3z M5.4,42.5c0,1.2,0.3,1.3,2.2,1.3c3.7,0,5.2-1.5,5.2-4.1
					c0-3.3-1.6-4.6-5.1-4.6c-1.7,0-2.3,0.7-2.3,2.1L5.4,42.5L5.4,42.5z M5.4,53c0,1.4,0.3,1.5,2.9,1.5c3.8,0,5.7-1.7,5.7-4.8
					c0-3.7-2.4-5.1-6.5-5.1c-1.8,0-2.1,0.3-2.1,1.9V53L5.4,53z"/>
			</g>
			<g>
				<path class="st1" d="M17.4,54.5c1.6,0,2-0.5,2-2.9v-5.8c0-0.8-0.2-1.1-0.8-1.4c-0.5-0.2-0.6-0.3-0.6-0.5c0-0.3,0.3-0.4,1.5-0.9
					c1.4-0.6,1.5-1,1.9-1c0.2,0,0.3,0.1,0.3,0.4v1.1c0,0.3,0.1,0.4,0.3,0.4c0.3,0,1.9-1.6,3.6-1.6c0.9,0,1.4,0.4,1.4,1.1
					c0,0.6-0.4,1.1-1.5,1.1c-0.4,0-1.2-0.1-1.8-0.1c-1.2,0-2,0.6-2,2.3V52c0,2,0.4,2.4,2,2.5V55h-6.2L17.4,54.5L17.4,54.5z"/>
			</g>
			<g>
				<path class="st1" d="M34.8,45.8c0-2.2-0.8-2.8-2.2-2.8c-3,0-1.8,3.3-3.7,3.3c-0.5,0-0.9-0.3-0.9-0.9c0-1.2,2.9-3.3,5.4-3.3
					c2.2,0,3.7,1.1,3.7,3.9v7.1c0,0.8,0.5,0.9,0.8,0.9c0.5,0,0.8-0.2,1.1-0.5l0.3,0.4c-0.5,0.7-1.6,1.2-2.5,1.2c-1,0-2-0.7-2-1.9
					c-1.5,1.4-3,1.9-4.3,1.9c-1.9,0-3.1-1.1-3.1-2.5c0-2.2,1.9-2.9,5.6-3.9l1.8-0.5L34.8,45.8L34.8,45.8z M34.8,48.9l-1.3,0.3
					c-2.4,0.6-3.7,1.4-3.7,2.7c0,1.2,0.7,2.2,2.1,2.2c1,0,2-0.7,2.9-1.3V48.9L34.8,48.9z"/>
			</g>
			<g>
				<path class="st1" d="M40.1,54.5c1.8,0,2.1-0.5,2.1-2.9v-6.1c0-0.8-0.2-0.9-0.8-1.3C41.1,44,41,44,41,43.8c0-0.3,0.2-0.4,0.5-0.5
					c1.1-0.7,2-1.2,2.4-1.2c0.2,0,0.4,0.1,0.4,0.4v1.3c0.9-0.6,2.2-1.5,4.3-1.5c1.9,0,4.5,0.7,4.5,4.5v4.8c0,2.5,0.4,2.9,1.9,2.9V55
					h-6v-0.5c1.5,0,1.9-0.5,1.9-2.9v-4.3c0-2.6-1.1-4-3.4-4c-1.3,0-2.5,1-3,1.6v6.6c0,2.5,0.4,2.9,2,2.9V55h-6.4V54.5L40.1,54.5z"/>
			</g>
			<g>
				<path class="st1" d="M66.2,53.5c-1.1,0.9-2.3,1.8-4.4,1.8c-4.1,0-6.2-3.3-6.2-6.2c0-3.9,3.4-6.8,6.7-6.8c2.1,0,3.3,0.8,3.8,1.3
					v-6.4c0-2.1-0.1-2.3-1.2-2.3c-0.7,0-0.8-0.1-0.8-0.3s0.2-0.3,0.7-0.4c0.9-0.3,3-1,3.3-1c0.2,0,0.4,0.1,0.4,0.4v19.7
					c0,0.6,0.2,0.8,0.6,0.8s0.8-0.2,0.9-0.2s0.2,0.2,0.2,0.3c0,0.2-0.1,0.3-0.4,0.4c-0.6,0.2-2.3,0.6-3.4,0.9L66.2,53.5L66.2,53.5z
					 M66.1,47.4c0-3.1-1-4.5-3.5-4.5c-2.9,0-4.5,2.4-4.5,5.8c0,3.6,2.1,5.8,4.3,5.8c1.6,0,3.4-1.4,3.6-2c0.1-0.3,0.1-0.9,0.1-2.1
					V47.4L66.1,47.4z"/>
			</g>
			<g>
				<path class="st1" d="M76.1,42.5V43c-1.2,0-1.6,0.4-1.6,1.2c0,1.1,2.2,5.3,3.1,8.5h0.1c1-3.2,2.6-7.5,2.6-8.4
					c0-0.9-0.6-1.1-1.4-1.3v-0.5h4V43c-0.8,0.3-1.1,0.7-1.8,2.7l-4.7,12.8c-0.8,2-1.8,4.2-3.5,4.2c-0.9,0-1.3-0.6-1.3-1.1
					c0-0.8,0.6-1.1,2.2-1.5c0.9-0.2,1.1-0.3,1.8-2.1c0.4-1.1,0.8-2.1,0.8-2.4c0-0.2-0.1-0.4-0.2-0.7l-4.1-10.1
					c-0.4-1-0.8-1.4-1.7-1.7v-0.5h5.7V42.5z"/>
				<path class="st1" d="M89.4,42.5V43c-1.2,0.1-1.6,0.5-1.6,1.1c0,1.1,2.4,6.7,2.9,8c0.7-1.2,3.2-5.9,3.2-6.5
					c0-0.3-0.1-0.5-0.2-0.7l-0.4-0.8c-0.3-0.7-1-1.1-1.6-1.2v-0.5h5.9V43c-0.7,0.1-1.7,0.3-1.7,1.2c0,1,2.2,6.2,3.1,8.2
					c0.4-1,3.1-6.8,3.1-8c0-0.8-0.3-1.1-1.4-1.4v-0.5h4.3V43c-1.2,0.5-1.6,1-3,4.2l-3.5,8h-0.8l-3.3-9l-4.2,9h-0.7l-4.3-10.8
					c-0.4-1.1-1-1.4-1.6-1.5v-0.5L89.4,42.5L89.4,42.5z"/>
				<path class="st1" d="M106.3,54.5c1.5,0,1.9-0.5,1.9-2.9v-4.5c0-2.2-0.1-2.7-1.1-2.8c-0.5-0.1-0.7-0.2-0.7-0.4
					c0-0.3,0.2-0.4,0.4-0.5c0.6-0.2,2.9-1.2,3.2-1.2c0.3,0,0.4,0.2,0.4,0.4c0,0.3,0,1.4,0,2.4v6.6c0,2.4,0.4,2.9,1.9,2.9V55h-6.1
					L106.3,54.5L106.3,54.5z M109.4,34.2c0.8,0,1.4,0.6,1.4,1.4s-0.6,1.4-1.4,1.4s-1.4-0.6-1.4-1.4S108.6,34.2,109.4,34.2z"/>
			</g>
			<g>
				<path class="st1" d="M113.4,54.5c1.8,0,2.1-0.5,2.1-2.9v-6.1c0-0.8-0.2-0.9-0.8-1.3c-0.3-0.2-0.4-0.2-0.4-0.4
					c0-0.3,0.2-0.4,0.6-0.5c1.1-0.7,2-1.2,2.4-1.2c0.2,0,0.4,0.1,0.4,0.4v1.3c0.9-0.6,2.2-1.5,4.3-1.5c1.9,0,4.4,0.7,4.4,4.5v4.8
					c0,2.5,0.4,2.9,1.9,2.9V55h-6.1v-0.5c1.5,0,1.9-0.5,1.9-2.9v-4.3c0-2.6-1.1-4-3.4-4c-1.3,0-2.5,1-3,1.6v6.6c0,2.5,0.4,2.9,2,2.9
					V55h-6.4L113.4,54.5L113.4,54.5z"/>
			</g>
			<g>
				<path class="st1" d="M131.3,46.6c-0.1,0.5-0.2,1-0.2,1.9c0,2.9,1.8,5.4,4.8,5.4c1.3,0,2.3-0.5,3.8-1.4L140,53
					c-1.5,1.2-2.9,2.2-5,2.2c-3.9,0-6.2-3.3-6.2-6.2c0-4.1,2.9-6.9,6.3-6.9c2.7,0,4.9,2.2,4.9,4.3c0,0.1-0.1,0.2-0.3,0.2H131.3
					L131.3,46.6z M137.7,45.8c-0.1-1.8-1.3-3-2.9-3c-1.9,0-2.9,1.5-3.3,3H137.7z"/>
			</g>
			<g>
				<path class="st1" d="M152.9,55.3c-4.6,0-7.8-3.2-7.8-7.6l0,0c0-4.2,3.3-7.6,7.7-7.6c2.7,0,4.3,0.7,5.8,2l-2.1,2.5
					c-1.1-1-2.1-1.5-3.9-1.5c-2.4,0-4.2,2.1-4.2,4.6l0,0c0,2.7,1.9,4.7,4.5,4.7c1.2,0,2.2-0.3,3.1-0.9v-2.1h-3.3v-2.8h6.4V53
					C157.7,54.2,155.6,55.3,152.9,55.3z"/>
			</g>
			<g>
				<path class="st1" d="M162.2,55V40.2h3.3V52h7.4v3H162.2z"/>
			</g>
			<g>
				<path class="st1" d="M181.4,55.3c-4.6,0-7.8-3.4-7.8-7.6l0,0c0-4.2,3.3-7.6,7.9-7.6s7.8,3.4,7.8,7.6l0,0
					C189.2,51.8,185.9,55.3,181.4,55.3z M185.8,47.6c0-2.5-1.9-4.6-4.5-4.6s-4.4,2.1-4.4,4.6l0,0c0,2.5,1.9,4.6,4.5,4.6
					S185.8,50.2,185.8,47.6L185.8,47.6z"/>
				<path class="st1" d="M198.9,55h-7V40.2h6.9c3,0,4.9,1.5,4.9,3.8l0,0c0,1.7-0.9,2.6-1.9,3.2c1.7,0.7,2.8,1.7,2.8,3.6l0,0
					C204.4,53.7,202.3,55,198.9,55z M200.4,44.6c0-1-0.8-1.5-2.1-1.5h-3.2v3.1h3C199.5,46.2,200.4,45.7,200.4,44.6L200.4,44.6
					L200.4,44.6z M201.2,50.5c0-1-0.7-1.6-2.4-1.6H195v3.3h3.9C200.4,52.2,201.2,51.7,201.2,50.5L201.2,50.5L201.2,50.5z"/>
				<path class="st1" d="M217.9,55l-1.4-3.3h-6.2L209,55h-3.3l6.3-14.9h3l6.3,14.9H217.9z M213.4,44l-2,4.8h3.9L213.4,44z"/>
				<path class="st1" d="M223.4,55V40.2h3.3V52h7.4v3H223.4z"/>
			</g>
		</g>
	</g>
</g>
</svg>
