<svg id="change_for_large_prints_copy" data-name="change for large prints copy" xmlns="http://www.w3.org/2000/svg" viewBox="0 0 497.97 196.59"><defs><style>.cls-1{fill:#004a98}</style></defs><title>logo_full</title><path class="cls-1" d="M79.19 413.37c-7.3-11.64-1.94-27.35 10.9-46.58a84.5 84.5 0 0 1-12.83.79c-24.42 26.77-37 50.25-28.71 64.11 12.59 21.07 87.39 6.42 190-53.08h-3C167 413.32 94.22 437.33 79.19 413.37zM98 317.66a43.51 43.51 0 0 0-12.3-2.19c-11.83 0-20.55 7.56-20.55 19.7 0 11.29 7.4 17.59 18.45 17.59a49.6 49.6 0 0 0 13.54-2.26l-1.4 9.11a81.12 81.12 0 0 1-14 1.4c-15.26 0-28.33-8.33-28.33-25.22 0-18.6 12.92-28.56 30.75-28.56a70.81 70.81 0 0 1 13.38 1.47zm21.54 42.65a35.85 35.85 0 0 1-7.16.7c-12.54 0-13.86-7.47-13.86-11 0-15.72 27.4-10.66 27.4-19.07 0-3.73-4.2-4.28-7.08-4.28a42.39 42.39 0 0 0-15.18 3.34l1.17-7.24a72.37 72.37 0 0 1 16.81-2.26c6.85 0 15.1 1.64 15.1 10.13 0 5.52-1.32 17.82-1.32 29.5H124.6c.39-3.43.62-6.93 1.32-20-4 3.58-17 3.2-17 10.12 0 3.66 3.43 4.6 6.54 4.6a17.88 17.88 0 0 0 6.07-1.17zm21.32-.23c1.09-16 2.1-31.14 2.49-51.92h11.21c-1.32 17.28-2 34.63-2.57 51.92z" transform="translate(-46.01 -244.21)"/><path class="cls-1" d="M160.87 367.86a45.74 45.74 0 0 0 15 3c11.75 0 11.29-8.49 11.67-17.13h-.15a16 16 0 0 1-13.62 6.77c-10.43 0-16.74-6.69-16.74-17 0-6.86 3-23.13 25.92-23.13a93.69 93.69 0 0 1 16.74 1.87c-.7 8.26-1.72 22.5-2 40.33-.23 12.29-7.78 15.88-19 15.88a72 72 0 0 1-17.28-2.18zm21.63-39.78c-13.23 0-14.63 10.51-14.63 14.64 0 6.07 3.19 10.19 9.49 10.19 5.92 0 9.43-5 10.36-10.35a129.78 129.78 0 0 0 .93-13.85 32.82 32.82 0 0 0-6.15-.63zm63.13 11.99c0 7.55-4 20.94-22 20.94-15.72 0-20.77-10.9-20.77-19.3 0-13.24 9-21.26 22-21.26 12.28 0 20.77 7.01 20.77 19.62zm-31.92 1.87c0 6.23 3.43 11.44 10.12 11.44 7.79 0 11-6.61 11-13.54 0-6.46-2.88-11.76-10-11.76-8.08 0-11.12 6.62-11.12 13.86zm47.09-14.24h.2c3.27-5.38 8.56-7.25 14.87-7.25 8.24 0 14.48 3.19 14.48 12.3 0 4.75-1.1 15.65-1.1 27.33h-11.56a168.38 168.38 0 0 0 1.79-22.58c0-5.6-2.57-8.32-8.25-8.32-6.15 0-9.49 4.51-10.59 10.11-1.16 6.23-1.24 17.28-1.32 20.79h-11.13c1.09-11.75 1.87-23.59 2.1-38.69h10.9zm77.68-10.04a43.38 43.38 0 0 0-12.3-2.19c-11.83 0-20.55 7.56-20.55 19.7 0 11.29 7.4 17.59 18.45 17.59a49.74 49.74 0 0 0 13.55-2.26l-1.41 9.11a81.12 81.12 0 0 1-14 1.4c-15.26 0-28.33-8.33-28.33-25.22 0-18.6 12.92-28.56 30.75-28.56A71 71 0 0 1 338 308.7z" transform="translate(-46.01 -244.21)"/><path class="cls-1" d="M338.48 317.66a43.38 43.38 0 0 0-12.3-2.19c-11.83 0-20.55 7.56-20.55 19.7 0 11.29 7.4 17.59 18.45 17.59a49.74 49.74 0 0 0 13.55-2.26l-1.41 9.11a81.12 81.12 0 0 1-14 1.4c-15.26 0-28.33-8.33-28.33-25.22 0-18.6 12.92-28.56 30.75-28.56A71 71 0 0 1 338 308.7zm-165.21-22.95c90.51-47.45 180.49-55.18 141.39 7.94a40.66 40.66 0 0 1 10-1.19h1.09c17.94-20.32 26.27-38.17 19.95-48.8-11.59-19.48-97.48-5.44-175.36 42zM360 360.31a35.78 35.78 0 0 1-7.16.7c-12.53 0-13.85-7.47-13.85-11 0-15.72 27.39-10.66 27.39-19.07 0-3.73-4.2-4.28-7.08-4.28a42.38 42.38 0 0 0-15.13 3.34l1.16-7.24a72.45 72.45 0 0 1 16.81-2.26c6.86 0 15.11 1.64 15.11 10.13 0 5.52-1.33 17.82-1.33 29.5H365.1c.39-3.43.63-6.93 1.32-20-4 3.58-17 3.2-17 10.12 0 3.66 3.42 4.6 6.53 4.6a18.19 18.19 0 0 0 6.08-1.17zm33-33.71h.16c2.41-3.81 5.6-6.15 10.43-6.15a15.82 15.82 0 0 1 3.34.39l.32 9.11a12.9 12.9 0 0 0-4.21-.77c-5.6 0-8.79 3.65-9.88 9.1-.86 4.2-.93 12.46-.93 17v4.83h-10.86c.69-11 1.47-21.41 1.47-38.69h10.36zm25.1 33.48h-10.35c1.09-16.19 2-31.14 2.33-51.92h11.22l-1.1 13.54a51.57 51.57 0 0 1 10.28-1.25c12.38 0 19.15 6.62 19.15 18.69 0 11.44-5.92 21.87-18.53 21.87-5.6 0-10.12-2.41-12.84-7.08h-.16zm1.79-30.44a92.76 92.76 0 0 0-.77 13c0 6.07 4.36 10.74 9.81 10.74 7 0 9.88-7.31 9.88-13.31 0-6.85-3.19-12-10.59-12a28.06 28.06 0 0 0-8.33 1.57zm73.95 10.43c0 7.55-4 20.94-21.95 20.94-15.73 0-20.78-10.9-20.78-19.3 0-13.24 9-21.26 22-21.26 12.25 0 20.73 7.01 20.73 19.62zm-31.92 1.87c0 6.23 3.43 11.44 10.12 11.44 7.78 0 11-6.61 11-13.54 0-6.46-2.87-11.76-10-11.76-8.04 0-11.12 6.62-11.12 13.86zM509 327.7h.15c3.27-5.38 8.57-7.25 14.87-7.25 8.25 0 14.49 3.19 14.49 12.3 0 4.75-1.1 15.65-1.1 27.33H525.9a168.38 168.38 0 0 0 1.79-22.58c0-5.6-2.56-8.32-8.25-8.32-6.15 0-9.5 4.51-10.59 10.11-1.16 6.23-1.24 17.28-1.32 20.79H496.4c1.09-11.75 1.87-23.59 2.1-38.69h10.9zm-197.15 76.09h-2.65l-1.28-7.79h-8l-3.08 7.81h-2.64l9.92-24.52h3.65zm-6.11-22.88h-.06l-4.8 12.86h6.72zm31.09-1.64h2.87l-8 9.05 5.75 15.47h-2.93l-4.87-13.2-4.46 5-1 8.22h-2.59l3-24.52h2.59l-1.54 12.48zm12.85 7.12h2.46l-2.14 17.4h-2.45l.22-1.79c-1.6 1.16-3.09 2.3-5.08 2.3-2.46 0-4.27-1.36-3.72-5.9l1.48-12h2.46l-1.4 11.38c-.23 1.83-.24 4.51 1.75 4.51 1.51 0 3.68-1.48 4.8-2.65zm8.04 3.76h.07c1.23-2.08 2.73-4 5.31-4h.95l-.28 2.24c-3.16-.44-5.26 3-6.51 5.55l-1.26 9.85h-2.45l2.14-17.4h2.46zm14.85 13.64v-2.2c-1.59 1.38-3.33 2.71-5.38 2.71a4.24 4.24 0 0 1-4.21-5c.61-5 6-6.05 9.95-7.09l.82-.22.12-1c.24-2-1-3.06-2.94-3.06s-3.4 1.26-4.59 2.74l-1.57-1.29c1.7-2.08 3.77-3.53 6.42-3.53 2.36 0 5.59 1.45 5.1 5.42l-1.04 8.73a10.12 10.12 0 0 0 0 3.84zm-.07-9.48c-2.41.69-6.78 1.64-7.17 4.76a2.46 2.46 0 0 0 2.26 2.9c2 0 3.92-1.36 5.3-2.84l.63-5.11zm9.97-4.16h.06c1.24-2.08 2.73-4 5.32-4h.94l-.27 2.24c-3.16-.44-5.26 3-6.52 5.55l-1.21 9.86h-2.46l2.14-17.4h2.46zm14.84 13.64v-2.2c-1.57 1.41-3.31 2.71-5.31 2.71a4.25 4.25 0 0 1-4.21-5c.62-5 6-6.05 10-7.09l.81-.22.12-1c.25-2-1-3.06-2.93-3.06s-3.4 1.26-4.6 2.74l-1.57-1.29c1.71-2.08 3.78-3.53 6.42-3.53 2.37 0 5.59 1.45 5.1 5.42L400 400a10.33 10.33 0 0 0 0 3.84zm-.06-9.48c-2.42.69-6.79 1.64-7.17 4.76a2.45 2.45 0 0 0 2.26 2.9c2 0 3.91-1.36 5.29-2.84l.63-5.11zm11.41 10.18c-1.32 3-3.15 5.32-6.62 5.32a5.27 5.27 0 0 1-1.85-.34l.64-2.08a5 5 0 0 0 1.39.25c2.49 0 3.56-2.08 4.45-4.16l-3.89-17.09h2.49l3.06 13.61 6-13.59h2.33zm31.62-17.78c-.31-2.84-1.2-5.83-4.57-5.83s-6.7 3.21-7.62 10.65 1.59 10.66 5 10.66c3.22 0 5.06-2.94 6-5.83l2.31.63c-1.19 4-4.18 7.31-8.59 7.31-5.1 0-8.31-4.7-7.31-12.77s5.35-12.76 10.46-12.76c4.35 0 6.47 3.21 6.68 7.37zm3.16 8.38c.81-6.52 4.22-9.2 8.1-9.2s6.64 2.68 5.83 9.2-4.22 9.21-8.1 9.21-6.63-2.68-5.83-9.21zm11.47 0c.37-3 .16-7.12-3.63-7.12s-5 4.16-5.38 7.12-.15 7.13 3.63 7.13 5.02-4.16 5.38-7.13zm6.72 8.7h-2.46l2.15-17.4h2.45l-.19 1.55c1.67-1.23 3.06-2.05 5.08-2.05a3.94 3.94 0 0 1 3.9 2.36c1.77-1.29 3.44-2.33 5.62-2.36 2.46 0 4.27 1.36 3.72 5.89l-1.48 12H478l1.4-11.37c.22-1.83.87-4.51-1.75-4.51a7.86 7.86 0 0 0-4.91 2.3L471 403.79h-2.45l1.4-11.37c.22-1.83.87-4.51-1.75-4.51-2.12.06-3.52 1.16-4.92 2.3zm24.14 5.39h-2.45l2.8-22.79h2.46l-.22 1.8a7.37 7.37 0 0 1 4.63-2.3c3 0 6.13 2.71 5.29 9.55-.82 6.68-5.09 8.86-7.46 8.86a4.84 4.84 0 0 1-4.14-2.49zm1.23-10.27c.51 1.48 2 3.24 3.7 3.24s4.33-1.67 5-6.77c.32-2.62.18-7.35-3.25-7.35a5.46 5.46 0 0 0-4.42 2.81zm22.42 4.88v-2.2c-1.59 1.38-3.33 2.71-5.38 2.71a4.25 4.25 0 0 1-4.21-5c.62-5 6-6.05 9.95-7.09l.82-.22.12-1c.25-2-1-3.06-2.93-3.06s-3.4 1.26-4.6 2.74l-1.57-1.29c1.71-2.08 3.78-3.53 6.42-3.53 2.37 0 5.59 1.45 5.1 5.42L512.1 400a10.33 10.33 0 0 0 0 3.84zm-.06-9.48c-2.42.69-6.79 1.64-7.17 4.76a2.45 2.45 0 0 0 2.26 2.9c1.95 0 3.91-1.36 5.29-2.84l.63-5.11zm8.25 9.48h-2.46l2.15-17.4h2.45l-.22 1.8c1.6-1.16 3.09-2.3 5.08-2.3 2.46 0 4.28 1.36 3.72 5.89l-1.48 12h-2.46l1.4-11.37c.23-1.83.87-4.51-1.75-4.51-1.51 0-3.68 1.48-4.8 2.65zm18.39.7c-1.31 3-3.14 5.32-6.61 5.32a5.27 5.27 0 0 1-1.85-.34l.64-2.08a5 5 0 0 0 1.39.25c2.49 0 3.56-2.08 4.45-4.16l-3.89-17.09h2.49l3.03 13.61 6-13.59H544z" transform="translate(-46.01 -244.21)"/></svg>