<?xml version="1.0" encoding="utf-8"?>
<!-- Generator: Adobe Illustrator 15.1.0, SVG Export Plug-In . SVG Version: 6.00 Build 0)  -->
<!DOCTYPE svg PUBLIC "-//W3C//DTD SVG 1.1//EN" "http://www.w3.org/Graphics/SVG/1.1/DTD/svg11.dtd">
<svg version="1.1" id="Layer_1" xmlns="http://www.w3.org/2000/svg" xmlns:xlink="http://www.w3.org/1999/xlink" x="0px" y="0px"
	 width="198.795px" height="95.181px" viewBox="0 0 198.795 95.181" enable-background="new 0 0 198.795 95.181"
	 xml:space="preserve">
<g>
	<g>
		<path fill-rule="evenodd" clip-rule="evenodd" fill="#231F20" d="M28.78,65.484c0-0.266-0.11-0.479-0.414-0.479
			c-0.221,0-0.414,0.159-0.635,0.557c-1.489,2.71-2.951,3.771-5.213,3.771c-3.862,0-6.868-3.744-6.868-8.549
			c0-3.958,2.538-8.232,7.061-8.232c4,0,4.635,3.398,5.545,3.398c0.331,0,0.386-0.238,0.386-0.504c-0.221-1.674,0-2.789-1.352-3.107
			c-1.214-0.292-3.144-0.531-4.413-0.531c-2.565,0-4.882,0.611-6.73,1.726c-2.73,1.647-4.468,4.488-4.468,7.329
			c0,2.682,1.599,5.55,4.055,7.25c1.82,1.273,4.109,1.942,6.675,1.942c1.572,0,5.958-0.456,6.123-2.183L28.78,65.484L28.78,65.484z"
			/>
		<path fill-rule="evenodd" clip-rule="evenodd" fill="#231F20" d="M40.657,63.971c0.166-0.531-0.083-0.718,1.104-0.718h3.558h0.414
			c0.358,0,0.524,0.159,0.8,0.85l1.269,3.399c0.139,0.346,0.193,0.638,0.193,0.822c0,1.115-2.096,0.239-2.096,1.17
			c0,0.265,0.165,0.375,0.661,0.375c1.159,0,2.345-0.137,3.504-0.137c1.131,0,2.262,0.137,3.393,0.137
			c0.441,0,0.662-0.163,0.662-0.401c0-0.426-0.496-0.426-0.827-0.479c-1.49-0.211-1.932-1.832-2.428-2.974l-4.606-10.78
			c-0.304-0.691-0.579-1.408-0.855-2.151c-0.441-1.247-0.552-1.407-0.854-1.407c-0.166,0-0.304,0.105-0.441,0.293
			c-0.359,0.796-0.635,1.646-0.938,2.469l-1.682,4.328c-1.076,2.762-2.594,6.957-4.027,9.453c-0.745,1.115-2.46,0.451-2.46,1.221
			c0,0.267,0.165,0.404,0.529,0.404c0.827,0,1.654-0.111,2.482-0.111c1.075,0,2.123,0.111,3.199,0.111
			c0.496,0,0.718-0.138,0.718-0.404c0-0.822-2.538,0-2.538-1.193c0-0.24,0.11-0.719,0.275-1.249L40.657,63.971L40.657,63.971z
			 M43.305,56.589l2.069,4.885c0.138,0.319,0.166,0.426,0.166,0.532c0,0.158-0.166,0.211-0.662,0.211h-2.813
			c-0.579,0-0.717-0.053-0.717-0.291c0-0.133,0.055-0.318,0.138-0.559L43.305,56.589L43.305,56.589z"/>
		<path fill-rule="evenodd" clip-rule="evenodd" fill="#231F20" d="M72.174,60.73c2.29-0.479,4.055-1.806,4.055-4.221
			c0-3.214-2.758-4.515-5.682-4.515c-1.628,0-3.255,0.106-4.883,0.106c-1.103,0-2.179-0.106-3.282-0.106
			c-0.441,0-0.606,0.106-0.606,0.397c0,0.797,1.6,0.08,2.316,1.01c0.193,0.266,0.221,0.398,0.221,1.486v12.082
			c0,1.115-0.027,1.939-1.489,2.018c-0.827,0.054-1.048,0.16-1.048,0.479c0,0.291,0.165,0.401,0.579,0.401
			c1.158,0,2.345-0.137,3.503-0.137c1.131,0,2.262,0.137,3.393,0.137h0.083c0.441,0,0.635-0.11,0.635-0.401
			c0-0.319-0.221-0.426-1.049-0.479c-1.434-0.053-1.489-0.875-1.489-2.018v-5.125c0-0.531,0.083-0.637,0.579-0.637
			c1.297,0,1.462,0.105,2.124,1.328l3.531,6.451c0.413,0.718,0.551,0.828,0.992,0.828c0.524,0,1.049-0.058,1.572-0.058
			c0.938,0,1.849,0.085,2.786,0.085c0.304,0,0.469-0.111,0.469-0.35c0-0.188-0.165-0.373-0.386-0.398
			c-1.628-0.213-1.766-0.398-2.648-1.912l-2.841-4.859C73.084,61.421,72.753,61.049,72.174,60.73L72.174,60.73z M67.43,59.43V54.65
			c0-1.541,0.249-1.859,1.379-1.859c2.511,0,4.083,1.646,4.083,4.064c0,2.601-1.463,3.609-4.055,3.609
			C67.458,60.465,67.43,60.438,67.43,59.43L67.43,59.43z"/>
		<path fill-rule="evenodd" clip-rule="evenodd" fill="#231F20" d="M101.483,65.219l-9.956-12.401
			c-0.304-0.425-0.524-0.77-1.104-0.822l-1.959,0.079c-0.883-0.026-1.737-0.079-2.62-0.079c-0.552,0-0.772,0.132-0.772,0.397
			c0,0.319,0.249,0.425,1.104,0.425c0.606,0.026,1.048,0.134,1.214,0.345c0.221,0.24,0.331,0.957,0.331,2.125v9.48
			c0,0.85-0.028,1.752-0.083,2.76c0,2.152-2.703,1.143-2.703,2.02c0,0.238,0.192,0.375,0.523,0.375c1.076,0,2.124-0.189,3.2-0.189
			c0.854,0,1.683,0.084,2.537,0.084c0.497,0,0.718-0.11,0.718-0.402c0-0.426-0.524-0.398-1.324-0.452
			c-0.965-0.079-1.379-0.425-1.518-1.247c-0.109-0.506-0.192-2.045-0.22-3.267V54.57l12.386,15.162
			c0.439,0.51,0.688,0.694,0.963,0.694c0.332,0,0.498-0.185,0.498-0.694V69.6v-14.87c0-1.407,0.221-1.646,1.517-1.753
			c0.909-0.079,1.186-0.186,1.186-0.504c0-0.292-0.192-0.425-0.552-0.425c-0.938,0-1.903,0.106-2.841,0.106
			c-0.883,0-1.792-0.08-2.675-0.08c-0.524,0-0.745,0.106-0.745,0.398c0,0.902,2.427-0.266,2.73,1.54
			c0.083,0.425,0.138,1.593,0.165,2.417V65.219L101.483,65.219z"/>
		<path fill-rule="evenodd" clip-rule="evenodd" fill="#231F20" d="M117.168,54.915c0-1.062,0.027-1.194,0.222-1.486
			c0.219-0.293,0.688-0.505,1.268-0.531c0.827-0.054,1.048-0.159,1.048-0.478c0-0.293-0.165-0.425-0.579-0.425
			c-1.186,0-2.344,0.132-3.53,0.132c-1.132,0-2.263-0.105-3.394-0.105c-0.055-0.026-0.082-0.026-0.109-0.026
			c-0.441,0-0.607,0.132-0.607,0.397c0,0.346,0.221,0.451,1.049,0.505c1.434,0.054,1.489,0.851,1.489,2.018v12.056
			c0,1.115-0.027,1.939-1.489,2.018c-0.828,0.054-1.049,0.16-1.049,0.479c0,0.265,0.166,0.401,0.579,0.401
			c1.159,0,2.346-0.137,3.503-0.137c1.187,0,2.345,0.137,3.531,0.137c0.441,0,0.606-0.11,0.606-0.401
			c0-0.319-0.221-0.426-1.048-0.479c-1.434-0.053-1.489-0.875-1.489-2.018V54.915L117.168,54.915z"/>
		<path fill-rule="evenodd" clip-rule="evenodd" fill="#231F20" d="M138.506,65.165l-4.717-10.595
			c-0.274-0.61-0.386-0.877-0.386-1.036c0-1.142,2.289-0.398,2.289-1.142c0-0.266-0.192-0.397-0.551-0.397
			c-1.241,0-2.511,0.159-3.752,0.159c-1.186-0.053-2.399-0.159-3.586-0.159c-0.28,0-0.445,0.132-0.445,0.371
			c0,0.319,0.165,0.398,0.941,0.451c0.993,0.08,1.297,0.372,1.932,1.886l6.482,14.896c0.193,0.456,0.33,0.615,0.551,0.615
			c0.166,0,0.359-0.213,0.496-0.535l5.932-14.232c0.828-1.939,1.186-2.443,1.931-2.55l0.827-0.106
			c0.275-0.053,0.441-0.213,0.441-0.425c0-0.239-0.166-0.371-0.523-0.371c-0.883,0-1.738,0.106-2.621,0.106
			c-0.828,0-1.682-0.08-2.511-0.08c-0.606,0-0.8,0.105-0.8,0.398c0,0.93,2.482-0.106,2.482,1.301c0,0.371-0.137,0.956-0.414,1.594
			L138.506,65.165L138.506,65.165z"/>
		<path fill-rule="evenodd" clip-rule="evenodd" fill="#231F20" d="M154.467,63.971c0.165-0.531-0.083-0.718,1.104-0.718h3.558
			h0.414c0.358,0,0.523,0.159,0.8,0.85l1.269,3.399c0.139,0.346,0.193,0.638,0.193,0.822c0,1.115-2.096,0.239-2.096,1.17
			c0,0.265,0.165,0.375,0.661,0.375c1.159,0,2.345-0.137,3.503-0.137c1.131,0,2.263,0.137,3.393,0.137
			c0.441,0,0.662-0.163,0.662-0.401c0-0.426-0.496-0.426-0.827-0.479c-1.489-0.211-1.931-1.832-2.428-2.974l-4.606-10.78
			c-0.303-0.691-0.579-1.408-0.855-2.151c-0.439-1.247-0.551-1.407-0.854-1.407c-0.165,0-0.304,0.105-0.441,0.293
			c-0.358,0.796-0.634,1.646-0.938,2.469l-1.682,4.328c-1.076,2.762-2.593,6.957-4.027,9.453c-0.744,1.115-2.46,0.451-2.46,1.221
			c0,0.267,0.166,0.404,0.528,0.404c0.828,0,1.656-0.111,2.483-0.111c1.075,0,2.124,0.111,3.199,0.111
			c0.497,0,0.718-0.138,0.718-0.404c0-0.822-2.537,0-2.537-1.193c0-0.24,0.109-0.719,0.275-1.249L154.467,63.971L154.467,63.971z
			 M157.114,56.589l2.069,4.885c0.138,0.319,0.165,0.426,0.165,0.532c0,0.158-0.165,0.211-0.662,0.211h-2.813
			c-0.579,0-0.717-0.053-0.717-0.291c0-0.133,0.056-0.318,0.138-0.559L157.114,56.589L157.114,56.589z"/>
		<path fill-rule="evenodd" clip-rule="evenodd" fill="#231F20" d="M185.073,69.785c0.386,0,0.744,0.031,1.131,0.031
			c0.496,0,0.662-0.137,0.717-0.668c0.057-0.956,0.414-2.603,0.414-3.187c0-0.292-0.139-0.452-0.387-0.452
			c-0.165,0-0.275,0.08-0.414,0.346c-1.213,2.15-2.813,3.133-5.103,3.133c-1.683,0-2.288-0.742-2.288-2.761V54.889
			c0-1.063,0-1.195,0.193-1.486c0.22-0.293,0.688-0.505,1.268-0.531c0.827-0.054,1.049-0.159,1.049-0.479
			c0-0.291-0.166-0.397-0.58-0.397c-1.186,0-2.344,0.132-3.53,0.132c-1.186,0-2.372-0.132-3.56-0.132
			c-0.439,0-0.605,0.106-0.605,0.397c0,0.797,1.6,0.08,2.316,1.01c0.193,0.266,0.221,0.398,0.221,1.486v12.082
			c0,1.115-0.027,1.939-1.488,2.018c-0.828,0.054-1.049,0.16-1.049,0.479c0,0.265,0.166,0.401,0.579,0.401
			c0.634,0,1.297-0.084,1.931-0.084H185.073L185.073,69.785z"/>
	</g>
	<g>
		<g>
			<g>
				<path fill="#231F20" d="M19.629,75.947c0,0.121,0,0.205-0.171,0.205c-0.1,0-0.185-0.023-0.341-0.217
					c-0.512-0.652-1.037-1.221-2.344-1.221c-2.33,0-3.41,1.934-3.41,3.48c0,1.69,1.165,3.623,3.311,3.623
					c1.307,0,1.932-0.676,2.528-1.606c0.028-0.048,0.143-0.229,0.284-0.229c0.214,0,0.214,0.108,0.214,0.193l-0.114,1.027
					c-0.014,0.168-0.042,0.277-0.341,0.422c-0.228,0.121-1.179,0.495-2.614,0.495c-3.594,0-5.171-2.343-5.171-3.878
					c0-1.678,1.705-3.841,5.413-3.841c0.653,0,0.895,0.036,1.86,0.169c0.64,0.097,0.711,0.205,0.768,0.531L19.629,75.947z"/>
				<path fill="#231F20" d="M28.707,82.12c-2.486,0-4.858-1.569-4.858-3.878c0-2.174,2.145-3.841,4.9-3.841
					c2.657,0,4.803,1.655,4.803,3.732C33.552,80.478,31.122,82.12,28.707,82.12z M28.579,74.715c-1.989,0-3.026,1.559-3.026,3.274
					c0,1.956,1.35,3.817,3.268,3.817c1.989,0,3.026-1.873,3.026-3.624C31.847,76.744,30.838,74.715,28.579,74.715z"/>
				<path fill="#231F20" d="M38.737,75.693c0-0.494,0-0.82-0.696-0.857c-0.313-0.012-0.512-0.023-0.512-0.193
					c0-0.169,0.057-0.169,0.525-0.169c0.143,0,0.839,0.049,1.009,0.049c0.384,0,2.273-0.049,2.699-0.049
					c2.515,0,2.728,1.474,2.728,1.896c0,1.413-1.463,1.703-1.946,1.788c0.185,0.097,0.355,0.169,0.683,0.677l1.378,2.077
					c0.284,0.423,0.483,0.725,0.881,0.773c0.469,0.049,0.582,0.061,0.582,0.217c0,0.133-0.142,0.146-0.241,0.146
					c-0.185,0-1.108-0.048-1.321-0.048c-0.113,0-0.64,0.048-0.768,0.048c-0.255,0-0.313-0.108-0.469-0.362l-1.719-2.754
					c-0.313-0.52-0.384-0.568-1.022-0.568c-0.242,0-0.271,0.072-0.271,0.278v2.175c0,0.507,0,0.833,0.711,0.869
					c0.313,0.012,0.511,0.023,0.511,0.205c0,0.17-0.185,0.157-0.298,0.157c-0.271,0-1.648-0.048-1.705-0.048
					c-0.241,0-1.393,0.048-1.647,0.048c-0.114,0-0.299,0.013-0.299-0.169c0-0.17,0.213-0.182,0.512-0.193
					c0.696-0.049,0.696-0.362,0.696-0.869V75.693z M40.257,77.603c0,0.423,0,0.446,0.711,0.446c0.511,0,1.918,0,1.918-1.51
					c0-0.435-0.199-1.727-1.961-1.727c-0.653,0-0.668,0.289-0.668,0.761V77.603z"/>
				<path fill="#231F20" d="M50.543,75.706c0-0.495,0-0.821-0.725-0.858c-0.299-0.023-0.497-0.023-0.497-0.205
					c0-0.169,0.057-0.169,0.525-0.169c0.213,0,1.25,0.049,1.478,0.049c0.341,0,1.975-0.049,2.344-0.049
					c2.345,0,2.97,1.28,2.97,2.138c0,1.475-1.549,2.139-2.714,2.139c-0.354,0-0.653-0.049-1.25-0.229
					c-0.085-0.025-0.426-0.122-0.483-0.122c-0.128,0-0.128,0.061-0.128,0.218v2.187c0,0.507,0,0.833,0.782,0.87
					c0.313,0.012,0.511,0.023,0.511,0.205c0,0.169-0.185,0.169-0.298,0.169c-0.483,0-1.25-0.048-1.733-0.048
					c-0.241,0-1.435,0.048-1.705,0.048c-0.113,0-0.298,0-0.298-0.181c0-0.17,0.198-0.182,0.497-0.193
					c0.725-0.049,0.725-0.363,0.725-0.857V75.706z M52.063,77.795c0,0.206,0,0.254,0.171,0.314c0.242,0.109,0.653,0.133,0.952,0.133
					c0.767,0,1.847-0.495,1.847-1.678c0-1.064-0.938-1.789-2.074-1.789c-0.824,0-0.896,0.351-0.896,0.942V77.795z"/>
				<path fill="#231F20" d="M65.389,82.12c-2.485,0-4.858-1.569-4.858-3.878c0-2.174,2.146-3.841,4.901-3.841
					c2.657,0,4.802,1.655,4.802,3.732C70.233,80.478,67.805,82.12,65.389,82.12z M65.261,74.715c-1.988,0-3.025,1.559-3.025,3.274
					c0,1.956,1.35,3.817,3.268,3.817c1.989,0,3.026-1.873,3.026-3.624C68.529,76.744,67.521,74.715,65.261,74.715z"/>
				<path fill="#231F20" d="M75.419,75.693c0-0.494,0-0.82-0.696-0.857c-0.313-0.012-0.511-0.023-0.511-0.193
					c0-0.169,0.057-0.169,0.525-0.169c0.142,0,0.838,0.049,1.009,0.049c0.384,0,2.273-0.049,2.699-0.049
					c2.515,0,2.728,1.474,2.728,1.896c0,1.413-1.463,1.703-1.946,1.788c0.185,0.097,0.355,0.169,0.682,0.677l1.378,2.077
					c0.284,0.423,0.483,0.725,0.882,0.773c0.469,0.049,0.582,0.061,0.582,0.217c0,0.133-0.143,0.146-0.241,0.146
					C82.323,82.048,81.4,82,81.188,82c-0.114,0-0.64,0.048-0.768,0.048c-0.256,0-0.313-0.108-0.469-0.362l-1.719-2.754
					c-0.313-0.52-0.384-0.568-1.023-0.568c-0.241,0-0.27,0.072-0.27,0.278v2.175c0,0.507,0,0.833,0.71,0.869
					c0.313,0.012,0.512,0.023,0.512,0.205c0,0.17-0.185,0.157-0.299,0.157c-0.27,0-1.647-0.048-1.704-0.048
					c-0.242,0-1.393,0.048-1.648,0.048c-0.113,0-0.298,0.013-0.298-0.169c0-0.17,0.213-0.182,0.511-0.193
					c0.696-0.049,0.696-0.362,0.696-0.869V75.693z M76.939,77.603c0,0.423,0,0.446,0.71,0.446c0.512,0,1.918,0,1.918-1.51
					c0-0.435-0.198-1.727-1.961-1.727c-0.653,0-0.667,0.289-0.667,0.761V77.603z"/>
			</g>
			<g>
				<path fill="#231F20" d="M88.702,79.233c-0.426,0-0.426,0-0.54,0.313L87.68,80.84c0,0.037-0.128,0.363-0.128,0.508
					c0,0.302,0.355,0.326,0.682,0.338c0.369,0.012,0.54,0.049,0.54,0.193c0,0.169-0.171,0.169-0.497,0.169
					c-0.143,0-0.98-0.048-1.393-0.048c-0.156,0-0.994,0.048-1.179,0.048c-0.086,0-0.271,0-0.271-0.181
					c0-0.158,0.199-0.182,0.427-0.206c0.469-0.036,0.597-0.048,0.866-0.471c0.455-0.749,1.705-3.575,2.643-5.665
					c0.525-1.172,0.525-1.185,0.668-1.185c0.156,0,0.198,0.085,0.412,0.58c0.142,0.339,0.298,0.677,0.412,0.905l2.216,4.591
					c0.455,0.931,0.597,1.196,1.18,1.269c0.241,0.023,0.397,0.049,0.397,0.205c0,0.157-0.241,0.157-0.327,0.157
					c-0.241,0-1.42-0.048-1.662-0.048c-0.866,0-1.605,0.048-1.647,0.048c-0.143,0-0.327,0-0.327-0.169
					c0-0.157,0.228-0.193,0.512-0.218c0.369-0.024,0.497-0.085,0.497-0.266c0-0.12-0.071-0.302-0.1-0.351l-0.61-1.449
					c-0.156-0.362-0.199-0.362-0.583-0.362H88.702z M90.194,78.799c0.327,0,0.327-0.049,0.327-0.085
					c0-0.061-0.043-0.157-0.086-0.229l-0.994-2.078l-0.881,2.041c-0.015,0.025-0.057,0.146-0.057,0.23
					c0,0.121,0.085,0.121,0.341,0.121H90.194z"/>
			</g>
		</g>
		<g>
			<g>
				<path fill="#231F20" d="M101.886,80.804c0,0.495,0,0.821,0.711,0.857c0.298,0.013,0.497,0.024,0.497,0.206
					c0,0.181-0.185,0.181-0.298,0.181c-0.469,0-1.208-0.048-1.677-0.048c-0.241,0-1.393,0.048-1.662,0.048
					c-0.113,0-0.299,0-0.299-0.181c0-0.17,0.199-0.182,0.497-0.206c0.711-0.036,0.711-0.362,0.711-0.833v-5.617
					c0-0.314-0.113-0.314-0.397-0.314c-0.853,0-1.79,0-2.515,1.147c-0.128,0.194-0.199,0.241-0.327,0.241
					c-0.113,0-0.185-0.084-0.185-0.156c0-0.061,0.028-0.133,0.043-0.193l0.582-1.703c0.043-0.146,0.085-0.218,0.213-0.218
					c0.114,0,0.156,0.061,0.171,0.169c0.071,0.326,0.327,0.339,0.639,0.339h4.561c1.464,0,1.534-0.157,1.634-0.375
					c0.043-0.097,0.086-0.169,0.199-0.169c0.199,0,0.199,0.193,0.199,0.482l-0.1,1.475c-0.015,0.242-0.043,0.387-0.228,0.387
					c-0.071,0-0.171-0.012-0.228-0.266c-0.241-1.16-0.938-1.16-1.861-1.16c-0.81,0-0.881,0-0.881,0.398V80.804z"/>
				<path fill="#231F20" d="M111.532,80.804c0,0.507,0,0.833,0.711,0.87c0.313,0.012,0.512,0.023,0.512,0.205
					c0,0.169-0.186,0.169-0.299,0.169c-0.299,0-0.768-0.048-1.705-0.048c-0.81,0-1.52,0.048-1.662,0.048
					c-0.113,0-0.298,0-0.298-0.181c0-0.17,0.213-0.182,0.511-0.193c0.711-0.049,0.711-0.363,0.711-0.857v-5.099
					c0-0.507,0-0.821-0.711-0.87c-0.313-0.012-0.511-0.023-0.511-0.205c0-0.169,0.185-0.169,0.298-0.169
					c0.299,0,0.811,0.049,1.677,0.049c1.022,0,1.478-0.049,1.69-0.049c0.113,0,0.299,0,0.299,0.181c0,0.17-0.214,0.182-0.512,0.193
					c-0.711,0.049-0.711,0.363-0.711,0.834V80.804z"/>
				<path fill="#231F20" d="M121.591,82.12c-2.486,0-4.858-1.569-4.858-3.878c0-2.174,2.146-3.841,4.901-3.841
					c2.656,0,4.802,1.655,4.802,3.732C126.436,80.478,124.007,82.12,121.591,82.12z M121.463,74.715
					c-1.989,0-3.026,1.559-3.026,3.274c0,1.956,1.35,3.817,3.268,3.817c1.989,0,3.026-1.873,3.026-3.624
					C124.73,76.744,123.722,74.715,121.463,74.715z"/>
				<path fill="#231F20" d="M138.426,80.043l-0.057-3.721c-0.028-1.462-0.185-1.462-0.753-1.486
					c-0.426-0.012-0.639-0.023-0.639-0.193c0-0.169,0.255-0.169,0.354-0.169c0.156,0,0.952,0.049,1.137,0.049
					c0.214,0,1.278-0.049,1.521-0.049c0.07,0,0.256,0,0.256,0.181c0,0.146-0.143,0.182-0.555,0.206
					c-0.525,0.048-0.738,0.073-0.725,0.737l0.029,6.317c0,0.12,0,0.351-0.214,0.351c-0.114,0-0.213-0.012-0.454-0.278l-6.053-6.401
					l-0.028,0.023l0.057,4.155c0.015,1.752,0.185,1.872,0.824,1.921c0.568,0.036,0.64,0.036,0.64,0.193
					c0,0.169-0.228,0.169-0.342,0.169c-0.17,0-0.709-0.048-1.15-0.048c-0.725,0-1.363,0.048-1.619,0.048
					c-0.043,0-0.242,0-0.242-0.157c0-0.145,0.057-0.156,0.654-0.217c0.625-0.072,0.682-0.121,0.682-1.764v-4.023
					c0-0.93-0.1-1.051-0.739-1.051c-0.298-0.012-0.525-0.012-0.525-0.193c0-0.156,0.185-0.169,0.44-0.169
					c0.156,0,0.796,0.049,1.25,0.049c0.398,0,0.739-0.049,0.924-0.049c0.256,0,0.383,0.254,0.482,0.362l4.816,5.23L138.426,80.043z"
					/>
				<path fill="#231F20" d="M150.587,79.391c0.057,0.061,0.086,0.061,0.1,0.061c0.057,0,0.085-0.025,0.113-0.061l0.483-0.52
					c0.199-0.205,0.44-0.604,0.44-0.773c0-0.241-0.341-0.277-0.54-0.29c-0.397-0.024-0.525-0.061-0.525-0.192
					c0-0.182,0.241-0.182,0.497-0.182c0.412,0,1.051,0.048,1.464,0.048c0.155,0,0.938-0.048,1.122-0.048
					c0.113,0,0.213,0.036,0.213,0.156c0,0.182-0.482,0.205-0.611,0.205c-0.596,0.074-1.293,0.822-1.449,0.991l-0.667,0.726
					c-0.028,0.023-0.199,0.168-0.199,0.266c0,0.048,0.043,0.096,0.142,0.181l0.697,0.665c0.326,0.313,1.136,0.966,1.563,1.026
					c0.539,0.072,0.596,0.085,0.596,0.218c0,0.181-0.227,0.181-0.426,0.181c-0.355,0-1.732-0.048-2.145-0.048
					c-0.994,0-0.994,0.048-1.193,0.048c-0.086,0-0.313,0-0.313-0.169c0-0.121,0.113-0.182,0.412-0.218
					c0.1-0.012,0.27-0.048,0.27-0.169c0-0.084-0.057-0.157-0.17-0.277l-0.342-0.351c-0.043-0.048-0.113-0.097-0.156-0.097
					c-0.057,0-0.1,0.036-0.113,0.049c-0.838,0.64-1.719,1.304-3.197,1.304c-1.832,0-2.514-1.123-2.514-1.933
					c0-0.713,0.326-1.486,2.4-2.331c0.057-0.013,0.185-0.062,0.185-0.134s-0.113-0.18-0.171-0.241
					c-0.383-0.398-0.725-0.905-0.725-1.413c0-0.918,1.08-1.667,2.586-1.667c1.62,0,2.287,0.81,2.287,1.485
					c0,0.52-0.213,0.967-1.662,1.377c-0.127,0.037-0.439,0.121-0.439,0.206c0,0.024,0.042,0.073,0.057,0.097L150.587,79.391z
					 M146.979,78.17c-0.142-0.121-0.171-0.156-0.271-0.156c-0.156,0-1.363,0.615-1.363,1.69c0,0.713,0.639,1.655,1.989,1.655
					c1.179,0,1.975-0.821,1.975-0.895c0-0.035-0.057-0.096-0.085-0.133L146.979,78.17z M149.45,75.947
					c0-0.664-0.497-1.244-1.235-1.244c-0.64,0-1.052,0.447-1.052,0.895c0,0.676,1.066,1.606,1.165,1.606
					C148.726,77.204,149.45,76.672,149.45,75.947z"/>
				<path fill="#231F20" d="M158.657,75.706c0-0.495,0-0.821-0.725-0.858c-0.299-0.023-0.498-0.023-0.498-0.205
					c0-0.169,0.057-0.169,0.525-0.169c0.213,0,1.25,0.049,1.479,0.049c0.341,0,1.975-0.049,2.344-0.049
					c2.344,0,2.969,1.28,2.969,2.138c0,1.475-1.548,2.139-2.713,2.139c-0.355,0-0.654-0.049-1.25-0.229
					c-0.086-0.025-0.427-0.122-0.483-0.122c-0.128,0-0.128,0.061-0.128,0.218v2.187c0,0.507,0,0.833,0.781,0.87
					c0.313,0.012,0.512,0.023,0.512,0.205c0,0.169-0.186,0.169-0.299,0.169c-0.482,0-1.25-0.048-1.732-0.048
					c-0.242,0-1.436,0.048-1.705,0.048c-0.113,0-0.299,0-0.299-0.181c0-0.17,0.199-0.182,0.498-0.193
					c0.725-0.049,0.725-0.363,0.725-0.857V75.706z M160.177,77.795c0,0.206,0,0.254,0.17,0.314c0.242,0.109,0.654,0.133,0.952,0.133
					c0.768,0,1.847-0.495,1.847-1.678c0-1.064-0.938-1.789-2.074-1.789c-0.824,0-0.895,0.351-0.895,0.942V77.795z"/>
			</g>
			<g>
				<path fill="#231F20" d="M169.71,75.706c0-0.495,0-0.821-0.725-0.858c-0.299-0.012-0.497-0.023-0.497-0.205
					c0-0.169,0.185-0.169,0.298-0.169c0.242,0,0.994,0.049,1.733,0.049c0.896,0,1.393-0.049,1.663-0.049
					c0.113,0,0.297,0,0.297,0.169c0,0.182-0.212,0.193-0.496,0.205c-0.725,0.037-0.753,0.363-0.753,0.822v4.82
					c0,0.76,0.255,1.171,1.136,1.171c0.683,0,1.691-0.12,2.458-1.329c0.058-0.096,0.114-0.145,0.199-0.145
					c0.142,0,0.185,0.097,0.185,0.193s-0.185,1.172-0.199,1.377c-0.027,0.229-0.1,0.29-0.355,0.29c-0.127,0-0.113-0.048-3.338-0.048
					c-2.4,0-2.4,0.048-2.543,0.048c-0.1,0-0.284,0-0.284-0.169c0-0.17,0.213-0.182,0.497-0.205c0.725-0.037,0.725-0.363,0.725-0.87
					V75.706z"/>
			</g>
		</g>
		<g>
			<g>
				<path fill="#231F20" d="M187.057,75.947c0,0.121,0,0.205-0.171,0.205c-0.099,0-0.184-0.023-0.34-0.217
					c-0.512-0.652-1.037-1.221-2.345-1.221c-2.33,0-3.41,1.934-3.41,3.48c0,1.69,1.165,3.623,3.311,3.623
					c1.308,0,1.933-0.676,2.528-1.606c0.029-0.048,0.143-0.229,0.285-0.229c0.213,0,0.213,0.108,0.213,0.193l-0.114,1.027
					c-0.014,0.168-0.042,0.277-0.341,0.422c-0.227,0.121-1.179,0.495-2.613,0.495c-3.595,0-5.172-2.343-5.172-3.878
					c0-1.678,1.705-3.841,5.412-3.841c0.654,0,0.896,0.036,1.861,0.169c0.641,0.097,0.711,0.205,0.768,0.531L187.057,75.947z"/>
			</g>
		</g>
	</g>
	<g>
		<polygon fill-rule="evenodd" clip-rule="evenodd" fill="#231F20" points="81.093,19.767 84.389,18.638 81.163,12.915 		"/>
		<g>
			<path fill-rule="evenodd" clip-rule="evenodd" fill="#231F20" d="M83.186,18.616c1.013,0,1.838,0.865,1.838,1.927
				c0,1.061-0.825,1.926-1.838,1.926c-1.012,0-1.837-0.865-1.837-1.926C81.349,19.481,82.174,18.616,83.186,18.616L83.186,18.616z"
				/>
		</g>
		
			<line fill="none" stroke="#231F20" stroke-width="3.2231" stroke-miterlimit="2.6131" x1="83.706" y1="22.182" x2="91.457" y2="45.708"/>
		<path fill-rule="evenodd" clip-rule="evenodd" fill="#231F20" d="M83.186,18.616c1.013,0,1.838,0.865,1.838,1.927
			c0,1.061-0.825,1.926-1.838,1.926c-1.012,0-1.837-0.865-1.837-1.926C81.349,19.481,82.174,18.616,83.186,18.616L83.186,18.616z"/>
		
			<path fill-rule="evenodd" clip-rule="evenodd" fill="#FFFFFF" stroke="#231F20" stroke-width="0.1612" stroke-miterlimit="2.6131" d="
			M83.928,19.062c-0.024,0,0.779,0.598,0.706,1.439c-0.073,0.896-0.877,1.249-0.877,1.249s0.464-1.521,0.122-1.873
			C84.221,19.632,83.951,19.062,83.928,19.062L83.928,19.062z"/>
		<path fill-rule="evenodd" clip-rule="evenodd" fill="#E03A3E" stroke="#E03A3E" stroke-width="0.3664" d="M85.45,21.708
			c0.933-0.615,1.372-0.997,2.742-1.68c1.384-0.682,2.61-0.929,3.885-1.229c0.618-0.174,2.498-0.32,2.638,0.166
			c0.28,0.646-0.413,0.76-0.168,1.469c0.234,0.723,7.882-1.051,10.451-0.719c3.123,0.071,8.203,1.104,8.203,1.104
			c-0.419,0.621-0.559,5.253,0.512,9.158c0.89,4.669,3.666,9.054,3.666,9.054c0.005,0.138-3.595-0.925-6.614-0.825
			c-3.02,0.114-4.846,2.061-8.787,2.069c-3.929-0.004-4.555-1.418-6.132-1.724c-1.577-0.307-4.39,0.454-4.39,0.454
			c-0.073,0.028-0.926-4.983-1.581-7.556C88.712,26.653,85.45,21.708,85.45,21.708L85.45,21.708z"/>
		<path fill-rule="evenodd" clip-rule="evenodd" fill="#FFFFFF" d="M100.433,22.398c3.88-0.204,7.264,2.902,7.533,6.916
			s-2.675,7.453-6.555,7.657s-7.264-2.903-7.533-6.916C93.608,26.042,96.553,22.603,100.433,22.398L100.433,22.398z"/>
		<path fill-rule="evenodd" clip-rule="evenodd" fill="#485E87" d="M100.612,23.3c2.721-0.142,5.135,2.617,5.374,6.141
			c0.239,3.524-1.784,6.514-4.507,6.655c-2.72,0.142-5.135-2.617-5.374-6.142C95.866,26.431,97.892,23.441,100.612,23.3
			L100.612,23.3z"/>
		
			<line fill="none" stroke="#231F20" stroke-width="3.2231" stroke-miterlimit="2.6131" x1="83.706" y1="22.182" x2="91.457" y2="45.708"/>
		
			<path fill-rule="evenodd" clip-rule="evenodd" fill="#FFFFFF" stroke="#231F20" stroke-width="0.1612" stroke-miterlimit="2.6131" d="
			M83.928,19.062c-0.024,0,0.779,0.598,0.706,1.439c-0.073,0.896-0.877,1.249-0.877,1.249s0.464-1.521,0.122-1.873
			C84.221,19.632,83.951,19.062,83.928,19.062L83.928,19.062z"/>
		<path fill-rule="evenodd" clip-rule="evenodd" fill="#FFFFFF" d="M100.433,22.398c3.88-0.204,7.264,2.902,7.533,6.916
			s-2.675,7.453-6.555,7.657s-7.264-2.903-7.533-6.916C93.608,26.042,96.553,22.603,100.433,22.398L100.433,22.398z"/>
		<path fill-rule="evenodd" clip-rule="evenodd" fill="#005A9C" d="M100.612,23.3c2.721-0.142,5.135,2.617,5.374,6.141
			c0.239,3.524-1.784,6.514-4.507,6.655c-2.72,0.142-5.135-2.617-5.374-6.142C95.866,26.431,97.892,23.441,100.612,23.3
			L100.612,23.3z"/>
		<polygon fill-rule="evenodd" clip-rule="evenodd" fill="#FFFFFF" points="82.667,18.752 81.62,14.25 83.759,18.359 		"/>
	</g>
</g>
</svg>
