<?xml version="1.0" encoding="UTF-8"?>
<svg width="249px" height="64px" viewBox="0 0 249 64" version="1.1" xmlns="http://www.w3.org/2000/svg" xmlns:xlink="http://www.w3.org/1999/xlink">
	<title>
		logo
	</title>
	<defs>
		<polygon id="path-1" points="0.66873809 0.342054061 55.6455671 0.342054061 55.6455671 44.652567 0.66873809 44.652567">
		</polygon>
		<polygon id="path-3" points="0.536369715 0.0538910292 9.17610252 0.0538910292 9.17610252 8.58245434 0.536369715 8.58245434">
		</polygon>
	</defs>
	<g id="Symbols" stroke="none" stroke-width="1" fill="none" fill-rule="evenodd">
		<g id="Desktop-Footer-Disclosures" transform="translate(-70.000000, -96.000000)">
			<g id="logo" transform="translate(70.000000, 96.000000)">
				<g id="Group-3" transform="translate(5.389103, 18.422956)">
					<mask id="mask-2" fill="white">
						<use xlink:href="#path-1">
						</use>
					</mask>
					<g id="Clip-2">
					</g>
					<path d="M34.0806868,23.6260581 C31.0727975,26.5169269 26.8716069,27.4831161 21.2669399,26.204359 C16.2204299,24.3582063 12.711354,20.7351894 11.8914405,14.3668095 C11.5396091,11.5937311 12.867638,5.73346659 16.4621697,2.64705037 C17.3213466,1.90489391 18.3368076,0.967189999 19.6648365,0.342054061 C16.3574671,0.342054061 13.4150169,1.67008299 11.0707571,3.11590232 C7.63250947,5.42089862 3.96022077,9.56203928 2.3981508,14.7186409 C-0.176300653,21.8276375 -0.414960925,28.9389438 5.44530356,36.2835212 C13.2587329,45.1131814 25.4858376,46.244893 35.7998107,42.964469 C45.0582895,40.1898509 54.9811677,30.0329316 55.6455671,18.2931559 L37.558198,18.2931559 C36.8545351,20.0507733 36.0731152,21.9069343 34.0806868,23.6260581" id="Fill-1" fill="#002E3C" mask="url(#mask-2)">
					</path>
				</g>
				<path d="M28.8828971,0.79435377 C15.6002981,2.04462565 5.67741992,8.99887803 1.57554273,21.3045096 C-1.58863055,29.508264 0.325270855,40.1732987 4.54493844,47.2053081 C3.2554031,38.0638498 5.32558849,29.1564325 11.6547049,22.9451065 C13.1782813,21.656341 14.1937423,20.7963942 15.0536891,20.2497852 C20.6791427,16.6560234 27.2423002,15.2486977 33.8447211,16.8115375 C35.3505905,17.1980132 36.5023187,17.9586466 37.4777464,18.6091883 C39.3531542,20.2497852 41.1500351,21.812625 42.5958544,26.1092798 L61.42538,26.1092798 C61.2306024,23.3015572 60.5269395,20.0149743 59.3936882,17.5152004 C56.150988,8.9203511 46.8532457,0.481785801 28.8828971,0.79435377" id="Fill-4" fill="#002E3C">
				</path>
				<path d="M70.6022524,28.3939515 C74.425436,31.5496562 78.5350119,32.3264569 83.4098404,32.3264569 C86.6117374,32.3264569 89.8136344,32.0523825 93.2056898,31.2293895 L96.238215,24.6954871 C93.0363179,26.3414731 89.4764305,27.5247662 84.9865379,27.5247662 C77.8659932,27.5247662 74.6640962,22.4028088 74.6640962,16.0921693 C74.6640962,10.5583304 76.527956,5.5279878 83.0749461,5.5279878 C85.9427188,5.5279878 89.8274921,6.08075578 92.7707122,8.47736684 L90.7213133,2.00428436 L89.5072254,1.62396767 C79.7521793,-0.135959368 73.8041494,2.00659398 70.171894,4.97906917 C66.8268008,7.81450718 64.9629411,12.2505088 64.9629411,16.4578584 C64.9629411,21.1225119 66.922265,25.4214763 70.6022524,28.3939515" id="Fill-6" fill="#002E3C">
				</path>
				<path d="M97.5499996,8.13477387 L97.5499996,25.2382468 C97.5499996,27.6163809 98.0989182,30.1769747 95.7569681,31.5950786 L96.0433604,31.7321158 L118.428154,31.7321158 L120.340516,24.8271352 L120.101086,24.8271352 C117.837662,26.9450527 116.265584,27.087479 113.123737,27.3423065 C111.456195,27.4770341 107.682283,27.2506918 106.105585,26.6563507 L106.105585,17.6296033 L108.253528,17.6296033 C110.021923,17.6296033 111.593232,17.655779 113.128356,17.7042809 L113.128356,13.4168646 L112.889696,13.4168646 L111.1213,13.4168646 L106.105585,13.4168646 L106.105585,6.12232886 L109.635448,6.12232886 C111.976628,6.12232886 115.844464,5.89367692 117.134,8.04315912 L117.277966,8.04315912 L116.134706,1.41225291 L115.99151,1.41225291 C115.465687,1.64090485 114.700435,1.64090485 114.270076,1.64090485 L95.6861399,1.64090485 L95.6861399,1.77794204 C98.0273201,3.14985367 97.5499996,5.75663974 97.5499996,8.13477387" id="Fill-8" fill="#002E3C">
				</path>
				<path d="M123.016667,25.1982904 C123.016667,27.8504989 123.254558,29.7859568 121.151268,31.6605947 L129.231073,31.6605947 C127.177055,29.7859568 127.700568,27.7073028 127.700568,25.0550943 L127.700568,12.981964 L127.843764,12.981964 L137.019096,24.6894051 C139.361047,27.6164579 140.269495,29.171599 143.805517,30.8630075 C145.239018,31.5497332 147.581738,32.8354191 149.25467,32.8354191 L149.25467,8.46050664 C149.25467,5.80829814 149.016009,3.65342684 151.071567,1.77801903 L151.071567,1.64098184 L143.038724,1.64098184 L143.038724,1.77801903 C145.094282,3.65342684 144.570769,5.66510197 144.570769,8.31808035 L144.570769,20.1617888 L129.898552,1.77801903 L129.898552,1.64098184 L119.957967,1.64098184 L119.957967,1.77801903 C122.539347,4.52184228 123.016667,5.89991289 123.016667,9.42053683 L123.016667,25.1982904 Z" id="Fill-10" fill="#002E3C">
				</path>
				<path d="M177.664788,25.2580325 C175.562268,26.7669813 172.081678,27.1565365 169.460264,27.3420756 C166.997444,27.5168365 166.395404,27.4406192 164.44224,26.564505 L164.44224,8.22615765 C164.44224,5.80260108 164.107345,3.19581502 166.449295,1.77771108 L166.449295,1.64067389 L153.593206,1.64067389 L153.593206,1.77771108 C155.935156,3.19581502 155.601031,5.80260108 155.601031,8.17996534 L155.601031,25.2380158 C155.601031,27.6161499 155.935156,30.1775136 153.593206,31.5948476 L153.593206,31.7326547 L174.429787,31.7326547 L177.664788,25.2580325 Z" id="Fill-12" fill="#002E3C">
				</path>
				<path d="M190.678163,9.36926337 L190.725895,9.36926337 L194.024026,18.3783037 L187.523998,18.3783037 L190.678163,9.36926337 Z M179.352579,26.3356991 C178.492632,28.6684108 177.870575,29.9949 176.055217,31.5946937 L176.055217,31.7325007 L185.851067,31.7325007 L185.851067,31.5946937 C184.99112,30.9095077 184.131173,30.3143968 184.131173,29.0340999 C184.131173,28.0732999 184.656996,26.6559658 184.99112,25.741358 L186.138229,22.6318456 L195.600724,22.6318456 L197.177421,27.0678472 C197.463814,27.7992255 197.560048,28.0278774 197.560048,28.805448 C197.560048,30.2689744 197.271346,30.9095077 196.171969,31.5946937 L196.171969,31.7325007 L210.033511,31.7325007 L210.033511,31.6863084 L210.033511,31.5946937 C207.309705,29.1711371 207.070275,28.1194922 205.923166,25.1924394 L196.891029,1.64051992 L185.182048,1.64051992 L185.182048,1.77832698 C186.138229,2.37266804 186.998946,3.19566104 186.998946,4.43053548 C186.998946,5.39133555 186.234463,7.17435874 185.947301,8.08896649 L179.352579,26.3356991 Z" id="Fill-14" fill="#002E3C">
				</path>
				<path d="M223.442061,31.5948476 C221.100111,30.1775136 221.435775,27.5707275 221.435775,25.1925934 L221.435775,5.86188122 L221.913866,5.86188122 C230.266205,4.93726513 229.5202,8.65266666 229.955947,11.1763066 C229.955947,11.1763066 229.967495,16.369862 222.202568,16.0842396 L228.471634,28.8056019 C230.144566,31.64104 231.673531,32.0521515 234.876198,31.8696919 L240.835006,31.6010066 C238.450713,30.2314046 236.679238,28.0280314 235.389702,25.9701639 L230.933684,16.9411069 C234.557471,15.8694453 236.596092,13.2865253 236.695405,9.85828597 C236.798568,6.29454919 234.813838,4.22744329 231.993028,2.76391691 C229.842776,1.66607966 227.646331,1.64067389 225.304381,1.64067389 L210.587511,1.64067389 L210.587511,1.77848095 C212.928691,3.19581502 212.593797,5.80260108 212.593797,8.17996534 L212.593797,25.1925934 C212.593797,27.5707275 212.928691,30.1775136 210.587511,31.5948476 L210.587511,31.7326547 L223.442061,31.7326547 L223.442061,31.5948476 Z" id="Fill-16" fill="#002E3C">
				</path>
				<path d="M66.3055206,52.0998453 C65.0144455,52.0998453 64.1760551,50.6355491 64.1760551,48.9918727 C64.1760551,47.3705226 64.9805712,46.2418905 66.1376886,46.2418905 C66.6904565,46.2418905 67.2278271,46.4874796 67.6882105,46.8785745 L67.6882105,45.5944282 C67.1939527,45.4381443 66.6742892,45.3149648 66.1623245,45.3149648 C64.4439705,45.3149648 63.2260332,46.84547 63.2260332,49.1597048 C63.2260332,51.5516966 64.4439705,53.0260012 66.4225411,53.0260012 C66.8590585,53.0260012 67.2948059,52.936696 67.6882105,52.6911069 L68.1162592,51.3954126 L68.0908534,51.3954126 C67.5627213,51.7980556 66.933736,52.0998453 66.3055206,52.0998453" id="Fill-18" fill="#002E3C">
				</path>
				<path d="M70.7402134,52.0441836 L69.6754807,51.909456 L69.6754807,49.260327 L70.2959974,49.260327 C70.5554442,49.260327 70.9080455,49.2487789 71.0420032,49.572895 L71.0666391,49.572895 L71.0666391,48.3888321 L71.0420032,48.3888321 C70.94115,48.4558109 70.8071923,48.4558109 70.6732346,48.4558109 L69.6754807,48.4558109 L69.6754807,46.3763871 C69.9433961,46.3094082 70.2374871,46.2978601 70.5308083,46.2978601 C70.9165141,46.2978601 71.2598769,46.3425127 71.5200936,46.7451557 L71.5447295,46.7451557 L71.5447295,45.4371434 L71.5200936,45.4371434 C71.4107718,45.5156704 71.2683455,45.4925742 71.1259192,45.4925742 L68.4444556,45.4925742 L68.4444556,45.5264486 C68.8717344,45.7397031 68.8209229,46.5549973 68.8209229,47.0692717 L68.8209229,51.2835502 C68.8209229,51.7862765 68.8717344,52.6138888 68.4444556,52.8155952 L68.4444556,52.8486997 L71.9389039,52.8486997 L72.3161411,51.3844034 L72.2915052,51.3844034 C71.871925,51.8755817 71.2937513,52.1103926 70.7402134,52.0441836" id="Fill-20" fill="#002E3C">
				</path>
				<path d="M78.3081306,45.4897257 L76.8338261,45.4897257 L76.8338261,45.5236 C77.2795819,45.8584943 77.2703434,46.3065597 77.2703434,46.9324655 L77.2703434,51.1690703 L74.1985547,46.0040001 L74.0807643,45.7807372 C74.0222541,45.6914321 73.9883797,45.6352314 73.9552752,45.5012737 L73.9552752,45.4897257 L72.7327187,45.4897257 L72.7327187,45.5236 C73.1692361,45.8584943 73.1692361,46.3065597 73.1692361,46.9324655 L73.1692361,51.3923331 C73.1692361,52.0182389 73.1692361,52.4663043 72.7242501,52.8119768 L72.7242501,52.8458512 L74.2070233,52.8458512 L74.2070233,52.8119768 C73.7620374,52.4663043 73.7697361,52.0182389 73.7697361,51.3923331 L73.7697361,47.0664232 L76.6498267,51.9281639 C77.0185953,52.5656178 77.2795819,52.9351563 77.8723832,53.2038416 L77.8723832,46.9324655 C77.8723832,46.3065597 77.8723832,45.8584943 78.3081306,45.5236 L78.3081306,45.4897257 Z" id="Fill-22" fill="#002E3C">
				</path>
				<path d="M82.1510999,45.4957307 L79.0246504,45.4957307 L78.8152452,45.4957307 C78.7066933,45.4741743 78.5973715,45.4741743 78.4965183,45.4179736 L78.4718824,45.4179736 L78.1785612,46.7483122 L78.203967,46.7483122 C78.4634138,46.4241961 78.840651,46.3010166 79.200951,46.3010166 L79.9384882,46.3010166 L79.9384882,51.2859368 C79.9384882,51.7902029 79.9892998,52.6054972 79.5697196,52.8187517 L79.5697196,52.8518562 L81.2287935,52.8518562 L81.2287935,52.8187517 C80.7845774,52.4723093 80.793046,52.035792 80.793046,51.399108 L80.793046,46.3010166 L81.5475204,46.3010166 C81.8239044,46.3010166 82.1595685,46.3572173 82.2681204,46.7483122 L82.2935262,46.7483122 L82.5622115,45.4179736 L82.5368057,45.4179736 C82.4274839,45.4849525 82.2935262,45.4957307 82.1510999,45.4957307" id="Fill-24" fill="#002E3C">
				</path>
				<path d="M88.9378282,49.2616358 L89.76775,46.4454446 L90.5899732,49.2616358 L88.9378282,49.2616358 Z M92.0650476,51.2301981 L90.3212879,45.4946529 L88.9971083,45.4946529 L88.9971083,45.5285272 C89.3989814,45.6955894 89.239618,46.1659811 89.1225974,46.5678542 L87.7222006,51.2301981 C87.5882428,51.6944308 87.4727621,52.1509648 87.2325621,52.4912482 C86.8761114,52.1363373 86.5250498,51.7144475 86.2679126,51.2894782 L85.0630632,49.2670249 C85.749019,49.0537704 86.3934017,48.2831287 86.3934017,47.2984626 C86.3934017,46.2814619 85.7821235,45.4969625 84.6611901,45.4969625 L82.6687618,45.4900336 L82.6687618,45.523908 C83.0960406,45.7363926 83.0375304,46.5516869 83.0375304,47.0659613 L83.0375304,51.2802398 C83.0375304,51.783736 83.0960406,52.6105783 82.6687618,52.8115149 L82.6687618,52.8453892 L84.2685555,52.8453892 L84.2685555,52.8115149 C83.8412766,52.6105783 83.8913182,51.7945142 83.8913182,51.2802398 L83.8913182,46.2814619 C84.0837862,46.2368093 84.2685555,46.2037048 84.4610234,46.1921567 C85.0207202,46.1590523 85.5396139,46.6279042 85.5396139,47.4331902 C85.5396139,48.4840652 84.7620433,48.8967165 84.0922548,49.0314441 L84.8621266,50.6081416 L85.8829767,52.2957007 C86.1339549,52.7098918 86.4103389,52.8546277 86.854555,52.8546277 L87.6259666,52.8546277 C87.6244268,52.8530879 87.623657,52.8515482 87.6221172,52.8507783 L88.4520391,52.8507783 L88.4520391,52.816904 C88.0493961,52.6159674 88.1079063,52.2926212 88.284207,51.6659456 L88.7199545,50.089248 L90.8324828,50.089248 L91.2851675,51.6659456 C91.5115098,52.4489052 91.5792585,52.5713149 91.1681469,52.816904 L91.1681469,52.8507783 L92.8865009,52.8507783 L92.8865009,52.816904 C92.4091803,52.4927879 92.2575156,51.8668821 92.0650476,51.2301981 L92.0650476,51.2301981 Z" id="Fill-26" fill="#002E3C">
				</path>
				<path d="M95.6317099,52.0411811 L94.4915297,51.939558 L94.4915297,47.0662692 C94.4915297,46.5635429 94.4330195,45.7367006 94.8602983,45.5234461 L94.8602983,45.4895717 L93.2597348,45.4895717 L93.2597348,45.5234461 C93.6877835,45.7367006 93.6377418,46.5519948 93.6377418,47.0662692 L93.6377418,51.2805477 C93.6377418,51.7840439 93.6877835,52.6101164 93.2597348,52.8118228 L93.2597348,52.8456972 L96.7049113,52.8456972 L97.1406587,51.3590746 L97.115253,51.3590746 C96.6964427,51.8286965 96.2014151,52.0858337 95.6317099,52.0411811" id="Fill-28" fill="#002E3C">
				</path>
				<path d="M102.338756,52.0411811 L101.198576,51.939558 L101.198576,47.0662692 C101.198576,46.5635429 101.139296,45.7367006 101.567345,45.5234461 L101.567345,45.4895717 L99.9667813,45.4895717 L99.9667813,45.5234461 C100.39483,45.7367006 100.344018,46.5519948 100.344018,47.0662692 L100.344018,51.2805477 C100.344018,51.7840439 100.39483,52.6101164 99.9667813,52.8118228 L99.9667813,52.8456972 L103.411958,52.8456972 L103.847705,51.3590746 L103.822299,51.3590746 C103.403489,51.8286965 102.908462,52.0858337 102.338756,52.0411811" id="Fill-30" fill="#002E3C">
				</path>
				<path d="M107.265474,52.2200993 C105.945144,52.2200993 105.112913,50.611837 105.112913,49.0474574 C105.112913,47.3606682 105.945144,46.1088566 107.248537,46.1088566 C108.577336,46.1088566 109.359526,47.6840144 109.359526,49.3161427 C109.359526,50.9806056 108.543462,52.2200993 107.265474,52.2200993 M107.307817,45.3035707 C105.541731,45.2481399 104.162891,47.0250041 104.162891,49.1483107 C104.162891,51.4386794 105.558668,53.0253853 107.223131,53.0253853 C108.896833,53.0253853 110.309548,51.3709307 110.309548,49.09211 C110.309548,47.0804349 109.073133,45.2927925 107.307817,45.3035707" id="Fill-32" fill="#002E3C">
				</path>
				<path d="M112.580516,49.2616358 L113.410437,46.4454446 L114.231891,49.2616358 L112.580516,49.2616358 Z M115.707735,51.2301981 L113.963975,45.4946529 L112.639026,45.4946529 L112.639026,45.5285272 C113.041669,45.6955894 112.882305,46.1659811 112.764515,46.5678542 L111.364888,51.2301981 C111.180119,51.8668821 111.037692,52.4927879 110.551133,52.816904 L110.551133,52.8507783 L112.093957,52.8507783 L112.093957,52.816904 C111.692083,52.6159674 111.750594,52.2926212 111.926125,51.6659456 L112.362642,50.089248 L114.47517,50.089248 L114.927855,51.6659456 C115.154197,52.4489052 115.221176,52.5713149 114.810064,52.816904 L114.810064,52.8507783 L116.529188,52.8507783 L116.529188,52.816904 C116.051098,52.4927879 115.900203,51.8668821 115.707735,51.2301981 L115.707735,51.2301981 Z" id="Fill-34" fill="#002E3C">
				</path>
				<path d="M120.932624,45.5236 C121.37838,45.8592642 121.369142,46.3065597 121.369142,46.9324655 L121.369142,51.1690703 L118.297353,46.0040001 L118.179563,45.7807372 C118.121052,45.6914321 118.087178,45.6360013 118.054073,45.5012737 L118.054073,45.4897257 L116.831517,45.4897257 L116.831517,45.5236 C117.268034,45.8592642 117.268034,46.3065597 117.268034,46.9324655 L117.268034,51.3923331 C117.268034,52.0190088 117.268034,52.4663043 116.823818,52.8119768 L116.823818,52.8458512 L118.305822,52.8458512 L118.305822,52.8119768 C117.860836,52.4663043 117.869304,52.0190088 117.869304,51.3923331 L117.869304,47.0664232 L120.748625,51.9281639 C121.118163,52.5656178 121.37838,52.9351563 121.971951,53.2038416 L121.971951,46.9324655 C121.971951,46.3065597 121.971951,45.8592642 122.406929,45.5236 L122.406929,45.4897257 L120.932624,45.4897257 L120.932624,45.5236 Z" id="Fill-36" fill="#002E3C">
				</path>
				<path d="M127.0006,49.2616358 L127.830522,46.4454446 L128.652745,49.2616358 L127.0006,49.2616358 Z M130.12782,51.2301981 L128.38406,45.4946529 L127.05911,45.4946529 L127.05911,45.5285272 C127.461753,45.6955894 127.30239,46.1659811 127.1846,46.5678542 L125.784973,51.2301981 C125.600973,51.8668821 125.457777,52.4927879 124.971218,52.816904 L124.971218,52.8507783 L126.514041,52.8507783 L126.514041,52.816904 C126.112168,52.6159674 126.170678,52.2926212 126.346209,51.6659456 L126.782726,50.089248 L128.895255,50.089248 L129.348709,51.6659456 C129.575052,52.4489052 129.64203,52.5713149 129.230149,52.816904 L129.230149,52.8507783 L130.950043,52.8507783 L130.950043,52.816904 C130.471952,52.4927879 130.320288,51.8668821 130.12782,51.2301981 L130.12782,51.2301981 Z" id="Fill-38" fill="#002E3C">
				</path>
				<path d="M133.104683,52.0396414 C132.896048,52.0396414 132.694341,52.0180849 132.493405,51.9618843 L132.493405,46.4241961 C132.744383,46.3456692 132.996131,46.3010166 133.247879,46.3010166 C134.644427,46.3010166 135.46434,47.2833731 135.46434,49.2373078 C135.46434,51.1689163 134.351875,52.0396414 133.104683,52.0396414 M133.321787,45.4895717 L131.270848,45.4895717 L131.270848,45.5234461 C131.698127,45.6912781 131.640387,46.5073423 131.640387,47.0216167 L131.640387,51.2358951 C131.640387,51.8956753 131.689659,52.432276 131.270848,52.8118228 L131.270848,52.8456972 L133.280984,52.8456972 C135.155622,52.8456972 136.415902,51.302874 136.415902,49.1010405 C136.415902,46.8761109 135.230299,45.4895717 133.321787,45.4895717" id="Fill-40" fill="#002E3C">
				</path>
				<path d="M143.234811,46.1829183 C143.234811,45.9257811 143.293321,45.601665 143.495027,45.523908 L143.495027,45.4900336 L142.043819,45.4900336 L142.043819,45.5008118 C142.043819,45.7363926 141.986079,45.9596554 141.9191,46.1944664 L140.531791,50.9345673 L138.960482,46.004308 C138.910441,45.8472542 138.843462,45.680192 138.843462,45.5008118 L138.843462,45.4900336 L137.373007,45.4900336 L137.373007,45.523908 C137.759482,45.8033715 137.667098,46.250667 137.633223,46.563235 L137.155133,51.2471353 C137.088154,51.8499449 137.038112,52.3980937 136.685511,52.8115149 L136.685511,52.8453892 L138.053573,52.8453892 L138.053573,52.8115149 C137.658629,52.5774738 137.717139,52.0855257 137.784118,51.4034193 L138.263748,46.5963395 L139.854304,51.6382302 C140.05524,52.264136 140.172261,52.5659257 140.589531,52.990895 L142.463399,46.5855613 L142.94149,51.9731244 C142.94149,52.354211 142.891448,52.6891052 142.598127,52.8115149 L142.598127,52.8453892 L144.215628,52.8453892 L144.215628,52.8115149 C143.880733,52.4989469 143.83839,52.1971571 143.788349,51.6713347 L143.234811,46.1829183 Z" id="Fill-42" fill="#002E3C">
				</path>
				<path d="M144.517417,45.5236 C144.944696,45.7360847 144.886186,46.5521488 144.886186,47.0664232 L144.886186,51.2807017 C144.886186,51.7841979 144.936997,52.6102704 144.517417,52.8119768 L144.517417,52.8458512 L146.109512,52.8458512 L146.109512,52.8119768 C145.689932,52.5987223 145.739974,51.7841979 145.739974,51.2807017 L145.739974,47.0664232 C145.739974,46.5636969 145.689932,45.7360847 146.109512,45.5236 L146.109512,45.4897257 L144.517417,45.4897257 L144.517417,45.5236 Z" id="Fill-44" fill="#002E3C">
				</path>
				<path d="M150.779401,45.5236 C151.224387,45.8592642 151.215918,46.3065597 151.215918,46.9324655 L151.215918,51.1690703 L148.14413,46.0040001 L148.026339,45.7807372 C147.967829,45.6914321 147.933955,45.6360013 147.90085,45.5012737 L147.90085,45.4897257 L146.678294,45.4897257 L146.678294,45.5236 C147.114041,45.8592642 147.114041,46.3065597 147.114041,46.9324655 L147.114041,51.3923331 C147.114041,52.0190088 147.114041,52.4663043 146.669825,52.8119768 L146.669825,52.8458512 L148.151828,52.8458512 L148.151828,52.8119768 C147.707612,52.4663043 147.716081,52.0190088 147.716081,51.3923331 L147.716081,47.0664232 L150.595402,51.9281639 C150.96417,52.5656178 151.224387,52.9351563 151.817958,53.2038416 L151.817958,46.9324655 C151.817958,46.3065597 151.817958,45.8592642 152.253705,45.5236 L152.253705,45.4897257 L150.779401,45.4897257 L150.779401,45.5236 Z" id="Fill-46" fill="#002E3C">
				</path>
				<path d="M152.733413,45.5236 C153.161461,45.7360847 153.102181,46.5521488 153.102181,47.0664232 L153.102181,51.2807017 C153.102181,51.7841979 153.152223,52.6102704 152.733413,52.8119768 L152.733413,52.8458512 L154.325508,52.8458512 L154.325508,52.8119768 C153.905927,52.5987223 153.956739,51.7841979 153.956739,51.2807017 L153.956739,47.0664232 C153.956739,46.5636969 153.905927,45.7360847 154.325508,45.5236 L154.325508,45.4897257 L152.733413,45.4897257 L152.733413,45.5236 Z" id="Fill-48" fill="#002E3C">
				</path>
				<path d="M155.79935,47.1377133 C155.79935,46.3670716 156.40139,46.1207126 156.878711,46.1207126 C157.347563,46.1207126 157.865686,46.3778498 158.190572,46.8251454 L158.190572,45.5617857 C157.791009,45.3939536 157.36373,45.3161966 156.945689,45.3161966 C155.924839,45.3161966 154.849328,45.8520274 154.849328,47.260123 C154.849328,49.6282488 157.72403,49.3156808 157.72403,51.0586707 C157.72403,51.8400906 157.0042,52.2204073 156.526879,52.2204073 C155.874798,52.2204073 155.191152,51.8631867 154.697664,51.2934816 L154.940943,52.6900291 C155.415954,52.92484 155.924839,53.0249233 156.435264,53.0249233 C157.740197,53.0249233 158.674052,51.9078393 158.674052,50.7122283 C158.674052,48.6458923 155.79935,48.6674487 155.79935,47.1377133" id="Fill-50" fill="#002E3C">
				</path>
				<path d="M162.636505,45.4957307 L159.509286,45.4957307 L159.299881,45.4957307 C159.191329,45.4741743 159.082007,45.4741743 158.981154,45.4179736 L158.956518,45.4179736 L158.663197,46.7483122 L158.688602,46.7483122 C158.948049,46.4241961 159.325286,46.3010166 159.686356,46.3010166 L160.423893,46.3010166 L160.423893,51.2859368 C160.423893,51.7902029 160.473935,52.6054972 160.054355,52.8187517 L160.054355,52.8518562 L161.713429,52.8518562 L161.713429,52.8187517 C161.269983,52.4723093 161.277681,52.035792 161.277681,51.399108 L161.277681,46.3010166 L162.032156,46.3010166 C162.30854,46.3010166 162.644204,46.3572173 162.752756,46.7483122 L162.778931,46.7483122 L163.046847,45.4179736 L163.021441,45.4179736 C162.912119,45.4849525 162.778931,45.4957307 162.636505,45.4957307" id="Fill-52" fill="#002E3C">
				</path>
				<path d="M169.422541,49.2616358 L170.252462,46.4454446 L171.074685,49.2616358 L169.422541,49.2616358 Z M172.54976,51.2301981 L170.806,45.4946529 L169.481051,45.4946529 L169.481051,45.5285272 C169.884464,45.6955894 169.7251,46.1659811 169.60731,46.5678542 L168.206913,51.2301981 C168.072185,51.6944308 167.957474,52.1509648 167.717274,52.4912482 C167.360824,52.1363373 167.009762,51.7144475 166.752625,51.2894782 L165.547776,49.2670249 C166.232961,49.0537704 166.878114,48.2831287 166.878114,47.2984626 C166.878114,46.2814619 166.267606,45.4969625 165.145902,45.4969625 L163.153474,45.4900336 L163.153474,45.523908 C163.580753,45.7363926 163.523013,46.5516869 163.523013,47.0659613 L163.523013,51.2802398 C163.523013,51.783736 163.580753,52.6105783 163.153474,52.8115149 L163.153474,52.8453892 L164.753268,52.8453892 L164.753268,52.8115149 C164.326759,52.6105783 164.376031,51.7945142 164.376031,51.2802398 L164.376031,46.2814619 C164.568499,46.2368093 164.753268,46.2037048 164.945736,46.1921567 C165.505433,46.1590523 166.025096,46.6279042 166.025096,47.4331902 C166.025096,48.4840652 165.245986,48.8967165 164.577737,49.0314441 L165.346839,50.6081416 L166.367689,52.2957007 C166.618667,52.7098918 166.895051,52.8546277 167.340037,52.8546277 L168.110679,52.8546277 L168.10683,52.8507783 L168.936751,52.8507783 L168.936751,52.816904 C168.534108,52.6159674 168.592619,52.2926212 168.768149,51.6659456 L169.204667,50.089248 L171.317965,50.089248 L171.77065,51.6659456 C171.996992,52.4489052 172.063971,52.5713149 171.652089,52.816904 L171.652089,52.8507783 L173.371213,52.8507783 L173.371213,52.816904 C172.893893,52.4927879 172.742228,51.8668821 172.54976,51.2301981 L172.54976,51.2301981 Z" id="Fill-54" fill="#002E3C">
				</path>
				<path d="M177.05659,45.4957307 L173.92937,45.4957307 L173.719965,45.4957307 C173.610643,45.4741743 173.502091,45.4741743 173.402008,45.4179736 L173.377372,45.4179736 L173.083281,46.7483122 L173.107917,46.7483122 C173.368134,46.4241961 173.745371,46.3010166 174.105671,46.3010166 L174.843978,46.3010166 L174.843978,51.2859368 C174.843978,51.7902029 174.89402,52.6054972 174.47444,52.8187517 L174.47444,52.8518562 L176.134283,52.8518562 L176.134283,52.8187517 C175.690067,52.4723093 175.697766,52.035792 175.697766,51.399108 L175.697766,46.3010166 L176.45224,46.3010166 C176.729394,46.3010166 177.064288,46.3572173 177.17361,46.7483122 L177.199016,46.7483122 L177.466931,45.4179736 L177.441526,45.4179736 C177.332204,45.4849525 177.199016,45.4957307 177.05659,45.4957307" id="Fill-56" fill="#002E3C">
				</path>
				<path d="M177.54977,45.5236 C177.977049,45.7360847 177.918538,46.5521488 177.918538,47.0664232 L177.918538,51.2807017 C177.918538,51.7841979 177.96935,52.6102704 177.54977,52.8119768 L177.54977,52.8458512 L179.141095,52.8458512 L179.141095,52.8119768 C178.721515,52.5987223 178.772326,51.7841979 178.772326,51.2807017 L178.772326,47.0664232 C178.772326,46.5636969 178.721515,45.7360847 179.141095,45.5236 L179.141095,45.4897257 L177.54977,45.4897257 L177.54977,45.5236 Z" id="Fill-58" fill="#002E3C">
				</path>
				<path d="M182.720075,52.2200993 C181.399745,52.2200993 180.567513,50.611837 180.567513,49.0474574 C180.567513,47.3606682 181.399745,46.1088566 182.703138,46.1088566 C184.031937,46.1088566 184.814126,47.6840144 184.814126,49.3161427 C184.814126,50.9806056 183.998062,52.2200993 182.720075,52.2200993 M182.761648,45.3035707 C180.996332,45.2481399 179.617491,47.0250041 179.617491,49.1483107 C179.617491,51.4386794 181.012499,53.0253853 182.677732,53.0253853 C184.350664,53.0253853 185.764148,51.3709307 185.764148,49.09211 C185.764148,47.0804349 184.527734,45.2927925 182.761648,45.3035707" id="Fill-60" fill="#002E3C">
				</path>
				<path d="M190.351122,45.5236 C190.796108,45.8592642 190.787639,46.3065597 190.787639,46.9324655 L190.787639,51.1690703 L187.71585,46.0040001 L187.59806,45.7807372 C187.53955,45.6914321 187.505675,45.6360013 187.472571,45.5012737 L187.472571,45.4897257 L186.250014,45.4897257 L186.250014,45.5236 C186.685762,45.8592642 186.685762,46.3065597 186.685762,46.9324655 L186.685762,51.3923331 C186.685762,52.0190088 186.685762,52.4663043 186.241546,52.8119768 L186.241546,52.8458512 L187.723549,52.8458512 L187.723549,52.8119768 C187.278563,52.4663043 187.287802,52.0190088 187.287802,51.3923331 L187.287802,47.0664232 L190.167122,51.9281639 C190.535891,52.5656178 190.796108,52.9351563 191.389679,53.2038416 L191.389679,46.9324655 C191.389679,46.3065597 191.389679,45.8592642 191.825426,45.5236 L191.825426,45.4897257 L190.351122,45.4897257 L190.351122,45.5236 Z" id="Fill-62" fill="#002E3C">
				</path>
				<path d="M196.843913,52.2532038 C196.19799,52.2532038 195.670628,51.7058249 195.670628,50.7889076 C195.670628,50.095253 196.013991,49.5255479 196.424333,49.134453 L198.076478,51.2924037 C197.783157,51.8066781 197.355108,52.2532038 196.843913,52.2532038 M196.533655,46.0488066 C196.843913,46.0488066 197.111828,46.3059438 197.111828,46.7309131 C197.111828,47.1897567 196.835444,47.5916298 196.567529,47.848767 C196.341187,47.5808516 195.980117,47.133556 195.980117,46.6862605 C195.980117,46.2612912 196.231095,46.0488066 196.533655,46.0488066 M197.044849,48.5085471 C197.431325,48.0504734 197.773918,47.5916298 197.773918,46.8533227 C197.773918,45.9271669 197.238087,45.3151187 196.567529,45.3151187 C195.913138,45.3151187 195.257207,45.9379451 195.257207,46.8656406 C195.257207,47.4907766 195.619817,48.016599 195.930075,48.4415683 C195.316487,49.0898004 194.769878,49.7488107 194.769878,50.8558864 C194.769878,52.2416557 195.7199,52.9915109 196.667612,52.9915109 C197.472128,52.9915109 197.983323,52.5996461 198.411372,51.6834986 C198.671589,52.0183929 199.106566,52.4549102 199.409126,52.666625 C199.635468,52.822909 199.904153,52.8460051 200.196705,52.8460051 L201.111313,52.8460051 L201.111313,52.8129006 C199.526146,51.8397826 198.294351,50.107571 197.044849,48.5085471" id="Fill-64" fill="#002E3C">
				</path>
				<path d="M210.414444,52.0441836 L209.349711,51.909456 L209.349711,49.260327 L209.970228,49.260327 C210.230445,49.260327 210.582276,49.2487789 210.717004,49.572895 L210.741639,49.572895 L210.741639,48.3888321 L210.717004,48.3888321 C210.61615,48.4558109 210.482193,48.4558109 210.347465,48.4558109 L209.349711,48.4558109 L209.349711,46.3763871 C209.618396,46.3094082 209.911718,46.2978601 210.205809,46.2978601 C210.590745,46.2978601 210.934877,46.3425127 211.194324,46.7451557 L211.21973,46.7451557 L211.21973,45.4371434 L211.194324,45.4371434 C211.085002,45.5156704 210.943346,45.4925742 210.80015,45.4925742 L208.119456,45.4925742 L208.119456,45.5264486 C208.545965,45.7397031 208.495923,46.5549973 208.495923,47.0692717 L208.495923,51.2835502 C208.495923,51.6985111 208.525948,52.3282663 208.298836,52.6516125 C207.884645,52.2682163 207.460446,51.7824272 207.162505,51.2897092 L205.958426,49.2672559 C206.644381,49.0540014 207.288764,48.2825898 207.288764,47.2986935 C207.288764,46.2816928 206.677486,45.4971934 205.556553,45.4971934 L203.564124,45.4894947 L203.564124,45.5233691 C203.991403,45.7366236 203.932123,46.5519179 203.932123,47.0661922 L203.932123,51.2804707 C203.932123,51.7839669 203.991403,52.6100394 203.564124,52.8117458 L203.564124,52.8456202 L205.163148,52.8456202 L205.163148,52.8117458 C204.736639,52.6100394 204.786681,51.7947451 204.786681,51.2804707 L204.786681,46.2816928 C204.979149,46.2370403 205.163148,46.2039358 205.355616,46.1916178 C205.916083,46.1585133 206.434206,46.6281352 206.434206,47.4334211 C206.434206,48.4842962 205.656636,48.8969475 204.986847,49.0316751 L205.756719,50.6083726 L206.777569,52.2959317 C207.030087,52.7093529 207.305701,52.8548587 207.749917,52.8548587 L208.521329,52.8548587 C208.519019,52.8533189 208.51671,52.8502394 208.5144,52.8486997 L211.613904,52.8486997 L211.991141,51.3844034 L211.965736,51.3844034 C211.546925,51.8755817 210.968752,52.1103926 210.414444,52.0441836" id="Fill-66" fill="#002E3C">
				</path>
				<path d="M214.535953,45.4957307 L212.498872,45.4895717 L212.498872,45.5234461 C212.917682,45.7467089 212.867641,46.5635429 212.867641,47.0662692 L212.867641,51.2805477 C212.867641,51.7840439 212.917682,52.6101164 212.490403,52.8118228 L212.490403,52.8456972 L214.158716,52.8456972 L214.158716,52.8118228 C213.71373,52.4761587 213.721428,52.029633 213.721428,51.4037272 L213.721428,46.3679955 C213.914666,46.3233429 214.107904,46.3010166 214.309611,46.3010166 C214.981709,46.3010166 215.502142,46.6921115 215.502142,47.6760077 C215.502142,48.749979 214.720722,49.3412405 213.998582,49.3974412 C214.19259,49.5213905 214.401225,49.5537252 214.61217,49.5537252 C215.560652,49.5537252 216.452164,48.7384309 216.452164,47.451975 C216.452164,46.2009333 215.626861,45.4957307 214.535953,45.4957307" id="Fill-68" fill="#002E3C">
				</path>
				<path d="M219.776932,52.2200993 C218.456602,52.2200993 217.623601,50.611837 217.623601,49.0474574 C217.623601,47.3606682 218.456602,46.1088566 219.759995,46.1088566 C221.088024,46.1088566 221.870214,47.6840144 221.870214,49.3161427 C221.870214,50.9806056 221.05415,52.2200993 219.776932,52.2200993 M219.819275,45.3035707 C218.053189,45.2481399 216.673579,47.0250041 216.673579,49.1483107 C216.673579,51.4386794 218.070127,53.0253853 219.734589,53.0253853 C221.407521,53.0253853 222.820236,51.3709307 222.820236,49.09211 C222.820236,47.0804349 221.584591,45.2927925 219.819275,45.3035707" id="Fill-70" fill="#002E3C">
				</path>
				<path d="M226.949366,51.2893243 L225.744517,49.2668709 C226.429703,49.0543863 227.074086,48.2829747 227.074086,47.2983086 C227.074086,46.2813079 226.462807,45.4975784 225.341874,45.4975784 L223.349446,45.4898796 L223.349446,45.523754 C223.776725,45.7362386 223.718214,46.5523028 223.718214,47.0665772 L223.718214,51.2800858 C223.718214,51.7843519 223.776725,52.6104243 223.349446,52.8121308 L223.349446,52.8452353 L224.94847,52.8452353 L224.94847,52.8121308 C224.52273,52.6104243 224.572002,51.7943602 224.572002,51.2800858 L224.572002,46.2813079 C224.76447,46.2374252 224.94847,46.2043207 225.140937,46.1920028 C225.702174,46.1588983 226.220298,46.6277502 226.220298,47.4330362 C226.220298,48.4839113 225.442727,48.8973324 224.772939,49.0312901 L225.542811,50.6079877 L226.564431,52.2963166 C226.815409,52.7097378 227.091793,52.8544737 227.536009,52.8544737 L228.30742,52.8544737 C227.8301,52.4526006 227.301198,51.8713474 226.949366,51.2893243" id="Fill-72" fill="#002E3C">
				</path>
				<path d="M231.215996,45.4957307 L228.089547,45.4957307 L227.880142,45.4957307 C227.77082,45.4741743 227.662268,45.4741743 227.561415,45.4179736 L227.536779,45.4179736 L227.242688,46.7483122 L227.268093,46.7483122 C227.52831,46.4241961 227.905547,46.3010166 228.265847,46.3010166 L229.003385,46.3010166 L229.003385,51.2859368 C229.003385,51.7902029 229.053426,52.6054972 228.634616,52.8187517 L228.634616,52.8518562 L230.29369,52.8518562 L230.29369,52.8187517 C229.849474,52.4723093 229.857172,52.035792 229.857172,51.399108 L229.857172,46.3010166 L230.612417,46.3010166 C230.888801,46.3010166 231.224465,46.3572173 231.333017,46.7483122 L231.358423,46.7483122 L231.627108,45.4179736 L231.601702,45.4179736 C231.49238,45.4849525 231.358423,45.4957307 231.215996,45.4957307" id="Fill-74" fill="#002E3C">
				</path>
				<path d="M231.709946,45.5236 C232.137225,45.7360847 232.078715,46.5521488 232.078715,47.0664232 L232.078715,51.2807017 C232.078715,51.7841979 232.128756,52.6102704 231.709946,52.8119768 L231.709946,52.8458512 L233.301271,52.8458512 L233.301271,52.8119768 C232.881691,52.5987223 232.932502,51.7841979 232.932502,51.2807017 L232.932502,47.0664232 C232.932502,46.5636969 232.881691,45.7360847 233.301271,45.5236 L233.301271,45.4897257 L231.709946,45.4897257 L231.709946,45.5236 Z" id="Fill-76" fill="#002E3C">
				</path>
				<path d="M237.97116,45.5236 C238.416146,45.8592642 238.407677,46.3065597 238.407677,46.9324655 L238.407677,51.1690703 L235.335888,46.0040001 L235.218098,45.7807372 C235.159588,45.6914321 235.126483,45.6360013 235.092609,45.5012737 L235.092609,45.4897257 L233.870052,45.4897257 L233.870052,45.5236 C234.3058,45.8592642 234.3058,46.3065597 234.3058,46.9324655 L234.3058,51.3923331 C234.3058,52.0190088 234.3058,52.4663043 233.861584,52.8119768 L233.861584,52.8458512 L235.344357,52.8458512 L235.344357,52.8119768 C234.899371,52.4663043 234.90784,52.0190088 234.90784,51.3923331 L234.90784,47.0664232 L237.78716,51.9281639 C238.155929,52.5656178 238.416146,52.9351563 239.010487,53.2038416 L239.010487,46.9324655 C239.010487,46.3065597 239.010487,45.8592642 239.445464,45.5236 L239.445464,45.4897257 L237.97116,45.4897257 L237.97116,45.5236 Z" id="Fill-78" fill="#002E3C">
				</path>
				<path d="M243.926426,49.1376094 C244.303664,49.338546 244.312132,49.8859249 244.312132,50.3994294 L244.312132,52.0084615 C243.935665,52.1539673 243.533022,52.2201763 243.147316,52.2201763 C241.823906,52.2201763 240.751475,50.8575031 240.751475,49.0590825 C240.751475,47.2606619 241.748459,46.1204817 243.054931,46.1204817 C243.566896,46.1204817 244.20281,46.2775355 244.546943,46.7910401 L244.571579,46.7910401 L244.571579,45.5053541 C244.135832,45.3829444 243.700084,45.3159656 243.256638,45.3159656 C241.228795,45.3159656 239.801453,46.8133663 239.801453,49.2161364 C239.801453,51.4610827 241.061733,53.0254623 243.205826,53.0254623 C243.884853,53.0254623 244.538475,52.8576302 245.208263,52.6897981 C245.158221,52.5335141 245.16592,52.3549039 245.16592,52.1870718 L245.16592,49.6172396 C245.16592,49.4501774 245.16592,49.2715671 245.208263,49.1376094 L245.208263,49.1037351 L243.926426,49.1037351 L243.926426,49.1376094 Z" id="Fill-80" fill="#002E3C">
				</path>
				<path d="M243.044538,21.9499702 L244.420299,21.9499702 L244.420299,21.9345727 C244.200886,21.7313266 244.196266,21.5026746 244.196266,21.2078137 L244.196266,20.4256239 L244.29789,20.4302431 C244.481119,20.4302431 244.689754,20.4202348 244.755963,20.6134726 L244.779829,20.6134726 L244.779829,19.9013412 L244.755963,19.9013412 C244.709771,19.9213578 244.643562,19.9267469 244.568115,19.9267469 L244.196266,19.9267469 L244.196266,19.1014443 L244.359479,19.1014443 C244.608148,19.1014443 244.89685,19.0706495 245.033887,19.3100796 L245.049285,19.3100796 L245.049285,18.5725424 L245.033887,18.5725424 C244.978456,18.6033372 244.89685,18.6033372 244.820633,18.6033372 L243.044538,18.6056469 L243.044538,18.6202744 C243.293207,18.7734789 243.257793,19.0629507 243.257793,19.3270168 L243.257793,21.2232111 C243.257793,21.4926663 243.293207,21.776749 243.044538,21.9345727 L243.044538,21.9499702 Z" id="Fill-82" fill="#002E3C">
				</path>
				<path d="M243.835428,26.5771309 C243.468969,26.5771309 243.052468,26.4146879 242.767615,26.179877 L242.935447,26.9120252 C243.250325,27.0336649 243.585989,27.0937149 243.921653,27.0937149 C244.283493,27.0937149 244.609149,27.0482925 244.907859,26.8304187 C245.176544,26.6325617 245.313582,26.3377008 245.313582,26.0074257 C245.313582,25.68177 245.181164,25.453118 244.938654,25.2398635 C244.735408,25.0620231 244.506756,24.9650193 244.263476,24.8587769 C244.074858,24.7771705 243.779227,24.6809366 243.779227,24.4361173 C243.779227,24.197457 244.023276,24.1112314 244.222673,24.1112314 C244.476731,24.1112314 244.72463,24.2128545 244.938654,24.3498917 L244.938654,23.7570903 C244.674588,23.6562371 244.370488,23.6054256 244.084866,23.6054256 C243.773838,23.6054256 243.45896,23.6662455 243.200283,23.8487051 C242.966242,24.0149974 242.824586,24.2944609 242.824586,24.5839327 C242.824586,25.7225732 244.375108,25.5955443 244.375108,26.216061 C244.375108,26.5009136 244.064849,26.5771309 243.835428,26.5771309" id="Fill-84" fill="#002E3C">
				</path>
				<path d="M244.036903,31.6339571 C243.946058,31.6339571 243.889858,31.6239488 243.81364,31.5731373 L243.81364,30.5030154 L243.93605,30.5030154 C244.321756,30.5030154 244.500366,30.6762366 244.500366,31.0634821 C244.500366,31.3591129 244.367948,31.6339571 244.036903,31.6339571 L244.036903,31.6339571 Z M243.81364,29.2704506 C243.864452,29.249664 243.910644,29.2396557 243.961456,29.2396557 C244.180869,29.2396557 244.282492,29.4321237 244.282492,29.6292108 C244.282492,29.8470846 244.155463,30.0649583 243.910644,30.0649583 C243.87523,30.0649583 243.849824,30.05495 243.81364,30.0449416 L243.81364,29.2704506 Z M244.682056,30.2073846 C244.987695,30.1057615 245.221736,29.9025154 245.221736,29.5637717 C245.221736,29.3004756 245.089318,29.0972294 244.882222,28.9340166 C244.668198,28.7654146 244.444935,28.7654146 244.17625,28.7654146 L242.662682,28.7638749 L242.662682,28.7792723 C242.910581,28.931707 242.875936,29.2211788 242.875936,29.4852448 L242.875936,31.3814392 C242.875936,31.6508943 242.910581,31.9357469 242.662682,32.0935706 L242.662682,32.1081982 L244.149304,32.1081982 C244.509604,32.1081982 244.779059,32.103579 245.052364,31.8641488 C245.291794,31.6562834 245.414204,31.3922174 245.414204,31.0765699 C245.414204,30.6346635 245.119343,30.2689744 244.682056,30.2073846 L244.682056,30.2073846 Z" id="Fill-86" fill="#002E3C">
				</path>
				<path d="M62.9019942,38.3052816 L62.8057602,39.0266515 L245.265388,39.0266515 L245.265388,36.7000988 L63.0559686,36.7000988 C62.9982282,37.4391758 62.9597346,37.8048649 62.9019942,38.3052816" id="Fill-88" fill="#002E3C">
				</path>
				<g id="Group-92" transform="translate(238.660272, 0.715904)">
					<mask id="mask-4" fill="white">
						<use xlink:href="#path-3">
						</use>
					</mask>
					<g id="Clip-91">
					</g>
					<path d="M4.86766872,7.87109276 C2.91604359,7.87109276 1.39323708,6.35983433 1.39323708,4.30658612 C1.39323708,2.28798214 2.91604359,0.764405755 4.86766872,0.764405755 C6.79619769,0.764405755 8.3190042,2.28798214 8.3190042,4.30658612 C8.3190042,6.35983433 6.79619769,7.87109276 4.86766872,7.87109276 M4.86766872,0.053814042 C2.52109933,0.053814042 0.536369715,1.85839365 0.536369715,4.30658612 C0.536369715,6.77710487 2.52109933,8.58245434 4.86766872,8.58245434 C7.19191182,8.58245434 9.17664143,6.77710487 9.17664143,4.30658612 C9.17664143,1.85839365 7.19191182,0.053814042 4.86766872,0.053814042" id="Fill-90" fill="#002E3C" mask="url(#mask-4)">
					</path>
				</g>
				<path d="M242.624958,4.72939973 L242.624958,3.20659322 L243.640419,3.20659322 C244.159313,3.20659322 244.712081,3.31899451 244.712081,3.92796314 C244.712081,4.68397729 244.148534,4.72939973 243.51647,4.72939973 L242.624958,4.72939973 Z M245.491191,3.97415545 C245.491191,3.00334706 244.915327,2.57452844 243.75359,2.57452844 L241.880492,2.57452844 L241.880492,7.49323966 L242.624958,7.49323966 L242.624958,5.36069465 L243.482595,5.36069465 L244.779829,7.49323966 L245.61514,7.49323966 L244.215513,5.32682028 C244.937653,5.23674528 245.491191,4.8533491 245.491191,3.97415545 L245.491191,3.97415545 Z" id="Fill-93" fill="#002E3C">
				</path>
			</g>
		</g>
	</g>
</svg>
