<svg width="141" height="74" viewBox="0 0 141 74" fill="none" xmlns="http://www.w3.org/2000/svg">
<g clip-path="url(#clip0_2491_40438)">
<path d="M63.268 43.2661C58.9138 43.2661 55.9019 47.3563 55.9019 51.0948C55.9019 54.367 58.169 56.5184 61.541 56.5184C63.3816 56.5398 65.1621 55.8648 66.5254 54.6287L66.6073 54.5633L65.486 53.1726L65.396 53.2381C64.3685 54.1841 63.0198 54.7046 61.6229 54.6942C61.1337 54.7281 60.6429 54.6568 60.1836 54.485C59.7244 54.3132 59.3073 54.045 58.9606 53.6985C58.6138 53.3519 58.3455 52.9351 58.1736 52.476C58.0018 52.017 57.9304 51.5265 57.9644 51.0375V50.7185H67.7204V50.6449C68.0227 49.8616 68.1807 49.0302 68.1869 48.1907C68.2262 47.5345 68.1259 46.8774 67.8927 46.2627C67.6595 45.648 67.2987 45.0896 66.834 44.6244C66.3692 44.1591 65.8112 43.7975 65.1965 43.5634C64.5819 43.3293 63.9246 43.228 63.268 43.2661ZM66.0917 48.9924H58.3163C59.1348 46.6119 60.9927 45.0658 63.1698 45.0658C63.5793 45.0404 63.9896 45.1039 64.3722 45.2521C64.7549 45.4003 65.1009 45.6296 65.3863 45.9243C65.6718 46.219 65.89 46.572 66.0259 46.959C66.1618 47.346 66.2122 47.7579 66.1735 48.1662C66.1735 48.1662 66.108 48.837 66.0917 48.9761V48.9924ZM56.1147 42.5381C55.4953 41.3812 54.5629 40.4217 53.4239 39.7693C52.2848 39.1169 50.9852 38.7979 49.6734 38.8487C44.2143 38.8487 39.4263 43.757 39.4263 49.4423C39.4263 53.6225 42.43 56.5429 46.7269 56.5429C47.9796 56.5601 49.2221 56.3158 50.375 55.8256C51.5278 55.3354 52.5656 54.6101 53.4219 53.6962L53.4956 53.6144L52.0633 52.2073L51.9814 52.2809C51.3267 52.9949 50.5296 53.5639 49.6416 53.9514C48.7535 54.3388 47.7941 54.5361 46.8251 54.5306C46.1366 54.5683 45.4479 54.4607 44.8038 54.2147C44.1597 53.9688 43.5746 53.59 43.0866 53.1031C42.5987 52.6161 42.2188 52.032 41.9717 51.3885C41.7246 50.7451 41.6158 50.0569 41.6525 49.3687C41.6525 44.8286 45.3192 40.8366 49.5015 40.8366C50.4892 40.7825 51.4711 41.0196 52.3252 41.5184C53.1793 42.0173 53.868 42.7558 54.3059 43.6424L54.3632 43.7488L56.1965 42.6199L56.1147 42.5381ZM134.793 38.4479C134.793 38.4479 132.87 45.6303 132.731 46.1865C132.335 45.2931 131.679 44.5401 130.848 44.0262C130.017 43.5123 129.05 43.2616 128.074 43.307C124.21 43.307 120.961 46.9064 120.961 51.1521C120.961 54.277 123.089 56.5429 126.019 56.5429C126.88 56.5209 127.725 56.317 128.501 55.9448C129.277 55.5726 129.965 55.0404 130.521 54.3833C130.382 54.8987 130.03 56.2485 130.03 56.2485H132.117L136.864 38.4479H134.793ZM126.535 54.6533C124.497 54.6533 123.122 53.1726 123.122 50.9639C123.122 47.7572 125.414 45.1476 128.221 45.1476C128.717 45.1306 129.211 45.2155 129.673 45.3973C130.135 45.579 130.555 45.8536 130.907 46.2041C131.258 46.5546 131.534 46.9735 131.716 47.4348C131.899 47.8962 131.985 48.3901 131.969 48.8861C131.969 51.7983 129.285 54.6533 126.535 54.6533ZM78.6959 43.2661C77.834 43.292 76.9869 43.4975 76.209 43.8694C75.431 44.2413 74.7393 44.7714 74.178 45.4258L74.6855 43.5279H72.5902L68.1706 60.0605H70.2658C70.2658 60.0605 71.9027 54.0561 72.0009 53.5816C72.4 54.4797 73.0595 55.2373 73.8942 55.7565C74.7288 56.2757 75.7002 56.5326 76.6825 56.4939C80.5293 56.4939 83.7868 52.9027 83.7868 48.6488C83.754 45.4748 81.6751 43.2661 78.6959 43.2661ZM76.4779 54.6369C75.9792 54.6517 75.4827 54.5642 75.0191 54.3797C74.5555 54.1952 74.1347 53.9177 73.7826 53.5643C73.4306 53.2109 73.1547 52.7891 72.9722 52.3249C72.7896 51.8608 72.7042 51.3642 72.7212 50.8657C72.7212 47.9699 75.4221 45.1395 78.1639 45.1395C80.2346 45.1395 81.5769 46.5874 81.5769 48.837C81.5933 52.0274 79.2934 54.6369 76.4779 54.6369ZM107.841 43.2661C103.495 43.2661 100.475 47.3563 100.475 51.0948C100.475 54.367 102.742 56.5184 106.123 56.5184C107.946 56.5259 109.706 55.8519 111.058 54.6287L111.131 54.5633L110.059 53.1726L109.977 53.2381C108.95 54.1841 107.601 54.7046 106.204 54.6942C105.715 54.7281 105.224 54.6568 104.765 54.485C104.306 54.3132 103.889 54.045 103.542 53.6985C103.195 53.3519 102.927 52.9351 102.755 52.476C102.583 52.017 102.512 51.5265 102.546 51.0375C102.546 51.0375 102.546 50.8248 102.546 50.7185H112.277V50.6449C112.576 49.8605 112.734 49.0298 112.744 48.1907C112.782 47.5363 112.681 46.8812 112.448 46.2683C112.215 45.6554 111.856 45.0984 111.393 44.6337C110.931 44.169 110.375 43.807 109.763 43.5713C109.151 43.3357 108.496 43.2317 107.841 43.2661ZM110.665 48.9924H102.873C103.692 46.6119 105.55 45.0658 107.735 45.0658C108.144 45.0418 108.554 45.1063 108.936 45.255C109.318 45.4037 109.663 45.633 109.948 45.9274C110.233 46.2217 110.452 46.5741 110.588 46.9605C110.725 47.3469 110.776 47.7582 110.739 48.1662C110.739 48.1662 110.681 48.837 110.665 48.9761V48.9924ZM113.939 56.2485H116.05L119.512 43.5688H117.401L113.939 56.2485ZM118.571 38.7996L117.949 41.0738H120.331L120.953 38.7996H118.571ZM94.1403 43.2989C93.3534 43.3243 92.5811 43.5177 91.8752 43.8663C91.1694 44.2148 90.5463 44.7103 90.048 45.3194L91.8813 38.4479H89.7779L84.9735 56.2566H87.0688L88.9594 49.0824C89.5896 46.8001 91.4148 45.1395 93.3709 45.1395C95.0569 45.1395 96.0636 46.072 96.0636 47.6345C96.0613 48.0961 95.998 48.5555 95.8754 49.0006L93.952 56.1994H96.0473L97.9625 49.2133C98.1477 48.5769 98.2549 47.9204 98.2817 47.2582C98.311 46.7149 98.2229 46.1717 98.0234 45.6656C97.8239 45.1594 97.5176 44.7021 97.1254 44.3249C96.7332 43.9476 96.2643 43.6593 95.7506 43.4794C95.2369 43.2995 94.6904 43.2324 94.1484 43.2825L94.1403 43.2989Z" fill="white"/>
<path d="M138.215 51.6429C137.908 51.6429 137.605 51.7039 137.322 51.8224C137.039 51.9409 136.783 52.1144 136.568 52.333C136.353 52.5516 136.184 52.8107 136.07 53.0954C135.957 53.38 135.901 53.6844 135.907 53.9907C135.908 54.4466 136.045 54.8918 136.3 55.2701C136.554 55.6484 136.915 55.9428 137.337 56.1162C137.759 56.2895 138.223 56.334 138.67 56.2441C139.117 56.1542 139.528 55.9338 139.85 55.6109C140.172 55.2879 140.391 54.8769 140.479 54.4296C140.567 53.9823 140.521 53.5189 140.346 53.0979C140.171 52.6768 139.875 52.317 139.496 52.0639C139.117 51.8108 138.671 51.6757 138.215 51.6757V51.6429ZM138.215 55.8477C137.839 55.8493 137.472 55.7397 137.159 55.5329C136.846 55.3261 136.602 55.0312 136.456 54.6855C136.311 54.3398 136.271 53.9588 136.342 53.5906C136.413 53.2224 136.592 52.8834 136.855 52.6165C137.119 52.3497 137.456 52.1668 137.823 52.0911C138.191 52.0154 138.572 52.0501 138.92 52.191C139.268 52.3319 139.566 52.5726 139.777 52.8827C139.988 53.1928 140.102 53.5585 140.105 53.9335C140.111 54.185 140.066 54.435 139.972 54.6687C139.879 54.9023 139.74 55.1148 139.562 55.2935C139.385 55.4721 139.174 55.6133 138.941 55.7085C138.708 55.8037 138.458 55.851 138.206 55.8477H138.215Z" fill="white"/>
<path d="M137.249 52.6491V55.104H137.805V54.2857H138.215L138.862 55.104H139.558L138.804 54.1139C138.953 54.0691 139.084 53.9785 139.178 53.8551C139.272 53.7317 139.325 53.5817 139.328 53.4265C139.332 53.3291 139.315 53.2321 139.278 53.1418C139.242 53.0515 139.186 52.97 139.115 52.9028C139.016 52.8102 138.898 52.7385 138.77 52.6921C138.642 52.6457 138.506 52.6256 138.37 52.6328L137.249 52.6491ZM138.354 53.1729C138.452 53.1729 138.755 53.1729 138.755 53.4511C138.755 53.7293 138.436 53.7538 138.338 53.7538H137.805V53.1729H138.354Z" fill="white"/>
<path fill-rule="evenodd" clip-rule="evenodd" d="M77.1326 66.5721C77.1326 66.5721 77.239 66.2122 77.2963 65.885L77.9347 62.5883L76.9362 62.8091L75.7412 68.9608C75.5448 70.0079 75.1683 71.3004 75.1683 71.3004H76.175C76.175 71.3004 76.2732 71.0141 76.3305 70.7523C76.7862 71.1829 77.3895 71.4229 78.0166 71.4231C79.989 71.4231 80.9221 68.9035 80.9221 67.2184C80.9221 66.1876 80.5374 65.2224 79.2852 65.2224C78.8545 65.2926 78.4422 65.4482 78.0725 65.68C77.7029 65.9118 77.3833 66.2151 77.1326 66.5721ZM78.0411 70.5887C77.4765 70.5834 76.9285 70.397 76.4779 70.057L76.9935 67.4883C77.6319 66.7521 78.3767 66.0649 78.9414 66.0649C79.6617 66.0649 79.8417 66.6703 79.8417 67.3165C79.8417 68.3718 79.3752 70.5887 78.0411 70.5887ZM70.0615 68.9609L70.3971 71.3578L71.5102 71.3005L70.2252 63.2265H68.9975L64.5042 71.3005L65.5436 71.3578L66.7877 68.9609H70.0615ZM69.4395 63.9545C69.4395 63.9709 69.464 64.3799 69.5213 64.7153L69.9796 68.1756H67.1969L69.0711 64.7153C69.1768 64.509 69.2852 64.2773 69.3568 64.1244C69.4073 64.0165 69.4395 63.9477 69.4395 63.9545ZM83.1654 68.9609C83.1537 69.1107 83.1537 69.2611 83.1654 69.4109C83.1654 70.1471 83.3946 70.6216 84.1803 70.6216C84.9905 70.5313 85.7619 70.2263 86.4147 69.7381L86.251 70.6625C85.5402 71.1261 84.7173 71.3889 83.8693 71.4232C82.4861 71.4232 82.1096 70.5398 82.1096 69.509C82.1096 67.6112 83.149 65.2225 85.3834 65.2225C86.2019 65.2225 87.1677 65.6479 87.1677 66.5232C87.1022 68.4047 83.681 68.9037 83.1654 68.9609ZM86.0627 66.6377C86.0627 66.2369 85.6862 66.0078 85.1542 66.0078C84.0002 66.0078 83.4519 67.194 83.2391 68.3147C83.8938 68.192 86.0627 67.7339 86.0627 66.6377ZM90.3265 66.1387H91.9634L92.0616 65.3861H90.4247L90.7684 63.9218H90.0482L89.4589 65.3534L88.2639 65.5333L88.1412 66.1714H89.3852L88.6241 69.9426C88.5785 70.1551 88.5538 70.3715 88.5504 70.5888C88.5504 71.1533 88.7959 71.456 89.5571 71.456C90.131 71.4329 90.6916 71.276 91.194 70.9979L91.3086 70.1798C90.9 70.3995 90.4573 70.5488 89.9991 70.6216C89.6962 70.6216 89.5898 70.4989 89.5898 70.2371C89.5822 70.1281 89.5822 70.0188 89.5898 69.9099L90.3265 66.1387ZM96.4814 66.1387H94.8445L94.1079 69.9099C94.0964 70.0186 94.0964 70.1283 94.1079 70.2371C94.1079 70.4989 94.2225 70.6216 94.5253 70.6216C94.9809 70.5487 95.4209 70.3993 95.8267 70.1798L95.7203 70.9979C95.2178 71.276 94.6573 71.4329 94.0834 71.456C93.3222 71.456 93.0767 71.1533 93.0767 70.5888C93.0759 70.3713 93.1006 70.1544 93.1503 69.9426L93.9115 66.1714H92.7411L92.8639 65.5333L94.0588 65.3534L94.6399 63.9218H95.3683L95.0164 65.3861H96.6533L96.4814 66.1387ZM98.1508 69.4109C98.142 69.261 98.142 69.1108 98.1508 68.9609C98.6746 68.9037 102.055 68.4047 102.145 66.5232C102.145 65.6479 101.187 65.2225 100.369 65.2225C98.1263 65.2225 97.095 67.6112 97.095 69.509C97.095 70.5398 97.4633 71.4232 98.8465 71.4232C99.6945 71.3889 100.517 71.1261 101.228 70.6625L101.392 69.7381C100.742 70.2267 99.9736 70.5318 99.1657 70.6216C98.3718 70.6216 98.1508 70.1471 98.1508 69.4109ZM100.148 66.0078C100.672 66.0078 101.056 66.2369 101.056 66.6377C101.056 67.7339 98.8874 68.192 98.2245 68.3147C98.4373 67.194 98.9856 66.0078 100.148 66.0078ZM104.813 66.106C105.224 65.6474 105.778 65.3416 106.385 65.2388C106.553 65.2381 106.72 65.2546 106.884 65.2879L106.622 66.1714C106.435 66.1393 106.247 66.1174 106.058 66.106C105.787 66.106 105.55 66.1878 104.683 66.924L103.864 71.3169H102.874L103.79 66.6541C103.861 66.2292 103.905 65.8002 103.921 65.3697H104.912C104.897 65.6172 104.864 65.8632 104.813 66.106ZM114.332 71.3005H115.511L118.539 65.4024L117.458 65.3534L115.535 69.4436C115.418 69.6877 115.273 70.0425 115.179 70.2701L115.179 70.2702L115.179 70.2702L115.179 70.2704L115.179 70.2709C115.122 70.4089 115.085 70.4999 115.085 70.4907V69.3945C115.085 69.28 114.913 65.3615 114.913 65.3615H113.865L112.114 69.3945C112.002 69.6455 111.845 70.0716 111.756 70.312L111.756 70.3122C111.715 70.4242 111.688 70.4959 111.688 70.4907V69.4108L111.402 65.3206L110.305 65.3615L110.903 71.3005H112.13L113.677 67.8402C113.906 67.2921 114.136 66.5968 114.136 66.5968V67.2676V67.8402L114.332 71.3005ZM120.16 71.4232C118.965 71.4232 118.637 70.458 118.637 69.4354C118.637 67.6439 119.611 65.2225 121.699 65.2225C122.212 65.2273 122.713 65.3901 123.131 65.6888C123.196 65.517 123.278 65.3534 123.278 65.3534H124.154C124.154 65.3534 124.056 65.7297 123.941 66.2614L123.425 68.8137C123.298 69.6268 123.214 70.4459 123.172 71.2678H122.173C122.173 71.2678 122.173 70.5725 122.288 70.0735C122.061 70.447 121.751 70.7631 121.382 70.9972C121.013 71.2313 120.595 71.3771 120.16 71.4232ZM121.551 65.9996C120.176 65.9996 119.677 68.102 119.677 69.2227C119.677 69.9017 119.816 70.5889 120.495 70.5889C120.995 70.5889 121.658 70.0408 122.361 69.1655C122.468 68.5765 122.648 67.693 122.926 66.4005C122.518 66.1332 122.039 65.9937 121.551 65.9996ZM125.528 73.6236C126.044 73.3179 126.466 72.8764 126.748 72.3475L130.701 65.4432L129.67 65.3777L126.977 70.4005V70.0079C126.978 69.7344 126.961 69.4612 126.928 69.1898L126.306 65.3041L125.242 65.345L126.347 71.3658L125.896 72.1184C125.736 72.4006 125.512 72.6414 125.242 72.8217C124.972 73.0021 124.664 73.117 124.341 73.1573V73.9754C124.754 73.926 125.155 73.8071 125.528 73.6236Z" fill="white"/>
<path d="M130.653 71.4237C130.569 71.4298 130.486 71.4179 130.407 71.3888C130.329 71.3597 130.258 71.3141 130.199 71.255C130.14 71.196 130.094 71.125 130.065 71.0468C130.036 70.9686 130.024 70.885 130.03 70.8018C130.024 70.6902 130.04 70.5785 130.078 70.4735C130.116 70.3685 130.175 70.2724 130.252 70.1911C130.329 70.1099 130.421 70.0452 130.524 70.001C130.627 69.9568 130.737 69.9342 130.849 69.9344C130.932 69.9295 131.014 69.9423 131.092 69.9719C131.169 70.0016 131.239 70.0474 131.297 70.1063C131.355 70.1651 131.4 70.2357 131.429 70.3133C131.457 70.3909 131.469 70.4738 131.463 70.5563C131.47 70.6671 131.454 70.7781 131.416 70.8826C131.379 70.9871 131.32 71.0828 131.244 71.1639C131.168 71.2451 131.077 71.31 130.975 71.3546C130.873 71.3993 130.764 71.4227 130.653 71.4237Z" fill="white"/>
<path fill-rule="evenodd" clip-rule="evenodd" d="M64.6695 0L54.7989 13.8494C2.08191 31.9036 0.878778 48.6407 1.75453 51.054C-0.815432 46.1457 0.837855 39.3478 6.29698 32.918C14.9726 22.6679 29.7622 14.553 38.5279 10.4382C38.5279 10.4382 54.537 3.16582 64.6695 0ZM48.1348 23.1915C48.1348 23.1915 -2.60967 40.5012 3.41419 53.459C3.75148 54.1003 4.22664 54.6591 4.80557 55.0951C2.6121 52.1092 8.69325 43.438 41.2761 32.8198L48.1348 23.1915ZM6.72076 56.3794C3.02133 52.3547 16.4031 46.4075 24.0148 44.2397C24.1038 44.2142 24.309 44.1542 24.6048 44.0678C26.6763 43.4628 33.1927 41.5596 35.3914 41.0657L30.2269 48.3054C23.9821 49.2134 4.16717 53.7535 7.38371 56.8948C7.14294 56.7501 6.92037 56.5771 6.72076 56.3794Z" fill="#007AC2"/>
</g>
<defs>
<clipPath id="clip0_2491_40438">
<rect width="139.957" height="74" fill="white" transform="translate(0.566162)"/>
</clipPath>
</defs>
</svg>
