<svg width="125" height="35" viewBox="0 0 125 35" fill="none" xmlns="http://www.w3.org/2000/svg">
<g clip-path="url(#clip0_16222_37741)">
<path d="M22.066 13.9268H14.8242V21.0728H22.066V13.9268Z" fill="#37006E"/>
<path d="M4.92142 11.5089C5.53157 10.8772 6.25174 10.4034 7.06193 10.1073C7.66208 9.89014 8.30223 9.74209 8.97239 9.68286C9.0124 9.68286 9.05241 9.68286 9.09242 9.67299C9.13243 9.67299 9.18244 9.67299 9.22245 9.67299C9.4025 9.66312 9.57254 9.65325 9.75258 9.65325C10.0527 9.65325 10.3427 9.67299 10.6128 9.71247C10.6528 9.71247 10.6928 9.73221 10.7328 9.73221C10.7728 9.73221 10.8228 9.74209 10.8628 9.75196C11.0329 9.78157 11.1929 9.82105 11.353 9.8704C11.8431 10.0185 12.2832 10.2159 12.6733 10.433C13.0734 10.66 13.4235 10.8969 13.7035 11.1338C13.9936 11.3707 14.2237 11.5878 14.3837 11.7754L14.7738 12.2689V9.2387C14.0736 8.91298 13.7935 8.80441 12.8533 8.57739C12.2432 8.42934 11.583 8.33064 10.8929 8.28129C10.8528 8.28129 10.8128 8.28128 10.7628 8.27141C10.7228 8.27141 10.6828 8.27141 10.6428 8.26154C10.3527 8.2418 10.0527 8.23193 9.74258 8.23193C9.57254 8.23193 9.40249 8.23193 9.24246 8.23193C9.20245 8.23193 9.15243 8.23193 9.11242 8.23193C9.07242 8.23193 9.03241 8.23193 8.9924 8.23193C7.85212 8.29116 6.78187 8.48856 5.81163 8.82415C4.62135 9.2387 3.5811 9.84079 2.72089 10.6304C1.86068 11.42 1.18052 12.3873 0.710407 13.5323C0.230292 14.6674 -0.00976562 15.9702 -0.00976562 17.4212C-0.00976562 18.8721 0.230292 20.175 0.710407 21.3002C1.19052 22.4353 1.85068 23.4124 2.70089 24.202C3.54109 24.9917 4.56133 25.5839 5.72161 25.9688C6.72185 26.3044 7.82211 26.4821 8.98239 26.5314C9.0224 26.5314 9.06241 26.5314 9.10242 26.5314C9.14243 26.5314 9.19244 26.5314 9.23245 26.5314C9.32248 26.5314 9.4125 26.5413 9.50252 26.5413C9.88261 26.5413 10.2627 26.5215 10.6328 26.4821C10.6728 26.4821 10.7128 26.4821 10.7528 26.4722C10.7928 26.4722 10.8428 26.4722 10.8829 26.4623C11.0429 26.4426 11.1929 26.4228 11.353 26.3932C11.9431 26.2945 12.4732 26.1761 12.9333 26.0478C13.4135 25.9195 13.8236 25.7714 14.1636 25.6036C14.4237 25.4753 14.6338 25.3569 14.7938 25.2483V23.1657L14.7638 23.1854C14.5337 23.3631 14.2437 23.5802 13.8936 23.8171C13.5535 24.054 13.1734 24.281 12.7633 24.4784C12.3432 24.6857 11.8831 24.8535 11.383 25.0015C11.2229 25.0509 11.0629 25.0805 10.9029 25.1101C10.8628 25.1101 10.8128 25.12 10.7728 25.1298C10.7328 25.1298 10.6928 25.1496 10.6528 25.1496C10.3727 25.1891 10.0827 25.2088 9.77258 25.2088C9.59254 25.2088 9.4225 25.1989 9.25246 25.1891C9.21245 25.1891 9.16244 25.1891 9.12243 25.1891C9.08242 25.1891 9.04241 25.1891 9.0024 25.1792C8.32224 25.12 7.68208 24.9818 7.08194 24.7548C6.26174 24.4488 5.54157 23.975 4.94142 23.3532C4.34128 22.7215 3.85116 21.9121 3.51108 20.935C3.171 19.9479 2.99095 18.7635 2.99095 17.4212C2.99095 16.0788 3.171 14.8845 3.51108 13.9073C3.85116 12.9302 4.33128 12.1208 4.94142 11.4891L4.92142 11.5089Z" fill="#37006E"/>
<path d="M26.2269 24.9522C26.5369 24.9818 26.777 24.9916 26.917 24.9916C27.1571 24.9916 27.3972 24.9818 27.6272 24.9522C27.3771 22.5537 26.0568 19.6814 22.9961 17.9048V19.6518C24.8465 21.083 25.9768 22.9288 26.2269 24.9522Z" fill="#37006E"/>
<path d="M9.25195 24.9718C9.42199 24.9817 9.59204 24.9916 9.76208 24.9916C10.0822 24.9916 10.3822 24.9718 10.6723 24.9225C10.8523 23.5703 11.5225 21.2113 13.8931 19.6123V17.8652C12.3627 18.5956 9.62204 21.0731 9.26196 24.962L9.25195 24.9718Z" fill="#37006E"/>
<path d="M26.206 26.8275C25.6759 30.4598 22.2851 33.4603 18.4742 33.4603C14.6632 33.4603 11.1324 30.4696 10.6523 26.7485C10.2722 26.788 9.89211 26.8078 9.50201 26.8078C9.42199 26.8078 9.34197 26.8078 9.25195 26.8078C9.72207 31.4764 13.593 35.0001 18.4442 35.0001C23.2953 35.0001 27.0962 31.4172 27.6064 26.8275C27.3663 26.8472 27.1262 26.8571 26.8762 26.8571C26.6261 26.8571 26.4161 26.8571 26.196 26.8374L26.206 26.8275Z" fill="#37006E"/>
<path d="M25.9955 9.8208C26.0255 9.51482 26.0355 9.27794 26.0355 9.13975C26.0355 8.90287 26.0255 8.66598 25.9955 8.43896C23.5649 8.68572 20.6542 9.9886 18.8438 13.0089H20.6142C22.0645 11.1829 23.935 10.0676 25.9855 9.8208H25.9955Z" fill="#37006E"/>
<path d="M27.8964 8.44873C27.9064 8.68562 27.9264 8.9225 27.9264 9.16926C27.9264 9.39628 27.9164 9.62329 27.8964 9.84044C31.5773 10.3636 34.628 13.6997 34.628 17.4702C34.628 21.2406 31.6373 24.6755 27.8964 25.169C27.8564 25.169 27.8164 25.1789 27.7764 25.1887C27.7364 25.1887 27.6963 25.1986 27.6463 25.1986C27.4063 25.2183 27.1562 25.2381 26.9162 25.2381C26.7861 25.2381 26.5561 25.2381 26.256 25.1986C26.216 25.1986 26.176 25.1887 26.136 25.1887C26.096 25.1887 26.056 25.1887 26.0059 25.169C24.6456 24.9913 22.225 24.3399 20.5946 21.9908H18.8242C19.5744 23.5009 22.065 26.1955 25.9959 26.5607C26.0359 26.5607 26.076 26.5607 26.126 26.5706C26.166 26.5706 26.206 26.5706 26.246 26.5706C26.456 26.5903 26.6661 26.6002 26.8962 26.6002C27.1462 26.6002 27.3963 26.5903 27.6463 26.5706C27.6863 26.5706 27.7364 26.5706 27.7764 26.5706C27.8164 26.5706 27.8564 26.5706 27.8964 26.5607C32.6175 26.0869 36.1884 22.277 36.1884 17.4899C36.1884 12.7028 32.5575 8.95211 27.8964 8.44873Z" fill="#37006E"/>
<path d="M10.6425 9.95923C10.3625 9.90988 10.0624 9.89014 9.75231 9.89014C9.58227 9.89014 9.41223 9.90001 9.24219 9.90988C9.45224 12.338 10.7626 15.2793 13.8833 17.0954V15.3484C12.0029 13.8975 10.8726 12.0122 10.6425 9.95923Z" fill="#37006E"/>
<path d="M27.6256 10.0479C27.6256 10.0479 27.6256 9.96898 27.6356 9.91963C27.6356 9.88015 27.6356 9.84067 27.6356 9.80119C27.6456 9.59391 27.6657 9.37676 27.6657 9.15962C27.6657 8.91286 27.6556 8.6661 27.6356 8.41935C27.6356 8.37986 27.6356 8.33051 27.6256 8.29103C27.6256 8.25155 27.6256 8.21207 27.6256 8.17259C27.1355 3.52369 23.2746 0 18.4234 0C13.5723 0 9.87139 3.49408 9.28125 8.00479C9.44129 8.00479 9.59132 8.00479 9.75136 8.00479C10.0714 8.00479 10.3815 8.01467 10.6816 8.03441C11.2817 4.46137 14.6325 1.53976 18.3934 1.53976C22.1543 1.53976 25.6952 4.49098 26.2053 8.18246C26.2053 8.22194 26.2153 8.26142 26.2253 8.3009C26.2253 8.34038 26.2353 8.38974 26.2353 8.42922C26.2553 8.6661 26.2753 8.91286 26.2753 9.14975C26.2753 9.27806 26.2753 9.50508 26.2353 9.80119C26.2353 9.84067 26.2353 9.88015 26.2253 9.91963C26.2253 9.95911 26.2153 10.0085 26.2053 10.0479C26.0253 11.3903 25.3651 13.7789 22.9845 15.3878V17.1348C24.5149 16.4044 27.2456 13.9368 27.6156 10.0578L27.6256 10.0479Z" fill="#37006E"/>
<path d="M107.367 12.8608C107.217 12.841 107.047 12.8213 106.837 12.8213C105.357 12.8213 103.986 13.7984 102.786 15.733C102.786 15.5455 102.786 15.3481 102.796 15.1507C102.796 14.7164 102.856 14.1242 102.936 13.374L102.966 13.0878L102.676 13.1371C102.446 13.1766 102.226 13.2161 102.016 13.2457C101.566 13.3148 101.166 13.2951 100.805 13.2457C100.595 13.2161 100.375 13.1766 100.145 13.1371L99.8752 13.0878V13.3642C99.9453 14.7855 99.9853 15.9896 99.9953 17.0458C99.9953 18.1118 100.015 19.0593 100.015 19.8785V20.8853C100.015 22.6718 100.015 24.1721 99.9953 25.4059C99.9853 26.6101 99.9453 27.5872 99.8852 28.3078L99.8652 28.5644L100.125 28.5348C100.915 28.4558 101.826 28.4459 102.696 28.5348L102.976 28.5644L102.936 28.288C102.876 27.834 102.836 27.2319 102.826 26.5015C102.816 25.7514 102.806 24.6854 102.806 23.2739V19.8094C102.806 19.2271 102.876 18.6645 103.026 18.1512C103.166 17.638 103.376 17.1938 103.636 16.8286C103.896 16.4733 104.216 16.1772 104.586 15.96C105.177 15.6244 105.967 15.5356 106.717 15.7922C107.057 15.9107 107.187 16.0094 107.237 16.0686L107.367 16.2265L107.847 15.8811V15.7725C107.847 15.3579 107.857 14.894 107.877 14.3808C107.897 13.8873 107.957 13.5319 108.057 13.3049L108.147 13.0977L107.937 13.0187C107.717 12.9299 107.517 12.8706 107.357 12.8509L107.367 12.8608Z" fill="#37006E"/>
<path d="M96.1145 14.7954C95.5443 14.1934 94.8241 13.7097 93.9839 13.3544C93.1437 12.9991 92.1235 12.8115 90.9732 12.8115C88.5326 12.8115 86.6422 13.5814 85.3619 15.0916C84.0916 16.5918 83.4414 18.6843 83.4414 21.3098C83.4414 22.3857 83.6315 23.4023 84.0115 24.3203C84.3916 25.2481 84.9518 26.0673 85.6619 26.7385C86.3721 27.4195 87.2223 27.9427 88.2026 28.298C89.1728 28.6533 90.253 28.831 91.4233 28.831C92.4636 28.831 93.4838 28.6434 94.4541 28.2782C95.4243 27.913 96.2445 27.4689 96.8946 26.9556L96.9647 26.8964L97.1847 25.1296L96.7446 24.873L96.6246 25.0112C96.3545 25.3172 96.0444 25.6034 95.6844 25.86C95.3143 26.1265 94.9242 26.3535 94.5241 26.551C94.114 26.7484 93.6839 26.8964 93.2538 27.005C91.9235 27.3504 90.6831 27.1629 89.7329 26.7286C89.0828 26.4424 88.5226 26.0476 88.0825 25.5541C87.6324 25.0605 87.2923 24.4683 87.0523 23.7873C86.8122 23.1062 86.6922 22.3561 86.6922 21.5566V21.1519C86.6922 21.0532 86.6922 20.9644 86.6922 20.8854L88.5926 20.8262C90.4131 20.7768 92.2735 20.7966 94.094 20.8262L97.7148 20.8953L97.7348 20.6979C97.7549 20.4906 97.7749 20.2735 97.7849 20.076C97.7849 19.8688 97.8049 19.6714 97.8049 19.4542C97.8049 18.556 97.6648 17.6973 97.3948 16.8978C97.1247 16.0983 96.6946 15.3877 96.1145 14.7856V14.7954ZM92.8537 19.3456C91.4233 19.3851 90.073 19.3851 88.6327 19.3456L86.8022 19.2864C86.8522 18.8028 86.9522 18.2797 87.1123 17.7467C87.2823 17.1347 87.5424 16.5622 87.8825 16.0391C88.2126 15.5259 88.6427 15.1014 89.1628 14.7658C89.6629 14.4302 90.2931 14.2625 91.0332 14.2625C91.7734 14.2625 92.4436 14.4302 92.9137 14.756C93.3938 15.0916 93.7739 15.5259 94.044 16.0292C94.324 16.5524 94.5041 17.1248 94.5941 17.7269C94.6741 18.2599 94.7241 18.783 94.7341 19.2766L92.8437 19.3358L92.8537 19.3456Z" fill="#37006E"/>
<path d="M82.7013 27.4393C82.4212 27.4788 82.2111 27.4985 82.0511 27.4985C81.471 27.4985 81.0209 27.3801 80.7208 27.1333C80.4207 26.8866 80.1807 26.5609 80.0206 26.1364C79.8606 25.712 79.7606 25.2185 79.7305 24.6658C79.7005 24.1032 79.6805 23.5307 79.6805 22.9483C79.6805 22.2574 79.6805 21.4678 79.6905 20.5893C79.7005 19.7109 79.7205 18.8719 79.7406 18.0626C79.7606 17.2532 79.7906 16.5623 79.8206 15.9701C79.8406 15.5456 79.8606 15.3087 79.8706 15.1706H81.2409C81.581 15.1706 81.9011 15.1706 82.1911 15.1804C82.4812 15.1903 82.7713 15.21 83.0413 15.2298L83.3714 15.2495L83.2614 14.9337C83.2614 14.9337 83.2414 14.8646 83.2414 14.6869V14.0256C83.2414 13.8183 83.2614 13.7591 83.2614 13.7492L83.3614 13.4433L83.0413 13.463C82.3012 13.5025 81.611 13.5321 80.9708 13.542C80.5107 13.542 80.1506 13.5518 79.9006 13.5518C79.9406 12.851 79.9706 12.1601 80.0006 11.4692C80.0306 10.7092 80.0806 9.92945 80.1407 9.12995L80.1607 8.89307L79.6805 8.91281L76.8799 10.0775V10.2354C76.9299 10.9066 76.9599 11.5482 76.9699 12.1799C76.9699 12.703 76.9899 13.157 77.0099 13.5321C76.5798 13.5321 75.9596 13.4926 75.1494 13.4433L74.8594 13.4235L74.9194 13.6999C74.9394 13.7986 74.9494 13.8973 74.9594 13.996C74.9594 14.0947 74.9694 14.1934 74.9694 14.2921C74.9694 14.4106 74.9694 14.529 74.9594 14.6376C74.9594 14.7461 74.9294 14.8646 74.9094 14.983L74.8594 15.2594L75.1394 15.2298C75.3495 15.21 75.5495 15.1903 75.7396 15.1804C75.9296 15.1706 76.0997 15.1706 76.2697 15.1706H77.0699C77.0699 16.2563 77.0599 17.2532 77.0399 18.1415C77.0199 19.0989 76.9899 19.9675 76.9599 20.7473C76.9299 21.5369 76.8999 22.2574 76.8799 22.9286C76.8599 23.5899 76.8499 24.2117 76.8499 24.7743C76.8499 26.0871 77.1899 27.1037 77.8701 27.7947C78.5503 28.4856 79.6005 28.8409 81.0009 28.8409C81.421 28.8409 81.8611 28.7915 82.3112 28.6928C82.7413 28.604 83.1414 28.5251 83.5015 28.456L83.6815 28.4263V27.1926L83.4014 27.2715C83.2014 27.3307 82.9613 27.39 82.6813 27.4196L82.7013 27.4393Z" fill="#37006E"/>
<path d="M72.8683 14.7953C72.2982 14.1933 71.578 13.7096 70.7378 13.3642C69.8976 13.0088 68.8874 12.8213 67.7271 12.8213C65.2865 12.8213 63.3961 13.5912 62.1158 15.1013C60.8455 16.6016 60.1953 18.6941 60.1953 21.3196C60.1953 22.3955 60.3854 23.4022 60.7654 24.33C61.1455 25.2578 61.7057 26.0672 62.4158 26.7482C63.126 27.4293 63.9762 27.9524 64.9565 28.3078C65.9267 28.6631 67.0069 28.8407 68.1772 28.8407C69.2175 28.8407 70.2377 28.6532 71.208 28.288C72.1682 27.9228 72.9884 27.4786 73.6485 26.9654L73.7186 26.9062L73.9386 25.1394L73.4985 24.8729L73.3785 25.0111C73.1184 25.3072 72.7983 25.5934 72.4382 25.8599C72.0782 26.1264 71.6881 26.3534 71.278 26.5508C70.8679 26.7482 70.4378 26.8963 70.0077 27.0049C68.6873 27.3503 67.437 27.1628 66.4768 26.7285C65.8267 26.4423 65.2765 26.0475 64.8264 25.5539C64.3763 25.0703 64.0362 24.4682 63.7962 23.7872C63.5561 23.0962 63.4461 22.3461 63.4461 21.5565V21.1518C63.4461 21.0531 63.4461 20.9643 63.4461 20.8853L65.3465 20.8261C67.157 20.7767 69.0274 20.7965 70.8379 20.8261L74.4587 20.8952L74.4787 20.6978C74.4987 20.4905 74.5187 20.2832 74.5287 20.0759C74.5388 19.8687 74.5488 19.6614 74.5488 19.4541C74.5488 18.546 74.4087 17.6873 74.1387 16.8977C73.8686 16.0982 73.4385 15.3876 72.8583 14.7855L72.8683 14.7953ZM69.6076 19.3455C68.1872 19.385 66.8269 19.385 65.3866 19.3455L63.5661 19.2863C63.6161 18.8027 63.7162 18.2796 63.8762 17.7466C64.0462 17.1346 64.3063 16.5621 64.6464 16.039C64.9865 15.5257 65.4166 15.1013 65.9267 14.7657C66.4268 14.4301 67.057 14.2623 67.7971 14.2623C68.5773 14.2623 69.2075 14.4301 69.6776 14.7559C70.1577 15.0915 70.5378 15.5159 70.8079 16.0291C71.0879 16.5523 71.268 17.1247 71.358 17.7268C71.438 18.2598 71.488 18.7829 71.498 19.2764L69.6076 19.3357V19.3455Z" fill="#37006E"/>
<path d="M57.1542 6.48459C55.9839 6.19835 54.6636 6.05029 53.2532 6.05029C51.4728 6.05029 49.8124 6.30692 48.3321 6.82017C46.8417 7.33343 45.5414 8.09344 44.4711 9.0706C43.4009 10.0576 42.5507 11.2717 41.9605 12.693C41.3704 14.1044 41.0703 15.7429 41.0703 17.5492C41.0703 19.3554 41.3704 20.9939 41.9605 22.4053C42.5507 23.8267 43.3909 25.0407 44.4411 26.0179C45.4914 27.0049 46.7617 27.7452 48.212 28.2288C49.6524 28.7026 51.2428 28.9493 52.9432 28.9493C53.7333 28.9493 54.5135 28.8901 55.2537 28.7618C55.9839 28.6335 56.6541 28.4854 57.2342 28.3275C57.8243 28.1696 58.3445 27.982 58.7746 27.7748C59.0446 27.6465 59.2647 27.528 59.4447 27.4096L59.5447 27.3503V24.942L59.1947 25.1986C58.9946 25.3467 58.7746 25.5046 58.5245 25.6724C58.0944 25.9784 57.6143 26.2547 57.0842 26.5015C56.554 26.7581 55.9639 26.9851 55.3337 27.1628C54.7036 27.3405 54.0134 27.4392 53.2732 27.4392C52.0529 27.4392 50.9027 27.2418 49.8524 26.8568C48.8122 26.4719 47.8919 25.8698 47.1218 25.0703C46.3516 24.261 45.7414 23.2344 45.3013 22.0007C44.8612 20.757 44.6412 19.2666 44.6412 17.5492C44.6412 15.8317 44.8612 14.3413 45.3013 13.0977C45.7414 11.8639 46.3516 10.8275 47.1218 10.028C47.8919 9.22852 48.8122 8.62643 49.8524 8.24149C50.8927 7.85655 52.0429 7.65915 53.2732 7.65915C54.0134 7.65915 54.7036 7.75785 55.3137 7.94539C55.9439 8.14279 56.504 8.37968 56.9941 8.66592C57.4842 8.95215 57.9244 9.24826 58.3044 9.55424C58.6645 9.86022 58.9546 10.1267 59.1546 10.3636L59.5447 10.8176V7.21499L59.4047 7.16563C58.7145 6.90901 57.9644 6.68199 57.1742 6.48459H57.1542Z" fill="#37006E"/>
<path d="M121.94 27.0741C121.86 27.1235 121.78 27.1432 121.7 27.1531C121.3 27.1926 120.98 27.1531 120.81 27.005C120.68 26.8767 120.57 26.7188 120.5 26.5313C120.42 26.3339 120.38 26.1068 120.37 25.8502C120.36 25.5738 120.35 25.3073 120.35 25.0606C120.35 23.7972 120.37 22.5338 120.41 21.3099C120.45 20.1255 120.48 18.9213 120.48 17.727C120.48 17.0064 120.34 16.3353 120.069 15.7332C119.799 15.1311 119.419 14.608 118.949 14.1835C118.479 13.7493 117.899 13.4235 117.229 13.1965C115.838 12.7129 114.068 12.7524 112.488 13.2459C111.657 13.5025 110.747 14.0059 109.767 14.7264L109.677 14.7955V16.7597H110.377L110.437 16.6412C110.777 16.0095 111.297 15.516 111.988 15.1607C112.688 14.7955 113.458 14.6178 114.268 14.6178C114.868 14.6178 115.378 14.7264 115.798 14.9238C116.209 15.1311 116.549 15.3976 116.809 15.7233C117.069 16.0589 117.259 16.4636 117.379 16.9077C117.499 17.3716 117.569 17.8652 117.569 18.3685C117.569 18.6548 117.539 18.8917 117.479 19.0792C117.439 19.2174 117.289 19.3556 117.039 19.474C116.749 19.6122 116.279 19.7504 115.658 19.8787C115.028 20.0169 114.158 20.1649 112.978 20.3623C111.537 20.5992 110.397 21.0829 109.577 21.8034C108.737 22.5338 108.307 23.5801 108.307 24.9027C108.307 25.5442 108.437 26.1266 108.697 26.6201C108.957 27.1136 109.287 27.5479 109.707 27.9032C110.127 28.2586 110.607 28.5152 111.137 28.6731C111.667 28.8212 112.218 28.9001 112.758 28.9001C113.868 28.9001 114.818 28.7126 115.588 28.3474C116.259 28.0217 116.939 27.538 117.609 26.9162C117.729 27.3308 117.939 27.6861 118.239 27.9822C118.649 28.3671 119.239 28.5645 119.979 28.5645C120.42 28.5645 120.82 28.5251 121.18 28.4658C121.54 28.3967 121.86 28.3079 122.11 28.1993L122.24 28.1401V26.9261L121.91 27.1235L121.94 27.0741ZM117.459 25.1494C117.119 25.6923 116.629 26.1661 116.018 26.5806C115.388 26.9952 114.688 27.2024 113.938 27.2024C113.298 27.2024 112.708 26.9656 112.178 26.5017C111.647 26.0378 111.387 25.3567 111.387 24.4289C111.387 23.886 111.487 23.432 111.697 23.0865C111.897 22.7411 112.178 22.445 112.518 22.2081C112.868 21.9712 113.278 21.7738 113.728 21.6356C114.188 21.4974 114.668 21.3691 115.148 21.2803C115.628 21.1816 116.108 21.1026 116.589 21.0138C116.949 20.9447 117.279 20.8756 117.579 20.7868L117.459 25.1494Z" fill="#37006E"/>
<path d="M123.019 12.8311C124.129 12.8311 124.99 13.6996 124.99 14.7755C124.99 15.8514 124.109 16.7199 123.029 16.7199C121.949 16.7199 121.059 15.8612 121.059 14.7755C121.059 13.6898 121.949 12.8311 123.019 12.8311ZM123.019 13.1765C122.119 13.1765 121.429 13.8773 121.429 14.7755C121.429 15.6737 122.109 16.3745 123.019 16.3745C123.929 16.3745 124.619 15.6934 124.619 14.7755C124.619 13.8576 123.959 13.1765 123.019 13.1765ZM124.089 15.8316C124.009 15.8217 123.949 15.8119 123.859 15.8119C123.779 15.8119 123.709 15.8217 123.589 15.8316C123.219 15.2986 122.919 15.0025 122.709 14.7558H122.629C122.629 15.0913 122.629 15.348 122.659 15.8316C122.559 15.8217 122.519 15.8119 122.409 15.8119C122.299 15.8119 122.269 15.8217 122.199 15.8316C122.219 15.5947 122.229 15.3282 122.229 14.6965C122.229 14.1438 122.219 13.8773 122.209 13.6404C122.369 13.6503 122.489 13.6503 122.749 13.6503C123.299 13.6503 123.869 13.6404 123.869 14.1734C123.869 14.6274 123.369 14.7064 123.149 14.7261C123.289 14.9236 123.959 15.6638 124.099 15.8119V15.8415L124.089 15.8316ZM122.629 13.7983C122.619 14.0944 122.619 14.3511 122.619 14.6077C122.859 14.6077 123.429 14.6077 123.429 14.1833C123.429 13.7983 122.989 13.7983 122.629 13.7983Z" fill="#37006E"/>
</g>
<defs>
<clipPath id="clip0_16222_37741">
<rect width="125" height="35" fill="white"/>
</clipPath>
</defs>
</svg>
