<?xml version="1.0" encoding="utf-8"?>
<!-- Generator: Adobe Illustrator 23.1.1, SVG Export Plug-In . SVG Version: 6.00 Build 0)  -->
<svg version="1.1" id="Layer_1" xmlns="http://www.w3.org/2000/svg" xmlns:xlink="http://www.w3.org/1999/xlink" x="0px" y="0px"
	 viewBox="0 0 206 121" style="enable-background:new 0 0 206 121;" xml:space="preserve">
<style type="text/css">
	.st0{fill:#015846;}
	.st1{fill:#00C7B1;}
	.st2{fill:#3FA9F5;}
	.st3{fill:#54CE32;}
	.st4{fill:#FFFFFF;}
</style>
<g>
	<path class="st0" d="M126.53,85.85c4.61,0,8.49-1.51,12.52-4.32v11.59c-4.39,2.52-9,3.38-13.03,3.38
		c-15.26,0-25.91-11.15-25.91-26.13c0-14.75,11.44-26.13,26.05-26.13c4.39,0,8.78,1.15,12.81,3.38v11.66
		c-3.81-2.88-7.77-4.46-12.45-4.46c-8.78,0-15.26,6.84-15.26,15.55C111.27,78.94,117.53,85.85,126.53,85.85z M181.53,54.97v-9.79
		h-32.9v50.38h10.79V75.05h20.67v-9.86h-20.67V54.97H181.53z"/>
	<path id="TM" class="st0" d="M183.11,45.18h2.48v0.39h-1v2.36h-0.48v-2.36h-1V45.18z M188.75,47.93L188.74,46l-1.03,1.6h-0.22
		l-1.04-1.57v1.9h-0.46v-2.75h0.39l1.23,1.88l1.2-1.88h0.39l0.01,2.75H188.75z"/>
	<g>
		<path class="st1" d="M60.22,29.34l31.2,13.28c0.97,0.41,2.08,0.18,2.81-0.58l12.65-13.28c1.53-1.61,0.39-4.26-1.83-4.26H61.2
			C58.46,24.5,57.7,28.27,60.22,29.34z"/>
		<path class="st2" d="M88.81,51.98L62.23,72.13c-0.74,0.56-1.11,1.48-0.97,2.39l3.07,19.94c0.34,2.19,3.54,2.81,4.66,0.9
			l23.6-40.06C93.99,52.92,91.01,50.31,88.81,51.98z"/>
		<path class="st3" d="M49.51,29.68l-21.95-5.11c-2.2-0.51-3.92,1.91-2.69,3.82l25.46,39.62c1.43,2.23,4.98,1,4.71-1.64l-3.51-34.38
			C51.42,30.86,50.61,29.94,49.51,29.68z"/>
		<path class="st0" d="M67.23,61.79L81.36,47.9c1.38-1.36,0.78-3.71-1.09-4.23l-19.1-5.29c-1.87-0.52-3.6,1.18-3.11,3.06l4.96,19.19
			C63.51,62.51,65.85,63.15,67.23,61.79z"/>
	</g>
</g>
</svg>
