<?xml version="1.0" encoding="UTF-8"?> <svg xmlns="http://www.w3.org/2000/svg" xmlns:xlink="http://www.w3.org/1999/xlink" width="3154.378" height="591.715" viewBox="0 0 3154.378 591.715"><defs><clipPath id="a"><rect width="3154.378" height="591.715" fill="none"></rect></clipPath></defs><g transform="translate(1577.189 295.857)"><g transform="translate(-1577.189 -295.858)" clip-path="url(#a)"><path d="M495.77,17.1c-9.942,0-10.494,6.076,4.418,9.39q85.059,18.779,229.771,93.9a343.008,343.008,0,0,0-84.507-84.507,70.147,70.147,0,0,0-38.663-16.57Z" transform="translate(2210.113 77.349)" fill="#005697" fill-rule="evenodd"></path><path d="M936.938,199.851h0a17.123,17.123,0,0,1-6.628-2.762c-16.57-7.18-22.093-2.762-30.378,1.1q-108.81,9.39-99.42-124.275c1.657-23.75-4.971-36.454-42.53-46.948Q595.043-10.035,490.1,3.773c2.209,4.419,8.285,8.285,18.779,12.7,107.705,45.291,188.9,108.257,215.41,161.834,15.465,32.588,25.407,49.158,9.39,77.327q-18.779,28.721-55.233,95c-2.209,3.866,0,5.523,2.762,2.209,68.49-72.908,236.4-149.682,254.626-151.339,1.1-.552,2.762-.552,1.657-1.657" transform="translate(2216.888 0.093)" fill="#005697" fill-rule="evenodd"></path><path d="M383.1,54.1H519.522l38.663,199.392H454.347l-5.523-43.082h-83.4L269.868,347.389H171Zm8.837,108.257h57.443L438.882,97.182h-.552Z" transform="translate(773.491 244.713)" fill="#061e3b"></path><path d="M203.551,251.235a393.257,393.257,0,0,1-72.908,7.733c-86.164.552-145.264-34.245-126.484-105.5S102.474,53.5,185.324,53.5a409.831,409.831,0,0,1,68.489,6.076l-13.808,52.472a185.032,185.032,0,0,0-47.5-7.18c-41.977,0-78.431,17.675-87.269,49.71S120.7,206.5,162.126,206.5a227.56,227.56,0,0,0,55.786-7.733l-14.361,53.024" transform="translate(3.021 241.999)" fill="#061e3b"></path><path d="M259.972,54.1H358.84L305.816,252.94H206.4l19.332-71.251h-66.28L140.668,252.94H41.8L94.824,54.1h98.868l-18.227,68.489h66.28Z" transform="translate(189.076 244.713)" fill="#061e3b"></path><path d="M148.724,54.1h223.7l-13.256,48.053H232.679l-7.733,28.169H346.46L333.2,178.375H212.242l-7.18,27.064H334.308l-12.7,47.5H95.7Z" transform="translate(432.883 244.713)" fill="#061e3b"></path><path d="M394.069,111.4a266.225,266.225,0,0,0-74.013-9.942c-15.465,0-42.53.552-45.844,13.256-7.18,25.96,135.322,1.657,114.333,78.431-14.361,53.576-86.164,66.832-143.607,66.832a533.553,533.553,0,0,1-103.839-9.39l13.808-51.919a268.433,268.433,0,0,0,85.059,13.256c23.2,0,45.291-3.866,48.053-13.808,7.18-27.064-134.769-2.762-114.333-80.088C188.6,63.342,264.823,53.4,323.37,53.4a531.35,531.35,0,0,1,83.4,6.628l-13.808,50.815" transform="translate(638.243 241.546)" fill="#061e3b"></path><path d="M297.076,54.1H467.2c40.32,0,90.583,14.913,76.222,68.489s-62.966,73.46-114.333,73.46H357.833l-15.465,57.443H243.5L297.076,54.1m70.7,95.554h22.093c23.75,0,48.605-3.314,54.681-25.96s-17.675-23.75-41.425-23.75H381.583Z" transform="translate(1101.433 244.713)" fill="#061e3b"></path><path d="M349.224,54.1h223.7l-12.7,48.053H433.179l-7.733,28.169H546.959l-12.7,48.053H412.742l-7.18,27.064H534.808l-12.7,47.5H296.2Z" transform="translate(1339.813 244.713)" fill="#061e3b"></path><path d="M483.007,54.1H619.433L658.1,253.492H554.258l-5.523-43.082h-83.4l-27.617,43.082H339.4Zm8.837,108.257h57.443L538.792,97.182h-.552Z" transform="translate(1535.221 244.713)" fill="#061e3b"></path><path d="M530.255,131.979h.552L613.658,54.1H726.334L614.21,147.444l66.833,105.5h-118.2l-41.425-83.955h-1.1L497.668,252.94H398.8L452.376,54.1h98.868Z" transform="translate(1803.907 244.713)" fill="#061e3b"></path><path d="M506.876,54.1H730.019l-12.7,48.053H590.831L583.1,130.322H704.06l-12.7,48.053H570.395l-7.18,27.064H692.46L679.2,252.94H453.3Z" transform="translate(2050.429 244.713)" fill="#061e3b"></path><path d="M89.671,127.526c-3.866,14.361-22.646,22.093-50.815,22.093S-3.673,141.887.745,127.526L9.03,97.7H25.6l-8.285,29.274c-2.762,9.942,2.209,16.57,23.75,16.57s29.826-6.628,32.588-16.57L81.938,97.7h16.57l-8.285,29.826" transform="translate(-0.193 441.93)" fill="#061e3b"></path><path d="M61.5,104.328H25.6L27.809,97.7h87.269l-1.657,6.628H78.072l-12.7,44.739H48.8Z" transform="translate(115.797 441.93)" fill="#061e3b"></path><path d="M61.761,97.7h16.57L63.97,149.067H47.4Z" transform="translate(214.406 441.93)" fill="#061e3b"></path><path d="M75.261,97.7H91.278L79.127,142.439H127.18l-2.209,6.628H60.9Z" transform="translate(275.471 441.93)" fill="#061e3b"></path><path d="M95.361,97.7h16.018L97.57,149.067H81Z" transform="translate(366.39 441.93)" fill="#061e3b"></path><path d="M129.749,104.328H94.4L96.057,97.7h87.821l-1.657,6.628h-35.9l-12.151,44.739H117.6Z" transform="translate(427.003 441.93)" fill="#061e3b"></path><path d="M130.561,97.7h16.018L132.77,149.067H116.2Z" transform="translate(525.612 441.93)" fill="#061e3b"></path><path d="M144.161,97.7h64.071l-1.657,6.628H158.521l-3.866,14.913h43.634l-2.209,6.076H153l-4.971,17.122H196.08l-2.209,6.628H129.8Z" transform="translate(587.129 441.93)" fill="#061e3b"></path><path d="M219.994,105.97a96.657,96.657,0,0,0-20.989-2.209c-9.39,0-20.436,1.657-22.093,6.628s46.948,7.733,42.53,24.3-23.2,15.465-46.4,15.465a151.335,151.335,0,0,1-22.646-2.209l3.314-6.628a132.007,132.007,0,0,0,23.2,2.762c9.39,0,23.2-2.209,24.855-8.285s-46.948-8.285-42.53-24.3,19.884-13.808,40.873-13.808a154.1,154.1,0,0,1,23.75,1.657l-4.419,6.628" transform="translate(680.31 441.393)" fill="#061e3b"></path><path d="M292.108,107.355a83.956,83.956,0,0,0-22.646-2.762c-26.512,0-46.4,8.285-49.71,19.884s13.808,19.884,37.559,19.884a126.484,126.484,0,0,0,25.407-2.762l-1.1,7.18a163.494,163.494,0,0,1-26.512,1.657c-36.454,0-57.443-10.494-53.024-26.512s33.14-26.512,67.937-26.512a124.279,124.279,0,0,1,25.407,2.209l-3.314,7.18" transform="translate(911.427 440.56)" fill="#061e3b"></path><path d="M289.353,97.5c34.8,0,51.919,11.047,48.053,26.512s-27.617,26.512-62.414,26.512-51.919-11.047-48.053-26.512S254.556,97.5,289.353,97.5m-12.7,46.4c26.512,0,40.32-9.942,43.634-19.884s-7.18-19.884-32.035-19.884-40.32,9.39-43.634,19.884S250.138,143.9,276.65,143.9" transform="translate(1024.096 441.025)" fill="#061e3b"></path><path d="M270.808,98.152h28.169c22.646,0,44.187,1.657,40.873,13.808s-13.256,10.494-27.064,11.6h0a13.808,13.808,0,0,1,9.942,4.971l16.018,20.436H319.966l-12.7-17.675c-3.866-4.971-9.39-4.971-17.675-4.971h-9.942l-6.076,22.646H257L271.361,97.6m10.494,22.093h13.808c15.465,0,25.407-3.314,27.064-8.285s-5.523-7.733-20.989-7.733H285.721Z" transform="translate(1162.498 441.478)" fill="#061e3b"></path><path d="M298.661,97.7h29.826c23.75,0,41.977,3.866,38.663,15.465s-24.3,15.465-44.739,15.465H306.393l-5.523,20.436H284.3L298.661,97.7M308.6,122H324.62c9.942,0,23.75-2.209,25.407-8.837s-12.7-8.837-22.646-8.837H313.573Z" transform="translate(1285.985 441.93)" fill="#061e3b"></path><path d="M373.353,97.5c34.8,0,51.919,11.047,48.053,26.512s-27.617,26.512-62.414,26.512-51.919-11.047-48.053-26.512S338.556,97.5,373.353,97.5m-12.7,46.4c26.512,0,40.32-9.942,43.082-19.884S397.1,104.128,371.7,104.128s-40.32,9.39-43.082,19.884S334.138,143.9,360.65,143.9" transform="translate(1404.057 441.025)" fill="#061e3b"></path><path d="M356.308,98.152h28.169c22.646,0,44.187,1.657,40.873,13.808s-13.256,10.494-27.064,11.6h0a13.808,13.808,0,0,1,9.942,4.971l16.018,20.436H405.466l-12.7-17.675c-3.866-4.971-9.39-4.971-17.675-4.971h-9.942l-6.076,22.646H342.5L356.861,97.6m10.494,22.093h13.808c15.465,0,25.407-3.314,27.064-8.285s-5.523-7.733-20.989-7.733H371.221Z" transform="translate(1549.243 441.478)" fill="#061e3b"></path><path d="M431.218,97.7h17.122l34.245,51.367H464.911l-8.285-12.7H400.287l-15.465,12.7H367.7Zm6.076,7.18-29.826,25.407h45.844Z" transform="translate(1663.231 441.93)" fill="#061e3b"></path><path d="M434.3,104.328H398.4l1.657-6.628h87.821l-1.657,6.628H450.872l-12.7,44.739H421.6Z" transform="translate(1802.098 441.93)" fill="#061e3b"></path><path d="M438.561,97.7h16.57L440.77,149.067H424.2Z" transform="translate(1918.8 441.93)" fill="#061e3b"></path><path d="M504.853,97.5c34.8,0,51.919,11.047,48.053,26.512s-27.617,26.512-62.414,26.512-51.919-11.047-48.053-26.512S470.056,97.5,504.853,97.5m-12.7,46.4c26.512,0,40.32-9.942,43.634-19.884s-6.628-19.884-32.035-19.884-40.32,9.39-43.082,19.884S466.19,143.9,492.7,143.9" transform="translate(1998.876 441.025)" fill="#061e3b"></path><path d="M487.908,97.7h22.646l39.216,41.425h0l11.6-41.425h16.57l-14.361,51.367H542.589l-40.32-42.53h-.552l-11.6,42.53H474.1Z" transform="translate(2144.514 441.93)" fill="#061e3b"></path></g></g></svg> 