<svg xmlns="http://www.w3.org/2000/svg" width="694.714" height="179" viewBox="0 0 694.714 179"><g transform="translate(-48.646 -36.64)"><path d="M226.29,126.95c5.14,0,8.33,2.98,7.21,7.87-1.26,5.52-6.12,7.93-10.82,7.93s-8.46-2.41-7.2-7.93c1.12-4.89,5.67-7.87,10.81-7.87m-20.05,51.96,7.69-33.69H230.3l-7.69,33.69Z" fill-rule="evenodd"/><path d="M162.9,178.91l12.54-51.59H191.5l-12.24,51.59H162.9"/><path d="M78.83,144.14l-1.9,8.31h1.71c3.05,0,6.46-.51,7.34-4.38.85-3.74-2.65-3.93-5.51-3.93H78.83M54.14,178.91l10.93-47.84H87.09c11.17,0,18.11,5.71,15.4,17.57-2.23,9.77-9.71,15.86-19.42,15.86H74.19L70.9,178.9H54.14Z" fill-rule="evenodd"/><path d="M98.67,178.91l11.75-51.46h16.37l-3.25,14.21-2.89,9.33h.25c3.87-3.62,7.65-6.53,12.34-6.53,8.37,0,9.91,6.34,8.21,13.77l-4.72,20.68H120.74l3.97-17.39c.41-1.78.66-4-1.69-4-2.54,0-3.54,1.9-4.02,4l-3.97,17.39H98.67"/><path d="M161.03,126.95c5.14,0,8.33,2.98,7.21,7.87-1.26,5.52-6.12,7.93-10.82,7.93s-8.46-2.41-7.2-7.93c1.11-4.89,5.66-7.87,10.81-7.87m-20.06,51.96,7.69-33.69h16.37l-7.69,33.69Z" fill-rule="evenodd"/><path d="M184.92,178.91l11.75-51.46h16.37l-11.75,51.46H184.92"/><path d="M268.22,175.6l6.05-10.05.81.63c1.83,1.38,4.53,3.08,7.13,3.08a2.62,2.62,0,0,0,2.63-1.82c.39-1.82-1.43-1.88-2.62-2.07-4.92-.75-9.16-2.95-7.82-9.23,1.79-8.35,10.42-11.68,17.14-11.68,3.89,0,8.56.81,11.55,2.82l-5.7,9.23a9.772,9.772,0,0,0-6.43-2.76c-.94,0-2.25.31-2.51,1.51-.35,1.63,1.28,1.76,3.32,2.13,5.23.94,9.22,2.95,7.78,9.67-1.86,8.66-10.71,12.24-17.8,12.24a29.976,29.976,0,0,1-13.53-3.7"/><path d="M250.52,145.22l-1.68,5.32h.49a14.667,14.667,0,0,1,11.59-6.08c9.19,0,11.66,8.87,9.79,17.29-1.76,7.92-8.78,17.86-17.73,17.86-3.58,0-7.43-2.09-8.49-5.38h-.43l-.46,5.38-5.71,24.01H221.97l13.35-58.4h15.2m1.4,12.03c-2.65,0-4.58,2.28-5.13,4.75-.56,2.53.35,4.81,3,4.81,2.47,0,4.73-2.66,5.23-4.94C255.54,159.53,254.32,157.25,251.92,157.25Z" fill-rule="evenodd"/><path d="M176.65,122.07l4.22-17.45c.4-1.78.66-4-1.69-4-2.54,0-3.54,1.9-4.02,4L171.19,122H154.82l11.75-49.4h16.37l-3.25,12.15-2.89,9.33h.25c3.87-3.62,7.65-6.53,12.34-6.53,8.38,0,9.91,6.34,8.21,13.77l-4.91,20.75H176.65Z"/><path d="M214.86,100.96h6.93c.47-2.29-.59-4.39-2.71-4.39-2.23.01-3.73,2.04-4.22,4.39m20.03,7H213.43c-.56,2.73-.79,5.78,2.3,5.78a4.061,4.061,0,0,0,3.55-2.8h14.37c-3.62,8.14-12.58,11.89-19.56,11.89-9.56,0-17.19-5.47-14.8-17.1,2.3-11.19,11.52-18.18,21.19-18.18C231.3,87.55,238.24,95.31,234.89,107.96Z" fill-rule="evenodd"/><path d="M317.54,100.17c-2.29,0-4.27,2.19-4.79,4.87-.51,2.62.82,4.56,2.95,4.56s4.22-1.94,4.73-4.56c.53-2.69-.59-4.87-2.89-4.87M320,87.55c9.34,0,15.99,6.12,13.72,17.74a20.81,20.81,0,0,1-20.49,16.92c-8.86,0-16.03-5.93-13.88-16.92C301.62,93.67,310.66,87.55,320,87.55Z" fill-rule="evenodd"/><path d="M160.71,75.66l-4.13,17.65a11.442,11.442,0,0,0-8.85-4.68c-4.93,0-9.85,4.14-10.97,9.36-1.14,5.28,2.25,9.36,7.18,9.36a14.887,14.887,0,0,0,10.23-3.74l-4.18,17.24c-2.93,1.34-9.18,1.91-12.13,1.91-12.92,0-20.72-10.63-17.77-24.32,3.02-14.01,15.83-25.21,29.11-25.21a34.518,34.518,0,0,1,11.51,2.43"/><path d="M236.63,88.31h15.11l.64,15.88h.38l1.52-4.11,5.32-11.77h15.11L255.49,121.9H242.72l-6.09-33.59"/><path d="M302.53,88.05l-3.29,13.88c-1.39-1.02-1.58-1.85-3.55-1.85-3.99,0-6.56,2.55-7.45,6.76l-3.54,15.37H269.34l7.22-33.9h15.36l-1.32,4.53h.36c3.68-4.46,6.42-4.92,11.57-4.79"/><path d="M355.28,88.32l-1.78,5.43h.36c3.83-3.7,6.67-6.19,11.7-6.19,7.99,0,9.77,6.32,8.15,13.79l-4.52,20.87H353.57l3.58-16.53c.43-1.98,1.04-4.79-1.63-4.79-2.6,0-3.21,2.81-3.64,4.79l-3.58,16.53H332.68l7.34-33.9h15.26" fill-rule="evenodd"/><path d="M196.67,82.07c68.7-19.75,108.27-23.87,121.71-24.8,27.38-1.89,20.69,10.78-16.12,28.6C302.26,85.87,378.87,44.32,196.67,82.07Z" fill="#ef3e33"/><path d="M196.67,82.07c68.7-19.75,108.27-23.87,121.71-24.8,27.38-1.89,20.69,10.78-16.12,28.6C302.26,85.87,378.87,44.32,196.67,82.07Z" fill="#f5333f" stroke="#f5333f" stroke-miterlimit="3.864" stroke-width="0.058"/><path d="M80.64,79.73C191.6,47.83,255.5,41.19,277.21,39.69c26.3-1.82,33.14,4.68,21.85,16.31l-23,3.64C269.46,50.75,226.16,49.58,80.64,79.73Z" fill="#000f9f" stroke="#000f9f" stroke-miterlimit="3.864" stroke-width="0.058"/><path d="M80.64,79.73C191.6,47.83,255.5,41.19,277.21,39.69c26.3-1.82,33.14,4.68,21.85,16.31l-23,3.64C269.46,50.75,226.16,49.58,80.64,79.73Z" fill="none" stroke="#004fa3" stroke-miterlimit="3.864" stroke-width="0.062"/><path d="M278.27,71.38c-7.46,4.51-16.5,9.37-27.09,14.5,0,0,12.06-6.54,19.7-13.69Z" fill="#004fa3"/><path d="M278.27,71.38c-7.46,4.51-16.5,9.37-27.09,14.5,0,0,12.06-6.54,19.7-13.69Z" fill="#000f9f" stroke="#000f9f" stroke-miterlimit="3.864" stroke-width="0.058"/><path d="M68.72,193.62a3.733,3.733,0,0,0-3.36-1.77c-4.27,0-6.56,4.72-7.44,8.06-.93,3.55-1.07,8.06,3.04,8.06a7.834,7.834,0,0,0,4.86-1.93l-2.72,8.51a13.611,13.611,0,0,1-5.25,1.09c-6.73,0-11.11-5.12-8.38-15.52,3.58-13.63,13.54-15.93,17.53-15.93a9.8,9.8,0,0,1,4,.73Z"/><path d="M79.27,215.11l3.24-12.34H78.6l-3.24,12.34H67.13l8-30.4h8.23L80.5,195.6h3.91l2.86-10.89H95.5l-7.99,30.4Z"/><path d="M99.56,184.71h15.28l-1.89,7.18h-7.06l-1.11,4.23h6.33l-1.89,7.18h-6.33l-1.22,4.64h7.06l-1.89,7.18H91.57Z"/><path d="M132.57,215.11,136.83,196h-.08c-.95,2.22-1.81,4.43-2.8,6.65l-5.61,12.46h-6.69L123.81,196h-.08c-.63,2.26-1.18,4.47-1.89,6.73l-3.94,12.38h-8.83l11.54-30.4h10.24l-1.91,16.17h.08c.74-1.9,1.43-3.75,2.29-5.64l4.74-10.52h10.12l-5.05,30.4h-8.55Z"/><path d="M143.33,215.11l8-30.4h8.23l-8,30.4Z"/><path d="M177.89,193.62a3.733,3.733,0,0,0-3.36-1.77c-4.27,0-6.56,4.72-7.44,8.06-.93,3.55-1.07,8.06,3.04,8.06a7.834,7.834,0,0,0,4.86-1.93l-2.72,8.51a13.611,13.611,0,0,1-5.25,1.09c-6.73,0-11.11-5.12-8.38-15.52,3.58-13.63,13.54-15.93,17.53-15.93a9.8,9.8,0,0,1,4,.73Z"/><path d="M189.5,215.11l.42-3.91H184.4l-1.71,3.91h-8.47l15.29-30.4h10.04l-1.54,30.4Zm1.15-10.36.97-7.05c.26-1.9.6-3.83.9-5.73h-.08c-.74,1.9-1.45,3.83-2.27,5.73l-2.98,7.05Z"/><path d="M199.9,215.11l8-30.4h8.23l-6.11,23.22h6.17l-1.89,7.18Z"/><rect width="0.5" height="178.48" transform="translate(415.55 36.64)"/><path d="M457.95,96.79h5.56c4.34,0,7.26,1.48,7.26,5.72,0,4.11-2.89,6.01-7.15,6.01h-3.21v7.71h-2.46V96.79Zm5.35,9.75c3.42,0,5.03-1.25,5.03-4.03,0-2.81-1.72-3.71-5.14-3.71h-2.78v7.74Z"/><path d="M472.68,109.05c0-4.66,3.15-7.58,6.49-7.58,3.66,0,5.72,2.65,5.72,6.75a8.557,8.557,0,0,1-.11,1.38h-9.7c.16,3.07,2.04,5.03,4.77,5.03a6.169,6.169,0,0,0,3.6-1.14l.87,1.59a8.572,8.572,0,0,1-4.77,1.48C475.75,116.57,472.68,113.79,472.68,109.05Zm10.09-1.19c0-2.89-1.32-4.45-3.58-4.45-2.04,0-3.84,1.64-4.13,4.45Z"/><path d="M488.44,101.85h1.99l.21,2.62h.08c1.01-1.83,2.46-2.99,4.08-2.99a3.076,3.076,0,0,1,1.54.32l-.45,2.12a3.328,3.328,0,0,0-1.4-.24c-1.19,0-2.68.85-3.63,3.31v9.24h-2.41V101.85Z"/><path d="M499.11,103.81h-1.96v-1.83l1.96-.13v-2.3c0-2.91,1.33-4.74,4.19-4.74a6.234,6.234,0,0,1,2.41.48l-.53,1.83a4.049,4.049,0,0,0-1.62-.37c-1.38,0-2.04.98-2.04,2.83v2.28h3.05v1.96h-3.05v12.42h-2.41Z"/><path d="M505.95,109.05c0-4.79,3.15-7.58,6.68-7.58s6.67,2.78,6.67,7.58c0,4.77-3.15,7.52-6.67,7.52S505.95,113.82,505.95,109.05Zm10.86,0c0-3.31-1.7-5.56-4.19-5.56s-4.16,2.25-4.16,5.56,1.67,5.51,4.16,5.51S516.81,112.36,516.81,109.05Z"/><path d="M523.09,101.85h1.99l.21,2.62h.08c1.01-1.83,2.46-2.99,4.08-2.99a3.052,3.052,0,0,1,1.54.32l-.45,2.12a3.328,3.328,0,0,0-1.4-.24c-1.19,0-2.68.85-3.63,3.31v9.24H523.1V101.85Z"/><path d="M533.37,101.85h1.99l.21,2.09h.08a6.307,6.307,0,0,1,4.48-2.46,3.788,3.788,0,0,1,3.97,2.75c1.48-1.62,2.99-2.75,4.74-2.75,2.97,0,4.37,1.96,4.37,5.64v9.11H550.8v-8.79c0-2.7-.85-3.84-2.68-3.84-1.11,0-2.28.71-3.63,2.2v10.44h-2.41v-8.79c0-2.7-.85-3.84-2.68-3.84-1.09,0-2.3.71-3.63,2.2v10.44h-2.41v-14.4Z"/><path d="M557,112.5c0-3.13,2.73-4.69,8.85-5.38,0-1.85-.61-3.63-2.97-3.63a7.92,7.92,0,0,0-4.32,1.54l-.95-1.67a10.772,10.772,0,0,1,5.67-1.88c3.5,0,4.98,2.36,4.98,5.91v8.85h-1.99l-.21-1.72h-.08a7.7,7.7,0,0,1-4.77,2.07A3.92,3.92,0,0,1,557,112.5Zm8.84.23V108.7c-4.85.58-6.49,1.77-6.49,3.63,0,1.64,1.11,2.3,2.54,2.3C563.3,114.64,564.44,113.98,565.84,112.73Z"/><path d="M572.84,101.85h1.99l.21,2.07h.08c1.38-1.35,2.86-2.44,4.82-2.44,3.02,0,4.4,1.96,4.4,5.64v9.11h-2.41v-8.79c0-2.7-.82-3.84-2.73-3.84-1.48,0-2.49.74-3.95,2.2v10.44h-2.41V101.85Z"/><path d="M587.94,109.05c0-4.79,3.26-7.58,6.94-7.58a6.1,6.1,0,0,1,4.21,1.7l-1.25,1.59a4.259,4.259,0,0,0-2.86-1.27c-2.62,0-4.53,2.25-4.53,5.56s1.8,5.51,4.45,5.51a5.063,5.063,0,0,0,3.39-1.43l1.06,1.62a6.957,6.957,0,0,1-4.66,1.83C590.88,116.57,587.94,113.82,587.94,109.05Z"/><path d="M600.78,109.05c0-4.66,3.15-7.58,6.49-7.58,3.66,0,5.72,2.65,5.72,6.75a8.557,8.557,0,0,1-.11,1.38h-9.69c.16,3.07,2.04,5.03,4.77,5.03a6.169,6.169,0,0,0,3.6-1.14l.87,1.59a8.572,8.572,0,0,1-4.77,1.48C603.86,116.57,600.78,113.79,600.78,109.05Zm10.1-1.19c0-2.89-1.32-4.45-3.58-4.45-2.04,0-3.84,1.64-4.13,4.45Z"/><path d="M624.73,114.75h-.11l-.21,1.48h-1.93V95.14h2.41v5.77l-.08,2.6a7.237,7.237,0,0,1,4.5-2.04c3.73,0,5.75,2.91,5.75,7.31,0,4.95-2.94,7.79-6.25,7.79A6.394,6.394,0,0,1,624.73,114.75Zm7.82-5.91c0-3.18-1.06-5.32-3.79-5.32a5.944,5.944,0,0,0-3.87,1.99v7.55a5.533,5.533,0,0,0,3.52,1.51C630.8,114.56,632.55,112.42,632.55,108.84Z"/><path d="M637.29,122.14l.48-1.93a3.293,3.293,0,0,0,1.09.24c1.64,0,2.68-1.32,3.26-3.1l.32-1.09-5.77-14.41h2.52l2.94,8c.42,1.24.93,2.73,1.38,4.03h.13c.4-1.3.82-2.75,1.22-4.03l2.57-8h2.36l-5.43,15.58c-.98,2.83-2.49,5.01-5.35,5.01A4.743,4.743,0,0,1,637.29,122.14Z"/><path d="M657.45,109.05c0-4.66,2.94-7.58,6.22-7.58a5.837,5.837,0,0,1,4.05,1.7l-.11-2.49V95.14H670v21.09h-1.96l-.21-1.7h-.08a6.431,6.431,0,0,1-4.37,2.04C659.78,116.57,657.45,113.85,657.45,109.05Zm10.17,3.52v-7.55a5.141,5.141,0,0,0-3.52-1.51c-2.33,0-4.16,2.23-4.16,5.51,0,3.47,1.43,5.54,3.97,5.54A5.033,5.033,0,0,0,667.62,112.57Z"/><path d="M673.82,109.05c0-4.66,3.15-7.58,6.49-7.58,3.66,0,5.72,2.65,5.72,6.75a8.557,8.557,0,0,1-.11,1.38h-9.7c.16,3.07,2.04,5.03,4.77,5.03a6.169,6.169,0,0,0,3.6-1.14l.87,1.59a8.572,8.572,0,0,1-4.77,1.48C676.89,116.57,673.82,113.79,673.82,109.05Zm10.09-1.19c0-2.89-1.32-4.45-3.58-4.45-2.04,0-3.84,1.64-4.13,4.45Z"/><path d="M687.96,114.59l1.19-1.59a6.518,6.518,0,0,0,4.27,1.7c1.91,0,2.83-1.01,2.83-2.25,0-1.48-1.7-2.12-3.29-2.73-2.01-.74-4.21-1.72-4.21-4.16,0-2.28,1.85-4.08,4.98-4.08a7.282,7.282,0,0,1,4.45,1.62l-1.17,1.56a5.283,5.283,0,0,0-3.26-1.27c-1.83,0-2.67.95-2.67,2.07,0,1.38,1.48,1.88,3.1,2.49,2.09.79,4.4,1.64,4.4,4.37,0,2.33-1.85,4.26-5.25,4.26A8.739,8.739,0,0,1,687.96,114.59Z"/><path d="M701.58,97.26a1.621,1.621,0,0,1,3.24,0,1.62,1.62,0,1,1-3.24,0Zm.4,4.59h2.41v14.38h-2.41Z"/><path d="M708.18,118.98a4.049,4.049,0,0,1,2.12-3.26v-.11a2.6,2.6,0,0,1-1.32-2.36,3.5,3.5,0,0,1,1.62-2.68v-.11a5.072,5.072,0,0,1-1.88-3.87,5.124,5.124,0,0,1,5.4-5.14,6.058,6.058,0,0,1,2.01.37h5.01v1.85H718.2a4.1,4.1,0,0,1,1.17,2.97,4.938,4.938,0,0,1-5.25,5.01,5.17,5.17,0,0,1-2.15-.5,2.147,2.147,0,0,0-.93,1.72c0,.93.58,1.56,2.52,1.56h2.81c3.34,0,5.03,1.06,5.03,3.42,0,2.68-2.83,4.98-7.29,4.98C710.59,122.85,708.18,121.47,708.18,118.98Zm10.86-.74c0-1.32-1.03-1.77-2.94-1.77h-2.49a7.965,7.965,0,0,1-1.85-.24,3.009,3.009,0,0,0-1.46,2.44c0,1.54,1.56,2.54,4.16,2.54C717.21,121.21,719.04,119.75,719.04,118.24Zm-1.86-11.63a3.083,3.083,0,1,0-6.14,0,3.088,3.088,0,1,0,6.14,0Z"/><path d="M724.18,101.85h1.99l.21,2.07h.08c1.38-1.35,2.86-2.44,4.82-2.44,3.02,0,4.4,1.96,4.4,5.64v9.11h-2.41v-8.79c0-2.7-.82-3.84-2.73-3.84-1.48,0-2.49.74-3.95,2.2v10.44h-2.41V101.85Z"/><path d="M739.86,114.75a1.754,1.754,0,1,1,3.5,0,1.752,1.752,0,1,1-3.5,0Z"/><path d="M456.84,141.42c0-6.28,3.68-10.09,8.61-10.09a7.178,7.178,0,0,1,5.32,2.41l-1.32,1.59a5.283,5.283,0,0,0-3.97-1.85c-3.68,0-6.12,3.02-6.12,7.87,0,4.9,2.33,7.97,6.04,7.97a5.9,5.9,0,0,0,4.5-2.17l1.35,1.54a7.52,7.52,0,0,1-5.96,2.78C460.46,151.46,456.84,147.73,456.84,141.42Z"/><path d="M473.74,147.38c0-3.13,2.73-4.69,8.85-5.38,0-1.85-.61-3.63-2.97-3.63a7.92,7.92,0,0,0-4.32,1.54l-.95-1.67a10.772,10.772,0,0,1,5.67-1.88c3.5,0,4.98,2.36,4.98,5.91v8.85h-1.99l-.21-1.72h-.08a7.7,7.7,0,0,1-4.77,2.07A3.91,3.91,0,0,1,473.74,147.38Zm8.84.24v-4.03c-4.85.58-6.49,1.77-6.49,3.63,0,1.64,1.11,2.3,2.54,2.3C480.04,149.53,481.18,148.87,482.58,147.62Z"/><path d="M489.58,136.73h1.99l.21,2.62h.08c1.01-1.83,2.46-2.99,4.08-2.99a3.053,3.053,0,0,1,1.54.32l-.45,2.12a3.328,3.328,0,0,0-1.4-.24c-1.19,0-2.68.85-3.63,3.31v9.24h-2.41V136.73Z"/><path d="M499.46,132.15a1.621,1.621,0,0,1,3.24,0,1.62,1.62,0,0,1-3.24,0Zm.39,4.58h2.41v14.38h-2.41Z"/><path d="M507.14,136.73h1.99l.21,2.07h.08c1.38-1.35,2.86-2.44,4.82-2.44,3.02,0,4.4,1.96,4.4,5.64v9.11h-2.41v-8.79c0-2.7-.82-3.84-2.73-3.84-1.48,0-2.49.74-3.95,2.2v10.44h-2.41V136.73Z"/><path d="M522.24,153.87a4.049,4.049,0,0,1,2.12-3.26v-.11a2.6,2.6,0,0,1-1.32-2.36,3.5,3.5,0,0,1,1.62-2.68v-.11a5.072,5.072,0,0,1-1.88-3.87,5.124,5.124,0,0,1,5.4-5.14,6.058,6.058,0,0,1,2.01.37h5.01v1.85h-2.94a4.1,4.1,0,0,1,1.17,2.97,4.938,4.938,0,0,1-5.25,5.01,5.17,5.17,0,0,1-2.15-.5,2.147,2.147,0,0,0-.93,1.72c0,.93.58,1.56,2.52,1.56h2.81c3.34,0,5.03,1.06,5.03,3.42,0,2.68-2.83,4.98-7.29,4.98C524.65,157.74,522.24,156.36,522.24,153.87Zm10.86-.74c0-1.32-1.03-1.77-2.94-1.77h-2.49a7.965,7.965,0,0,1-1.85-.24,3.009,3.009,0,0,0-1.46,2.44c0,1.54,1.56,2.54,4.16,2.54C531.27,156.1,533.1,154.64,533.1,153.13Zm-1.85-11.63a3.083,3.083,0,1,0-6.14,0,3.088,3.088,0,1,0,6.14,0Z"/><path d="M546.43,149.63h-.11l-.21,1.48h-1.93V130.02h2.41v5.77l-.08,2.6a7.237,7.237,0,0,1,4.5-2.04c3.73,0,5.75,2.91,5.75,7.31,0,4.95-2.94,7.79-6.25,7.79A6.3,6.3,0,0,1,546.43,149.63Zm7.81-5.9c0-3.18-1.06-5.32-3.79-5.32a5.944,5.944,0,0,0-3.87,1.99v7.55a5.532,5.532,0,0,0,3.52,1.51C552.49,149.45,554.24,147.3,554.24,143.73Z"/><path d="M558.98,157.02l.48-1.93a3.293,3.293,0,0,0,1.09.24c1.64,0,2.68-1.32,3.26-3.1l.32-1.09-5.77-14.41h2.52l2.94,8c.42,1.24.93,2.73,1.38,4.03h.13c.4-1.3.82-2.75,1.22-4.03l2.57-8h2.36l-5.43,15.58c-.98,2.83-2.49,5.01-5.35,5.01A4.387,4.387,0,0,1,558.98,157.02Z"/><path d="M579.09,143.94c0-4.79,3.26-7.58,6.94-7.58a6.1,6.1,0,0,1,4.21,1.7l-1.25,1.59a4.259,4.259,0,0,0-2.86-1.27c-2.62,0-4.53,2.25-4.53,5.56s1.8,5.51,4.45,5.51a5.063,5.063,0,0,0,3.39-1.43l1.06,1.62a6.957,6.957,0,0,1-4.66,1.83C582.03,151.46,579.09,148.71,579.09,143.94Z"/><path d="M593.66,130.03h2.41v5.77l-.08,2.97a6.766,6.766,0,0,1,4.77-2.41c3.02,0,4.4,1.96,4.4,5.64v9.11h-2.41v-8.79c0-2.7-.82-3.84-2.73-3.84-1.48,0-2.49.74-3.95,2.2v10.44h-2.41V130.03Z"/><path d="M608.65,143.94c0-4.79,3.15-7.58,6.68-7.58s6.67,2.78,6.67,7.58c0,4.77-3.15,7.52-6.67,7.52S608.65,148.71,608.65,143.94Zm10.86,0c0-3.31-1.7-5.56-4.19-5.56s-4.16,2.25-4.16,5.56,1.67,5.51,4.16,5.51S619.51,147.25,619.51,143.94Z"/><path d="M625.39,132.15a1.621,1.621,0,0,1,3.24,0,1.62,1.62,0,0,1-3.24,0Zm.4,4.58h2.41v14.38h-2.41Z"/><path d="M631.99,143.94c0-4.79,3.26-7.58,6.94-7.58a6.1,6.1,0,0,1,4.21,1.7l-1.25,1.59a4.259,4.259,0,0,0-2.86-1.27c-2.62,0-4.53,2.25-4.53,5.56s1.8,5.51,4.45,5.51a5.083,5.083,0,0,0,3.39-1.43l1.06,1.62a6.957,6.957,0,0,1-4.66,1.83C634.93,151.46,631.99,148.71,631.99,143.94Z"/><path d="M644.84,143.94c0-4.66,3.15-7.58,6.49-7.58,3.66,0,5.72,2.65,5.72,6.75a8.557,8.557,0,0,1-.11,1.38h-9.69c.16,3.07,2.04,5.03,4.77,5.03a6.169,6.169,0,0,0,3.6-1.14l.87,1.59a8.572,8.572,0,0,1-4.77,1.48C647.91,151.46,644.84,148.68,644.84,143.94Zm10.09-1.19c0-2.89-1.32-4.45-3.58-4.45-2.04,0-3.84,1.64-4.13,4.45Z"/><path d="M660.1,149.63a1.754,1.754,0,1,1,3.5,0,1.752,1.752,0,1,1-3.5,0Z"/><path d="M661.48,131.02h-1.82v-.99h4.7v.99h-1.82v4.65h-1.06Zm3.78-.99h1.32l.85,2.11.52,1.43H668l.5-1.43.83-2.11h1.33v5.64h-1.01v-2.5l.11-1.9h-.06l-1.33,3.54h-.85l-1.32-3.54h-.08l.13,1.9v2.5h-1.01v-5.64Z"/></g></svg>