<svg version="1.2" xmlns="http://www.w3.org/2000/svg" viewBox="0 0 142 27" width="142" height="27">
	<title>Clarivate_Logo_TM_RGB_White-svg</title>
	<style>
		.s0 { fill: #ffffff } 
	</style>
	<path id="Layer" class="s0" d="m10.1 19.1q1.7-0.6 3.3-1.5 1.5-0.9 2.9-2.1 1.4-1.1 2.5-2.5 0.5 0.5 0.9 1.1 0.5 0.6 0.8 1.2 0.4 0.7 0.8 1.3 0.3 0.7 0.6 1.3-1.3 1.4-2.7 2.5-1.5 1.1-3 2-1.6 0.9-3.3 1.6-1.7 0.7-3.5 1.2-0.4-0.6-0.8-1.2-0.4-0.7-0.8-1.3-0.3-0.6-0.6-1.3-0.3-0.7-0.6-1.4 1.8-0.3 3.5-0.9z"/>
	<path id="Layer" class="s0" d="m12.9 1.9q1.7 0.7 3.3 1.6 1.5 0.9 3 2 1.4 1.2 2.7 2.5-0.3 0.7-0.6 1.3-0.4 0.7-0.8 1.3-0.3 0.6-0.8 1.2-0.4 0.6-0.9 1.2-1.1-1.4-2.5-2.6-1.4-1.2-2.9-2.1-1.6-0.9-3.3-1.5-1.7-0.6-3.5-0.9 0.3-0.7 0.6-1.4 0.3-0.6 0.6-1.3 0.4-0.6 0.8-1.2 0.4-0.6 0.8-1.2 1.8 0.4 3.5 1.1z"/>
	<path id="Layer" class="s0" d="m5.2 20.2q-0.8 0.1-1.5 0.1-0.7 0-1.5 0-0.7 0-1.4-0.1-0.5-1.8-0.8-3.6-0.2-1.8-0.2-3.6 0-1.9 0.2-3.7 0.3-1.8 0.8-3.5 0.7-0.1 1.4-0.2 0.8 0 1.5 0 0.7 0 1.5 0.1 0.7 0.1 1.4 0.2-0.3 0.9-0.6 1.8-0.4 1.5-0.6 3.1-0.1 1.5-0.1 3.1 0.1 1.6 0.4 3.1 0.4 1.6 0.9 3-0.7 0.2-1.4 0.2z"/>
	<path id="Layer" class="s0" d="m38.5 19.5q0.8 0 1.7-0.2 0.8-0.2 1.6-0.8 0.7-0.5 1.2-1.2 0.5-0.7 0.8-1.5h4.2q-0.4 1.6-1.3 2.9-0.9 1.4-2.2 2.4-1.3 1-2.8 1.5-1.6 0.5-3.2 0.5c-1.4 0-2.7-0.2-4-0.7-1.2-0.5-2.3-1.3-3.3-2.2-1-0.9-1.7-2.1-2.2-3.3-0.5-1.3-0.8-2.6-0.7-3.9-0.1-1.4 0.2-2.7 0.7-4 0.5-1.2 1.2-2.3 2.2-3.3 1-0.9 2.1-1.7 3.3-2.2 1.3-0.4 2.6-0.7 4-0.6q1.6-0.1 3.2 0.4 1.5 0.5 2.8 1.5 1.3 1 2.2 2.4 0.9 1.4 1.3 2.9h-4.2q-0.3-0.8-0.8-1.5-0.5-0.7-1.2-1.2-0.8-0.5-1.6-0.8-0.9-0.2-1.7-0.2c-3.7 0-6.2 2.8-6.2 6.6 0 3.7 2.5 6.5 6.2 6.5z"/>
	<path id="Layer" class="s0" d="m53.6 22.7h-3.6v-19.5h3.6z"/>
	<path id="Layer" fill-rule="evenodd" class="s0" d="m63.6 14.2c0-0.9-0.7-1.5-2.1-1.5q-0.5 0-1 0.1-0.5 0.1-1 0.3-0.5 0.1-0.9 0.3-0.5 0.3-0.9 0.5l-1.5-2.7q0.7-0.4 1.3-0.7 0.7-0.3 1.4-0.5 0.7-0.2 1.4-0.3 0.7-0.1 1.4-0.1c2.9 0 5.6 1.4 5.6 4.7v8.4h-3.7v-1.2q-0.3 0.4-0.7 0.7-0.4 0.3-0.9 0.5-0.4 0.2-0.9 0.3-0.5 0.1-1 0.1-0.9 0-1.7-0.3-0.8-0.2-1.4-0.8-0.7-0.6-1-1.3-0.4-0.8-0.4-1.7c0-2.4 1.8-3.9 4.6-3.9h2.5c0.7 0 0.9-0.3 0.9-0.7zm0 3.9v-0.9q-0.1 0.1-0.2 0.1-0.2 0.1-0.3 0.1-0.1 0.1-0.3 0.1-0.1 0-0.3-0.1h-1.4c-1.1 0-1.8 0.6-1.8 1.4 0 0.9 0.7 1.6 1.8 1.6q0.5 0 1-0.1 0.5-0.2 0.8-0.5 0.4-0.3 0.6-0.8 0.1-0.4 0.1-0.9z"/>
	<path id="Layer" class="s0" d="m77.2 13.5h-1.5c-1.8 0-2.7 0.9-2.7 3.1v6.1h-3.6v-12.8h3.5v2.1q0.2-0.5 0.5-0.9 0.4-0.5 0.8-0.8 0.5-0.3 1-0.4 0.5-0.1 1-0.1 0.2 0 0.3 0 0.1 0 0.2 0 0.2 0 0.3 0 0.1 0.1 0.2 0.1z"/>
	<path id="Layer" class="s0" d="m84.4 22.7h-3.7v-9.7h-1.8v-3.1h5.5zm-2-19.5q0.4 0 0.9 0.2 0.4 0.2 0.7 0.5 0.4 0.3 0.5 0.8 0.2 0.4 0.2 0.9c0 0.6-0.2 1.2-0.7 1.6-0.4 0.4-1 0.7-1.6 0.7-0.6 0-1.2-0.3-1.6-0.7-0.5-0.4-0.7-1-0.7-1.6q0-0.5 0.1-0.9 0.2-0.5 0.5-0.8 0.4-0.3 0.8-0.5 0.4-0.2 0.9-0.2z"/>
	<path id="Layer" class="s0" d="m92.5 18.8l2.9-8.9h3.8l-4.5 12.8h-4.5l-4.4-12.8h4z"/>
	<path id="Layer" fill-rule="evenodd" class="s0" d="m107.4 14.2c0-0.9-0.7-1.5-2.1-1.5q-0.5 0-1 0.1-0.5 0.1-1 0.3-0.5 0.1-0.9 0.3-0.5 0.3-0.9 0.5l-1.5-2.7q0.7-0.4 1.3-0.7 0.7-0.3 1.4-0.5 0.7-0.2 1.4-0.3 0.7-0.1 1.4-0.1c2.9 0 5.6 1.4 5.6 4.7v8.4h-3.7v-1.2q-0.3 0.4-0.7 0.7-0.4 0.3-0.9 0.5-0.4 0.2-0.9 0.3-0.5 0.1-1 0.1-0.9 0-1.7-0.3-0.8-0.2-1.4-0.8-0.6-0.6-1-1.3-0.4-0.8-0.4-1.7c0-2.4 1.8-3.9 4.6-3.9h2.5c0.7 0 0.9-0.3 0.9-0.7zm0 3.9v-0.9q-0.1 0.1-0.2 0.1-0.2 0.1-0.3 0.1-0.1 0.1-0.3 0.1-0.1 0-0.3-0.1h-1.3c-1.2 0-1.9 0.6-1.9 1.4 0 0.9 0.7 1.6 1.9 1.6q0.4 0 0.9-0.1 0.5-0.2 0.8-0.5 0.4-0.3 0.6-0.8 0.2-0.4 0.1-0.9z"/>
	<path id="Layer" class="s0" d="m118.1 5.1v4.8h2.7v3.1h-2.7v5.8c0 0.8 0.6 0.9 1.2 0.9 0.9 0 1.6-0.1 1.6-0.1v3.1c0 0-1.7 0.2-2.8 0.2-1.8 0-3.7-0.3-3.7-2.9v-7h-2v-3.1h2v-4.8z"/>
	<path id="Layer" fill-rule="evenodd" class="s0" d="m135.3 17.4h-9.5c0.1 0.6 0.4 1.2 0.8 1.6 0.4 0.4 0.9 0.8 1.5 0.9 0.6 0.1 1.2 0.1 1.8-0.1 0.6-0.3 1-0.6 1.4-1.1l3.8 0.3c-0.7 1.5-1.8 2.6-3.2 3.3-1.4 0.7-2.9 0.9-4.5 0.6-1.5-0.3-2.9-1.1-3.8-2.3-1-1.2-1.6-2.7-1.6-4.3q-0.1-1.3 0.4-2.6 0.5-1.2 1.4-2.2 1-0.9 2.2-1.4 1.3-0.5 2.6-0.5c3.5 0 6.7 2.3 6.7 7.7zm-9.6-2.5h5.7q0-0.5-0.3-0.9-0.2-0.4-0.6-0.8-0.4-0.3-0.9-0.5-0.5-0.1-1-0.1-0.5 0-1 0.1-0.5 0.2-0.9 0.5-0.4 0.3-0.6 0.8-0.3 0.4-0.4 0.9z"/>
	<path id="Layer" class="s0" d="m137.3 4.1h-1v2.6h-1v-2.6h-1v-0.9h3z"/>
	<path id="Layer" class="s0" d="m139.3 5.9l-0.5-1.2v2h-1v-3.5h1.4l0.5 1.5 0.5-1.5h1.3v3.5h-1v-2l-0.5 1.2z"/>
</svg>