<svg id="Layer_1" data-name="Layer 1" xmlns="http://www.w3.org/2000/svg" viewBox="0 0 623.61 104.76"><defs><style>.cls-1{fill:#231f20;}.cls-2{fill:#235e39;}.cls-3{fill:#ffd200;}.cls-4{fill:#c32032;}.cls-5{fill:#7b863a;}.cls-6{fill:#6d3b5d;}.cls-7{fill:#232c67;}.cls-8{fill:#37657f;}.cls-9{fill:#fff;}</style></defs><path class="cls-1" d="M284.06,6a8,8,0,0,1,5.36,2,.7.7,0,0,0,1,0l3.1-3.23a.73.73,0,0,0,0-1.11A13.36,13.36,0,0,0,283.86,0a14.32,14.32,0,1,0,0,28.63,13.61,13.61,0,0,0,9.66-3.86.79.79,0,0,0,0-1.07l-3.1-3.3a.79.79,0,0,0-1,0,8.34,8.34,0,0,1-5.32,1.91,7.88,7.88,0,0,1-7.84-8.07A7.93,7.93,0,0,1,284.06,6"/><path class="cls-1" d="M319.24,0A14.25,14.25,0,0,0,305,14.36a14.3,14.3,0,0,0,28.59,0A14.3,14.3,0,0,0,319.24,0m0,22.28a8,8,0,1,1,7.95-7.92,8,8,0,0,1-7.95,7.92"/><path class="cls-1" d="M362.66,22.39h-9.59V1.16a.78.78,0,0,0-.75-.76h-4.74a.74.74,0,0,0-.75.76V27.48a.74.74,0,0,0,.75.75h15.08a.75.75,0,0,0,.76-.75V23.15a.76.76,0,0,0-.76-.76"/><path class="cls-1" d="M388.63,0a14.25,14.25,0,0,0-14.27,14.36,14.3,14.3,0,0,0,28.59,0A14.29,14.29,0,0,0,388.63,0m0,22.28a8,8,0,1,1,8-7.92,8,8,0,0,1-8,7.92"/><path class="cls-1" d="M432.46,17c3.46-1.4,5.88-4.34,5.88-8A8.64,8.64,0,0,0,429.68.4H417.79a.75.75,0,0,0-.76.76V27.48a.74.74,0,0,0,.76.75h4.73a.79.79,0,0,0,.76-.75V17.34H426l5.68,10.54a.72.72,0,0,0,.64.35h5.28a.75.75,0,0,0,.68-1.15Zm-3.3-4.7h-5.88V6.09h5.88a3,3,0,0,1,3,3,3.19,3.19,0,0,1-3,3.18"/><path class="cls-1" d="M502.51.4h-9.7a.75.75,0,0,0-.72.76V27.48a.74.74,0,0,0,.72.75h9.7a13.92,13.92,0,1,0,0-27.83m-.4,22h-3.82V6.25h3.82a7.73,7.73,0,0,1,7.75,8,7.75,7.75,0,0,1-7.75,8.08"/><path class="cls-1" d="M543.2,0a14.25,14.25,0,0,0-14.28,14.36,14.3,14.3,0,0,0,28.59,0A14.29,14.29,0,0,0,543.2,0m0,22.28a8,8,0,1,1,7.95-7.92,8,8,0,0,1-7.95,7.92"/><path class="cls-1" d="M465.81.44a.8.8,0,0,0-.67-.44h-.4a.81.81,0,0,0-.68.44L451.61,27.19a.7.7,0,0,0,.68,1h4.37a1.29,1.29,0,0,0,1.43-.95l1.43-3.18h10.84l1.42,3.14c.41.86.57,1,1.39,1h4.41a.7.7,0,0,0,.68-1ZM461.3,19.38l3.62-8.33,3.65,8.33Z"/><rect class="cls-1" x="252.2" y="0.12" width="1.3" height="99"/><path class="cls-1" d="M269.51,67.45h2.3V53.6h-2.3V50.93h8.29a13.21,13.21,0,0,1,4,.46c3.72,1.1,6.2,4.4,6.2,9.12,0,4.54-2.29,7.8-5.94,9a12.32,12.32,0,0,1-4.23.56h-8.32Zm8.16-.19a8.11,8.11,0,0,0,3.13-.49c2.18-.89,3.56-3.13,3.56-6.26s-1.46-5.45-3.7-6.31a7.7,7.7,0,0,0-3-.44h-2.33v13.5Z"/><path class="cls-1" d="M296.92,56c4,0,6.12,2.89,6.12,6.54,0,.4-.08,1.16-.08,1.16h-9.53a4,4,0,0,0,4.13,3.83,7,7,0,0,0,4-1.46l1.32,2.43a8.73,8.73,0,0,1-5.56,1.92,7.06,7.06,0,0,1-7.4-7.21C289.92,59,292.79,56,296.92,56Zm2.59,5.67c-.06-1.89-1.22-3-2.67-3a3.36,3.36,0,0,0-3.33,3Z"/><path class="cls-1" d="M306.69,72.93V59.49a.54.54,0,0,0-.59-.6h-1.54V56.33h3.53c1.27,0,1.71.59,1.71,1.29v.08c0,.33,0,.63,0,.63h.05A4.92,4.92,0,0,1,314.25,56c3.72,0,6.1,3,6.1,7.21s-2.67,7.21-6.29,7.21a4.8,4.8,0,0,1-4-2h0a8.16,8.16,0,0,1,.08,1.19v3.27h2v2.56h-7.43V72.93Zm6.75-5.4c1.89,0,3.45-1.54,3.45-4.27S315.49,59,313.47,59c-1.79,0-3.46,1.29-3.46,4.34C310,65.42,311.2,67.53,313.44,67.53Z"/><path class="cls-1" d="M329.56,61.59h.86v-.46c0-1.75-1.1-2.37-2.54-2.37A7.57,7.57,0,0,0,324,60.08l-1.27-2.38a9.35,9.35,0,0,1,5.45-1.7c3.7,0,5.67,1.92,5.67,5.43v5.51a.53.53,0,0,0,.59.59h1.25v2.56h-3.24c-1.27,0-1.76-.67-1.76-1.45v-.17a2.7,2.7,0,0,1,.08-.7h0a4.79,4.79,0,0,1-4.35,2.65c-2.34,0-4.56-1.38-4.56-4.19C321.81,62,327.35,61.59,329.56,61.59Zm-2.3,6.26c1.87,0,3.19-2,3.19-3.72v-.46h-.57c-1.35,0-4.61.22-4.61,2.29A1.85,1.85,0,0,0,327.26,67.85Z"/><path class="cls-1" d="M337.28,67.53h2v-8a.54.54,0,0,0-.59-.6h-1.54V56.33h3.59c1.21,0,1.83.51,1.83,1.67v.81a6.72,6.72,0,0,1-.05.86h.05A4.74,4.74,0,0,1,347,56.14a4.28,4.28,0,0,1,.62,0v3.38a5.5,5.5,0,0,0-.84-.06c-2.78,0-4,2.43-4,5v3h2v2.56h-7.4Z"/><path class="cls-1" d="M350.43,58.89h-2.1V56.33h2.21V52.58h3.32v3.75H357v2.56h-3.13V64.7a2.48,2.48,0,0,0,2.75,2.67,5.53,5.53,0,0,0,.62,0v2.81a6.34,6.34,0,0,1-1.05.08c-1.94,0-5.75-.57-5.75-5.18Z"/><path class="cls-1" d="M359,67.53h2V59.46a.52.52,0,0,0-.59-.57h-1.54V56.33h3.59c1.21,0,1.81.56,1.81,1.54v.62a3.47,3.47,0,0,1-.06.59h.06A5.54,5.54,0,0,1,369,56a3.62,3.62,0,0,1,3.84,3h.05a5.37,5.37,0,0,1,4.78-3c2.78,0,4.43,1.62,4.43,5.24v6.29h2v2.56h-5.42v-8.2c0-1.57-.3-2.76-1.89-2.76-2.35,0-3.51,2.35-3.51,4.89v3.51h2v2.56h-5.4v-8.2c0-1.49-.24-2.76-1.86-2.76-2.43,0-3.54,2.57-3.54,5.05v3.35h2v2.56H359Z"/><path class="cls-1" d="M392.39,56c4,0,6.12,2.89,6.12,6.54,0,.4-.08,1.16-.08,1.16H388.9A4,4,0,0,0,393,67.53a6.94,6.94,0,0,0,4-1.46l1.32,2.43a8.73,8.73,0,0,1-5.56,1.92,7,7,0,0,1-7.39-7.21C385.4,59,388.26,56,392.39,56ZM395,61.67c-.06-1.89-1.22-3-2.67-3a3.34,3.34,0,0,0-3.32,3Z"/><path class="cls-1" d="M400.49,67.53h2v-8a.55.55,0,0,0-.6-.6h-1.54V56.33H404c1.22,0,1.78.56,1.78,1.54v.62a4.14,4.14,0,0,1-.05.59h.05A5.53,5.53,0,0,1,410.83,56c2.94,0,4.61,1.6,4.61,5.24v6.29h2v2.56H412V61.94c0-1.67-.46-2.81-2.18-2.81-2.49,0-3.95,2.38-3.95,4.78v3.62h2v2.56h-7.39Z"/><path class="cls-1" d="M420.44,58.89h-2.1V56.33h2.21V52.58h3.32v3.75H427v2.56h-3.13V64.7a2.48,2.48,0,0,0,2.75,2.67,5.53,5.53,0,0,0,.62,0v2.81a6.34,6.34,0,0,1-1.05.08c-1.94,0-5.75-.57-5.75-5.18Z"/><path class="cls-1" d="M442.77,56a7.22,7.22,0,1,1,0,14.42c-4.21,0-7.59-3-7.59-7.21A7.25,7.25,0,0,1,442.77,56Zm0,11.5a4.29,4.29,0,1,0-4.11-4.29A4.08,4.08,0,0,0,442.8,67.5Z"/><path class="cls-1" d="M452.25,67.53h2V58.89h-2.14V56.33h2.14v-.62c0-4.46,3.56-5,5.39-5a9.5,9.5,0,0,1,1.41.1v2.76a5.31,5.31,0,0,0-1.06-.08,2,2,0,0,0-2.32,2.16v.7h3.11v2.56h-3.11v8.64H460v2.56h-7.74Z"/><path class="cls-1" d="M469.12,67.45h2.3V53.6h-2.3V50.93h8.15V53.6H475v5.53h8.72V53.6h-2.32V50.93h8.15V53.6h-2.29V67.45h2.29v2.64h-8.15V67.45h2.32V62H475v5.48h2.32v2.64h-8.15Z"/><path class="cls-1" d="M498.52,56c4,0,6.13,2.89,6.13,6.54,0,.4-.08,1.16-.08,1.16H495a4,4,0,0,0,4.13,3.83,7,7,0,0,0,4-1.46l1.32,2.43a8.77,8.77,0,0,1-5.56,1.92,7.06,7.06,0,0,1-7.4-7.21C491.53,59,494.39,56,498.52,56Zm2.59,5.67c-.05-1.89-1.21-3-2.67-3a3.35,3.35,0,0,0-3.32,3Z"/><path class="cls-1" d="M513.89,61.59h.86v-.46c0-1.75-1.11-2.37-2.54-2.37a7.57,7.57,0,0,0-3.88,1.32l-1.27-2.38a9.35,9.35,0,0,1,5.45-1.7c3.7,0,5.67,1.92,5.67,5.43v5.51a.52.52,0,0,0,.59.59H520v2.56h-3.24c-1.26,0-1.75-.67-1.75-1.45v-.17a2.7,2.7,0,0,1,.08-.7h-.05a4.79,4.79,0,0,1-4.35,2.65c-2.35,0-4.56-1.38-4.56-4.19C506.14,62,511.67,61.59,513.89,61.59Zm-2.3,6.26c1.86,0,3.19-2,3.19-3.72v-.46h-.57c-1.35,0-4.62.22-4.62,2.29A1.86,1.86,0,0,0,511.59,67.85Z"/><path class="cls-1" d="M522.39,53.49h-2.13V50.93h5.53V65.5c0,1.25.27,1.89,1.41,1.89.38,0,.64,0,.64,0v2.75a9.8,9.8,0,0,1-1.24.08c-2.18,0-4.21-.73-4.21-4.48Z"/><path class="cls-1" d="M531.06,58.89H529V56.33h2.22V52.58h3.32v3.75h3.13v2.56h-3.13V64.7a2.48,2.48,0,0,0,2.75,2.67,5.53,5.53,0,0,0,.62,0v2.81a6.34,6.34,0,0,1-1.05.08c-1.94,0-5.75-.57-5.75-5.18Z"/><path class="cls-1" d="M539.21,67.53h2v-14h-2.13V50.93h5.56v6.69a7.8,7.8,0,0,1-.08,1.16h.05A5.39,5.39,0,0,1,549.36,56c3,0,4.81,1.6,4.81,5.24v6.29h2v2.56h-5.43V61.94c0-1.67-.43-2.81-2.16-2.81-2.43,0-3.94,2.11-3.94,4.65v3.75h2v2.56h-7.4Z"/><path class="cls-1" d="M574,50.6c2.33,0,7.48.82,7.48,3.84V57h-3.21V55.54c0-1.43-2.54-1.91-4.1-1.91-3.7,0-6.4,2.59-6.4,6.64,0,4.32,2.81,7.12,6.58,7.12,1.17,0,4.16-.37,4.16-1.89V64h3.21v2.62c0,2.86-4.94,3.78-7.58,3.78a9.79,9.79,0,0,1-10-10A9.64,9.64,0,0,1,574,50.6Z"/><path class="cls-1" d="M591.32,61.59h.86v-.46c0-1.75-1.1-2.37-2.53-2.37a7.62,7.62,0,0,0-3.89,1.32l-1.27-2.38a9.35,9.35,0,0,1,5.45-1.7c3.7,0,5.67,1.92,5.67,5.43v5.51a.53.53,0,0,0,.6.59h1.24v2.56h-3.24c-1.27,0-1.76-.67-1.76-1.45v-.17a2.42,2.42,0,0,1,.09-.7h-.06a4.79,4.79,0,0,1-4.34,2.65c-2.35,0-4.57-1.38-4.57-4.19C583.57,62,589.11,61.59,591.32,61.59ZM589,67.85c1.86,0,3.18-2,3.18-3.72v-.46h-.57c-1.34,0-4.61.22-4.61,2.29A1.86,1.86,0,0,0,589,67.85Z"/><path class="cls-1" d="M599.05,67.53h2v-8a.54.54,0,0,0-.59-.6h-1.54V56.33h3.59c1.22,0,1.84.51,1.84,1.67v.81a5.62,5.62,0,0,1-.06.86h.06a4.72,4.72,0,0,1,4.37-3.53,4.28,4.28,0,0,1,.62,0v3.38a5.5,5.5,0,0,0-.84-.06c-2.78,0-4,2.43-4,5v3h2v2.56h-7.39Z"/><path class="cls-1" d="M617.48,56c4,0,6.13,2.89,6.13,6.54,0,.4-.08,1.16-.08,1.16H614a4,4,0,0,0,4.13,3.83,7,7,0,0,0,4-1.46l1.32,2.43a8.77,8.77,0,0,1-5.56,1.92,7.06,7.06,0,0,1-7.4-7.21C610.49,59,613.35,56,617.48,56Zm2.6,5.67c-.06-1.89-1.22-3-2.68-3a3.35,3.35,0,0,0-3.32,3Z"/><path class="cls-1" d="M269.51,96.45h2.3V82.6h-2.3V79.93h9.18a8.33,8.33,0,0,1,3.24.49,5.87,5.87,0,0,1,3.43,5.66,5.94,5.94,0,0,1-3.65,5.83,9.15,9.15,0,0,1-2.94.38h-3.43v4.16h2.33v2.64h-8.16Zm8.8-7a4.19,4.19,0,0,0,1.95-.38,3.64,3.64,0,0,0,.16-5.86,4,4,0,0,0-2.08-.46h-3v6.7Z"/><path class="cls-1" d="M294.27,85a7.22,7.22,0,1,1,0,14.42c-4.21,0-7.59-3-7.59-7.21A7.25,7.25,0,0,1,294.27,85Zm0,11.5a4.29,4.29,0,1,0-4.11-4.29A4.08,4.08,0,0,0,294.3,96.5Z"/><path class="cls-1" d="M304.53,82.49H302.4V79.93h5.53V94.5c0,1.25.27,1.89,1.41,1.89.37,0,.64,0,.64,0v2.75a9.8,9.8,0,0,1-1.24.08c-2.18,0-4.21-.73-4.21-4.48Z"/><path class="cls-1" d="M311.8,96.53h2V87.89h-2.13V85.33h5.56v11.2h2v2.56H311.8Zm2-16.6h3.46v3h-3.46Z"/><path class="cls-1" d="M328.05,85c2.29,0,5.64.87,5.64,3.3v1.89h-3v-.92c0-.92-1.4-1.35-2.57-1.35a3.89,3.89,0,0,0-4,4.24,4.12,4.12,0,0,0,4.31,4.37,7.27,7.27,0,0,0,4.3-1.67l1.21,2.43a8.74,8.74,0,0,1-5.69,2.13c-4,0-7.59-2.73-7.59-7.18A7.16,7.16,0,0,1,328.05,85Z"/><path class="cls-1" d="M338.36,102a2.56,2.56,0,0,0,2.43-1.6l.38-.86-4.72-11.61H334.8V85.33h6.77v2.56H340l2.52,7a6.07,6.07,0,0,1,.29,1.43h.08a7.15,7.15,0,0,1,.38-1.43l2.48-7h-1.59V85.33h6.51v2.56h-1.57l-5.07,13a5.59,5.59,0,0,1-5.46,3.88,6.31,6.31,0,0,1-3.34-.94l1.1-2.51A3.55,3.55,0,0,0,338.36,102Z"/><path class="cls-1" d="M361.66,88.89v0a4.36,4.36,0,0,1-2.59-4.19c0-3.4,2.86-5.05,6.29-5.05a11.59,11.59,0,0,1,2.54.33l-.81,2.75a6.63,6.63,0,0,0-1.3-.16c-1.78,0-3.21.92-3.21,2.54,0,1.21.62,2.67,2.94,2.67h3.59V85.14h3.4v2.59H375v2.81h-2.49v2.37c0,3.92-2.7,6.51-7.12,6.51s-7.13-2.51-7.13-5.72A5,5,0,0,1,361.66,88.89Zm3.75,7.42c2.24,0,3.7-1.18,3.7-3.59V90.54h-3.8c-2.14,0-3.51,1-3.51,2.86C361.8,95.1,363.2,96.31,365.41,96.31Z"/><path class="cls-1" d="M383.13,96.45h2.29V82.6h-2.29V79.93h13.68v5h-3v-2H389v5.51h6.23v2.84H389v5.18h2.54v2.64h-8.37Z"/><path class="cls-1" d="M398.63,96.53h2V87.89h-2.13V85.33h5.56v11.2h2v2.56h-7.39Zm2-16.6h3.45v3H400.6Z"/><path class="cls-1" d="M407.81,96.53h2v-8a.54.54,0,0,0-.59-.6h-1.54V85.33h3.62c1.21,0,1.78.56,1.78,1.54v.62a3.47,3.47,0,0,1-.06.59h.06A5.52,5.52,0,0,1,418.14,85c2.95,0,4.62,1.6,4.62,5.24v6.29h2v2.56h-5.4V90.94c0-1.67-.46-2.81-2.19-2.81-2.48,0-3.94,2.38-3.94,4.78v3.62h2v2.56h-7.39Z"/><path class="cls-1" d="M433.62,90.59h.86v-.46c0-1.75-1.11-2.37-2.54-2.37a7.62,7.62,0,0,0-3.89,1.32l-1.26-2.38a9.35,9.35,0,0,1,5.45-1.7c3.7,0,5.67,1.92,5.67,5.43v5.51a.52.52,0,0,0,.59.59h1.24v2.56H436.5c-1.27,0-1.75-.67-1.75-1.45v-.17a2.7,2.7,0,0,1,.08-.7h-.05a4.79,4.79,0,0,1-4.35,2.65c-2.35,0-4.56-1.38-4.56-4.19C425.87,91,431.4,90.59,433.62,90.59Zm-2.3,6.26c1.86,0,3.19-2,3.19-3.72v-.46h-.57c-1.35,0-4.62.22-4.62,2.29A1.86,1.86,0,0,0,431.32,96.85Z"/><path class="cls-1" d="M441.34,96.53h2v-8a.55.55,0,0,0-.6-.6H441.2V85.33h3.62c1.22,0,1.78.56,1.78,1.54v.62a4.14,4.14,0,0,1-.05.59h.05A5.53,5.53,0,0,1,451.68,85c2.94,0,4.61,1.6,4.61,5.24v6.29h2v2.56h-5.4V90.94c0-1.67-.46-2.81-2.18-2.81-2.49,0-3.95,2.38-3.95,4.78v3.62h2v2.56h-7.4Z"/><path class="cls-1" d="M467,85c2.3,0,5.64.87,5.64,3.3v1.89h-3v-.92c0-.92-1.4-1.35-2.56-1.35A3.89,3.89,0,0,0,463,92.16a4.12,4.12,0,0,0,4.32,4.37,7.26,7.26,0,0,0,4.29-1.67l1.21,2.43a8.72,8.72,0,0,1-5.69,2.13c-4,0-7.59-2.73-7.59-7.18A7.16,7.16,0,0,1,467,85Z"/><path class="cls-1" d="M474.68,96.53h2V87.89h-2.13V85.33h5.56v11.2h2v2.56h-7.4Zm2-16.6h3.46v3h-3.46Z"/><path class="cls-1" d="M483.86,96.53h2v-8a.54.54,0,0,0-.59-.6h-1.54V85.33h3.62c1.21,0,1.78.56,1.78,1.54v.62a3.47,3.47,0,0,1-.06.59h.06A5.52,5.52,0,0,1,494.2,85c2.94,0,4.62,1.6,4.62,5.24v6.29h2v2.56h-5.4V90.94c0-1.67-.46-2.81-2.19-2.81-2.48,0-3.94,2.38-3.94,4.78v3.62h2v2.56h-7.4Z"/><path class="cls-1" d="M508.3,102c2.1,0,3.88-.92,3.88-3.46v-.86a5.87,5.87,0,0,1,.06-.73h-.06a4.23,4.23,0,0,1-3.83,1.91c-4,0-6.18-3.18-6.18-7S504.3,85,508.27,85c1.65,0,3.51.62,4.26,2.08h.06a1.68,1.68,0,0,1-.06-.46c0-.73.49-1.29,1.57-1.29h3.43v2.56h-1.32a.53.53,0,0,0-.6.54v9.83c0,4.72-3.67,6.5-7.26,6.5a11.05,11.05,0,0,1-4.91-1.19l1.05-2.53A8.87,8.87,0,0,0,508.3,102Zm4-10.07c0-3.13-1.56-4-3.4-4-2.07,0-3.24,1.51-3.24,3.83s1.25,4.19,3.46,4.19C510.7,95.94,512.26,95,512.26,91.89Z"/><path class="cls-2" d="M43.48,80.64a52.32,52.32,0,0,1-4.14-6l-.22-.32c-.91-1.65-1.77-3.33-2.53-5.07-.21-.52-.43-1-.63-1.57A49.56,49.56,0,0,1,32.6,47.06,48.63,48.63,0,0,1,39,25.3a1.39,1.39,0,0,1,.12-.32c1.06-1.7,2.14-3.37,3.34-5-.55-1-1.14-2-1.78-3.19-3.92-7-5.9-10.34-9.84-16.81C26.89,6.6,24.92,10,21,17.1,17.07,24,15.12,27.51,11.27,34.87a62.7,62.7,0,0,1,8-1.64c-.82,2-1.23,3-2.05,5.06C12.56,47.54,8.12,57,3.94,66.42a64.71,64.71,0,0,1,8.31-2.55C8,74.08,4,84.29,0,94.6c21.66-7.48,39.36-7.58,61.07-.19A50.9,50.9,0,0,1,48.55,86,48.66,48.66,0,0,1,43.48,80.64Z"/><path class="cls-3" d="M82.23,25.68A24,24,0,0,0,63.7,34.37l-.12.14a24.11,24.11,0,0,0-5.48,15.3c0,.24,0,.46,0,.68L72.73,37.74l10,8.71,10-8.71,13.66,11.92a23.65,23.65,0,0,0-1.86-9.13A24,24,0,0,0,82.23,25.68Z"/><path class="cls-4" d="M39,25.3a48.63,48.63,0,0,0-6.4,21.76A49.56,49.56,0,0,0,36,67.68c.2.53.42,1,.63,1.57L55.51,52.76c0-.33-.08-.67-.11-1,0-.6-.07-1.23-.07-1.94A26.9,26.9,0,0,1,61.48,32.7l.12-.14a26.88,26.88,0,0,1,45.45,6.9v0q10-4.06,20-8.07c.44-.19.57-.32.34-.83-.81-1.89-1.76-3.76-2.75-5.6-.09-.16-.19-.31-.28-.44Q110.85,2.81,85.36.44A45.06,45.06,0,0,0,70.87,1.57,49,49,0,0,0,43.08,19.2c-.22.26-.41.54-.62.81-1.2,1.6-2.28,3.27-3.34,5A1.39,1.39,0,0,0,39,25.3Z"/><path class="cls-5" d="M72.73,37.74,58.12,50.49c0,.36,0,.71.05,1a24.09,24.09,0,0,0,3.4,10.74c.41.67.76,1.18,1.09,1.64l20-17.47Z"/><path class="cls-6" d="M59.23,63.78a27.07,27.07,0,0,1-3.72-11L36.59,69.25c.76,1.74,1.62,3.42,2.53,5.07l.22.32a52.32,52.32,0,0,0,4.14,6l.73-.63L60.57,65.75l-.08-.1C60.1,65.12,59.7,64.52,59.23,63.78Z"/><path class="cls-7" d="M126.8,67.81q-9.81-4-19.63-7.92h0a26.53,26.53,0,0,1-2.81,5.21,26.89,26.89,0,0,1-43.78.64L44.21,80l-.73.63A48.66,48.66,0,0,0,48.55,86a50.9,50.9,0,0,0,12.52,8.38A49.57,49.57,0,0,0,80.61,99a46.45,46.45,0,0,0,15-1.92,49.26,49.26,0,0,0,24.1-15.7c.43-.5.84-1,1.25-1.55a57.42,57.42,0,0,0,3.68-5.47A51.84,51.84,0,0,0,127.27,69c.06-.19.12-.31.16-.41l.06-.16-.06-.25C127.33,68,127.14,68,126.8,67.81Z"/><path class="cls-8" d="M82.71,46.45l19.16,16.71.28.24a22.89,22.89,0,0,0,2.44-4.54,23.84,23.84,0,0,0,1.76-9v-.15L92.69,37.74Z"/><path class="cls-7" d="M82.71,46.45l-20,17.47.07.09a24.11,24.11,0,0,0,39.34-.48l.08-.13-.28-.24Z"/><path class="cls-1" d="M111.4,93.94h-1.06a.13.13,0,0,1-.13-.13v-.57a.13.13,0,0,1,.13-.13h3a.13.13,0,0,1,.14.13v.57a.13.13,0,0,1-.14.13h-1.06v3.9a.13.13,0,0,1-.13.13h-.64a.14.14,0,0,1-.14-.13Z"/><path class="cls-1" d="M115.35,93.15a.11.11,0,0,1,.12-.11h.11a.13.13,0,0,1,.12.07l1.53,3.28h0l1.53-3.28a.12.12,0,0,1,.12-.07H119a.11.11,0,0,1,.12.11l.82,4.66a.12.12,0,0,1-.13.16h-.63a.15.15,0,0,1-.13-.1l-.41-2.63h0L117.42,98a.13.13,0,0,1-.12.07h-.13a.13.13,0,0,1-.12-.07l-1.22-2.73h0l-.4,2.63a.13.13,0,0,1-.12.1h-.63c-.09,0-.14-.06-.13-.16Z"/><path class="cls-2" d="M236.36,51.09c0-.49,0-1,0-1.47a49.5,49.5,0,0,0-99,0c0,.49,0,1,0,1.47L186.9,71.18Z"/><path class="cls-7" d="M186.9,74.18l-.52-.22-48.76-19.8a49.49,49.49,0,0,0,98.56,0Z"/><path class="cls-9" d="M165.22,77.85a.33.33,0,0,1,.32-.32h2a.32.32,0,0,1,.32.32V82h4.76V77.85a.32.32,0,0,1,.32-.32h2a.33.33,0,0,1,.32.32v11a.33.33,0,0,1-.32.31h-2a.31.31,0,0,1-.32-.31V84.49h-4.76v4.39a.32.32,0,0,1-.32.31h-2a.33.33,0,0,1-.32-.31Z"/><path class="cls-9" d="M184.25,77.36a5.59,5.59,0,0,1,4,1.55.32.32,0,0,1,0,.47L187,80.73a.31.31,0,0,1-.42,0,3.39,3.39,0,0,0-2.25-.85,3.41,3.41,0,0,0,0,6.81,3.5,3.5,0,0,0,2.23-.8.32.32,0,0,1,.43,0l1.3,1.38a.34.34,0,0,1,0,.45,5.74,5.74,0,0,1-4.05,1.62,6,6,0,1,1,0-12Z"/><path class="cls-9" d="M191.3,77.85a.31.31,0,0,1,.31-.32h4a3.72,3.72,0,1,1,0,7.43H193.9v3.92a.33.33,0,0,1-.32.31h-2a.31.31,0,0,1-.31-.31Zm4.18,4.68a1.31,1.31,0,0,0,1.32-1.32A1.27,1.27,0,0,0,195.48,80H193.9v2.55Z"/><path class="cls-9" d="M202.06,77.85a.32.32,0,0,1,.32-.32h6.9a.31.31,0,0,1,.31.32v1.81a.31.31,0,0,1-.31.32h-4.62v2.4h3.8a.33.33,0,0,1,.32.31v1.82a.33.33,0,0,1-.32.32h-3.8v4a.33.33,0,0,1-.32.31h-2a.32.32,0,0,1-.32-.31Z"/><path class="cls-9" d="M170,53.43a17,17,0,0,0,.25,2.62c.52,1.67,1.86,1.56,2,.5.08-.54.21-5,.4-8.39l1.14,0,1.08,0c.18,3.38.31,7.85.4,8.39.16,1.06,1.5,1.17,2-.5a73.94,73.94,0,0,0,.42-8,7.82,7.82,0,0,0,1.7-.18c.46-.23-.74-6.32-1.28-9.13A51.49,51.49,0,0,1,178,30l.71,2.15h0l1.67,4.6h0a1.76,1.76,0,0,0,1.26.81c.35,0,1.15-.28.81-1.66-.07-.29-.25-.93-.49-1.76h0L181.63,33v0l1.43-4.51.36,8.06c0,1.74,0,19.56.55,21.26s2,1.69,2.2.54.54-16.44,1.2-17h0a.69.69,0,0,1,.86,0h0c.67.54,1,15.84,1.21,17s1.62,1.27,2.2-.54.51-19.49.51-21.26l.36-8.06L194.29,34l0,.08c-.62,2.06-1.19,3.91-1.19,3.91-.38,1.3.19,2.11.78,2.11s.88-1.18.88-1.18l.67-2.1.88-2.87c.1,1.41.19,2.57.19,2.57l.17,3.87s0,14.37.45,15.83,1.64,1.37,1.78.44.45-11.6,1-12h0a.56.56,0,0,1,.69,0h0c.54.44.83,11.11,1,12s1.32,1,1.78-.44a16.34,16.34,0,0,0,.25-2.76l.08-2.55c.11-4.62.09-10.52.09-10.52l.3-6.56,1.61,5.09s.3,1.18.89,1.18,1.16-.81.78-2.11c0,0-2.45-8.47-2.89-9.4a3.2,3.2,0,0,0-1.75-1.52l-.79-.28a4.17,4.17,0,0,0,.37-.26l.15-.12a3.58,3.58,0,0,0,1.19-2.69v-.11a3.29,3.29,0,0,0-.88-3.12c-.4-.34-.69-.11-.69-.11-.17-.75-1.84-1-2.93-.75a3.21,3.21,0,0,0-2.41,2.64,3.3,3.3,0,0,0,.13,1.64A3.59,3.59,0,0,0,198,26.37l.17.14a2.83,2.83,0,0,0,.28.2l-.71.34A3.12,3.12,0,0,0,196,28.57a2.07,2.07,0,0,0-.11.27h0c-.07.26-.2.67-.35,1.19l0-.07c-.93-3.13-2.18-7.29-2.51-8a4,4,0,0,0-2.57-2l-.79-.26a3.56,3.56,0,0,0,.48-.39,3.94,3.94,0,0,0,1.11-2.09c.59-.63.47-1.7.07-3.07-.45-1.57-1.5-1.24-1.5-1.24s-.27-.72-2.23-.89-3.43,1.91-3.55,2.73a6,6,0,0,0,.26,2,4,4,0,0,0,1.16,2.51,3.56,3.56,0,0,0,.48.39l-.78.26a4,4,0,0,0-2.56,2c-.29.61-1.3,3.92-2.17,6.84h0l-.36-1.2h0c-.51-1.68-.93-3-1.06-3.33s-.85-.68-1.57-.89c0-.76,0-2,0-2.6.08-1,.47-2.81-.47-4a3.19,3.19,0,0,0-4.52-.81,2.49,2.49,0,0,0-2.24,2.82c0,1,.21,2.24.24,3.22a4.91,4.91,0,0,0,0,.53s0,.42,0,.73c-.8.22-1.63.54-1.81,1-.37.86-3.13,10.22-3.47,11.6s.46,1.66.8,1.66a2,2,0,0,0,1.61-1.49c.4-1.15,2-6.09,2-6.09a50.76,50.76,0,0,1-.19,8.79c-.53,2.81-1.73,8.9-1.27,9.13a7.87,7.87,0,0,0,1.62.18c0,.89.05,1.84.08,2.75Z"/></svg>