<svg xmlns="http://www.w3.org/2000/svg" viewBox="0 0 664.6 154.78"><defs><style>.cls-3{fill:#ba4896}</style><linearGradient id="linear-gradient" x1="659.04" y1="52.85" x2="644.35" y2="38.16" gradientUnits="userSpaceOnUse"><stop offset=".2" stop-color="#ba4896"/><stop offset=".42" stop-color="#b74693"/><stop offset=".61" stop-color="#ad418b"/><stop offset=".77" stop-color="#9c397e"/><stop offset=".93" stop-color="#842c6b"/><stop offset="1" stop-color="#76255f"/></linearGradient><linearGradient id="linear-gradient-2" x1="586.52" y1="34.27" x2="601.21" y2="48.96" gradientUnits="userSpaceOnUse"><stop offset=".2" stop-color="#ba4896"/><stop offset=".43" stop-color="#b74693"/><stop offset=".61" stop-color="#ad418b"/><stop offset=".77" stop-color="#9c397e"/><stop offset=".93" stop-color="#842c6b"/><stop offset="1" stop-color="#76255f"/></linearGradient></defs><g id="Layer_2" data-name="Layer 2"><g id="Layer_2-2" data-name="Layer 2"><path d="M35.34 135.21C14.53 135.21 0 121.32 0 101.43s14.53-33.78 35.34-33.78a34 34 0 0 1 19.45 5.62 2.93 2.93 0 0 1 1.14 4.09l-.66 1.22a3 3 0 0 1-1.78 1.59 3.19 3.19 0 0 1-2.49-.42 31.13 31.13 0 0 0-15.68-4.33c-15.75 0-26.74 10.7-26.74 26s11 26 26.74 26a31 31 0 0 0 15.68-4.3 3.21 3.21 0 0 1 2.49-.42 3 3 0 0 1 1.78 1.58l.64 1.2c1 2.18.2 3.29-.67 3.85a33.86 33.86 0 0 1-19.9 5.88zm49.32 0a24.55 24.55 0 1 1 24.78-24.5 24.57 24.57 0 0 1-24.78 24.5zm0-41.6c-9 0-16.27 7.71-16.27 17.19 0 9.33 7.3 16.92 16.27 16.92a16.71 16.71 0 0 0 16.46-16.92c0-9.48-7.38-17.19-16.46-17.19zM187.5 134.2h-2.11a2.81 2.81 0 0 1-3-3.1v-23.51c0-12.17-6.8-14-10.85-14-1.32 0-12.9.47-13.43 17v20.51a2.88 2.88 0 0 1-3.11 3.1h-2.11a2.86 2.86 0 0 1-3-3.1v-23.51c0-12.17-6.8-14-10.86-14-1.36 0-13.32.49-13.42 17.75v19.76a2.88 2.88 0 0 1-3.11 3.1h-2.11a2.86 2.86 0 0 1-3-3.1V90.23a2.9 2.9 0 0 1 3-3.11h2.11a2.88 2.88 0 0 1 3.11 3.11v4.13c3.3-6 9.68-8.25 14.62-8.25 5.25 0 12.09 1.75 15.65 9.8a17.21 17.21 0 0 1 16-9.8c8.53 0 18.71 3.73 18.71 21.48v23.51a2.88 2.88 0 0 1-3.09 3.1zm84.13 0h-2.12a2.81 2.81 0 0 1-3-3.1v-23.51c0-12.17-6.8-14-10.86-14-1.31 0-12.9.47-13.42 17v20.51a2.88 2.88 0 0 1-3.11 3.1H237a2.86 2.86 0 0 1-3-3.1v-23.51c0-12.17-6.8-14-10.86-14-1.36 0-13.32.49-13.43 17.75v19.76a2.88 2.88 0 0 1-3.1 3.1h-2.11a2.87 2.87 0 0 1-3-3.1V90.23a2.9 2.9 0 0 1 3-3.11h2.11a2.88 2.88 0 0 1 3.1 3.11v4.13c3.31-6 9.69-8.25 14.62-8.25 5.26 0 12.1 1.75 15.66 9.8a17.2 17.2 0 0 1 16-9.8c8.54 0 18.72 3.73 18.72 21.48v23.51a2.88 2.88 0 0 1-3.08 3.1zm35.6 1.01a24.55 24.55 0 1 1 24.77-24.5 24.57 24.57 0 0 1-24.77 24.5zm0-41.6c-9 0-16.27 7.71-16.27 17.19 0 9.33 7.3 16.92 16.27 16.92a16.71 16.71 0 0 0 16.46-16.92c0-9.48-7.38-17.19-16.46-17.19zm71.98 40.59h-2.11a2.88 2.88 0 0 1-3.11-3.1v-23.51c0-12.17-6.86-14-10.95-14-5.11 0-14.81 3.71-14.89 17.75v19.76a2.88 2.88 0 0 1-3.11 3.1h-2.11a2.86 2.86 0 0 1-3-3.1V90.23a2.9 2.9 0 0 1 3-3.11H345a2.88 2.88 0 0 1 3.11 3.11v4.32c2.94-5.27 8.58-8.44 15.35-8.44 5.66 0 18.81 2.1 18.81 21.48v23.51a2.88 2.88 0 0 1-3.06 3.1zm34.09 1.01c-10.51 0-19.31-5-23-13a2.61 2.61 0 0 1-.16-2.27 3.13 3.13 0 0 1 2.11-1.63l2.23-.55c2.13-.53 3.12.72 3.73 1.87 2.08 3.83 7.08 7.94 14.88 7.94 8.5 0 14.44-4.39 14.44-10.68s-6.3-9.39-10.05-10.71l-10.28-3.48c-9.85-3.19-14.85-8.92-14.85-17 0-11.81 10.57-18 21-18 9.85 0 17.45 4.69 20.33 12.54a2.87 2.87 0 0 1 0 2.27 3.24 3.24 0 0 1-2 1.57l-1.95.55c-1.71.54-3-.1-3.77-1.91-1.92-4.61-6.53-7.25-12.66-7.25-5.93 0-12.32 3.14-12.32 10 0 3 1 6.78 8.86 9.61l10.38 3.67c9.56 3.07 15.75 10 15.75 17.67.03 11.23-9.11 18.79-22.67 18.79zm36.11 19.57h-2.11a2.87 2.87 0 0 1-3-3.11V90.23a2.87 2.87 0 0 1 3-3.11h2.11a2.88 2.88 0 0 1 3.11 3.11v4.45a20.69 20.69 0 0 1 17.28-8.57c13.67 0 23.59 10.35 23.59 24.6s-9.88 24.5-23.49 24.5a20.76 20.76 0 0 1-17.38-8.55v25a2.88 2.88 0 0 1-3.11 3.12zm19.66-61.17c-9.76 0-16.64 7-16.73 17.1.09 10 7 17 16.73 17 11.05 0 16-8.54 16-17 0-10.07-6.58-17.1-16-17.1zm38.26 40.59h-2.11a2.88 2.88 0 0 1-3.1-3.1V90.23a2.94 2.94 0 0 1 3.1-3.11h2.11a2.87 2.87 0 0 1 3 3.11v40.87a2.86 2.86 0 0 1-3 3.1zm19.38 0h-2.12a2.86 2.86 0 0 1-3-3.1V90.23a2.9 2.9 0 0 1 3-3.11h2.12a2.88 2.88 0 0 1 3.1 3.11V96c2.45-5.61 7-8.86 12.78-8.86a20.75 20.75 0 0 1 2.3.19c2.19.44 2.19 1.56 2.19 2.37v1.93c0 1.22-.3 3.07-.9 3.51a1.86 1.86 0 0 1-1.75.2c-.72-.06-1.6-.15-2.3-.15-2.86 0-12.21 1.58-12.32 22v14a2.88 2.88 0 0 1-3.1 3.01zm32.11 0h-2.11a2.88 2.88 0 0 1-3.11-3.1V90.23a2.94 2.94 0 0 1 3.11-3.11h2.11a2.87 2.87 0 0 1 3 3.11v40.87a2.86 2.86 0 0 1-3 3.1zm40.97-47.08h-10.5V74.94a2.59 2.59 0 0 0-2.83-2.74h-2.67a2.59 2.59 0 0 0-2.79 2.74v12.18h-10.5a2 2 0 0 0-2.1 2.1v2.66a1.92 1.92 0 0 0 2.1 2.09H581v37.13a2.86 2.86 0 0 0 3 3.1h2.29a2.86 2.86 0 0 0 3-3.1V94h10.5a1.93 1.93 0 0 0 2.1-2.09v-2.69a2 2 0 0 0-2.1-2.1z" fill="#8f9397"/><path d="M636 48.38h2.83A27.34 27.34 0 0 1 651 51.24a8.84 8.84 0 0 0 7 1 9 9 0 0 0-2.42-17.61c-9.57 0-18.55 10-19.61 13.77z" fill="url(#linear-gradient)"/><path class="cls-3" d="M642.9 34.83q-1.64.36-3.24.87a38.29 38.29 0 0 0-6.1 2.54 38.79 38.79 0 0 0-10.37 7.85 38.3 38.3 0 0 0-7.51 11.53 43.29 43.29 0 0 0-3.14 15.49 18.93 18.93 0 0 0 1.32 8.25 9.81 9.81 0 0 0 9.7 5.73h.52a10.13 10.13 0 0 0 8.68-11.61 29.59 29.59 0 0 0-2.32-6c-5.76-13.68 1.5-29.92 15.33-35a3.81 3.81 0 0 1 .44-.15s-2.21.26-3.31.5zm-40.23 17.46c1.09-.24 2.17-.53 3.23-.87a38.29 38.29 0 0 0 6.1-2.54 38.89 38.89 0 0 0 17.89-19.38A43.5 43.5 0 0 0 633 14a19.1 19.1 0 0 0-1.31-8.25A9.82 9.82 0 0 0 622 0l-.52.05a10.14 10.14 0 0 0-8.68 11.61 30.31 30.31 0 0 0 2.33 6c5.75 13.67-1.51 29.91-15.34 35l-.44.15s2.24-.27 3.32-.52z"/><path d="M609.54 38.74h-2.82a27.35 27.35 0 0 1-12.18-2.86 8.8 8.8 0 0 0-7-1 9 9 0 0 0 2.42 17.6c9.57 0 18.56-10 19.61-13.77z" fill="url(#linear-gradient-2)"/><path class="cls-3" d="M638.37 82a5.1 5.1 0 0 1 1.48-3.68 5.07 5.07 0 0 1 7.26 0 5.06 5.06 0 0 1 1.48 3.68 5.14 5.14 0 0 1-1.48 3.7 5.12 5.12 0 0 1-7.26 0 5.18 5.18 0 0 1-1.48-3.7zm8.23 3.19a4.62 4.62 0 0 0 0-6.38 4.38 4.38 0 0 0-6.25 0 4.64 4.64 0 0 0 0 6.38 4.38 4.38 0 0 0 6.25 0zm-2.05-.65l-1-2h-.9v2h-.81v-5.17h2a1.55 1.55 0 0 1 1.58 1.63 1.46 1.46 0 0 1-1.13 1.5l1.18 2zm-1.92-2.61h1.13a.82.82 0 0 0 .82-.9.87.87 0 0 0-.82-1h-1.13z"/></g></g></svg>