<svg id="Layer_1" data-name="Layer 1" xmlns="http://www.w3.org/2000/svg" viewBox="0 0 401.12 66.02"><defs><style>.cls-1{fill:#014156;}.cls-2{fill:#e35e64;}</style></defs><path class="cls-1" d="M238.68,25.42a6.86,6.86,0,0,1-2-.27,3.12,3.12,0,0,1-1.47-1A5.23,5.23,0,0,1,234.3,22a17.39,17.39,0,0,1-.3-3.6,15.63,15.63,0,0,1,.31-3.45,5.17,5.17,0,0,1,.92-2.11,3.19,3.19,0,0,1,1.49-1.06,6.27,6.27,0,0,1,2-.3,12.5,12.5,0,0,1,1.51.09c.49.07.94.14,1.36.23s.78.18,1.09.27v1.77a6.78,6.78,0,0,0-.85-.14c-.37-.05-.78-.08-1.24-.11s-.94,0-1.43,0a4.34,4.34,0,0,0-1.39.2,1.8,1.8,0,0,0-.93.71,3.92,3.92,0,0,0-.51,1.48,16.82,16.82,0,0,0-.16,2.51,16.67,16.67,0,0,0,.15,2.48,4,4,0,0,0,.48,1.5,1.75,1.75,0,0,0,.9.73,4.24,4.24,0,0,0,1.44.2c.89,0,1.61,0,2.18-.06s1-.09,1.36-.14v1.76a9.05,9.05,0,0,1-1.13.26,12.44,12.44,0,0,1-1.34.18C239.75,25.4,239.24,25.42,238.68,25.42Z" transform="translate(-11.13 -11.49)"/><path class="cls-1" d="M252.93,25.42a8.62,8.62,0,0,1-2.29-.27,3.28,3.28,0,0,1-1.64-1,4.39,4.39,0,0,1-1-2.09,15.72,15.72,0,0,1-.33-3.58,16,16,0,0,1,.33-3.6,4.87,4.87,0,0,1,1-2.12,3.36,3.36,0,0,1,1.65-1,8.15,8.15,0,0,1,2.27-.28,8.4,8.4,0,0,1,2.31.28,3.36,3.36,0,0,1,1.65,1,4.87,4.87,0,0,1,1,2.12,16.67,16.67,0,0,1,.32,3.6,16.4,16.4,0,0,1-.32,3.58,4.58,4.58,0,0,1-1,2.09,3.35,3.35,0,0,1-1.65,1A8.69,8.69,0,0,1,252.93,25.42Zm0-2.06a4.68,4.68,0,0,0,1.45-.19,1.77,1.77,0,0,0,1-.71,3.45,3.45,0,0,0,.51-1.46,15.35,15.35,0,0,0,.16-2.5,15.11,15.11,0,0,0-.17-2.6,3.68,3.68,0,0,0-.52-1.49,1.66,1.66,0,0,0-.93-.68,5,5,0,0,0-1.45-.18,4.76,4.76,0,0,0-1.4.18,1.69,1.69,0,0,0-.94.68,3.53,3.53,0,0,0-.54,1.49,15,15,0,0,0-.18,2.6A16.77,16.77,0,0,0,250,21a3.6,3.6,0,0,0,.5,1.46,1.77,1.77,0,0,0,.95.71A4.7,4.7,0,0,0,252.93,23.36Z" transform="translate(-11.13 -11.49)"/><path class="cls-1" d="M263.12,25.31l1.51-13.69h2.12l3.16,11,3.15-11h2.12l1.53,13.69h-2.12l-1.2-10.76.35,0-2.82,10.72h-2.05L266,14.59l.38,0-1.15,10.74Z" transform="translate(-11.13 -11.49)"/><path class="cls-1" d="M282,25.31l1.5-13.69h2.13l3.16,11,3.14-11H294l1.54,13.69h-2.12l-1.2-10.76.35,0-2.82,10.72h-2.05l-2.87-10.72.37,0-1.14,10.74Z" transform="translate(-11.13 -11.49)"/><path class="cls-1" d="M305.71,25.42a8.72,8.72,0,0,1-2.29-.27,3.32,3.32,0,0,1-1.64-1,4.58,4.58,0,0,1-1-2.09,15.72,15.72,0,0,1-.33-3.58,15.9,15.9,0,0,1,.34-3.6,4.77,4.77,0,0,1,1-2.12,3.38,3.38,0,0,1,1.64-1,8.2,8.2,0,0,1,2.27-.28,8.42,8.42,0,0,1,2.32.28,3.29,3.29,0,0,1,1.64,1,4.76,4.76,0,0,1,1,2.12,16,16,0,0,1,.33,3.6,15.72,15.72,0,0,1-.33,3.58,4.58,4.58,0,0,1-1,2.09,3.32,3.32,0,0,1-1.64,1A8.72,8.72,0,0,1,305.71,25.42Zm0-2.06a4.7,4.7,0,0,0,1.46-.19,1.77,1.77,0,0,0,.95-.71,3.75,3.75,0,0,0,.51-1.46,15.35,15.35,0,0,0,.16-2.5,16.2,16.2,0,0,0-.17-2.6,3.84,3.84,0,0,0-.52-1.49,1.69,1.69,0,0,0-.94-.68,5,5,0,0,0-1.45-.18,4.74,4.74,0,0,0-1.39.18,1.71,1.71,0,0,0-.95.68,3.82,3.82,0,0,0-.54,1.49,15.11,15.11,0,0,0-.17,2.6,16.77,16.77,0,0,0,.15,2.5,3.45,3.45,0,0,0,.5,1.46,1.79,1.79,0,0,0,.94.71A4.79,4.79,0,0,0,305.71,23.36Z" transform="translate(-11.13 -11.49)"/><path class="cls-1" d="M316.76,25.31V11.62h1.75l5.94,9.78V11.62h2.19V25.31h-1.75L319,15.54v9.77Z" transform="translate(-11.13 -11.49)"/><path class="cls-1" d="M238.19,51.4c-.32,0-.66,0-1,0s-.72-.05-1.09-.1L235,51.15a8.64,8.64,0,0,1-.89-.15V49.2l1.16.07c.44,0,.9,0,1.39.06l1.39,0a5.34,5.34,0,0,0,1.26-.14,1.64,1.64,0,0,0,.85-.5,1.48,1.48,0,0,0,.3-1v-.65A1.5,1.5,0,0,0,240.1,46a1.55,1.55,0,0,0-1.15-.39h-1.22a4.1,4.1,0,0,1-2.75-.82,3.49,3.49,0,0,1-1-2.8v-.7a3.55,3.55,0,0,1,1-2.87,4.56,4.56,0,0,1,3-.88,13.34,13.34,0,0,1,1.39.07c.48,0,.93.09,1.37.15s.81.13,1.11.21v1.8c-.52,0-1.11-.08-1.77-.11s-1.28-.06-1.85-.06a4.18,4.18,0,0,0-1.18.15,1.34,1.34,0,0,0-.78.53,1.91,1.91,0,0,0-.27,1.12v.44a1.48,1.48,0,0,0,.45,1.23,2.12,2.12,0,0,0,1.3.35h1.36a3.57,3.57,0,0,1,1.89.45A2.7,2.7,0,0,1,242.21,45a4.13,4.13,0,0,1,.36,1.76v.87A4.11,4.11,0,0,1,242,50a2.83,2.83,0,0,1-1.56,1.12A7.8,7.8,0,0,1,238.19,51.4Z" transform="translate(-11.13 -11.49)"/><path class="cls-1" d="M251.23,51.39a5.5,5.5,0,0,1-.94-.09,2.64,2.64,0,0,1-1-.37,2.11,2.11,0,0,1-.78-.86,3.44,3.44,0,0,1-.3-1.58v-7.9a3.68,3.68,0,0,1,.25-1.46,2.27,2.27,0,0,1,.66-.92,2.51,2.51,0,0,1,.92-.47,3.83,3.83,0,0,1,1-.14c.82,0,1.56,0,2.22,0l1.81.07,1.53.1v1.91h-4.93a1.33,1.33,0,0,0-.94.31,1.28,1.28,0,0,0-.35,1v2.43l5.43.13v1.8l-5.43.12v2.36a1.53,1.53,0,0,0,.19.85.91.91,0,0,0,.48.41,1.52,1.52,0,0,0,.6.11h5v1.92l-1.69.12-1.87.07Z" transform="translate(-11.13 -11.49)"/><path class="cls-1" d="M266.59,51.4a6.93,6.93,0,0,1-2-.27,3,3,0,0,1-1.46-1,5.09,5.09,0,0,1-.9-2.12,17.39,17.39,0,0,1-.3-3.6,16.26,16.26,0,0,1,.31-3.45,5.3,5.3,0,0,1,.92-2.11,3.22,3.22,0,0,1,1.5-1.06,6.2,6.2,0,0,1,2-.3,12.38,12.38,0,0,1,1.51.09c.49.07.94.14,1.36.23a9,9,0,0,1,1.09.28v1.76a6.47,6.47,0,0,0-.85-.14c-.37,0-.78-.08-1.24-.11s-.93,0-1.43,0a4.39,4.39,0,0,0-1.39.2,1.74,1.74,0,0,0-.92.71,3.75,3.75,0,0,0-.52,1.48,17,17,0,0,0-.15,2.51,16.91,16.91,0,0,0,.15,2.49,4,4,0,0,0,.47,1.49,1.7,1.7,0,0,0,.9.73,4.29,4.29,0,0,0,1.44.21c.89,0,1.61,0,2.18-.07s1-.09,1.36-.14V50.9a9.3,9.3,0,0,1-1.12.26,13,13,0,0,1-1.35.18C267.66,51.38,267.14,51.4,266.59,51.4Z" transform="translate(-11.13 -11.49)"/><path class="cls-1" d="M280.9,51.39a9.51,9.51,0,0,1-2-.2,4.08,4.08,0,0,1-1.6-.69,3.09,3.09,0,0,1-1-1.35,5.79,5.79,0,0,1-.36-2.22V37.6h2.17v9.33a2.55,2.55,0,0,0,.34,1.42,1.72,1.72,0,0,0,1,.75,5.07,5.07,0,0,0,3,0,1.78,1.78,0,0,0,1-.75,2.64,2.64,0,0,0,.33-1.42V37.6h2.18v9.33a5.77,5.77,0,0,1-.37,2.22,3,3,0,0,1-1,1.35,4.12,4.12,0,0,1-1.58.69A9.64,9.64,0,0,1,280.9,51.39Z" transform="translate(-11.13 -11.49)"/><path class="cls-1" d="M291.68,51.29V37.6H297a5,5,0,0,1,1.37.18,2.73,2.73,0,0,1,1.15.64,3.16,3.16,0,0,1,.8,1.29,6.65,6.65,0,0,1,.29,2.14,6.24,6.24,0,0,1-.2,1.7,3.41,3.41,0,0,1-.51,1.1,2.31,2.31,0,0,1-.71.66,5.16,5.16,0,0,1-.79.38l2.51,5.6h-2.21L296.42,46h-1.26l-.69,0h-.62v5.3Zm2.17-7.1h2.76a2.59,2.59,0,0,0,.71-.1,1.28,1.28,0,0,0,.56-.37,1.52,1.52,0,0,0,.38-.7,4,4,0,0,0,.14-1.15,3.83,3.83,0,0,0-.14-1.12,1.36,1.36,0,0,0-.95-1,2.63,2.63,0,0,0-.7-.09h-2.76Z" transform="translate(-11.13 -11.49)"/><path class="cls-1" d="M306.17,51.29V37.6h2.18V51.29Z" transform="translate(-11.13 -11.49)"/><path class="cls-1" d="M317.13,51.29V39.66h-3.75V37.6h9.67v2.06h-3.73V51.29Z" transform="translate(-11.13 -11.49)"/><path class="cls-1" d="M328.09,51.29V37.6h2.17V51.29Z" transform="translate(-11.13 -11.49)"/><path class="cls-1" d="M335.72,51.29V49.44l6-9.78h-6V37.6h8.69v1.84l-6,9.79h6v2.06Z" transform="translate(-11.13 -11.49)"/><path class="cls-1" d="M349,51.29l4.24-13.69H356l4.24,13.69H358l-1-3.24h-4.72l-1,3.24Zm3.74-5.3h3.68l-1.84-6.42Z" transform="translate(-11.13 -11.49)"/><path class="cls-1" d="M367.32,51.29V39.66h-3.75V37.6h9.67v2.06h-3.73V51.29Z" transform="translate(-11.13 -11.49)"/><path class="cls-1" d="M378.27,51.29V37.6h2.18V51.29Z" transform="translate(-11.13 -11.49)"/><path class="cls-1" d="M391.33,51.4a9.19,9.19,0,0,1-2.29-.26,3.42,3.42,0,0,1-1.64-1,4.59,4.59,0,0,1-1-2.08,15.88,15.88,0,0,1-.33-3.59,15.9,15.9,0,0,1,.34-3.6,4.82,4.82,0,0,1,1-2.12,3.45,3.45,0,0,1,1.64-1,8.2,8.2,0,0,1,2.27-.28,8.42,8.42,0,0,1,2.32.28,3.4,3.4,0,0,1,1.64,1,4.81,4.81,0,0,1,1,2.12,16,16,0,0,1,.33,3.6,15.88,15.88,0,0,1-.33,3.59,4.59,4.59,0,0,1-1,2.08,3.42,3.42,0,0,1-1.64,1A9.25,9.25,0,0,1,391.33,51.4Zm0-2a4.68,4.68,0,0,0,1.46-.2,1.85,1.85,0,0,0,.95-.7,3.8,3.8,0,0,0,.51-1.47,16.58,16.58,0,0,0,.16-2.5,16.2,16.2,0,0,0-.17-2.6,3.84,3.84,0,0,0-.52-1.49,1.74,1.74,0,0,0-.94-.68,5,5,0,0,0-1.45-.18,4.74,4.74,0,0,0-1.39.18,1.76,1.76,0,0,0-.95.68,3.82,3.82,0,0,0-.54,1.49,15.11,15.11,0,0,0-.17,2.6,16.77,16.77,0,0,0,.15,2.5,3.5,3.5,0,0,0,.5,1.47,1.78,1.78,0,0,0,.94.7A4.72,4.72,0,0,0,391.33,49.35Z" transform="translate(-11.13 -11.49)"/><path class="cls-1" d="M402.38,51.29V37.6h1.75l5.93,9.78V37.6h2.2V51.29h-1.75l-5.94-9.77v9.77Z" transform="translate(-11.13 -11.49)"/><path class="cls-1" d="M238.19,77.39l-1,0-1.09-.09L235,77.14c-.33,0-.63-.1-.89-.16v-1.8l1.16.07c.44,0,.9,0,1.39.06l1.39,0a5.34,5.34,0,0,0,1.26-.14,1.7,1.7,0,0,0,.85-.49,1.52,1.52,0,0,0,.3-1V73a1.5,1.5,0,0,0-.39-1.11,1.55,1.55,0,0,0-1.15-.39h-1.22a4.16,4.16,0,0,1-2.75-.81,3.53,3.53,0,0,1-1-2.81v-.7a3.56,3.56,0,0,1,1-2.87,4.62,4.62,0,0,1,3-.88,13.34,13.34,0,0,1,1.39.07c.48,0,.93.09,1.37.15s.81.13,1.11.21v1.8c-.52,0-1.11-.08-1.77-.11s-1.28-.06-1.85-.06a4.18,4.18,0,0,0-1.18.15,1.34,1.34,0,0,0-.78.53,1.93,1.93,0,0,0-.27,1.12v.45a1.45,1.45,0,0,0,.45,1.22,2.05,2.05,0,0,0,1.3.35h1.36a3.57,3.57,0,0,1,1.89.45A2.7,2.7,0,0,1,242.21,71a4.13,4.13,0,0,1,.36,1.76v.87A4.17,4.17,0,0,1,242,76a2.86,2.86,0,0,1-1.56,1.11A7.78,7.78,0,0,1,238.19,77.39Z" transform="translate(-11.13 -11.49)"/><path class="cls-1" d="M253.12,77.39a8.72,8.72,0,0,1-2.29-.27,3.42,3.42,0,0,1-1.64-1,4.59,4.59,0,0,1-1-2.08,15.84,15.84,0,0,1-.33-3.58,15.37,15.37,0,0,1,.34-3.61,4.82,4.82,0,0,1,1-2.12,3.45,3.45,0,0,1,1.64-1,8.54,8.54,0,0,1,2.27-.28,8.88,8.88,0,0,1,2.32.28,3.4,3.4,0,0,1,1.64,1,4.81,4.81,0,0,1,1,2.12,16,16,0,0,1,.33,3.61,15.84,15.84,0,0,1-.33,3.58,4.59,4.59,0,0,1-1,2.08,3.42,3.42,0,0,1-1.64,1A8.83,8.83,0,0,1,253.12,77.39Zm0-2.06a4.72,4.72,0,0,0,1.46-.2,1.78,1.78,0,0,0,.94-.7A3.64,3.64,0,0,0,256,73a16.53,16.53,0,0,0,.16-2.49,16.25,16.25,0,0,0-.17-2.61,3.78,3.78,0,0,0-.52-1.48,1.7,1.7,0,0,0-.94-.69,5,5,0,0,0-1.45-.18,4.69,4.69,0,0,0-1.39.18,1.73,1.73,0,0,0-.95.69,3.77,3.77,0,0,0-.54,1.48,15,15,0,0,0-.18,2.61,16.72,16.72,0,0,0,.15,2.49,3.5,3.5,0,0,0,.51,1.47,1.78,1.78,0,0,0,.94.7A4.72,4.72,0,0,0,253.12,75.33Z" transform="translate(-11.13 -11.49)"/><path class="cls-1" d="M266.94,77.27a3.81,3.81,0,0,1-1.58-.29,2,2,0,0,1-1-1,4.09,4.09,0,0,1-.33-1.79V63.58h2.17V73.84a1.65,1.65,0,0,0,.18.83.93.93,0,0,0,.46.42,1.93,1.93,0,0,0,.65.11h4.33v2.07Z" transform="translate(-11.13 -11.49)"/><path class="cls-1" d="M281.54,77.37a9.61,9.61,0,0,1-2-.2,4.24,4.24,0,0,1-1.59-.68,3.1,3.1,0,0,1-1-1.36,5.59,5.59,0,0,1-.37-2.22V63.58h2.18v9.33a2.64,2.64,0,0,0,.33,1.42,1.84,1.84,0,0,0,1,.76,5.29,5.29,0,0,0,3,0,1.78,1.78,0,0,0,1-.76,2.55,2.55,0,0,0,.34-1.42V63.58h2.17v9.33a5.79,5.79,0,0,1-.36,2.22,3.18,3.18,0,0,1-1,1.36,4.24,4.24,0,0,1-1.59.68A9.47,9.47,0,0,1,281.54,77.37Z" transform="translate(-11.13 -11.49)"/><path class="cls-1" d="M295.13,77.27V65.64h-3.75V63.58h9.67v2.06h-3.73V77.27Z" transform="translate(-11.13 -11.49)"/><path class="cls-1" d="M306.08,77.27V63.58h2.18V77.27Z" transform="translate(-11.13 -11.49)"/><path class="cls-1" d="M319.14,77.39a8.72,8.72,0,0,1-2.29-.27,3.42,3.42,0,0,1-1.64-1,4.59,4.59,0,0,1-1-2.08,19.46,19.46,0,0,1,0-7.19,4.82,4.82,0,0,1,1-2.12,3.45,3.45,0,0,1,1.64-1,8.59,8.59,0,0,1,2.27-.28,8.83,8.83,0,0,1,2.32.28,3.36,3.36,0,0,1,1.64,1,4.81,4.81,0,0,1,1,2.12,16,16,0,0,1,.33,3.61,15.84,15.84,0,0,1-.33,3.58,4.59,4.59,0,0,1-1,2.08,3.42,3.42,0,0,1-1.64,1A8.72,8.72,0,0,1,319.14,77.39Zm0-2.06a4.68,4.68,0,0,0,1.46-.2,1.81,1.81,0,0,0,.95-.7,3.8,3.8,0,0,0,.51-1.47,15.3,15.3,0,0,0,.16-2.49,16.25,16.25,0,0,0-.17-2.61,3.78,3.78,0,0,0-.52-1.48,1.7,1.7,0,0,0-.94-.69,5,5,0,0,0-1.45-.18,4.74,4.74,0,0,0-1.39.18,1.73,1.73,0,0,0-.95.69,3.77,3.77,0,0,0-.54,1.48,15.17,15.17,0,0,0-.17,2.61,16.72,16.72,0,0,0,.15,2.49,3.5,3.5,0,0,0,.5,1.47,1.78,1.78,0,0,0,.94.7A4.77,4.77,0,0,0,319.14,75.33Z" transform="translate(-11.13 -11.49)"/><path class="cls-1" d="M330.19,77.27V63.58h1.75l5.94,9.78V63.58h2.19V77.27h-1.75l-5.94-9.77v9.77Z" transform="translate(-11.13 -11.49)"/><path class="cls-1" d="M349.75,77.39l-1,0-1.09-.09-1.05-.13c-.33,0-.63-.1-.89-.16v-1.8l1.16.07c.44,0,.91,0,1.39.06l1.39,0a5.27,5.27,0,0,0,1.26-.14,1.7,1.7,0,0,0,.85-.49,1.52,1.52,0,0,0,.3-1V73a1.5,1.5,0,0,0-.39-1.11,1.55,1.55,0,0,0-1.15-.39h-1.22a4.18,4.18,0,0,1-2.75-.81,3.53,3.53,0,0,1-1-2.81v-.7a3.56,3.56,0,0,1,1.05-2.87,4.62,4.62,0,0,1,3-.88,13.34,13.34,0,0,1,1.39.07c.48,0,.93.09,1.37.15s.81.13,1.11.21v1.8c-.51,0-1.11-.08-1.77-.11s-1.28-.06-1.85-.06a4.18,4.18,0,0,0-1.18.15,1.37,1.37,0,0,0-.78.53,1.93,1.93,0,0,0-.26,1.12v.45a1.45,1.45,0,0,0,.45,1.22,2,2,0,0,0,1.3.35h1.36a3.62,3.62,0,0,1,1.89.45,2.74,2.74,0,0,1,1.1,1.21,4.13,4.13,0,0,1,.36,1.76v.87a4.17,4.17,0,0,1-.56,2.34A2.86,2.86,0,0,1,352,77.09,7.78,7.78,0,0,1,349.75,77.39Z" transform="translate(-11.13 -11.49)"/><path class="cls-1" d="M113.4,68.9H87.24l-4.65,8.47h43c.73,0,1.43,0,2.13-.05l5.21-9.5a23.23,23.23,0,0,1-7.63,1.08Z" transform="translate(-11.13 -11.49)"/><path class="cls-1" d="M87.54,43.44q5.68,5,17.83,5h19.92A20.73,20.73,0,0,1,134.08,50a8.5,8.5,0,0,1,5.06,6.6l5.36-9.77c-.36-.37-.73-.74-1.13-1.09s-1-.78-1.48-1.14q-5.71-3.89-16.31-3.89h-20q-14,0-14-10.26t14-10.36H140.4l4.65-8.47H105.37q-12,0-17.79,5.08a17,17,0,0,0-5.74,13.37Q81.84,38.46,87.54,43.44Z" transform="translate(-11.13 -11.49)"/><path class="cls-1" d="M69.67,77.51,74.31,69H52.74Q36,69,28.5,62.35T21,44.57q0-11.12,7.48-17.79t24.24-6.69h17a5.31,5.31,0,0,1-.32-8.47H52.64q-21.18,0-31.34,9.13T11.13,44.57q0,14.67,10.17,23.81t31.34,9.13h17Z" transform="translate(-11.13 -11.49)"/><path class="cls-2" d="M72.81,19.48a3.75,3.75,0,1,0-3.74-3.74A3.75,3.75,0,0,0,72.81,19.48Z" transform="translate(-11.13 -11.49)"/><path class="cls-1" d="M181.19,68.9H150.24l0,.06a5.32,5.32,0,0,1,0,8.41h43.19c.73,0,1.44,0,2.13-.05l5.21-9.5a23.21,23.21,0,0,1-7.62,1.08Z" transform="translate(-11.13 -11.49)"/><path class="cls-1" d="M211.15,45.74a17,17,0,0,0-1.48-1.14q-5.71-3.89-16.31-3.89h-20q-14,0-14-10.26t14-10.36h34.85l4.64-8.47H173.16q-12.06,0-17.79,5.08a17,17,0,0,0-5.74,13.37q0,8.38,5.69,13.37t17.84,5h19.92A20.76,20.76,0,0,1,201.87,50a8.49,8.49,0,0,1,5,6.6l5.36-9.77C211.92,46.46,211.55,46.09,211.15,45.74Z" transform="translate(-11.13 -11.49)"/><path class="cls-2" d="M149.38,70.34a3.74,3.74,0,1,0-3.51,6.4,3.68,3.68,0,0,0,1,.15,3.74,3.74,0,0,0,2.47-6.55Z" transform="translate(-11.13 -11.49)"/></svg>