<?xml version="1.0" encoding="utf-8"?>
<!-- Generator: Adobe Illustrator 23.0.3, SVG Export Plug-In . SVG Version: 6.00 Build 0)  -->
<svg version="1.1" xmlns="http://www.w3.org/2000/svg" xmlns:xlink="http://www.w3.org/1999/xlink" x="0px" y="0px"
	 viewBox="0 0 240 72" style="enable-background:new 0 0 240 72;" xml:space="preserve">
<style type="text/css">
	.st0{display:none;}
	.st1{display:inline;fill:#7AB732;}
	.st2{display:inline;}
	.st3{fill:#0063A6;}
	.st4{fill:#FFFFFF;}
</style>
<g id="_x34_c" class="st0">
	<path class="st1" d="M195.49,18.04c-22.07-5.08-52.97-7.87-87.03-7.87c-46.75,0-74.58,1.74-96.07,6c-0.26,0.05-0.43,0.3-0.38,0.57
		c0.05,0.26,0.3,0.43,0.56,0.39c17.6-3.17,48.27-4.98,84.13-4.98c1.99,0,3.97,0.01,5.95,0.02c34,0.19,62.8,2.99,83.28,8.09
		c17.85,4.44,28.09,10.43,28.09,16.43c0,4.54-2.41,9.33-19.88,13.54c-18.59,4.48-51.67,7.86-104.1,10.66
		c-0.26,0.01-0.47,0.23-0.46,0.5c0.01,0.26,0.22,0.47,0.48,0.47h0l26.35-0.04c39.95-1.77,68.16-4.73,86.24-9.05
		c17.05-4.08,25.33-9.5,25.33-16.57C228,29.3,216.46,22.86,195.49,18.04z"/>
	<g class="st2">
		<path class="st3" d="M26.14,31.12c0.15-0.64,0.43-1.82-0.51-1.82c-1.18,0-1.4,0.74-2.38,4.94c-1.01,4.32-1.04,4.94,0.07,4.94
			c0.73,0,1.18-0.66,1.61-2.5l0.27-1.14h4.41l-0.22,0.93c-0.81,3.45-2.8,5.44-6.77,5.44c-5.84,0-5.15-2.96-4.05-7.67
			c1.07-4.57,1.79-7.67,7.64-7.67c4.84,0,4.86,2.38,4.32,4.67l-0.25,1.07h-4.41L26.14,31.12z"/>
		<path class="st3" d="M41.72,36.02c-0.74,3.16-1.9,5.89-6.77,5.89c-4.87,0-4.75-2.73-4.01-5.89c0.74-3.14,1.9-5.87,6.76-5.87
			C42.57,30.15,42.46,32.88,41.72,36.02 M35.56,39.31c0.8,0,1.14-0.68,1.75-3.29c0.61-2.6,0.59-3.29-0.21-3.29
			c-0.8,0-1.14,0.68-1.75,3.29C34.74,38.62,34.77,39.31,35.56,39.31"/>
		<path class="st3" d="M49.77,34.22c0.2-0.85-0.04-1.1-0.61-1.1c-0.59,0-0.99,0.46-1.14,1.1l-1.73,7.4h-4.41l2.62-11.18h4.27
			l-0.3,1.28h0.05c0.92-1.1,2.14-1.57,3.62-1.57c1.57,0,2.82,0.78,2.34,2.83l-2.02,8.64h-4.41L49.77,34.22z"/>
		<path class="st3" d="M58.6,38.03c-0.07,0.48-0.13,0.83-0.03,1.1c0.1,0.27,0.33,0.43,0.83,0.43c0.77,0,1.06-0.66,1.11-0.87
			c0.13-0.54,0.03-0.7-1.44-1.22c-2.63-0.91-3.76-1.51-3.28-3.56c0.53-2.25,2.29-3.76,5.7-3.76c4.91,0,4.34,2.44,4.1,3.47h-3.73
			c0.07-0.29,0.1-0.62,0.01-0.81c-0.11-0.21-0.34-0.31-0.81-0.31c-0.45,0-0.97,0.15-1.11,0.77c-0.13,0.54,0.42,0.74,2.88,1.59
			c1.14,0.39,2.51,0.93,1.95,3.31c-0.65,2.77-3.19,3.74-5.92,3.74c-3.21,0-4.78-0.77-4.12-3.89H58.6z"/>
		<path class="st3" d="M72.05,40.34h-0.05c-0.92,1.1-2.14,1.57-3.62,1.57c-1.57,0-2.82-0.78-2.34-2.83l2.02-8.64h4.41l-1.73,7.4
			c-0.2,0.85,0.04,1.1,0.61,1.1c0.59,0,0.99-0.45,1.14-1.1l1.73-7.4h4.41l-2.62,11.18h-4.27L72.05,40.34z"/>
		<path class="st3" d="M91.92,34.22c0.2-0.85-0.04-1.1-0.61-1.1c-0.59,0-0.99,0.46-1.14,1.1l-1.73,7.4h-4.41l1.73-7.4
			c0.2-0.85-0.04-1.1-0.61-1.1c-0.59,0-0.99,0.46-1.14,1.1l-1.73,7.4h-4.41l2.62-11.18h4.27l-0.3,1.28h0.05
			c0.92-1.1,2.14-1.57,3.62-1.57c1.18,0,2.19,0.45,2.57,1.57c0.89-1.1,2.12-1.57,3.6-1.57c1.57,0,2.82,0.78,2.34,2.83l-2.02,8.64
			h-4.41L91.92,34.22z"/>
		<path class="st3" d="M101.31,38.15c-0.14,0.6-0.28,1.41,0.63,1.41c0.86,0,1.12-0.72,1.39-1.86h4c-0.36,1.53-1.06,2.58-2.08,3.25
			c-1.02,0.66-2.34,0.97-3.84,0.97c-4.87,0-4.75-2.73-4.01-5.89c0.74-3.14,1.9-5.87,6.76-5.87c5.02,0,4.4,2.85,3.59,6.35l-0.04,0.19
			h-6.05L101.31,38.15z M104.21,33.91c0.26-1.1,0.06-1.41-0.65-1.41c-0.64,0-1,0.31-1.26,1.41l-0.15,0.66h1.91L104.21,33.91z"/>
		<path class="st3" d="M110.59,30.44h4.27l-0.39,1.65h0.05c0.68-1.08,1.86-1.94,3.07-1.94c0.48,0,0.6,0.04,0.74,0.06l-0.86,3.66
			c-0.15-0.02-0.33-0.04-0.53-0.06c-0.2-0.02-0.38-0.02-0.84-0.02c-1.52,0-2.06,0.72-2.37,2.05l-1.35,5.79h-4.41L110.59,30.44z"/>
		<path class="st3" d="M121.54,38.03c-0.07,0.48-0.13,0.83-0.03,1.1c0.1,0.27,0.33,0.43,0.83,0.43c0.77,0,1.06-0.66,1.11-0.87
			c0.13-0.54,0.03-0.7-1.44-1.22c-2.63-0.91-3.76-1.51-3.28-3.56c0.53-2.25,2.29-3.76,5.7-3.76c4.91,0,4.34,2.44,4.1,3.47h-3.73
			c0.07-0.29,0.1-0.62,0.01-0.81c-0.11-0.21-0.34-0.31-0.81-0.31c-0.45,0-0.97,0.15-1.11,0.77c-0.13,0.54,0.42,0.74,2.88,1.59
			c1.14,0.39,2.51,0.93,1.95,3.31c-0.65,2.77-3.19,3.74-5.92,3.74c-3.21,0-4.78-0.77-4.12-3.89H121.54z"/>
		<polygon class="st3" points="135.84,26.86 145.62,26.86 144.84,30.21 139.61,30.21 139.07,32.49 143.96,32.49 143.21,35.71 
			138.32,35.71 137.72,38.27 143.16,38.27 142.37,41.62 132.39,41.62 		"/>
		<path class="st3" d="M151.98,34.22c0.2-0.85-0.04-1.1-0.61-1.1c-0.59,0-0.99,0.46-1.14,1.1l-1.73,7.4h-4.41l2.62-11.18h4.27
			l-0.3,1.28h0.05c0.92-1.1,2.14-1.57,3.62-1.57c1.57,0,2.82,0.78,2.34,2.83l-2.02,8.64h-4.41L151.98,34.22z"/>
		<path class="st3" d="M161.35,38.15c-0.14,0.6-0.28,1.41,0.63,1.41c0.86,0,1.12-0.72,1.39-1.86h4c-0.36,1.53-1.06,2.58-2.08,3.25
			c-1.02,0.66-2.34,0.97-3.84,0.97c-4.87,0-4.75-2.73-4.01-5.89c0.74-3.14,1.9-5.87,6.76-5.87c5.02,0,4.4,2.85,3.59,6.35l-0.04,0.19
			h-6.05L161.35,38.15z M164.25,33.91c0.26-1.1,0.06-1.41-0.65-1.41c-0.64,0-1.01,0.31-1.26,1.41l-0.16,0.66h1.91L164.25,33.91z"/>
		<path class="st3" d="M170.62,30.44h4.27l-0.39,1.65h0.05c0.68-1.08,1.86-1.94,3.07-1.94c0.48,0,0.6,0.04,0.74,0.06l-0.86,3.66
			c-0.15-0.02-0.33-0.04-0.53-0.06c-0.2-0.02-0.38-0.02-0.84-0.02c-1.52,0-2.06,0.72-2.37,2.05l-1.35,5.79H168L170.62,30.44z"/>
		<path class="st3" d="M185.61,30.44h4.21l-2.51,10.73c-0.76,3.25-3.18,4.26-6.41,4.26c-4.62,0-4.44-1.9-4.25-3.22h4
			c-0.07,0.29-0.03,0.5,0.06,0.62c0.14,0.19,0.35,0.25,0.67,0.25c0.75,0,1.13-0.27,1.31-1.03l0.52-2.21h-0.05
			c-0.8,1.1-1.92,1.43-3.13,1.43c-2.91,0-2.84-2.83-2.23-5.44c0.59-2.52,1.57-5.66,5.14-5.66c1.39,0,2.08,0.56,2.29,1.67h0.05
			L185.61,30.44z M183.84,33.13c-0.86,0-1.19,0.81-1.68,2.89c-0.36,1.55-0.42,2.38,0.42,2.38c0.89,0,1.22-0.83,1.58-2.38
			C184.65,33.93,184.71,33.13,183.84,33.13"/>
		<path class="st3" d="M191.07,30.44h4.55l-0.47,6.78h0.05l2.59-6.78h4.41l-5.75,11.08c-1.4,2.67-2.19,3.74-5.51,3.74
			c-0.96,0-1.53-0.08-2.05-0.19l0.61-2.6c0.38,0.04,0.76,0.06,1.15,0.06c0.36,0,0.66-0.1,0.87-0.31c0.2-0.19,0.32-0.39,0.37-0.6
			L191.07,30.44z"/>
	</g>
</g>
<g id="White">
	<path class="st4" d="M195.49,18.04c-22.07-5.08-52.97-7.87-87.03-7.87c-46.75,0-74.58,1.74-96.07,6c-0.26,0.05-0.43,0.3-0.38,0.57
		c0.05,0.26,0.3,0.43,0.56,0.39c17.6-3.17,48.27-4.98,84.13-4.98c1.99,0,3.97,0.01,5.95,0.02c34,0.19,62.8,2.99,83.28,8.09
		c17.85,4.44,28.09,10.43,28.09,16.43c0,4.54-2.41,9.33-19.88,13.54c-18.59,4.48-51.67,7.86-104.1,10.66
		c-0.26,0.01-0.47,0.23-0.46,0.5c0.01,0.26,0.22,0.47,0.48,0.47h0l26.35-0.04c39.95-1.77,68.16-4.73,86.24-9.05
		c17.05-4.08,25.33-9.5,25.33-16.57C228,29.3,216.46,22.86,195.49,18.04z"/>
	<g>
		<path class="st4" d="M26.14,31.12c0.15-0.64,0.43-1.82-0.51-1.82c-1.18,0-1.4,0.74-2.38,4.94c-1.01,4.32-1.04,4.94,0.07,4.94
			c0.73,0,1.18-0.66,1.61-2.5l0.27-1.14h4.41l-0.22,0.93c-0.81,3.45-2.8,5.44-6.77,5.44c-5.84,0-5.15-2.96-4.05-7.67
			c1.07-4.57,1.79-7.67,7.64-7.67c4.84,0,4.86,2.38,4.32,4.67l-0.25,1.07h-4.41L26.14,31.12z"/>
		<path class="st4" d="M41.72,36.02c-0.74,3.16-1.9,5.89-6.77,5.89c-4.87,0-4.75-2.73-4.01-5.89c0.74-3.14,1.9-5.87,6.76-5.87
			C42.57,30.15,42.46,32.88,41.72,36.02 M35.56,39.31c0.8,0,1.14-0.68,1.75-3.29c0.61-2.6,0.59-3.29-0.21-3.29
			c-0.8,0-1.14,0.68-1.75,3.29C34.74,38.62,34.77,39.31,35.56,39.31"/>
		<path class="st4" d="M49.77,34.22c0.2-0.85-0.04-1.1-0.61-1.1c-0.59,0-0.99,0.46-1.14,1.1l-1.73,7.4h-4.41l2.62-11.18h4.27
			l-0.3,1.28h0.05c0.92-1.1,2.14-1.57,3.62-1.57c1.57,0,2.82,0.78,2.34,2.83l-2.02,8.64h-4.41L49.77,34.22z"/>
		<path class="st4" d="M58.6,38.03c-0.07,0.48-0.13,0.83-0.03,1.1c0.1,0.27,0.33,0.43,0.83,0.43c0.77,0,1.06-0.66,1.11-0.87
			c0.13-0.54,0.03-0.7-1.44-1.22c-2.63-0.91-3.76-1.51-3.28-3.56c0.53-2.25,2.29-3.76,5.7-3.76c4.91,0,4.34,2.44,4.1,3.47h-3.73
			c0.07-0.29,0.1-0.62,0.01-0.81c-0.11-0.21-0.34-0.31-0.81-0.31c-0.45,0-0.97,0.15-1.11,0.77c-0.13,0.54,0.42,0.74,2.88,1.59
			c1.14,0.39,2.51,0.93,1.95,3.31c-0.65,2.77-3.19,3.74-5.92,3.74c-3.21,0-4.78-0.77-4.12-3.89H58.6z"/>
		<path class="st4" d="M72.05,40.34h-0.05c-0.92,1.1-2.14,1.57-3.62,1.57c-1.57,0-2.82-0.78-2.34-2.83l2.02-8.64h4.41l-1.73,7.4
			c-0.2,0.85,0.04,1.1,0.61,1.1c0.59,0,0.99-0.45,1.14-1.1l1.73-7.4h4.41l-2.62,11.18h-4.27L72.05,40.34z"/>
		<path class="st4" d="M91.92,34.22c0.2-0.85-0.04-1.1-0.61-1.1c-0.59,0-0.99,0.46-1.14,1.1l-1.73,7.4h-4.41l1.73-7.4
			c0.2-0.85-0.04-1.1-0.61-1.1c-0.59,0-0.99,0.46-1.14,1.1l-1.73,7.4h-4.41l2.62-11.18h4.27l-0.3,1.28h0.05
			c0.92-1.1,2.14-1.57,3.62-1.57c1.18,0,2.19,0.45,2.57,1.57c0.89-1.1,2.12-1.57,3.6-1.57c1.57,0,2.82,0.78,2.34,2.83l-2.02,8.64
			h-4.41L91.92,34.22z"/>
		<path class="st4" d="M101.31,38.15c-0.14,0.6-0.28,1.41,0.63,1.41c0.86,0,1.12-0.72,1.39-1.86h4c-0.36,1.53-1.06,2.58-2.08,3.25
			c-1.02,0.66-2.34,0.97-3.84,0.97c-4.87,0-4.75-2.73-4.01-5.89c0.74-3.14,1.9-5.87,6.76-5.87c5.02,0,4.4,2.85,3.59,6.35l-0.04,0.19
			h-6.05L101.31,38.15z M104.21,33.91c0.26-1.1,0.06-1.41-0.65-1.41c-0.64,0-1,0.31-1.26,1.41l-0.15,0.66h1.91L104.21,33.91z"/>
		<path class="st4" d="M110.59,30.44h4.27l-0.39,1.65h0.05c0.68-1.08,1.86-1.94,3.07-1.94c0.48,0,0.6,0.04,0.74,0.06l-0.86,3.66
			c-0.15-0.02-0.33-0.04-0.53-0.06c-0.2-0.02-0.38-0.02-0.84-0.02c-1.52,0-2.06,0.72-2.37,2.05l-1.35,5.79h-4.41L110.59,30.44z"/>
		<path class="st4" d="M121.54,38.03c-0.07,0.48-0.13,0.83-0.03,1.1c0.1,0.27,0.33,0.43,0.83,0.43c0.77,0,1.06-0.66,1.11-0.87
			c0.13-0.54,0.03-0.7-1.44-1.22c-2.63-0.91-3.76-1.51-3.28-3.56c0.53-2.25,2.29-3.76,5.7-3.76c4.91,0,4.34,2.44,4.1,3.47h-3.73
			c0.07-0.29,0.1-0.62,0.01-0.81c-0.11-0.21-0.34-0.31-0.81-0.31c-0.45,0-0.97,0.15-1.11,0.77c-0.13,0.54,0.42,0.74,2.88,1.59
			c1.14,0.39,2.51,0.93,1.95,3.31c-0.65,2.77-3.19,3.74-5.92,3.74c-3.21,0-4.78-0.77-4.12-3.89H121.54z"/>
		<polygon class="st4" points="135.84,26.86 145.62,26.86 144.84,30.21 139.61,30.21 139.07,32.49 143.96,32.49 143.21,35.71 
			138.32,35.71 137.72,38.27 143.16,38.27 142.37,41.62 132.39,41.62 		"/>
		<path class="st4" d="M151.98,34.22c0.2-0.85-0.04-1.1-0.61-1.1c-0.59,0-0.99,0.46-1.14,1.1l-1.73,7.4h-4.41l2.62-11.18h4.27
			l-0.3,1.28h0.05c0.92-1.1,2.14-1.57,3.62-1.57c1.57,0,2.82,0.78,2.34,2.83l-2.02,8.64h-4.41L151.98,34.22z"/>
		<path class="st4" d="M161.35,38.15c-0.14,0.6-0.28,1.41,0.63,1.41c0.86,0,1.12-0.72,1.39-1.86h4c-0.36,1.53-1.06,2.58-2.08,3.25
			c-1.02,0.66-2.34,0.97-3.84,0.97c-4.87,0-4.75-2.73-4.01-5.89c0.74-3.14,1.9-5.87,6.76-5.87c5.02,0,4.4,2.85,3.59,6.35l-0.04,0.19
			h-6.05L161.35,38.15z M164.25,33.91c0.26-1.1,0.06-1.41-0.65-1.41c-0.64,0-1.01,0.31-1.26,1.41l-0.16,0.66h1.91L164.25,33.91z"/>
		<path class="st4" d="M170.62,30.44h4.27l-0.39,1.65h0.05c0.68-1.08,1.86-1.94,3.07-1.94c0.48,0,0.6,0.04,0.74,0.06l-0.86,3.66
			c-0.15-0.02-0.33-0.04-0.53-0.06c-0.2-0.02-0.38-0.02-0.84-0.02c-1.52,0-2.06,0.72-2.37,2.05l-1.35,5.79H168L170.62,30.44z"/>
		<path class="st4" d="M185.61,30.44h4.21l-2.51,10.73c-0.76,3.25-3.18,4.26-6.41,4.26c-4.62,0-4.44-1.9-4.25-3.22h4
			c-0.07,0.29-0.03,0.5,0.06,0.62c0.14,0.19,0.35,0.25,0.67,0.25c0.75,0,1.13-0.27,1.31-1.03l0.52-2.21h-0.05
			c-0.8,1.1-1.92,1.43-3.13,1.43c-2.91,0-2.84-2.83-2.23-5.44c0.59-2.52,1.57-5.66,5.14-5.66c1.39,0,2.08,0.56,2.29,1.67h0.05
			L185.61,30.44z M183.84,33.13c-0.86,0-1.19,0.81-1.68,2.89c-0.36,1.55-0.42,2.38,0.42,2.38c0.89,0,1.22-0.83,1.58-2.38
			C184.65,33.93,184.71,33.13,183.84,33.13"/>
		<path class="st4" d="M191.07,30.44h4.55l-0.47,6.78h0.05l2.59-6.78h4.41l-5.75,11.08c-1.4,2.67-2.19,3.74-5.51,3.74
			c-0.96,0-1.53-0.08-2.05-0.19l0.61-2.6c0.38,0.04,0.76,0.06,1.15,0.06c0.36,0,0.66-0.1,0.87-0.31c0.2-0.19,0.32-0.39,0.37-0.6
			L191.07,30.44z"/>
	</g>
</g>
</svg>
