<?xml version="1.0" encoding="utf-8"?>
<!-- Generator: Adobe Illustrator 27.9.0, SVG Export Plug-In . SVG Version: 6.00 Build 0)  -->
<svg version="1.1" id="Layer_1" xmlns="http://www.w3.org/2000/svg" xmlns:xlink="http://www.w3.org/1999/xlink" x="0px" y="0px"
	 viewBox="0 0 24.2 23.2" style="enable-background:new 0 0 24.2 23.2;" xml:space="preserve">
<style type="text/css">
	.st0{fill:#012E3F;}
</style>
<g transform="translate(-440.407 70.019)">
	<g transform="translate(440.407 -70.019)">
		<path class="st0" d="M0.6,23.2h14c0.3,0,0.6-0.3,0.6-0.6v-5.9c0-0.3-0.3-0.6-0.6-0.6H8.1c-0.3,0-0.6-0.3-0.6-0.6V7.6
			c0-0.3,0.3-0.6,0.6-0.6h4.7c0.3,0,0.6-0.3,0.6-0.6V0.6c0-0.3-0.3-0.6-0.6-0.6H0.6C0.3,0,0,0.3,0,0.6v22C0,22.9,0.3,23.2,0.6,23.2"
			/>
		<path class="st0" d="M16.6,22.6c0,0.3,0.3,0.6,0.6,0.6h6.4c0.3,0,0.6-0.3,0.6-0.6v-22c0-0.3-0.3-0.6-0.6-0.6h-8.2
			c-0.3,0-0.6,0.3-0.6,0.6v5.9c0,0.3,0.3,0.6,0.6,0.6H16c0.3,0,0.6,0.3,0.6,0.6c0,0,0,0,0,0L16.6,22.6"/>
	</g>
</g>
</svg>
