<?xml version="1.0" encoding="utf-8"?>
<!-- Generator: Adobe Illustrator 19.0.0, SVG Export Plug-In . SVG Version: 6.00 Build 0)  -->
<svg version="1.1" id="Layer_1" xmlns="http://www.w3.org/2000/svg" xmlns:xlink="http://www.w3.org/1999/xlink" x="0px" y="0px"
	 viewBox="-216 374.6 178.7 44.4" style="enable-background:new -216 374.6 178.7 44.4;" xml:space="preserve">
<style type="text/css">
	.st0{fill:#FFFFFF;}
	.st1{fill:#633119;}
	.st2{fill:#B32317;}
</style>
<rect x="-216" y="374.6" class="st0" width="178.7" height="44.4"/>
<g>
	<g>
		<g>
			<path d="M-159,376.4c-5.2,0-9.3,4-9.3,9.2c0,5,4.1,9,9.1,9c1.6,0,3.3-0.5,4.6-1.2l0.2-0.1v-3.4l-0.6,0.5
				c-1.2,1.1-2.7,1.7-4.3,1.7c-3.5,0-6.3-2.9-6.3-6.5s2.8-6.6,6.3-6.6c1.5,0,3.1,0.6,4.2,1.6l0.5,0.5v-3.4v-0.1
				C-155.9,376.8-157.4,376.4-159,376.4z"/>
			<path d="M-142.9,376.4c-5,0-9.2,4.1-9.2,9.1c0,5.1,4,9.1,9.2,9.1c5.1,0,9.2-4,9.2-9.1C-133.7,380.5-137.8,376.4-142.9,376.4z
				 M-142.9,392c-3.5,0-6.4-2.9-6.4-6.5c0-3.7,2.7-6.5,6.4-6.5c3.6,0,6.4,2.8,6.4,6.5C-136.5,389.1-139.4,392-142.9,392z"/>
			<polygon points="-120.1,394.2 -120.1,391.7 -128.4,391.7 -119.8,376.7 -131.5,376.7 -131.5,379.3 -124.4,379.3 -132.9,394.2 			
				"/>
			<polygon points="-107.3,391.7 -114.2,391.7 -114.2,385.9 -107.5,385.9 -107.5,383.4 -114.2,383.4 -114.2,379.3 -107.3,379.3 
				-107.3,376.7 -117,376.7 -117,394.2 -107.3,394.2 			"/>
			<polygon points="-101,382.8 -88.4,394.7 -88.4,376.7 -91.2,376.7 -91.2,388.1 -103.8,376.2 -103.8,394.2 -101,394.2 			"/>
		</g>
		<g>
			<polygon points="-146.3,397.3 -149.1,404.8 -147.2,405.6 -143.7,398.4 			"/>
			<g>
				<path d="M-159.1,400.7c-5,0-9.2,4.1-9.2,9.1c0,5.1,4,9.1,9.2,9.1c5.1,0,9.2-4,9.2-9.1C-150,404.8-154.1,400.7-159.1,400.7z
					 M-159.1,416.3c-3.5,0-6.4-2.9-6.4-6.5c0-3.7,2.8-6.5,6.4-6.5c3.6,0,6.4,2.8,6.4,6.5C-152.8,413.4-155.6,416.3-159.1,416.3z"/>
				<path d="M-135.9,400.7c-5.2,0-9.3,4-9.3,9.2c0,5,4.1,9,9.1,9c1.6,0,3.3-0.5,4.6-1.2l0.2-0.1v-3.4l-0.5,0.5
					c-1.2,1.1-2.7,1.7-4.3,1.7c-3.5,0-6.3-2.9-6.3-6.5c0-3.6,2.8-6.6,6.3-6.6c1.5,0,3.1,0.6,4.2,1.6l0.5,0.5V402l-0.2-0.1
					C-132.7,401.1-134.2,400.7-135.9,400.7z"/>
				<path d="M-119.7,400.7c-5,0-9.2,4.1-9.2,9.1c0,5.1,4,9.1,9.2,9.1c5.1,0,9.2-4,9.2-9.1C-110.6,404.8-114.7,400.7-119.7,400.7z
					 M-119.7,416.3c-3.5,0-6.4-2.9-6.4-6.5c0-3.7,2.7-6.5,6.4-6.5c3.6,0,6.4,2.8,6.4,6.5C-113.4,413.4-116.2,416.3-119.7,416.3z"/>
				<polygon points="-95,412.4 -107.7,400.5 -107.7,418.5 -104.9,418.5 -104.9,407.1 -92.3,419 -92.3,401 -95,401 				"/>
				<polygon points="-75.8,412.4 -88.4,400.5 -88.4,418.5 -85.7,418.5 -85.7,407.1 -73,419 -73,401 -75.8,401 				"/>
				<path d="M-61,400.7c-5,0-9.2,4.1-9.2,9.1c0,5.1,4,9.1,9.2,9.1c5.1,0,9.2-4,9.2-9.1C-51.8,404.8-55.9,400.7-61,400.7z M-61,416.3
					c-3.5,0-6.4-2.9-6.4-6.5c0-3.7,2.8-6.5,6.4-6.5c3.6,0,6.4,2.8,6.4,6.5C-54.6,413.4-57.4,416.3-61,416.3z"/>
				<path d="M-38.8,406.2c0-1.8-0.9-3.4-2.4-4.3c-1.5-0.8-3.2-0.8-4.6-0.8h-2.9v17.5h2.8v-7.1h0.4l5,7.1h3.4l-5.4-7.4
					C-40.4,410.6-38.8,408.6-38.8,406.2z M-41.5,406.3c0,1.9-1.2,2.8-4.1,2.8H-46v-5.5h0.2C-42.8,403.6-41.5,404.4-41.5,406.3z"/>
			</g>
		</g>
	</g>
	<g>
		<path class="st1" d="M-175.7,394.7c-1.3-3.7-5.4-6.1-9.8-7.6c2.8,1.9,5.2,4.3,5.9,7.3c0.6,2.9-1,5.8-4.7,8.6l-4.8,2.9
			c-0.1,0.1-4,2-3.3,6.2l0.8,3.5C-185.8,413.3-171.6,406.4-175.7,394.7z"/>
		<path class="st2" d="M-214.9,405.7c2.5,7.2,11.9,10.9,20.5,12.8c-5.9-2.9-11.7-7.1-13-12.9c-1.2-5.4,3.8-11.2,14-16.1
			c2-1.2,5-3.8,4.5-8l-1.5-6.9C-198.1,377.5-221.2,387.7-214.9,405.7z"/>
	</g>
</g>
</svg>
