<svg xmlns="http://www.w3.org/2000/svg" viewBox="0 0 175 94.12"><title>logo</title><path d="M83.57,18c-.91-3.32-3-4.94-6.73-4.94-4.91,0-7.73,3.51-7.73,9.65s2.82,9.64,7.73,9.64A7,7,0,0,0,84,27.47l-3.41-.88c-1.1,2.21-2.11,2.78-3.77,2.78-2.77,0-4.1-2.23-4-6.62s1.49-6.63,3.95-6.63a3.57,3.57,0,0,1,3.49,2.7L83.57,18Z" transform="translate(0 -0.44)" style="fill:#231f20"/><path d="M90.37,32.13V24.49h3.17l3.63,7.64h4.08L97,23.76a4.67,4.67,0,0,0,3.53-4.83c0-3.1-1.79-5.57-6.17-5.57H86.69V32.13Zm0-15.86h3.36c2,0,3.12.89,3.12,2.66s-.88,2.65-3.76,2.65H90.37V16.27Z" transform="translate(0 -0.44)" style="fill:#231f20"/><path d="M110.62,17h0l2.16,8.13h-4.48L110.62,17Zm-7.87,15.15h3.65l1.15-4.06h6.08l1.07,4.06h3.66l-5.47-18.77H108.3l-5.55,18.77Z" transform="translate(0 -0.44)" style="fill:#231f20"/><polygon points="124.33 31.69 124.33 18.33 124.39 18.33 132.26 31.69 135.81 31.69 135.81 12.93 132.34 12.93 132.34 25.71 132.28 25.71 124.71 12.93 120.86 12.93 120.86 31.69 124.33 31.69 124.33 31.69" style="fill:#231f20"/><polygon points="153.25 31.69 153.25 28.67 143.89 28.67 143.89 23.43 150.48 23.43 150.48 20.41 143.89 20.41 143.89 15.94 152.96 15.94 152.96 12.93 140.21 12.93 140.21 31.69 153.25 31.69 153.25 31.69" style="fill:#231f20"/><polygon points="58.04 1.06 164.51 1.06 164.51 43.89 58.04 43.89 58.04 1.06 58.04 1.06" style="fill:none;stroke:#f04923;stroke-miterlimit:2.613126039505005;stroke-width:0.500029981136322px"/><path d="M61.43,55c.52,0,.64,0,.71.26l.4,1.27a6.09,6.09,0,0,1,.28,1c0,.09-.06.2-.4.25l-.47.08a.34.34,0,0,0,0,.52c.68,0,1.25,0,2,0s1.57,0,2.28,0c.13-.09.1-.45,0-.52l-.56-.09c-.55-.09-.68-.43-1-1.31l-2-5.79c-.37-1-.54-1.6-.66-2-.06-.23-.15-.3-.34-.3a3.05,3.05,0,0,1-1.29.89,5.13,5.13,0,0,1-.54,1.87l-1.35,3.61c-.4,1.06-.68,1.77-.93,2.36a1,1,0,0,1-.9.73l-.4,0c-.1.12-.12.43.05.52.68,0,1,0,1.52,0s1.15,0,1.67,0c.14-.08.11-.42,0-.52l-.45-.08c-.41-.07-.6-.16-.6-.25a1.69,1.69,0,0,1,.1-.53l.58-1.71c.09-.28.13-.29.48-.29ZM60,54.18c-.37,0-.44,0-.31-.44L60,52.63c.22-.68.52-1.47.63-1.81.14.31.4,1.1.61,1.74l.38,1.2c.12.38.05.42-.29.42Z" transform="translate(0 -0.44)" style="fill:#f04923"/><path d="M71.37,49.81c0-.54,0-.57.48-.57H73a2,2,0,0,1,1.45.45A3.43,3.43,0,0,1,75,50.86c.15.13.49.1.55-.06-.08-1-.18-2-.19-2.29-.2,0-1,.05-2,.05H70.29c-.71,0-1.44,0-2.13,0a.36.36,0,0,0,0,.51l.37.08c.66.13.75.22.75,1.56v5.51c0,1.35-.09,1.44-.75,1.54l-.69.11a.42.42,0,0,0,0,.52c1.1,0,1.83,0,2.54,0h1.91c1.21,0,2.63,0,3.42,0A8.61,8.61,0,0,0,76.3,56a.36.36,0,0,0-.55-.08c-.81,1.67-1.31,1.72-2.6,1.72-1.08,0-1.36-.12-1.55-.39a2.65,2.65,0,0,1-.23-1.4V54.08c0-.44,0-.46.41-.46h1c.76,0,.94.12,1.09.83l.07.37c.1.13.48.12.55,0,0-.48,0-1,0-1.57s0-1.09,0-1.57c-.07-.13-.45-.13-.55,0l-.07.37c-.15.71-.33.81-1.09.81h-1c-.4,0-.41,0-.41-.44V49.81Z" transform="translate(0 -0.44)" style="fill:#f04923"/><path d="M79.72,56.18c0,1.35-.09,1.46-.75,1.57l-.4.08c-.12.07-.12.43,0,.52.76,0,1.41,0,2.15,0s1.39,0,2.17,0a.45.45,0,0,0,0-.52l-.39-.08c-.67-.11-.76-.22-.76-1.57V54.36c0-.29,0-.32.55-.32a.75.75,0,0,1,.78.51,18.86,18.86,0,0,0,1.15,2.29,3,3,0,0,0,2.87,1.55,3.42,3.42,0,0,0,1.17-.13.28.28,0,0,0-.06-.38,1.86,1.86,0,0,1-1-.42,11.88,11.88,0,0,1-2.29-3.69c-.08-.16-.08-.25.07-.32a2.39,2.39,0,0,0,1.57-2.22A2.45,2.45,0,0,0,85.26,49a6.22,6.22,0,0,0-2.9-.53c-1.4,0-2.55.06-3.66.14a.33.33,0,0,0,0,.51l.4.06c.62.09.65.25.65,1.73v5.23Zm2-6.23c0-.71,0-.76.64-.76a2,2,0,0,1,1.93,2.19A2.14,2.14,0,0,1,83.78,53a1.42,1.42,0,0,1-1.12.42c-.87,0-.92,0-.92-.56V50Z" transform="translate(0 -0.44)" style="fill:#f04923"/><path d="M95,48.32a5.08,5.08,0,0,0-5.27,5.19,4.82,4.82,0,0,0,5.12,5c3.18,0,5.33-1.93,5.33-5.15A4.89,4.89,0,0,0,95,48.32Zm2.82,5.26c0,2.39-.75,4.28-2.69,4.28-2.41,0-3-2.89-3-4.69,0-2.47,1-4.17,2.79-4.17s2.94,2,2.94,4.58Z" transform="translate(0 -0.44)" style="fill:#f04923"/><path d="M109.5,55.54a3.38,3.38,0,0,0-2.09-3l-1-.51a2.18,2.18,0,0,1-1.35-1.69A1.38,1.38,0,0,1,106.6,49c1.06,0,1.7,1.08,2,1.83a.41.41,0,0,0,.58,0,7,7,0,0,0-.27-2.11,3.29,3.29,0,0,1-.5-.12,5.91,5.91,0,0,0-1.68-.24c-2.15,0-3.45,1.15-3.43,2.82A3.39,3.39,0,0,0,105.48,54c.88.45,2,1.15,2,2.35a1.47,1.47,0,0,1-1.6,1.49c-1.25,0-2.24-1.36-2.54-2.32a.37.37,0,0,0-.56.05,4.78,4.78,0,0,0,.47,2.39,5.09,5.09,0,0,0,2.51.56c2.23,0,3.73-1.18,3.73-3Z" transform="translate(0 -0.44)" style="fill:#f04923"/><path d="M113.31,56.17c0,1.38-.08,1.48-.75,1.6l-.41.07c-.17.08-.14.42,0,.51.79,0,1.5,0,2.21,0s1.44,0,2.26,0a.32.32,0,0,0,0-.51l-.47-.07c-.66-.1-.75-.22-.75-1.6V49.94c0-.59,0-.75.57-.75,1.33,0,1.89,1.18,1.89,2.27s-.25,2-1.47,2.35a.28.28,0,0,0,0,.4,3.62,3.62,0,0,0,.47,0c.79,0,3.22-.36,3.22-2.78a2.62,2.62,0,0,0-1.8-2.55,7.44,7.44,0,0,0-2.7-.39c-1.29,0-2.44.06-3.41.14a.33.33,0,0,0,0,.5l.45.06c.62.07.65.25.65,1.74v5.22Z" transform="translate(0 -0.44)" style="fill:#f04923"/><path d="M125.61,55c.52,0,.64,0,.71.26l.4,1.27a6.09,6.09,0,0,1,.28,1c0,.09-.06.2-.4.25l-.47.08a.34.34,0,0,0,0,.52c.68,0,1.25,0,2,0s1.57,0,2.28,0c.13-.09.1-.45,0-.52l-.56-.09c-.55-.09-.68-.43-1-1.31l-2-5.79c-.37-1-.55-1.6-.66-2-.06-.23-.15-.3-.34-.3a3.05,3.05,0,0,1-1.29.89,5.13,5.13,0,0,1-.54,1.87l-1.35,3.61c-.4,1.06-.68,1.77-.93,2.36a1,1,0,0,1-.9.73l-.4,0c-.1.12-.12.43,0,.52.68,0,1,0,1.53,0s1.15,0,1.67,0c.14-.08.11-.42,0-.52l-.45-.08c-.41-.07-.6-.16-.6-.25a1.69,1.69,0,0,1,.1-.53l.58-1.71c.08-.28.13-.29.48-.29Zm-1.46-.79c-.37,0-.44,0-.31-.44l.37-1.11c.22-.68.51-1.47.63-1.81.14.31.4,1.1.61,1.74l.38,1.2c.12.38,0,.42-.29.42Z" transform="translate(0 -0.44)" style="fill:#f04923"/><path d="M137.86,48.32a6.43,6.43,0,0,0-4.09,1.32A4.87,4.87,0,0,0,132,53.55a4.65,4.65,0,0,0,1.88,3.87,6.78,6.78,0,0,0,4,1.12,11,11,0,0,0,3-.54,6.44,6.44,0,0,0,.56-2.32.42.42,0,0,0-.56-.11,3.18,3.18,0,0,1-3,2.29c-1.77,0-3.47-1.58-3.47-4.52s1.76-4.34,3.4-4.34a2.68,2.68,0,0,1,2.77,2.11.39.39,0,0,0,.56-.1,20,20,0,0,1-.17-2.31,19.53,19.53,0,0,0-3-.38Z" transform="translate(0 -0.44)" style="fill:#f04923"/><path d="M147.07,49.81c0-.54,0-.57.49-.57h1.18a2,2,0,0,1,1.45.45,3.43,3.43,0,0,1,.56,1.17c.15.13.49.1.55-.06-.08-1-.18-2-.2-2.29-.19,0-1,.05-2,.05H146c-.7,0-1.43,0-2.12,0a.36.36,0,0,0,0,.51l.37.08c.66.13.75.22.75,1.56v5.51c0,1.35-.09,1.44-.75,1.54l-.7.11a.42.42,0,0,0,0,.52c1.11,0,1.83,0,2.54,0H148c1.21,0,2.63,0,3.41,0A8,8,0,0,0,152,56a.35.35,0,0,0-.54-.08c-.81,1.67-1.32,1.72-2.6,1.72-1.08,0-1.36-.12-1.55-.39a2.62,2.62,0,0,1-.24-1.4V54.08c0-.44,0-.46.41-.46h1c.77,0,.95.12,1.09.83l.08.37a.44.44,0,0,0,.55,0c0-.48,0-1,0-1.57s0-1.09,0-1.57a.45.45,0,0,0-.55,0l-.08.37c-.14.71-.32.81-1.09.81h-1c-.39,0-.41,0-.41-.44V49.81Z" transform="translate(0 -0.44)" style="fill:#f04923"/><path d="M161.22,48.85a2.39,2.39,0,0,0-2.47,2.35,2.33,2.33,0,0,0,1,1.77,3.35,3.35,0,0,0-2.29,2.9c0,1.52,1.2,2.64,3.16,2.64a4.1,4.1,0,0,0,3-1.44c.15.32.39.63.49.81a2.17,2.17,0,0,0,1.83.63,3.89,3.89,0,0,0,2.94-1.18.37.37,0,0,0-.17-.37,2.79,2.79,0,0,1-1.33.4c-1.29,0-1.67-.87-2.19-1.55-.22-.36-.25-.49-.25-.43h0a1.09,1.09,0,0,1,.21-.38l.88-1.35a7.86,7.86,0,0,1,1.11-1.47,2,2,0,0,1,1-.45l.4-.06c.16-.08.13-.45,0-.51-.77,0-1.77.09-2.91.09h-.61c-.16,0-.17.42,0,.51l.27.05c.25,0,.39.13.39.26a4.85,4.85,0,0,1-.36,1,13.42,13.42,0,0,1-.79,1.56,7.64,7.64,0,0,0-2.2-2.07c.43-.26,1.36-.7,1.36-1.77a2.05,2.05,0,0,0-2.3-2Zm-1.84,6.46a2,2,0,0,1,1-1.78c.08,0,.18.09.36.21a7.24,7.24,0,0,1,2.2,2.22c.18.31.24.38.24.43a2.29,2.29,0,0,1-1.79.93,1.93,1.93,0,0,1-2-2Zm2.75-4.69a2,2,0,0,1-.63,1.54,1.82,1.82,0,0,1-1.14-1.58,1,1,0,0,1,.89-1.08c.6,0,.88.58.88,1.12Z" transform="translate(0 -0.44)" style="fill:#f04923"/><path d="M60.44,65.43c0-.55,0-.58.49-.58h1.18a2,2,0,0,1,1.45.46,3.37,3.37,0,0,1,.56,1.16c.15.14.49.11.54,0-.07-1-.17-2.06-.19-2.29-.19,0-1,0-2,0H59.36c-.7,0-1.43,0-2.12,0a.37.37,0,0,0,0,.52l.37.07c.66.13.75.22.75,1.57v5.5c0,1.36-.09,1.45-.75,1.55l-.7.1a.42.42,0,0,0,0,.52c1.11,0,1.83,0,2.54,0h1.92c1.21,0,2.63,0,3.41,0a8.18,8.18,0,0,0,.62-2.36.35.35,0,0,0-.54-.07c-.81,1.67-1.32,1.71-2.61,1.71-1.07,0-1.35-.12-1.54-.38a2.67,2.67,0,0,1-.24-1.41V69.69c0-.44,0-.45.41-.45h1c.77,0,1,.12,1.09.82l.08.37a.42.42,0,0,0,.55,0c0-.47,0-1,0-1.57s0-1.09,0-1.56c-.08-.14-.45-.14-.55,0l-.08.37c-.14.71-.32.81-1.09.81h-1c-.39,0-.41,0-.41-.44V65.43Z" transform="translate(0 -0.44)" style="fill:#f04923"/><path d="M71,66.3c0-1.38.08-1.49.75-1.6l.38-.06a.41.41,0,0,0,0-.51c-.74,0-1.47,0-2.18,0s-1.45,0-2.22,0a.33.33,0,0,0,0,.51l.43.06c.66.09.75.22.75,1.6v5.49c0,1.37-.09,1.49-.75,1.58l-.56.07a.41.41,0,0,0,0,.52c.92,0,1.66,0,2.34,0h2c1.21,0,2.62,0,3.41,0A9.1,9.1,0,0,0,76,71.57a.39.39,0,0,0-.56-.09c-.87,1.72-1.28,1.76-2.63,1.76-1.08,0-1.34-.12-1.53-.37a2.39,2.39,0,0,1-.25-1.4V66.3Z" transform="translate(0 -0.44)" style="fill:#f04923"/><path d="M81.39,65.43c0-.55,0-.58.48-.58h1.19a1.93,1.93,0,0,1,1.44.46,3.35,3.35,0,0,1,.57,1.16c.14.14.48.11.54,0-.07-1-.18-2.06-.19-2.29-.19,0-1,0-2,0H80.31c-.71,0-1.43,0-2.13,0a.39.39,0,0,0,0,.52l.37.07c.67.13.76.22.76,1.57v5.5c0,1.36-.09,1.45-.76,1.55l-.69.1a.42.42,0,0,0,0,.52c1.11,0,1.83,0,2.54,0h1.92c1.21,0,2.63,0,3.41,0a8.18,8.18,0,0,0,.62-2.36.36.36,0,0,0-.55-.07c-.81,1.67-1.31,1.71-2.6,1.71-1.07,0-1.35-.12-1.55-.38a2.79,2.79,0,0,1-.23-1.41V69.69c0-.44,0-.45.41-.45h1c.77,0,.94.12,1.09.82l.07.37a.42.42,0,0,0,.55,0c0-.47,0-1,0-1.57s0-1.09,0-1.56c-.07-.14-.44-.14-.55,0l-.07.37c-.15.71-.32.81-1.09.81h-1c-.4,0-.41,0-.41-.44V65.43Z" transform="translate(0 -0.44)" style="fill:#f04923"/><path d="M94.6,63.93a6.5,6.5,0,0,0-4.1,1.32,4.89,4.89,0,0,0-1.78,3.91A4.63,4.63,0,0,0,90.59,73a6.72,6.72,0,0,0,4,1.13,11.08,11.08,0,0,0,3-.55,6.9,6.9,0,0,0,.56-2.32.42.42,0,0,0-.56-.1,3.21,3.21,0,0,1-3,2.29c-1.77,0-3.47-1.58-3.47-4.52s1.76-4.35,3.4-4.35a2.67,2.67,0,0,1,2.77,2.12.42.42,0,0,0,.57-.11,18.27,18.27,0,0,1-.18-2.3,17.8,17.8,0,0,0-3-.39Z" transform="translate(0 -0.44)" style="fill:#f04923"/><path d="M103.84,71.79c0,1.37-.09,1.5-.75,1.58l-.66.07a.42.42,0,0,0,0,.52c1,0,1.8,0,2.51,0s1.4,0,2.36,0a.49.49,0,0,0,0-.52l-.59-.07c-.67-.09-.75-.21-.75-1.58V65.28c0-.39,0-.43.39-.43h.89c1.11,0,1.32.69,1.57,1.64.07.12.47.09.54,0a10.9,10.9,0,0,1,.22-2.54.3.3,0,0,0-.22-.1.36.36,0,0,0-.19.05c-.13.31-.35.32-1.33.32h-5.49c-1.13,0-1.17-.06-1.24-.31a.39.39,0,0,0-.21-.06.34.34,0,0,0-.21.08,17.49,17.49,0,0,1-.49,2.5.41.41,0,0,0,.55.14c.44-1.08.75-1.67,1.83-1.67h.92c.35,0,.35.07.35.43v6.51Z" transform="translate(0 -0.44)" style="fill:#f04923"/><path d="M113.06,71.79c0,1.36-.09,1.46-.75,1.58l-.4.07a.42.42,0,0,0,0,.52c.77,0,1.42,0,2.16,0s1.38,0,2.17,0a.49.49,0,0,0,0-.52l-.4-.07c-.67-.12-.76-.22-.76-1.58V70c0-.29,0-.32.55-.32a.74.74,0,0,1,.78.52,17.5,17.5,0,0,0,1.16,2.28A3,3,0,0,0,120.43,74a3.69,3.69,0,0,0,1.17-.13.3.3,0,0,0-.06-.39,1.76,1.76,0,0,1-1-.41,12.34,12.34,0,0,1-2.29-3.69c-.07-.17-.07-.26.07-.33a2.41,2.41,0,0,0,.27-4.4,6.22,6.22,0,0,0-2.9-.53c-1.4,0-2.55.06-3.66.13a.34.34,0,0,0,0,.52l.4.06c.62.08.65.25.65,1.72v5.23Zm2-6.23c0-.71,0-.75.64-.75A1.94,1.94,0,0,1,117.65,67a2.17,2.17,0,0,1-.53,1.6A1.42,1.42,0,0,1,116,69c-.87,0-.92,0-.92-.56V65.56Z" transform="translate(0 -0.44)" style="fill:#f04923"/><path d="M128.38,63.93a5.08,5.08,0,0,0-5.27,5.19,4.82,4.82,0,0,0,5.12,5c3.18,0,5.33-1.94,5.33-5.16a4.89,4.89,0,0,0-5.18-5.07Zm2.82,5.26c0,2.4-.75,4.29-2.69,4.29-2.41,0-3-2.9-3-4.7,0-2.47,1-4.17,2.79-4.17s2.94,2.06,2.94,4.58Z" transform="translate(0 -0.44)" style="fill:#f04923"/><path d="M145.56,67.88a10.52,10.52,0,0,1,.22-2.71c.13-.31.41-.42.8-.48l.26,0a.45.45,0,0,0,0-.51c-.57,0-1.1,0-1.65,0s-1.18,0-2,0a.45.45,0,0,0,0,.51l.4.06c.4.06.72.16.86.47a10.52,10.52,0,0,1,.22,2.71v2a2.08,2.08,0,0,1-.06.66c-.34-.34-.77-.86-1.42-1.62L142,67.49c-1.33-1.58-2.29-2.7-2.44-3.36-.31,0-.74,0-1.24,0s-1.34,0-2,0c-.15,0-.16.39-.06.51l.42.06c.51.08.72.25.84.5a3.44,3.44,0,0,1,.1,1.26v3.75a10.78,10.78,0,0,1-.2,2.71c-.12.31-.42.41-.82.48l-.25,0a.45.45,0,0,0,0,.51c.56,0,1.11,0,1.66,0s1.18,0,2,0a.49.49,0,0,0,0-.51l-.42-.06c-.38-.06-.72-.16-.85-.47a10,10,0,0,1-.23-2.71V67.35a2.45,2.45,0,0,1,.08-.95,22.84,22.84,0,0,1,1.61,1.89l3.41,4.23c.69.85,1.18,1.61,1.2,1.61a1.19,1.19,0,0,0,.87-.34c0-.49,0-1.42,0-2.38V67.88Z" transform="translate(0 -0.44)" style="fill:#f04923"/><path d="M152.55,66.33c0-1.39.08-1.49.76-1.61l.42-.07a.42.42,0,0,0,0-.52c-.8,0-1.54,0-2.23,0s-1.45,0-2.25,0a.42.42,0,0,0,0,.52l.42.07c.68.12.76.22.76,1.61v5.43c0,1.39-.08,1.49-.76,1.61l-.42.07a.42.42,0,0,0,0,.52c.8,0,1.54,0,2.25,0s1.42,0,2.21,0a.42.42,0,0,0,0-.52l-.42-.07c-.68-.12-.76-.22-.76-1.61V66.33Z" transform="translate(0 -0.44)" style="fill:#f04923"/><path d="M162.47,63.93a6.49,6.49,0,0,0-4.09,1.32,4.87,4.87,0,0,0-1.79,3.91A4.63,4.63,0,0,0,158.47,73a6.71,6.71,0,0,0,4,1.13,11,11,0,0,0,3-.55,6.44,6.44,0,0,0,.56-2.32.41.41,0,0,0-.56-.1,3.2,3.2,0,0,1-3,2.29c-1.77,0-3.47-1.58-3.47-4.52s1.76-4.35,3.4-4.35a2.68,2.68,0,0,1,2.77,2.12.4.4,0,0,0,.56-.11,19.82,19.82,0,0,1-.17-2.3,18,18,0,0,0-3.05-.39Z" transform="translate(0 -0.44)" style="fill:#f04923"/><path d="M175,71.16a3.37,3.37,0,0,0-2.08-3l-1-.52A2.14,2.14,0,0,1,170.6,66a1.37,1.37,0,0,1,1.5-1.38c1.07,0,1.7,1.08,2,1.84.14.14.51.13.58,0a7,7,0,0,0-.27-2.11,3.6,3.6,0,0,1-.5-.12,5.87,5.87,0,0,0-1.68-.24c-2.14,0-3.44,1.16-3.43,2.83A3.42,3.42,0,0,0,171,69.64c.89.44,2,1.15,2,2.34a1.47,1.47,0,0,1-1.59,1.5c-1.26,0-2.25-1.36-2.55-2.32a.37.37,0,0,0-.56,0,4.73,4.73,0,0,0,.48,2.39,5.06,5.06,0,0,0,2.51.57c2.23,0,3.72-1.19,3.72-3Z" transform="translate(0 -0.44)" style="fill:#f04923"/><path d="M159.4,41.29h.38l.59,1h.37l-.63-1a.58.58,0,0,0,.58-.61c0-.43-.26-.63-.79-.63h-.84v2.21h.34v-1Zm0-1h.46c.39,0,.49.12.49.33s-.14.36-.55.36h-.4v-.69Zm-1.54.82a1.94,1.94,0,1,0,1.95-1.91,1.91,1.91,0,0,0-1.95,1.91Zm3.51,0a1.57,1.57,0,1,1-1.56-1.6,1.55,1.55,0,0,1,1.56,1.6Z" transform="translate(0 -0.44)" style="fill:#231f20"/><polygon points="0.87 0 52.23 0 52.23 57.04 0.87 57.04 0.87 0 0.87 0" style="fill:#969a9c;fill-rule:evenodd"/><path d="M52.23,29.49V44.33H40.12A123.13,123.13,0,0,1,52.23,29.49Z" transform="translate(0 -0.44)" style="fill:#f04923;fill-rule:evenodd"/><path d="M6.32,57.48A61.1,61.1,0,0,0,2.18,74C.63,89.25,9.87,96.68,23.76,91.38c8.25-3.15,18-10.48,28.47-19.75-10.14,9.29-19.7,16.89-27.92,20.58q-1.15.53-2.28.93C7.81,98.4-.79,88.39.06,74A67.91,67.91,0,0,1,3.25,57.48Z" transform="translate(0 -0.44)" style="fill:#969a9c;fill-rule:evenodd"/><path d="M43.18.44h9V1.53C38.36,12.76,25.45,25.78,16.67,38.66A98.39,98.39,0,0,0,6.32,57.48H3.25A95.6,95.6,0,0,1,13.41,35.81C19.83,25.57,29.69,13.62,43.18.44Z" transform="translate(0 -0.44)" style="fill:#fff;fill-rule:evenodd"/><path d="M6.32,57.48H3.25A95.6,95.6,0,0,1,13.41,35.81c6.5-10.37,16-22,29.78-35.37l9,1.06C37.8,13,25.76,25.32,16.67,38.66A98.39,98.39,0,0,0,6.32,57.48Z" transform="translate(0 -0.44)" style="fill:#fff;fill-rule:evenodd"/></svg>