<svg width="136" height="42" viewBox="0 0 136 42" fill="none" xmlns="http://www.w3.org/2000/svg">
<path d="M26.2793 32.2624C26.0447 32.849 25.4581 33.9635 24.3436 35.1954C22.9944 36.6618 20.7067 38.5389 16.0726 38.5389C8.74022 38.5389 4.04749 33.4356 3.98883 26.2205C3.98883 18.8881 8.79888 13.6088 16.3073 13.6088C21.4106 13.6088 23.933 16.1311 25.1061 18.0082H29.4469C29.271 17.5389 29.0363 17.0697 28.8603 16.7764C27.2765 14.1954 23.757 10.2065 16.3659 10.2065C9.62011 10.2065 3.63687 13.3741 1.11453 19.944C0.703912 20.9998 0 23.1702 0 26.1618C0 32.0278 2.52235 37.6591 8.09497 40.3574C11.3799 41.9412 14.7235 41.9998 15.8967 41.9998C22.1145 41.9998 25.2821 39.6535 27.0419 37.7177C29.3883 35.254 30.4441 31.9105 30.6201 31.3239H26.6313C26.6313 31.5585 26.4553 31.9105 26.2793 32.2624ZM59.5978 41.9412H63.352V10.5585H59.5978V41.9412ZM48.1006 10.9105C44.1704 11.3797 41.8827 14.0781 41.1788 15.1339C40.9441 15.5445 40.6508 16.0138 40.6508 16.0138C40.5335 16.2484 40.4162 16.2484 40.4162 15.9551V10.8518H36.662V41.8825H40.4162V26.5138C40.5335 22.9943 40.6508 19.768 43.2905 17.011C45.3436 14.782 48.6285 13.9021 52.7346 14.43V10.9105C52.324 10.8518 50.7402 10.6172 48.1006 10.9105ZM130.282 13.3741C126.352 10.3239 121.425 10.2652 119.782 10.2652C110.631 10.4998 106.936 16.0725 105.528 19.2987C104.296 22.173 104.179 24.93 104.179 26.0445C104.179 28.3909 104.707 35.43 110.807 39.4775C113.506 41.3546 116.497 41.9412 119.723 41.9412C129.402 41.9412 133.391 36.1339 134.682 32.5557C135.151 31.3825 135.855 29.2121 135.855 26.0445C135.913 18.9468 132.453 15.0753 130.282 13.3741ZM125.883 37.3658C124.885 37.8937 122.891 38.7149 119.958 38.7149C114.679 38.7149 111.863 35.9579 110.573 34.2568C108.285 31.2065 108.168 27.3937 108.168 26.1618C108.168 18.9468 112.274 15.8378 114.796 14.6646C117.025 13.6674 119.254 13.5501 120.134 13.5501C125.061 13.5501 127.818 15.9551 129.05 17.3043C131.925 20.5892 131.983 24.5194 131.983 26.0445C132.042 32.849 128.346 36.0753 125.883 37.3658ZM95.9665 32.2624C95.7318 32.849 95.1453 33.9635 94.0307 35.1954C92.6816 36.6618 90.3939 38.5389 85.7598 38.5389C78.4274 38.5389 73.7346 33.4356 73.676 26.2205C73.676 18.8881 78.486 13.6088 85.9944 13.6088C91.0978 13.6088 93.6201 16.1311 94.7933 18.0082H99.0754C98.8994 17.5389 98.6648 17.0697 98.4888 16.7764C96.905 14.1954 93.3855 10.2065 85.9944 10.2065C79.3073 10.2065 73.2654 13.3155 70.8017 19.944C70.3911 20.9998 69.6872 23.1702 69.6872 26.1618C69.6872 32.0278 72.2095 37.6591 77.7821 40.3574C81.067 41.9412 84.4106 41.9998 85.5838 41.9998C91.8017 41.9998 94.9693 39.6535 96.729 37.7177C99.0754 35.254 100.131 31.9105 100.307 31.3239H96.3184C96.3184 31.5585 96.1425 31.9105 95.9665 32.2624Z" fill="#1A1A1A"/>
<path d="M61.5344 0C60.0093 0 58.7188 1.23184 58.7188 2.81564C58.7188 4.34078 59.9506 5.63129 61.5344 5.63129C63.0595 5.63129 64.35 4.39944 64.35 2.81564C64.35 1.2905 63.0595 0 61.5344 0Z" fill="#CF263A"/>
</svg>
