<svg id="cytiva_logo" data-name="cytiva logo" xmlns="http://www.w3.org/2000/svg" viewBox="0 0 288 79.77"><defs><style>.cls-1{fill:#18181b;}.cls-2{fill:#00886f;}</style></defs><path class="cls-1" d="M118.49,50.43a5.14,5.14,0,0,1-4.95-2.94,17.34,17.34,0,0,1-1.46-7.71,16.55,16.55,0,0,1,1.52-7.68,5.18,5.18,0,0,1,4.93-2.89,4.37,4.37,0,0,1,3.37,1.26,7.24,7.24,0,0,1,1.63,3.37l10.23-.05a14.66,14.66,0,0,0-5.51-10.21c-2.46-1.9-5.75-2.86-9.76-2.86-5.3,0-9.52,1.75-12.54,5.2s-4.56,8.2-4.56,14.12,1.47,10.49,4.37,13.82,7.11,5,12.51,5c4.4,0,7.94-1.12,10.51-3.33s4.19-5.27,5-9.38h-10a6.69,6.69,0,0,1-1.78,3.1A4.91,4.91,0,0,1,118.49,50.43Z"/><path class="cls-1" d="M196.2,56.9l-1.41-7.68a20.36,20.36,0,0,1-2.51.57,18,18,0,0,1-2.94.22c-3,0-4.47-1.61-4.47-4.79V30.12h10.46V21.93H184.87V13.29H174.36V44.92a23.56,23.56,0,0,0,1,7.14,8.63,8.63,0,0,0,3.57,4.75c1.73,1.14,4.25,1.72,7.48,1.72a29.23,29.23,0,0,0,5.23-.42A32.35,32.35,0,0,0,196.2,56.9Z"/><path class="cls-1" d="M201.08,28.8v29h10.58V21.93H208A6.88,6.88,0,0,0,201.08,28.8Z"/><polygon class="cls-1" points="241.71 21.93 234.17 47.91 226.82 21.93 215.48 21.93 228.38 57.83 239.71 57.83 252.64 21.93 241.71 21.93"/><path class="cls-1" d="M145.21,21.86h-11l14.27,32.59v0s-.61,2-.89,2.86a2.38,2.38,0,0,1-.93,1.39l-.26.23a4.5,4.5,0,0,1-3.12,1,11.45,11.45,0,0,1-1.72-.13,20.7,20.7,0,0,1-2.18-.46l-1.62,7.5A21.06,21.06,0,0,0,145,68.06a10.79,10.79,0,0,0,5.6-1.3,11,11,0,0,0,3.69-3.89c1.91-3.2,15.62-38.72,16.5-41H160.15L153.08,44Z"/><path class="cls-1" d="M277.42,25.27l-.15-.21A9.32,9.32,0,0,0,273,21.7a10.13,10.13,0,0,0-4.34-.89l-.77,0a15.27,15.27,0,0,0-10.4,5.09c-3,3.45-4.56,8.2-4.56,14.12s1.47,10.49,4.38,13.82a13.64,13.64,0,0,0,5.1,3.67,12.16,12.16,0,0,0,4.71,1.13c1,0,2.45-.18,2.47-.18a12.09,12.09,0,0,0,3.44-1.13,12.38,12.38,0,0,0,4.21-3.58l.15-.2v4.26H288V21.93H277.42ZM278,40.69a17.48,17.48,0,0,1-.5,4.34,8.37,8.37,0,0,1-1.83,3.47,6.16,6.16,0,0,1-2.11,1.62,6.78,6.78,0,0,1-2.88.56,6.41,6.41,0,0,1-5.07-2.47c-1.37-1.64-2.06-4.39-2.06-8.19s.68-6.42,2-8.14a6.45,6.45,0,0,1,5.3-2.61,6.09,6.09,0,0,1,4.72,2,8.86,8.86,0,0,1,1.76,3.26,16.63,16.63,0,0,1,.65,5Z"/><path class="cls-1" d="M206.4,6.87a6.08,6.08,0,1,0,6.07,6.07A6.08,6.08,0,0,0,206.4,6.87Z"/><path class="cls-2" d="M0,39.66A40.11,40.11,0,1,0,46.14,0s0,52.69,0,52.89c0,8.34-6.28,16.19-14.62,16.19S16.3,63,16.3,55.46A14.91,14.91,0,0,1,20.65,44.6c3.94-4,11.84-7.9,16.1-13.47,2.7-3.54,3.44-5.87,3.44-9.63A15.1,15.1,0,0,0,25.3,6.2a19.81,19.81,0,0,0-9.19,2.47A28.2,28.2,0,0,0,5.53,19.33,39.81,39.81,0,0,0,0,39.66Z"/></svg>