<?xml version="1.0" encoding="utf-8"?>
<!-- Generator: Adobe Illustrator 22.1.0, SVG Export Plug-In . SVG Version: 6.00 Build 0)  -->
<svg version="1.1" id="Layer_1" xmlns="http://www.w3.org/2000/svg" xmlns:xlink="http://www.w3.org/1999/xlink" x="0px" y="0px"
	 viewBox="0 0 171 35" style="enable-background:new 0 0 171 35;" xml:space="preserve">
<style type="text/css">
	.st0{fill:#44C8F5;}
	.st1{fill:#00A1E4;}
</style>
<polygon id="Shape" class="st0" points="0,0 0,35 38.6,0 "/>
<polygon id="Shape_1_" points="0,0 0,17.5 19.3,0 "/>
<polygon id="Shape_2_" class="st1" points="134.4,7.5 143.5,7.5 138.5,27.5 129.4,27.5 "/>
<polygon id="Shape_3_" class="st1" points="102.2,27.5 110.4,27.5 111.9,21.5 116.5,27.5 126.6,27.5 119.3,17.4 130.6,7.5 
	121.1,7.5 113.8,13.7 115.4,7.5 106.8,7.5 "/>
<polygon id="Shape_4_" class="st1" points="88.1,27.5 93.1,7.5 102.2,7.5 97.2,27.5 "/>
<polygon id="Shape_5_" class="st1" points="142.8,27.5 149.1,27.5 152,16.1 155.8,27.5 165.9,27.5 171,7.5 164.3,7.5 161.4,18.6 
	157.5,7.5 147.9,7.5 "/>
<path class="st1" d="M47.3,22.9c0,0,3.9-0.3,5-4.8c0,0,0.6-3.5-0.7-4.7c0,0-0.9-0.8-2.2-0.8h-3.5l-2.5,10.3H47.3z M33.5,27.5l5.1-20
	h13.7c0,0,9.4,0.7,8.4,10.1c0,0.3-0.5,8.3-10.5,9.9H33.5z"/>
<path class="st1" d="M74.6,19.1L73.7,14l-2.9,5.1H74.6z M68.3,23.7l-2.5,3.8h-6l11.4-20h10.4l3.6,20h-9l-0.7-3.8H68.3z"/>
</svg>
