<svg width="257" height="172" viewBox="0 0 257 172" fill="none" xmlns="http://www.w3.org/2000/svg">
<g clip-path="url(#clip0_5387_28073)">
<path d="M120.812 2.61477C120.23 1.94009 120.344 1.43613 121.214 1.06587C121.214 1.06587 138.459 -6.12155 146.864 -8.30419C147.304 -8.45807 147.775 -8.49524 148.231 -8.41199C148.687 -8.32875 149.112 -8.12798 149.464 -7.82965C149.464 -7.82965 155.804 -2.81708 156.081 -2.45321C156.535 -2.04049 156.59 -1.53582 155.761 -1.28074C155.761 -1.28074 141.118 3.78496 139.749 4.54933C139.749 4.54933 146.982 11.8976 152.587 18.5391L166.409 12.6167C167.359 12.2132 168.128 12.4574 168.804 13.0519L175.425 21.0036C175.672 21.2647 175.831 21.5963 175.88 21.9527C175.908 22.1225 175.879 22.2974 175.797 22.4498C175.714 22.6022 175.584 22.7234 175.425 22.7945C175.425 22.7945 163.104 28.7096 161.126 29.6804C161.126 29.6804 169.937 42.064 173.101 47.9124L188.825 39.0681C189.634 38.6171 190.232 38.7032 190.791 39.3551C190.791 39.3551 196.066 47.7254 197.02 50.4476C197.175 51.234 196.987 51.6056 196.26 52.0616L169.81 68.1391C168.91 68.6394 168 68.4566 167.452 67.6569C167.452 67.6569 147.493 29.7547 120.812 2.61477Z" fill="white"/>
<path d="M141.034 114.229C141.469 115.097 141.266 115.616 140.373 116.214C139.479 116.813 132.483 120.769 132.007 121.015C131.858 121.101 131.695 121.158 131.525 121.18C131.356 121.203 131.183 121.193 131.019 121.149C130.854 121.105 130.7 121.029 130.565 120.925C130.431 120.82 130.319 120.691 130.235 120.543C127.65 115.904 125.181 114.09 121.484 115.981C118.148 117.683 117.28 120.008 119.568 123.975C122.669 129.346 123.744 129.483 131.546 127.803C145.002 124.918 148.412 127.417 153.13 135.835C159.696 147.589 151.895 153.782 146.274 156.724C137.431 161.349 127.797 159.529 123.687 151.915C123.473 151.515 123.416 151.209 123.932 150.757C124.448 150.304 132.128 146.456 132.128 146.456C132.802 146.162 133.399 146.17 133.787 146.815C136.392 151.113 138.537 151.422 141.909 149.597C145.841 147.475 145.364 145.383 143.208 141.827C139.685 136.024 137.901 137.509 127.257 138.916C118.471 140.077 113.357 136.981 108.866 129.801C103.929 121.905 105.054 112.033 114.998 106.127C122.302 101.893 134.388 100.957 141.034 114.229Z" fill="white"/>
<path d="M177.047 102.761C175.535 99.3541 173.968 96.0014 172.398 92.6373L177.047 102.761Z" fill="white"/>
<path d="M165.905 76.9659C165.389 77.3495 165.087 77.9383 165.369 78.5131C171.813 91.6247 180.504 108.151 187.32 129.661C187.506 130.241 187.905 130.334 188.478 130.003C189.747 129.271 203.94 118.225 205.537 116.72C205.787 116.502 205.97 116.218 206.065 115.901C206.159 115.585 206.162 115.249 206.073 114.932C206.073 114.932 204.959 108.974 204.664 108.462C204.636 108.408 204.597 108.359 204.55 108.32C204.503 108.28 204.448 108.251 204.389 108.234C204.33 108.217 204.267 108.211 204.206 108.219C204.145 108.226 204.085 108.246 204.032 108.277C203.837 108.384 203.652 108.509 203.479 108.649C203.479 108.649 195.849 114.622 193.142 116.764C191.682 112.036 190.226 107.644 188.88 104.161C188.88 104.161 197.149 98.3133 198.712 97.0195C198.971 96.8468 199.169 96.5966 199.276 96.3054C199.384 96.0142 199.395 95.6971 199.309 95.4005C199.309 95.4005 197.023 88.6564 196.764 88.2595C196.709 88.1664 196.635 88.0859 196.547 88.0231C196.459 87.9603 196.358 87.9165 196.252 87.8946C196.145 87.8727 196.035 87.8732 195.929 87.896C195.822 87.9187 195.721 87.9633 195.633 88.0268C195.633 88.0268 186.796 94.291 185.319 95.2197C183.338 90.3277 180.31 83.558 179.181 81.2859C179.181 81.2859 189.928 74.3535 191.463 73.2074C192.035 72.8112 192.178 72.4027 192.005 71.7814L188.604 64.5259C188.182 63.6336 187.572 63.4753 186.673 64.0599C186.659 64.0582 167.267 76.074 165.905 76.9659Z" fill="white"/>
<path d="M158.354 94.3778L166.535 89.2856C166.79 89.1323 166.983 88.8954 167.081 88.6162C167.179 88.337 167.176 88.0331 167.072 87.7576L163.062 80.0006C162.671 79.4392 162.085 79.3165 161.435 79.6459L133.427 96.2707C133.152 96.4513 132.952 96.7246 132.864 97.0397C132.776 97.3547 132.805 97.6901 132.947 97.9833L137.26 105.575C137.518 106.085 138.284 106.301 138.882 105.956L147.721 100.616C147.721 100.616 164.003 130.832 168.645 141.899C168.902 142.481 169.373 142.825 170.224 142.331L177.106 137.85C177.268 137.751 177.405 137.617 177.506 137.458C177.608 137.299 177.672 137.119 177.693 136.932C177.709 136.635 177.661 136.339 177.554 136.064C177.554 136.064 169.8 116.494 158.354 94.3778Z" fill="white"/>
<path d="M234.073 76.8777C234.3 84.1254 232.585 88.016 231.388 88.0487C229.194 88.1102 228.442 80.247 228.151 78.0151C228.087 77.6181 228.165 77.2102 228.372 76.863L230.217 74.3722C230.217 74.3722 230.531 74.1551 230.589 74.7966C230.647 75.4381 231.184 78.1996 231.289 78.5873C231.681 80.0331 232.509 79.1304 232.624 77.6484C232.798 75.4176 232.336 70.9 231.562 68.1203C231.206 66.8474 229.771 66.8825 229.415 66.8245C228.706 66.7071 226.949 66.6282 225.221 62.6444C223.309 58.246 217.405 41.5566 221.933 39.5184C223.119 38.9821 226.074 39.9794 229.464 51.2782C229.509 51.4398 229.516 51.6101 229.483 51.7754C229.45 51.9407 229.379 52.0963 229.275 52.2298C229.03 52.6512 228.651 53.2488 228.42 53.2802C228.086 53.3284 227.956 52.9321 227.85 52.6444C227.85 52.6444 226.292 47.0676 225.046 47.787C223.8 48.5063 226.444 56.0046 226.716 56.7003C226.988 57.396 227.2 58.1826 229.244 58.5338C231.561 58.9214 232.242 62.6736 232.614 64.204C232.997 65.8296 233.883 70.8463 234.073 76.8777Z" fill="white"/>
<path d="M218.966 52.1691C219.198 52.6914 219.271 53.2712 219.175 53.8366L218.202 59.6668C217.881 61.5869 217.855 61.5361 217.584 61.6929C217.312 61.8497 217.032 61.0662 217.032 61.0662L211.843 48.3995C211.678 47.793 211.785 47.5404 212.335 47.1469L215.129 45.1654C215.129 45.1654 215.665 44.609 216.065 45.4578C216.466 46.3067 218.966 52.1691 218.966 52.1691Z" fill="white"/>
<path d="M69.7175 131.779C69.1839 132.126 68.8732 132.619 69.3426 133.345C77.79 146.354 89.8696 161.055 97.6944 168.358C100.823 171.279 108.833 174.989 118.495 170.177C123.441 167.711 126.305 161.836 122.306 156.433C117.148 149.474 109.295 139.751 96.3903 119.155C95.9419 118.321 95.1088 117.919 94.0725 118.593L86.8551 122.546C85.7176 123.114 85.5314 123.804 86.1448 124.827C87.7655 127.513 101.083 147.673 111.499 159.469C113.595 161.845 113.64 163.471 111.711 164.487C109.517 165.641 107.183 165.813 104.344 162.576C101.667 159.528 87.622 143.16 78.4818 128.52C78.0745 127.958 77.3279 127.609 76.539 128.153L69.7175 131.779Z" fill="white"/>
<path d="M27.7408 59.234C24.6365 61.8165 23.6079 62.8318 17.5952 68.8023C17.1274 69.3097 16.8784 69.9789 16.9025 70.6642C18.6174 94.6981 30.3658 122.402 41.4652 139.457C41.8355 140.024 42.4282 140.314 43.4272 139.845C43.4272 139.845 50.2569 136.136 53.7815 134.299C63.1987 129.385 66.0324 118.075 61.1439 107.536C54.9505 94.1848 48.8586 82.3616 44.1503 67.8529C39.4038 53.2149 30.8476 56.6501 27.7408 59.234ZM33.7569 75.3287C37.2743 87.6307 44.1797 103.39 47.5265 110.153C50.8732 116.917 49.6295 118.613 48.7624 120.006C47.8953 121.399 43.9847 123.304 43.9847 123.304C41.2416 118.553 30.2007 97.559 25.3754 73.8755C25.8306 73.4612 26.0905 73.2552 28.7239 71.106C32.1532 68.3095 33.7569 75.3287 33.7569 75.3287Z" fill="white"/>
<path d="M121.574 94.1678C105.384 77.3716 78.0142 47.778 65.0105 32.4546C64.8074 32.1893 64.5074 32.0143 64.1747 31.967C63.842 31.9198 63.5029 32.0041 63.2298 32.2019C60.6432 33.8105 57.6333 35.8084 55.327 37.5055C55.0024 37.7444 54.7458 38.0635 54.5829 38.4308C54.4201 38.7982 54.3567 39.2009 54.399 39.5987C57.0617 72.8018 68.0048 110.437 72.5642 122.006C72.9814 123.062 74.0153 123.19 74.7797 122.896L85.5578 116.927C85.5578 116.927 87.0264 116.3 86.3795 114.477C86.3795 114.477 80.8464 98.5976 80.6487 97.2136L93.7208 89.5084L106.136 103.364C106.478 103.755 106.959 104 107.48 104.046C108.05 104.086 108.618 103.931 109.091 103.607L121.01 96.7421C121.796 96.3017 122.466 95.0916 121.574 94.1678ZM75.9615 82.0507C75.9615 82.0507 69.1677 62.0884 68.1669 56.3378C68.1669 56.3378 81.4503 74.868 83.5425 77.5191L75.9615 82.0507Z" fill="white"/>
<path d="M144.872 82.9097C145.224 82.6758 145.5 82.344 145.665 81.9558C145.83 81.5677 145.876 81.1407 145.798 80.7283C134.558 44.035 123.304 18.7459 115.99 4.92796C115.59 4.17129 114.801 3.93861 113.937 4.24962C108.324 6.83182 103.233 9.30402 103.233 9.30402C103.123 9.36733 103.002 9.41088 102.892 9.47419C102.237 9.85258 101.992 10.4814 102.316 11.1238C106.885 20.188 117.059 44.7573 120.288 52.9852C114.264 46.3447 98.9807 29.1439 88.3352 18.5668C88.1106 18.3084 87.8076 18.1298 87.4714 18.0575C87.1351 17.9853 86.7835 18.0233 86.469 18.1659C84.7647 18.9029 75.1168 24.7695 75.1168 24.7695C74.1827 25.4536 74.2785 26.1951 74.6648 26.6109C86.166 39.2687 107.385 61.7191 131.837 88.6373C132.486 89.3525 133.194 89.543 134.264 89.0998C134.271 89.1058 143.03 83.9896 144.872 82.9097Z" fill="white"/>
<path d="M93.0218 169.208C87.7719 163.056 83.3054 159.412 78.3039 158.829C79.0985 155.601 79.0933 153.866 74.1421 147.512C69.419 141.46 61.8749 136.215 53.3129 140.302C51.2419 141.29 49.2693 142.334 45.6201 144.128C45.2658 144.349 45.0648 144.708 45.3264 145.081C49.7805 151.449 61.6599 168.192 80.9477 181.905C81.1891 182.096 81.4721 182.227 81.7744 182.289C82.0767 182.351 82.39 182.342 82.6893 182.263C82.6893 182.263 89.6133 180.57 91.2162 179.928C95.2914 178.296 98.2734 175.369 93.0218 169.208ZM57.1469 149.319C60.3775 147.767 62.8387 146.603 66.7745 151.492C70.9968 156.739 70.0782 157.79 65.4846 159.513C63.202 157.545 57.1469 149.319 57.1469 149.319ZM81.7008 175.59C78.8589 173.447 71.3517 165.958 71.3517 165.958C71.3517 165.958 74.9362 164.293 77.0547 164.97C79.3869 165.718 82.3431 168.726 83.7352 170.211C86.4611 173.171 86.7169 174.195 81.7008 175.59Z" fill="white"/>
<path d="M222.474 33.4004C220.559 30.6363 218.482 27.9876 216.253 25.4681C214.668 23.7231 214.668 23.7231 214.43 22.9318C213.665 20.5039 212.608 18.1789 211.283 16.007C209.931 13.9424 206.21 11.6921 205.662 11.3659C205.115 11.0398 205.361 11.8101 205.361 11.8101L207.549 16.694C204.609 13.5247 196.699 7.81201 196.699 7.81201C194.666 1.72268 189.896 -4.02865 181.968 -8.59831C174.04 -13.168 169.542 -12.9482 167.733 -11.9036C165.924 -10.8591 167.86 -7.83838 167.86 -7.83838C171.733 -1.13131 188.837 8.92702 188.837 8.92702C190.388 17.5472 192.618 22.0943 196.803 28.3641C201.751 35.7836 209.997 43.0507 214.42 41.2048C218.254 39.6038 217.532 34.8544 217.381 32.8773C217.88 33.3396 219.387 35.1601 219.924 35.7851C220.461 36.4102 220.64 36.3591 220.995 36.1048C221.63 35.6656 222.218 35.1627 222.751 34.6041C223.062 34.263 222.879 33.9802 222.474 33.4004ZM187.744 1.69228C182.884 -1.00406 176.397 -5.82929 178.129 -6.58607C179.102 -7.0256 184.653 -5.1734 187.744 1.69228ZM210.345 29.9854C208.195 31.227 204.615 27.1038 202.271 23.5343C200.063 20.1699 198.907 15.9807 198.907 15.9807C202.451 18.4357 206.59 21.8474 210.829 25.7942C212.099 29.1838 210.345 29.9854 210.345 29.9854Z" fill="white"/>
<path d="M200.429 55.2259C192.08 60.6552 191.748 60.8671 191.828 60.8044C191.172 61.2519 190.95 61.7883 191.255 62.4192C198.141 76.6484 205.64 96.0026 208.348 113.135C208.459 113.822 208.791 113.903 209.378 113.439L213.514 109.668C213.738 109.476 213.913 109.233 214.026 108.961C214.138 108.689 214.185 108.395 214.161 108.103C214.161 108.103 213.473 101.058 210.141 88.5935C210.141 88.5935 211.52 87.4316 211.901 87.136C215.291 93.4104 217.89 98.953 219.183 103.017C219.32 103.438 219.548 103.649 219.932 103.296C220.278 102.981 223.12 99.8451 223.12 99.8451C223.738 99.1887 223.771 98.6068 223.59 97.7299C223.409 96.853 220.52 87.8661 216.233 80.8552C216.994 78.7201 218.98 73.1814 215.128 63.7131C211.536 54.8619 206.857 51.0442 200.429 55.2259ZM210.014 68.2528C212.789 75.4086 212.266 77.0805 207.544 80.1923C206.196 75.804 202.193 65.9357 202.193 65.9357C203.087 65.2244 204.02 64.5636 204.988 63.9567C206.394 63.1349 207.903 62.8072 210.014 68.2528Z" fill="white"/>
</g>
<defs>
<clipPath id="clip0_5387_28073">
<rect width="210" height="150" fill="white" transform="translate(0 68) rotate(-30)"/>
</clipPath>
</defs>
</svg>
