<svg width="200" height="73" viewBox="0 0 200 73" fill="none" xmlns="http://www.w3.org/2000/svg">
<path d="M184.663 33.3576C183.54 33.3576 182.643 34.3185 182.643 35.4649V35.4773C182.643 36.6237 183.524 37.5763 184.659 37.5763C185.782 37.5763 186.675 36.6155 186.679 35.469V35.4567C186.679 34.3102 185.802 33.3576 184.663 33.3576ZM186.444 35.4649C186.444 36.4876 185.667 37.3454 184.659 37.3413C183.639 37.3413 182.873 36.4959 182.873 35.4732V35.4608C182.873 34.4381 183.651 33.5803 184.663 33.5845C185.682 33.5845 186.448 34.4298 186.444 35.4526V35.4649Z" fill="#3EB1C8"/>
<path d="M185.135 35.6959C185.413 35.5886 185.587 35.3577 185.587 35.0319C185.587 34.5865 185.25 34.3556 184.798 34.3556H184.067C183.952 34.3556 183.869 34.4505 183.869 34.5618V36.3227C183.869 36.4423 183.948 36.5412 184.067 36.5412C184.171 36.5412 184.266 36.4464 184.266 36.3227V35.7577H184.683L185.214 36.434C185.262 36.4959 185.317 36.5412 185.401 36.5412C185.504 36.5412 185.587 36.4464 185.587 36.335C185.587 36.2856 185.575 36.2402 185.528 36.1783L185.135 35.6959ZM184.766 35.4154H184.266V34.7144H184.766C185.032 34.7144 185.183 34.834 185.183 35.0649C185.183 35.2711 185.032 35.4154 184.766 35.4154Z" fill="#3EB1C8"/>
<path d="M20.3016 24.3223C20.3016 15.1798 16.0952 11.423 7.1508 11.423H0V37.234C0 37.234 4.22222 37.234 7.14682 37.234C15.5675 37.2382 20.3016 33.968 20.3016 24.3223ZM16.4643 24.3223C16.4643 31.2462 13.1389 34.269 7.73413 34.269H3.66667V14.4004H7.73413C13.2302 14.3963 16.4643 17.4892 16.4643 24.3223ZM56.1944 37.2382C56.1944 37.2382 54.5119 37.2382 53.75 37.2382C52.9524 37.2382 52.627 36.768 52.627 36.1124V24.644C52.627 21.547 51.0437 20.4459 48.5873 20.4459C46.6151 20.4459 44.8849 21.7491 44.3214 22.178V37.2423H40.754V17.8356C40.754 17.8356 41.4802 17.8356 42.4127 17.8356C44.0437 17.8356 44.123 18.8913 44.2619 19.8109H44.3056C44.9762 19.2253 46.5714 17.7325 49.8294 17.7325C53.9921 17.7325 56.1905 19.7696 56.1905 24.6852V37.2382H56.1944ZM69.123 35.3989C69.123 36.9289 67.6667 37.6629 65.2222 37.6629C62.1151 37.6629 60.369 35.9227 60.369 32.871C60.369 31.304 60.369 20.9532 60.369 20.9532H57.1587V20.0212C57.1587 19.3408 57.2421 19.1304 57.7302 18.9201C59.4445 18.1984 60.7103 16.4623 61.6865 14.2973C61.8889 13.8313 62.2579 13.5756 62.7897 13.5756H63.3056C63.631 13.5756 63.8492 13.7035 63.8492 14.0829V18.1531H69.4087V19.8562C69.4087 20.549 69.0516 20.949 68.3611 20.949H63.9325C63.9325 20.949 63.9325 31.1225 63.9325 31.9308C63.9325 33.9474 64.7817 34.9371 66.4008 34.9371C67.623 34.9371 68.6032 34.4917 68.8968 34.2896C68.9921 34.5041 69.123 34.9123 69.123 35.3989ZM81.631 35.6464C81.6706 36.0093 81.9881 37.6505 83.6111 37.6505C84.6032 37.6505 85.2897 37.3165 85.4405 37.2134C85.2738 36.6979 84.9524 35.0567 84.9524 32.4793V24.9698C84.9524 20.3511 83.0159 17.7325 77.6746 17.7325C74.1786 17.7325 71.1468 19.0892 71.1468 20.8707C71.1468 21.6666 71.5754 22.2604 71.9682 22.545C72.4008 22.1078 73.9762 20.4501 77.1032 20.4501C79.9167 20.4501 81.3929 22.0006 81.3929 24.3966V26.6193H78.0595C73.7897 26.6193 70.2064 27.6544 70.2064 32.0215C70.2064 35.2464 72.4087 37.6629 76.6111 37.6629C79.3333 37.6629 81.2738 36.0959 81.631 35.6464ZM81.3929 33.1432C81.0317 33.5968 79.6032 34.9659 77.5714 34.9659C75.2064 34.9659 73.881 33.6092 73.881 31.8277C73.881 29.8277 75.6071 28.9575 78.7936 28.9575C80.3016 28.9575 81.3929 28.9575 81.3929 28.9575V33.1432ZM30.9048 17.7325C25.6825 17.7325 22.1706 21.0398 22.1706 27.6956C22.1706 33.8113 25.6825 37.6629 31.2857 37.6629C35.7817 37.6629 37.8254 36.166 37.8254 34.4958C37.8254 33.8195 37.619 33.4319 37.4603 33.2628C37.1032 33.5143 34.9325 34.8628 32.0437 34.8628C28.1429 34.8628 25.8413 32.5081 25.8413 28.4998H38.246C38.246 28.4998 38.246 26.8874 38.246 26.1698C38.25 20.3181 35.6389 17.7325 30.9048 17.7325ZM34.6587 25.9141H25.8452C25.8452 23.7079 26.7024 20.4501 30.7024 20.4501C33.1508 20.4501 34.6587 22.0749 34.6587 25.9141Z" fill="#1D428A"/>
<path d="M175.306 21.7738C175.306 24.6151 175.306 29.605 175.306 31.0854C175.306 33.5432 176.655 34.2608 177.944 34.2608C179.782 34.2608 180.571 33.8443 180.786 33.737C180.841 33.9185 180.901 34.3226 180.901 34.7144C180.901 36.0835 180.115 37.6547 176.492 37.6547C171.964 37.6547 169.984 35.667 169.984 31.3411C169.984 29.0936 169.984 21.7697 169.984 21.7697H166.798C166.798 21.7697 166.798 21.114 166.798 20.747C166.798 19.8769 167.131 19.0727 167.936 18.7263C170.226 17.7448 171.476 16.1737 172.603 14.2231C172.905 13.6994 173.448 13.5715 174.079 13.5715H174.452C175.032 13.5715 175.306 13.8808 175.306 14.3674V18.1613H181.123C181.123 18.1613 181.123 19.5098 181.123 20.1037C181.123 21.5181 180.369 21.7697 179.103 21.7697C178 21.7738 176.853 21.7738 175.306 21.7738Z" fill="#3EB1C8"/>
<path d="M130.373 30.9617V18.1572H124.786V32.1081C124.131 32.7432 123.012 33.2545 121.873 33.2545C119.956 33.2545 119.341 32.3638 119.341 30.1575V20.9243C119.341 19.5387 118.944 18.1572 115.976 18.1572C114.742 18.1572 113.794 18.1572 113.794 18.1572V31.2215C113.794 35.6752 115.96 37.667 119.917 37.667C123.135 37.667 124.933 35.6175 125.298 35.0814C125.369 35.5062 125.857 37.5722 128.286 37.5722C129.77 37.5722 130.798 37.0691 131.024 36.9206C130.722 35.9722 130.373 34.0422 130.373 30.9617Z" fill="#3EB1C8"/>
<path d="M158.917 25.0275C157.317 24.6852 156.679 24.0378 156.675 22.9986C156.671 21.98 157.615 21.1181 159.512 21.1181C162.667 21.1181 164.484 22.4914 164.956 22.8873C165.214 22.5697 165.532 22.0006 165.532 21.1223C165.532 18.45 161.857 17.6046 159.083 17.6046C154.512 17.6046 151.329 19.9593 151.329 23.4357C151.329 26.6688 152.655 28.541 156.329 29.3204C157.044 29.473 158.595 29.7988 159.131 29.9142C161.135 30.3431 161.52 31.2586 161.52 32.0793C161.52 32.9453 160.762 34.2731 158.087 34.2649C154.242 34.2566 152.611 31.6421 152.111 30.7885C151.512 31.2132 150.829 31.972 150.829 33.1226C150.829 36.0051 153.794 37.6547 158.321 37.6547C163.381 37.6547 166.659 35.0443 166.659 31.4277C166.659 28.8091 165.171 26.3513 161.607 25.5966C161.325 25.5389 159.425 25.1347 158.917 25.0275Z" fill="#3EB1C8"/>
<path d="M149.452 26.7678C149.452 20.7882 146.516 17.6046 141.619 17.6046C136.111 17.6046 132.48 21.0027 132.48 27.576C132.48 33.6216 136.278 37.6629 142.583 37.6629C147.091 37.6629 148.782 35.9309 148.782 34.1288C148.782 33.4525 148.607 32.8422 148.532 32.6236C148.131 32.9081 146.377 34.269 143.536 34.269C139.758 34.269 138.059 30.9988 138.059 28.6194H149.46C149.452 28.6152 149.452 27.1142 149.452 26.7678ZM137.905 25.4234C137.905 22.5821 139.294 20.9985 141.25 20.9985C143.413 20.9985 144.516 22.413 144.516 25.4234H137.905Z" fill="#3EB1C8"/>
<path d="M114.841 37.7949C111.222 37.7949 109.429 36.5124 107.798 34.6195C110.183 32.2483 111.23 28.673 111.23 24.5615C111.23 15.4891 106.325 11.4601 99.3095 11.4601C91.5555 11.4601 87.373 16.2108 87.373 24.5615C87.373 32.9494 91.6032 37.6547 99.3095 37.6547C101.306 37.6547 103.02 37.3413 104.48 36.768C106.067 39.0774 108.242 41.696 111.139 41.696C113.262 41.696 114.841 40.2403 114.841 37.8732V37.7949ZM99.3135 33.3247C96.9524 33.3247 95.4047 32.2525 94.4365 30.6607C95.1349 30.3349 96.0793 29.9802 97.2936 29.9802C99.2777 29.9802 100.583 31.1968 101.798 32.8257C101.087 33.1432 100.266 33.3247 99.3135 33.3247ZM104.353 30.3266C102.77 28.5905 100.885 27.2461 98.0238 27.2461C96.1468 27.2461 94.6587 27.774 93.5238 28.4627C93.1904 27.2379 93.0516 25.8894 93.0516 24.5615C93.0516 20.3676 94.4087 15.7943 99.3135 15.7943C104.202 15.7943 105.56 20.4501 105.56 24.5615C105.56 26.677 105.206 28.7348 104.353 30.3266Z" fill="#3EB1C8"/>
<path d="M194.853 0V1.00622C194.853 2.54853 196.004 3.79805 197.429 3.79805C198.849 3.79805 200 2.54853 200 1.00622V0H194.853Z" fill="#1D428A"/>
<path d="M193.468 0V1.00622C193.468 2.54853 192.317 3.79805 190.897 3.79805C189.476 3.79805 188.321 2.54853 188.321 1.00622V0H193.468Z" fill="#006298"/>
<path d="M194.853 6.04965V7.05587C194.853 8.59818 196.004 9.84769 197.429 9.84769C198.849 9.84769 200 8.59818 200 7.05587V6.04965H194.853Z" fill="#006298"/>
<path d="M193.468 6.04965V7.05587C193.468 8.59818 192.317 9.84769 190.897 9.84769C189.476 9.84769 188.321 8.59818 188.321 7.05587V6.04965H193.468Z" fill="#0085AD"/>
<path d="M194.853 12.1034V13.1096C194.853 14.652 196.004 15.9015 197.429 15.9015C198.849 15.9015 200 14.652 200 13.1096V12.1034H194.853Z" fill="#0085AD"/>
<path d="M181.79 1.00622C181.79 2.54853 182.94 3.79805 184.365 3.79805C185.786 3.79805 186.94 2.54853 186.94 1.00622V0H181.794V1.00622H181.79Z" fill="#0085AD"/>
<path d="M193.468 12.1034V13.1096C193.468 14.652 192.317 15.9015 190.897 15.9015C189.476 15.9015 188.321 14.652 188.321 13.1096V12.1034H193.468Z" fill="#3EB1C8"/>
<path d="M194.853 18.1572V19.1634C194.853 20.7057 196.004 21.9553 197.429 21.9553C198.849 21.9553 200 20.7057 200 19.1634V18.1572H194.853Z" fill="#3EB1C8"/>
<path d="M181.79 7.05587C181.79 8.59818 182.94 9.84769 184.365 9.84769C185.786 9.84769 186.94 8.59818 186.94 7.05587V6.04965H181.794V7.05587H181.79Z" fill="#3EB1C8"/>
<path d="M175.262 1.00622C175.262 2.54853 176.413 3.79805 177.837 3.79805C179.258 3.79805 180.409 2.54853 180.409 1.00622V0H175.262V1.00622Z" fill="#3EB1C8"/>
<path d="M6.98812 68.1586C6.68257 67.903 6.48019 67.5401 6.38495 67.0741C5.90876 67.5854 5.38098 67.9813 4.80558 68.2658C4.23019 68.5504 3.67066 68.6906 3.12304 68.6906C2.20638 68.6906 1.48019 68.4555 0.940503 67.9896C0.40082 67.5194 0.130981 66.8967 0.130981 66.1132C0.130981 64.7482 1.04765 63.7956 2.87701 63.2554L6.32145 62.2327V61.742C6.32145 60.7481 6.10717 60.0471 5.68654 59.6429C5.26193 59.2388 4.73019 59.0367 4.08733 59.0367C3.56749 59.0367 3.13892 59.2223 2.80559 59.5893C2.46829 59.9605 2.32939 60.4842 2.38495 61.1687L2.40479 61.4244L1.54368 61.5523C1.26987 61.5399 1.05162 61.4285 0.888919 61.2223C0.726221 61.0162 0.642884 60.7729 0.642884 60.4883C0.642884 60.1337 0.76987 59.7749 1.02384 59.412C1.27781 59.0491 1.67463 58.7439 2.21431 58.4965C2.754 58.2449 3.43257 58.1254 4.254 58.1254C5.45638 58.1254 6.41669 58.4223 7.13495 59.0202C7.8532 59.6182 8.21035 60.6038 8.21035 61.9811V66.2864C8.21035 66.6988 8.28177 66.9957 8.42463 67.1689C8.56749 67.3421 8.75003 67.4328 8.96828 67.4328C9.14686 67.4328 9.32939 67.3792 9.52384 67.2638L9.68654 67.9029C9.22225 68.3277 8.69447 68.5421 8.10717 68.5421C7.66669 68.5421 7.29765 68.4184 6.98812 68.1586ZM2.44447 67.0864C2.70241 67.3792 3.07146 67.5236 3.55161 67.5236C3.93257 67.5236 4.37701 67.404 4.88495 67.173C5.38892 66.938 5.86907 66.6081 6.32145 66.1792V63.1977L3.49209 64.0925C3.02781 64.2327 2.67066 64.4884 2.42463 64.8472C2.1786 65.2101 2.05558 65.606 2.05558 66.0307C2.05558 66.4431 2.18654 66.7936 2.44447 67.0864Z" fill="#003946"/>
<path d="M15.5516 67.3091L15.3889 63.9647L16.0873 63.8575C16.4564 65.0781 16.9723 66.0019 17.6349 66.6287C18.2976 67.2514 19.1508 67.5648 20.1865 67.5648C21.2659 67.5648 22.1151 67.3339 22.7302 66.872C23.3453 66.4101 23.6548 65.7586 23.6548 64.9214C23.6548 64.2822 23.4286 63.7503 22.9762 63.3255C22.5238 62.9008 21.881 62.5007 21.0476 62.1337L18.9365 61.1935C17.8849 60.7234 17.0556 60.179 16.4564 59.5646C15.8532 58.946 15.5556 58.1418 15.5556 57.1439C15.5556 56.4346 15.7461 55.7789 16.131 55.1851C16.5119 54.5871 17.0556 54.117 17.7619 53.7788C18.4643 53.4366 19.2619 53.2675 20.1508 53.2675C21.0397 53.2675 21.8334 53.3623 22.5278 53.5562C23.2262 53.7459 23.9008 54.051 24.5596 54.4634L24.7024 57.3831L24.0675 57.5109C23.7262 56.4593 23.2183 55.6758 22.5516 55.1686C21.881 54.6572 21.0834 54.4015 20.1508 54.4015C19.373 54.4015 18.7064 54.616 18.1508 55.0407C17.5953 55.4655 17.3215 56.0511 17.3215 56.7851C17.3215 57.3542 17.5159 57.8243 17.9048 58.1913C18.2937 58.5625 18.873 58.9171 19.6389 59.2594L21.627 60.1337C22.4326 60.4883 23.1032 60.8388 23.6389 61.1894C24.1707 61.5399 24.6111 61.9853 24.9603 62.5337C25.3095 63.0822 25.4842 63.7544 25.4842 64.5462C25.4842 65.3297 25.2619 66.0349 24.8175 66.6658C24.373 67.3009 23.7342 67.7957 22.9008 68.1586C22.0675 68.5215 21.0953 68.703 19.9881 68.703C18.3254 68.6947 16.8492 68.2329 15.5516 67.3091Z" fill="#003946"/>
<path d="M28.631 67.6596C28.1111 66.971 27.8532 65.8947 27.8532 64.4307V60.1914C27.8532 59.5811 27.5714 59.2388 27.0119 59.1687L26.4167 59.0821V58.4429L29.2262 58.2491H29.7381V64.2822C29.7381 65.3338 29.8968 66.0844 30.2103 66.5297C30.5238 66.9751 31.0556 67.2019 31.8095 67.2019C32.2183 67.2019 32.6746 67.0699 33.1746 66.7978C33.6746 66.5256 34.127 66.0885 34.5397 65.4782V60.1955C34.5397 59.5852 34.258 59.2429 33.6984 59.1728L33.1032 59.0862V58.447L35.9127 58.2532H36.4246V66.2864C36.4246 66.8967 36.7064 67.2308 37.2659 67.2885L38.0238 67.3751V67.9277L35.8691 68.4391H34.6191V66.604C34.1667 67.2596 33.6349 67.771 33.0199 68.138C32.4048 68.5092 31.7738 68.6906 31.1349 68.6906C29.9881 68.6947 29.1508 68.3483 28.631 67.6596Z" fill="#003946"/>
<path d="M46.2897 60.2863C45.9762 59.8409 45.4405 59.6141 44.6905 59.6141C44.2818 59.6141 43.8254 59.7501 43.3254 60.0182C42.8254 60.2904 42.3731 60.7275 41.9604 61.3378V66.707C41.9604 67.2885 42.254 67.6225 42.8413 67.7091L43.4366 67.7957V68.4349H38.5953V67.7957L39.1905 67.7091C39.7778 67.6225 40.0715 67.2926 40.0715 66.707V60.5048C40.0715 60.2079 40 59.977 39.8572 59.812C39.7143 59.6471 39.4802 59.5398 39.1508 59.4821L38.6389 59.3955V58.8388L41.2421 58.3274H41.9604V60.0759C42.4127 59.4656 42.9365 58.9831 43.5278 58.6367C44.1231 58.2862 44.7342 58.113 45.3651 58.113C46.5119 58.113 47.3453 58.4553 47.8651 59.1481C48.385 59.8368 48.6429 60.9131 48.6429 62.377V66.7029C48.6429 67.2844 48.9365 67.6184 49.5238 67.705L50.1191 67.7916V68.4308H45.2778V67.7916L45.8731 67.705C46.4604 67.6184 46.754 67.2885 46.754 66.7029V62.5255C46.7619 61.4822 46.6032 60.7358 46.2897 60.2863Z" fill="#003946"/>
<path d="M55.4961 67.7545L56.3969 67.6473C56.7659 67.606 57.0358 67.4658 57.2064 67.2308C57.377 66.9957 57.4643 66.7029 57.4643 66.3483V55.6098C57.4643 55.2552 57.377 54.9583 57.2064 54.7273C57.0358 54.4923 56.7659 54.3562 56.3969 54.3108L55.4961 54.2036V53.519H61.4009V54.2036L60.5001 54.3108C60.131 54.3562 59.8612 54.4923 59.6905 54.7273C59.5199 54.9624 59.4326 55.2552 59.4326 55.6098V67.3297H63.6786C64.4723 67.3297 65.0834 67.2101 65.5159 66.9792C65.9485 66.7441 66.2858 66.3936 66.5318 65.9235C66.7778 65.4534 67.0358 64.7523 67.3096 63.8162L68.008 63.9441L67.3731 68.439H55.5001V67.7545H55.4961Z" fill="#003946"/>
<path d="M69.1548 67.7999L69.75 67.7133C70.3373 67.6267 70.631 67.2968 70.631 66.7112V60.5089C70.631 60.212 70.5596 59.9811 70.4167 59.8161C70.2738 59.6512 70.0397 59.544 69.7104 59.4862L69.1984 59.3996V58.8429L71.8016 58.3315H72.5199V66.707C72.5199 67.2885 72.8135 67.6225 73.4008 67.7091L73.9961 67.7957V68.4349H69.1548V67.7999ZM70.6905 53.8943C70.9365 53.6469 71.2302 53.5232 71.5715 53.5232C71.9127 53.5232 72.2064 53.651 72.4524 53.9067C72.6984 54.1624 72.8215 54.4675 72.8215 54.8222C72.8215 55.1768 72.6984 55.482 72.4524 55.7377C72.2064 55.9933 71.9127 56.1212 71.5715 56.1212C71.2302 56.1212 70.9365 55.9933 70.6905 55.7377C70.4445 55.482 70.3215 55.1768 70.3215 54.8222C70.3215 54.451 70.4445 54.1417 70.6905 53.8943Z" fill="#003946"/>
<path d="M76.9048 54.95C77.2461 54.1954 77.6865 53.651 78.2262 53.3087C78.7659 52.9665 79.3453 52.7974 79.9603 52.7974C80.6707 52.7974 81.2183 52.9623 81.5992 53.2881C81.9842 53.6139 82.1746 53.985 82.1746 54.3974C82.1746 54.7809 82.0318 55.0944 81.7421 55.3377L80.7778 55.4655C80.6667 54.884 80.4842 54.451 80.2262 54.1665C79.9643 53.8819 79.6707 53.7417 79.3453 53.7417C79.004 53.7417 78.7421 53.9479 78.5556 54.3603C78.373 54.7727 78.2778 55.3541 78.2778 56.1047V58.3439H80.9445V59.412H78.2778V66.7235C78.2778 67.305 78.5715 67.639 79.1588 67.7256L79.754 67.8122V68.4514H74.9167V67.8122L75.5119 67.7256C76.0992 67.639 76.3929 67.3091 76.3929 66.7235V59.4037H74.6508V58.5089L76.3929 58.3604V57.8037C76.3929 56.6532 76.5635 55.7006 76.9048 54.95Z" fill="#003946"/>
<path d="M84.123 68.0638C83.373 67.6431 82.7619 67.0411 82.2977 66.2534C81.8334 65.4658 81.5992 64.5462 81.5992 63.4946C81.5992 62.5873 81.7897 61.7172 82.1746 60.8966C82.5596 60.0718 83.1111 59.4037 83.8373 58.8924C84.5635 58.381 85.4167 58.1254 86.4008 58.1254C87.3453 58.1254 88.1588 58.3233 88.8532 58.7233C89.5437 59.1192 90.0715 59.6635 90.4326 60.3522C90.7937 61.0409 90.9643 61.8121 90.9365 62.6657V63.1977H83.5715C83.5715 64.0925 83.7223 64.8472 84.0238 65.4658C84.3254 66.0843 84.7262 66.5503 85.2342 66.8637C85.7381 67.1772 86.2937 67.3339 86.8969 67.3339C87.5397 67.3339 88.1707 67.1607 88.7937 66.8101C89.4167 66.4596 89.9604 65.9689 90.4246 65.3297L91.1231 65.8823C90.6588 66.7936 90.008 67.4864 89.1746 67.9731C88.3413 68.4555 87.4603 68.6947 86.5278 68.6947C85.6746 68.6947 84.873 68.4844 84.123 68.0638ZM88.881 62.1502C88.8651 61.1976 88.6191 60.4594 88.1429 59.9357C87.6627 59.412 87.0715 59.1481 86.3572 59.1481C85.6469 59.1481 85.0556 59.4285 84.5834 59.9893C84.1111 60.5502 83.8016 61.2718 83.6508 62.1502H88.881Z" fill="#003946"/>
<path d="M99.3572 68.0638C98.6072 67.6431 97.9961 67.0411 97.5318 66.2534C97.0675 65.4658 96.8334 64.5462 96.8334 63.4946C96.8334 62.5873 97.0239 61.7172 97.4088 60.8966C97.7937 60.0718 98.3453 59.4037 99.0715 58.8924C99.7977 58.381 100.651 58.1254 101.635 58.1254C102.552 58.1254 103.31 58.2614 103.913 58.5419C104.516 58.8182 104.956 59.1563 105.234 59.5563C105.512 59.9563 105.655 60.3399 105.655 60.7069C105.655 61.0203 105.571 61.2842 105.397 61.4945C105.222 61.7048 104.996 61.8203 104.71 61.8368L103.766 61.709L103.806 61.1976C103.861 60.5873 103.671 60.0924 103.23 59.7172C102.794 59.3419 102.226 59.1522 101.528 59.1522C100.968 59.1522 100.484 59.3419 100.071 59.7172C99.6627 60.0924 99.3453 60.5914 99.127 61.21C98.9088 61.8286 98.7977 62.4925 98.7977 63.2018C98.7977 64.0967 98.9485 64.8513 99.25 65.4699C99.5516 66.0885 99.9524 66.5545 100.46 66.8679C100.964 67.1813 101.52 67.338 102.123 67.338C102.726 67.338 103.321 67.1648 103.917 66.8143C104.512 66.4637 105.02 65.973 105.444 65.3338L106.143 65.8864C105.691 66.7978 105.068 67.4906 104.278 67.9772C103.484 68.4597 102.643 68.6989 101.758 68.6989C100.913 68.6947 100.111 68.4844 99.3572 68.0638Z" fill="#003946"/>
<path d="M109.365 68.0225C108.599 67.5772 108.008 66.9627 107.591 66.1792C107.175 65.3998 106.964 64.5173 106.964 63.5399C106.964 62.5461 107.175 61.6347 107.599 60.81C108.024 59.9852 108.639 59.3336 109.444 58.847C110.25 58.3645 111.194 58.1254 112.274 58.1254C113.23 58.1254 114.079 58.3522 114.825 58.8058C115.571 59.2594 116.147 59.8821 116.56 60.6698C116.968 61.4574 117.175 62.344 117.175 63.3214C117.175 64.2864 116.964 65.1771 116.552 65.9936C116.135 66.8101 115.536 67.4658 114.758 67.9566C113.98 68.4473 113.064 68.6906 112.012 68.6906C111.012 68.6947 110.131 68.4679 109.365 68.0225ZM109.365 65.6142C109.651 66.2617 110.04 66.7607 110.524 67.1153C111.008 67.47 111.552 67.6473 112.155 67.6473C113.127 67.6473 113.877 67.2555 114.409 66.4761C114.94 65.6926 115.21 64.608 115.21 63.2142C115.21 62.4471 115.064 61.7502 114.77 61.1275C114.476 60.5048 114.079 60.0141 113.579 59.6677C113.079 59.3213 112.524 59.1439 111.909 59.1439C110.992 59.1439 110.27 59.5151 109.734 60.2656C109.202 61.012 108.937 62.043 108.937 63.3667C108.937 64.2204 109.079 64.9668 109.365 65.6142Z" fill="#003946"/>
<path d="M118.04 67.7999L118.635 67.7133C119.222 67.6267 119.516 67.2968 119.516 66.7112V60.5089C119.516 60.212 119.444 59.9811 119.302 59.8161C119.159 59.6512 118.925 59.544 118.595 59.4862L118.083 59.3996V58.8429L120.687 58.3316H121.405V60.1007C121.829 59.4904 122.321 59.0079 122.881 58.6532C123.44 58.2986 124.028 58.1212 124.643 58.1212C125.448 58.1212 126.103 58.3316 126.603 58.7604C127.103 59.1852 127.433 59.7419 127.599 60.4223C128.036 59.7254 128.548 59.1687 129.139 58.7481C129.726 58.3316 130.341 58.1212 130.984 58.1212C131.996 58.1212 132.762 58.447 133.282 59.1027C133.802 59.7584 134.06 60.5584 134.06 61.511V66.7112C134.06 67.2926 134.353 67.6267 134.94 67.7133L135.536 67.7999V68.4391H130.694V67.7999L131.29 67.7133C131.877 67.6267 132.171 67.2968 132.171 66.7112V62.5337C132.171 61.4822 132.036 60.7316 131.77 60.2863C131.504 59.8409 131.048 59.6141 130.405 59.6141C130.02 59.6141 129.579 59.7708 129.071 60.0842C128.563 60.3976 128.115 60.8718 127.718 61.511V66.7112C127.718 67.2926 128.012 67.6267 128.599 67.7133L129.194 67.7999V68.4391H124.353V67.7999L124.948 67.7133C125.536 67.6267 125.829 67.2968 125.829 66.7112V62.5337C125.829 61.4822 125.694 60.7316 125.429 60.2863C125.163 59.8409 124.706 59.6141 124.063 59.6141C123.655 59.6141 123.206 59.7501 122.718 60.0182C122.234 60.2904 121.794 60.7275 121.397 61.3378V66.707C121.397 67.2885 121.69 67.6225 122.278 67.7091L122.873 67.7957V68.4349H118.032V67.7999H118.04Z" fill="#003946"/>
<path d="M139.365 67.8411V71.2721C139.365 71.8536 139.659 72.1876 140.246 72.2742L140.841 72.3608V73H136V72.3608L136.595 72.2742C137.183 72.1876 137.476 71.8536 137.476 71.2721V60.5131C137.476 60.2161 137.405 59.9852 137.262 59.8203C137.119 59.6553 136.885 59.5481 136.556 59.4903L136.044 59.4037V58.847L138.647 58.3357H139.365V59.5934C139.79 59.1233 140.27 58.7645 140.81 58.5089C141.349 58.2532 141.909 58.1254 142.48 58.1254C143.996 58.1254 145.151 58.612 145.937 59.5852C146.722 60.5584 147.115 61.8203 147.115 63.3667C147.115 64.3358 146.881 65.2266 146.417 66.0431C145.952 66.8596 145.333 67.5071 144.56 67.9813C143.786 68.4555 142.956 68.6947 142.067 68.6947C141.008 68.6947 140.103 68.4102 139.365 67.8411ZM142.095 67.6267C142.698 67.6267 143.226 67.4452 143.687 67.0823C144.143 66.7194 144.504 66.2122 144.762 65.5565C145.02 64.9008 145.151 64.1585 145.151 63.3172C145.151 62.0801 144.873 61.1151 144.321 60.4182C143.77 59.7213 143.052 59.3749 142.179 59.3749C141.603 59.3749 141.067 59.5151 140.567 59.7996C140.067 60.0842 139.667 60.4842 139.369 60.9914V65.6184C139.833 66.9586 140.742 67.6267 142.095 67.6267Z" fill="#003946"/>
<path d="M155.083 68.1586C154.778 67.903 154.575 67.5401 154.48 67.0741C154.004 67.5854 153.476 67.9813 152.901 68.2658C152.325 68.5504 151.766 68.6906 151.218 68.6906C150.302 68.6906 149.575 68.4555 149.036 67.9896C148.496 67.5194 148.226 66.8967 148.226 66.1132C148.226 64.7482 149.143 63.7956 150.972 63.2554L154.417 62.2327V61.742C154.417 60.7481 154.202 60.0471 153.782 59.6429C153.357 59.2388 152.825 59.0367 152.183 59.0367C151.663 59.0367 151.234 59.2223 150.901 59.5893C150.563 59.9605 150.425 60.4842 150.48 61.1687L150.5 61.4244L149.639 61.5523C149.365 61.5399 149.147 61.4285 148.984 61.2223C148.821 61.0162 148.738 60.7729 148.738 60.4883C148.738 60.1337 148.865 59.7749 149.119 59.412C149.373 59.0491 149.77 58.7439 150.31 58.4965C150.849 58.2449 151.528 58.1254 152.349 58.1254C153.552 58.1254 154.512 58.4223 155.23 59.0202C155.948 59.6182 156.306 60.6038 156.306 61.9811V66.2864C156.306 66.6988 156.377 66.9957 156.52 67.1689C156.663 67.3462 156.845 67.4328 157.063 67.4328C157.242 67.4328 157.425 67.3792 157.619 67.2638L157.782 67.9029C157.317 68.3277 156.79 68.5421 156.202 68.5421C155.766 68.5421 155.393 68.4184 155.083 68.1586ZM150.544 67.0864C150.802 67.3792 151.171 67.5236 151.651 67.5236C152.032 67.5236 152.476 67.404 152.984 67.173C153.488 66.938 153.968 66.6081 154.421 66.1792V63.1977L151.591 64.0925C151.127 64.2327 150.77 64.4884 150.524 64.8472C150.278 65.2101 150.155 65.606 150.155 66.0307C150.155 66.4431 150.282 66.7936 150.544 67.0864Z" fill="#003946"/>
<path d="M166.004 60.2863C165.691 59.8409 165.155 59.6141 164.405 59.6141C163.996 59.6141 163.54 59.7501 163.04 60.0182C162.54 60.2904 162.087 60.7275 161.675 61.3378V66.707C161.675 67.2885 161.968 67.6225 162.556 67.7091L163.151 67.7957V68.4349H158.31V67.7957L158.905 67.7091C159.492 67.6225 159.786 67.2926 159.786 66.707V60.5048C159.786 60.2079 159.714 59.977 159.571 59.812C159.429 59.6471 159.195 59.5398 158.865 59.4821L158.353 59.3955V58.8388L160.956 58.3274H161.675V60.0759C162.127 59.4656 162.651 58.9831 163.242 58.6367C163.837 58.2862 164.448 58.113 165.079 58.113C166.226 58.113 167.06 58.4553 167.579 59.1481C168.099 59.8368 168.357 60.9131 168.357 62.377V66.7029C168.357 67.2844 168.651 67.6184 169.238 67.705L169.833 67.7916V68.4308H164.992V67.7916L165.587 67.705C166.175 67.6184 166.468 67.2885 166.468 66.7029V62.5255C166.476 61.4822 166.318 60.7358 166.004 60.2863Z" fill="#003946"/>
<path d="M170.988 72.1546C170.675 71.8783 170.476 71.5484 170.393 71.1649L170.968 70.3979C171.226 70.6536 171.472 70.8226 171.694 70.9092C171.921 70.9958 172.179 71.0371 172.464 71.0371C172.794 71.0371 173.099 70.9298 173.389 70.7195C173.679 70.5092 173.901 70.1875 174.067 69.7587L174.643 68.3318L170.829 59.977C170.706 59.6924 170.575 59.4862 170.44 59.3584C170.306 59.2306 170.099 59.1398 169.825 59.0821L169.274 58.9749V58.3357H174.052V58.9749L173.353 59.0821C173.012 59.1357 172.841 59.3007 172.841 59.5728C172.841 59.7419 172.889 59.9275 172.984 60.1295L175.587 66.0101L178.008 59.9563C178.075 59.7873 178.111 59.6512 178.111 59.5522C178.111 59.28 177.933 59.1275 177.579 59.0821L176.881 58.9749V58.3357H180.714V58.9749L180.139 59.0821C179.714 59.1687 179.413 59.4161 179.238 59.8285L174.913 70.1834C174.258 71.7752 173.397 72.5711 172.329 72.5711C171.746 72.5711 171.302 72.435 170.988 72.1546Z" fill="#003946"/>
</svg>
