<svg width="176" height="60" viewBox="0 0 176 60" fill="none" xmlns="http://www.w3.org/2000/svg">
<path d="M56.6844 18.5696L55.7597 18.8718C55.398 18.9954 55.0043 18.8031 54.8807 18.4414L54.5785 17.5167C54.4549 17.155 54.6472 16.7613 55.0089 16.6377L55.9336 16.3356C56.2953 16.212 56.689 16.4043 56.8126 16.7659L57.1147 17.6907C57.2383 18.0523 57.0461 18.446 56.6844 18.5696ZM58.511 22.351L58.3142 21.6094C58.2546 21.3851 58.0257 21.2477 57.8014 21.3073L57.0598 21.5041C56.8355 21.5636 56.6981 21.7925 56.7577 22.0168L56.9545 22.7585C57.014 22.9828 57.2429 23.1201 57.4672 23.0606L58.2089 22.8683C58.4332 22.8088 58.5705 22.5799 58.511 22.3556V22.351ZM55.1004 20.1216C55.0089 19.8286 54.6976 19.6638 54.4046 19.7553L53.5714 20.0025C53.2784 20.0941 53.1136 20.4054 53.2051 20.6984L53.4524 21.5316C53.5439 21.8246 53.8552 21.9894 54.1482 21.8978L54.9814 21.646C55.2744 21.5545 55.4392 21.2432 55.3476 20.9502L55.1004 20.117V20.1216ZM52.1843 19.5035L51.8821 18.5788C51.7585 18.2171 51.3648 18.0249 51.0031 18.1485L50.0784 18.4506C49.7167 18.5742 49.5245 18.9679 49.6481 19.3296L49.9502 20.2543C50.0738 20.616 50.4675 20.8083 50.8292 20.6847L51.7539 20.3825C52.1156 20.2589 52.3079 19.8652 52.1843 19.5035ZM47.5376 16.3814L46.5213 16.7384C46.091 16.8941 45.8667 17.3702 46.0269 17.8005L46.384 18.8168C46.5396 19.2472 47.0157 19.4715 47.4461 19.3158L48.4624 18.9542C48.8927 18.7985 49.117 18.3224 48.9568 17.8921L48.5997 16.8758C48.4441 16.4455 47.9679 16.2257 47.5376 16.3814V16.3814ZM53.3837 23.4223C53.3242 23.198 53.0953 23.0606 52.871 23.1201L52.1293 23.317C51.905 23.3765 51.7677 23.6054 51.8272 23.8297L52.0195 24.5713C52.079 24.7957 52.3079 24.9284 52.5322 24.8735L53.2738 24.6766C53.4981 24.6171 53.6355 24.3882 53.576 24.1639L53.3791 23.4223H53.3837ZM50.1654 21.939C50.0738 21.646 49.7625 21.4812 49.4695 21.5728L48.6363 21.82C48.3433 21.9115 48.1785 22.2228 48.2701 22.5158L48.5173 23.349C48.6089 23.642 48.9202 23.8068 49.2132 23.7153L50.0463 23.4681C50.3393 23.3765 50.5041 23.0652 50.4126 22.7722L50.1608 21.939H50.1654ZM47.2538 21.321L46.9516 20.3962C46.828 20.0346 46.4343 19.8423 46.0727 19.9659L45.1479 20.2681C44.7863 20.3917 44.594 20.7854 44.7176 21.147L45.0197 22.0718C45.1433 22.4334 45.537 22.6257 45.8987 22.5021L46.8235 22.2C47.1851 22.0764 47.3774 21.6826 47.2538 21.321ZM42.6071 18.1988L41.5908 18.5559C41.1605 18.7115 40.9362 19.1877 41.0964 19.618L41.4535 20.6343C41.6092 21.0646 42.0853 21.2889 42.5156 21.1287L43.5319 20.7716C43.9622 20.616 44.1865 20.1399 44.0263 19.7095L43.6692 18.6932C43.5136 18.2629 43.0375 18.0432 42.6071 18.1988ZM48.4532 25.2397C48.3937 25.0154 48.1648 24.8781 47.9405 24.9376L47.1989 25.1344C46.9745 25.194 46.8372 25.4228 46.8967 25.6472L47.089 26.3888C47.1485 26.6131 47.3774 26.7505 47.6017 26.6909L48.3433 26.4941C48.5677 26.4346 48.705 26.2057 48.6455 25.9814L48.4486 25.2397H48.4532ZM45.2349 23.7565C45.1433 23.4635 44.832 23.2987 44.5391 23.3902L43.7059 23.642C43.4129 23.7336 43.2481 24.0449 43.3396 24.3379L43.5868 25.1711C43.6784 25.4641 43.9897 25.6289 44.2827 25.5373L45.1159 25.2901C45.4089 25.1985 45.5737 24.8872 45.4821 24.5942L45.2303 23.761L45.2349 23.7565ZM42.3233 23.1384L42.0212 22.2137C41.8976 21.852 41.5039 21.6598 41.1422 21.7834L40.2174 22.0855C39.8558 22.2091 39.6635 22.6028 39.7871 22.9645L40.0893 23.8892C40.2129 24.2509 40.6066 24.4432 40.9682 24.3196L41.893 24.0174C42.2546 23.8938 42.4469 23.5001 42.3233 23.1384ZM39.0958 21.527L38.7388 20.5107C38.5831 20.0804 38.107 19.856 37.6767 20.0163L36.6604 20.3734C36.23 20.529 36.0057 21.0051 36.1659 21.4354L36.523 22.4517C36.6787 22.8821 37.1548 23.1064 37.5851 22.9462L38.6014 22.5891C39.0318 22.4334 39.2561 21.9573 39.0958 21.527ZM43.5227 27.0526C43.4632 26.8283 43.2343 26.6955 43.01 26.7505L42.2684 26.9473C42.0441 27.0068 41.9067 27.2357 41.9662 27.46L42.1585 28.2017C42.218 28.426 42.4469 28.5633 42.6712 28.5038L43.4129 28.307C43.6372 28.2475 43.7745 28.0186 43.715 27.7942L43.5182 27.0526H43.5227ZM40.3044 25.5693C40.2129 25.2764 39.9016 25.1115 39.6086 25.2031L38.7754 25.4549C38.4824 25.5465 38.3176 25.8578 38.4092 26.1507L38.6564 26.9839C38.7479 27.2769 39.0592 27.4417 39.3522 27.3502L40.1854 27.103C40.4784 27.0114 40.6432 26.7001 40.5516 26.4071L40.2999 25.5739L40.3044 25.5693ZM52.4635 14.5822L51.4472 14.9439C51.0169 15.0995 50.7926 15.5756 50.9528 16.006L51.3099 17.0223C51.4655 17.4526 51.9416 17.6723 52.372 17.5167L53.3883 17.1596C53.8186 17.004 54.0429 16.5279 53.8827 16.0975L53.5256 15.0812C53.37 14.6509 52.8938 14.4311 52.4635 14.5868V14.5822ZM35.8089 19.5218C35.9416 19.8698 35.8684 20.2452 35.6532 20.5153C35.4976 20.7075 35.1954 20.6847 35.0489 20.4878C34.9619 20.3688 34.6461 19.998 34.6461 19.998C32.0366 17.2649 28.1682 15.7176 22.6701 15.7176C13.6103 15.7176 6.58312 21.5819 0.494421 29.4743L0.462375 29.5156C0.425751 29.5613 0.370815 29.5888 0.31588 29.5888H0.146495C0.0640915 29.5888 0 29.5201 0 29.4377L0.00915594 29.0806C0.521888 12.6641 14.1413 -0.319064 30.5946 0.00597206C39.5033 0.179935 47.4277 4.2177 52.8023 10.4895C53.3883 11.1762 53.8461 11.7668 54.3451 12.5176C54.4275 12.6412 54.5328 12.8105 54.6289 12.9799L54.7525 13.218C54.8486 13.4011 54.7617 13.63 54.5694 13.7033L53.7774 13.9962C53.2555 14.1931 52.6695 13.9322 52.4681 13.4103C52.4681 13.4103 52.285 12.8838 52.1385 12.4443C52.0423 12.1467 51.7081 11.9911 51.4197 12.1101C51.1451 12.2246 50.82 12.3528 50.5499 12.458C50.2661 12.5679 50.1242 12.8838 50.2386 13.1676C50.4034 13.5751 50.5957 14.0741 50.5957 14.0741C50.7926 14.596 50.5316 15.1819 50.0097 15.3834L48.8469 15.8183C48.325 16.0151 47.739 15.7542 47.5376 15.2323C47.5376 15.2323 47.3545 14.7104 47.208 14.2663C47.1119 13.9688 46.7777 13.8131 46.4893 13.9322C46.2146 14.0466 45.8896 14.1748 45.6195 14.2801C45.3356 14.3854 45.1937 14.7058 45.3082 14.9897C45.473 15.3971 45.6652 15.8961 45.6652 15.8961C45.8621 16.418 45.6011 17.004 45.0793 17.2008L43.9164 17.6357C43.3946 17.8326 42.8086 17.5716 42.6071 17.0497C42.6071 17.0497 42.424 16.5279 42.2775 16.0838C42.1814 15.7816 41.8472 15.6306 41.5542 15.7496C41.2841 15.8641 40.9591 15.9922 40.689 16.093C40.4051 16.1982 40.2632 16.5233 40.3777 16.8025C40.5425 17.21 40.7348 17.709 40.7348 17.709C40.9316 18.2309 40.6707 18.8168 40.1488 19.0137L38.986 19.4486C38.4641 19.6455 37.8781 19.3845 37.6767 18.8626C37.6767 18.8626 37.4936 18.3362 37.3471 17.8967C37.2509 17.5945 36.9122 17.4435 36.6237 17.5671C36.3536 17.6815 36.0286 17.8097 35.7585 17.9104C35.4747 18.0157 35.3328 18.3362 35.4472 18.62C35.612 19.0274 35.8043 19.5264 35.8043 19.5264L35.8089 19.5218ZM46.9059 11.5562C47.0157 11.84 47.1439 12.1925 47.2263 12.4535C47.3133 12.719 47.6017 12.8518 47.8627 12.751C48.1144 12.6503 48.4212 12.5313 48.673 12.4397C48.9293 12.3436 49.0575 12.0552 48.9476 11.8034C48.8423 11.5653 48.705 11.2174 48.5997 10.9244C48.499 10.6543 48.2014 10.517 47.9313 10.6223C47.707 10.7093 47.4461 10.8054 47.2172 10.8878C46.9471 10.9885 46.8051 11.2907 46.9104 11.5608L46.9059 11.5562ZM41.9754 13.3691C42.0853 13.6529 42.2134 14.0054 42.2958 14.2663C42.3828 14.5319 42.6712 14.6692 42.9322 14.5639C43.184 14.4632 43.4907 14.3442 43.7425 14.2526C43.9989 14.1565 44.127 13.8681 44.0172 13.6163C43.9119 13.3782 43.7745 13.0303 43.6692 12.7373C43.5685 12.4672 43.271 12.3299 43.0009 12.4352C42.7765 12.5221 42.5156 12.6183 42.2867 12.7007C42.0166 12.7968 41.8747 13.1035 41.98 13.3736L41.9754 13.3691ZM37.0449 15.1819C37.1548 15.4658 37.283 15.8183 37.3654 16.0792C37.4524 16.3447 37.7408 16.4821 38.0017 16.3768C38.2535 16.2761 38.5602 16.157 38.812 16.0655C39.0684 15.9693 39.1966 15.6809 39.0867 15.4291C38.9814 15.1911 38.8441 14.8432 38.7388 14.5502C38.6381 14.2801 38.3405 14.1427 38.0704 14.248C37.8461 14.335 37.5851 14.4311 37.3562 14.5136C37.0861 14.6097 36.9442 14.9118 37.0495 15.1865L37.0449 15.1819ZM2.72389 41.3954L3.64864 41.0932C4.0103 40.9696 4.40401 41.1619 4.52761 41.5236L4.82976 42.4483C4.95336 42.81 4.76109 43.2037 4.39943 43.3273L3.47468 43.6294C3.11302 43.753 2.71931 43.5608 2.59571 43.1991L2.29356 42.2743C2.16996 41.9127 2.36223 41.519 2.72389 41.3954V41.3954ZM0.897282 37.614L1.09413 38.3556C1.15365 38.5799 1.38255 38.7173 1.60687 38.6578L2.3485 38.4609C2.57282 38.4014 2.71016 38.1725 2.65064 37.9482L2.45379 37.2065C2.39428 36.9822 2.16538 36.8449 1.94106 36.9044L1.19943 37.0967C0.975107 37.1562 0.837768 37.3851 0.897282 37.6094V37.614ZM4.30787 39.8434C4.39943 40.1364 4.71073 40.3012 5.00372 40.2097L5.83691 39.9625C6.1299 39.8709 6.29471 39.5596 6.20315 39.2666L5.95594 38.4334C5.86438 38.1404 5.55308 37.9756 5.26009 38.0672L4.4269 38.319C4.13391 38.4105 3.9691 38.7218 4.06066 39.0148L4.30787 39.848V39.8434ZM7.22403 40.4615L7.52618 41.3862C7.64978 41.7479 8.04349 41.9402 8.40515 41.8166L9.3299 41.5144C9.69156 41.3908 9.88383 40.9971 9.76023 40.6354L9.45808 39.7107C9.33448 39.349 8.94077 39.1568 8.57911 39.2804L7.65436 39.5825C7.2927 39.7061 7.10043 40.0998 7.22403 40.4615V40.4615ZM11.8707 43.5836L12.887 43.2266C13.3173 43.0709 13.5416 42.5948 13.3814 42.1645L13.0243 41.1482C12.8687 40.7178 12.3926 40.4935 11.9622 40.6492L10.9459 41.0108C10.5156 41.1665 10.2913 41.6426 10.4515 42.0729L10.8086 43.0892C10.9642 43.5196 11.4403 43.7393 11.8707 43.5836ZM6.02461 36.5427C6.08412 36.7671 6.31302 36.9044 6.53734 36.8449L7.27897 36.648C7.50329 36.5885 7.64063 36.3596 7.58111 36.1353L7.38884 35.3937C7.32933 35.1693 7.10043 35.0366 6.87611 35.0915L6.13448 35.2884C5.91016 35.3479 5.77282 35.5768 5.83233 35.8011L6.02918 36.5427H6.02461ZM9.24292 38.026C9.33448 38.319 9.64578 38.4838 9.93877 38.3922L10.772 38.145C11.0649 38.0535 11.2298 37.7422 11.1382 37.4492L10.891 36.616C10.7994 36.323 10.4881 36.1582 10.1951 36.2497L9.36195 36.497C9.06896 36.5885 8.90415 36.8998 8.99571 37.1928L9.2475 38.026H9.24292ZM12.1545 38.644L12.4567 39.5688C12.5803 39.9304 12.974 40.1227 13.3356 39.9991L14.2604 39.697C14.622 39.5733 14.8143 39.1796 14.6907 38.818L14.3886 37.8932C14.2649 37.5316 13.8712 37.3393 13.5096 37.4629L12.5848 37.765C12.2232 37.8887 12.0309 38.2824 12.1545 38.644V38.644ZM16.8011 41.7662L17.8175 41.4091C18.2478 41.2535 18.4721 40.7774 18.3119 40.347L17.9548 39.3307C17.7991 38.9004 17.323 38.6761 16.8927 38.8363L15.8764 39.1934C15.4461 39.349 15.2217 39.8251 15.382 40.2555L15.7391 41.2718C15.8947 41.7021 16.3708 41.9218 16.8011 41.7662ZM10.9551 34.7253C11.0146 34.9496 11.2435 35.0869 11.4678 35.0274L12.2094 34.8306C12.4338 34.7711 12.5711 34.5422 12.5116 34.3178L12.3193 33.5762C12.2598 33.3519 12.0309 33.2146 11.8066 33.2741L11.0649 33.4709C10.8406 33.5304 10.7033 33.7593 10.7628 33.9837L10.9597 34.7253H10.9551ZM14.1734 36.2085C14.2649 36.5015 14.5763 36.6663 14.8692 36.5748L15.7024 36.323C15.9954 36.2314 16.1602 35.9201 16.0687 35.6271L15.8215 34.7939C15.7299 34.501 15.4186 34.3362 15.1256 34.4277L14.2924 34.6749C13.9994 34.7665 13.8346 35.0778 13.9262 35.3708L14.178 36.204L14.1734 36.2085ZM17.085 36.8266L17.3871 37.7513C17.5107 38.113 17.9044 38.3053 18.2661 38.1816L19.1908 37.8795C19.5525 37.7559 19.7448 37.3622 19.6212 37.0005L19.319 36.0758C19.1954 35.7141 18.8017 35.5218 18.4401 35.6455L17.5153 35.9476C17.1536 36.0712 16.9614 36.4649 17.085 36.8266ZM20.3124 38.438L20.6695 39.4543C20.8252 39.8846 21.3013 40.109 21.7316 39.9487L22.7479 39.5917C23.1783 39.436 23.4026 38.9599 23.2423 38.5296L22.8853 37.5133C22.7296 37.0829 22.2535 36.8586 21.8232 37.0188L20.8069 37.3759C20.3765 37.5316 20.1522 38.0077 20.3124 38.438ZM15.8855 32.9124C15.9451 33.1367 16.174 33.2695 16.3983 33.2146L17.1399 33.0177C17.3642 32.9582 17.5016 32.7293 17.4421 32.505L17.2498 31.7633C17.1903 31.539 16.9614 31.4017 16.7371 31.4612L15.9954 31.658C15.7711 31.7176 15.6338 31.9465 15.6933 32.1708L15.8901 32.9124H15.8855ZM19.1039 34.3957C19.1954 34.6887 19.5067 34.8535 19.7997 34.7619L20.6329 34.5101C20.9259 34.4186 21.0907 34.1073 20.9991 33.8143L20.7519 32.9811C20.6604 32.6881 20.3491 32.5233 20.0561 32.6148L19.2229 32.862C18.9299 32.9536 18.7651 33.2649 18.8567 33.5579L19.1084 34.3911L19.1039 34.3957ZM6.94478 45.3828L7.96109 45.0211C8.39142 44.8655 8.61574 44.3894 8.45551 43.959L8.09843 42.9427C7.94277 42.5124 7.46667 42.2927 7.03634 42.4483L6.02003 42.8054C5.5897 42.961 5.36538 43.4372 5.52561 43.8675L5.88269 44.8838C6.03834 45.3141 6.51445 45.5339 6.94478 45.3782V45.3828ZM23.5994 40.4432C23.4667 40.0952 23.5399 39.7198 23.7551 39.4497C23.9107 39.2575 24.2129 39.2804 24.3594 39.4772C24.4463 39.5962 24.7622 39.9671 24.7622 39.9671C27.3717 42.7001 31.2401 44.2475 36.7382 44.2475C45.798 44.2475 52.8252 38.3831 58.9139 30.4907L58.9459 30.4495C58.9825 30.4037 59.0375 30.3762 59.0924 30.3762H59.2618C59.3442 30.3762 59.4083 30.4449 59.4083 30.5273L59.3991 30.8844C58.8864 47.2872 45.2624 60.2703 28.8092 59.9453C19.9004 59.7713 11.976 55.7336 6.60143 49.4618C6.01545 48.7751 5.55765 48.1845 5.05865 47.4337C4.97625 47.3101 4.87096 47.1407 4.77482 46.9713L4.65122 46.7333C4.55508 46.5502 4.64206 46.3213 4.83433 46.248L5.62632 45.955C6.14821 45.7582 6.73419 46.0191 6.93562 46.541C6.93562 46.541 7.11874 47.0675 7.26524 47.507C7.36137 47.8045 7.69556 47.9602 7.98398 47.8412C8.25865 47.7267 8.58369 47.5985 8.85379 47.4932C9.13762 47.3834 9.27954 47.0675 9.16509 46.7836C9.00029 46.3762 8.80801 45.8772 8.80801 45.8772C8.61116 45.3553 8.8721 44.7693 9.39399 44.5679L10.5568 44.133C11.0787 43.9362 11.6647 44.1971 11.8661 44.719C11.8661 44.719 12.0492 45.2409 12.1957 45.6849C12.2918 45.9825 12.626 46.1382 12.9144 46.0191C13.1891 45.9047 13.5142 45.7765 13.7843 45.6712C14.0681 45.5659 14.21 45.2454 14.0956 44.9616C13.9308 44.5542 13.7385 44.0552 13.7385 44.0552C13.5416 43.5333 13.8026 42.9473 14.3245 42.7505L15.4873 42.3156C16.0092 42.1187 16.5951 42.3796 16.7966 42.9015C16.7966 42.9015 16.9797 43.4234 17.1262 43.8675C17.2223 44.1696 17.5565 44.3207 17.8495 44.2017C18.1196 44.0872 18.4446 43.959 18.7147 43.8583C18.9986 43.753 19.1405 43.428 19.026 43.1487C18.8612 42.7413 18.669 42.2423 18.669 42.2423C18.4721 41.7204 18.733 41.1344 19.2549 40.9376L20.4177 40.5027C20.9396 40.3058 21.5256 40.5668 21.727 41.0887C21.727 41.0887 21.9102 41.6151 22.0567 42.0546C22.1528 42.3568 22.4916 42.5078 22.78 42.3842C23.0501 42.2698 23.3751 42.1416 23.6452 42.0409C23.929 41.9356 24.071 41.6151 23.9565 41.3313C23.7917 40.9238 23.5994 40.4249 23.5994 40.4249V40.4432ZM12.5024 48.4088C12.3926 48.125 12.2644 47.7725 12.182 47.5115C12.095 47.246 11.8066 47.1133 11.5456 47.214C11.2938 47.3147 10.9871 47.4337 10.7353 47.5253C10.479 47.6214 10.3508 47.9098 10.4607 48.1616C10.566 48.3997 10.7033 48.7476 10.8086 49.0406C10.9093 49.3107 11.2069 49.448 11.477 49.3427C11.7013 49.2557 11.9622 49.1596 12.1911 49.0772C12.4612 48.9765 12.6031 48.6743 12.4979 48.4042L12.5024 48.4088ZM17.4329 46.5959C17.323 46.3121 17.1948 45.9596 17.1124 45.6987C17.0255 45.4331 16.7371 45.2958 16.4761 45.4011C16.2243 45.5018 15.9176 45.6208 15.6658 45.7124C15.4094 45.8085 15.2813 46.097 15.3911 46.3487C15.4964 46.5868 15.6338 46.9347 15.7391 47.2277C15.8398 47.4978 16.1373 47.6351 16.4074 47.5299C16.6318 47.4429 16.8927 47.3467 17.1216 47.2643C17.3917 47.1682 17.5336 46.8615 17.4283 46.5914L17.4329 46.5959ZM22.3634 44.7831C22.2535 44.4992 22.1253 44.1467 22.0429 43.8858C21.9559 43.6203 21.6675 43.4829 21.4066 43.5882C21.1548 43.6889 20.8481 43.808 20.5963 43.8995C20.3399 43.9957 20.2117 44.2841 20.3216 44.5359C20.4269 44.7739 20.5642 45.1218 20.6695 45.4148C20.7702 45.6849 21.0678 45.8223 21.3379 45.717C21.5622 45.63 21.8232 45.5339 22.0521 45.4515C22.3222 45.3553 22.4641 45.0532 22.3588 44.7785L22.3634 44.7831Z" fill="#DA1A42"/>
<path d="M71.7871 27.1029V5.31639H80.0641C87.1187 5.31639 91.2526 10.3293 91.2526 16.212C91.2526 22.0946 87.1462 27.1075 80.0641 27.1075H71.7871V27.1029ZM76.8641 22.8683H79.5925C83.9187 22.8683 86.02 19.6637 86.02 16.2074C86.02 12.751 83.9187 9.54643 79.5925 9.54643H76.8641V22.8683Z" fill="black"/>
<path d="M93.0381 7.89836C93.0381 6.27776 94.2604 4.97304 95.9863 4.97304C97.7122 4.97304 98.962 6.28234 98.962 7.89836C98.962 9.51438 97.7076 10.7916 95.9863 10.7916C94.265 10.7916 93.0381 9.48234 93.0381 7.89836ZM93.6012 27.1029V12.1009H98.3668V27.1029H93.6012Z" fill="black"/>
<path d="M112.627 12.1009H117.42V26.1416C117.388 29.0348 116.354 31.1819 114.504 32.4592C113.126 33.4251 111.277 33.7959 109.111 33.7959C106.946 33.7959 105.128 33.4526 103.659 32.5828C102.125 31.6489 101.027 30.0283 100.962 28.4122H105.852C106.071 29.5934 107.106 30.3121 109.047 30.3121C111.272 30.3121 112.623 29.3461 112.623 26.668V24.6766C111.872 26.169 109.862 27.1029 107.889 27.1029C103.407 27.1029 100.711 23.8663 100.711 19.444C100.711 15.0217 103.595 11.6935 107.953 11.6935C110.022 11.6935 111.872 12.6915 112.623 14.248V12.1009H112.627ZM112.847 19.5081C112.847 17.329 111.501 15.5848 109.212 15.5848C107.051 15.5848 105.637 17.2328 105.637 19.5081C105.637 21.7833 107.047 23.4314 109.212 23.4314C111.501 23.4314 112.847 21.6872 112.847 19.5081Z" fill="black"/>
<path d="M119.801 7.89836C119.801 6.27776 121.023 4.97304 122.749 4.97304C124.475 4.97304 125.725 6.28234 125.725 7.89836C125.725 9.51438 124.47 10.7916 122.749 10.7916C121.028 10.7916 119.801 9.48234 119.801 7.89836ZM120.364 27.1029V12.1009H125.13V27.1029H120.364Z" fill="black"/>
<path d="M138.264 23.3078V27.1029C137.572 27.2266 136.446 27.3502 135.068 27.3502C132.811 27.3502 129.707 26.8512 129.707 21.8383V15.864H127.327V12.0964H129.707V7.64658H134.501V12.0964H137.916V15.864H134.501V20.8449C134.501 23.056 135.412 23.3994 136.602 23.3994C137.133 23.3994 137.824 23.3673 138.264 23.3078V23.3078Z" fill="black"/>
<path d="M139.674 19.6042C139.674 15.1224 142.462 11.6981 146.852 11.6981C149.045 11.6981 150.771 12.7235 151.586 14.2526V12.1055H156.351V27.1029H151.586V24.9879C150.771 26.4803 148.889 27.5104 146.788 27.5104C142.274 27.5104 139.674 24.1181 139.674 19.6042V19.6042ZM151.773 19.6042C151.773 17.4572 150.551 15.6809 148.171 15.6809C145.946 15.6809 144.568 17.329 144.568 19.6042C144.568 21.8795 145.946 23.5596 148.171 23.5596C150.551 23.5596 151.773 21.7833 151.773 19.6042Z" fill="black"/>
<path d="M159.29 27.1029V5.31639H164.088V27.1029H159.29Z" fill="black"/>
<path d="M77.6194 54.7996V37.4949H71.5994V33.0131H88.7118V37.4949H82.6643V54.7996H77.6194V54.7996Z" fill="black"/>
<path d="M85.7957 49.0726V39.7976H90.6529V48.0151C90.6529 50.0706 91.3441 51.1922 93.1616 51.1922C95.1988 51.1922 96.0778 49.8829 96.0778 47.8594V39.7976H100.843V54.7996H96.0778V52.6526C95.2308 54.2411 93.6652 55.2071 91.3762 55.2071C87.7413 55.2071 85.7957 52.9639 85.7957 49.0772V49.0726Z" fill="black"/>
<path d="M103.755 54.7997V39.7977H108.553V42.9427C109.084 40.6995 110.874 39.5504 112.723 39.5504C113.286 39.5504 113.602 39.5825 113.978 39.6741V44.0964C113.415 44.0323 113.131 44.0048 112.536 44.0048C109.935 44.0048 108.553 45.6849 108.553 49.0177V54.8088H103.755V54.7997Z" fill="black"/>
<path d="M132.592 47.3009C132.592 52.0025 129.675 55.2071 125.51 55.2071C123.285 55.2071 121.467 54.0855 120.684 52.6846V54.7996H115.919V33.0085H120.684V41.9401C121.499 40.5072 123.381 39.3856 125.638 39.3856C129.776 39.3856 132.596 42.5582 132.596 47.2918L132.592 47.3009ZM127.702 47.3009C127.702 44.9982 126.228 43.3776 124.132 43.3776C122.035 43.3776 120.497 44.9662 120.497 47.3009C120.497 49.6357 122.003 51.2563 124.132 51.2563C126.26 51.2563 127.702 49.6357 127.702 47.3009Z" fill="black"/>
<path d="M134.281 35.5951C134.281 33.9745 135.503 32.6697 137.229 32.6697C138.955 32.6697 140.205 33.979 140.205 35.5951C140.205 37.2111 138.951 38.4883 137.229 38.4883C135.508 38.4883 134.281 37.179 134.281 35.5951ZM134.844 54.7996V39.7976H139.61V54.7996H134.844V54.7996Z" fill="black"/>
<path d="M142.585 54.7996V39.7976H147.383V41.9768C148.262 40.2966 149.983 39.3948 152.272 39.3948C155.939 39.3948 157.789 41.4503 157.789 45.5247V54.7996H152.964V47.0812C152.964 44.5587 152.245 43.4097 150.299 43.4097C148.354 43.4097 147.383 44.6549 147.383 46.9576V54.7996H142.585V54.7996Z" fill="black"/>
<path d="M175.872 48.6056H164.715C164.811 50.565 166.125 51.6225 168.259 51.6225C169.733 51.6225 170.671 51.2197 171.079 50.2858H175.78C175.309 53.2431 172.269 55.2025 168.259 55.2025C163.117 55.2025 159.954 52.3092 159.954 47.2964C159.954 42.2835 163.182 39.3902 168.103 39.3902C173.024 39.3902 176 42.2835 176 46.5181C176 47.2964 175.968 47.7633 175.876 48.6056H175.872ZM171.266 45.6483C171.234 43.6569 170.108 42.5994 168.071 42.5994C166.034 42.5994 164.747 43.8125 164.715 45.6483H171.266Z" fill="black"/>
</svg>
