<?xml version="1.0" encoding="utf-8"?>
<!-- Generator: Adobe Illustrator 24.0.0, SVG Export Plug-In . SVG Version: 6.00 Build 0)  -->
<svg version="1.1" id="Layer_1" xmlns="http://www.w3.org/2000/svg" xmlns:xlink="http://www.w3.org/1999/xlink" x="0px" y="0px"
	 viewBox="0 0 187.86 182.52" style="enable-background:new 0 0 187.86 182.52;" xml:space="preserve">
<style type="text/css">
	.st0{fill:#FFFFFF;}
	.st1{fill:#0065A4;}
</style>
<g id="Dot_Logo_w_White_Type_1_">
	<g>
		<g>
			<polygon class="st0" points="25.94,66.58 22.53,73.2 21.58,97.64 22.34,115.44 142.22,116.76 160.97,73.77 160.41,67.52 			"/>
			<path class="st1" d="M98.82,77.63c-6.11,0-11.87,5.78-13.34,13.39c-1.47,7.61,1.92,13.39,8.03,13.39
				c6.11,0,11.87-5.78,13.34-13.39C108.31,83.41,104.93,77.63,98.82,77.63z"/>
			<path class="st1" d="M160.89,73.12c-0.73,1.28-1.63,2.43-2.72,3.46c-2.31,2.24-4.99,3.35-8.03,3.35H120.3l1.91-11.09h38.23
				c-3.83-28.55-26.7-49.18-58.37-49.18c-31.67,0-62.47,20.63-77.3,49.18l28.24,0c12.18,0,20.75,9.49,18.3,22.18
				c-2.44,12.69-14.35,22.19-26.53,22.19h-1.67l-8.47-0.01l0,0.01l-11.02-0.01l4.59-22.2c0.61-2.92,2.24-5.4,4.89-7.39
				c2.48-1.82,5.27-2.9,8.36-3.22l0.09-0.01l-4.56,21.72h8.31l0.49,0c6.11,0,12.36-3.67,13.82-11.27c1.46-7.6-3.1-11.02-9.21-11.02
				l-0.68,0.02H33.51h-1.55c-2.55,0-4.62-0.87-6.2-2.61c-1.4-1.55-2.18-3.43-2.34-5.64c-2.94,6.18-5.15,12.7-6.44,19.44
				c-7.59,39.42,18.21,71.37,57.63,71.37c39.41,0,77.52-31.95,85.1-71.37C160.9,84.83,161.26,78.84,160.89,73.12z M118.22,91.02
				c-2.44,12.69-14.3,22.99-26.48,22.99c-12.18,0-20.07-10.29-17.63-22.99c2.44-12.69,14.3-22.98,26.48-22.98
				C112.77,68.03,120.66,78.32,118.22,91.02z M136.51,113.2l-11.07-0.01l4.55-21.99c0.61-2.92,2.24-5.4,4.89-7.39
				c2.48-1.82,5.27-2.9,8.35-3.22l0.09-0.01L136.51,113.2z"/>
		</g>
	</g>
</g>
</svg>
