<svg xmlns="http://www.w3.org/2000/svg" viewBox="0 0 81.6 12"><defs><style>.cls-1{fill:#fff;}</style></defs><g id="Layer_2" data-name="Layer 2"><g id="tick"><path class="cls-1" d="M67.9.1H66.3a1.16,1.16,0,0,0-1.2,1.2V11.8h7l.6-2.1H67.9Zm8.8,0H75.1a1.16,1.16,0,0,0-1.2,1.2V11.8H81l.6-2.1H76.8V.1ZM19.6,1.3V7.5a2.18,2.18,0,0,1-2.3,2.4A2.22,2.22,0,0,1,15,7.5V.1H12.2v7c0,3.3,1.9,4.9,5.1,4.9s5.1-1.6,5.1-4.9V.1H20.8a1.22,1.22,0,0,0-1.2,1.2ZM58.5,6.8h4V4.7h-4V2.2h4.9V.1H55.7V10.6a1.13,1.13,0,0,0,1.1,1.2h6.3l.6-2.1H58.5V6.8ZM45,6a5.41,5.41,0,0,0,5.6,5.8h3.1V9.7H52c-2.1,0-4.1-.7-4.1-3.7s2-3.7,4.1-3.7h1.7V.1H50.6C47.4.1,45,2.3,45,6ZM5.2.1h-4A1.16,1.16,0,0,0,0,1.3V11.8H5.2A5.41,5.41,0,0,0,10.8,6C10.8,2.3,8.4.1,5.2.1ZM3.9,9.7h-1V2.3h1C6,2.3,8,3,8,6S6,9.7,3.9,9.7ZM80.3,2.6a1.26,1.26,0,0,0,1.3-1.3A1.32,1.32,0,0,0,80.3,0,1.26,1.26,0,0,0,79,1.3,1.26,1.26,0,0,0,80.3,2.6Zm0-2.3a1,1,0,0,1,1,1.1,1.1,1.1,0,0,1-1,1.1,1,1,0,0,1-1-1.1A1,1,0,0,1,80.3.3Z"/><path class="cls-1" d="M80,1.5h.3l.4.6h.2l-.4-.6a.37.37,0,0,0,.4-.4c0-.3-.2-.4-.5-.4h-.6V2.2H80Zm0-.7h.3c.2,0,.3,0,.3.2s-.2.2-.4.2h-.3V.8ZM38.6.1A1.4,1.4,0,0,0,37,1.3L33.5,11.5,31.3,8.1A3.58,3.58,0,0,0,34,4.4,4.35,4.35,0,0,0,29.6.1H25.4a1.16,1.16,0,0,0-1.2,1.2V11.8H27V2.2h1.7c2.3,0,2.7,1.5,2.7,2.2,0,2.2-2,2.3-3.4,2.4l2.9,5h5.5l.6-2h4.4l.6,2h3.1L41.2.1ZM37.4,8l1.8-6L41,8Z"/></g></g></svg>