<svg id="Layer_1" data-name="Layer 1" xmlns="http://www.w3.org/2000/svg" width="437.27" height="112.41" viewBox="0 0 437.27 112.41"><defs><style>.cls-1{fill:#69be28;}</style></defs><title>logo-ecmc</title><path class="cls-1" d="M98.55,56.21c0,34.63,18.7,56.2,54.36,56.2,19.93,0,31.57-5.37,33.16-6l1.71-27h-8.31c-3.47,13.71-11.36,23.7-28.05,23.7-21.81,0-32.56-16.6-32.56-46.94S129.61,9.26,151.42,9.26c16.69,0,24.58,10,28.05,23.7h8.31L186.07,6c-1.59-.63-13.23-6-33.16-6C117.25,0,98.55,21.57,98.55,56.21Z"/><path class="cls-1" d="M348.05,56.21c0,34.63,18.69,56.2,54.35,56.2,19.94,0,31.58-5.37,33.15-6l1.72-27H429c-3.47,13.71-11.35,23.7-28,23.7-21.82,0-32.55-16.6-32.55-46.94S379.09,9.26,400.91,9.26c16.69,0,24.57,10,28,23.7h8.32L435.55,6C434,5.37,422.34,0,402.4,0,366.74,0,348.05,21.57,348.05,56.21Z"/><path class="cls-1" d="M324.71,90l-4.23-69.63C319.67,10.07,326.3,9.72,333,9.27V2.15h-36.7L269.73,87.81,244.06,2.15H207.28V9.27c8.46.59,13.26,2,12.77,9.71-.53,8.4-6,73.22-6,73.22-.88,8.79-7.18,10.5-14.22,10.83v7.12h37.83V103c-8.68-.19-13.91-1.81-13.25-12.08l5.38-73.15,28.08,92.35h15.33l28.93-92.54,4.74,74.83h0c.52,8.78-5.19,10.59-13.35,10.59v7.12h46.64V103C333.77,103,325.45,101.35,324.71,90Z"/><path class="cls-1" d="M85.2,79.33H76.94c-3.46,10.42-5.27,21.52-24.37,21.52H33.66V60.44H44.77c10.88,0,11,5,11.22,12.07h8.42V39.06H56v1.61c-.19,8-2.5,10.88-12.94,10.88H33.66V11.43H48.82c18.91,0,21.27,8.74,25.35,21.54h8.26L80.37,2.15H0V9.27c9,0,15,1.88,15,12.12V90.53C15,101.91,8.11,103,0,103v7.12H83.14Z"/></svg>