<?xml version="1.0" encoding="utf-8"?>
<!DOCTYPE svg PUBLIC "-//W3C//DTD SVG 1.1//EN" "http://www.w3.org/Graphics/SVG/1.1/DTD/svg11.dtd">
<svg class="emc-logo" role="img" aria-label="EMC logo" xmlns="http://www.w3.org/2000/svg" xmlns:xlink="http://www.w3.org/1999/xlink" viewBox="0 0 500 225">
<defs>
	<style type="text/css">
		.gray{fill:#545860;}
		.blue{fill:#0D58C9;}
	</style>
	<link href="https://ux-cdn.emcins.com/dist/css/v2/svg.css" type="text/css" rel="stylesheet" xmlns="http://www.w3.org/1999/xhtml"/>
</defs>
<polygon id="E" class="gray" points="430.35025,205.18398 430.35025,191.38831 
	451.77603,191.38831 451.77603,186.19954 430.35025,186.19954 430.35025,173.07614 454.40036,173.07614 454.40036,167.76508 
	424.24539,167.76508 424.24539,210.49425 455.25568,210.49425 455.25568,205.18398 "/>
<path id="C" class="gray" d="M373.32559,189.1299
	c0,12.63577,9.6445,21.85339,22.58484,21.85339c6.65326,0,12.39194-2.31979,16.29855-6.71477l-3.96817-3.84581
	c-3.2966,3.47969-7.32468,5.12801-12.02502,5.12801c-9.6445,0-16.78772-6.95938-16.78772-16.42082
	s7.14322-16.42082,16.78772-16.42082c4.70035,0,8.72842,1.58755,12.02502,5.06725l3.96817-3.84581
	c-3.90662-4.39497-9.64529-6.65402-16.23703-6.65402C382.97009,167.27649,373.32559,176.49413,373.32559,189.1299"/>
<polygon id="N" class="gray" points="355.86542,167.76515 355.86542,199.62917 
	330.22696,167.76515 325.22205,167.76515 325.22205,210.49432 331.32608,210.49432 331.32608,178.63109 356.96375,210.49432 
	361.96945,210.49432 361.96945,167.76515 "/>
<path id="A" class="gray" d="M295.3429,167.76495h-6.04327L269.9498,210.4949h6.28638l4.70035-10.68282h22.70789l4.70035,10.68282
	h6.40942L295.3429,167.76495z M283.07404,194.92862l9.21683-20.9373l9.21765,20.9373H283.07404z"/>
<path id="R" class="gray" d="M252.5657,196.14946c5.98181-2.13596,9.4007-6.89781,9.4007-13.49034
	c0-9.27834-6.71475-14.89398-17.82446-14.89398h-16.66467v42.72917h6.10489v-13.00188h10.55978
	c0.91608,0,1.83131-0.06081,2.68587-0.12154l9.21684,13.12341h6.65402L252.5657,196.14946z M243.95883,192.30444h-10.37668
	v-19.22902h10.37668c7.81311,0,11.90353,3.47964,11.90353,9.58369C255.86237,188.76324,251.77194,192.30444,243.95883,192.30444z"/>
<path id="U" class="gray" d="M177.3568,192.05994c0,12.39195,6.83629,18.92288,18.06755,18.92288
	c11.29362,0,18.06914-6.53093,18.06914-18.92288v-24.29471h-5.92101v24.05011c0,9.46223-4.39497,13.73491-12.08578,13.73491
	c-7.69162,0-12.02583-4.27267-12.02583-13.73491v-24.05011h-6.10406V192.05994"/>
<path id="S" class="gray" d="M132.92549,205.61124c3.41815,3.17433,9.82756,5.37183,16.35928,5.37183
	c11.29282,0,16.54233-5.61642,16.54233-12.14735c0-15.68781-25.88226-9.15608-25.88226-19.59436
	c0-3.7243,3.11357-6.77632,10.37753-6.77632c3.78505,0,7.99696,1.09914,11.71968,3.47969l2.01523-4.88341
	c-3.54045-2.44131-8.72922-3.78427-13.73491-3.78427c-11.23206,0-16.35928,5.61565-16.35928,12.20811
	c0,15.87086,25.88147,9.2784,25.88147,19.71667c0,3.7235-3.17354,6.59247-10.55978,6.59247
	c-5.49333,0-10.92671-2.07518-14.10103-4.94415L132.92549,205.61124"/>
<polygon id="N" class="gray" points="114.63482,167.76515 114.63482,199.62917 88.99636,167.76515 83.99146,167.76515 
	83.99146,210.49432 90.0955,210.49432 90.0955,178.63109 115.73317,210.49432 120.73887,210.49432 120.73887,167.76515 "/>
<rect id="I" x="59.9115" y="167.76555" class="gray" width="6.10405" height="42.72918"/>
<polygon id="trademarkM" class="blue" points="491.54996,128.42731 491.53656,122.23516 488.46729,127.35956 487.69327,127.35956 
	484.62396,122.31555 484.62396,128.42731 482.96909,128.42731 482.96909,119.08618 484.39725,119.08618 488.1069,125.27764 
	491.75024,119.08618 493.17804,119.08618 493.19144,128.42731 "/>
<polygon id="trademarkT" class="blue" points="476.42566,128.42731 478.16058,128.42731 478.16058,120.55383 481.25668,120.55383 
	481.25668,119.08618 473.32959,119.08618 473.32959,120.55383 476.42566,120.55383 "/>
<path id="C" class="blue" d="M446.33554,89.08961c-3.84357,8.13816-13.33875,14.9201-24.41681,14.9201
	c-16.50302,0-29.84177-15.14678-29.84177-33.4594c0-18.76367,13.33875-34.13791,29.84177-34.13791
	c10.85291,0,20.11987,6.7827,24.19165,14.69496l26.96176-12.88614c-9.59506-18.42788-28.07056-29.16403-51.15341-29.16403
	c-35.04233,0-60.13763,27.58112-60.13763,61.26719c0,33.68531,25.09531,60.81612,60.13763,60.81612
	c23.29572,0,41.81964-10.60859,51.41086-29.14941L446.33554,89.08961z"/>
<path id="M" class="blue" d="M347.10245,128.42731h-29.841V60.37664c0-6.55602-2.26065-22.1554-21.93103-22.1554
	c-13.1113,0-22.60645,9.04258-22.60645,22.1554v68.05066h-29.84331V60.37664c0-6.55602-2.03549-22.1554-21.70358-22.1554
	c-13.33875,0-22.60876,9.04258-22.60876,22.1554v68.05066h-29.84175V61.05514c0-29.6166,20.57404-51.99792,52.45052-51.99792
	c15.82452,0,28.71297,6.33012,37.0778,16.50303c8.81516-10.1729,21.92874-16.50303,37.07553-16.50303
	c32.55652,0,51.77203,21.47691,51.77203,51.99792V128.42731z"/>
<path id="E" class="blue" d="M104.07137,103.97641c-21.74907,0-29.28105-13.9046-30.6225-18.98394
	c0,0,8.0816,0.62243,16.83951,0.62243c35.71983,0,65.48954-7.02672,65.48954-37.2023c0-27.00375-26.8148-39.35542-51.84954-39.35542
	c-31.76924,0-52.60241,19.84716-58.8019,38.15729c6.21573,4.9459,15.24642,8.50783,25.55925,9.85651
	c3.87712-12.61909,15.38848-22.68801,32.18053-22.68801c16.02935,0,24.29534,5.98942,24.29534,13.88185
	s-7.98067,13.88186-42.05233,13.88186c-41.13619,0-78.50935-22.15584-78.50935-22.15584
	C3.54212,63.68336,8.87934,73.72242,42.42372,80.80543c3.56781,27.75672,25.69855,50.33508,63.00697,50.33508
	c24.89708,0,42.4472-11.71352,50.63783-23.08296l-24.87004-16.07542C131.19849,91.98212,123.19617,103.97641,104.07137,103.97641z"
	/>
</svg>
