<?xml version="1.0" encoding="UTF-8"?>
<svg id="Layer_1" data-name="Layer 1" xmlns="http://www.w3.org/2000/svg" viewBox="0 0 122 44.77" with="122" height="44.77">
  <defs>
    <style>
      .cls-1 {
        fill: #00abc7;
      }

      .cls-2 {
        fill: #5d6770;
      }
    </style>
  </defs>
  <path class="cls-2" d="m15.82,26.37c-1.55,4.98-4.69,7.29-9.65,7.29-2.46,0-4.2-.62-5.17-1.84-1.1-1.39-1.3-3.63-.59-6.67l1.69-7.24c1.38-5.89,4.66-8.76,10.04-8.76,2.46,0,4.2.62,5.17,1.84,1.1,1.39,1.3,3.63.59,6.67l-.84,3.69c-.06.31-.34.52-.65.49H6.1c-.41,0-.58,0-.67.41l-.83,3.56c-.41,1.75-.31,2.99.32,3.76.56.64,1.4.97,2.25.9,2.23,0,3.71-1.44,4.41-4.27.05-.18.22-.31.4-.31h3.52c.17-.03.33.08.36.24.02.08,0,.15-.04.22m-4.65-14.04c-2.27,0-3.76,1.49-4.45,4.44l-.24,1.1c-.06.19-.06.39,0,.58.11.25.28.25.62.25h5.7c.41,0,.54-.05.64-.45l.29-1.24c.41-1.75.31-2.98-.31-3.76-.56-.64-1.4-.98-2.25-.9"/>
  <path class="cls-2" d="m35.34,9.49c-.18.8-.64,2.75-.82,3.53-.04.18-.22.28-.4.24h0c-.87-.22-1.76-.32-2.65-.31-2.3-.05-4.34,1.48-4.91,3.72l-3.81,16.29c-.03.15-.17.25-.32.25h-3.76c-.15,0-.26-.11-.26-.25,0-.02,0-.04,0-.06l5.38-23.03c.04-.15.17-.25.32-.25h3.32c.31,0,.49.06.42.36l-.08.54c-.1.54.28.58.8.2,1.85-1.4,4.2-1.98,6.5-1.61.18.03.3.19.27.38,0,.01,0,.02,0,.03"/>
  <path class="cls-2" d="m49.47,24.91c.13,0,.24.11.23.24,0,.02,0,.03,0,.05-1.42,5.7-4.69,8.46-9.97,8.46-2.46,0-4.2-.62-5.17-1.84-1.08-1.39-1.3-3.63-.59-6.67l1.68-7.24c1.38-5.89,4.69-8.76,10.07-8.76,2.42,0,4.15.6,5.12,1.78s1.3,3.13.85,5.7c-.04.2-.22.35-.42.35h-3.69c-.13,0-.25-.1-.26-.24,0-.03,0-.05.01-.08.33-1.61.2-2.73-.38-3.47-.56-.64-1.4-.97-2.25-.9-2.27,0-3.76,1.49-4.45,4.44l-2.11,9.08c-.41,1.75-.31,2.99.31,3.76.56.64,1.4.98,2.25.9,2.26,0,3.76-1.49,4.45-4.44l.22-.92c.03-.13.15-.23.28-.23l3.83.02Z"/>
  <path class="cls-2" d="m58.82,33.66c-2.46,0-4.2-.62-5.17-1.84-1.08-1.39-1.3-3.63-.59-6.67l1.69-7.24c1.38-5.91,4.66-8.76,10.04-8.76,2.46,0,4.2.62,5.17,1.84,1.1,1.39,1.3,3.63.59,6.67l-1.69,7.24c-1.38,5.91-4.67,8.76-10.05,8.76m4.99-21.35c-2.26,0-3.76,1.49-4.45,4.44l-2.15,9.08c-.41,1.75-.31,2.99.32,3.76.56.64,1.4.97,2.25.9,2.27,0,3.76-1.49,4.45-4.44l2.12-9.08c.41-1.75.31-2.98-.31-3.76-.56-.64-1.4-.98-2.25-.9"/>
  <path class="cls-2" d="m76.56,13.13l-3.66,15.63c-.37,1.56-.23,2.75.4,3.54.72.9,2.1,1.35,4.13,1.35.72.02,1.44-.03,2.15-.16.11-.02.19-.1.22-.2l.71-3.05c.02-.1-.04-.19-.13-.21h-.94c-.74,0-1.49-.08-1.83-.51s-.25-1.28-.04-2.15l3.34-14.29c.06-.27.22-.32.48-.32h2.94c.17,0,.31-.12.35-.28l.61-2.59c.03-.13-.05-.26-.18-.29-.02,0-.04,0-.05,0h-2.97c-.15.01-.27-.1-.28-.25,0-.05,0-.1.03-.13l1.37-5.86c.09-.41-.28-.4-.28-.4h-3.64c-.16,0-.31.09-.37.24l-1.44,6.1c-.06.23-.1.3-.37.3h-2.88s-.24,0-.38.33l-.59,2.49c-.08.29.26.34.26.34h2.73s.42,0,.32.37"/>
  <path class="cls-1" d="m113.69,21.97l-10.97,12.73c-.05.05-.13.06-.18.02-.03-.03-.05-.08-.04-.12l1.08-5.7c.03-.16-.08-.32-.24-.35-.05-.01-.1,0-.14,0l-2.53.74c-.23.06-.41.26-.45.5l-2.45,14.59c-.05.38.27.54.54.22l19.51-22.88c.14-.18.16-.42.04-.61-.71-1.09-1.76-1.92-2.99-2.34-3.68-1.45-7.96,1.11-10.88,2.69-7.48,3.95-11.96.29-12.87-.65-.1-.1-.23-.15-.37-.15h-3.19c-.11,0-.2.09-.21.2,0,.05.02.09.04.13.7.93,2.82,3.56,5.79,4.54,2.65.82,6.84,1.57,12.33-1.33l.07-.04c2.95-1.68,6.08-3.11,8.02-2.46,0,0,.25.09.11.3m-8.95-10.84c-4.61,2.73-7.72,3.04-8.86,2.4-.16-.09-.23-.27-.19-.44l2.06-9.8c.03-.13.14-.22.27-.22h6.16c.08,0,.16.06.16.15,0,.02,0,.03,0,.05l-1.16,5.09c-.03.1.03.2.13.23.04.01.09,0,.13-.02l2.65-1.18c.16-.07.28-.22.31-.39l1.47-6.48c.06-.23-.08-.46-.31-.52-.04-.01-.08-.02-.11-.02h-11.88c-.22,0-.4.15-.44.36l-2.93,13.94c-.04.17,0,.35.11.48l.31.4c.24.3,1.65,1.77,4.7,1.77,2.06,0,4.53-.69,9.32-3.18.08-.04,7.41-4.45,11.59.47.09.11.23.18.38.18h3.18c.11,0,.2-.09.2-.2,0-.04-.01-.08-.03-.11-5.32-8.4-13.32-5.27-17.2-2.96"/>
</svg>