<?xml version="1.0" encoding="utf-8"?>
<svg version="1.1" id="Layer_1" xmlns="http://www.w3.org/2000/svg" xmlns:xlink="http://www.w3.org/1999/xlink" x="0px" y="0px"
	 viewBox="0 0 227.7 68.4" style="enable-background:new 0 0 227.7 68.4;" xml:space="preserve">
<style type="text/css">
	.st0{fill:#2E2D77;}
	.st1{fill:#A6A7AA;}
</style>
<g>
	<g>
		<path class="st0" d="M28.2,40.1c-3.5,0-6.6-0.1-9.4-0.2v-4.2h13.6v-2.9H18.8v-4.2c2.7-0.1,5.7-0.2,8.9-0.2c4,0,7.4,0.1,9.9,0.4
			l0.4,0v-3.6l-0.3,0c-3.5-0.3-6.9-0.4-10.5-0.4c-4.4,0-8.9,0.1-12.9,0.4l-0.3,0v18.1l0.3,0c3.9,0.3,8.1,0.4,12.4,0.4
			c3.8,0,7.4-0.1,11.1-0.4l0.3,0v-3.6l-0.4,0C35.2,39.9,32.1,40.1,28.2,40.1z"/>
		<path class="st0" d="M59.9,39.7c-0.7,0.1-0.7,0.1-1.2,0.1c-0.4,0-0.5,0-1.1-0.1L50.5,25h-5.2l8.6,18.3l0.2,0
			c2.2,0.2,3.2,0.2,4.7,0.2c2.2,0,2.9-0.1,4.7-0.2l0.2,0L72.2,25h-5.2L59.9,39.7z"/>
		<path class="st0" d="M94.3,40.1c-3.5,0-6.6-0.1-9.4-0.2v-4.2h13.6v-2.9H84.9v-4.2c2.7-0.1,5.7-0.2,8.9-0.2c4,0,7.4,0.1,9.9,0.4
			l0.4,0v-3.6l-0.3,0c-3.5-0.3-6.9-0.4-10.5-0.4c-4.4,0-8.9,0.1-12.9,0.4l-0.3,0v18.1l0.3,0c3.9,0.3,8.1,0.4,12.4,0.4
			c3.8,0,7.4-0.1,11.1-0.4l0.3,0v-3.6l-0.4,0C101.3,39.9,98.2,40.1,94.3,40.1z"/>
		<rect x="147.8" y="25" class="st0" width="4.8" height="18.4"/>
		<path class="st0" d="M137.4,35.9l0.2,0l0-0.2c0.4-2,0.5-3.4,0.5-5s-0.2-3-0.5-5l0-0.2l-0.2,0c-4.3-0.6-9.3-0.7-11.9-0.7
			c-3.8,0-7.8,0.1-11.9,0.3l-0.3,0v18.4h4.8l0-7c2.6,0.1,4.9,0.1,7.2,0.1l7.1,6.8l0.1,0.1h6.3l-6.8-7
			C134,36.3,135.8,36.1,137.4,35.9z M133.2,30.7c0,0.9-0.1,1.3-0.1,2.1l0,0.1c-2.3,0.1-4.7,0.2-7.6,0.2c-2.1,0-4.7,0-7.4-0.1l0-0.3
			l0-4.3c2.7-0.1,5.2-0.1,7.4-0.1c2.9,0,5.3,0.1,7.6,0.2l0,0.1C133.2,29.3,133.2,29.8,133.2,30.7z"/>
	</g>
	<g>
		<g>
			<path class="st0" d="M212.2,19.7L192.3,8.2V22c4.2,0,8.5,0.2,12.6,0.5l0.4,0v4.8l-0.5,0c-3.3-0.3-7.5-0.5-12.5-0.5c0,0,0,0-0.1,0
				l-4.2,0c-2.4,0-4.8,0.1-6.9,0.2v5.7h6.9h0.5h3.7h6v3.9h-6h-3.7h-0.5h-6.9v5.7c2.1,0.1,4.4,0.2,6.9,0.2c0.2,0,0.3,0,0.5,0
				c1.2,0,2.4,0,3.7,0c0.2,0,0.5,0,0.7,0c4.8,0,8.8-0.2,11.9-0.5l0.5,0v4.8l-0.4,0c-4.2,0.3-8.5,0.5-12.7,0.5v12.8l19.8-11.5
				c0.9-0.5,1.5-1.5,1.6-2.6l0-23.7C213.7,21.3,213.1,20.3,212.2,19.7z"/>
			<path class="st1" d="M175.9,22.4c4.1-0.3,7.5-0.5,12.3-0.6V8.2l-19.8,11.5c-0.9,0.5-1.5,1.5-1.5,2.6l0,23.7
				c0,1.1,0.6,2.1,1.5,2.6l19.8,11.5V47.4c-4.7-0.2-8.1-0.3-12.3-0.6l-0.4,0V22.4L175.9,22.4z"/>
		</g>
		<g>
			<path class="st0" d="M209.4,56.7c0,0.7-0.6,1.3-1.3,1.3c-0.7,0-1.3-0.6-1.3-1.3c0-0.7,0.6-1.3,1.3-1.3
				C208.8,55.4,209.4,56,209.4,56.7z M207,56.7c0,0.6,0.5,1.1,1,1.1c0.6,0,1-0.5,1-1.1c0-0.6-0.5-1.1-1-1.1
				C207.5,55.7,207,56.1,207,56.7z M208.1,56c0.2,0,0.3,0,0.3,0.1c0.1,0.1,0.2,0.2,0.2,0.3c0,0.2-0.1,0.3-0.2,0.4
				c0.2,0.1,0.2,0.2,0.2,0.5c0,0.1,0,0.2,0,0.2h-0.3c0,0,0-0.1,0-0.2c0-0.2,0-0.3-0.1-0.3c0,0-0.1-0.1-0.2-0.1h-0.2v0.6h-0.3V56
				H208.1z M207.9,56.7h0.2c0.2,0,0.3-0.1,0.3-0.2c0-0.2-0.1-0.2-0.3-0.2h-0.2V56.7z"/>
		</g>
	</g>
</g>
</svg>
