<svg viewBox="0 0 667.66 295.29" xmlns="http://www.w3.org/2000/svg"><path d="m234.35 157.84h31.86c-1.36 4.15-3.44 7.53-6.22 10.11-4.4 4.1-11.12 6.17-19.97 6.17-6.07 0-11.18-1.11-15.17-3.34-4.15-2.27-7.38-5.21-9.91-9-2.73-3.94-4.7-8.55-5.97-13.6-1.31-5.36-1.97-10.92-1.97-16.64s.66-11.83 1.97-17.39c1.26-5.26 3.29-9.96 5.97-14.06 2.58-3.79 5.81-6.78 9.91-9.05 3.99-2.18 9.1-3.34 15.17-3.34s11.43 1.57 15.68 4.75c4.1 3.08 6.83 7.79 8.39 14.41l1.47 6.32h47.38l-.86-8.95c-.96-9.76-3.69-18.61-8.04-26.24-4.35-7.53-9.96-14.01-16.69-19.16-6.57-5.11-14.06-9-22.25-11.63-8.04-2.58-16.49-3.89-25.08-3.89-12.74 0-24.37 2.33-34.69 6.88s-19.17 10.97-26.29 19.06c-7.03 7.99-12.49 17.44-16.23 28.06-1.53 4.37-2.74 8.91-3.63 13.61.5-.03 1-.06 1.52-.06 9.7 0 15.59 6.03 16.38 15.37h-10.99c-.29-3.45-2.23-5.46-5.03-5.46s-4.67 1.8-4.67 4.6c0 2.95 2.37 5.17 7.04 9.63l8.05 7.83 5.17-8.41h11.93l-9.27 15.3-.29.43 10.92 10.63h-15.02l-3.16-2.95c-2.9 1.98-6.28 3.25-10.1 3.76.38 1.22.78 2.43 1.21 3.62 3.74 10.52 9.2 19.82 16.28 27.66 7.13 7.94 15.93 14.26 26.24 18.71 10.26 4.5 21.95 6.73 34.64 6.73 8.39 0 16.84-1.72 25.03-5.21 4.04-1.67 7.89-3.94 11.53-6.83l1.72 8.65h36.15v-93.29h-80.09v36.2h-.02z" fill="#ffc20e"/><path d="m150.13 146.06c0 3.3 3.38 6.03 7.76 6.03 1.94 0 4.1-.5 6.11-1.51l-7.69-7.26-2.73-2.59c-2.08 1.22-3.45 3.09-3.45 5.32m57.65-102.59h-139.78v171.46h48.85v-54h33.73c-7.16-2.05-11.58-7.33-11.58-14.43 0-5.96 3.45-10.28 8.26-12.86-2.01-2.87-2.95-5.53-2.95-8.55 0-5.79 3.5-10.79 9.37-13h-36.83v-19.82h42.29c3.74-9.71 8.75-18.51 15.12-25.99 7.33-8.65 16.38-15.42 26.9-20.23 2.12-1.01 4.35-1.82 6.62-2.58" fill="#4f2777"/><path d="m352.5 251.41h-2v-208.18h2zm-47.76-11.29h8.48v4.06h-8.48v3.32h9.72v4.14h-14.48v-19.15h14.48v4.14h-9.72zm-16.42.62h8.22v4.14h-8.22v6.76h-4.76v-19.15h14.28v4.2h-9.52v4.06zm-8.14 10.9h-4.76v-19.15h4.76zm-7.01 0h-14.22v-19.15h4.76v14.96h9.46v4.2zm-35.88-3.41c.76 0 1.61-.2 2.39-.59l-3.01-2.85-1.07-1.01c-.82.48-1.35 1.21-1.35 2.08 0 1.3 1.32 2.37 3.04 2.37m5.44 2.25c-1.52 1.04-3.38 1.58-5.55 1.58-4.39 0-7.3-2.42-7.3-6.03 0-2.34 1.35-4.03 3.24-5.04-.79-1.13-1.16-2.17-1.16-3.35 0-3.07 2.51-5.58 6.42-5.58s6.11 2.37 6.42 6.03h-4.31c-.11-1.35-.87-2.14-1.97-2.14s-1.83.7-1.83 1.8c0 1.16.93 2.03 2.76 3.77l3.15 3.07 2.03-3.3h4.67l-3.63 6-.11.17 4.28 4.17h-5.89l-1.24-1.16h.02zm-30.28-18.42c3.1 0 7.72 1.21 8.2 6.36h-4.79c-.25-1.44-1.16-2.42-3.1-2.42-1.63 0-2.73.68-2.73 1.92 0 1.04.76 1.49 2.2 1.8l2.68.62c3.49.76 5.77 2.17 5.77 5.46 0 3.83-3.15 6.22-7.94 6.22-4.31 0-8.2-2.03-8.65-6.76h4.76c.31 1.69 1.78 2.7 4.03 2.7 1.77 0 2.7-.65 2.7-1.69 0-.65-.39-1.32-2.03-1.63l-3.15-.7c-3.77-.82-5.55-2.59-5.55-5.63 0-3.83 3.1-6.25 7.6-6.25m-19.83 8.05h8.48v4.06h-8.48v3.32h9.72v4.14h-14.48v-19.15h14.48v4.14h-9.72zm-8.14 11.52h-4.76v-19.15h4.76zm-12.98-14.9v14.9h-4.76v-14.9h-6.11v-4.25h16.95v4.25zm-13.01 14.9h-4.76v-19.15h4.76zm-7.86-8.93c0 5.94-3.44 9.35-8.93 9.35s-8.9-3.41-8.9-9.35v-10.22h4.79v10.31c0 2.93 1.61 4.82 4.11 4.82s4.14-1.89 4.14-4.82v-10.31h4.79zm-20.9 8.93h-3.69l-9.18-10.51v10.51h-4.76v-19.15h3.63l9.24 10.79v-10.79h4.76s0 19.15 0 19.15zm-20.98 0h-3.69l-9.18-10.51v10.51h-4.76v-19.15h3.63l9.24 10.79v-10.79h4.76s0 19.15 0 19.15zm-30.08-13.72-2.48 6.36h4.96zm-4.06 10.42-1.27 3.3h-5.07l8.14-19.26h4.53l8.11 19.26h-5.04l-1.3-3.3h-8.11zm324.23-150.57v22.7h6.12v-22.7h8.35v-5.15h-22.82v5.15s8.35 0 8.35 0zm32.41 22.7v-20.16h-5.54v10.57c0 2.05-.34 3.53-1.01 4.43-.68.9-1.77 1.35-3.28 1.35-1.33 0-2.25-.41-2.77-1.23s-.78-2.06-.78-3.72v-11.39h-5.54v12.4c0 1.25.11 2.39.33 3.41.22 1.03.6 1.9 1.15 2.61.55.72 1.29 1.27 2.24 1.66s2.16.59 3.65.59c1.17 0 2.31-.26 3.43-.78s2.03-1.36 2.73-2.53h.12v2.81h5.27zm4.21-20.16v20.16h5.54v-9.09c0-.91.09-1.76.27-2.54s.49-1.46.92-2.05.99-1.05 1.7-1.38c.7-.34 1.56-.51 2.57-.51.34 0 .69.02 1.05.06s.68.08.94.14v-5.15c-.44-.13-.85-.19-1.21-.19-.7 0-1.38.1-2.03.31s-1.26.5-1.83.88-1.08.83-1.52 1.36-.79 1.11-1.05 1.74h-.08v-3.74zm15.87 0v20.16h5.54v-10.57c0-2.05.34-3.53 1.01-4.43.68-.9 1.77-1.35 3.28-1.35 1.33 0 2.25.41 2.77 1.23s.78 2.06.78 3.72v11.39h5.54v-12.4c0-1.25-.11-2.39-.33-3.41-.22-1.03-.6-1.9-1.15-2.61s-1.29-1.27-2.24-1.68c-.95-.4-2.16-.6-3.65-.6-1.17 0-2.31.27-3.43.8s-2.03 1.38-2.73 2.55h-.12v-2.81h-5.27zm28.82-3.12v-4.56h-5.54v4.56zm-5.54 3.12v20.16h5.54v-20.16zm9.91 0v20.16h5.54v-10.57c0-2.05.34-3.53 1.01-4.43s1.77-1.35 3.28-1.35c1.33 0 2.25.41 2.77 1.23s.78 2.06.78 3.72v11.39h5.54v-12.4c0-1.25-.11-2.39-.33-3.41-.22-1.03-.6-1.9-1.15-2.61s-1.29-1.27-2.24-1.68c-.95-.4-2.16-.6-3.65-.6-1.17 0-2.31.27-3.43.8s-2.03 1.38-2.73 2.55h-.12v-2.81h-5.27zm42.51 18.88v-18.88h-5.27v2.69h-.08c-.68-1.17-1.51-2-2.52-2.5-1-.49-2.16-.74-3.49-.74-1.4 0-2.65.27-3.72.82-1.08.55-1.98 1.28-2.71 2.2s-1.28 1.99-1.66 3.2-.57 2.46-.57 3.76c0 1.38.16 2.69.49 3.92.32 1.24.84 2.31 1.54 3.24.7.92 1.6 1.65 2.69 2.18s2.39.8 3.9.8c1.22 0 2.39-.25 3.49-.76s1.96-1.29 2.55-2.36h.08v2.65c.03 1.43-.32 2.61-1.03 3.55-.72.94-1.85 1.4-3.41 1.4-.99 0-1.86-.2-2.61-.6s-1.26-1.12-1.52-2.16h-5.5c.08 1.14.4 2.13.96 2.94.56.82 1.26 1.49 2.11 2.01.84.52 1.78.9 2.81 1.15s2.03.37 3.02.37c2.31 0 4.16-.31 5.54-.94 1.38-.62 2.43-1.38 3.16-2.28s1.2-1.87 1.42-2.91.33-1.96.33-2.77zm-9.98-3.47c-.86 0-1.57-.18-2.14-.55-.57-.36-1.03-.83-1.38-1.4s-.6-1.22-.74-1.93-.21-1.44-.21-2.16.08-1.48.25-2.16c.17-.69.44-1.3.82-1.83s.84-.96 1.4-1.27 1.23-.47 2.01-.47c.91 0 1.66.17 2.26.51s1.08.79 1.44 1.36.62 1.23.78 1.97.23 1.53.23 2.36c0 .73-.1 1.42-.29 2.09-.2.66-.49 1.25-.88 1.77s-.88.94-1.48 1.25-1.29.47-2.07.47zm-116.77 17.77-10.53 27.85h6.16l2.18-6.2h10.41l2.11 6.2h6.36l-10.41-27.85zm-.59 17.08 3.63-10.22h.08l3.51 10.22zm23.4 4.21h-5.27c.05 1.35.36 2.48.92 3.37.56.9 1.27 1.62 2.14 2.16.87.55 1.87.94 2.98 1.17 1.12.23 2.26.35 3.43.35s2.27-.11 3.37-.33 2.09-.6 2.94-1.15c.86-.55 1.55-1.27 2.09-2.16.53-.9.8-2.01.8-3.33 0-.94-.18-1.72-.55-2.36-.36-.64-.85-1.17-1.44-1.6-.6-.43-1.28-.77-2.05-1.03s-1.55-.48-2.36-.66c-.78-.18-1.55-.35-2.3-.51s-1.42-.33-2.01-.53-1.06-.45-1.42-.76-.55-.71-.55-1.21c0-.42.1-.75.31-.99.21-.25.46-.43.76-.57.3-.13.63-.21.99-.25s.7-.06 1.01-.06c.99 0 1.85.19 2.57.57.73.38 1.13 1.1 1.21 2.16h5.27c-.1-1.25-.42-2.28-.96-3.1-.53-.82-1.2-1.48-2.01-1.97s-1.72-.84-2.75-1.05-2.09-.31-3.18-.31-2.16.1-3.2.29c-1.04.2-1.98.53-2.81 1.01s-1.5 1.14-2.01 1.97-.76 1.9-.76 3.2c0 .88.18 1.63.55 2.24.36.61.84 1.12 1.44 1.52s1.28.73 2.05.98 1.55.46 2.36.64c1.98.42 3.52.83 4.62 1.25s1.66 1.04 1.66 1.87c0 .49-.12.9-.35 1.23s-.53.59-.88.78-.74.34-1.17.43-.84.14-1.23.14c-.55 0-1.07-.06-1.58-.2-.51-.13-.96-.33-1.35-.6s-.71-.62-.96-1.05-.37-.94-.37-1.54h.05zm16.65-13.61v27.22h5.54v-9.56h.08c.68.99 1.54 1.74 2.59 2.24s2.2.76 3.45.76c1.48 0 2.77-.29 3.88-.86 1.1-.57 2.03-1.34 2.77-2.3s1.29-2.07 1.66-3.32c.36-1.25.55-2.55.55-3.9 0-1.43-.18-2.8-.55-4.11-.36-1.31-.92-2.46-1.68-3.45-.75-.99-1.7-1.78-2.85-2.38-1.14-.6-2.51-.9-4.1-.9-1.25 0-2.39.25-3.43.74s-1.9 1.29-2.57 2.38h-.08v-2.57h-5.27zm10.18 16.54c-.88 0-1.64-.18-2.26-.55-.62-.36-1.13-.84-1.5-1.42-.38-.59-.65-1.27-.82-2.05s-.25-1.57-.25-2.38.08-1.64.23-2.42c.16-.78.42-1.47.8-2.07s.87-1.09 1.48-1.46c.61-.38 1.37-.57 2.28-.57s1.63.19 2.24.57 1.11.87 1.5 1.48.67 1.31.84 2.09.25 1.57.25 2.38-.08 1.6-.23 2.38-.42 1.46-.8 2.05-.87 1.06-1.48 1.42-1.37.55-2.28.55zm19.34-19.66v-4.56h-5.54v4.56zm-5.54 3.12v20.16h5.54v-20.16s-5.54 0-5.54 0zm9.91 0v20.16h5.54v-9.09c0-.91.09-1.76.27-2.54s.49-1.46.92-2.05.99-1.05 1.7-1.38c.7-.34 1.56-.51 2.57-.51.34 0 .69.02 1.05.06s.68.08.94.14v-5.15c-.44-.13-.85-.19-1.21-.19-.7 0-1.38.1-2.03.31s-1.26.5-1.83.88-1.08.83-1.52 1.36-.79 1.11-1.05 1.74h-.08v-3.74zm20.48 6.2c.1-1.09.47-1.87 1.09-2.34s1.48-.7 2.57-.7c.49 0 .96.03 1.38.1.43.07.81.2 1.13.39.32.2.59.47.78.82.2.35.29.83.29 1.42.03.57-.14 1.01-.51 1.31-.36.3-.86.53-1.48.68s-1.34.27-2.15.35-1.63.18-2.46.31-1.66.31-2.48.53-1.55.55-2.18.99c-.64.44-1.16 1.03-1.56 1.77s-.6 1.68-.6 2.83c0 1.04.18 1.94.53 2.69s.84 1.38 1.46 1.87 1.35.86 2.18 1.09 1.73.35 2.69.35c1.25 0 2.47-.18 3.67-.55 1.2-.36 2.24-1 3.12-1.91.03.34.07.67.14.99.06.33.15.64.25.96h5.62c-.26-.42-.44-1.04-.55-1.87-.1-.83-.16-1.7-.16-2.61v-10.49c0-1.22-.27-2.2-.82-2.94s-1.25-1.32-2.11-1.74-1.81-.7-2.85-.84-2.07-.21-3.08-.21c-1.12 0-2.23.11-3.33.33-1.11.22-2.1.59-2.98 1.11s-1.61 1.21-2.18 2.07-.9 1.94-.98 3.24zm7.25 6.16c0 .31-.03.73-.1 1.25s-.24 1.03-.53 1.54-.73.94-1.33 1.31c-.6.36-1.44.55-2.54.55-.44 0-.87-.04-1.29-.12s-.78-.21-1.09-.41c-.31-.19-.56-.46-.74-.8s-.27-.75-.27-1.25.09-.95.27-1.29.42-.62.72-.84.65-.4 1.05-.53.81-.23 1.23-.31c.44-.08.88-.14 1.33-.2.44-.05.86-.12 1.27-.19.4-.08.78-.18 1.13-.29.35-.12.64-.28.88-.49v2.07zm16.85-12.36v-6.05h-5.54v6.05h-3.35v3.71h3.35v11.9c0 1.01.17 1.83.51 2.46.34.62.8 1.11 1.38 1.44.58.34 1.26.57 2.03.68.77.12 1.58.18 2.44.18.55 0 1.1-.01 1.68-.04.57-.03 1.09-.08 1.56-.16v-4.29c-.26.05-.53.09-.82.12s-.59.04-.9.04c-.94 0-1.56-.16-1.87-.47s-.47-.94-.47-1.87v-9.98h4.06v-3.71h-4.06zm12.4-3.12v-4.56h-5.54v4.56zm-5.54 3.12v20.16h5.54v-20.16zm9.28 10.1c0 1.61.25 3.07.74 4.37s1.2 2.41 2.11 3.33 2 1.63 3.28 2.13c1.27.49 2.7.74 4.29.74s3.02-.25 4.31-.74 2.39-1.2 3.3-2.13c.91-.92 1.61-2.03 2.11-3.33.49-1.3.74-2.76.74-4.37s-.25-3.07-.74-4.39c-.49-1.31-1.2-2.43-2.11-3.35s-2.01-1.64-3.3-2.14c-1.29-.51-2.72-.76-4.31-.76s-3.02.25-4.29.76-2.37 1.22-3.28 2.14-1.61 2.04-2.11 3.35c-.49 1.31-.74 2.78-.74 4.39zm5.54 0c0-.81.08-1.6.23-2.38.16-.78.42-1.47.8-2.07s.88-1.09 1.5-1.46c.62-.38 1.4-.57 2.34-.57s1.72.19 2.36.57 1.14.86 1.52 1.46.64 1.29.8 2.07.23 1.57.23 2.38-.08 1.59-.23 2.36c-.16.77-.42 1.46-.8 2.07s-.88 1.1-1.52 1.46-1.42.55-2.36.55-1.72-.18-2.34-.55c-.62-.36-1.12-.85-1.5-1.46s-.64-1.3-.8-2.07-.23-1.55-.23-2.36zm18.92-10.1v20.16h5.54v-10.57c0-2.05.34-3.53 1.01-4.43.68-.9 1.77-1.35 3.28-1.35 1.33 0 2.25.41 2.77 1.23s.78 2.06.78 3.72v11.39h5.54v-12.4c0-1.25-.11-2.39-.33-3.41-.22-1.03-.6-1.9-1.15-2.61s-1.29-1.27-2.24-1.68c-.95-.4-2.16-.6-3.65-.6-1.17 0-2.31.27-3.43.8s-2.03 1.38-2.73 2.55h-.12v-2.81h-5.27zm27.42 13.61h-5.27c.05 1.35.36 2.48.92 3.37.56.9 1.27 1.62 2.14 2.16.87.55 1.87.94 2.98 1.17 1.12.23 2.26.35 3.43.35s2.27-.11 3.37-.33 2.09-.6 2.94-1.15c.86-.55 1.55-1.27 2.09-2.16.53-.9.8-2.01.8-3.33 0-.94-.18-1.72-.55-2.36-.36-.64-.85-1.17-1.44-1.6-.6-.43-1.28-.77-2.05-1.03s-1.55-.48-2.36-.66c-.78-.18-1.55-.35-2.3-.51s-1.42-.33-2.01-.53-1.06-.45-1.42-.76-.55-.71-.55-1.21c0-.42.1-.75.31-.99.21-.25.46-.43.76-.57.3-.13.63-.21.99-.25s.7-.06 1.01-.06c.99 0 1.85.19 2.57.57.73.38 1.13 1.1 1.21 2.16h5.27c-.1-1.25-.42-2.28-.96-3.1-.53-.82-1.2-1.48-2.01-1.97s-1.72-.84-2.75-1.05-2.09-.31-3.18-.31-2.16.1-3.2.29c-1.04.2-1.98.53-2.81 1.01s-1.5 1.14-2.01 1.97-.76 1.9-.76 3.2c0 .88.18 1.63.55 2.24.36.61.84 1.12 1.44 1.52s1.28.73 2.05.98 1.55.46 2.36.64c1.98.42 3.52.83 4.62 1.25s1.66 1.04 1.66 1.87c0 .49-.12.9-.35 1.23s-.53.59-.88.78-.74.34-1.17.43-.84.14-1.23.14c-.55 0-1.07-.06-1.58-.2-.51-.13-.96-.33-1.35-.6s-.71-.62-.96-1.05-.37-.94-.37-1.54h.05zm-188.45 24.13v-4.56h-5.54v4.56zm-5.54 3.12v20.16h5.54v-20.16zm9.91 0v20.16h5.54v-10.57c0-2.05.34-3.53 1.01-4.43.68-.9 1.77-1.35 3.28-1.35 1.33 0 2.25.41 2.77 1.23s.78 2.06.78 3.72v11.39h5.54v-12.4c0-1.25-.11-2.39-.33-3.41-.22-1.03-.6-1.9-1.15-2.61s-1.29-1.27-2.24-1.68c-.95-.4-2.16-.6-3.65-.6-1.17 0-2.31.27-3.43.8s-2.03 1.38-2.73 2.55h-.12v-2.81h-5.27zm30.15 0v-6.05h-5.54v6.05h-3.35v3.71h3.35v11.9c0 1.01.17 1.83.51 2.46.34.62.8 1.11 1.38 1.44.58.34 1.26.57 2.03.68.77.12 1.58.18 2.44.18.55 0 1.1 0 1.68-.04.57-.03 1.09-.08 1.56-.16v-4.29c-.26.05-.53.09-.82.12s-.59.04-.9.04c-.94 0-1.56-.16-1.87-.47s-.47-.94-.47-1.87v-9.98h4.06v-3.71h-4.06zm6.08 10.1c0 1.61.25 3.07.74 4.37s1.2 2.41 2.11 3.33 2 1.63 3.28 2.13c1.27.49 2.7.74 4.29.74s3.02-.25 4.31-.74 2.39-1.2 3.3-2.13c.91-.92 1.61-2.03 2.11-3.33.49-1.3.74-2.76.74-4.37s-.25-3.07-.74-4.39c-.49-1.31-1.2-2.43-2.11-3.35s-2.01-1.64-3.3-2.14c-1.29-.51-2.72-.76-4.31-.76s-3.02.25-4.29.76-2.37 1.22-3.28 2.14-1.61 2.04-2.11 3.35c-.49 1.31-.74 2.78-.74 4.39zm5.54 0c0-.81.08-1.6.23-2.38.16-.78.42-1.47.8-2.07s.88-1.09 1.5-1.46c.62-.38 1.4-.57 2.34-.57s1.72.19 2.36.57 1.14.86 1.52 1.46.64 1.29.8 2.07.23 1.57.23 2.38-.08 1.59-.23 2.36c-.16.77-.42 1.46-.8 2.07s-.88 1.1-1.52 1.46-1.42.55-2.36.55-1.72-.18-2.34-.55c-.62-.36-1.12-.85-1.5-1.46s-.64-1.3-.8-2.07-.23-1.55-.23-2.36zm30.34-17.78v27.85h6.12v-10.88h6.12c1.53 0 2.64.34 3.32 1.01.68.68 1.12 1.74 1.33 3.2.16 1.12.27 2.29.35 3.51s.29 2.28.62 3.16h6.12c-.29-.39-.5-.86-.64-1.42s-.25-1.15-.31-1.77-.11-1.23-.14-1.83-.05-1.12-.08-1.56c-.05-.7-.15-1.4-.29-2.11-.14-.7-.37-1.35-.68-1.93s-.72-1.09-1.21-1.52-1.12-.75-1.87-.96v-.08c1.56-.62 2.68-1.53 3.37-2.73s1.03-2.61 1.03-4.25c0-1.07-.19-2.06-.57-2.98s-.92-1.74-1.64-2.44-1.57-1.25-2.57-1.66c-1-.4-2.13-.6-3.37-.6h-15.02.01zm6.12 12.6v-7.84h6.71c1.4 0 2.46.31 3.16.92s1.05 1.59 1.05 2.94-.35 2.42-1.05 3.04-1.75.94-3.16.94zm26.01 6.51h14.55c.1-1.56-.03-3.06-.39-4.49s-.96-2.7-1.77-3.82c-.82-1.12-1.87-2.01-3.14-2.67s-2.77-.99-4.49-.99c-1.53 0-2.93.27-4.19.82s-2.35 1.29-3.26 2.24-1.61 2.07-2.11 3.37c-.49 1.3-.74 2.7-.74 4.21s.24 2.99.72 4.29 1.16 2.42 2.05 3.35c.88.94 1.96 1.66 3.24 2.16 1.27.51 2.7.76 4.29.76 2.29 0 4.24-.52 5.85-1.56s2.81-2.77 3.59-5.19h-4.88c-.18.62-.68 1.22-1.48 1.77-.81.56-1.77.84-2.89.84-1.56 0-2.76-.4-3.59-1.21s-1.29-2.11-1.36-3.9zm9.01-3.51h-9.01c.03-.39.11-.83.25-1.33.14-.49.39-.96.74-1.4s.82-.81 1.4-1.11c.59-.3 1.32-.45 2.2-.45 1.35 0 2.36.36 3.02 1.09s1.12 1.79 1.38 3.2zm14.12-1.72c.1-1.09.47-1.87 1.09-2.34s1.48-.7 2.57-.7c.49 0 .96.03 1.38.1.43.07.81.2 1.13.39.32.2.59.47.78.82.2.35.29.83.29 1.42.03.57-.14 1.01-.51 1.31-.36.3-.86.53-1.48.68s-1.34.27-2.15.35-1.63.18-2.46.31-1.66.31-2.48.53-1.55.55-2.18.99c-.64.44-1.16 1.03-1.56 1.77s-.6 1.68-.6 2.83c0 1.04.18 1.94.53 2.69s.84 1.38 1.46 1.87 1.35.86 2.18 1.09 1.73.35 2.69.35c1.25 0 2.47-.18 3.67-.55 1.2-.36 2.24-1 3.12-1.91.03.34.07.67.14.99.06.33.15.64.25.96h5.62c-.26-.42-.44-1.04-.55-1.87-.1-.83-.16-1.7-.16-2.61v-10.49c0-1.22-.27-2.2-.82-2.94s-1.25-1.32-2.11-1.74-1.81-.7-2.85-.84-2.07-.21-3.08-.21c-1.12 0-2.23.11-3.33.33-1.11.22-2.1.59-2.98 1.11s-1.61 1.21-2.18 2.07-.9 1.94-.98 3.24zm7.25 6.16c0 .31-.03.73-.1 1.25s-.24 1.03-.53 1.54-.73.94-1.33 1.31c-.6.36-1.44.55-2.54.55-.44 0-.87-.04-1.29-.12s-.78-.21-1.09-.41c-.31-.19-.56-.46-.74-.8s-.27-.75-.27-1.25.09-.95.27-1.29.42-.62.72-.84.65-.4 1.05-.53.81-.23 1.23-.31c.44-.08.88-.14 1.33-.2.44-.05.86-.12 1.27-.19.4-.08.78-.18 1.13-.29.35-.12.64-.28.88-.49v2.07zm9.98-20.05v27.85h5.54v-27.85zm15.6 4.56v-4.56h-5.54v4.56zm-5.54 3.12v20.16h5.54v-20.16zm16.93 0v-6.05h-5.54v6.05h-3.35v3.71h3.35v11.9c0 1.01.17 1.83.51 2.46.34.62.8 1.11 1.38 1.44.58.34 1.26.57 2.03.68.77.12 1.58.18 2.44.18.55 0 1.1 0 1.68-.04.57-.03 1.09-.08 1.56-.16v-4.29c-.26.05-.53.09-.82.12s-.59.04-.9.04c-.94 0-1.56-.16-1.87-.47s-.47-.94-.47-1.87v-9.98h4.06v-3.71h-4.06zm16.65 22.66 8.42-22.66h-5.73l-4.41 13.81h-.08l-4.56-13.81h-5.89l7.06 18.92c.16.39.23.81.23 1.25 0 .6-.18 1.14-.53 1.64-.35.49-.89.78-1.62.86-.55.03-1.09 0-1.64-.04-.55-.05-1.08-.1-1.6-.16v4.56c.57.05 1.14.1 1.7.14s1.12.06 1.7.06c1.9 0 3.38-.35 4.45-1.05s1.9-1.87 2.5-3.51zm-292.25-156c.46-1.04 1.08-1.93 1.86-2.7.79-.76 1.7-1.36 2.74-1.79s2.15-.65 3.32-.65 2.28.22 3.32.65c1.04.44 1.94 1.03 2.72 1.79s1.39 1.66 1.85 2.7.68 2.16.68 3.36-.23 2.37-.68 3.42c-.46 1.04-1.08 1.95-1.85 2.72-.78.77-1.68 1.37-2.72 1.79-1.04.43-2.14.64-3.32.64s-2.28-.21-3.32-.64-1.95-1.02-2.74-1.79-1.41-1.68-1.86-2.72c-.46-1.04-.69-2.18-.69-3.42s.23-2.32.69-3.36zm1.41 6.27c.36.89.85 1.66 1.48 2.32.63.65 1.38 1.17 2.24 1.54s1.79.56 2.8.56 1.91-.19 2.77-.56c.85-.37 1.59-.89 2.23-1.54.63-.66 1.13-1.43 1.49-2.32s.54-1.86.54-2.91-.18-1.97-.54-2.86-.85-1.65-1.49-2.3-1.37-1.16-2.23-1.53c-.85-.37-1.78-.56-2.77-.56s-1.94.19-2.8.56-1.61.88-2.24 1.53-1.12 1.41-1.48 2.3c-.36.88-.54 1.84-.54 2.86s.18 2.02.54 2.91zm7.05-7.87c1.19 0 2.07.24 2.64.71s.86 1.19.86 2.15c0 .9-.25 1.56-.75 1.98s-1.13.66-1.87.74l2.86 4.41h-1.67l-2.72-4.3h-1.65v4.3h-1.55v-9.99h3.86zm-.68 4.43c.35 0 .68-.01.99-.03s.59-.09.83-.19.44-.27.58-.49.21-.53.21-.93c0-.33-.06-.6-.19-.8s-.3-.35-.5-.46-.44-.18-.71-.22c-.26-.04-.53-.06-.79-.06h-2.06v3.18z" fill="#636466"/></svg>