<svg xmlns="http://www.w3.org/2000/svg" id="Layer_1" viewBox="0 0 250 50"><defs><style>.cls-1{fill:#ed1944;}.cls-2{font-family:Montserrat-Medium, Montserrat;font-size:4.53px;font-weight:500;isolation:isolate;}.cls-3{fill-rule:evenodd;}</style></defs><polygon points="12.03 2.5 6.82 25.95 14.06 25.95 15.81 18.1 33.39 18.1 34.64 12.39 17.06 12.39 18.02 8.21 36.61 8.21 37.91 2.5 12.03 2.5"></polygon><polygon points="41.19 2.5 35.99 25.95 59 25.95 60.24 20.25 44.47 20.25 48.43 2.5 41.19 2.5"></polygon><polygon points="67.03 2.5 61.83 25.95 88 25.95 89.24 20.25 70.3 20.25 71.1 16.68 89.75 16.68 90.88 11.77 72.17 11.77 72.96 8.21 91.61 8.21 92.91 2.5 67.03 2.5"></polygon><polygon points="114.62 15.38 124.91 25.95 116.83 25.95 110.66 18.89 114.62 15.38"></polygon><polygon points="132.03 2.5 126.77 25.95 134.01 25.95 139.27 2.5 132.03 2.5"></polygon><polygon points="168.83 2.5 155.66 19.34 150.52 2.5 142.6 2.5 149.89 25.95 158.71 25.95 176.52 2.5 168.83 2.5"></polygon><path d="M184.15,10.07l1.81-2.32,2.77,8.31h-9.1l4.52-5.99Zm-1.47-7.91l-18.37,23.57h8.08l3.17-4.01h14.41l1.41,3.9h7.97l-7.46-23.46h-9.21Z"></path><polygon points="231.91 2.5 228.07 19.68 217.78 2.5 207.1 2.5 201.84 25.95 209.08 25.95 212.86 8.88 223.32 25.95 233.89 25.95 239.09 2.5 231.91 2.5"></polygon><polygon points="120.39 2.38 112.13 8.66 114.79 12.67 128.41 2.38 120.39 2.38"></polygon><polygon class="cls-1" points="96.59 2.38 104.28 13.91 90.48 25.84 99.92 25.84 113.15 13.86 105.63 2.38 96.59 2.38"></polygon><rect class="cls-1" x="6.82" y="32.23" width="232.44" height="1.64"></rect><g><path d="M149.05,44.33c0,.96-.73,1.58-1.92,1.58h-1.02v1.3h-.85v-4.52h1.87c1.19,.06,1.92,.68,1.92,1.64Zm-.85,0c0-.57-.4-.9-1.13-.9h-.96v1.81h.96c.73,0,1.13-.34,1.13-.9Z"></path><path d="M149.5,45.51c0-1.02,.79-1.75,1.81-1.75,1.07,0,1.81,.73,1.81,1.75s-.79,1.75-1.81,1.75-1.81-.73-1.81-1.75Zm2.83,0c0-.68-.45-1.07-1.02-1.07s-1.02,.4-1.02,1.07,.45,1.07,1.02,1.07,1.02-.4,1.02-1.07Z"></path><path d="M159.16,43.82l-1.24,3.45h-.79l-.9-2.37-.9,2.37h-.79l-1.24-3.45h.73l.9,2.54,.96-2.54h.68l.9,2.54,.9-2.54h.79Z"></path><path d="M162.84,45.8h-2.71c.11,.51,.51,.85,1.13,.85,.4,0,.68-.11,.9-.4l.45,.51c-.28,.34-.79,.57-1.36,.57-1.13,0-1.92-.73-1.92-1.75s.73-1.75,1.75-1.75,1.75,.68,1.75,1.75c0,.06,0,.11,0,.23Zm-2.71-.57h1.92c-.06-.51-.45-.85-.96-.85-.51,.06-.85,.4-.96,.85Z"></path><path d="M165.61,43.76v.79h-.17c-.62,0-1.02,.34-1.02,1.07v1.64h-.79v-3.45h.79v.51c.17-.4,.62-.57,1.19-.57Z"></path><path d="M169.45,45.8h-2.71c.11,.51,.51,.85,1.13,.85,.4,0,.68-.11,.9-.4l.45,.51c-.28,.34-.79,.57-1.36,.57-1.13,0-1.92-.73-1.92-1.75s.73-1.75,1.75-1.75,1.75,.68,1.75,1.75c0,.06,0,.11,0,.23Zm-2.71-.57h1.92c-.06-.51-.45-.85-.96-.85-.51,.06-.85,.4-.96,.85Z"></path><path d="M173.58,42.46v4.75h-.79v-.45c-.28,.34-.68,.51-1.13,.51-1.02,0-1.75-.68-1.75-1.75s.73-1.75,1.75-1.75c.45,0,.85,.17,1.13,.45v-1.75s.79,0,.79,0Zm-.79,3.05c0-.68-.45-1.07-1.02-1.07s-1.02,.4-1.02,1.07,.45,1.07,1.02,1.07c.62,0,1.02-.4,1.02-1.07Z"></path><path d="M180.08,45.51c0,1.07-.73,1.75-1.75,1.75-.45,0-.85-.17-1.13-.51v.45h-.79v-4.75h.79v1.75c.28-.28,.68-.45,1.07-.45,1.07,0,1.81,.68,1.81,1.75Zm-.85,0c0-.68-.45-1.07-1.02-1.07s-1.02,.4-1.02,1.07,.45,1.07,1.02,1.07c.62,0,1.02-.4,1.02-1.07Z"></path><path d="M183.92,43.82l-1.58,3.73c-.34,.79-.73,1.02-1.3,1.02-.34,0-.68-.11-.9-.34l.34-.57c.17,.17,.4,.23,.57,.23,.28,0,.45-.11,.62-.45l.06-.11-1.47-3.45h.85l1.07,2.54,1.07-2.54h.68v-.06Z"></path></g><path class="cls-3" d="M188.9,47.43l-.06,.11h-2.88l.17-.28,4.24-8.14,.06-.11h2.66l.06,.11,4.24,8.14,.17,.28h-7.63l.96-2.2h2.6c-.57-1.19-.96-1.92-1.75-3.62-1.41,2.88-1.87,3.79-2.83,5.71Z"></path><polygon class="cls-3" points="198.68 47.38 198.68 41.1 201.33 41.1 201.33 47.38 201.33 47.6 201.11 47.6 198.9 47.6 198.68 47.6 198.68 47.38"></polygon><polygon class="cls-3" points="198.68 40.54 198.68 39.24 198.68 39.01 198.9 39.01 201.11 39.01 201.28 39.01 198.68 40.54"></polygon><polygon class="cls-3" points="213.2 47.38 213.2 42.52 210.55 47.49 210.49 47.6 210.38 47.6 208.29 47.6 208.12 47.6 208.06 47.49 205.46 42.52 205.46 47.38 205.46 47.6 205.23 47.6 203.08 47.6 202.86 47.6 202.86 47.38 202.86 39.24 202.86 39.01 203.08 39.01 206.02 39.01 206.19 39.01 206.25 39.13 209.3 44.95 212.41 39.13 212.47 39.01 212.58 39.01 215.58 39.01 215.8 39.01 215.8 39.24 215.8 47.38 215.8 47.6 215.58 47.6 213.37 47.6 213.2 47.6 213.2 47.38"></polygon><path class="cls-1" d="M223.55,44.95c0,1.41-1.13,2.71-3.5,2.71-1.19,0-2.43-.34-3.22-.9l.79-1.53c.62,.51,1.53,.79,2.43,.79,.96,0,1.58-.4,1.58-1.07,0-.62-.45-1.02-1.58-1.02h-.9v-1.3l1.75-1.98h-3.67v-1.58h5.94v1.3l-1.92,2.2c1.53,.17,2.32,1.13,2.32,2.37Z"></path><path class="cls-1" d="M231.07,44.89c0,1.75-1.41,2.83-3.22,2.83-2.32,0-3.79-1.47-3.79-4.18,0-2.94,1.75-4.58,4.35-4.58,.9,0,1.75,.23,2.37,.57l-.73,1.47c-.45-.34-1.02-.45-1.58-.45-1.41,0-2.32,.85-2.37,2.49,.51-.51,1.19-.73,2.09-.73,1.58-.06,2.88,.96,2.88,2.6Zm-1.92,.06c0-.79-.57-1.3-1.47-1.3-.85,0-1.47,.51-1.47,1.3,0,.73,.57,1.24,1.47,1.24,.9,.06,1.47-.45,1.47-1.24Z"></path><path class="cls-1" d="M231.57,43.31c0-2.83,1.53-4.41,3.62-4.41s3.62,1.58,3.62,4.41-1.53,4.41-3.62,4.41-3.62-1.64-3.62-4.41Zm5.31,0c0-1.92-.68-2.71-1.64-2.71s-1.64,.79-1.64,2.71,.68,2.71,1.64,2.71,1.64-.79,1.64-2.71Z"></path><text class="cls-2" transform="translate(240.85 5.62)"><tspan x="0" y="0">®</tspan></text></svg>