<?xml version="1.0" encoding="utf-8"?>
<!-- Generator: Adobe Illustrator 25.2.1, SVG Export Plug-In . SVG Version: 6.00 Build 0)  -->
<svg version="1.1" id="Layer_1" xmlns="http://www.w3.org/2000/svg" xmlns:xlink="http://www.w3.org/1999/xlink" x="0px" y="0px"
	 viewBox="0 0 1108 233" style="enable-background:new 0 0 1108 233;" xml:space="preserve">
<style type="text/css">
	.st0{fill:#000022;}
</style>
<g>
	<g>
		<path class="st0" d="M393.21,184.41v32.29h-4.63v-32.29H393.21z"/>
		<path class="st0" d="M428.08,184.41l10.29,17.72c0.62,1.1,1.25,2.22,1.87,3.36c0.62,1.14,1.23,2.34,1.83,3.58
			c-0.06-0.95-0.1-1.96-0.13-3.03c-0.03-1.07-0.04-2.21-0.04-3.43v-18.21h4.36v32.29h-4.05l-11.62-19.33
			c-0.59-0.95-1.22-2.04-1.87-3.28c-0.65-1.23-1.37-2.6-2.14-4.12c0.06,1.04,0.1,2.13,0.13,3.27c0.03,1.14,0.04,2.34,0.04,3.59
			v19.86h-4.36v-32.29H428.08z"/>
		<path class="st0" d="M494.62,184.41v4.1h-9v28.19h-4.76v-28.19h-9v-4.1H494.62z"/>
		<path class="st0" d="M540.27,184.41v4.1h-15.23v9.31h10.91v3.96h-10.91v10.82h15.94v4.1H520.4v-32.29H540.27z"/>
		<path class="st0" d="M576.92,184.41c4.24,0,7.4,0.71,9.46,2.14c2.06,1.43,3.09,3.73,3.09,6.9c0,4.28-2.12,7.02-6.35,8.24
			l7.39,15.01h-5.08l-6.73-13.94h-7.05v13.94h-4.63v-32.29H576.92z M571.66,198.8h5.36c2.65,0,4.62-0.41,5.9-1.22
			c1.28-0.82,1.92-2.15,1.92-3.99c0-1.96-0.62-3.32-1.85-4.1c-1.24-0.77-3.2-1.16-5.88-1.16h-5.45V198.8z"/>
		<path class="st0" d="M622.75,184.41l10.29,17.72c0.62,1.1,1.25,2.22,1.87,3.36c0.62,1.14,1.23,2.34,1.83,3.58
			c-0.06-0.95-0.1-1.96-0.13-3.03c-0.03-1.07-0.04-2.21-0.04-3.43v-18.21h4.36v32.29h-4.05l-11.62-19.33
			c-0.59-0.95-1.22-2.04-1.87-3.28c-0.65-1.23-1.37-2.6-2.14-4.12c0.06,1.04,0.1,2.13,0.13,3.27c0.03,1.14,0.04,2.34,0.04,3.59
			v19.86h-4.36v-32.29H622.75z"/>
		<path class="st0" d="M682.33,184.41l9.84,32.29h-4.76l-2.54-8.73h-11.66l-2.51,8.73h-4.63l9.89-32.29H682.33z M674.33,204.05h9.33
			l-4.41-15.76h-0.36L674.33,204.05z"/>
		<path class="st0" d="M733.99,184.41v4.1h-9v28.19h-4.76v-28.19h-9v-4.1H733.99z"/>
		<path class="st0" d="M764.72,184.41v32.29h-4.63v-32.29H764.72z"/>
		<path class="st0" d="M804.85,183.97c1.99,0,3.79,0.38,5.39,1.14c1.6,0.76,2.97,1.85,4.1,3.27c1.13,1.43,2.01,3.16,2.63,5.21
			c0.62,2.05,0.94,4.38,0.94,6.99c0,2.58-0.31,4.91-0.94,6.97c-0.62,2.06-1.5,3.82-2.63,5.25c-1.13,1.44-2.5,2.54-4.12,3.3
			c-1.62,0.76-3.41,1.14-5.37,1.14c-1.99,0-3.78-0.38-5.39-1.14c-1.6-0.76-2.98-1.86-4.12-3.3c-1.14-1.44-2.02-3.19-2.63-5.25
			c-0.61-2.06-0.91-4.39-0.91-6.97c0-2.61,0.3-4.94,0.91-6.99c0.61-2.05,1.49-3.78,2.63-5.21c1.14-1.43,2.52-2.52,4.12-3.27
			C801.06,184.34,802.86,183.97,804.85,183.97z M804.85,188.06c-2.61,0-4.65,1.06-6.1,3.19c-1.46,2.13-2.18,5.24-2.18,9.35
			c0,4.07,0.73,7.18,2.18,9.32c1.46,2.14,3.49,3.21,6.1,3.21s4.65-1.07,6.1-3.21c1.45-2.14,2.18-5.25,2.18-9.32
			c0-4.08-0.73-7.18-2.18-9.32C809.49,189.13,807.46,188.06,804.85,188.06z"/>
		<path class="st0" d="M850.14,184.41l10.29,17.72c0.62,1.1,1.25,2.22,1.87,3.36c0.62,1.14,1.23,2.34,1.83,3.58
			c-0.06-0.95-0.1-1.96-0.13-3.03c-0.03-1.07-0.04-2.21-0.04-3.43v-18.21h4.36v32.29h-4.05l-11.62-19.33
			c-0.59-0.95-1.22-2.04-1.87-3.28c-0.65-1.23-1.37-2.6-2.14-4.12c0.06,1.04,0.1,2.13,0.13,3.27c0.03,1.14,0.04,2.34,0.04,3.59
			v19.86h-4.36v-32.29H850.14z"/>
		<path class="st0" d="M909.73,184.41l9.84,32.29h-4.76l-2.54-8.73h-11.66l-2.51,8.73h-4.63l9.89-32.29H909.73z M901.73,204.05h9.33
			l-4.41-15.76h-0.36L901.73,204.05z"/>
		<path class="st0" d="M949.54,184.41v28.19h14.21v4.1h-18.84v-32.29H949.54z"/>
	</g>
	<path class="st0" d="M0.57,143.86l18-124.42c0.21-1.91,1.52-3.13,3.6-3.13h94.03c2.43,0,3.59,1.56,3.22,3.82l-1.24,9.56
		c-0.2,2.09-1.52,3.13-3.61,3.13H33.75l-5.86,40.51h54.23c2.43,0,3.59,1.57,3.22,3.82l-1.28,9.04c-0.21,1.91-1.52,3.13-3.6,3.13
		H25.53l-8.06,55.23c-0.21,1.91-1.52,3.13-3.61,3.13H3.79C1.36,147.69,0.2,146.12,0.57,143.86z"/>
	<path class="st0" d="M116.53,143.86l17.75-124.43c0.22-1.91,1.52-3.13,3.61-3.13h9.39c2.43,0,3.58,1.56,3.22,3.82l-17.75,124.43
		c-0.21,1.91-1.52,3.13-3.6,3.13h-9.39C117.32,147.69,116.16,146.12,116.53,143.86z"/>
	<path class="st0" d="M150.76,143.86l12.95-90.73c0.21-1.91,1.52-3.13,3.61-3.13h9.39c2.43,0,3.59,1.56,3.22,3.82l-12.95,90.73
		c-0.21,1.91-1.52,3.13-3.6,3.13h-9.39C151.55,147.69,150.4,146.12,150.76,143.86z M166.32,35.75l2.24-16.32
		c0.2-2.09,1.52-3.13,3.61-3.13h9.39c2.43,0,3.58,1.56,3.22,3.82l-2.24,16.32c-0.2,2.09-1.52,3.13-3.6,3.13h-9.39
		C167.11,39.58,165.96,38.01,166.32,35.75z"/>
	<path class="st0" d="M192.09,178.1l1.14-8.52c0.2-2.09,1.52-3.13,3.6-3.13h47.1c16.16,0,21.13-6.08,23.51-21.73l1.93-10.91
		c-4.92,9.21-13.86,13.8-30.2,13.8h-18.6c-28.85,0-36.52-12.69-32.76-38.59l3.19-20.96c3.63-25.2,10.2-38.06,39.05-38.06h23.29
		c16.51,0,23.26,4.52,25.45,13.56l1.53-10.43c0.21-1.91,1.52-3.13,3.61-3.13h9.39c2.43,0,3.59,1.56,3.22,3.82l-12.69,89.51
		c-3.55,23.81-11.9,38.58-40.75,38.58h-47.8C192.88,181.93,191.73,180.36,192.09,178.1z M249.05,132.15
		c13.56,0,20.3-2.96,22.81-21.73l3.7-23.57c2.55-18.25-3.23-21.38-16.79-21.38h-28.16c-16.16,0-20.59,3.82-23.01,21.38l-3.7,23.57
		c-2.57,17.9,0.82,21.73,16.99,21.73H249.05z"/>
	<path class="st0" d="M406.9,88.59l-8.07,56.14c-0.21,1.91-1.52,3.13-3.61,3.13h-9.38c-2.43,0-3.59-1.56-3.22-3.82l8.19-56.84
		c2.4-17.9-0.82-21.73-16.99-21.73h-24.68c-12.86,0-20.34,2.43-22.65,19.12l-8.49,59.96c-0.21,1.91-1.52,3.13-3.6,3.13h-9.39
		c-2.43,0-3.59-1.57-3.22-3.82l17.83-124.48c0.21-1.91,1.52-3.13,3.6-3.13h9.39c2.43,0,3.59,1.56,3.22,3.82l-6.02,42.44
		c4.98-8.34,13.55-12.51,29.19-12.51h14.95C402.99,50.01,410.48,62.7,406.9,88.59z"/>
	<path class="st0" d="M428.61,110.84l6.54-45.71h-10.43c-2.43,0-3.59-1.56-3.22-3.82l1.17-8.17c0.21-1.91,1.52-3.13,3.61-3.13
		c14.76-0.17,15.5,0.92,20.38-30.35c0.36-2.26,1.51-3.3,3.59-3.3h4.52c2.43,0,3.59,1.56,3.22,3.82l-4.25,29.83h39.63
		c2.43,0,3.59,1.56,3.22,3.82L495.42,62c-0.21,1.91-1.52,3.13-3.61,3.13h-40.32l-6.79,47.1c-2.21,15.64,1.94,20.34,19.5,20.34h17.38
		c2.43,0,3.59,1.57,3.22,3.82l-1.17,8.17c-0.21,1.91-1.52,3.13-3.6,3.13h-15.64C432.93,147.69,425.28,135.17,428.61,110.84z"/>
	<path class="st0" d="M925.09,110.84l6.54-45.71H921.2c-2.43,0-3.59-1.56-3.22-3.82l1.17-8.17c0.21-1.91,1.52-3.13,3.61-3.13
		c14.76-0.17,15.5,0.92,20.38-30.35c0.36-2.26,1.51-3.3,3.59-3.3h4.52c2.43,0,3.59,1.56,3.22,3.82l-4.25,29.83h39.63
		c2.43,0,3.59,1.56,3.22,3.82L991.9,62c-0.21,1.91-1.52,3.13-3.61,3.13h-40.32l-6.79,47.1c-2.21,15.64,1.94,20.34,19.5,20.34h17.38
		c2.43,0,3.59,1.57,3.22,3.82l-1.17,8.17c-0.21,1.91-1.52,3.13-3.6,3.13h-15.64C929.41,147.69,921.76,135.17,925.09,110.84z"/>
	<path class="st0" d="M502.27,105.61c0.38-2.09,1.52-3.13,3.61-3.13h10.08c2.26,0,3.57,1.39,3.4,3.82
		c-1.49,15.99,3.84,24.87,20.7,24.87h33.2c19.12,0,26.18-8.19,28.32-22.27c1.85-13.38-3.74-16.16-19.64-17.38l-36.18-2.96
		c-26.58-2.26-38.56-14.93-35.46-37.7c3.41-23.29,13.61-34.07,45.07-34.07h30.59c29.03,0,40.63,11.82,37.96,38.24
		c-0.2,2.09-1.34,3.13-3.43,3.13h-10.08c-2.26,0-3.57-1.39-3.4-3.82c1.49-15.99-4.08-21.03-21.11-21.03h-30.41
		c-19.29,0-25.95,4.17-28.08,18.42c-1.86,13.21,3.11,19.97,20.08,21.53l36.17,2.78c26.22,2.09,38.11,10.6,34.84,33.37
		c-3.42,23.12-13.65,38.26-45.11,38.26h-33.19C511.14,147.69,499.59,131.85,502.27,105.61z"/>
	<path class="st0" d="M628.42,120.75c2.67-18.94,9.42-26.77,33.4-29.37l45.54-4.87c4.31-0.52,5.97-1.56,6.46-4.52
		c1.77-11.99-1.15-16.51-15.58-16.51h-50.23c-2.43,0-3.58-1.56-3.22-3.82l1.14-8.52c0.2-2.09,1.52-3.13,3.61-3.13h48.66
		c25.03,0,35.21,8.86,32.42,28.68l-9.47,65.87c-0.21,1.91-1.52,3.13-3.61,3.13h-9.21c-2.43,0-3.76-1.57-3.39-3.82l1.66-11.12
		c-5.4,9.73-12.17,14.95-30.06,14.95H663.5C640.21,147.69,625.9,139.34,628.42,120.75z M684.34,132.57
		c16.51,0,22.88-5.91,25.36-22.59l1.4-9.73l-46.76,4.87c-14.16,1.39-17.91,4.87-19.17,14.25c-1.32,8.52,4.23,13.21,17.96,13.21
		H684.34z"/>
	<path class="st0" d="M809.05,109.1l3.05-21.03c3.63-25.2,9.5-38.06,38.53-38.06h24.51c29.03,0,37.05,12.86,33.43,38.06l-2.19,15.99
		c-0.2,2.09-1.52,3.13-3.6,3.13h-77l-0.46,3.3c-2.57,17.9,0.65,21.73,16.81,21.73h48.49c2.43,0,3.59,1.57,3.22,3.82l-1.14,8.52
		c-0.2,2.09-1.52,3.13-3.61,3.13h-45.88C814.18,147.69,805.47,135,809.05,109.1z M891.66,92.42l0.83-5.56
		c2.42-17.56-0.8-21.38-16.96-21.38h-23.81c-16.16,0-20.59,3.82-23.01,21.38l-0.83,5.56H891.66z"/>
	<path class="st0" d="M1003.14,178.1l1.32-8.52c0.39-1.91,1.52-3.13,3.6-3.13h46.75c16.17,0,21.13-6.08,23.51-21.73l1.17-10.78
		c-4.92,9.21-13.13,13.56-29.47,13.56h-16.51c-29.03,0-36.53-12.86-32.94-38.59l8.43-55.79c0.21-1.91,1.52-3.13,3.61-3.13h9.38
		c2.43,0,3.59,1.56,3.22,3.82l-8.38,56.49c-2.57,17.9,0.82,21.73,16.81,21.73h26.24c13.56,0,20.29-3.13,22.81-21.73l8.52-57.01
		c0.21-1.91,1.52-3.13,3.61-3.13h9.38c2.43,0,3.59,1.57,3.22,3.82l-12.7,89.34c-3.55,23.81-10.86,38.58-39.88,38.58h-48.32
		C1004.1,181.93,1002.78,180.36,1003.14,178.1z"/>
	<path class="st0" d="M746.23,143.85l11.08-78.72h-10.43c-2.43,0-3.59-1.56-3.22-3.82l1.17-8.17c0.21-1.91,1.52-3.13,3.61-3.13
		h11.12c3.48-24.85,9.42-34.24,38.28-34.24h13.56c2.43,0,3.58,1.56,3.22,3.82l-1.02,7.82c-0.2,2.09-1.52,3.13-3.6,3.13h-12.34
		c-16.34,0-19.43,2.95-21.76,19.47h30.59c2.43,0,3.59,1.56,3.22,3.82L808.54,62c-0.21,1.91-1.52,3.13-3.6,3.13h-31.29l-11.21,79.42
		c-0.21,1.91-1.52,3.13-3.61,3.13h-9.38C747.02,147.68,745.87,146.11,746.23,143.85z"/>
</g>
</svg>
