<?xml version="1.0" encoding="utf-8"?>
<!-- Generator: Adobe Illustrator 21.1.0, SVG Export Plug-In . SVG Version: 6.00 Build 0)  -->
<svg version="1.1" id="Layer_1" xmlns="http://www.w3.org/2000/svg" xmlns:xlink="http://www.w3.org/1999/xlink" x="0px" y="0px"
	 viewBox="0 0 286.463 205.786" style="enable-background:new 0 0 286.463 205.786;" xml:space="preserve">
<style type="text/css">
	.st0{fill:#FFFFFF;}
	.st1{clip-path:url(#SVGID_2_);}
	.st2{fill:#FFFFFF;stroke:#494936;stroke-width:0.5;stroke-miterlimit:10;}
	.st3{fill:#FFFFFF;stroke:#7D7C6E;stroke-width:0.5;stroke-miterlimit:10;}
	.st4{fill:#DDDCD8;}
	.st5{fill:#FFFFFF;stroke:#DDDCD8;stroke-width:0.25;stroke-miterlimit:10;}
	.st6{clip-path:url(#SVGID_4_);}
	.st7{fill:#FFFFFF;stroke:#DDDCD8;stroke-width:0.5;stroke-miterlimit:10;}
	.st8{clip-path:url(#SVGID_6_);}
	.st9{opacity:0.1;fill:#514A37;}
	.st10{opacity:0.3;fill:none;stroke:#514A37;stroke-width:0.2422;stroke-miterlimit:10;}
	.st11{fill:#514A37;}
	.st12{fill:url(#SVGID_7_);}
	.st13{opacity:0.3;}
	.st14{opacity:0.3;fill:#514A37;}
	.st15{opacity:0.7;}
	.st16{opacity:0.5;fill:none;stroke:#FFFFFF;stroke-miterlimit:10;}
	.st17{fill:#C09D2E;}
	.st18{fill:#524A37;}
</style>
<g>
	<path class="st0" d="M113.432,30.635c0.259-0.149,1.623-0.908,3.972-1.811l-3.624-11.53c0,0-0.037-0.829,10.271-0.939
		c1.516-0.016,6.293,0.309,7.047,0.719c0,0,0-2.131,0-3.799c0-6.132,7.883-11.574,11.695-13.148c0.23-0.095,0.764-0.094,0.994,0
		c3.686,1.494,11.415,7.164,11.415,13.148c0,3.344,0,3.792,0,3.792c1.507-0.407,5.663-0.729,7.173-0.713
		c10.332,0.106,10.384,0.939,10.384,0.939l-3.608,11.529c2.349,0.902,3.716,1.662,3.975,1.811l-4.587,11.017
		c-0.276-0.08-0.559-0.154-0.84-0.229c-7.543-2.925-15.696-4.539-24.172-4.539c-8.194,0-16.09,1.506-23.421,4.249
		c-0.676,0.159-1.346,0.33-1.996,0.519L113.432,30.635z"/>
	<g>
		<defs>
			<path id="SVGID_1_" d="M279.93,110.067l-12.19-0.131c-5.382,0.008-10.765-0.353-16.139-1.077
				c-9.755-39.102-54.539-68.653-108.323-68.653c-53.783,0-98.567,29.551-108.322,68.653c-5.375,0.724-10.757,1.084-16.14,1.077
				l-12.19,0.131l3.88,36.394l-3.88,37.155c0,0,0,0.994,12.127,0.994c12.671,0.023,28.629-8.166,40.782-11.602
				c19.528,18.982,48.618,32.534,83.742,32.534s64.192-13.552,83.722-32.534c12.152,3.436,28.133,11.625,40.803,11.602
				c12.127,0,12.127-0.994,12.127-0.994l-3.88-37.155L279.93,110.067z"/>
		</defs>
		<clipPath id="SVGID_2_">
			<use xlink:href="#SVGID_1_"  style="overflow:visible;"/>
		</clipPath>
		<g class="st1">
			<line class="st2" x1="-356.488" y1="192.93" x2="322.334" y2="-366.061"/>
			<line class="st2" x1="-354.527" y1="195.309" x2="324.293" y2="-363.682"/>
			<line class="st2" x1="-352.568" y1="197.684" x2="326.254" y2="-361.306"/>
			<line class="st2" x1="-350.609" y1="200.063" x2="328.213" y2="-358.927"/>
			<line class="st2" x1="-348.654" y1="202.446" x2="330.168" y2="-356.548"/>
			<line class="st2" x1="-346.695" y1="204.825" x2="332.127" y2="-354.169"/>
			<line class="st2" x1="-344.734" y1="207.2" x2="334.088" y2="-351.792"/>
			<line class="st2" x1="-342.781" y1="209.583" x2="336.041" y2="-349.41"/>
			<line class="st2" x1="-340.814" y1="211.954" x2="338.008" y2="-347.036"/>
			<line class="st2" x1="-338.861" y1="214.337" x2="339.961" y2="-344.654"/>
			<line class="st2" x1="-336.9" y1="216.715" x2="341.922" y2="-342.278"/>
			<line class="st2" x1="-334.941" y1="219.094" x2="343.881" y2="-339.899"/>
			<line class="st2" x1="-332.986" y1="221.473" x2="345.836" y2="-337.519"/>
			<line class="st2" x1="-331.023" y1="223.848" x2="347.799" y2="-335.143"/>
			<line class="st2" x1="-329.066" y1="226.227" x2="349.754" y2="-332.764"/>
			<line class="st2" x1="-327.107" y1="228.606" x2="351.713" y2="-330.385"/>
			<line class="st2" x1="-325.148" y1="230.985" x2="353.674" y2="-328.009"/>
			<line class="st2" x1="-323.193" y1="233.364" x2="355.627" y2="-325.627"/>
			<line class="st2" x1="-321.23" y1="235.743" x2="357.594" y2="-323.253"/>
			<line class="st2" x1="-319.275" y1="238.122" x2="359.547" y2="-320.871"/>
			<line class="st2" x1="-317.314" y1="240.497" x2="361.508" y2="-318.494"/>
			<line class="st2" x1="-315.355" y1="242.876" x2="363.467" y2="-316.115"/>
			<line class="st2" x1="-313.398" y1="245.255" x2="365.422" y2="-313.736"/>
			<line class="st2" x1="-311.434" y1="247.63" x2="367.387" y2="-311.359"/>
			<line class="st2" x1="-309.48" y1="250.012" x2="369.34" y2="-308.98"/>
			<line class="st2" x1="-307.521" y1="252.391" x2="371.301" y2="-306.601"/>
			<line class="st2" x1="-305.562" y1="254.77" x2="373.26" y2="-304.224"/>
			<line class="st2" x1="-303.609" y1="257.149" x2="375.215" y2="-301.843"/>
			<line class="st2" x1="-301.646" y1="259.524" x2="377.176" y2="-299.466"/>
			<line class="st2" x1="-299.687" y1="261.903" x2="379.133" y2="-297.087"/>
			<line class="st2" x1="-297.727" y1="264.278" x2="381.094" y2="-294.71"/>
			<line class="st2" x1="-295.768" y1="266.657" x2="383.053" y2="-292.332"/>
			<line class="st2" x1="-293.814" y1="269.04" x2="385.008" y2="-289.952"/>
			<line class="st2" x1="-291.855" y1="271.419" x2="386.967" y2="-287.573"/>
			<line class="st2" x1="-289.895" y1="273.798" x2="388.928" y2="-285.196"/>
			<line class="st2" x1="-287.941" y1="276.18" x2="390.881" y2="-282.815"/>
			<line class="st2" x1="-285.977" y1="278.555" x2="392.846" y2="-280.438"/>
			<line class="st2" x1="-284.021" y1="280.934" x2="394.801" y2="-278.059"/>
			<line class="st2" x1="-282.062" y1="283.313" x2="396.76" y2="-275.681"/>
			<line class="st2" x1="-280.1" y1="285.684" x2="398.721" y2="-273.304"/>
			<line class="st2" x1="-278.146" y1="288.067" x2="400.674" y2="-270.922"/>
			<line class="st2" x1="-276.187" y1="290.446" x2="402.635" y2="-268.548"/>
			<line class="st2" x1="-274.228" y1="292.825" x2="404.594" y2="-266.167"/>
			<line class="st2" x1="-272.264" y1="295.2" x2="406.559" y2="-263.79"/>
			<line class="st2" x1="-270.311" y1="297.583" x2="408.512" y2="-261.411"/>
			<line class="st2" x1="-268.352" y1="299.958" x2="410.469" y2="-259.033"/>
			<line class="st2" x1="-266.389" y1="302.337" x2="412.432" y2="-256.655"/>
			<line class="st2" x1="-264.436" y1="304.719" x2="414.387" y2="-254.273"/>
			<line class="st2" x1="-262.475" y1="307.094" x2="416.348" y2="-251.896"/>
			<line class="st2" x1="-260.516" y1="309.473" x2="418.309" y2="-249.522"/>
			<line class="st2" x1="-258.561" y1="311.852" x2="420.26" y2="-247.139"/>
			<line class="st2" x1="-256.598" y1="314.231" x2="422.225" y2="-244.763"/>
			<line class="st2" x1="-254.643" y1="316.61" x2="424.18" y2="-242.383"/>
			<line class="st2" x1="-252.684" y1="318.985" x2="426.137" y2="-240.006"/>
			<line class="st2" x1="-250.723" y1="321.364" x2="428.1" y2="-237.627"/>
			<line class="st2" x1="-248.77" y1="323.747" x2="430.053" y2="-235.245"/>
			<line class="st2" x1="-246.807" y1="326.122" x2="432.014" y2="-232.868"/>
			<line class="st2" x1="-244.848" y1="328.501" x2="433.977" y2="-230.494"/>
			<line class="st2" x1="-242.889" y1="330.88" x2="435.934" y2="-228.113"/>
			<line class="st2" x1="-240.93" y1="333.258" x2="437.893" y2="-225.734"/>
			<line class="st2" x1="-238.971" y1="335.637" x2="439.852" y2="-223.355"/>
			<line class="st2" x1="-237.012" y1="338.016" x2="441.809" y2="-220.974"/>
			<line class="st2" x1="-235.053" y1="340.395" x2="443.768" y2="-218.596"/>
			<line class="st2" x1="-231.133" y1="345.153" x2="447.689" y2="-213.839"/>
			<line class="st2" x1="-229.172" y1="347.532" x2="449.648" y2="-211.46"/>
			<line class="st2" x1="-227.213" y1="349.907" x2="451.609" y2="-209.083"/>
			<line class="st2" x1="-225.254" y1="352.286" x2="453.568" y2="-206.704"/>
			<line class="st2" x1="-223.299" y1="354.669" x2="455.523" y2="-204.325"/>
			<line class="st2" x1="-221.34" y1="357.048" x2="457.482" y2="-201.946"/>
			<line class="st2" x1="-219.379" y1="359.423" x2="459.443" y2="-199.569"/>
			<line class="st2" x1="-217.426" y1="361.805" x2="461.397" y2="-197.187"/>
			<line class="st2" x1="-215.459" y1="364.176" x2="463.363" y2="-194.813"/>
			<line class="st2" x1="-213.506" y1="366.559" x2="465.316" y2="-192.431"/>
			<line class="st2" x1="-211.545" y1="368.938" x2="467.277" y2="-190.056"/>
			<line class="st2" x1="-209.586" y1="371.317" x2="469.236" y2="-187.677"/>
			<line class="st2" x1="-207.631" y1="373.696" x2="471.191" y2="-185.297"/>
			<line class="st2" x1="-205.668" y1="376.071" x2="473.154" y2="-182.921"/>
			<line class="st2" x1="-203.711" y1="378.45" x2="475.109" y2="-180.541"/>
			<line class="st2" x1="-201.752" y1="380.829" x2="477.068" y2="-178.162"/>
			<line class="st2" x1="-199.793" y1="383.208" x2="479.029" y2="-175.786"/>
			<line class="st2" x1="-197.838" y1="385.587" x2="480.982" y2="-173.404"/>
			<line class="st2" x1="-195.875" y1="387.965" x2="482.949" y2="-171.03"/>
			<line class="st2" x1="-193.92" y1="390.344" x2="484.902" y2="-168.648"/>
			<line class="st2" x1="-191.959" y1="392.719" x2="486.863" y2="-166.271"/>
			<line class="st2" x1="-190" y1="395.098" x2="488.822" y2="-163.892"/>
			<line class="st2" x1="-188.043" y1="397.477" x2="490.777" y2="-161.514"/>
			<line class="st2" x1="-186.078" y1="399.852" x2="492.742" y2="-159.137"/>
			<line class="st2" x1="-184.125" y1="402.235" x2="494.695" y2="-156.758"/>
			<line class="st2" x1="-182.166" y1="404.614" x2="496.656" y2="-154.379"/>
			<line class="st2" x1="-180.207" y1="406.993" x2="498.615" y2="-152.002"/>
			<line class="st2" x1="-178.254" y1="409.372" x2="500.57" y2="-149.62"/>
			<line class="st2" x1="-176.291" y1="411.747" x2="502.531" y2="-147.243"/>
			<line class="st2" x1="-174.332" y1="414.126" x2="504.488" y2="-144.864"/>
			<line class="st2" x1="-172.371" y1="416.501" x2="506.449" y2="-142.487"/>
			<line class="st2" x1="-170.412" y1="418.88" x2="508.408" y2="-140.109"/>
			<line class="st2" x1="-168.459" y1="421.262" x2="510.363" y2="-137.729"/>
			<line class="st2" x1="-166.5" y1="423.641" x2="512.322" y2="-135.35"/>
			<line class="st2" x1="-164.539" y1="426.02" x2="514.283" y2="-132.973"/>
			<line class="st2" x1="-162.586" y1="428.402" x2="516.236" y2="-130.593"/>
			<line class="st2" x1="-160.621" y1="430.777" x2="518.201" y2="-128.216"/>
			<line class="st2" x1="-158.666" y1="433.156" x2="520.156" y2="-125.837"/>
			<line class="st2" x1="-156.707" y1="435.535" x2="522.115" y2="-123.458"/>
			<line class="st2" x1="-154.744" y1="437.906" x2="524.076" y2="-121.081"/>
			<line class="st2" x1="-152.791" y1="440.289" x2="526.029" y2="-118.699"/>
			<line class="st2" x1="-150.832" y1="442.668" x2="527.99" y2="-116.325"/>
			<line class="st2" x1="-148.873" y1="445.047" x2="529.949" y2="-113.944"/>
			<line class="st2" x1="-146.908" y1="447.422" x2="531.914" y2="-111.567"/>
			<line class="st2" x1="-144.955" y1="449.805" x2="533.867" y2="-109.188"/>
			<line class="st2" x1="-142.996" y1="452.18" x2="535.824" y2="-106.81"/>
			<line class="st2" x1="-141.033" y1="454.559" x2="537.787" y2="-104.432"/>
			<line class="st2" x1="-139.08" y1="456.942" x2="539.742" y2="-102.051"/>
			<line class="st2" x1="-137.119" y1="459.317" x2="541.703" y2="-99.674"/>
			<line class="st2" x1="-135.16" y1="461.695" x2="543.664" y2="-97.3"/>
			<line class="st2" x1="-133.205" y1="464.074" x2="545.615" y2="-94.916"/>
			<line class="st2" x1="-131.242" y1="466.453" x2="547.58" y2="-92.54"/>
			<line class="st2" x1="-129.287" y1="468.832" x2="549.535" y2="-90.16"/>
			<line class="st2" x1="-127.328" y1="471.207" x2="551.492" y2="-87.783"/>
			<line class="st2" x1="-125.367" y1="473.586" x2="553.455" y2="-85.404"/>
			<line class="st2" x1="-123.414" y1="475.969" x2="555.408" y2="-83.022"/>
			<line class="st2" x1="-121.451" y1="478.344" x2="557.369" y2="-80.645"/>
			<line class="st2" x1="-119.492" y1="480.723" x2="559.332" y2="-78.271"/>
			<line class="st2" x1="-117.533" y1="483.102" x2="561.289" y2="-75.89"/>
			<line class="st2" x1="-115.574" y1="485.481" x2="563.248" y2="-73.512"/>
			<line class="st2" x1="-113.615" y1="487.86" x2="565.207" y2="-71.133"/>
			<line class="st2" x1="-111.656" y1="490.238" x2="567.164" y2="-68.752"/>
			<line class="st2" x1="-109.697" y1="492.617" x2="569.123" y2="-66.373"/>
			<line class="st2" x1="-107.736" y1="494.996" x2="571.086" y2="-63.995"/>
			<line class="st2" x1="-105.775" y1="497.375" x2="573.045" y2="-61.616"/>
			<line class="st2" x1="-103.816" y1="499.75" x2="575.006" y2="-59.239"/>
			<line class="st2" x1="-101.857" y1="502.129" x2="576.965" y2="-56.86"/>
			<line class="st2" x1="-99.902" y1="504.512" x2="578.92" y2="-54.481"/>
			<line class="st2" x1="-97.943" y1="506.891" x2="580.879" y2="-52.102"/>
			<line class="st2" x1="-95.982" y1="509.266" x2="582.84" y2="-49.725"/>
			<line class="st2" x1="-94.029" y1="511.649" x2="584.793" y2="-47.344"/>
			<line class="st2" x1="-92.062" y1="514.02" x2="586.76" y2="-44.97"/>
			<line class="st2" x1="-90.109" y1="516.402" x2="588.713" y2="-42.588"/>
			<line class="st2" x1="-88.148" y1="518.781" x2="590.674" y2="-40.212"/>
			<line class="st2" x1="-86.189" y1="521.16" x2="592.633" y2="-37.833"/>
			<line class="st2" x1="-84.234" y1="523.539" x2="594.588" y2="-35.453"/>
			<line class="st2" x1="-82.271" y1="525.914" x2="596.551" y2="-33.077"/>
			<line class="st2" x1="-80.314" y1="528.293" x2="598.506" y2="-30.697"/>
			<line class="st2" x1="-78.355" y1="530.672" x2="600.465" y2="-28.318"/>
			<line class="st2" x1="-76.396" y1="533.051" x2="602.426" y2="-25.942"/>
			<line class="st2" x1="-74.441" y1="535.43" x2="604.379" y2="-23.56"/>
			<line class="st2" x1="-72.478" y1="537.809" x2="606.346" y2="-21.186"/>
			<line class="st2" x1="-70.523" y1="540.188" x2="608.299" y2="-18.805"/>
			<line class="st2" x1="-68.562" y1="542.563" x2="610.26" y2="-16.428"/>
			<line class="st2" x1="-66.603" y1="544.942" x2="612.219" y2="-14.049"/>
			<line class="st2" x1="-64.646" y1="547.32" x2="614.174" y2="-11.67"/>
			<line class="st2" x1="-62.682" y1="549.695" x2="616.139" y2="-9.293"/>
			<line class="st2" x1="-60.728" y1="552.078" x2="618.092" y2="-6.914"/>
			<line class="st2" x1="-58.77" y1="554.457" x2="620.053" y2="-4.535"/>
			<line class="st2" x1="-56.811" y1="556.836" x2="622.012" y2="-2.158"/>
			<line class="st2" x1="-54.857" y1="559.215" x2="623.967" y2="0.224"/>
			<line class="st2" x1="-52.895" y1="561.59" x2="625.928" y2="2.601"/>
			<line class="st2" x1="-50.936" y1="563.969" x2="627.885" y2="4.98"/>
			<line class="st2" x1="-48.975" y1="566.344" x2="629.846" y2="7.357"/>
			<line class="st2" x1="-47.016" y1="568.723" x2="631.805" y2="9.735"/>
			<line class="st2" x1="-45.062" y1="571.106" x2="633.76" y2="12.114"/>
			<line class="st2" x1="-43.103" y1="573.485" x2="635.719" y2="14.493"/>
			<line class="st2" x1="-41.143" y1="575.863" x2="637.68" y2="16.87"/>
			<line class="st2" x1="-39.189" y1="578.246" x2="639.633" y2="19.251"/>
			<line class="st2" x1="-37.225" y1="580.621" x2="641.598" y2="21.628"/>
			<line class="st2" x1="-35.27" y1="583" x2="643.553" y2="24.007"/>
			<line class="st2" x1="-33.311" y1="585.379" x2="645.512" y2="26.386"/>
			<line class="st2" x1="-31.348" y1="587.75" x2="647.473" y2="28.763"/>
			<line class="st2" x1="-29.395" y1="590.133" x2="649.426" y2="31.145"/>
			<line class="st2" x1="-27.436" y1="592.512" x2="651.387" y2="33.519"/>
			<line class="st2" x1="-25.477" y1="594.891" x2="653.346" y2="35.9"/>
			<line class="st2" x1="-23.512" y1="597.266" x2="655.31" y2="38.277"/>
			<line class="st2" x1="-21.559" y1="599.649" x2="657.264" y2="40.655"/>
			<line class="st2" x1="-19.6" y1="602.024" x2="659.221" y2="43.033"/>
			<line class="st2" x1="-17.637" y1="604.402" x2="661.184" y2="45.411"/>
			<line class="st2" x1="-15.684" y1="606.785" x2="663.139" y2="47.793"/>
			<line class="st2" x1="-13.723" y1="609.16" x2="665.1" y2="50.17"/>
			<line class="st2" x1="-11.764" y1="611.539" x2="667.06" y2="52.544"/>
			<line class="st2" x1="-9.809" y1="613.918" x2="669.012" y2="54.928"/>
			<line class="st2" x1="-7.846" y1="616.297" x2="670.977" y2="57.304"/>
			<line class="st2" x1="-5.891" y1="618.676" x2="672.932" y2="59.684"/>
			<line class="st2" x1="-3.932" y1="621.051" x2="674.889" y2="62.061"/>
			<line class="st2" x1="-1.971" y1="623.43" x2="676.852" y2="64.44"/>
			<line class="st2" x1="-0.018" y1="625.813" x2="678.805" y2="66.821"/>
			<line class="st2" x1="1.945" y1="628.188" x2="680.766" y2="69.198"/>
			<line class="st2" x1="3.904" y1="630.567" x2="682.729" y2="71.572"/>
			<line class="st2" x1="5.863" y1="632.945" x2="684.685" y2="73.953"/>
			<line class="st2" x1="7.822" y1="635.324" x2="686.644" y2="76.332"/>
			<line class="st2" x1="9.781" y1="637.703" x2="688.604" y2="78.711"/>
			<line class="st2" x1="11.74" y1="640.082" x2="690.56" y2="81.092"/>
			<line class="st2" x1="13.699" y1="642.461" x2="692.519" y2="83.471"/>
			<line class="st2" x1="-233.094" y1="342.774" x2="445.727" y2="-216.217"/>
		</g>
		<g class="st1">
			<line class="st3" x1="-356.488" y1="192.93" x2="322.334" y2="-366.061"/>
			<line class="st3" x1="-354.527" y1="195.309" x2="324.293" y2="-363.682"/>
			<line class="st3" x1="-352.568" y1="197.684" x2="326.254" y2="-361.306"/>
			<line class="st3" x1="-350.609" y1="200.063" x2="328.213" y2="-358.927"/>
			<line class="st3" x1="-348.654" y1="202.446" x2="330.168" y2="-356.548"/>
			<line class="st3" x1="-346.695" y1="204.825" x2="332.127" y2="-354.169"/>
			<line class="st3" x1="-344.734" y1="207.2" x2="334.088" y2="-351.792"/>
			<line class="st3" x1="-342.781" y1="209.583" x2="336.041" y2="-349.41"/>
			<line class="st3" x1="-340.814" y1="211.954" x2="338.008" y2="-347.036"/>
			<line class="st3" x1="-338.861" y1="214.337" x2="339.961" y2="-344.654"/>
			<line class="st3" x1="-336.9" y1="216.715" x2="341.922" y2="-342.278"/>
			<line class="st3" x1="-334.941" y1="219.094" x2="343.881" y2="-339.899"/>
			<line class="st3" x1="-332.986" y1="221.473" x2="345.836" y2="-337.519"/>
			<line class="st3" x1="-331.023" y1="223.848" x2="347.799" y2="-335.143"/>
			<line class="st3" x1="-329.066" y1="226.227" x2="349.754" y2="-332.764"/>
			<line class="st3" x1="-327.107" y1="228.606" x2="351.713" y2="-330.385"/>
			<line class="st3" x1="-325.148" y1="230.985" x2="353.674" y2="-328.009"/>
			<line class="st3" x1="-323.193" y1="233.364" x2="355.627" y2="-325.627"/>
			<line class="st3" x1="-321.23" y1="235.743" x2="357.594" y2="-323.253"/>
			<line class="st3" x1="-319.275" y1="238.122" x2="359.547" y2="-320.871"/>
			<line class="st3" x1="-317.314" y1="240.497" x2="361.508" y2="-318.494"/>
			<line class="st3" x1="-315.355" y1="242.876" x2="363.467" y2="-316.115"/>
			<line class="st3" x1="-313.398" y1="245.255" x2="365.422" y2="-313.736"/>
			<line class="st3" x1="-311.434" y1="247.63" x2="367.387" y2="-311.359"/>
			<line class="st3" x1="-309.48" y1="250.012" x2="369.34" y2="-308.98"/>
			<line class="st3" x1="-307.521" y1="252.391" x2="371.301" y2="-306.601"/>
			<line class="st3" x1="-305.562" y1="254.77" x2="373.26" y2="-304.224"/>
			<line class="st3" x1="-303.609" y1="257.149" x2="375.215" y2="-301.843"/>
			<line class="st3" x1="-301.646" y1="259.524" x2="377.176" y2="-299.466"/>
			<line class="st3" x1="-299.687" y1="261.903" x2="379.133" y2="-297.087"/>
			<line class="st3" x1="-297.727" y1="264.278" x2="381.094" y2="-294.71"/>
			<line class="st3" x1="-295.768" y1="266.657" x2="383.053" y2="-292.332"/>
			<line class="st3" x1="-293.814" y1="269.04" x2="385.008" y2="-289.952"/>
			<line class="st3" x1="-291.855" y1="271.419" x2="386.967" y2="-287.573"/>
			<line class="st3" x1="-289.895" y1="273.798" x2="388.928" y2="-285.196"/>
			<line class="st3" x1="-287.941" y1="276.18" x2="390.881" y2="-282.815"/>
			<line class="st3" x1="-285.977" y1="278.555" x2="392.846" y2="-280.438"/>
			<line class="st3" x1="-284.021" y1="280.934" x2="394.801" y2="-278.059"/>
			<line class="st3" x1="-282.062" y1="283.313" x2="396.76" y2="-275.681"/>
			<line class="st3" x1="-280.1" y1="285.684" x2="398.721" y2="-273.304"/>
			<line class="st3" x1="-278.146" y1="288.067" x2="400.674" y2="-270.922"/>
			<line class="st3" x1="-276.187" y1="290.446" x2="402.635" y2="-268.548"/>
			<line class="st3" x1="-274.228" y1="292.825" x2="404.594" y2="-266.167"/>
			<line class="st3" x1="-272.264" y1="295.2" x2="406.559" y2="-263.79"/>
			<line class="st3" x1="-270.311" y1="297.583" x2="408.512" y2="-261.411"/>
			<line class="st3" x1="-268.352" y1="299.958" x2="410.469" y2="-259.033"/>
			<line class="st3" x1="-266.389" y1="302.337" x2="412.432" y2="-256.655"/>
			<line class="st3" x1="-264.436" y1="304.719" x2="414.387" y2="-254.273"/>
			<line class="st3" x1="-262.475" y1="307.094" x2="416.348" y2="-251.896"/>
			<line class="st3" x1="-260.516" y1="309.473" x2="418.309" y2="-249.522"/>
			<line class="st3" x1="-258.561" y1="311.852" x2="420.26" y2="-247.139"/>
			<line class="st3" x1="-256.598" y1="314.231" x2="422.225" y2="-244.763"/>
			<line class="st3" x1="-254.643" y1="316.61" x2="424.18" y2="-242.383"/>
			<line class="st3" x1="-252.684" y1="318.985" x2="426.137" y2="-240.006"/>
			<line class="st3" x1="-250.723" y1="321.364" x2="428.1" y2="-237.627"/>
			<line class="st3" x1="-248.77" y1="323.747" x2="430.053" y2="-235.245"/>
			<line class="st3" x1="-246.807" y1="326.122" x2="432.014" y2="-232.868"/>
			<line class="st3" x1="-244.848" y1="328.501" x2="433.977" y2="-230.494"/>
			<line class="st3" x1="-242.889" y1="330.88" x2="435.934" y2="-228.113"/>
			<line class="st3" x1="-240.93" y1="333.258" x2="437.893" y2="-225.734"/>
			<line class="st3" x1="-238.971" y1="335.637" x2="439.852" y2="-223.355"/>
			<line class="st3" x1="-237.012" y1="338.016" x2="441.809" y2="-220.974"/>
			<line class="st3" x1="-235.053" y1="340.395" x2="443.768" y2="-218.596"/>
			<line class="st3" x1="-231.133" y1="345.153" x2="447.689" y2="-213.839"/>
			<line class="st3" x1="-229.172" y1="347.532" x2="449.648" y2="-211.46"/>
			<line class="st3" x1="-227.213" y1="349.907" x2="451.609" y2="-209.083"/>
			<line class="st3" x1="-225.254" y1="352.286" x2="453.568" y2="-206.704"/>
			<line class="st3" x1="-223.299" y1="354.669" x2="455.523" y2="-204.325"/>
			<line class="st3" x1="-221.34" y1="357.048" x2="457.482" y2="-201.946"/>
			<line class="st3" x1="-219.379" y1="359.423" x2="459.443" y2="-199.569"/>
			<line class="st3" x1="-217.426" y1="361.805" x2="461.397" y2="-197.187"/>
			<line class="st3" x1="-215.459" y1="364.176" x2="463.363" y2="-194.813"/>
			<line class="st3" x1="-213.506" y1="366.559" x2="465.316" y2="-192.431"/>
			<line class="st3" x1="-211.545" y1="368.938" x2="467.277" y2="-190.056"/>
			<line class="st3" x1="-209.586" y1="371.317" x2="469.236" y2="-187.677"/>
			<line class="st3" x1="-207.631" y1="373.696" x2="471.191" y2="-185.297"/>
			<line class="st3" x1="-205.668" y1="376.071" x2="473.154" y2="-182.921"/>
			<line class="st3" x1="-203.711" y1="378.45" x2="475.109" y2="-180.541"/>
			<line class="st3" x1="-201.752" y1="380.829" x2="477.068" y2="-178.162"/>
			<line class="st3" x1="-199.793" y1="383.208" x2="479.029" y2="-175.786"/>
			<line class="st3" x1="-197.838" y1="385.587" x2="480.982" y2="-173.404"/>
			<line class="st3" x1="-195.875" y1="387.965" x2="482.949" y2="-171.03"/>
			<line class="st3" x1="-193.92" y1="390.344" x2="484.902" y2="-168.648"/>
			<line class="st3" x1="-191.959" y1="392.719" x2="486.863" y2="-166.271"/>
			<line class="st3" x1="-190" y1="395.098" x2="488.822" y2="-163.892"/>
			<line class="st3" x1="-188.043" y1="397.477" x2="490.777" y2="-161.514"/>
			<line class="st3" x1="-186.078" y1="399.852" x2="492.742" y2="-159.137"/>
			<line class="st3" x1="-184.125" y1="402.235" x2="494.695" y2="-156.758"/>
			<line class="st3" x1="-182.166" y1="404.614" x2="496.656" y2="-154.379"/>
			<line class="st3" x1="-180.207" y1="406.993" x2="498.615" y2="-152.002"/>
			<line class="st3" x1="-178.254" y1="409.372" x2="500.57" y2="-149.62"/>
			<line class="st3" x1="-176.291" y1="411.747" x2="502.531" y2="-147.243"/>
			<line class="st3" x1="-174.332" y1="414.126" x2="504.488" y2="-144.864"/>
			<line class="st3" x1="-172.371" y1="416.501" x2="506.449" y2="-142.487"/>
			<line class="st3" x1="-170.412" y1="418.88" x2="508.408" y2="-140.109"/>
			<line class="st3" x1="-168.459" y1="421.262" x2="510.363" y2="-137.729"/>
			<line class="st3" x1="-166.5" y1="423.641" x2="512.322" y2="-135.35"/>
			<line class="st3" x1="-164.539" y1="426.02" x2="514.283" y2="-132.973"/>
			<line class="st3" x1="-162.586" y1="428.402" x2="516.236" y2="-130.593"/>
			<line class="st3" x1="-160.621" y1="430.777" x2="518.201" y2="-128.216"/>
			<line class="st3" x1="-158.666" y1="433.156" x2="520.156" y2="-125.837"/>
			<line class="st3" x1="-156.707" y1="435.535" x2="522.115" y2="-123.458"/>
			<line class="st3" x1="-154.744" y1="437.906" x2="524.076" y2="-121.081"/>
			<line class="st3" x1="-152.791" y1="440.289" x2="526.029" y2="-118.699"/>
			<line class="st3" x1="-150.832" y1="442.668" x2="527.99" y2="-116.325"/>
			<line class="st3" x1="-148.873" y1="445.047" x2="529.949" y2="-113.944"/>
			<line class="st3" x1="-146.908" y1="447.422" x2="531.914" y2="-111.567"/>
			<line class="st3" x1="-144.955" y1="449.805" x2="533.867" y2="-109.188"/>
			<line class="st3" x1="-142.996" y1="452.18" x2="535.824" y2="-106.81"/>
			<line class="st3" x1="-141.033" y1="454.559" x2="537.787" y2="-104.432"/>
			<line class="st3" x1="-139.08" y1="456.942" x2="539.742" y2="-102.051"/>
			<line class="st3" x1="-137.119" y1="459.317" x2="541.703" y2="-99.674"/>
			<line class="st3" x1="-135.16" y1="461.695" x2="543.664" y2="-97.3"/>
			<line class="st3" x1="-133.205" y1="464.074" x2="545.615" y2="-94.916"/>
			<line class="st3" x1="-131.242" y1="466.453" x2="547.58" y2="-92.54"/>
			<line class="st3" x1="-129.287" y1="468.832" x2="549.535" y2="-90.16"/>
			<line class="st3" x1="-127.328" y1="471.207" x2="551.492" y2="-87.783"/>
			<line class="st3" x1="-125.367" y1="473.586" x2="553.455" y2="-85.404"/>
			<line class="st3" x1="-123.414" y1="475.969" x2="555.408" y2="-83.022"/>
			<line class="st3" x1="-121.451" y1="478.344" x2="557.369" y2="-80.645"/>
			<line class="st3" x1="-119.492" y1="480.723" x2="559.332" y2="-78.271"/>
			<line class="st3" x1="-117.533" y1="483.102" x2="561.289" y2="-75.89"/>
			<line class="st3" x1="-115.574" y1="485.481" x2="563.248" y2="-73.512"/>
			<line class="st3" x1="-113.615" y1="487.86" x2="565.207" y2="-71.133"/>
			<line class="st3" x1="-111.656" y1="490.238" x2="567.164" y2="-68.752"/>
			<line class="st3" x1="-109.697" y1="492.617" x2="569.123" y2="-66.373"/>
			<line class="st3" x1="-107.736" y1="494.996" x2="571.086" y2="-63.995"/>
			<line class="st3" x1="-105.775" y1="497.375" x2="573.045" y2="-61.616"/>
			<line class="st3" x1="-103.816" y1="499.75" x2="575.006" y2="-59.239"/>
			<line class="st3" x1="-101.857" y1="502.129" x2="576.965" y2="-56.86"/>
			<line class="st3" x1="-99.902" y1="504.512" x2="578.92" y2="-54.481"/>
			<line class="st3" x1="-97.943" y1="506.891" x2="580.879" y2="-52.102"/>
			<line class="st3" x1="-95.982" y1="509.266" x2="582.84" y2="-49.725"/>
			<line class="st3" x1="-94.029" y1="511.649" x2="584.793" y2="-47.344"/>
			<line class="st3" x1="-92.062" y1="514.02" x2="586.76" y2="-44.97"/>
			<line class="st3" x1="-90.109" y1="516.402" x2="588.713" y2="-42.588"/>
			<line class="st3" x1="-88.148" y1="518.781" x2="590.674" y2="-40.212"/>
			<line class="st3" x1="-86.189" y1="521.16" x2="592.633" y2="-37.833"/>
			<line class="st3" x1="-84.234" y1="523.539" x2="594.588" y2="-35.453"/>
			<line class="st3" x1="-82.271" y1="525.914" x2="596.551" y2="-33.077"/>
			<line class="st3" x1="-80.314" y1="528.293" x2="598.506" y2="-30.697"/>
			<line class="st3" x1="-78.355" y1="530.672" x2="600.465" y2="-28.318"/>
			<line class="st3" x1="-76.396" y1="533.051" x2="602.426" y2="-25.942"/>
			<line class="st3" x1="-74.441" y1="535.43" x2="604.379" y2="-23.56"/>
			<line class="st3" x1="-72.478" y1="537.809" x2="606.346" y2="-21.186"/>
			<line class="st3" x1="-70.523" y1="540.188" x2="608.299" y2="-18.805"/>
			<line class="st3" x1="-68.562" y1="542.563" x2="610.26" y2="-16.428"/>
			<line class="st3" x1="-66.603" y1="544.942" x2="612.219" y2="-14.049"/>
			<line class="st3" x1="-64.646" y1="547.32" x2="614.174" y2="-11.67"/>
			<line class="st3" x1="-62.682" y1="549.695" x2="616.139" y2="-9.293"/>
			<line class="st3" x1="-60.728" y1="552.078" x2="618.092" y2="-6.914"/>
			<line class="st3" x1="-58.77" y1="554.457" x2="620.053" y2="-4.535"/>
			<line class="st3" x1="-56.811" y1="556.836" x2="622.012" y2="-2.158"/>
			<line class="st3" x1="-54.857" y1="559.215" x2="623.967" y2="0.224"/>
			<line class="st3" x1="-52.895" y1="561.59" x2="625.928" y2="2.601"/>
			<line class="st3" x1="-50.936" y1="563.969" x2="627.885" y2="4.98"/>
			<line class="st3" x1="-48.975" y1="566.344" x2="629.846" y2="7.357"/>
			<line class="st3" x1="-47.016" y1="568.723" x2="631.805" y2="9.735"/>
			<line class="st3" x1="-45.062" y1="571.106" x2="633.76" y2="12.114"/>
			<line class="st3" x1="-43.103" y1="573.485" x2="635.719" y2="14.493"/>
			<line class="st3" x1="-41.143" y1="575.863" x2="637.68" y2="16.87"/>
			<line class="st3" x1="-39.189" y1="578.246" x2="639.633" y2="19.251"/>
			<line class="st3" x1="-37.225" y1="580.621" x2="641.598" y2="21.628"/>
			<line class="st3" x1="-35.27" y1="583" x2="643.553" y2="24.007"/>
			<line class="st3" x1="-33.311" y1="585.379" x2="645.512" y2="26.386"/>
			<line class="st3" x1="-31.348" y1="587.75" x2="647.473" y2="28.763"/>
			<line class="st3" x1="-29.395" y1="590.133" x2="649.426" y2="31.145"/>
			<line class="st3" x1="-27.436" y1="592.512" x2="651.387" y2="33.519"/>
			<line class="st3" x1="-25.477" y1="594.891" x2="653.346" y2="35.9"/>
			<line class="st3" x1="-23.512" y1="597.266" x2="655.31" y2="38.277"/>
			<line class="st3" x1="-21.559" y1="599.649" x2="657.264" y2="40.655"/>
			<line class="st3" x1="-19.6" y1="602.024" x2="659.221" y2="43.033"/>
			<line class="st3" x1="-17.637" y1="604.402" x2="661.184" y2="45.411"/>
			<line class="st3" x1="-15.684" y1="606.785" x2="663.139" y2="47.793"/>
			<line class="st3" x1="-13.723" y1="609.16" x2="665.1" y2="50.17"/>
			<line class="st3" x1="-11.764" y1="611.539" x2="667.06" y2="52.544"/>
			<line class="st3" x1="-9.809" y1="613.918" x2="669.012" y2="54.928"/>
			<line class="st3" x1="-7.846" y1="616.297" x2="670.977" y2="57.304"/>
			<line class="st3" x1="-5.891" y1="618.676" x2="672.932" y2="59.684"/>
			<line class="st3" x1="-3.932" y1="621.051" x2="674.889" y2="62.061"/>
			<line class="st3" x1="-1.971" y1="623.43" x2="676.852" y2="64.44"/>
			<line class="st3" x1="-0.018" y1="625.813" x2="678.805" y2="66.821"/>
			<line class="st3" x1="1.945" y1="628.188" x2="680.766" y2="69.198"/>
			<line class="st3" x1="3.904" y1="630.567" x2="682.729" y2="71.572"/>
			<line class="st3" x1="5.863" y1="632.945" x2="684.685" y2="73.953"/>
			<line class="st3" x1="7.822" y1="635.324" x2="686.644" y2="76.332"/>
			<line class="st3" x1="9.781" y1="637.703" x2="688.604" y2="78.711"/>
			<line class="st3" x1="11.74" y1="640.082" x2="690.56" y2="81.092"/>
			<line class="st3" x1="13.699" y1="642.461" x2="692.519" y2="83.471"/>
			<line class="st3" x1="-233.094" y1="342.774" x2="445.727" y2="-216.217"/>
		</g>
	</g>
	<g>
		<path class="st4" d="M0.337,101.064l8.062,36.394l-8.062,35.153c0,0,0,0.994,12.685,0.994c17.892,0.031,35.784-3.197,53.421-9.682
			c0.702-0.262,1.252-1.064,1.252-2.872c0-0.314,0-71.626,0-71.626c-18.021,7.697-36.315,11.533-54.607,11.507L0.337,101.064z"/>
		<path class="st4" d="M286.22,101.064l-12.751-0.131c-18.293,0.026-36.587-3.81-54.607-11.507c0,0,0,71.311,0,71.626
			c0,1.808,0.55,2.61,1.252,2.872c17.637,6.484,35.529,9.713,53.421,9.682c12.685,0,12.685-0.994,12.685-0.994l-8.062-35.153
			L286.22,101.064z"/>
	</g>
	<g>
		<path class="st5" d="M0.337,100.063l8.062,36.394L0.337,171.61c0,0,0,0.994,12.685,0.994c17.892,0.031,35.784-3.197,53.421-9.682
			c0.702-0.262,1.252-1.064,1.252-2.872c0-0.314,0-71.625,0-71.625c-18.021,7.697-36.315,11.533-54.607,11.507L0.337,100.063z"/>
		<path class="st5" d="M286.22,100.063l-12.751-0.131c-18.293,0.026-36.587-3.81-54.607-11.507c0,0,0,71.311,0,71.625
			c0,1.808,0.55,2.61,1.252,2.872c17.637,6.484,35.529,9.713,53.421,9.682c12.685,0,12.685-0.994,12.685-0.994l-8.062-35.153
			L286.22,100.063z"/>
	</g>
	<g>
		<defs>
			<path id="SVGID_3_" d="M249.294,103.605l22.551,0.749l-9.415,30.811l7.74,32.375c-16.413-0.322-35.789-5.684-43.318-10.057
				c-7.529-4.373,4.607-49.636,4.607-49.636L249.294,103.605z"/>
		</defs>
		<clipPath id="SVGID_4_">
			<use xlink:href="#SVGID_3_"  style="overflow:visible;"/>
		</clipPath>
		<g class="st6">
			<line class="st7" x1="109.587" y1="134.186" x2="287.118" y2="-12.006"/>
			<line class="st7" x1="111.546" y1="136.565" x2="289.077" y2="-9.627"/>
			<line class="st7" x1="113.505" y1="138.943" x2="291.036" y2="-7.249"/>
			<line class="st7" x1="115.464" y1="141.321" x2="292.995" y2="-4.87"/>
			<line class="st7" x1="117.421" y1="143.699" x2="294.952" y2="-2.492"/>
			<line class="st7" x1="119.38" y1="146.078" x2="296.911" y2="-0.113"/>
			<line class="st7" x1="121.339" y1="148.456" x2="298.87" y2="2.265"/>
			<line class="st7" x1="123.296" y1="150.835" x2="300.827" y2="4.644"/>
			<line class="st7" x1="125.257" y1="153.214" x2="302.788" y2="7.022"/>
			<line class="st7" x1="127.214" y1="155.592" x2="304.745" y2="9.401"/>
			<line class="st7" x1="129.173" y1="157.969" x2="306.704" y2="11.778"/>
			<line class="st7" x1="131.132" y1="160.348" x2="308.663" y2="14.157"/>
			<line class="st7" x1="133.089" y1="162.727" x2="310.62" y2="16.535"/>
			<line class="st7" x1="135.05" y1="165.106" x2="312.581" y2="18.914"/>
			<line class="st7" x1="137.007" y1="167.483" x2="314.538" y2="21.292"/>
			<line class="st7" x1="138.966" y1="169.862" x2="316.497" y2="23.671"/>
			<line class="st7" x1="140.925" y1="172.241" x2="318.456" y2="26.049"/>
			<line class="st7" x1="142.882" y1="174.62" x2="320.413" y2="28.428"/>
			<line class="st7" x1="144.843" y1="176.999" x2="322.374" y2="30.806"/>
			<line class="st7" x1="146.8" y1="179.378" x2="324.331" y2="33.185"/>
			<line class="st7" x1="148.759" y1="181.755" x2="326.29" y2="35.563"/>
			<line class="st7" x1="150.718" y1="184.133" x2="328.249" y2="37.942"/>
			<line class="st7" x1="152.675" y1="186.51" x2="330.206" y2="40.319"/>
			<line class="st7" x1="154.636" y1="188.889" x2="332.167" y2="42.698"/>
			<line class="st7" x1="156.593" y1="191.268" x2="334.124" y2="45.076"/>
			<line class="st7" x1="158.552" y1="193.647" x2="336.083" y2="47.455"/>
			<line class="st7" x1="160.511" y1="196.026" x2="338.042" y2="49.833"/>
			<line class="st7" x1="162.468" y1="198.405" x2="339.999" y2="52.212"/>
			<line class="st7" x1="164.427" y1="200.782" x2="341.958" y2="54.59"/>
			<line class="st7" x1="166.386" y1="203.161" x2="343.917" y2="56.969"/>
			<line class="st7" x1="168.345" y1="205.538" x2="345.876" y2="59.347"/>
			<line class="st7" x1="170.304" y1="207.917" x2="347.835" y2="61.726"/>
			<line class="st7" x1="172.261" y1="210.296" x2="349.792" y2="64.104"/>
			<line class="st7" x1="174.22" y1="212.674" x2="351.751" y2="66.483"/>
			<line class="st7" x1="176.179" y1="215.053" x2="353.71" y2="68.86"/>
			<line class="st7" x1="178.136" y1="217.432" x2="355.667" y2="71.239"/>
			<line class="st7" x1="180.097" y1="219.811" x2="357.628" y2="73.618"/>
			<line class="st7" x1="182.054" y1="222.188" x2="359.585" y2="75.996"/>
			<line class="st7" x1="184.013" y1="224.567" x2="361.544" y2="78.375"/>
			<line class="st7" x1="185.972" y1="226.944" x2="363.503" y2="80.753"/>
			<line class="st7" x1="187.929" y1="229.323" x2="365.46" y2="83.132"/>
			<line class="st7" x1="189.888" y1="231.702" x2="367.419" y2="85.509"/>
			<line class="st7" x1="191.847" y1="234.081" x2="369.378" y2="87.889"/>
			<line class="st7" x1="193.808" y1="236.46" x2="371.339" y2="90.268"/>
			<line class="st7" x1="195.765" y1="238.839" x2="373.296" y2="92.646"/>
			<line class="st7" x1="197.722" y1="241.214" x2="375.253" y2="95.023"/>
			<line class="st7" x1="199.683" y1="243.594" x2="377.214" y2="97.402"/>
			<line class="st7" x1="201.64" y1="245.973" x2="379.171" y2="99.781"/>
			<line class="st7" x1="203.599" y1="248.35" x2="381.13" y2="102.159"/>
			<line class="st7" x1="205.558" y1="250.729" x2="383.089" y2="104.536"/>
			<line class="st7" x1="207.515" y1="253.108" x2="385.046" y2="106.916"/>
			<line class="st7" x1="209.476" y1="255.487" x2="387.007" y2="109.295"/>
			<line class="st7" x1="211.433" y1="257.866" x2="388.964" y2="111.673"/>
			<line class="st7" x1="213.39" y1="260.241" x2="390.921" y2="114.05"/>
			<line class="st7" x1="215.351" y1="262.622" x2="392.882" y2="116.43"/>
			<line class="st7" x1="217.308" y1="265.001" x2="394.839" y2="118.809"/>
			<line class="st7" x1="219.267" y1="267.378" x2="396.798" y2="121.187"/>
			<line class="st7" x1="221.226" y1="269.756" x2="398.757" y2="123.564"/>
			<line class="st7" x1="223.185" y1="272.135" x2="400.716" y2="125.944"/>
			<line class="st7" x1="225.144" y1="274.514" x2="402.675" y2="128.322"/>
			<line class="st7" x1="227.103" y1="276.893" x2="404.634" y2="130.701"/>
			<line class="st7" x1="229.062" y1="279.272" x2="406.593" y2="133.081"/>
			<line class="st7" x1="231.021" y1="281.651" x2="408.552" y2="135.46"/>
			<line class="st7" x1="232.98" y1="284.03" x2="410.511" y2="137.839"/>
		</g>
	</g>
	<g>
		<defs>
			<path id="SVGID_5_" d="M37.263,103.605l-22.551,0.749l9.415,30.811l-7.74,32.375c16.413-0.322,35.789-5.684,43.318-10.057
				c7.529-4.373-4.606-49.636-4.606-49.636L37.263,103.605z"/>
		</defs>
		<clipPath id="SVGID_6_">
			<use xlink:href="#SVGID_5_"  style="overflow:visible;"/>
		</clipPath>
		<g class="st8">
			<line class="st7" x1="-106.362" y1="124.244" x2="71.169" y2="-21.947"/>
			<line class="st7" x1="-104.403" y1="126.623" x2="73.128" y2="-19.568"/>
			<line class="st7" x1="-102.444" y1="129.001" x2="75.087" y2="-17.19"/>
			<line class="st7" x1="-100.485" y1="131.38" x2="77.046" y2="-14.811"/>
			<line class="st7" x1="-98.528" y1="133.758" x2="79.003" y2="-12.433"/>
			<line class="st7" x1="-96.569" y1="136.137" x2="80.962" y2="-10.055"/>
			<line class="st7" x1="-94.61" y1="138.515" x2="82.921" y2="-7.677"/>
			<line class="st7" x1="-92.653" y1="140.894" x2="84.878" y2="-5.298"/>
			<line class="st7" x1="-90.692" y1="143.272" x2="86.839" y2="-2.92"/>
			<line class="st7" x1="-88.735" y1="145.651" x2="88.796" y2="-0.541"/>
			<line class="st7" x1="-86.776" y1="148.028" x2="90.755" y2="1.837"/>
			<line class="st7" x1="-84.817" y1="150.407" x2="92.714" y2="4.216"/>
			<line class="st7" x1="-82.86" y1="152.786" x2="94.671" y2="6.594"/>
			<line class="st7" x1="-80.899" y1="155.165" x2="96.632" y2="8.973"/>
			<line class="st7" x1="-78.942" y1="157.542" x2="98.589" y2="11.351"/>
			<line class="st7" x1="-76.983" y1="159.921" x2="100.548" y2="13.73"/>
			<line class="st7" x1="-75.024" y1="162.299" x2="102.507" y2="16.108"/>
			<line class="st7" x1="-73.067" y1="164.678" x2="104.464" y2="18.486"/>
			<line class="st7" x1="-71.106" y1="167.057" x2="106.425" y2="20.864"/>
			<line class="st7" x1="-69.149" y1="169.436" x2="108.382" y2="23.243"/>
			<line class="st7" x1="-67.19" y1="171.813" x2="110.341" y2="25.621"/>
			<line class="st7" x1="-65.231" y1="174.192" x2="112.3" y2="28"/>
			<line class="st7" x1="-63.274" y1="176.569" x2="114.257" y2="30.378"/>
			<line class="st7" x1="-61.313" y1="178.948" x2="116.218" y2="32.757"/>
			<line class="st7" x1="-59.356" y1="181.327" x2="118.175" y2="35.135"/>
			<line class="st7" x1="-57.397" y1="183.706" x2="120.134" y2="37.514"/>
			<line class="st7" x1="-55.438" y1="186.085" x2="122.093" y2="39.892"/>
			<line class="st7" x1="-53.481" y1="188.464" x2="124.05" y2="42.271"/>
			<line class="st7" x1="-51.522" y1="190.84" x2="126.009" y2="44.649"/>
			<line class="st7" x1="-49.563" y1="193.219" x2="127.968" y2="47.027"/>
			<line class="st7" x1="-47.604" y1="195.596" x2="129.927" y2="49.405"/>
			<line class="st7" x1="-45.645" y1="197.975" x2="131.886" y2="51.784"/>
			<line class="st7" x1="-43.688" y1="200.354" x2="133.843" y2="54.162"/>
			<line class="st7" x1="-41.729" y1="202.733" x2="135.802" y2="56.541"/>
			<line class="st7" x1="-39.77" y1="205.112" x2="137.761" y2="58.919"/>
			<line class="st7" x1="-37.813" y1="207.491" x2="139.718" y2="61.298"/>
			<line class="st7" x1="-35.853" y1="209.87" x2="141.679" y2="63.677"/>
			<line class="st7" x1="-33.895" y1="212.247" x2="143.636" y2="66.055"/>
			<line class="st7" x1="-31.936" y1="214.626" x2="145.595" y2="68.434"/>
			<line class="st7" x1="-29.978" y1="217.003" x2="147.554" y2="70.812"/>
			<line class="st7" x1="-28.02" y1="219.381" x2="149.511" y2="73.191"/>
			<line class="st7" x1="-26.061" y1="221.76" x2="151.47" y2="75.568"/>
			<line class="st7" x1="-24.103" y1="224.139" x2="153.429" y2="77.947"/>
			<line class="st7" x1="-22.142" y1="226.518" x2="155.39" y2="80.326"/>
			<line class="st7" x1="-20.185" y1="228.897" x2="157.347" y2="82.704"/>
			<line class="st7" x1="-18.228" y1="231.272" x2="159.304" y2="85.081"/>
			<line class="st7" x1="-16.267" y1="233.653" x2="161.265" y2="87.461"/>
			<line class="st7" x1="-14.31" y1="236.032" x2="163.222" y2="89.84"/>
			<line class="st7" x1="-12.351" y1="238.409" x2="165.181" y2="92.218"/>
			<line class="st7" x1="-10.392" y1="240.788" x2="167.14" y2="94.595"/>
			<line class="st7" x1="-8.435" y1="243.167" x2="169.097" y2="96.975"/>
			<line class="st7" x1="-6.474" y1="245.546" x2="171.058" y2="99.354"/>
			<line class="st7" x1="-4.517" y1="247.924" x2="173.015" y2="101.732"/>
			<line class="st7" x1="-2.56" y1="250.299" x2="174.972" y2="104.109"/>
			<line class="st7" x1="-0.599" y1="252.68" x2="176.933" y2="106.488"/>
			<line class="st7" x1="1.358" y1="255.059" x2="178.89" y2="108.867"/>
			<line class="st7" x1="3.317" y1="257.436" x2="180.849" y2="111.245"/>
			<line class="st7" x1="5.276" y1="259.815" x2="182.808" y2="113.622"/>
			<line class="st7" x1="7.235" y1="262.194" x2="184.767" y2="116.002"/>
			<line class="st7" x1="9.194" y1="264.573" x2="186.726" y2="118.381"/>
			<line class="st7" x1="11.153" y1="266.952" x2="188.685" y2="120.76"/>
			<line class="st7" x1="13.112" y1="269.331" x2="190.644" y2="123.14"/>
			<line class="st7" x1="15.071" y1="271.71" x2="192.603" y2="125.519"/>
			<line class="st7" x1="17.03" y1="274.089" x2="194.562" y2="127.898"/>
		</g>
	</g>
	<path class="st9" d="M27.541,166.196c0,0,14.672,3.504,16.858,3.111c23.838-4.28,30.835-11.482,30.835-13.238
		c0-0.305,0-71.088,0-71.088c-15.733,7.477-31.767,13.433-47.693,14.177V166.196z"/>
	<path class="st9" d="M259.016,166.196c0,0-14.672,3.504-16.858,3.111c-23.838-4.28-30.835-11.482-30.835-13.238
		c0-0.305,0-71.088,0-71.088c15.733,7.477,31.767,13.433,47.693,14.177V166.196z"/>
	<path class="st10" d="M143.292,14.3c3.48,1.475,9.65,6.128,9.65,10.236v3.561v2.771l2.849-0.722
		c1.19-0.303,4.962-0.597,6.475-0.597l0.086,0c3.873,0.037,6.177,0.171,7.525,0.301l-2.884,8.65l-0.633,1.9l1.979,0.714
		c0.734,0.265,1.365,0.516,1.887,0.735l-2.967,6.69c-7.648-2.629-15.625-3.961-23.733-3.961c-8.229,0-16.331,1.372-24.079,4.077
		c-0.007,0.002-0.014,0.003-0.021,0.005l-3.083-6.817c0.518-0.218,1.144-0.467,1.871-0.729l1.981-0.716l-0.636-1.901l-2.897-8.653
		c1.335-0.127,3.606-0.258,7.413-0.296l0.091,0c1.568,0,5.106,0.269,5.979,0.482l3.213,1.643v-3.571v-3.567
		C133.357,20.225,139.723,15.81,143.292,14.3"/>
	<g>
		<path class="st11" d="M256.55,159.018c-0.516-0.1-28.785,5.502-28.785,5.502l5.439-10.421l7.448-4.874L256.55,159.018z"/>
		<path class="st11" d="M30.837,159.018c0.516-0.1,28.61,5.502,28.61,5.502l-5.264-10.421l-7.448-4.874L30.837,159.018z"/>
	</g>
	<g>
		<ellipse class="st4" cx="143.279" cy="118.048" rx="110.302" ry="79.496"/>
	</g>
	<g>
		
			<radialGradient id="SVGID_7_" cx="142.9448" cy="31.3075" r="182.0623" gradientTransform="matrix(1 0 0 0.9389 0 12.0709)" gradientUnits="userSpaceOnUse">
			<stop  offset="0" style="stop-color:#FFFFFF"/>
			<stop  offset="0.5804" style="stop-color:#FFFFFF"/>
			<stop  offset="0.676" style="stop-color:#FFFFFF"/>
			<stop  offset="0.7967" style="stop-color:#FEFEFD"/>
			<stop  offset="0.8402" style="stop-color:#F9F9F6"/>
			<stop  offset="0.8712" style="stop-color:#F0F0EB"/>
			<stop  offset="0.8961" style="stop-color:#E4E4DA"/>
			<stop  offset="0.9037" style="stop-color:#DFDFD3"/>
		</radialGradient>
		<ellipse class="st12" cx="143.279" cy="116.17" rx="110.302" ry="79.496"/>
	</g>
	<g class="st13">
		<g>
			<g>
				<g>
					<g>
						<path class="st11" d="M170.329,41.484c-0.275-0.03-0.13,0.041,0.619,0.186l0.546,0.03L170.329,41.484z"/>
						<path class="st11" d="M175.322,42.679c0.881,0.169,1.904,0.341,1.355,0.135c-0.883-0.13-1.085-0.211-2.036-0.342
							c-0.749-0.147-1.3-0.292-1.167-0.296c-0.269-0.034-1.159-0.254-1.571-0.287c0.958,0.271,2.198,0.488,3.485,0.751
							C175.659,42.722,175.388,42.68,175.322,42.679z"/>
						<path class="st11" d="M237.77,80.399l-0.274-0.394C237.571,80.113,237.665,80.248,237.77,80.399z"/>
						<path class="st11" d="M249.456,123.778c0.035-0.349,0.042-0.496,0.037-0.514C249.464,123.589,249.441,123.855,249.456,123.778
							z"/>
						<path class="st11" d="M247.774,131.448c0.042-0.163,0.078-0.3,0.117-0.448C247.841,131.17,247.794,131.341,247.774,131.448z"
							/>
						<path class="st11" d="M237.77,80.399l0.703,1.011C238.545,81.465,238.118,80.888,237.77,80.399z"/>
						<path class="st11" d="M185.308,45.147c-0.248-0.067-0.456-0.124-0.648-0.176c0.204,0.059,0.402,0.117,0.605,0.176
							C185.279,45.147,185.291,45.147,185.308,45.147z"/>
						<path class="st11" d="M223.756,65.755l-0.29-0.236c-0.09-0.059-0.177-0.115-0.262-0.171L223.756,65.755z"/>
						<path class="st11" d="M210.988,56.83c0.302,0.182,0.443,0.185,0.575,0.229c-0.186-0.077-0.418-0.198-0.687-0.351
							C210.864,56.716,210.896,56.753,210.988,56.83z"/>
						<path class="st11" d="M188.557,46.486l-0.419-0.133C188.247,46.387,188.43,46.445,188.557,46.486z"/>
						<path class="st11" d="M231.875,73.399c0.011,0.026,0.043,0.072,0.08,0.119C231.961,73.512,231.929,73.466,231.875,73.399z"/>
						<path class="st11" d="M97.187,46.351c-0.01,0.009,0.007,0.006,0.005,0.011C97.276,46.325,97.301,46.311,97.187,46.351z"/>
						<path class="st11" d="M114.766,41.951l-0.245,0.056c-0.024,0.018-0.048,0.036-0.046,0.049L114.766,41.951z"/>
						<path class="st11" d="M242.184,144.643c0.014-0.024,0.019-0.033,0.032-0.055C242.391,144.252,242.289,144.441,242.184,144.643
							z"/>
						<path class="st11" d="M126.274,191.919c1.479,0.252-2.428-0.234-0.198,0.121C125.872,191.987,128.122,192.196,126.274,191.919
							z"/>
						<path class="st11" d="M185.693,45.273c0.202,0.061,0.408,0.124,0.614,0.186C186.027,45.375,185.839,45.318,185.693,45.273z"/>
						<path class="st11" d="M126.076,192.04L126.076,192.04l0.23,0.037C126.211,192.061,126.158,192.053,126.076,192.04z"/>
						<path class="st11" d="M220.291,169.165c0.061-0.031,0.172-0.104,0.288-0.18C220.566,168.986,220.5,169.025,220.291,169.165z"
							/>
						<path class="st11" d="M237.751,151.826l-0.361,0.493C237.533,152.123,237.649,151.965,237.751,151.826z"/>
						<path class="st11" d="M209.633,176.29c-0.292,0.159-0.395,0.207-0.786,0.439c0.039-0.019,0.076-0.037,0.124-0.061
							C209.11,176.579,209.298,176.468,209.633,176.29z"/>
						<path class="st11" d="M197.678,182.243c0.068-0.024,0.155-0.055,0.233-0.082c0.122-0.052,0.264-0.112,0.39-0.165
							L197.678,182.243z"/>
						<path class="st11" d="M61.727,66.046c0.239-0.173,0.394-0.273,0.517-0.348C62.054,65.793,63.564,64.523,61.727,66.046z"/>
						<path class="st11" d="M185.303,45.185c0.08,0.006,0.192,0.032,0.39,0.088c-0.148-0.044-0.289-0.086-0.428-0.127
							C185.225,45.145,185.214,45.152,185.303,45.185z"/>
						<path class="st11" d="M209.425,177.025l-1.861,1.042C208.085,177.776,208.761,177.397,209.425,177.025z"/>
						<path class="st11" d="M48.257,151.865l-0.291-0.395C48.074,151.626,48.177,151.766,48.257,151.865z"/>
						<path class="st11" d="M201.915,180.921c-0.356,0.138-0.728,0.295-1.11,0.461c-0.077,0.042-0.161,0.089-0.217,0.12
							L201.915,180.921z"/>
						<path class="st11" d="M62.249,65.695l-0.004,0.002L62.249,65.695z"/>
						<path class="st11" d="M73.553,57.368c-1.727,1.075-0.76,0.586-1.098,0.857c-2.019,1.344-0.977,0.557-1.694,0.969
							c-1.268,0.832-2.14,1.612-3.074,2.246c-0.077,0.037-0.26,0.159-0.06-0.005c-1.263,0.984-3.815,2.839-5.176,4.122
							c-0.112,0.082-0.171,0.121-0.202,0.138c0.262-0.158,0.326-0.152,0.299-0.088c-0.697,0.584-1.272,1.109-1.557,1.303
							c0.414-0.374,0.445-0.409,0.631-0.593c-0.242,0.206-0.478,0.418-0.706,0.64c-0.703,0.5,0.959-0.881,0.932-0.912
							c-0.72,0.589-1.435,1.302-2.138,1.944c-0.701,0.645-1.359,1.255-1.869,1.753c-0.131,0.078,0.449-0.521,0.916-0.948
							c0.467-0.426,0.786-0.719,0.053-0.111l1.665-1.449c-1.342,1.028,1.005-0.888-0.241,0.042
							c-2.194,1.909-2.369,2.227-4.461,4.234c-0.416,0.507,0.196-0.109-0.219,0.397c-2.776,3.038-2.355,2.241-4.271,4.592
							c-0.454,0.643-0.554,0.952-1.935,2.607l0.382-0.634c-1.726,2.224-0.854,1.366-2.633,3.714c0.269-0.45,1.262-1.816,1.003-1.477
							c-1.17,1.512-0.76,1.117-1.555,2.349l-0.234,0.21c-1.66,2.498-3.2,5.43-4.592,8.438c0.053-0.178,0.263-0.707-0.078-0.01
							c-1.741,3.809-3.313,8.313-4.213,12.261l-0.242,1.528c-0.073,0.351-0.166,0.647-0.101,0.263
							c-0.32,1.543,0.015,0.086-0.082,0.837c-0.125,0.887-0.212,1.165-0.151,0.599c-0.478,2.747-0.72,7.887-0.617,10.811
							l-0.041-0.57c0.051,2.282,0.201,2.564,0.38,4.668l-0.055-0.402c0.406,4.939,1.845,10.239,3.009,13.827
							c0.358,0.631,1.735,4.582,2.075,4.78c0.558,1.293,0.759,1.759,1.016,2.354c0.278,0.585,0.652,1.283,1.584,3.043
							c0.488,0.946,0.899,1.308,1.592,2.421l-0.046,0.067l1.013,1.467l0.474,0.824l0.729,0.993
							c-0.281-0.403-0.577-0.869-0.516-0.821c0.574,0.771,1.231,1.741,1.771,2.508c0.28,0.374,0.525,0.702,0.703,0.941
							c0.174,0.239,0.278,0.389,0.278,0.405l1.444,1.759l1.534,1.68c-0.089-0.055-0.604-0.618-1.019-1.056
							c1.672,1.765,0.234,0.382,1.767,1.999c-0.186-0.234,0.14,0.09,0.185,0.118c0.338,0.443,0.988,1.079,1.685,1.801
							c0.713,0.706,1.453,1.521,2.164,2.128l-0.3-0.205c2.465,2.305,5.285,4.773,8.344,7.007c-1.069-0.838-0.765-0.72,0.124-0.059
							l0.307,0.331c0.601,0.393-0.906-0.723,0.302,0.116c1.121,0.859,0.705,0.646,0.042,0.177c0.46,0.342,0.925,0.677,1.408,0.986
							c0.07,0.076-0.27-0.142-0.374-0.177c0.609,0.359,2.402,1.747,3.289,2.253l0.067,0.075c1.608,0.999,2.776,1.724,3.87,2.404
							c1.122,0.631,2.168,1.219,3.512,1.975c0.079-0.019,1.13,0.569,1.979,0.927c1.004,0.52,2.05,1.098,3.169,1.66
							c1.134,0.533,2.32,1.089,3.554,1.669c1.767,0.743,0.535,0.173,1.343,0.474c0.105,0.111,2.624,1.148,1.302,0.648
							c1.514,0.623,2.477,1.03,3.568,1.406c1.09,0.378,2.262,0.848,4.234,1.477c-0.419-0.163-0.895-0.33-0.64-0.269
							c0.717,0.223,1.615,0.554,1.504,0.549l-0.19-0.055c4.408,1.454,10.241,3.196,13.885,3.868l-0.205-0.035l3.772,0.703
							c1.727,0.364-1.046-0.166,0.227,0.133c2.045,0.323,3.66,0.57,5.18,0.839c1.524,0.239,2.967,0.412,4.659,0.603
							c1.294,0.29,3.633,0.444,6.078,0.674c2.45,0.136,5.005,0.277,6.798,0.376l-0.204-0.047c0.921-0.025,1.112,0.045,1.791,0.067
							c-0.096-0.035-0.998-0.057-0.425-0.07c7.791,0.126,16.099-0.213,24.029-1.289c2.898-0.402,1.606-0.474,5.259-0.962
							l-1.018,0.25c5.797-1.092,11.828-2.424,17.326-4.206c-0.323,0.119-0.321,0.162-0.864,0.313
							c0.595-0.138,1.664-0.504,2.592-0.814c0.461-0.161,0.887-0.31,1.2-0.419c0.311-0.113,0.506-0.189,0.507-0.202
							c0.857-0.274,0.212-0.024,0.747-0.173c1.161-0.391,2.857-1.134,3.488-1.305c0.107-0.029-0.316,0.137-0.525,0.219
							c0.376-0.144,1.24-0.476,1.925-0.739c0.677-0.284,1.172-0.497,0.806-0.382c2.019-0.795,3.824-1.604,5.399-2.322
							c0.496-0.271,1.342-0.651,2.099-0.996c0.752-0.355,1.4-0.704,1.538-0.828c-0.093,0.163,3.44-1.628,4.581-2.397
							c-0.383,0.255,1.054-0.558,0.609-0.253c0.677-0.392,1.325-0.766,1.777-1.028c0.435-0.286,0.672-0.456,0.541-0.408
							c1.254-0.712,2.48-1.488,3.55-2.209c1.053-0.75,1.976-1.405,2.694-1.797c3.74-2.762,7.099-5.465,10.1-8.38
							c-0.029,0.19-3.402,3.129-3.228,3.056c1.522-1.276,2.599-2.419,3.747-3.474c1.09-1.12,2.172-2.233,3.544-3.643
							c0.682-0.757-0.334,0.479-0.582,0.719c2.651-2.945,5.108-5.733,7.046-8.689c0.001,0.007-0.051,0.09-0.129,0.208
							c-0.079,0.118-0.182,0.272-0.282,0.421c0.4-0.569,0.951-1.31,0.864-1.274l-0.382,0.56c-0.351,0.432,0.018-0.153,0.479-0.859
							c0.477-0.696,0.942-1.584,0.971-1.638c-0.507,1.076,1.88-2.93,1.038-1.249c0.235-0.393,0.52-0.891,0.436-0.819
							c0.353-0.58,0.46-0.768,0.166-0.141c1.173-2.201,0.702-1.449,1.786-3.428c0.018,0.018-0.193,0.422-0.28,0.64
							c0.533-1.012,0.914-2.103,1.763-3.81c-0.035,0.11,0.076-0.083-0.166,0.432c0.363-0.735,0.636-1.443,0.888-2.132
							c0.257-0.686,0.505-1.349,0.756-2.021c0.47-1.355,0.881-2.771,1.429-4.479c-0.154,1.057,0.327-1.176,0.46-1.339l0.439-1.884
							l-0.229,0.743c0.225-0.817,0.351-1.605,0.463-2.364c0.121-0.758,0.24-1.485,0.381-2.199l-0.181,1.244l0.267-1.563l0.16-1.578
							c-0.082,0.593-0.132,1.189-0.239,1.778c0.167-1.703-0.123,0.168,0.145-2.064c-0.053,0.454,0.21-1.677,0.292-2.554l0,0.006
							c0.001-0.838,0-1.697,0.067-2.945c0.04-0.324,0.091,0.262,0.118,0.051c-0.014-0.438-0.046-1.408-0.08-2.42
							c-0.02-0.508-0.04-1.023-0.057-1.477c-0.038-0.452-0.091-0.841-0.132-1.1c0.05,0.345,0.099,0.36,0.098,0.245l-0.122-0.685
							c-0.05-0.782-0.05-0.897-0.001-0.774c-0.222-2.346,0.008,0.751-0.302-2.026c0.041,0.214,0.022,0.118,0.107,0.562
							c-0.21-1.388-0.357-2.74-0.673-4.031c-0.139-0.649-0.276-1.292-0.412-1.929c-0.164-0.631-0.326-1.257-0.488-1.882
							c-0.11-0.76,0.607,2.173,0.455,1.312c-0.875-3.628-2.345-7.352-3.824-10.628l0.269,0.615
							c-0.162-0.201-0.425-0.816-0.749-1.587c-0.322-0.771-0.784-1.66-1.222-2.458c0.214,0.391,0.333,0.485,0.265,0.385
							c-1.105-2.207-2.481-4.397-4.617-7.456l0.299,0.356c-0.829-1.193-2.216-3.12-3.218-4.33c-0.317-0.343-0.873-1.047-0.569-0.591
							c-2.937-3.861-6.267-6.769-9.381-9.709c0.385,0.339,0.936,0.788,0.63,0.518c-0.922-0.798-1.83-1.611-2.796-2.356
							c0.189,0.226,0.35,0.329,0.917,0.846c-0.38-0.266-1.196-0.897-1.897-1.468c1.297,1.007,0.046-0.079-0.486-0.552
							c0.082,0.089-0.119-0.05-0.083,0.002c-1.445-1.251-0.319-0.11-2.356-1.733l0.128,0.059c-0.782-0.583-1.534-1.074-2.399-1.671
							c-0.321-0.301,0.87,0.566,0.956,0.561c-1.225-0.81-2.414-1.597-3.545-2.344c0.545,0.313,1.288,0.824,1.811,1.17
							c-1.149-0.899-1.313-0.959-2.217-1.554l0.089,0.059l-2.09-1.376l0.526,0.361c-0.817-0.437-1.648-0.879-2.523-1.405
							c-0.874-0.528-1.827-1.08-2.954-1.612c2.177,1.061,0.381,0.138,0.579,0.162c-0.549-0.321-1.389-0.802-1.137-0.689
							c-1.057-0.519-1.713-0.969-3.243-1.627c-0.056-0.054-1.127-0.564-0.863-0.498c-1.379-0.666,0.306,0.198,0.178,0.167
							c-2.147-0.973-4.987-2.435-8.175-3.611c-2.756-0.986-3.269-1.159-5.855-1.979c-0.854-0.331,0.738,0.161,0.738,0.161
							c-1.391-0.497-2.434-0.889-3.777-1.259c0.276,0.063,0.003-0.039-0.395-0.188c-1.071-0.32-0.74-0.136-2.139-0.599
							c0.249,0.049,0.572,0.103,1.095,0.235c-1.263-0.378-2.528-0.685-3.852-1.012c-0.338-0.134,0.811,0.155,1.282,0.254
							c-1.485-0.384-3.842-1.008-4.324-1.03l0.951,0.249c-0.544-0.125-0.265-0.122,0.138-0.035c1.281,0.294,1.823,0.517,1.888,0.559
							l-0.941-0.239c0.928,0.387,3.771,0.987,5.631,1.596l-0.808-0.141l1.941,0.505c0.4,0.15,0.661,0.288-0.266,0.021
							c1.322,0.46,1.188,0.355,2.311,0.787c0.123,0.051,0.064,0.036-0.053,0l1.304,0.413c-0.261-0.066,0.192,0.141-0.598-0.144
							c2.312,0.819,3.738,1.299,4.584,1.674l-0.194-0.067c3.183,1.208,0.338,0.038,2.736,0.924l1.516,0.828l0.338,0.061
							c0.325,0.133,0.951,0.438,0.823,0.408c1.21,0.496-0.19-0.122,0.52,0.149c0.754,0.384,1.822,0.852,2.729,1.278
							c0.898,0.445,1.646,0.823,1.79,0.961c0.569,0.22-1.428-0.76,0.205,0.01c0.409,0.333,1.879,0.911,3.201,1.715
							c-0.448-0.169-1.717-0.896-0.387-0.108c0.436,0.173,1.094,0.537,1.787,0.932c0.687,0.406,1.394,0.869,1.962,1.187
							c0.049-0.022,0.663,0.329,1.503,0.822c0.823,0.521,1.869,1.182,2.793,1.768c-0.061-0.032,0.794,0.538,1.848,1.299
							c0.531,0.375,1.116,0.789,1.673,1.182c0.541,0.414,1.054,0.808,1.458,1.117l-0.057-0.024c0.371,0.161,2.043,1.428,3.221,2.4
							c-0.08,0.003-0.307-0.154-0.962-0.656l1.113,0.905c0.278,0.195,0.644,0.454,1.359,1.05l-0.316-0.185
							c1.436,1.255,2.957,2.461,4.676,4.218c0.144,0.052-1.292-1.479,0.615,0.293c0.046,0.091,0.075,0.198-0.426-0.263
							c0.16,0.155,0.603,0.52,0.896,0.863c-0.248-0.241-0.516-0.463-0.778-0.69c0.791,0.792,0.453,0.374,1.074,1.02
							c-0.046,0.021,0.434,0.502,0.318,0.436c-0.161-0.162-0.526-0.578-0.776-0.812c0.692,0.735,1.514,1.635,1.766,1.95
							c-0.041-0.081,0.048-0.045,0.561,0.487c1.261,1.433,0.388,0.53,1.103,1.383c0.329,0.326,1.106,1.263,1.181,1.241
							c0.349,0.437,0.388,0.538,0.507,0.719c0.315,0.385,1.042,1.276,1.605,1.965c0.533,0.714,0.91,1.216,0.614,0.742l-0.145-0.208
							c0.029,0.038,0.062,0.082,0.097,0.129c-0.005-0.006,0,0-0.005-0.006l0.005,0.006c2.027,2.537,3.771,5.577,5.353,8.368
							l-0.023,0.007c0.449,0.847,0.963,1.783,1.406,2.678c0.42,0.906,0.815,1.748,1.123,2.362c0.251,0.51,0.461,1.259,0.356,1.04
							c0.526,1.367,0.694,1.482,1.316,3.507c-0.51-1.382,0.146,0.487-0.523-1.416c0.591,1.806,0.722,2.205,1.362,4.159
							c-0.239-0.654,0.297,1.403,0.549,2.272l-0.303-1.298c0.282,0.978,0.499,1.84,0.66,2.73l-0.178-0.461
							c0.782,3.802,1.323,6.902,1.322,9.87c0.043,0.513,0.038-0.015,0.033-0.558c-0.004-0.542-0.065-1.096,0.016-0.639
							c0.07,1.791,0.027,3.658-0.015,4.216c-0.065,1.223-0.056,1.795-0.045,2.382c0.002,0.296,0.005,0.594,0.008,0.975
							c-0.02,0.383-0.072,0.852-0.145,1.489c0.063-0.323,0.172-0.627-0.003,1.289c-0.18,1.789-0.434,2.164-0.255,1.048
							c0.043-0.428,0.073-0.633,0.081-0.613c0.05-0.577,0.118-1.334,0.012-0.632l0.004,0.234c-0.065,0.888-0.54,3.307-0.475,2.731
							c-0.208,1.336-0.054,0.578,0.135-0.407c-0.227,1.126-0.359,2.014-0.548,2.899c-0.221,0.878-0.443,1.763-0.731,2.91
							c0.106-0.361,0.222-0.688,0.131-0.325c-0.203,0.844-0.365,1.347-0.472,1.673c-0.101,0.327-0.141,0.478-0.168,0.597
							c-0.055,0.237-0.062,0.342-0.415,1.465c-0.473,1.25,0.101-0.471-0.694,1.757c-0.558,1.334-0.183,0.257,0.005-0.284
							c-0.369,1.011-0.746,1.945-1.088,2.766c-0.355,0.816-0.736,1.494-0.993,2.052l0.461-1.035
							c-0.284,0.617-0.516,1.12-0.752,1.633l0.327-0.561c-0.292,0.598-0.532,1.109-0.548,1.087c-0.26,0.637,0.314-0.432-0.229,0.821
							c-0.453,0.766-1.273,2.392-1.487,2.624c1.364-2.44-0.215,0.233,0.909-1.847c-0.211,0.404-0.478,0.892-0.807,1.473
							c-0.055,0.084,0.032-0.091,0.115-0.252c-1.34,2.309-0.523,1.115-1.974,3.477c0.151-0.321-0.41,0.5-0.642,0.888
							c0.593-0.945,0.346-0.412-0.176,0.472c-1.058,1.43-1.099,1.59-1.642,2.347l0.629-0.858c-0.179,0.314-0.682,1.05-1.414,2.052
							c-0.078,0.073,0.65-0.92,0.378-0.571c-0.773,1.143-1.972,2.41-3.163,3.913c-0.613,0.646-0.119,0.012-0.652,0.582
							c-1.396,1.636-1.558,1.729-3.126,3.355c0.499-0.423,0.569-0.515-0.509,0.659c0.851-0.901,1.749-1.758,2.541-2.713
							c-0.497,0.623-1.028,1.215-1.574,1.795c0.808-0.782,1.597-1.749,2.051-2.245c-0.721,0.881-0.654,0.785-0.261,0.415
							c-1.057,1.115-2.072,2.235-3.347,3.474l-0.062-0.141c-1.969,1.796-3.386,3.322-6.099,5.485l0.872-0.693
							c-0.332,0.328-1.616,1.406-2.518,2.076c0.054-0.101-0.517,0.309-0.917,0.574c0.062-0.015-2.012,1.544-2.233,1.777
							l-1.312,0.825c-2.309,1.581-2.578,1.893-4.87,3.31c0.661-0.474-0.394,0.145,1.115-0.841c-0.762,0.475-1.452,0.896-1.447,0.932
							c-0.445,0.277-2.121,1.31-2.86,1.682c-0.319,0.205-0.403,0.31-1.283,0.804c-0.101,0.046-0.008-0.023-0.008-0.023
							c0.016,0.037-1.375,0.781-0.569,0.416c-1.273,0.557-2.979,1.473-4.68,2.297c-1.72,0.785-3.376,1.608-4.52,1.999
							c-1.808,0.762-3.975,1.711-5.659,2.296c0.102-0.053-0.003-0.024,0.315-0.136c-2.327,0.791-1.357,0.692-4.027,1.535
							c-1.384,0.369,1.399-0.5,0.542-0.251c-0.423-0.042-3.194,1.095-5.028,1.533l0.435-0.133c-1.403,0.323-3.347,1.058-5.634,1.606
							c0,0,0.108-0.041,0.007-0.026c-1.54,0.466-4.49,1.221-6.712,1.656c0.677-0.201,1-0.238,0.567-0.213
							c-0.991,0.212,0.312,0.039-1.669,0.462c-0.648,0.116-2.093,0.331-2.297,0.292c0.627-0.106,1.256-0.203,1.877-0.342
							c-0.971,0.126-2.433,0.422-3.426,0.584l0.121-0.058c-2.88,0.506-2.91,0.577-6.03,0.973l0.326-0.013
							c-1.695,0.3-1.431,0.163-3.132,0.381l-0.526-0.048c-1.127,0.118-3.944,0.488-5.977,0.577c0.573-0.07,1.454-0.136,2.372-0.222
							c0.917-0.107,1.872-0.217,2.605-0.303c-0.559,0.053-1.509,0.144-2.392,0.228c-0.883,0.084-1.702,0.123-1.993,0.168
							c0.452-0.034,1.02-0.089,1.467-0.098c-1.371,0.148-3.181,0.292-5.419,0.402c0.391-0.217-5.839,0.12-7.461-0.132
							c-0.992-0.01-1.976-0.02-2.969-0.03c-0.994-0.024-1.993-0.106-3.014-0.162c-1.02-0.069-2.062-0.117-3.134-0.207
							c-1.071-0.101-2.174-0.204-3.322-0.312c1.615,0.293-1.341-0.119-1.075,0.054c-1.072-0.082-1.475-0.17-1.57-0.181l-3.219-0.503
							c-0.759-0.141,1.018,0.098,0.924,0.052c-2.329-0.32-0.973-0.169-2.504-0.445c0.307,0.105-0.818-0.059-2.136-0.299l1.851,0.377
							c-1.627-0.231-2.323-0.378-3.021-0.526c-0.699-0.145-1.401-0.285-3.028-0.592l1.035,0.164c-0.835-0.165-2.37-0.47-3.903-0.774
							c-1.529-0.322-3.042-0.696-3.868-0.827c-0.288-0.088-0.664-0.221,0.065-0.054c-1.98-0.451-4.143-1.109-6.222-1.652
							c-2.053-0.627-3.998-1.231-5.476-1.785l0.301,0.073c-0.714-0.252-1.26-0.393-2.138-0.756c0.051,0.003,0.299,0.072-0.03-0.052
							c-0.376-0.137-1.919-0.615-2.836-1.027c0.27,0.095,0.536,0.2,0.811,0.281c-1.828-0.762-3.235-1.334-4.581-1.85
							c-1.325-0.562-2.575-1.102-4.09-1.785c0.023-0.039-0.661-0.408-1.512-0.881c-0.861-0.458-1.889-1.006-2.575-1.371l0.055,0.011
							c-4.03-2.229-6.867-3.771-10.399-6.175c-0.524-0.407-1.268-0.901-2.087-1.53c-0.821-0.627-1.752-1.339-2.723-2.081
							c-1.9-1.536-3.946-3.217-5.464-4.71c0.466,0.454-0.134-0.01-0.7-0.514c-0.744-0.667-2.024-1.881-1.85-1.832l0.249,0.255
							c-0.443-0.621-1.963-2.005-2.992-3.235l-0.271-0.112c-1.355-1.603-3.098-3.722-4.617-5.718
							c-0.73-1.02-1.425-1.991-2.021-2.823c-0.542-0.869-0.983-1.6-1.251-2.106c-0.278-0.422-0.598-0.89-0.888-1.374
							c-0.28-0.489-0.559-0.977-0.81-1.414l0.086,0.014c-0.669-1.23-1.174-2.15-1.628-3.187c-0.462-1.032-1.047-2.101-1.651-3.723
							l0.304,0.637c-0.355-0.907-0.627-1.462-0.893-2c-0.132-0.273-0.262-0.542-0.405-0.836c-0.12-0.31-0.245-0.658-0.384-1.087
							l-0.068-0.549c-1.118-3.225-1.696-6.633-2.313-9.937c0.022,0.053,0.05,0.15,0.155,0.691c-0.149-0.787-0.246-2.336-0.395-3.602
							c-0.153-1.267-0.128-2.274-0.212-1.978c0.045-0.022,0.017-0.899-0.036-2.001c-0.075-1.102,0-2.431-0.014-3.352l0.059,0.289
							c-0.06-1.557-0.001-1.605,0.142-3.772c0.054-0.512,0.093-0.443,0.016,0.236c0.206-1.701,0.109-1.333,0.429-3.387l-0.07,0.773
							c0.258-1.727,0.238-1.595,0.383-2.567c0.103-0.545,0.262-1.368,0.444-2.076c0.203-0.703,0.388-1.3,0.451-1.418
							c0.041-0.234,0.19-1.197,0.545-2.177c0.066-0.127-0.038,0.238-0.091,0.421c0.923-2.8,1.347-4.177,2.159-6.038
							c0.038-0.03,0.103-0.146,0.178-0.297c-0.894,2.164-1.553,3.933-1.482,3.771c0.031,0.01,0.741-1.741,0.274-0.313
							c0.252-0.715,0.594-1.687,0.949-2.692c0.382-0.998,0.844-2.009,1.228-2.846c0.043-0.076,0.084-0.149,0.119-0.213l-0.072,0.177
							c0.172-0.389,0.349-0.726,0.503-1.05c0.276-0.52,0.451-0.851,0.715-1.349c0.077-0.082,0.316-0.569,0.627-1.12
							c0.316-0.548,0.678-1.174,0.913-1.582c-0.098,0.033,0.531-1.03-0.098-0.057c0.079-0.127-0.083,0.158-0.395,0.703
							c-0.069,0.124-0.15,0.269-0.196,0.352c0.008-0.017,0.017-0.037,0.027-0.059c-0.322,0.53-0.698,1.245-1.11,2.066
							c0.308-0.68,0.631-1.392,1.203-2.269c0.21-0.444,0.44-0.928,0.567-1.197c0.713-1.082,2.161-3.112,2.381-3.379
							c1.613-2.386,3.995-5.484,5.14-6.895c0.525-0.632,0.645-0.689,0.86-0.907c-0.3,0.367-0.67,0.791-0.824,0.997
							c1.009-1.296,3.279-3.581,3.473-3.938c1.509-1.416-0.775,0.867,1.25-1.124l-0.256,0.287c1.021-0.954,1.932-1.831,2.838-2.632
							c0.888-0.822,1.733-1.609,2.632-2.363c0.885-0.771,1.788-1.554,2.819-2.325c0.513-0.389,1.044-0.792,1.602-1.215
							c0.571-0.404,1.183-0.81,1.828-1.239c-0.357,0.238-0.536,0.357-0.616,0.396c5.782-4.059,12.296-7.843,18.708-10.598
							c1.828-0.766,2.006-0.894,3.102-1.412l0.423-0.101c0.623-0.298,1.262-0.558,1.893-0.839c1.354-0.566,2.556-0.982,3.864-1.385
							c1.3-0.427,2.692-0.877,4.451-1.475l-0.472,0.097c0.637-0.2,1.645-0.516,2.467-0.775c0.829-0.235,1.473-0.411,1.374-0.354
							c0.129-0.046,0.407-0.168,0.916-0.285l0.049,0.026c1.042-0.329,2.095-0.621,3.153-0.898c2.475-0.573-0.355,0.218,3.255-0.616
							c1.342-0.304,3.812-0.934,3.301-0.851c-0.544,0.115-1.394,0.276-1.443,0.247l1.229-0.285c0.201-0.158,1.13-0.476-1.92,0.099
							l-2.099,0.523l-0.688,0.114c0.587-0.155,1.18-0.28,1.773-0.408c-1.023,0.158-1.647,0.365-2.35,0.573
							c-0.175,0.013-0.475,0.067-0.894,0.16l-2.033,0.618c-0.259,0.026,0.896-0.334-0.484,0.02
							c-0.944,0.318,0.943-0.163-0.632,0.315c-1.009,0.231-0.73,0.109-1.886,0.48c-0.172,0.018,0.07-0.069,0.53-0.212
							c-1.036,0.309-2.74,0.822-3.252,1.053c-0.523,0.132-1.392,0.411-2.121,0.64c-0.724,0.245-1.305,0.448-1.273,0.378
							c-0.312,0.137-1.768,0.711-2.703,1.044c1.651-0.764-3.47,1.33-3.07,1.037c-1.206,0.597-4.469,1.893-6.582,2.989
							c0.117-0.064,0.345-0.192,0.538-0.275c-1.218,0.538-1.582,0.699-2.369,1.046c-0.112,0.163-1.959,1.128-2.933,1.689
							c-1.492,0.686,0.828-0.564,0.336-0.395c0.096,0.006-2.472,1.425-1.951,1.214c-1.125,0.558-0.959,0.499-1.564,0.744
							c-0.139,0.2-1.004,0.599-1.857,1.201c-1.585,0.889-0.464,0.137-2.145,1.213C72.074,58.352,73.544,57.354,73.553,57.368z
							 M41.738,91.723l-0.001-0.001c0.166-0.374,0.308-0.692,0.399-0.895C42.053,91.014,41.938,91.272,41.738,91.723z
							 M40.184,95.396c0.177-0.452,0.397-1.016,0.63-1.612c0.079-0.118,0.034,0.027-0.108,0.402
							C40.77,93.978,40.418,94.849,40.184,95.396z M44.146,87.976c-0.29,0.555-0.389,0.74-0.443,0.809
							c0.14-0.26,0.277-0.58,0.508-0.972c0.008-0.018,0.022-0.05,0.03-0.068C44.222,87.803,44.198,87.868,44.146,87.976z"/>
						<path class="st11" d="M44.634,86.956c0.044-0.079,0.068-0.123,0.125-0.226c-0.069,0.109-0.135,0.212-0.201,0.316
							c-0.032,0.07-0.064,0.14-0.093,0.203C44.522,87.15,44.581,87.048,44.634,86.956z"/>
						<path class="st11" d="M237.448,79.936l0.048,0.069c-0.037-0.058-0.071-0.11-0.096-0.148
							C237.428,79.904,237.429,79.906,237.448,79.936z"/>
						<polygon class="st11" points="45.739,148.2 45.75,148.186 45.552,147.898 						"/>
						<path class="st11" d="M222.312,64.181c-0.029-0.031-0.089-0.088-0.213-0.195C222.106,63.997,222.199,64.08,222.312,64.181z"/>
						<path class="st11" d="M214.607,58.671l-1.116-0.742C213.974,58.25,214.326,58.484,214.607,58.671z"/>
						<path class="st11" d="M208.373,54.9c-0.087-0.033-0.114-0.038-0.139-0.042c0.005,0.003,0.012,0.007,0.012,0.007L208.373,54.9z
							"/>
						<path class="st11" d="M238.41,151.684c-0.056,0.081-0.111,0.16-0.161,0.231C237.877,152.462,238.133,152.093,238.41,151.684z"
							/>
						<path class="st11" d="M250.116,119.692c0.009,0.367-0.018,0.727-0.053,1.108C250.146,120.19,250.155,119.713,250.116,119.692z
							"/>
						<path class="st11" d="M209.629,176.911l0.003-0.003c-0.072,0.041-0.135,0.077-0.207,0.117L209.629,176.911z"/>
						<path class="st11" d="M249.893,122.396c0.078-0.609,0.129-1.121,0.169-1.596C250.009,121.301,249.947,121.889,249.893,122.396
							z"/>
						<path class="st11" d="M179.059,43.367l-0.339-0.091c0.004,0.006-0.016,0.004-0.043,0.001L179.059,43.367z"/>
						<path class="st11" d="M178.677,43.277l-0.381-0.082C178.47,43.236,178.621,43.271,178.677,43.277z"/>
						<path class="st11" d="M177.493,43.022l0.802,0.172C178.019,43.129,177.679,43.046,177.493,43.022z"/>
						<path class="st11" d="M188.298,46.133l0.112,0.012C188.352,46.13,188.313,46.125,188.298,46.133z"/>
						<path class="st11" d="M191.074,47.076c-0.656-0.24-1.642-0.618-2.57-0.921l-0.092-0.011
							C188.856,46.26,190.435,46.892,191.074,47.076z"/>
						<path class="st11" d="M202.23,52.062l-2.219-1.039c0.379,0.202,0.876,0.467-0.14,0.011
							C202.647,52.388,199.318,50.712,202.23,52.062z"/>
						<path class="st11" d="M208.953,55.598c-1.163-0.616-0.005,0.041-0.074,0.02C209.616,56.01,209.792,56.11,208.953,55.598z"/>
						<path class="st11" d="M245.793,94.835l-0.106-0.1C246.065,95.674,245.713,94.735,245.793,94.835z"/>
						<polygon class="st11" points="249.122,104.789 248.957,103.81 248.806,103.36 						"/>
						<polygon class="st11" points="249.596,110.982 249.548,110.543 249.72,112.221 						"/>
						<path class="st11" d="M199.827,181.228l0.31-0.059C200.754,180.869,200.848,180.731,199.827,181.228z"/>
						<path class="st11" d="M161.644,191.849c-0.435,0.016-1.547,0.14-2.228,0.257C160.305,192.005,161.193,191.915,161.644,191.849
							z"/>
						<path class="st11" d="M52.498,156.334l0.55,0.58c-0.336-0.372-0.683-0.735-1.01-1.115
							C52.181,155.986,52.345,156.155,52.498,156.334z"/>
					</g>
				</g>
			</g>
		</g>
	</g>
	<polyline class="st14" points="245.47,153.715 237.952,145.257 219.272,147.234 237.766,155.465 	"/>
	<polyline class="st14" points="40.729,153.715 48.247,145.257 66.927,147.234 48.433,155.465 	"/>
	<g>
		<polyline class="st14" points="249.11,87.202 245.752,78.968 222.838,79.439 245.573,89.177 		"/>
		<polyline class="st14" points="37.249,87.202 40.606,78.968 63.523,79.439 40.785,89.177 		"/>
	</g>
	<g class="st15">
		<path class="st16" d="M46.411,160.738c20.393,24.533,56.144,40.812,96.867,40.812c41.622,0,78.054-17.002,98.198-42.444"/>
		<path class="st16" d="M112.657,25.881C78.673,33.08,51.006,51.966,37.455,76.552"/>
		<path class="st16" d="M250.207,78.628c-13.235-25.837-41.903-45.717-77.293-52.952"/>
	</g>
	<path class="st0" d="M254.221,82.035c-72.981-13.088-148.076-13.147-221.062-0.179l0,0c-1.453,0.262-2.592,1.065-2.592,2.873
		c0,0.314,0,71.625,0,71.625c74.574-15.395,151.409-15.342,225.983,0.156V84.7C256.55,82.982,255.566,82.321,254.221,82.035z"/>
	<g>
		<path class="st17" d="M143.314,44.96v-2.894c0-1.594,1.241-3.295,2.757-3.783l2.759-0.883v2.894
			c-0.001,1.594-1.241,3.292-2.76,3.784L143.314,44.96z"/>
		<path class="st17" d="M142.36,44.96v-2.894c0-1.594-1.241-3.295-2.756-3.783l-2.757-0.883v2.894c0,1.594,1.244,3.292,2.757,3.784
			L142.36,44.96z"/>
		<path class="st17" d="M143.314,38.282v-2.897c0-1.594,1.241-3.293,2.757-3.781l2.759-0.887v2.897
			c-0.001,1.59-1.241,3.293-2.76,3.781L143.314,38.282z"/>
		<path class="st17" d="M142.36,38.282v-2.897c0-1.594-1.241-3.293-2.756-3.781l-2.757-0.887v2.897c0,1.59,1.244,3.293,2.757,3.781
			L142.36,38.282z"/>
		<path class="st17" d="M142.837,32.648l-1.704-2.342c-0.934-1.287-0.932-3.395,0.009-4.679l1.705-2.34l1.706,2.344
			c0.934,1.287,0.934,3.391-0.009,4.677L142.837,32.648z"/>
		<polygon class="st17" points="142.849,21.831 143.344,22.513 143.344,16.784 142.352,16.784 142.352,22.516 		"/>
		<path class="st17" d="M140.449,25.118l0.144-0.198v-5.584H139.6v8.098h0.013C139.693,26.592,139.968,25.778,140.449,25.118z"/>
		<path class="st17" d="M145.242,25.123c0.48,0.659,0.752,1.474,0.833,2.312h0.021v-8.098h-0.994v5.593L145.242,25.123z"/>
		<path class="st17" d="M137.839,30.136v-8.25h-0.991v7.929C137.145,29.91,137.488,30.022,137.839,30.136z"/>
		<polygon class="st17" points="148.565,29.9 148.85,29.811 148.85,21.887 147.855,21.887 147.855,30.128 		"/>
		<path class="st17" d="M127.271,41.461l-0.083-0.019l-0.038-0.333l0.122-0.009c0.017,0,1.996-0.222,3.105-0.535
			c-0.416-0.341-2.826-2.322-2.924-2.4c-0.778,0.116-2.894,0.187-3.516,0.051L123.86,38.2l-0.027-0.284l0.11-0.009
			c0.01,0,1.689-0.209,2.618-0.473c-0.438-0.359-4.3-3.721-4.3-3.721l0.171-0.219c0,0,6.265,4.6,6.721,4.949
			c0.003-0.083,0.013-0.153,0.013-0.244c0-1.161-0.176-2.91-0.178-2.92l-0.018-0.095l0.265-0.032l0.028,0.06
			c0.283,0.585,0.825,3.097,0.901,4.007c0.103,0.079,4.439,3.6,5.093,4.101l-1.293-4.68c-0.813-2.945-3.979-5.457-7.032-5.585
			l-5.551-0.227l1.482,5.351c0.548,1.985,2.169,3.754,4.099,4.75c-6.991,1.333-10.961,3.607-10.961,3.607
			c8.375-2.432,18.776-2.566,18.776-2.566c-0.582-0.478-3.312-2.509-3.406-2.586C130.471,41.516,128.066,41.637,127.271,41.461z"/>
		<path class="st17" d="M158.404,41.461l0.083-0.019l0.037-0.333l-0.122-0.009c-0.016,0-1.997-0.222-3.105-0.535
			c0.418-0.341,2.829-2.322,2.924-2.4c0.776,0.116,2.893,0.187,3.517,0.051l0.073-0.017l0.031-0.284l-0.112-0.009
			c-0.011,0-1.69-0.209-2.616-0.473c0.436-0.359,4.297-3.721,4.297-3.721l-0.169-0.219c0,0-6.263,4.6-6.72,4.949
			c-0.003-0.083-0.012-0.153-0.012-0.244c0-1.161,0.175-2.91,0.177-2.92l0.016-0.095l-0.263-0.032l-0.031,0.06
			c-0.279,0.585-0.824,3.097-0.901,4.007c-0.101,0.079-4.438,3.6-5.09,4.101l1.291-4.68c0.815-2.945,3.981-5.457,7.035-5.585
			l5.549-0.227l-1.481,5.351c-0.549,1.985-2.169,3.754-4.1,4.75c6.991,1.333,10.963,3.607,10.963,3.607
			c-8.375-2.432-18.777-2.566-18.777-2.566c0.583-0.478,3.312-2.509,3.405-2.586C155.204,41.516,157.606,41.637,158.404,41.461z"/>
		<path class="st17" d="M67.105,86.212l-0.181,0.036c1.451-0.229,2.894-0.453,4.318-0.668
			c11.046-17.038,38.941-29.138,71.604-29.138c32.688,0,60.585,12.099,71.628,29.138c1.428,0.215,2.866,0.438,4.32,0.668
			l-0.181-0.036l2.05-5.41l-5.824-0.236l1.05-5.78l-5.752,0.681l0.302-5.828l-5.743,1.303l-0.49-5.907l-5.495,1.95l-1.485-6.055
			l-5.981,2.148l-2.279-5.959l-5.825,2.679l-2.88-5.759l-5.643,3.152l-3.404-5.516l-5.43,3.574L161.916,50l-5.198,3.965
			l-4.276-4.958l-4.939,4.316l-4.655-4.646l-4.629,4.646l-4.939-4.316l-4.277,4.958L123.803,50l-3.865,5.249l-5.431-3.574
			l-3.409,5.516l-5.641-3.152l-2.878,5.759l-5.826-2.679l-2.28,5.959l-5.979-2.148l-1.486,6.055l-5.495-1.95l-0.492,5.907
			l-5.738-1.303l0.301,5.828l-5.752-0.681l1.05,5.78l-5.822,0.236L67.105,86.212z"/>
		<polygon class="st17" points="96.264,77.164 92.452,75.669 84.436,79.154 93.096,79.285 		"/>
		<polygon class="st17" points="189.161,77.164 192.972,75.669 200.988,79.154 192.327,79.285 		"/>
		<path class="st17" d="M219.231,143.566c-1.651-0.266-3.289-0.52-4.907-0.762c-11.148,16.914-38.94,28.899-71.477,28.899
			c-32.516,0-60.308-11.985-71.455-28.899c-1.616,0.242-3.25,0.496-4.901,0.762l-1.433,3.779l5.822,0.238l-1.05,5.778l5.752-0.678
			l-0.301,5.828l5.738-1.307l0.492,5.911l5.495-1.952l1.486,6.054l5.979-2.146l2.28,5.962l5.826-2.682l2.878,5.76l5.641-3.155
			l3.409,5.52l5.431-3.576l3.865,5.249l5.198-3.967l4.277,4.959l4.939-4.318l4.629,4.645l4.655-4.645l4.939,4.318l4.276-4.959
			l5.198,3.967l3.868-5.249l5.43,3.576l3.404-5.52l5.643,3.155l2.88-5.76l5.825,2.682l2.279-5.962l5.981,2.146l1.485-6.054
			l5.495,1.952l0.49-5.911l5.743,1.307l-0.302-5.828l5.752,0.678l-1.05-5.778l5.824-0.238L219.231,143.566z"/>
	</g>
</g>
<g>
	<path class="st18" d="M97.39,71.948l12.794-0.885c1.394-0.095,2.54,0.039,3.438,0.403c0.898,0.364,1.371,0.89,1.418,1.576
		c0.069,0.993-1.178,1.729-3.739,2.209c3.029,0.173,4.586,0.869,4.669,2.084c0.099,1.42-1.638,2.255-5.211,2.501l-12.763,0.883
		l3.08-2.239l-0.323-4.697L97.39,71.948z M105.382,74.869l3.669-0.254c0.985-0.067,1.458-0.403,1.417-1.008
		c-0.046-0.659-0.572-0.953-1.58-0.883l-3.635,0.249L105.382,74.869z M105.641,78.623l3.616-0.251
		c1.207-0.084,1.788-0.447,1.744-1.092c-0.049-0.705-0.525-1.027-1.427-0.964l-4.072,0.282L105.641,78.623z"/>
	<path class="st18" d="M134.391,70.099l0.113,3.796l-3.358-2.247l-6.208,0.187l0.058,1.913l3.41-0.102l2.393-1.095l0.121,3.959
		l-2.46-1.118l-3.412,0.102l0.058,1.933l6.208-0.187l3.471-2.621l0.129,4.261l-17.517,0.527l3.165-2.139l-0.141-4.703l-3.289-1.946
		L134.391,70.099z"/>
	<path class="st18" d="M145.225,70.103l5.448,4.788l0.02-2.698l-3.225-2.074l9.012,0.061l-3.243,2.03l-0.044,6.738l-4.545-0.031
		l-5.512-5.032l-0.02,2.941l3.223,2.074l-9.011-0.061l3.242-2.032l0.032-4.685l-3.214-2.072L145.225,70.103z"/>
	<path class="st18" d="M180.17,71.312l-0.208,3.792l-3.161-2.523l-6.208-0.339l-0.101,1.915l3.408,0.187l2.481-0.89l-0.216,3.965
		l-2.361-1.346l-3.408-0.186l-0.107,1.968l6.207,0.341l3.685-2.353l-0.234,4.274l-17.512-0.958l3.335-1.851l0.257-4.718l-3.11-2.22
		L180.17,71.312z"/>
	<path class="st18" d="M184.94,78.18c0.499,0.043,0.936,0.207,1.307,0.493c0.367,0.285,0.54,0.587,0.514,0.91
		c-0.026,0.327-0.246,0.6-0.659,0.82c-0.412,0.22-0.867,0.311-1.366,0.269c-0.505-0.043-0.942-0.205-1.31-0.487
		c-0.367-0.284-0.538-0.591-0.511-0.92c0.026-0.327,0.243-0.597,0.655-0.817C183.979,78.227,184.436,78.14,184.94,78.18z"/>
	<path class="st18" d="M140.532,135.838l0.05,3.386c-1.135-1.428-2.827-2.125-5.073-2.091c-2.25,0.035-3.364,0.896-3.338,2.579
		c0.012,0.845,0.324,1.452,0.939,1.817c0.613,0.367,1.6,0.542,2.962,0.52c1.282-0.018,2.347-0.242,3.194-0.672
		c0.849-0.427,1.247-0.941,1.196-1.542c0-0.023-0.008-0.057-0.02-0.099c0.373,0.202,0.566,0.495,0.571,0.874
		c0.014,0.875-0.511,1.589-1.573,2.142c-1.06,0.556-2.462,0.845-4.205,0.871c-2.006,0.031-3.737-0.314-5.197-1.036
		c-1.459-0.722-2.197-1.597-2.214-2.626c-0.017-1.046,0.699-1.994,2.146-2.843c1.446-0.847,3.093-1.287,4.943-1.314
		c1.599-0.026,3.021,0.257,4.267,0.844L140.532,135.838z"/>
	<path class="st18" d="M149.841,135.792c1.824,0.023,3.402,0.447,4.738,1.273c1.332,0.826,1.992,1.785,1.977,2.879
		c-0.012,1.016-0.699,1.886-2.062,2.606c-1.365,0.72-2.977,1.069-4.84,1.044c-1.83-0.022-3.428-0.416-4.804-1.181
		c-1.374-0.765-2.056-1.638-2.042-2.623c0.012-1.116,0.711-2.066,2.097-2.852C146.287,136.15,147.933,135.77,149.841,135.792z
		 M149.717,137.037c-0.75-0.01-1.365,0.226-1.845,0.704c-0.48,0.483-0.725,1.108-0.734,1.878c-0.009,0.765,0.217,1.383,0.673,1.849
		c0.462,0.467,1.074,0.705,1.84,0.715c0.773,0.01,1.391-0.213,1.862-0.667c0.468-0.455,0.707-1.065,0.716-1.835
		c0.009-0.766-0.22-1.396-0.691-1.889C151.071,137.296,150.46,137.045,149.717,137.037z"/>
	<path class="st18" d="M159.887,141.532c0.413,0.014,0.779,0.128,1.095,0.346c0.315,0.219,0.468,0.46,0.462,0.724
		c-0.008,0.268-0.177,0.5-0.508,0.698c-0.327,0.197-0.699,0.291-1.114,0.279c-0.416-0.016-0.78-0.129-1.095-0.347
		c-0.315-0.216-0.468-0.459-0.46-0.73c0.008-0.268,0.177-0.5,0.503-0.695C159.099,141.61,159.471,141.518,159.887,141.532z"/>
	<path class="st18" d="M152.247,129.872l-10.476-0.053l-8.898,0.133l-0.555,0.02v1.534l2.039-0.067l8.897-0.135l10.476,0.053v-1.576
		c-0.493-0.25-0.988-0.486-1.484-0.724V129.872z"/>
	<path class="st18" d="M177.44,130.918l-8.509-0.49l-3.727-0.164l0.021,1.42l5.189,0.23l8.509,0.49l8.994,0.678v-1.587
		c-0.488-0.238-0.987-0.463-1.484-0.685v0.789L177.44,130.918z"/>
	<path class="st18" d="M193.722,100.973l2.933,0.298V89.856c-0.311-0.228-0.583-0.677-1.02-0.665l-0.464-0.043v10.638l-2.221-0.226
		L193.722,100.973z"/>
	<polygon class="st18" points="118.516,114.328 119.34,115.849 120.944,115.758 120.944,100.675 119.46,100.747 119.46,114.273 	"/>
	<path class="st18" d="M125.548,99.096l3.072-0.106V87.547l-0.528-0.516c-0.315,0.018-0.636,0.028-0.958,0.043v10.431l-2.465,0.088
		L125.548,99.096z"/>
	<path class="st18" d="M194.328,142.914c0,0-0.701,0.467-2.166,1.181c-4.172,5.22-17.576,18.721-44.69,18.721
		c-28.787,0-47.965-13.077-59.177-24.039c10.966,11.227,30.562,25.523,60.659,25.523c33.607,0,46.166-20.751,46.166-20.751
		C195.572,142.893,194.795,142.517,194.328,142.914z"/>
	<path class="st18" d="M66.368,135.719l0.006,0.581l-9.338,1.588l-9.904,1.918l-0.044,0.009c-0.121,0.086-0.243,0.173-0.361,0.263
		v1.591l1.891-0.379l9.903-1.92l9.337-1.586l-0.014-1.602C67.355,136.013,66.861,135.868,66.368,135.719z"/>
	<path class="st18" d="M243.927,96.764v0.429c-1.307,0.404-2.693,0.592-3.886,1.22c-1.239,0.994-0.886,2.69-0.994,4.173l0.015,30.1
		c0.043,0.887,0.147,1.746,0.538,2.478c-0.242-0.174-0.482-0.349-0.719-0.538c-1.062-0.87-1.239-2.118-1.303-3.425l-0.015-30.099
		c0.107-1.484-0.245-3.181,0.993-4.173c1.198-0.626,2.581-0.816,3.886-1.22v-1.608l-2.774-0.569l-10.011-1.902l-8.345-1.414
		l0.012,1.59l2.774,1.785c1.452,0.756,2.103,2.252,2.077,3.813l0.012,12.5c-2.356-1.388-6.381-3.376-11.406-4.466v-6.614l0.096-1.6
		c0.064-0.885,0.638-1.797,1.521-2.081l3.289-1.101l-0.014-1.593L218.2,92.23l0.003,0.327l-3.289,1.103
		c-0.884,0.281-1.453,1.193-1.521,2.079l-0.096,1.6v7.815c-0.49-0.086-0.976-0.177-1.484-0.244v-9.056l0.095-1.599
		c0.067-0.885,0.638-1.797,1.521-2.081l3.292-1.102l-0.017-1.592l-4.755-0.703l-8.656-1.156l-7.854-0.895v1.576
		c1.25,0.732,2.515,1.396,3.695,2.252c0.994,0.763,1.144,1.941,1.225,3.127l0.005,11.519c-6.797,1.187-10.534,4.128-13.187,7.463
		c-0.282,0.349-0.086,0.73,0.373,0.404c0.912-0.655,5.117-3.819,12.814-4.082l0.003,1.596c-2.596,0.226-4.767,0.762-6.477,1.392
		c-1.493,1.104-2.705,2.347-3.744,3.656c-0.283,0.35-0.086,0.734,0.372,0.407c0.789-0.565,4.033-2.995,9.849-3.818l0.006,11.711
		c-0.055,1.479,0.164,3.082-0.909,4.144c-1.227,0.828-2.693,1.088-4.025,1.642l0.029,1.606l2.255,0.242l8.693,1.061l10.305,1.452
		c0-0.526,0.023-1.083-0.031-1.601l-1.681-1.05c-0.176-0.555-0.256-1.149-0.228-1.756v-16.129c3.427,1,7.235,2.552,11.413,4.808
		l0.008,9.316c-0.105,1.646,0.288,3.699-1.466,4.458l-3.424,1.091v1.601l2.786,0.451l9.36,1.667l8.985,1.769v-1.563
		c-0.526-0.389-1.069-0.753-1.616-1.12c-0.179-0.577-0.249-1.203-0.282-1.85l-0.014-30.1c0.11-1.482-0.245-3.18,0.993-4.173
		c1.195-0.626,2.581-0.815,3.884-1.219V97.07L243.927,96.764z M213.297,112.058v16.128c-0.041,0.908,0.142,1.789,0.557,2.532
		c-1.467-0.788-2.119-2.368-2.041-4.016v-16.128c4.224,1.232,9.014,3.283,14.38,6.483v0.626
		C221.423,114.974,217.126,113.175,213.297,112.058z"/>
	<path class="st18" d="M218.2,134.535c0.008,0.344,0.003,0.693,0.003,1.028l-10.302-1.451l-8.696-1.062l-0.792-0.084l0.023,1.326
		l2.253,0.243l8.696,1.059l10.302,1.453c0-0.526,0.026-1.083-0.029-1.601L218.2,134.535z"/>
	<path class="st18" d="M243.927,140.186l-8.988-1.768l-9.358-1.668l-1.302-0.211v1.245l2.789,0.45l9.357,1.668l8.983,1.768v-1.561
		c-0.48-0.359-0.982-0.697-1.481-1.033V140.186z"/>
	<path class="st18" d="M192.151,140.58c0.453-0.655-0.327-1.032-0.791-0.636c0,0-13.066,8.736-45.373,8.736
		c-19.172,0-35.186-7.495-46.642-15.156l2.685-0.265l9.635-0.762l9.482-0.57l8.414-0.342l0.542-0.557l-0.003-2.518l1.288-0.043
		l8.899-0.132l10.476,0.053v-1.577c-0.621-0.314-1.245-0.606-1.863-0.906c-0.067-0.383-0.098-0.775-0.113-1.167l-0.015-29.406
		c0.11-1.941-0.379-4.241,1.484-5.337l3.225-1.515v7.35c0.993,0,1.943,0.051,2.934,0.051l3.127-5.35l0.841-1.29
		c0.829-1.169,2.12-1.376,3.453-1.427c1.085,0.024,2.227-0.08,3.207,0.211c0.551,0.239,0.742,0.806,0.796,1.345
		c-0.808-0.106-1.681-0.054-2.52-0.072c-1.331,0.051-2.622,0.257-3.451,1.428l-0.841,1.288l-3.13,5.351
		c-0.486,0-0.967-0.012-1.444-0.027v1.461c0.991,0,1.94,0.05,2.931,0.05l3.127-5.351l0.841-1.29c0.829-1.169,2.12-1.376,3.454-1.426
		c0.343,0.007,0.692,0.001,1.039,0l0.014,30.021c-0.122,1.833,0.327,4.153-1.672,4.973l-3.955,1.333l0.028,1.603l5.189,0.229
		l8.509,0.491l8.994,0.676v-1.586c-0.822-0.398-1.663-0.765-2.494-1.15c-0.073-0.414-0.109-0.841-0.135-1.264l-0.017-31.065
		c0.043-0.919-0.095-1.901,0.177-2.715c0.194-0.408,0.613-0.6,1.049-0.6c1.114,0.04,2.186,0.15,3.231,0.34
		c0.291,0.037,0.577,0.112,0.858,0.21l3.133,5.722l2.931,0.297V86.888c-0.309-0.228-0.581-0.679-1.017-0.667l-8.709-0.799
		l-9.851-0.722l-9.867-0.517l-10.03-0.325l-0.731,0.515v2.384l-0.768-0.011l-0.468-0.002l0.003,0.137l-3.476,1.632
		c-1.863,1.098-1.372,3.394-1.484,5.338l0.014,29.403c0.031,0.684,0.09,1.381,0.329,1.992c-0.165-0.086-0.334-0.164-0.494-0.257
		c-1.143-0.716-1.265-1.995-1.317-3.219l-0.015-29.405c0.11-1.943-0.381-4.241,1.484-5.338l3.476-1.632l-0.028-1.604l-0.991-0.015
		l-10.108-0.04l-0.721,0.026l-9.566,0.168v1.586c1.21,0.585,2.458,1.034,3.641,1.699c1.033,0.639,1.222,1.781,1.277,2.909
		l0.027,31.031c-0.057,1.324,0.026,2.679-0.95,3.619c-1.01,0.775-2.142,1.249-3.246,1.785l-0.009-8.641l-1.482,0.064l0.012,11.566
		l-0.543,0.555l-8.414,0.34l-9.483,0.574l-9.633,0.759l-3.275,0.324c-0.684-0.481-1.343-0.958-1.989-1.436l3.78-0.373l9.633-0.76
		l9.485-0.57l8.413-0.342l0.542-0.557l-0.012-13.111l-2.937,0.122l-4.389,6.82l-0.924,1.264c-1.493,1.942-3.695,2.364-5.953,2.526
		c-1.218,0.037-2.524,0.138-3.721-0.031c-0.006-0.064-0.018-0.129-0.02-0.192v-13.126c0.025-0.449,0.054-0.899,0.295-1.253
		c0.245-0.282,0.586-0.367,0.912-0.432c1.531-0.135,3.063-0.263,4.614-0.297l1.374,2.53l1.6-0.092V97.706l-1.6,0.079l-2.31,4.661
		c-0.355,0.682-1.034,1.253-1.821,1.291l-3.067,0.204l-0.012-9.191c0-0.708,0.028-1.398,0.297-1.987
		c0.424-0.759,1.241-0.962,1.987-1.126c2.16-0.298,4.403-0.503,6.684-0.395c0.636,0.015,1.247,0.153,1.816,0.382l2.634,4.505
		l3.07-0.107V84.578l-0.531-0.517c-0.419,0.029-0.855,0.042-1.274,0.055l-9.173,0.433l-8.833,0.6l-8.872,0.747l-7.176,0.738
		l0.014,1.57c1.183,0.464,2.403,0.844,3.56,1.374c1.183,0.597,1.291,1.921,1.346,3.116l0.026,29.336
		c-0.093,2.036,0.355,4.372-1.522,5.598l-1.078,0.632c-4.196-3.327-7.398-6.343-9.456-8.359c-4.357-4.268-8.582-6.735-11.413-8.074
		c0.015-0.024,0.038-0.056,0.052-0.077l7.949-10.081l3.915-4.702c1.917-2.26,4.306-3.645,6.534-5.246v-1.593h-0.067l-1.539,0.194
		c-2.192,1.567-4.531,2.943-6.413,5.161l-3.912,4.7l-7.951,10.084c-0.129,0.178-0.327,0.453-0.496,0.727
		c-0.979-0.384-1.559-0.545-1.559-0.545c-0.649,0,0.219-1.18,0.571-1.667l7.952-10.083l3.91-4.701
		c1.915-2.258,4.308-3.643,6.535-5.246V87.16h-0.067l-8.411,1.062l-6.82,0.979l0.027,1.59l2.634,1.219
		c0.393,0.217,1.086,0.478,1.06,1.064c-0.6,1.262-1.397,2.458-2.189,3.667l-3.681,5.408l-3.898,5.395
		c-0.395,0.529-0.844,1.088-1.388,1.468l-1.03,0.486l-0.009-9.041c0.052-1.344,0.298-2.665,1.493-3.49l3.382-2.191v-1.591
		l-1.752,0.281l-3.115,2.016c-1.196,0.826-1.441,2.146-1.493,3.49l0.009,11.225l-0.681,0.322l-0.476,0.052
		c-0.217-0.052-0.285-0.282-0.326-0.489l-0.012-12.596c0.053-1.343,0.298-2.663,1.493-3.489l3.384-2.191v-1.59l-2.907,0.464
		l-9.623,1.712l-8.601,1.709v1.608c1.236,0.351,2.513,0.621,3.696,1.113c1.046,0.582,1.086,1.751,1.155,2.825v31.308
		c-0.027,1.128-0.109,2.229-0.762,3.098c-1.21,1.334-2.741,2.024-4.089,3.057v1.592l1.889-0.378l9.904-1.92l9.337-1.589
		l-0.017-1.601c-0.609-0.213-1.233-0.39-1.851-0.577c-0.012-0.147-0.029-0.292-0.04-0.438v-13.202l0.162-0.667
		c0.381-0.625,1.083-0.789,1.71-0.988c1.528-0.499,4.134-0.149,7.672,2.885c0.797,0.906,1.628,1.922,2.495,3.092
		c3.971,5.353,25.476,38.013,70.966,38.013C179.597,161.332,192.151,140.58,192.151,140.58z M179.515,89.36
		c0.193-0.407,0.612-0.6,1.046-0.6c1.117,0.041,2.189,0.152,3.234,0.341c1.291,0.167,2.498,0.948,3.206,2.11
		c-0.531-0.323-1.117-0.545-1.724-0.625c-1.045-0.189-2.116-0.299-3.231-0.34c-0.433,0-0.855,0.191-1.048,0.6
		c-0.272,0.814-0.135,1.794-0.176,2.717l0.014,31.064c0.046,0.732,0.104,1.481,0.367,2.133c-0.168-0.089-0.34-0.171-0.508-0.265
		c-1.169-0.771-1.264-2.091-1.343-3.354l-0.015-31.064C179.38,91.156,179.244,90.174,179.515,89.36z M112.458,107.365
		c0.655,0,1.199,0.527,1.496,1.064l0.257,0.473c-0.087-0.02-0.174-0.051-0.269-0.051c-1.695,0.012-3.366,0.165-5.038,0.313
		c-0.329,0.067-0.669,0.148-0.913,0.434c-0.242,0.355-0.269,0.802-0.297,1.25v13.127c0.031,0.464,0.095,0.932,0.24,1.36
		c-0.161-0.061-0.323-0.126-0.476-0.208c-0.976-0.555-1.18-1.616-1.248-2.635v-13.126c0.026-0.451,0.054-0.899,0.297-1.253
		c0.245-0.283,0.584-0.368,0.912-0.432C109.089,107.531,110.761,107.378,112.458,107.365z M106.494,89.795
		c0.422-0.759,1.238-0.962,1.984-1.127c2.16-0.297,4.404-0.502,6.684-0.395c1.687,0.039,3.22,0.857,4.155,2.304
		c-0.783-0.509-1.698-0.796-2.671-0.82c-2.279-0.107-4.522,0.098-6.684,0.395c-0.747,0.162-1.562,0.369-1.984,1.128
		c-0.272,0.587-0.298,1.277-0.298,1.984l0.014,10.772c-0.401-0.025-0.826,0.037-1.117-0.245c-0.298-0.286-0.314-0.682-0.367-1.07
		l-0.015-10.941C106.194,91.073,106.222,90.382,106.494,89.795z M63.37,115.859c-0.627,0.201-1.331,0.361-1.712,0.991l-0.161,0.665
		v13.202c0.038,0.496,0.077,1.006,0.21,1.469c-0.165-0.064-0.337-0.123-0.5-0.196c-1.048-0.572-1.114-1.7-1.195-2.758v-13.202
		l0.161-0.666c0.382-0.627,1.086-0.786,1.713-0.991c1.836-0.595,5.223,0.031,9.916,5.055
		C67.874,115.77,65.005,115.325,63.37,115.859z"/>
	<g>
		<path class="st18" d="M243.143,104.59c0-1.389,1.127-2.414,2.459-2.414c1.319,0,2.445,1.025,2.445,2.414
			c0,1.402-1.127,2.426-2.445,2.426C244.27,107.016,243.143,105.992,243.143,104.59z M245.602,106.613
			c1.095,0,1.959-0.858,1.959-2.023c0-1.146-0.864-2.01-1.959-2.01c-1.108,0-1.972,0.864-1.972,2.01
			C243.63,105.755,244.494,106.613,245.602,106.613z M245.09,105.992h-0.423v-2.791h1.063c0.659,0,0.986,0.243,0.986,0.793
			c0,0.499-0.314,0.718-0.724,0.769l0.794,1.229h-0.473l-0.737-1.21h-0.486V105.992z M245.595,104.423
			c0.359,0,0.678-0.025,0.678-0.454c0-0.346-0.314-0.41-0.608-0.41h-0.576v0.864H245.595z"/>
	</g>
</g>
</svg>
