<svg xmlns="http://www.w3.org/2000/svg" viewBox="0 0 344.39 90.44"><defs><style>.cls-1{fill:#0079c1;}.cls-2{fill:#00b259;}.cls-3{fill:#fff;}.cls-4{fill:none;}</style></defs><g id="Layer_2" data-name="Layer 2"><g id="Layer_1-2" data-name="Layer 1"><polygon class="cls-1" points="150.25 1.82 150.25 69.93 171.05 69.93 171.05 87.03 116.52 87.03 116.52 1.82 150.25 1.82"/><polygon class="cls-1" points="251.48 1.82 251.48 87.03 221.67 87.03 204.11 48.29 204.11 87.03 175.92 87.03 175.92 1.82 204.34 1.82 223.29 40.19 223.29 1.82 251.48 1.82"/><path class="cls-1" d="M334.5,33.15H300.76V25.4q0-7.33-1-9.18T295,14.38c-2.17,0-3.64.53-4.41,1.58s-1.17,3.77-1.17,8.13v41q0,5.76,1.15,7.57c.76,1.22,2.3,1.82,4.61,1.82q3.78,0,5.13-2c.9-1.37,1.36-4,1.36-8V54.34h-6.93v-13H334.5V87H313.25l-3.13-6.11a21.48,21.48,0,0,1-8.76,5.93,35.31,35.31,0,0,1-12.47,2,46.56,46.56,0,0,1-16-2.71q-7.47-2.72-11.34-6.72a17.56,17.56,0,0,1-4.85-8.4,66.85,66.85,0,0,1-1-13.19V32.5q0-12.22,2-17.75T269.28,4.61Q278.82,0,294,0q14.89,0,24.73,4t12.81,9.5q3,5.49,3,16Z"/><polygon class="cls-2" points="279.76 60.24 0 60.24 17.72 26.56 297.48 26.56 279.76 60.24"/><polygon class="cls-3" points="18.62 56.55 11.43 56.55 26.66 29.31 51.15 29.31 48.45 34.13 31.16 34.13 27.72 40.27 42.86 40.27 40.17 45.09 25.02 45.09 18.62 56.55"/><path class="cls-3" d="M65.31,41.3c3.74,0,6.13-1,7.64-3.72.8-1.44,1.18-3.57-3-3.57H61L56.88,41.3Zm-8.77-12H73.93c9.15,0,7.84,5.35,6.52,7.7a14.07,14.07,0,0,1-8.94,6.49c2.27,1,3.34,1.82.49,6.9-2.22,4-2.77,5-1.5,5.43l-.4.72H62.15a17.66,17.66,0,0,1,2.31-5.5c2.08-3.72,2.59-5.16-2.72-5.16H54.31l-6,10.66H41.3Z"/><polygon class="cls-3" points="114.48 34.13 96.22 34.13 93.02 39.86 109.79 39.86 107.09 44.67 90.33 44.67 86.38 51.73 105.45 51.73 102.75 56.55 76.64 56.55 91.88 29.31 117.17 29.31 114.48 34.13"/><polygon class="cls-3" points="146.97 34.13 128.71 34.13 125.51 39.86 142.28 39.86 139.58 44.67 122.81 44.67 118.86 51.73 137.94 51.73 135.24 56.55 109.13 56.55 124.36 29.31 149.66 29.31 146.97 34.13"/><path class="cls-3" d="M164.38,42c5.37,0,7.06-3,7.74-4.25,1.49-2.66.23-3.76-4.22-3.76h-5.7l-4.48,8ZM149.59,56.55H142.4l15.24-27.24h15.71c6.67,0,8.8,3.38,5.81,8.72a18.48,18.48,0,0,1-15.83,8.69h-8.24Z"/><path class="cls-3" d="M192.25,52.45c3.79,0,10.18-1.9,14.39-9.52s-.06-9.52-3.86-9.52-10.17,1.89-14.39,9.52.07,9.52,3.86,9.52m13.2-23.86c4.44,0,15.29,1.55,8.22,14.34a27.69,27.69,0,0,1-24.09,14.34c-4.44,0-15.28-1.56-8.21-14.34a27.64,27.64,0,0,1,24.08-14.34"/><path class="cls-3" d="M236.32,41.3c3.74,0,6.13-1,7.64-3.72.8-1.44,1.18-3.57-3-3.57h-9l-4.08,7.29Zm-8.77-12h17.39c9.15,0,7.84,5.35,6.52,7.7a14.07,14.07,0,0,1-9,6.49c2.28,1,3.35,1.82.5,6.9-2.23,4-2.78,5-1.5,5.43l-.4.72h-8a17.55,17.55,0,0,1,2.3-5.5c2.08-3.72,2.6-5.16-2.71-5.16h-7.43l-6,10.66h-7Z"/><polygon class="cls-3" points="261.52 56.55 254.52 56.55 266.9 34.13 256.78 34.13 259.44 29.31 286.69 29.31 284.03 34.13 273.9 34.13 261.52 56.55"/><rect class="cls-4" width="334.5" height="90.44"/><path class="cls-1" d="M338.69.46A5.51,5.51,0,0,1,344.39,6,5.71,5.71,0,0,1,333,6,5.51,5.51,0,0,1,338.69.46Zm0,9.92A4.21,4.21,0,0,0,342.87,6a4.19,4.19,0,1,0-8.37,0A4.2,4.2,0,0,0,338.69,10.38Zm-2.22-7.5h2.35c1.56,0,2.44.49,2.44,1.84a1.56,1.56,0,0,1-1.64,1.67l1.66,2.71H340l-1.51-2.65h-.77V9.1h-1.24Zm1.24,2.6h1.1c.69,0,1.21-.1,1.21-.86s-.71-.77-1.27-.77h-1Z"/></g></g></svg>