<?xml version="1.0" encoding="UTF-8" standalone="no"?>
<!DOCTYPE svg PUBLIC "-//W3C//DTD SVG 1.1//EN" "http://www.w3.org/Graphics/SVG/1.1/DTD/svg11.dtd">
<svg width="100%" height="100%" viewBox="0 0 2475 442" version="1.1" xmlns="http://www.w3.org/2000/svg" xmlns:xlink="http://www.w3.org/1999/xlink" xml:space="preserve" xmlns:serif="http://www.serif.com/" style="fill-rule:evenodd;clip-rule:evenodd;stroke-linejoin:round;stroke-miterlimit:2;">
    <g transform="matrix(4.16667,0,0,4.16667,0,0)">
        <path d="M243.784,103.679L224.701,103.679L224.701,67.528C224.701,57.112 216.227,48.638 205.811,48.638C195.395,48.638 186.921,57.112 186.921,67.528L186.921,103.679L167.838,103.679L167.838,67.528C167.838,46.589 184.872,29.555 205.811,29.555C226.749,29.555 243.784,46.589 243.784,67.528L243.784,103.679Z" style="fill:rgb(241,90,34);fill-rule:nonzero;"/>
        <path d="M225.201,103.179L243.284,103.179L243.284,67.528C243.284,46.865 226.473,30.055 205.811,30.055C185.148,30.055 168.338,46.865 168.338,67.528L168.338,103.179L186.421,103.179L186.421,67.528C186.421,56.836 195.119,48.138 205.811,48.138C216.502,48.138 225.201,56.836 225.201,67.528L225.201,103.179ZM244.284,104.179L224.201,104.179L224.201,67.528C224.201,57.388 215.951,49.138 205.811,49.138C195.67,49.138 187.421,57.388 187.421,67.528L187.421,104.179L167.338,104.179L167.338,67.528C167.338,46.314 184.596,29.055 205.811,29.055C227.025,29.055 244.284,46.314 244.284,67.528L244.284,104.179Z" style="fill:rgb(241,90,34);fill-rule:nonzero;"/>
        <path d="M123.676,48.638C113.26,48.638 104.786,57.112 104.786,67.528C104.786,77.944 113.26,86.418 123.676,86.418C134.092,86.418 142.566,77.944 142.566,67.528C142.566,57.112 134.092,48.638 123.676,48.638ZM123.676,105.5C102.738,105.5 85.702,88.466 85.702,67.528C85.702,46.589 102.738,29.555 123.676,29.555C144.614,29.555 161.648,46.589 161.648,67.528C161.648,88.466 144.614,105.5 123.676,105.5Z" style="fill:rgb(241,90,34);fill-rule:nonzero;"/>
        <path d="M123.676,49.138C113.535,49.138 105.286,57.388 105.286,67.528C105.286,77.668 113.535,85.918 123.676,85.918C133.816,85.918 142.066,77.668 142.066,67.528C142.066,57.388 133.816,49.138 123.676,49.138ZM123.676,86.918C112.984,86.918 104.286,78.22 104.286,67.528C104.286,56.836 112.984,48.138 123.676,48.138C134.367,48.138 143.066,56.836 143.066,67.528C143.066,78.22 134.367,86.918 123.676,86.918ZM123.676,30.055C103.013,30.055 86.202,46.865 86.202,67.528C86.202,88.19 103.013,105 123.676,105C144.338,105 161.148,88.19 161.148,67.528C161.148,46.865 144.338,30.055 123.676,30.055ZM123.676,106C102.462,106 85.202,88.742 85.202,67.528C85.202,46.314 102.462,29.055 123.676,29.055C144.889,29.055 162.148,46.314 162.148,67.528C162.148,88.742 144.889,106 123.676,106Z" style="fill:rgb(241,90,34);fill-rule:nonzero;"/>
        <path d="M65.776,103.679L46.693,103.679L46.693,67.528C46.693,46.589 63.728,29.555 84.666,29.555L84.666,48.638C74.25,48.638 65.776,57.112 65.776,67.528L65.776,103.679Z" style="fill:rgb(241,90,34);fill-rule:nonzero;"/>
        <path d="M47.193,103.179L65.276,103.179L65.276,67.528C65.276,57.004 73.705,48.41 84.166,48.145L84.166,30.058C63.732,30.326 47.193,47.032 47.193,67.528L47.193,103.179ZM66.276,104.179L46.193,104.179L46.193,67.528C46.193,46.314 63.452,29.055 84.666,29.055L85.166,29.055L85.166,49.138L84.666,49.138C74.526,49.138 66.276,57.388 66.276,67.528L66.276,104.179Z" style="fill:rgb(241,90,34);fill-rule:nonzero;"/>
        <path d="M38.473,20.293L42.289,20.293L42.289,1.21L38.473,1.21C17.535,1.21 0.5,18.244 0.5,39.183L0.5,103.679L19.583,103.679L19.583,77.011C19.583,66.595 28.057,58.121 38.473,58.121L42.289,58.121L42.289,39.038L38.473,39.038C31.598,39.038 25.151,40.884 19.583,44.091L19.583,39.183C19.583,28.767 28.057,20.293 38.473,20.293Z" style="fill:rgb(241,90,34);fill-rule:nonzero;"/>
        <path d="M1,103.179L19.083,103.179L19.083,77.011C19.083,66.32 27.781,57.621 38.473,57.621L41.789,57.621L41.789,39.538L38.473,39.538C31.941,39.538 25.496,41.263 19.832,44.525L19.083,44.956L19.083,39.183C19.083,28.492 27.781,19.793 38.473,19.793L41.789,19.793L41.789,1.71L38.473,1.71C17.81,1.71 1,18.521 1,39.183L1,103.179ZM20.083,104.179L0,104.179L0,39.183C0,17.969 17.258,0.71 38.473,0.71L42.789,0.71L42.789,20.793L38.473,20.793C28.332,20.793 20.083,29.043 20.083,39.183L20.083,43.238C25.714,40.161 32.053,38.538 38.473,38.538L42.789,38.538L42.789,58.621L38.473,58.621C28.332,58.621 20.083,66.871 20.083,77.011L20.083,104.179Z" style="fill:rgb(241,90,34);fill-rule:nonzero;"/>
        <path d="M269.057,67.528L269.057,50.084L285.621,50.084L285.621,31.001L269.057,31.001L269.057,11.687L249.974,11.687L249.974,69.456C250.982,89.502 267.74,105.5 288.031,105.5L288.031,86.419C277.615,86.419 269.057,77.944 269.057,67.528Z" style="fill:rgb(241,90,34);fill-rule:nonzero;"/>
        <path d="M250.474,12.187L250.474,69.456C251.468,89.211 267.699,104.741 287.531,104.997L287.531,86.912C277.023,86.647 268.557,78.054 268.557,67.528L268.557,49.584L285.121,49.584L285.121,31.501L268.557,31.501L268.557,12.187L250.474,12.187ZM288.531,106L288.031,106C267.44,106 250.504,89.959 249.474,69.481L249.474,11.187L269.557,11.187L269.557,30.501L286.121,30.501L286.121,50.584L269.557,50.584L269.557,67.528C269.557,77.669 277.844,85.919 288.031,85.919L288.531,85.919L288.531,106Z" style="fill:rgb(241,90,34);fill-rule:nonzero;"/>
        <path d="M219.294,79.023C219.294,82.372 216.58,85.086 213.231,85.086C209.881,85.086 207.167,82.372 207.167,79.023C207.167,75.674 209.881,72.96 213.231,72.96C216.58,72.96 219.294,75.674 219.294,79.023Z" style="fill:rgb(149,137,132);fill-rule:nonzero;"/>
        <path d="M557.611,103.679L538.528,103.679L538.528,67.528C538.528,46.589 555.562,29.555 576.501,29.555L576.501,48.638C566.085,48.638 557.611,57.112 557.611,67.528L557.611,103.679Z" style="fill:rgb(149,137,132);fill-rule:nonzero;"/>
        <path d="M331.589,86.418C321.173,86.418 312.698,77.943 312.698,67.527C312.698,57.111 321.173,48.638 331.589,48.638C341.907,48.638 350.31,56.959 350.464,67.242L350.464,67.813C350.31,78.097 341.907,86.418 331.589,86.418ZM369.547,11.687L350.464,11.687L350.464,34.6C344.9,31.396 338.456,29.555 331.589,29.555C310.651,29.555 293.615,46.589 293.615,67.527C293.615,88.466 310.651,105.5 331.589,105.5C351.881,105.5 368.538,89.501 369.547,69.455L369.547,11.687Z" style="fill:rgb(149,137,132);fill-rule:nonzero;"/>
        <path d="M413.709,48.638C403.293,48.638 394.818,57.112 394.818,67.528C394.818,77.944 403.293,86.418 413.709,86.418C424.124,86.418 432.599,77.944 432.599,67.528C432.599,57.112 424.124,48.638 413.709,48.638ZM413.709,105.5C392.771,105.5 375.735,88.466 375.735,67.528C375.735,46.589 392.771,29.555 413.709,29.555C434.646,29.555 451.682,46.589 451.682,67.528C451.682,88.466 434.646,105.5 413.709,105.5Z" style="fill:rgb(149,137,132);fill-rule:nonzero;"/>
        <path d="M494.365,48.638C483.949,48.638 475.475,57.112 475.475,67.528C475.475,77.944 483.949,86.418 494.365,86.418C504.781,86.418 513.255,77.944 513.255,67.528C513.255,57.112 504.781,48.638 494.365,48.638ZM494.365,105.5C473.428,105.5 456.393,88.466 456.393,67.528C456.393,46.589 473.428,29.555 494.365,29.555C515.302,29.555 532.339,46.589 532.339,67.528C532.339,88.466 515.302,105.5 494.365,105.5Z" style="fill:rgb(149,137,132);fill-rule:nonzero;"/>
        <path d="M587.532,96.898C588.403,96.898 588.896,96.443 588.896,95.799C588.896,95.079 588.403,94.7 587.532,94.7L585.903,94.7L585.903,96.898L587.532,96.898ZM584.615,93.563L587.646,93.563C589.124,93.563 590.222,94.283 590.222,95.686C590.222,96.783 589.578,97.465 588.668,97.73L590.45,100.27L588.896,100.27L587.305,97.959L585.903,97.959L585.903,100.27L584.615,100.27L584.615,93.563ZM593.026,97.048L593.026,97.012C593.026,93.791 590.525,91.138 587.191,91.138C583.895,91.138 581.356,93.828 581.356,97.048L581.356,97.087C581.356,100.307 583.857,102.96 587.191,102.96C590.487,102.96 593.026,100.27 593.026,97.048ZM580.598,97.087L580.598,97.048C580.598,93.449 583.516,90.419 587.191,90.419C590.904,90.419 593.783,93.411 593.783,97.012L593.783,97.048C593.783,100.649 590.867,103.679 587.191,103.679C583.479,103.679 580.598,100.686 580.598,97.087Z" style="fill:rgb(149,137,132);fill-rule:nonzero;"/>
    </g>
</svg>
