<?xml version="1.0" encoding="UTF-8"?>
<svg width="227px" height="42px" viewBox="0 0 227 42" version="1.1" xmlns="http://www.w3.org/2000/svg" xmlns:xlink="http://www.w3.org/1999/xlink">
    <g id="Typography" stroke="none" stroke-width="1" fill="none" fill-rule="evenodd">
        <g id="Typography/Headings" transform="translate(-644.000000, -183.000000)">
            <rect fill="#FFFFFF" x="0" y="0" width="1600" height="3158"></rect>
            <g id="Labels"></g>
        </g>
        <g id="Elements/Logo-3">
            <rect fill="#003057" x="0" y="0" width="227" height="42"></rect>
            <g id="frost-hz-logomark" fill="#FFFFFF">
                <path d="M65.9671533,33.9652174 L65.9671533,32.4130435 C67.8832117,32.3217391 68.7956204,31.8652174 68.7956204,30.4043478 L68.7956204,20.0869565 C68.7956204,18.2608696 68.5218978,17.8043478 65.9671533,17.8043478 L65.9671533,16.2521739 C68.1569343,16.0695652 70.2554745,15.6130435 71.4416058,14.8826087 L71.4416058,20.2695652 L71.5328467,20.2695652 C72.3540146,17.1652174 74.7262774,14.8826087 78.4671533,14.8826087 L77.919708,18.2608696 C75.729927,18.1695652 74.4525547,18.5347826 73.6313869,19.2652174 C72.3540146,20.5434783 71.8978102,22.7347826 71.8978102,27.7565217 C71.8978102,31.5913043 72.080292,32.4130435 75.2737226,32.3217391 L75.2737226,33.873913 L65.9671533,33.873913 L65.9671533,33.9652174 Z M112.682482,17.4391304 L112.682482,15.8869565 C114.963504,15.6130435 116.605839,14.1521739 116.879562,10.4086957 L118.70438,10.4086957 L118.70438,15.4304348 L121.989051,15.4304348 C123.083942,15.4304348 123.813869,15.2478261 124.452555,15.0652174 L123.722628,17.5304348 L118.613139,17.5304348 L118.613139,29.3086957 C118.613139,31.4086957 119.890511,31.8652174 123.175182,31.8652174 C123.813869,31.8652174 123.631387,31.8652174 124.270073,31.773913 L123.905109,33.9652174 C122.90146,34.2391304 122.080292,34.3304348 120.711679,34.3304348 C118.156934,34.3304348 115.510949,32.9608696 115.510949,30.4043478 L115.510949,17.6217391 L112.682482,17.6217391 L112.682482,17.4391304 Z M98.6313869,27.3 L100.456204,27.3 L100.456204,28.3043478 C100.456204,31.5913043 101.916058,32.4130435 104.927007,32.4130435 C107.390511,32.4130435 108.576642,31.3173913 108.576642,29.7652174 C108.576642,24.7434783 98.540146,26.2043478 98.540146,19.8130435 C98.540146,17.3478261 100.364964,15.2478261 104.653285,15.0652174 C106.660584,14.973913 109.124088,15.5217391 110.675182,15.2478261 L110.675182,20.3608696 L108.850365,20.9086957 C108.850365,17.3478261 107.116788,17.073913 105.20073,17.073913 C103.010949,16.9826087 101.368613,17.4391304 101.368613,19.173913 C101.368613,23.1913043 111.405109,22.2782609 111.405109,28.7608696 C111.405109,31.4086957 109.762774,34.2391304 105.20073,34.2391304 C102.463504,34.2391304 100.273723,33.7826087 98.6313869,33.873913 L98.6313869,27.3 Z M88.229927,31.8652174 C92.0620438,31.8652174 93.2481752,30.0391304 93.2481752,24.1956522 C93.2481752,18.8086957 91.6970803,17.3478261 86.9525547,17.3478261 C83.3029197,17.3478261 81.4781022,17.9869565 81.4781022,25.1086957 C81.3868613,29.5826087 83.2116788,31.8652174 88.229927,31.8652174 Z M48.540146,8.03478261 L67.0620438,8.03478261 L67.0620438,14.0608696 L65.2372263,14.6086957 C64.9635036,10.4086957 64.0510949,9.86086957 59.4890511,9.76956522 C56.6605839,9.67826087 55.2007299,10.3173913 55.2007299,13.2391304 L55.2007299,19.9043478 L58.6678832,19.9043478 C61.040146,19.9043478 61.4051095,18.3521739 61.4051095,16.4347826 L63.229927,16.4347826 L63.229927,25.1086957 L61.4051095,25.1086957 C61.4051095,22.3695652 60.7664234,21.9130435 58.7591241,21.9130435 L55.2007299,21.9130435 L55.2007299,26.5695652 C55.2007299,31.3173913 55.9306569,32.4130435 59.0328467,32.3217391 L59.0328467,33.873913 L48.540146,33.873913 L48.540146,32.3217391 C50.4562044,32.3217391 51.9160584,31.3173913 51.9160584,29.0347826 L51.9160584,13.6043478 C51.9160584,10.773913 51.3686131,9.58695652 48.540146,9.58695652 L48.540146,8.03478261 Z M87.8649635,14.8826087 C94.0693431,14.8826087 96.1678832,18.8086957 96.1678832,23.7391304 C96.1678832,30.0391304 92.9744526,34.4217391 86.4963504,34.4217391 C80.9306569,34.4217391 78.1934307,30.9521739 78.1934307,25.2913043 C78.2846715,18.4434783 81.8430657,14.8826087 87.8649635,14.8826087 Z" id="Shape"></path>
                <g id="Group">
                    <path d="M17.3357664,0.365217391 C17.9744526,0.0913043478 18.7956204,-1.31838984e-16 19.6167883,0.0913043478 C19.7992701,0.0913043478 19.9817518,0.182608696 20.1642336,0.182608696 C22.2627737,0.639130435 23.6313869,2.64782609 23.1751825,4.83913043 L21.5328467,13.1478261 L17.3357664,0.365217391 Z" id="Path"></path>
                    <path d="M9.48905109,3.83478261 C9.94525547,3.28695652 10.5839416,2.92173913 11.4051095,2.64782609 C11.5875912,2.55652174 11.770073,2.55652174 11.9525547,2.55652174 C14.0510949,2.1 16.149635,3.37826087 16.6058394,5.56956522 L18.4306569,13.7869565 L9.48905109,3.83478261 Z" id="Path"></path>
                    <path d="M3.64963504,10.226087 C3.83211679,9.58695652 4.28832117,8.94782609 4.9270073,8.4 C5.10948905,8.2173913 5.20072993,8.12608696 5.38321168,8.03478261 C7.11678832,6.75652174 9.58029197,7.12173913 10.8576642,8.85652174 L15.9671533,15.6130435 L3.64963504,10.226087 Z" id="Path"></path>
                    <path d="M0.912408759,18.3521739 C0.821167883,17.6217391 1.00364964,16.8913043 1.36861314,16.1608696 C1.45985401,15.9782609 1.55109489,15.8869565 1.64233577,15.7043478 C2.73722628,13.7869565 5.10948905,13.1478261 6.93430657,14.2434783 L14.3248175,18.3521739 L0.912408759,18.3521739 Z" id="Path"></path>
                    <path d="M1.73357664,26.9347826 C1.36861314,26.2956522 1.18613139,25.5652174 1.18613139,24.7434783 C1.18613139,24.5608696 1.18613139,24.3782609 1.18613139,24.1956522 C1.36861314,22.0043478 3.28467153,20.4521739 5.47445255,20.6347826 L13.8686131,21.4565217 L1.73357664,26.9347826 Z" id="Path"></path>
                    <path d="M6.02189781,34.5130435 C5.47445255,34.1478261 5.01824818,33.5086957 4.65328467,32.6869565 C4.5620438,32.5043478 4.5620438,32.3217391 4.47080292,32.1391304 C3.83211679,30.1304348 4.9270073,27.8478261 6.93430657,27.2086957 L14.9635036,24.4695652 L6.02189781,34.5130435 Z" id="Path"></path>
                    <path d="M12.9562044,39.626087 C12.3175182,39.4434783 11.5875912,39.0782609 10.9489051,38.5304348 C10.8576642,38.4391304 10.6751825,38.2565217 10.5839416,38.1652174 C9.12408759,36.6130435 9.21532847,34.0565217 10.8576642,32.5956522 L17.0620438,26.8434783 L12.9562044,39.626087 Z" id="Path"></path>
                    <path d="M21.4416058,41.4521739 C20.8029197,41.6347826 19.9817518,41.5434783 19.1605839,41.2695652 C18.9781022,41.1782609 18.7956204,41.1782609 18.7043796,41.0869565 C16.6970803,40.2652174 15.7846715,37.8913043 16.6970803,35.973913 L20.0729927,28.2130435 L21.4416058,41.4521739 Z" id="Path"></path>
                    <path d="M29.8357664,39.7173913 C29.2883212,40.0826087 28.5583942,40.3565217 27.6459854,40.4478261 C27.4635036,40.4478261 27.2810219,40.4478261 27.0985401,40.4478261 C24.9087591,40.4478261 23.1751825,38.7130435 23.1751825,36.5217391 L23.0839416,28.0304348 L29.8357664,39.7173913 Z" id="Path"></path>
                    <path d="M36.8613139,34.6956522 C36.4963504,35.3347826 35.9489051,35.8826087 35.2189781,36.2478261 C35.0364964,36.3391304 34.9452555,36.4304348 34.7627737,36.4304348 C32.7554745,37.3434783 30.4744526,36.4304348 29.5620438,34.5130435 L26.0036496,26.8434783 L36.8613139,34.6956522 Z" id="Path"></path>
                    <path d="M41.2408759,27.2086957 C41.149635,27.9391304 40.8759124,28.6695652 40.3284672,29.3086957 C40.2372263,29.4913043 40.1459854,29.5826087 39.9635036,29.673913 C38.5036496,31.3173913 36.040146,31.4086957 34.3978102,30.0391304 L28.0109489,24.4695652 L41.2408759,27.2086957 Z" id="Path"></path>
                    <path d="M42.2445255,18.626087 C42.4270073,19.2652174 42.5182482,20.0869565 42.2445255,20.9086957 C42.2445255,21.0913043 42.1532847,21.273913 42.0620438,21.3652174 C41.4233577,23.4652174 39.2335766,24.5608696 37.1350365,23.9217391 L29.0145985,21.3652174 L42.2445255,18.626087 Z" id="Path"></path>
                    <path d="M39.5985401,10.4086957 C40.0547445,10.9565217 40.419708,11.5956522 40.6021898,12.5086957 C40.6021898,12.6913043 40.6934307,12.873913 40.6934307,13.0565217 C40.9671533,15.2478261 39.4160584,17.1652174 37.2262774,17.3478261 L28.8321168,18.3521739 L39.5985401,10.4086957 Z" id="Path"></path>
                    <path d="M33.850365,4.0173913 C34.4890511,4.29130435 35.1277372,4.74782609 35.5839416,5.47826087 C35.6751825,5.66086957 35.7664234,5.75217391 35.8576642,5.93478261 C36.9525547,7.76086957 36.3138686,10.226087 34.4890511,11.3217391 L27.189781,15.6130435 L33.850365,4.0173913 Z" id="Path"></path>
                    <path d="M26.0036496,0.456521739 C26.7335766,0.456521739 27.4635036,0.639130435 28.1934307,1.09565217 C28.3759124,1.18695652 28.4671533,1.27826087 28.649635,1.36956522 C30.3832117,2.64782609 30.8394161,5.11304348 29.5620438,6.84782609 L24.6350365,13.7869565 L26.0036496,0.456521739 Z" id="Path"></path>
                </g>
            </g>
            <g id="frost-hz-logotext" transform="translate(134.000000, 4.000000)" fill="#FFFFFF" fill-rule="nonzero">
                <path d="M6.30645161,3.39166667 C7.03763441,3.66666667 7.31182796,4.125 7.31182796,4.85833333 C7.31182796,5.40833333 7.12903226,5.86666667 6.67204301,6.23333333 C6.48924731,6.41666667 6.21505376,6.50833333 5.94086022,6.6 C5.66666667,6.69166667 5.30107527,6.69166667 4.93548387,6.69166667 L0.822580645,6.69166667 L0.822580645,6.50833333 C0.913978495,6.41666667 1.00537634,6.41666667 1.09677419,6.325 C1.09677419,6.23333333 1.18817204,6.23333333 1.18817204,6.14166667 L1.18817204,0.916666667 C1.18817204,0.825 1.18817204,0.733333333 1.09677419,0.733333333 C1.09677419,0.641666667 1.00537634,0.641666667 0.913978495,0.641666667 L0.913978495,0.366666667 L5.11827957,0.366666667 C5.48387097,0.366666667 5.84946237,0.366666667 6.12365591,0.458333333 C6.39784946,0.55 6.58064516,0.641666667 6.76344086,0.733333333 C7.12903226,1.00833333 7.31182796,1.46666667 7.31182796,2.01666667 C7.22043011,2.65833333 6.85483871,3.11666667 6.30645161,3.39166667 Z M2.46774194,2.84166667 L4.84408602,2.84166667 C5.20967742,2.84166667 5.48387097,2.75 5.57526882,2.65833333 C5.75806452,2.56666667 5.84946237,2.38333333 5.84946237,2.10833333 C5.84946237,1.83333333 5.75806452,1.65 5.66666667,1.55833333 C5.48387097,1.46666667 5.20967742,1.46666667 4.84408602,1.46666667 L2.46774194,1.46666667 L2.46774194,2.84166667 Z M2.46774194,5.59166667 L4.75268817,5.59166667 C5.20967742,5.59166667 5.48387097,5.5 5.66666667,5.40833333 C5.84946237,5.31666667 6.03225806,5.04166667 6.03225806,4.76666667 C6.03225806,4.49166667 5.94086022,4.21666667 5.66666667,4.125 C5.48387097,4.03333333 5.20967742,3.94166667 4.75268817,3.94166667 L2.46774194,3.94166667 L2.46774194,5.59166667 Z" id="Shape"></path>
                <path d="M13.5268817,5.04166667 L10.6935484,5.04166667 L10.2365591,5.95833333 C10.1451613,6.05 10.1451613,6.14166667 10.1451613,6.23333333 C10.1451613,6.325 10.2365591,6.41666667 10.4193548,6.50833333 L10.4193548,6.69166667 L8.40860215,6.69166667 L8.40860215,6.50833333 C8.5,6.50833333 8.59139785,6.41666667 8.6827957,6.41666667 C8.77419355,6.325 8.77419355,6.23333333 8.8655914,6.05 L11.1505376,1.28333333 C11.2419355,1.1 11.2419355,1.00833333 11.2419355,0.916666667 C11.2419355,0.733333333 11.1505376,0.641666667 10.9677419,0.641666667 L10.9677419,0.366666667 L13.1612903,0.366666667 L13.1612903,0.55 C12.9784946,0.641666667 12.8870968,0.733333333 12.8870968,0.825 C12.8870968,0.916666667 12.8870968,1.00833333 12.9784946,1.1 L15.3548387,5.86666667 C15.4462366,6.05 15.5376344,6.23333333 15.6290323,6.325 C15.7204301,6.41666667 15.811828,6.41666667 15.9032258,6.50833333 L15.9032258,6.69166667 L13.6182796,6.69166667 L13.6182796,6.50833333 C13.8010753,6.50833333 13.8924731,6.41666667 13.8924731,6.23333333 C13.8924731,6.14166667 13.8924731,6.05 13.8010753,5.95833333 L13.5268817,5.04166667 Z M13.1612903,4.21666667 L12.155914,2.01666667 L11.1505376,4.21666667 L13.1612903,4.21666667 Z" id="Shape"></path>
                <path d="M19.0107527,2.38333333 L19.0107527,6.14166667 C19.0107527,6.23333333 19.0107527,6.325 19.1021505,6.325 C19.1021505,6.41666667 19.1935484,6.41666667 19.2849462,6.41666667 L19.2849462,6.6 L17.4569892,6.6 L17.4569892,6.41666667 C17.5483871,6.41666667 17.6397849,6.325 17.6397849,6.325 C17.6397849,6.23333333 17.7311828,6.23333333 17.7311828,6.14166667 L17.7311828,0.916666667 C17.7311828,0.825 17.7311828,0.733333333 17.6397849,0.733333333 C17.6397849,0.641666667 17.5483871,0.641666667 17.4569892,0.641666667 L17.4569892,0.366666667 L19.5591398,0.366666667 L19.5591398,0.55 C19.4677419,0.55 19.3763441,0.641666667 19.3763441,0.733333333 C19.3763441,0.825 19.3763441,0.916666667 19.4677419,1.00833333 L22.8494624,4.58333333 L22.8494624,0.916666667 C22.8494624,0.825 22.8494624,0.733333333 22.7580645,0.733333333 C22.6666667,0.733333333 22.6666667,0.641666667 22.5752688,0.641666667 L22.5752688,0.366666667 L24.4032258,0.366666667 L24.4032258,0.55 C24.311828,0.55 24.2204301,0.641666667 24.2204301,0.641666667 C24.2204301,0.733333333 24.1290323,0.733333333 24.1290323,0.825 L24.1290323,6.05 C24.1290323,6.14166667 24.1290323,6.23333333 24.2204301,6.23333333 C24.2204301,6.325 24.311828,6.325 24.4032258,6.325 L24.4032258,6.50833333 L22.483871,6.50833333 L22.483871,6.325 C22.5752688,6.325 22.6666667,6.23333333 22.6666667,6.14166667 C22.6666667,6.05 22.5752688,5.95833333 22.483871,5.86666667 L19.0107527,2.38333333 Z" id="Path"></path>
                <path d="M29.0645161,3.75833333 L28.1505376,4.49166667 L28.1505376,6.14166667 C28.1505376,6.23333333 28.1505376,6.325 28.2419355,6.325 C28.2419355,6.41666667 28.3333333,6.41666667 28.4247312,6.41666667 L28.4247312,6.6 L26.5053763,6.6 L26.5053763,6.41666667 C26.5967742,6.41666667 26.688172,6.325 26.688172,6.325 C26.688172,6.23333333 26.7795699,6.23333333 26.7795699,6.14166667 L26.7795699,0.916666667 C26.7795699,0.825 26.7795699,0.733333333 26.688172,0.733333333 C26.688172,0.641666667 26.5967742,0.641666667 26.5053763,0.641666667 L26.5053763,0.366666667 L28.4247312,0.366666667 L28.4247312,0.55 C28.3333333,0.55 28.2419355,0.641666667 28.2419355,0.641666667 C28.2419355,0.733333333 28.1505376,0.733333333 28.1505376,0.825 L28.1505376,3.025 L30.7096774,0.916666667 C30.8010753,0.825 30.8924731,0.733333333 30.8924731,0.641666667 C30.8924731,0.55 30.8010753,0.458333333 30.6182796,0.458333333 L30.6182796,0.366666667 L33.1774194,0.366666667 L33.1774194,0.55 C33.0860215,0.55 32.9946237,0.55 32.9946237,0.641666667 C32.9946237,0.641666667 32.811828,0.733333333 32.6290323,0.916666667 L32.2634409,1.19166667 L30.1612903,2.84166667 L32.5376344,5.68333333 C32.7204301,5.95833333 32.9032258,6.14166667 32.9946237,6.23333333 C33.0860215,6.325 33.1774194,6.325 33.3602151,6.41666667 L33.3602151,6.6 L30.983871,6.6 L30.983871,6.41666667 C31.1666667,6.41666667 31.2580645,6.325 31.2580645,6.23333333 C31.2580645,6.23333333 31.1666667,6.05 31.0752688,5.86666667 L29.0645161,3.75833333 Z" id="Path"></path>
                <path d="M35.188172,6.14166667 L35.188172,0.916666667 C35.188172,0.825 35.188172,0.733333333 35.0967742,0.733333333 C35.0053763,0.733333333 35.0053763,0.641666667 34.9139785,0.641666667 L34.9139785,0.366666667 L36.8333333,0.366666667 L36.8333333,0.55 C36.7419355,0.55 36.6505376,0.641666667 36.6505376,0.641666667 C36.5591398,0.733333333 36.5591398,0.825 36.5591398,0.916666667 L36.5591398,6.14166667 C36.5591398,6.23333333 36.5591398,6.325 36.6505376,6.325 C36.6505376,6.41666667 36.7419355,6.41666667 36.8333333,6.41666667 L36.8333333,6.6 L34.9139785,6.6 L34.9139785,6.41666667 C35.0053763,6.41666667 35.0967742,6.325 35.0967742,6.325 C35.188172,6.325 35.188172,6.23333333 35.188172,6.14166667 Z" id="Path"></path>
                <path d="M40.3978495,2.38333333 L40.3978495,6.14166667 C40.3978495,6.23333333 40.3978495,6.325 40.4892473,6.325 C40.4892473,6.41666667 40.5806452,6.41666667 40.672043,6.41666667 L40.672043,6.6 L38.844086,6.6 L38.844086,6.41666667 C38.9354839,6.41666667 39.0268817,6.325 39.0268817,6.325 C39.0268817,6.23333333 39.1182796,6.23333333 39.1182796,6.14166667 L39.1182796,0.916666667 C39.1182796,0.825 39.1182796,0.733333333 39.0268817,0.733333333 C39.0268817,0.641666667 38.9354839,0.641666667 38.844086,0.641666667 L38.844086,0.366666667 L40.9462366,0.366666667 L40.9462366,0.55 C40.8548387,0.55 40.7634409,0.641666667 40.7634409,0.733333333 C40.7634409,0.825 40.7634409,0.916666667 40.8548387,1.00833333 L44.2365591,4.58333333 L44.2365591,0.916666667 C44.2365591,0.825 44.2365591,0.733333333 44.1451613,0.733333333 C44.1451613,0.641666667 44.0537634,0.641666667 43.9623656,0.641666667 L43.9623656,0.366666667 L45.7903226,0.366666667 L45.7903226,0.55 C45.6989247,0.55 45.6075269,0.641666667 45.6075269,0.641666667 C45.6075269,0.733333333 45.516129,0.733333333 45.516129,0.825 L45.516129,6.05 C45.516129,6.14166667 45.516129,6.23333333 45.6075269,6.23333333 C45.6075269,6.325 45.6989247,6.325 45.7903226,6.325 L45.7903226,6.50833333 L43.8709677,6.50833333 L43.8709677,6.325 C43.9623656,6.325 44.0537634,6.23333333 44.0537634,6.14166667 C44.0537634,6.05 43.9623656,5.95833333 43.8709677,5.86666667 L40.3978495,2.38333333 Z" id="Path"></path>
                <path d="M53.3763441,4.4 L51.8225806,4.4 C51.7311828,4.4 51.6397849,4.4 51.6397849,4.49166667 C51.5483871,4.49166667 51.5483871,4.58333333 51.5483871,4.675 L51.3655914,4.675 L51.3655914,3.20833333 L51.5483871,3.20833333 C51.5483871,3.3 51.6397849,3.39166667 51.6397849,3.48333333 C51.7311828,3.48333333 51.7311828,3.575 51.8225806,3.575 L54.7473118,3.575 L54.7473118,3.66666667 C54.655914,3.66666667 54.5645161,3.75833333 54.5645161,3.75833333 C54.5645161,3.85 54.4731183,3.85 54.4731183,3.94166667 L54.4731183,5.225 C54.4731183,5.31666667 54.4731183,5.40833333 54.5645161,5.40833333 C54.5645161,5.5 54.655914,5.5 54.7473118,5.5 L54.7473118,5.59166667 C53.5591398,6.23333333 52.4623656,6.6 51.3655914,6.6 C50.3602151,6.6 49.5376344,6.325 48.8978495,5.86666667 C48.0752688,5.225 47.7096774,4.4 47.7096774,3.39166667 C47.7096774,2.38333333 48.0752688,1.65 48.8064516,1.00833333 C49.4462366,0.458333333 50.3602151,0.183333333 51.4569892,0.183333333 C51.8225806,0.183333333 52.188172,0.183333333 52.4623656,0.275 C52.7365591,0.366666667 53.1021505,0.458333333 53.5591398,0.641666667 C53.7419355,0.733333333 53.9247312,0.733333333 54.016129,0.733333333 C54.1075269,0.733333333 54.1075269,0.733333333 54.1989247,0.641666667 L54.2903226,0.733333333 L53.5591398,2.2 L53.4677419,2.10833333 C53.4677419,2.01666667 53.4677419,1.925 53.4677419,1.925 C53.4677419,1.925 53.3763441,1.83333333 53.2849462,1.74166667 C53.1021505,1.55833333 52.827957,1.46666667 52.4623656,1.375 C52.0967742,1.28333333 51.7311828,1.19166667 51.4569892,1.19166667 C50.8172043,1.19166667 50.2688172,1.375 49.811828,1.74166667 C49.3548387,2.10833333 49.0806452,2.65833333 49.0806452,3.39166667 C49.0806452,4.03333333 49.3548387,4.58333333 49.811828,4.95 C50.2688172,5.31666667 50.8172043,5.5 51.5483871,5.5 C51.9139785,5.5 52.188172,5.5 52.5537634,5.40833333 C52.9193548,5.31666667 53.1935484,5.225 53.3763441,5.04166667 L53.3763441,4.4 L53.3763441,4.4 Z" id="Path"></path>
                <path d="M1.09677419,18.975 L1.09677419,13.75 C1.09677419,13.6583333 1.09677419,13.5666667 1.00537634,13.5666667 C1.00537634,13.475 0.913978495,13.475 0.822580645,13.475 L0.822580645,13.2916667 L2.74193548,13.2916667 L2.74193548,13.475 C2.65053763,13.475 2.55913978,13.5666667 2.55913978,13.5666667 C2.55913978,13.6583333 2.46774194,13.6583333 2.46774194,13.75 L2.46774194,18.975 C2.46774194,19.0666667 2.46774194,19.1583333 2.55913978,19.1583333 C2.55913978,19.25 2.65053763,19.25 2.74193548,19.25 L2.74193548,19.4333333 L0.822580645,19.4333333 L0.822580645,19.25 C0.913978495,19.3416667 1.00537634,19.25 1.09677419,19.25 C1.09677419,19.1583333 1.09677419,19.0666667 1.09677419,18.975 Z" id="Path"></path>
                <path d="M6.30645161,15.2166667 L6.30645161,18.975 C6.30645161,19.0666667 6.30645161,19.1583333 6.39784946,19.1583333 C6.39784946,19.25 6.48924731,19.25 6.58064516,19.25 L6.58064516,19.4333333 L4.75268817,19.4333333 L4.75268817,19.25 C4.84408602,19.25 4.93548387,19.1583333 4.93548387,19.1583333 C4.93548387,19.0666667 5.02688172,19.0666667 5.02688172,18.975 L5.02688172,13.75 C5.02688172,13.6583333 5.02688172,13.5666667 4.93548387,13.5666667 C4.93548387,13.475 4.84408602,13.475 4.75268817,13.475 L4.75268817,13.2916667 L6.85483871,13.2916667 L6.85483871,13.475 C6.76344086,13.475 6.67204301,13.5666667 6.67204301,13.6583333 C6.67204301,13.75 6.67204301,13.8416667 6.76344086,13.9333333 L10.1451613,17.5083333 L10.1451613,13.8416667 C10.1451613,13.75 10.1451613,13.6583333 10.0537634,13.6583333 C10.0537634,13.5666667 9.96236559,13.5666667 9.87096774,13.5666667 L9.87096774,13.3833333 L11.6989247,13.3833333 L11.6989247,13.5666667 C11.6075269,13.5666667 11.516129,13.6583333 11.516129,13.6583333 C11.516129,13.75 11.4247312,13.75 11.4247312,13.8416667 L11.4247312,19.0666667 C11.4247312,19.1583333 11.4247312,19.25 11.516129,19.25 C11.516129,19.3416667 11.6075269,19.3416667 11.6989247,19.3416667 L11.6989247,19.525 L9.77956989,19.525 L9.77956989,19.3416667 C9.87096774,19.3416667 9.96236559,19.25 9.96236559,19.1583333 C9.96236559,19.0666667 9.87096774,18.975 9.77956989,18.8833333 L6.30645161,15.2166667 Z" id="Path"></path>
                <path d="M16.9086022,17.6916667 L18.5537634,14.025 C18.6451613,13.8416667 18.6451613,13.75 18.6451613,13.6583333 C18.6451613,13.5666667 18.5537634,13.475 18.3709677,13.3833333 L18.3709677,13.2 L20.4731183,13.2 L20.4731183,13.3833333 C20.3817204,13.3833333 20.2903226,13.475 20.1989247,13.475 C20.1075269,13.5666667 20.016129,13.6583333 19.9247312,13.9333333 L17.8225806,18.6083333 C17.7311828,18.7916667 17.7311828,18.975 17.7311828,18.975 C17.7311828,19.1583333 17.8225806,19.25 18.0053763,19.25 L18.0053763,19.4333333 L15.9032258,19.4333333 L15.9032258,19.25 C16.0860215,19.25 16.1774194,19.1583333 16.1774194,18.975 C16.1774194,18.8833333 16.1774194,18.7916667 16.0860215,18.6083333 L13.983871,13.9333333 C13.8924731,13.6583333 13.8010753,13.475 13.7096774,13.475 C13.6182796,13.3833333 13.5268817,13.3833333 13.4354839,13.3833333 L13.4354839,13.2 L15.6290323,13.2 L15.6290323,13.3833333 C15.4462366,13.3833333 15.3548387,13.475 15.3548387,13.6583333 C15.3548387,13.75 15.3548387,13.8416667 15.4462366,14.025 L16.9086022,17.6916667 Z" id="Path"></path>
                <path d="M23.4892473,16.775 L23.4892473,18.5166667 L27.5107527,18.5166667 C27.6021505,18.5166667 27.6935484,18.5166667 27.6935484,18.425 C27.7849462,18.425 27.7849462,18.3333333 27.7849462,18.2416667 L27.9677419,18.2416667 L27.9677419,19.8916667 L27.7849462,19.8916667 C27.7849462,19.8 27.6935484,19.7083333 27.6935484,19.7083333 C27.6021505,19.7083333 27.6021505,19.6166667 27.5107527,19.6166667 L21.9354839,19.6166667 L21.9354839,19.4333333 C22.0268817,19.4333333 22.1182796,19.3416667 22.1182796,19.3416667 C22.1182796,19.25 22.2096774,19.25 22.2096774,19.1583333 L22.2096774,13.75 C22.2096774,13.6583333 22.2096774,13.5666667 22.1182796,13.5666667 C22.1182796,13.475 22.0268817,13.475 21.9354839,13.475 L21.9354839,13.2916667 L27.4193548,13.2916667 C27.5107527,13.2916667 27.6021505,13.2916667 27.6021505,13.2 C27.6935484,13.2 27.6935484,13.1083333 27.6935484,13.0166667 L27.8763441,13.0166667 L27.8763441,14.6666667 L27.6935484,14.6666667 C27.6935484,14.575 27.6021505,14.4833333 27.6021505,14.4833333 C27.5107527,14.4833333 27.5107527,14.3916667 27.4193548,14.3916667 L23.5806452,14.3916667 L23.5806452,15.8583333 L26.0483871,15.8583333 C26.1397849,15.8583333 26.2311828,15.8583333 26.2311828,15.7666667 C26.3225806,15.7666667 26.3225806,15.675 26.3225806,15.5833333 L26.5053763,15.5833333 L26.5053763,17.1416667 L26.3225806,17.1416667 C26.3225806,17.05 26.2311828,16.9583333 26.2311828,16.9583333 C26.1397849,16.9583333 26.1397849,16.8666667 26.0483871,16.8666667 L23.4892473,16.8666667 L23.4892473,16.775 Z" id="Path"></path>
                <path d="M35.6451613,13.8416667 L34.9139785,15.3083333 L34.7311828,15.2166667 C34.7311828,15.2166667 34.7311828,15.125 34.7311828,15.125 C34.7311828,15.0333333 34.6397849,14.9416667 34.4569892,14.7583333 C33.9086022,14.3916667 33.2688172,14.2083333 32.5376344,14.2083333 C32.172043,14.2083333 31.8978495,14.2083333 31.7150538,14.3 C31.5322581,14.3916667 31.3494624,14.4833333 31.2580645,14.575 C31.1666667,14.6666667 31.0752688,14.85 31.0752688,14.9416667 C31.0752688,15.2166667 31.2580645,15.3083333 31.5322581,15.4 C31.7150538,15.4 31.9892473,15.4916667 32.4462366,15.4916667 L33.1774194,15.5833333 C33.6344086,15.5833333 33.9086022,15.675 34.1827957,15.7666667 C34.4569892,15.8583333 34.6397849,15.95 34.9139785,16.1333333 C35.0967742,16.3166667 35.2795699,16.5 35.3709677,16.6833333 C35.4623656,16.9583333 35.5537634,17.1416667 35.5537634,17.4166667 C35.5537634,17.875 35.3709677,18.2416667 35.0967742,18.6083333 C34.8225806,18.8833333 34.4569892,19.1583333 33.9086022,19.25 C33.5430108,19.3416667 33.0860215,19.4333333 32.6290323,19.4333333 C31.8064516,19.4333333 30.983871,19.25 30.1612903,18.8833333 C29.9784946,18.7916667 29.8870968,18.7916667 29.8870968,18.7916667 C29.8870968,18.7916667 29.7956989,18.7916667 29.7043011,18.8833333 L29.6129032,18.7916667 L30.2526882,17.2333333 L30.344086,17.325 C30.344086,17.325 30.344086,17.4166667 30.344086,17.4166667 C30.344086,17.5083333 30.4354839,17.6916667 30.5268817,17.7833333 C30.7096774,17.9666667 30.983871,18.15 31.4408602,18.2416667 C31.8064516,18.3333333 32.2634409,18.425 32.6290323,18.425 C32.9946237,18.425 33.3602151,18.3333333 33.6344086,18.2416667 C33.8172043,18.15 33.9086022,18.0583333 34,17.9666667 C34.0913978,17.875 34.1827957,17.6916667 34.1827957,17.6 C34.1827957,17.4166667 34.0913978,17.2333333 33.8172043,17.1416667 C33.6344086,17.05 33.3602151,17.05 32.9032258,16.9583333 L32.172043,16.8666667 C31.7150538,16.775 31.3494624,16.775 31.1666667,16.6833333 C30.983871,16.5916667 30.8010753,16.5916667 30.6182796,16.5 C30.344086,16.4083333 30.1612903,16.1333333 29.9784946,15.8583333 C29.7956989,15.5833333 29.7956989,15.3083333 29.7956989,15.0333333 C29.7956989,14.4833333 29.9784946,14.1166667 30.344086,13.75 C30.8010753,13.2916667 31.5322581,13.1083333 32.4462366,13.1083333 C32.811828,13.1083333 33.1774194,13.1083333 33.5430108,13.2 C33.9086022,13.2916667 34.2741935,13.475 34.8225806,13.6583333 C35.0053763,13.75 35.0967742,13.75 35.188172,13.75 C35.2795699,13.75 35.3709677,13.75 35.3709677,13.6583333 L35.6451613,13.8416667 Z" id="Path"></path>
                <path d="M40.8548387,14.3 L40.8548387,18.975 C40.8548387,19.0666667 40.8548387,19.1583333 40.9462366,19.1583333 C40.9462366,19.25 41.0376344,19.25 41.1290323,19.25 L41.1290323,19.4333333 L39.2096774,19.4333333 L39.2096774,19.25 C39.3010753,19.25 39.3924731,19.1583333 39.3924731,19.1583333 C39.3924731,19.0666667 39.483871,19.0666667 39.483871,18.975 L39.483871,14.3 L37.5645161,14.3 C37.4731183,14.3 37.3817204,14.3 37.3817204,14.3916667 C37.2903226,14.3916667 37.2903226,14.4833333 37.2903226,14.575 L37.1075269,14.575 L37.1075269,12.925 L37.2903226,12.925 C37.2903226,13.0166667 37.3817204,13.1083333 37.3817204,13.1083333 C37.4731183,13.1083333 37.4731183,13.2 37.5645161,13.2 L42.7741935,13.2 C42.8655914,13.2 42.9569892,13.2 42.9569892,13.1083333 C43.0483871,13.1083333 43.0483871,13.0166667 43.0483871,12.925 L43.2311828,12.925 L43.2311828,14.575 L43.0483871,14.575 C43.0483871,14.4833333 42.9569892,14.3916667 42.9569892,14.3916667 C42.8655914,14.3916667 42.8655914,14.3 42.7741935,14.3 L40.8548387,14.3 Z" id="Path"></path>
                <path d="M48.6236559,19.525 L46.3387097,15.2166667 L46.3387097,18.975 C46.3387097,19.0666667 46.3387097,19.1583333 46.4301075,19.1583333 C46.4301075,19.25 46.5215054,19.25 46.6129032,19.25 L46.6129032,19.4333333 L44.7849462,19.4333333 L44.7849462,19.25 C44.8763441,19.25 44.9677419,19.1583333 44.9677419,19.1583333 C44.9677419,19.0666667 45.0591398,19.0666667 45.0591398,18.975 L45.0591398,13.75 C45.0591398,13.6583333 45.0591398,13.5666667 44.9677419,13.5666667 C44.9677419,13.475 44.8763441,13.475 44.7849462,13.475 L44.7849462,13.2916667 L47.1612903,13.2916667 L47.1612903,13.475 C46.9784946,13.475 46.9784946,13.5666667 46.9784946,13.75 C46.9784946,13.8416667 46.9784946,13.8416667 47.0698925,13.9333333 L48.7150538,17.1416667 L50.4516129,14.025 C50.5430108,13.8416667 50.5430108,13.75 50.5430108,13.75 C50.5430108,13.6583333 50.4516129,13.5666667 50.3602151,13.5666667 L50.3602151,13.3833333 L52.7365591,13.3833333 L52.7365591,13.5666667 C52.6451613,13.5666667 52.5537634,13.6583333 52.5537634,13.6583333 C52.5537634,13.75 52.4623656,13.75 52.4623656,13.8416667 L52.4623656,19.0666667 C52.4623656,19.1583333 52.4623656,19.25 52.5537634,19.25 C52.5537634,19.3416667 52.6451613,19.3416667 52.7365591,19.3416667 L52.7365591,19.525 L50.8172043,19.525 L50.8172043,19.3416667 C50.9086022,19.3416667 51,19.25 51,19.25 C51,19.1583333 51.0913978,19.1583333 51.0913978,19.0666667 L51.0913978,15.3083333 L48.6236559,19.525 Z" id="Path"></path>
                <path d="M56.3924731,16.775 L56.3924731,18.5166667 L60.3225806,18.5166667 C60.4139785,18.5166667 60.5053763,18.5166667 60.5053763,18.425 C60.5967742,18.425 60.5967742,18.3333333 60.5967742,18.2416667 L60.7795699,18.2416667 L60.7795699,19.8916667 L60.5967742,19.8916667 C60.5967742,19.8 60.5053763,19.7083333 60.5053763,19.7083333 C60.4139785,19.7083333 60.4139785,19.6166667 60.3225806,19.6166667 L54.7473118,19.6166667 L54.7473118,19.4333333 C54.8387097,19.4333333 54.9301075,19.3416667 54.9301075,19.3416667 C54.9301075,19.25 55.0215054,19.25 55.0215054,19.1583333 L55.0215054,13.75 C55.0215054,13.6583333 55.0215054,13.5666667 54.9301075,13.5666667 C54.9301075,13.475 54.8387097,13.475 54.7473118,13.475 L54.7473118,13.2916667 L60.2311828,13.2916667 C60.3225806,13.2916667 60.4139785,13.2916667 60.4139785,13.2 C60.5053763,13.2 60.5053763,13.1083333 60.5053763,13.0166667 L60.688172,13.0166667 L60.688172,14.6666667 L60.5053763,14.6666667 C60.5053763,14.575 60.4139785,14.4833333 60.4139785,14.4833333 C60.3225806,14.4833333 60.3225806,14.3916667 60.2311828,14.3916667 L56.3924731,14.3916667 L56.3924731,15.8583333 L58.8602151,15.8583333 C58.9516129,15.8583333 59.0430108,15.8583333 59.0430108,15.7666667 C59.1344086,15.7666667 59.1344086,15.675 59.1344086,15.5833333 L59.3172043,15.5833333 L59.3172043,17.1416667 L59.1344086,17.1416667 C59.1344086,17.05 59.0430108,16.9583333 59.0430108,16.9583333 C58.9516129,16.9583333 58.9516129,16.8666667 58.8602151,16.8666667 L56.3924731,16.8666667 L56.3924731,16.775 Z" id="Path"></path>
                <path d="M64.2526882,15.2166667 L64.2526882,18.975 C64.2526882,19.0666667 64.2526882,19.1583333 64.344086,19.1583333 C64.344086,19.25 64.4354839,19.25 64.5268817,19.25 L64.5268817,19.4333333 L62.6989247,19.4333333 L62.6989247,19.25 C62.7903226,19.25 62.8817204,19.1583333 62.8817204,19.1583333 C62.8817204,19.0666667 62.9731183,19.0666667 62.9731183,18.975 L62.9731183,13.75 C62.9731183,13.6583333 62.9731183,13.5666667 62.8817204,13.5666667 C62.8817204,13.475 62.7903226,13.475 62.6989247,13.475 L62.6989247,13.2916667 L64.8010753,13.2916667 L64.8010753,13.475 C64.7096774,13.475 64.6182796,13.5666667 64.6182796,13.6583333 C64.6182796,13.75 64.6182796,13.8416667 64.7096774,13.9333333 L68.0913978,17.5083333 L68.0913978,13.8416667 C68.0913978,13.75 68.0913978,13.6583333 68,13.6583333 C68,13.5666667 67.9086022,13.5666667 67.8172043,13.5666667 L67.8172043,13.3833333 L69.6451613,13.3833333 L69.6451613,13.5666667 C69.5537634,13.5666667 69.4623656,13.6583333 69.4623656,13.6583333 C69.4623656,13.75 69.3709677,13.75 69.3709677,13.8416667 L69.3709677,19.0666667 C69.3709677,19.1583333 69.3709677,19.25 69.4623656,19.25 C69.4623656,19.3416667 69.5537634,19.3416667 69.6451613,19.3416667 L69.6451613,19.525 L67.7258065,19.525 L67.7258065,19.3416667 C67.8172043,19.3416667 67.9086022,19.25 67.9086022,19.1583333 C67.9086022,19.0666667 67.8172043,18.975 67.7258065,18.8833333 L64.2526882,15.2166667 Z" id="Path"></path>
                <path d="M74.9462366,14.3 L74.9462366,18.975 C74.9462366,19.0666667 74.9462366,19.1583333 75.0376344,19.1583333 C75.0376344,19.25 75.1290323,19.25 75.2204301,19.25 L75.2204301,19.4333333 L73.3010753,19.4333333 L73.3010753,19.25 C73.3924731,19.25 73.483871,19.1583333 73.483871,19.1583333 C73.483871,19.0666667 73.5752688,19.0666667 73.5752688,18.975 L73.5752688,14.3 L71.655914,14.3 C71.5645161,14.3 71.4731183,14.3 71.4731183,14.3916667 C71.3817204,14.3916667 71.3817204,14.4833333 71.3817204,14.575 L71.1989247,14.575 L71.1989247,12.925 L71.3817204,12.925 C71.3817204,13.0166667 71.4731183,13.1083333 71.4731183,13.1083333 C71.5645161,13.1083333 71.5645161,13.2 71.655914,13.2 L76.8655914,13.2 C76.9569892,13.2 77.0483871,13.2 77.0483871,13.1083333 C77.1397849,13.1083333 77.1397849,13.0166667 77.1397849,12.925 L77.3225806,12.925 L77.3225806,14.575 L77.1397849,14.575 C77.1397849,14.4833333 77.0483871,14.3916667 77.0483871,14.3916667 C76.9569892,14.3916667 76.9569892,14.3 76.8655914,14.3 L74.9462366,14.3 Z" id="Path"></path>
                <path d="M84.7258065,13.8416667 L83.9946237,15.3083333 L83.9032258,15.2166667 C83.9032258,15.2166667 83.9032258,15.125 83.9032258,15.125 C83.9032258,15.0333333 83.811828,14.9416667 83.6290323,14.7583333 C83.0806452,14.3916667 82.4408602,14.2083333 81.7096774,14.2083333 C81.344086,14.2083333 81.0698925,14.2083333 80.8870968,14.3 C80.7043011,14.3916667 80.5215054,14.4833333 80.4301075,14.575 C80.3387097,14.6666667 80.2473118,14.85 80.2473118,14.9416667 C80.2473118,15.2166667 80.4301075,15.3083333 80.7043011,15.4 C80.8870968,15.4 81.1612903,15.4916667 81.6182796,15.4916667 L82.3494624,15.5833333 C82.8064516,15.5833333 83.0806452,15.675 83.3548387,15.7666667 C83.6290323,15.8583333 83.811828,15.95 84.0860215,16.1333333 C84.2688172,16.3166667 84.4516129,16.5 84.5430108,16.6833333 C84.6344086,16.9583333 84.7258065,17.1416667 84.7258065,17.4166667 C84.7258065,17.875 84.5430108,18.2416667 84.2688172,18.6083333 C83.9946237,18.8833333 83.6290323,19.1583333 83.0806452,19.25 C82.7150538,19.3416667 82.2580645,19.4333333 81.8010753,19.4333333 C80.9784946,19.4333333 80.155914,19.25 79.3333333,18.8833333 C79.1505376,18.7916667 79.0591398,18.7916667 79.0591398,18.7916667 C79.0591398,18.7916667 78.9677419,18.7916667 78.8763441,18.8833333 L78.7849462,18.7916667 L79.4247312,17.2333333 L79.516129,17.325 C79.516129,17.325 79.516129,17.4166667 79.516129,17.4166667 C79.516129,17.5083333 79.6075269,17.6916667 79.6989247,17.7833333 C79.8817204,17.9666667 80.155914,18.15 80.6129032,18.2416667 C80.9784946,18.3333333 81.4354839,18.425 81.8010753,18.425 C82.1666667,18.425 82.5322581,18.3333333 82.8064516,18.2416667 C82.9892473,18.15 83.0806452,18.0583333 83.172043,17.9666667 C83.2634409,17.875 83.3548387,17.6916667 83.3548387,17.6 C83.3548387,17.4166667 83.2634409,17.2333333 82.9892473,17.1416667 C82.8064516,17.05 82.5322581,17.05 82.0752688,16.9583333 L81.344086,16.8666667 C80.8870968,16.775 80.5215054,16.775 80.3387097,16.6833333 C80.155914,16.6833333 79.9731183,16.5916667 79.7903226,16.5 C79.516129,16.4083333 79.3333333,16.1333333 79.1505376,15.8583333 C78.9677419,15.5833333 78.9677419,15.3083333 78.9677419,15.0333333 C78.9677419,14.4833333 79.1505376,14.1166667 79.516129,13.75 C79.9731183,13.2916667 80.7043011,13.1083333 81.6182796,13.1083333 C81.983871,13.1083333 82.3494624,13.1083333 82.7150538,13.2 C83.0806452,13.2916667 83.4462366,13.475 83.9946237,13.6583333 C84.1774194,13.75 84.2688172,13.75 84.3602151,13.75 C84.4516129,13.75 84.5430108,13.75 84.5430108,13.6583333 L84.7258065,13.8416667 Z" id="Path"></path>
                <path d="M1.09677419,31.9 L1.09677419,26.675 C1.09677419,26.5833333 1.09677419,26.4916667 1.00537634,26.4916667 C1.00537634,26.4 0.913978495,26.4 0.822580645,26.4 L0.822580645,26.2166667 L2.74193548,26.2166667 L2.74193548,26.4 C2.65053763,26.4 2.55913978,26.4916667 2.55913978,26.4916667 C2.55913978,26.5833333 2.46774194,26.5833333 2.46774194,26.675 L2.46774194,31.9 C2.46774194,31.9916667 2.46774194,32.0833333 2.55913978,32.0833333 C2.55913978,32.175 2.65053763,32.175 2.74193548,32.175 L2.74193548,32.3583333 L0.822580645,32.3583333 L0.822580645,32.175 C0.913978495,32.175 1.00537634,32.0833333 1.00537634,32.0833333 C1.09677419,32.0833333 1.09677419,31.9916667 1.09677419,31.9 Z" id="Path"></path>
                <path d="M6.30645161,28.1416667 L6.30645161,31.9 C6.30645161,31.9916667 6.39784946,32.0833333 6.39784946,32.0833333 C6.39784946,32.175 6.48924731,32.175 6.58064516,32.175 L6.58064516,32.3583333 L4.75268817,32.3583333 L4.75268817,32.175 C4.84408602,32.175 4.93548387,32.0833333 4.93548387,32.0833333 C4.93548387,31.9916667 5.02688172,31.9916667 5.02688172,31.9 L5.02688172,26.675 C5.02688172,26.5833333 5.02688172,26.4916667 4.93548387,26.4916667 C4.93548387,26.4 4.84408602,26.4 4.75268817,26.4 L4.75268817,26.2166667 L6.85483871,26.2166667 L6.85483871,26.4 C6.76344086,26.4 6.67204301,26.4916667 6.67204301,26.5833333 C6.67204301,26.675 6.67204301,26.7666667 6.76344086,26.8583333 L10.1451613,30.4333333 L10.1451613,26.7666667 C10.1451613,26.675 10.1451613,26.5833333 10.0537634,26.5833333 C10.0537634,26.4916667 9.96236559,26.4916667 9.87096774,26.4916667 L9.87096774,26.3083333 L11.6989247,26.3083333 L11.6989247,26.4916667 C11.6075269,26.4916667 11.516129,26.5833333 11.516129,26.5833333 C11.516129,26.675 11.4247312,26.675 11.4247312,26.7666667 L11.4247312,31.9916667 C11.4247312,32.0833333 11.4247312,32.175 11.516129,32.175 C11.516129,32.2666667 11.6075269,32.2666667 11.6989247,32.2666667 L11.6989247,32.45 L9.77956989,32.45 L9.77956989,32.2666667 C9.87096774,32.2666667 9.96236559,32.175 9.96236559,32.0833333 C9.96236559,31.9916667 9.87096774,31.9 9.77956989,31.8083333 L6.30645161,28.1416667 Z" id="Path"></path>
                <path d="M19.5591398,26.675 L18.827957,28.1416667 L18.7365591,28.05 C18.7365591,28.05 18.7365591,27.9583333 18.7365591,27.9583333 C18.7365591,27.8666667 18.6451613,27.775 18.4623656,27.5916667 C17.9139785,27.225 17.2741935,27.0416667 16.5430108,27.0416667 C16.1774194,27.0416667 15.9032258,27.0416667 15.7204301,27.1333333 C15.5376344,27.225 15.3548387,27.3166667 15.2634409,27.4083333 C15.172043,27.5 15.0806452,27.6833333 15.0806452,27.775 C15.0806452,28.05 15.2634409,28.1416667 15.5376344,28.2333333 C15.7204301,28.2333333 15.9946237,28.325 16.4516129,28.325 L17.1827957,28.4166667 C17.6397849,28.4166667 17.9139785,28.5083333 18.188172,28.6 C18.4623656,28.6916667 18.6451613,28.7833333 18.9193548,28.9666667 C19.1021505,29.15 19.2849462,29.3333333 19.3763441,29.5166667 C19.4677419,29.7916667 19.5591398,29.975 19.5591398,30.25 C19.5591398,30.7083333 19.3763441,31.075 19.1021505,31.4416667 C18.827957,31.7166667 18.4623656,31.9916667 17.9139785,32.0833333 C17.5483871,32.175 17.0913978,32.2666667 16.6344086,32.2666667 C15.811828,32.2666667 14.9892473,32.0833333 14.1666667,31.7166667 C13.983871,31.625 13.8924731,31.625 13.8924731,31.625 C13.8924731,31.625 13.8010753,31.625 13.7096774,31.7166667 L13.6182796,31.625 L14.2580645,30.0666667 L14.3494624,30.1583333 C14.3494624,30.1583333 14.3494624,30.25 14.3494624,30.25 C14.3494624,30.3416667 14.4408602,30.525 14.5322581,30.6166667 C14.7150538,30.8 14.9892473,30.9833333 15.4462366,31.075 C15.811828,31.1666667 16.2688172,31.2583333 16.6344086,31.2583333 C17,31.2583333 17.3655914,31.1666667 17.6397849,31.075 C17.8225806,30.9833333 17.9139785,30.8916667 18.0053763,30.8 C18.0967742,30.7083333 18.188172,30.525 18.188172,30.4333333 C18.188172,30.25 18.0967742,30.0666667 17.8225806,29.975 C17.6397849,29.8833333 17.3655914,29.8833333 16.9086022,29.7916667 L16.1774194,29.7 C15.7204301,29.6083333 15.3548387,29.6083333 15.172043,29.5166667 C14.9892473,29.5166667 14.8064516,29.425 14.6236559,29.3333333 C14.3494624,29.2416667 14.1666667,28.9666667 13.983871,28.6916667 C13.8010753,28.4166667 13.8010753,28.1416667 13.8010753,27.8666667 C13.8010753,27.3166667 13.983871,26.95 14.3494624,26.5833333 C14.8064516,26.125 15.5376344,25.9416667 16.4516129,25.9416667 C16.8172043,25.9416667 17.1827957,25.9416667 17.5483871,26.0333333 C17.9139785,26.125 18.2795699,26.3083333 18.827957,26.4916667 C19.0107527,26.5833333 19.1021505,26.5833333 19.1935484,26.5833333 C19.2849462,26.5833333 19.3763441,26.5833333 19.3763441,26.4916667 L19.5591398,26.675 Z" id="Path"></path>
                <path d="M27.6935484,26.675 L27.6935484,30.1583333 C27.6935484,30.8 27.6021505,31.35 27.327957,31.625 C26.8709677,32.175 25.9569892,32.5416667 24.5860215,32.5416667 C23.5806452,32.5416667 22.8494624,32.3583333 22.3010753,32.0833333 C22.0268817,31.9 21.7526882,31.625 21.6612903,31.35 C21.5698925,31.075 21.4784946,30.6166667 21.4784946,30.25 L21.4784946,26.7666667 C21.4784946,26.675 21.4784946,26.5833333 21.3870968,26.5833333 C21.3870968,26.4916667 21.2956989,26.4916667 21.2043011,26.4916667 L21.2043011,26.3083333 L23.1236559,26.3083333 L23.1236559,26.4916667 C23.0322581,26.4916667 22.9408602,26.5833333 22.9408602,26.5833333 C22.9408602,26.675 22.8494624,26.675 22.8494624,26.7666667 L22.8494624,29.8833333 C22.8494624,30.25 22.8494624,30.525 22.9408602,30.7083333 C22.9408602,30.8916667 23.0322581,30.9833333 23.1236559,31.1666667 C23.3978495,31.4416667 23.9462366,31.625 24.5860215,31.625 C25.3172043,31.625 25.7741935,31.4416667 26.0483871,31.1666667 C26.1397849,31.075 26.2311828,30.8916667 26.2311828,30.7083333 C26.2311828,30.525 26.3225806,30.25 26.3225806,29.8833333 L26.3225806,26.7666667 C26.3225806,26.675 26.3225806,26.5833333 26.2311828,26.5833333 C26.2311828,26.4916667 26.1397849,26.4916667 26.0483871,26.4916667 L26.0483871,26.3083333 L27.8763441,26.3083333 L27.8763441,26.4916667 C27.7849462,26.4916667 27.6935484,26.5833333 27.6935484,26.5833333 C27.6935484,26.4916667 27.6935484,26.5833333 27.6935484,26.675 Z" id="Path"></path>
                <path d="M31.5322581,29.8833333 L31.5322581,31.9 C31.5322581,31.9916667 31.5322581,32.0833333 31.6236559,32.0833333 C31.6236559,32.175 31.7150538,32.175 31.8064516,32.175 L31.8064516,32.3583333 L29.8870968,32.3583333 L29.8870968,32.175 C29.9784946,32.175 30.0698925,32.0833333 30.0698925,32.0833333 C30.0698925,31.9916667 30.1612903,31.9916667 30.1612903,31.9 L30.1612903,26.675 C30.1612903,26.5833333 30.1612903,26.4916667 30.0698925,26.4916667 C30.0698925,26.4 29.9784946,26.4 29.8870968,26.4 L29.8870968,26.2166667 L33.8172043,26.2166667 C34.2741935,26.2166667 34.6397849,26.2166667 34.9139785,26.3083333 C35.188172,26.4 35.4623656,26.4916667 35.6451613,26.5833333 C35.9193548,26.7666667 36.1021505,26.95 36.1935484,27.225 C36.2849462,27.5 36.3763441,27.775 36.3763441,28.05 C36.3763441,29.0583333 35.827957,29.7 34.7311828,29.7916667 L35.9193548,31.5333333 C36.1021505,31.8083333 36.2849462,31.9916667 36.3763441,32.0833333 C36.4677419,32.175 36.5591398,32.175 36.7419355,32.2666667 L36.7419355,32.45 L34.5483871,32.45 L34.5483871,32.2666667 C34.7311828,32.2666667 34.8225806,32.175 34.8225806,32.0833333 C34.8225806,31.9916667 34.7311828,31.9 34.6397849,31.7166667 L33.3602151,29.8833333 L31.5322581,29.8833333 L31.5322581,29.8833333 Z M31.5322581,28.7833333 L33.6344086,28.7833333 C33.9086022,28.7833333 34.1827957,28.7833333 34.2741935,28.7833333 C34.3655914,28.7833333 34.5483871,28.6916667 34.6397849,28.6916667 C34.9139785,28.6 35.0053763,28.325 35.0053763,28.05 C35.0053763,27.6833333 34.9139785,27.5 34.6397849,27.4083333 C34.5483871,27.3166667 34.4569892,27.3166667 34.2741935,27.3166667 C34.1827957,27.3166667 33.9086022,27.3166667 33.6344086,27.3166667 L31.5322581,27.3166667 L31.5322581,28.7833333 Z" id="Shape"></path>
                <path d="M42.8655914,30.8 L40.0322581,30.8 L39.5752688,31.7166667 C39.483871,31.8083333 39.483871,31.9 39.483871,31.9916667 C39.483871,32.0833333 39.5752688,32.175 39.7580645,32.2666667 L39.7580645,32.45 L37.7473118,32.45 L37.7473118,32.2666667 C37.8387097,32.2666667 37.9301075,32.175 38.0215054,32.175 C38.1129032,32.0833333 38.1129032,31.9916667 38.2043011,31.8083333 L40.4892473,27.0416667 C40.5806452,26.8583333 40.5806452,26.7666667 40.5806452,26.675 C40.5806452,26.4916667 40.4892473,26.4 40.3064516,26.4 L40.3064516,26.2166667 L42.5,26.2166667 L42.5,26.4 C42.3172043,26.4916667 42.2258065,26.5833333 42.2258065,26.675 C42.2258065,26.7666667 42.2258065,26.8583333 42.3172043,26.95 L44.6935484,31.7166667 C44.7849462,31.9 44.8763441,32.0833333 44.9677419,32.175 C45.0591398,32.2666667 45.1505376,32.2666667 45.2419355,32.3583333 L45.2419355,32.5416667 L42.9569892,32.5416667 L42.9569892,32.3583333 C43.1397849,32.3583333 43.2311828,32.2666667 43.2311828,32.0833333 C43.2311828,31.9916667 43.2311828,31.9 43.1397849,31.8083333 L42.8655914,30.8 Z M42.5,29.975 L41.4946237,27.775 L40.4892473,29.975 L42.5,29.975 Z" id="Shape"></path>
                <path d="M48.3494624,28.1416667 L48.3494624,31.9 C48.3494624,31.9916667 48.3494624,32.0833333 48.4408602,32.0833333 C48.4408602,32.175 48.5322581,32.175 48.6236559,32.175 L48.6236559,32.3583333 L46.7956989,32.3583333 L46.7956989,32.175 C46.8870968,32.175 46.9784946,32.0833333 46.9784946,32.0833333 C46.9784946,31.9916667 47.0698925,31.9916667 47.0698925,31.9 L47.0698925,26.675 C47.0698925,26.5833333 47.0698925,26.4916667 46.9784946,26.4916667 C46.9784946,26.4 46.8870968,26.4 46.7956989,26.4 L46.7956989,26.2166667 L48.8978495,26.2166667 L48.8978495,26.4 C48.8064516,26.4 48.7150538,26.4916667 48.7150538,26.5833333 C48.7150538,26.675 48.7150538,26.7666667 48.8064516,26.8583333 L52.188172,30.4333333 L52.188172,26.7666667 C52.188172,26.675 52.188172,26.5833333 52.0967742,26.5833333 C52.0967742,26.4916667 52.0053763,26.4916667 51.9139785,26.4916667 L51.9139785,26.3083333 L53.7419355,26.3083333 L53.7419355,26.4916667 C53.6505376,26.4916667 53.5591398,26.5833333 53.5591398,26.5833333 C53.5591398,26.675 53.4677419,26.675 53.4677419,26.7666667 L53.4677419,31.9916667 C53.4677419,32.0833333 53.4677419,32.175 53.5591398,32.175 C53.5591398,32.2666667 53.6505376,32.2666667 53.7419355,32.2666667 L53.7419355,32.45 L51.8225806,32.45 L51.8225806,32.2666667 C51.9139785,32.2666667 52.0053763,32.175 52.0053763,32.0833333 C52.0053763,31.9916667 51.9139785,31.9 51.8225806,31.8083333 L48.3494624,28.1416667 Z" id="Path"></path>
                <path d="M61.7849462,30.25 L62.6075269,31.5333333 L62.516129,31.625 C62.4247312,31.5333333 62.3333333,31.5333333 62.3333333,31.5333333 C62.2419355,31.5333333 62.1505376,31.625 61.8763441,31.7166667 C61.327957,31.9916667 60.9623656,32.175 60.5967742,32.3583333 C60.2311828,32.45 59.8655914,32.5416667 59.3172043,32.5416667 C58.311828,32.5416667 57.5806452,32.2666667 56.9408602,31.8083333 C56.5752688,31.5333333 56.3010753,31.1666667 56.0268817,30.8 C55.7526882,30.3416667 55.6612903,29.8833333 55.6612903,29.2416667 C55.6612903,28.5083333 55.844086,27.8666667 56.3010753,27.3166667 C56.9408602,26.4916667 57.9462366,26.0333333 59.3172043,26.0333333 C59.7741935,26.0333333 60.2311828,26.125 60.5967742,26.2166667 C60.9623656,26.3083333 61.4193548,26.4916667 61.8763441,26.8583333 C62.1505376,27.0416667 62.2419355,27.0416667 62.3333333,27.0416667 C62.4247312,27.0416667 62.4247312,27.0416667 62.516129,26.95 L62.6075269,27.0416667 L61.7849462,28.325 L61.6935484,28.2333333 C61.6935484,28.1416667 61.6935484,28.1416667 61.6935484,28.1416667 C61.6935484,28.05 61.6935484,27.9583333 61.6021505,27.8666667 C61.5107527,27.775 61.4193548,27.6833333 61.2365591,27.5916667 C60.688172,27.3166667 60.1397849,27.1333333 59.5,27.1333333 C58.7688172,27.1333333 58.2204301,27.3166667 57.8548387,27.6833333 C57.3978495,28.1416667 57.1236559,28.6 57.1236559,29.3333333 C57.1236559,29.975 57.3978495,30.525 57.8548387,30.9833333 C58.311828,31.35 58.8602151,31.5333333 59.5,31.5333333 C60.1397849,31.5333333 60.688172,31.35 61.2365591,31.075 C61.4193548,30.9833333 61.6021505,30.8916667 61.6021505,30.8 C61.6935484,30.7083333 61.6935484,30.6166667 61.6935484,30.525 C61.6935484,30.525 61.6935484,30.4333333 61.6935484,30.4333333 L61.7849462,30.25 Z" id="Path"></path>
                <path d="M66.172043,29.6083333 L66.172043,31.35 L70.1935484,31.35 C70.2849462,31.35 70.3763441,31.35 70.3763441,31.2583333 C70.4677419,31.2583333 70.4677419,31.1666667 70.4677419,31.075 L70.6505376,31.075 L70.6505376,32.725 L70.4677419,32.725 C70.4677419,32.6333333 70.3763441,32.5416667 70.3763441,32.5416667 C70.2849462,32.5416667 70.2849462,32.45 70.1935484,32.45 L64.6182796,32.45 L64.6182796,32.2666667 C64.7096774,32.2666667 64.8010753,32.175 64.8010753,32.175 C64.8010753,32.0833333 64.8924731,32.0833333 64.8924731,31.9916667 L64.8924731,26.7666667 C64.8924731,26.675 64.8924731,26.5833333 64.8010753,26.5833333 C64.8010753,26.4916667 64.7096774,26.4916667 64.6182796,26.4916667 L64.6182796,26.3083333 L70.1021505,26.3083333 C70.1935484,26.3083333 70.2849462,26.3083333 70.2849462,26.2166667 C70.3763441,26.2166667 70.3763441,26.125 70.3763441,26.0333333 L70.5591398,26.0333333 L70.5591398,27.5 L70.3763441,27.5 C70.3763441,27.4083333 70.2849462,27.3166667 70.2849462,27.3166667 C70.1935484,27.3166667 70.1935484,27.225 70.1021505,27.225 L66.2634409,27.225 L66.2634409,28.6916667 L68.7311828,28.6916667 C68.8225806,28.6916667 68.9139785,28.6916667 68.9139785,28.6 C69.0053763,28.6 69.0053763,28.5083333 69.0053763,28.4166667 L69.188172,28.4166667 L69.188172,29.975 L69.0053763,29.975 C69.0053763,29.8833333 68.9139785,29.7916667 68.9139785,29.7916667 C68.8225806,29.7916667 68.8225806,29.7 68.7311828,29.7 L66.172043,29.7 L66.172043,29.6083333 Z" id="Path"></path>
            </g>
        </g>
    </g>
</svg>