<svg width="267" height="86" viewBox="0 0 267 86" fill="none" xmlns="http://www.w3.org/2000/svg">
<path d="M62.6513 36.5524L61.3463 36.4596L61.2531 35.4391H66.1933L66.1001 36.4596L65.168 36.5524L64.8883 38.6861V41.0982C63.1173 41.5621 61.3463 41.8404 59.4821 41.8404C54.1691 41.8404 51.3728 38.315 51.3728 33.6764C51.3728 31.7282 51.9321 29.5017 53.3302 28.0173C54.8216 26.3474 57.0586 25.698 59.3889 25.698C61.3463 25.698 63.2105 25.9763 65.0747 26.4402L64.8883 29.1306L63.7698 29.0378L63.6766 27.8318C62.3716 27.1824 61.0667 26.7185 59.5753 26.7185C55.2876 26.7185 53.7963 30.6149 53.7963 33.9547C53.7963 37.6656 55.9401 40.8199 60.321 40.8199C61.1599 40.8199 61.9056 40.7271 62.7445 40.5416V36.5524H62.6513Z" fill="black" stroke="black" stroke-width="0.288" stroke-miterlimit="10" stroke-linecap="round" stroke-linejoin="round"/>
<path d="M69.5488 30.4294L69.0828 29.0378L68.5235 28.9451L68.4303 28.1101H72.2519L72.1587 28.9451L71.1334 29.0378L73.4637 38.0367L76.5396 28.2029H77.5649L80.6409 38.1295L83.4372 29.0378L82.3187 28.9451L82.2255 28.1101H85.4878L85.3946 28.9451L84.8353 29.0378L84.0897 30.8933L80.8273 41.3766H79.802L76.6328 31.2644L73.3705 41.3766H72.4383L69.5488 30.4294Z" fill="black" stroke="black" stroke-width="0.288" stroke-miterlimit="10" stroke-linecap="round" stroke-linejoin="round"/>
<path d="M88.657 30.7077L88.5638 29.0378L87.7249 28.9451L87.6317 28.1101H91.5466L91.4533 28.9451L90.6144 29.0378L90.5212 30.7077V38.5934L90.6144 40.2633L91.4533 40.3561L91.5466 41.191H87.6317L87.7249 40.3561L88.5638 40.2633L88.657 38.5934V30.7077Z" fill="black" stroke="black" stroke-width="0.288" stroke-miterlimit="10" stroke-linecap="round" stroke-linejoin="round"/>
<path d="M94.9021 30.7077L94.8089 29.0378L93.97 28.9451L93.8768 28.1101H96.4867L104.223 38.7789V30.7077L104.13 29.0378L103.291 28.9451L103.198 28.1101H106.833L106.74 28.9451L105.901 29.0378L105.808 30.7077V41.3766H104.13L96.5799 30.8933V38.5934L96.6731 40.2633L97.512 40.3561L97.6053 41.191H93.97L94.0633 40.3561L94.9021 40.2633L94.9954 38.5934V30.7077H94.9021Z" fill="black" stroke="black" stroke-width="0.288" stroke-miterlimit="10" stroke-linecap="round" stroke-linejoin="round"/>
<path d="M109.723 30.7077L109.629 29.0378L108.79 28.9451L108.697 28.1101H111.307L119.044 38.7789V30.7077L118.95 29.0378L118.112 28.9451L118.018 28.1101H121.654L121.56 28.9451L120.721 29.0378L120.628 30.7077V41.3766H118.95L111.4 30.8933V38.5934L111.494 40.2633L112.332 40.3561L112.426 41.191H108.79L108.884 40.3561L109.723 40.2633L109.816 38.5934V30.7077H109.723Z" fill="black" stroke="black" stroke-width="0.288" stroke-miterlimit="10" stroke-linecap="round" stroke-linejoin="round"/>
<path d="M220.084 30.4293L219.991 28.7594L219.152 28.6666L219.058 27.8316H221.668L229.405 38.5005V30.4293L229.312 28.7594L228.473 28.6666L228.38 27.8316H232.015L231.922 28.6666L231.083 28.7594L230.989 30.4293V41.0981H229.312L221.762 30.6148V38.3149L221.855 39.9848L222.694 40.0776L222.787 40.9126H219.152L219.245 40.0776L220.084 39.9848L220.177 38.3149V30.4293H220.084Z" fill="black" stroke="black" stroke-width="0.288" stroke-miterlimit="10" stroke-linecap="round" stroke-linejoin="round"/>
<path d="M123.518 41.191L123.611 40.3561L124.45 40.2633L124.543 38.5934V30.7077L124.45 29.0378L123.611 28.9451L123.518 28.1101H132.373L132.28 30.0583L131.348 29.9655L131.254 29.0378L129.297 28.9451H126.501V33.862H131.348L131.254 34.8825L128.924 34.7897H126.501V38.5934L126.594 40.2633H129.763L131.627 40.1705L131.72 39.15L132.652 39.0572L132.746 41.191H123.518Z" fill="black" stroke="black" stroke-width="0.288" stroke-miterlimit="10" stroke-linecap="round" stroke-linejoin="round"/>
<path d="M186.435 26.069L186.248 28.4811L185.037 28.3883L184.85 27.275C183.639 26.6256 182.334 26.2545 180.935 26.2545C178.885 26.2545 177.114 26.9967 176.088 28.5738C175.063 29.9654 174.597 31.8209 174.597 33.4908C174.597 37.0161 176.927 40.3559 181.401 40.3559C183.172 40.3559 185.13 39.8921 186.528 38.9644V40.1704C184.85 41.0981 182.8 41.3764 180.935 41.3764C178.326 41.3764 176.088 40.8198 174.317 39.0571C172.64 37.3872 172.08 35.3462 172.08 33.2125C172.08 31.2642 172.733 28.9449 174.224 27.4606C175.902 25.6979 178.232 25.234 180.842 25.234C182.706 25.234 184.198 25.5124 186.062 25.8835L186.435 26.069Z" fill="black" stroke="black" stroke-width="0.288" stroke-miterlimit="10" stroke-linecap="round" stroke-linejoin="round"/>
<path d="M120.716 54.3645L120.623 56.4055L119.598 56.3127L119.505 55.385C118.479 54.8284 117.454 54.5501 116.242 54.5501C114.564 54.5501 113.166 55.1995 112.234 56.4983C111.395 57.7043 111.022 59.2815 111.022 60.673C111.022 63.6418 112.887 66.4249 116.615 66.4249C118.013 66.4249 119.691 65.9611 120.809 65.3117V66.3322C119.411 67.0743 117.734 67.3527 116.149 67.3527C114.005 67.3527 112.141 66.8888 110.743 65.4044C109.345 64.0129 108.879 62.2502 108.879 60.4875C108.879 58.8176 109.438 56.8694 110.65 55.6633C112.048 54.179 114.005 53.8079 116.056 53.8079C117.64 53.8079 118.852 53.9934 120.343 54.3645H120.716Z" fill="black" stroke="black" stroke-width="0.288" stroke-miterlimit="10" stroke-linecap="round" stroke-linejoin="round"/>
<path d="M155.857 54.3645L155.763 56.4055L154.738 56.3127L154.645 55.385C153.62 54.8284 152.594 54.5501 151.382 54.5501C149.611 54.5501 148.213 55.1995 147.374 56.4983C146.535 57.7043 146.163 59.2815 146.163 60.673C146.163 63.6418 148.027 66.4249 151.755 66.4249C153.153 66.4249 154.831 66.0538 155.95 65.3117V66.3322C154.552 67.0743 152.874 67.3527 151.289 67.3527C149.145 67.3527 147.281 66.8888 145.883 65.4044C144.485 64.0129 144.019 62.2502 144.019 60.4875C144.019 58.8176 144.578 56.8694 145.79 55.6633C147.188 54.179 149.145 53.8079 151.196 53.8079C152.781 53.8079 153.992 54.0862 155.484 54.3645H155.857Z" fill="black" stroke="black" stroke-width="0.288" stroke-miterlimit="10" stroke-linecap="round" stroke-linejoin="round"/>
<path d="M205.263 30.4293L205.17 28.7594L204.331 28.6666L204.238 27.8316H208.433L208.339 28.6666L207.5 28.7594L207.407 30.4293V35.439C207.407 36.3667 207.407 37.7583 207.78 38.5932C208.246 39.7993 209.644 40.3559 210.949 40.3559C212.068 40.3559 213.373 39.8921 213.932 39.0571C214.584 38.1294 214.491 36.8306 214.491 35.8101V30.4293L214.398 28.7594L213.559 28.6666L213.466 27.8316H217.194L217.101 28.6666L216.262 28.7594L216.169 30.4293V35.3462C216.169 36.7378 216.262 38.1294 215.33 39.4282C214.305 40.8198 212.813 41.2836 210.949 41.2836C209.365 41.2836 207.687 41.0053 206.662 39.7993C205.636 38.686 205.543 37.2017 205.543 35.9028V30.4293H205.263Z" fill="black" stroke="black" stroke-width="0.288" stroke-miterlimit="10" stroke-linecap="round" stroke-linejoin="round"/>
<path d="M65.629 56.3128L65.5357 54.6429L64.6969 54.5501L64.6036 53.7151H68.7981L68.7049 54.5501L67.866 54.6429L67.7728 56.3128V61.3225C67.7728 62.2502 67.7728 63.6418 68.1456 64.4767C68.6117 65.6828 70.0098 66.2394 71.3148 66.2394C72.4333 66.2394 73.7383 65.7756 74.2975 64.9406C74.95 64.0129 74.8568 62.7141 74.8568 61.6936V56.3128L74.7636 54.6429L73.9247 54.5501L73.8315 53.7151H77.5599L77.4667 54.5501L76.6278 54.6429L76.5346 56.3128V61.2297C76.5346 62.6213 76.6278 64.0129 75.6957 65.3117C74.6704 66.7033 73.179 67.1671 71.3148 67.1671C69.7302 67.1671 68.0524 66.8888 67.0271 65.6828C66.0018 64.5695 65.9086 63.0852 65.9086 61.7863V56.3128H65.629Z" fill="black" stroke="black" stroke-width="0.288" stroke-miterlimit="10" stroke-linecap="round" stroke-linejoin="round"/>
<path d="M239.005 28.6666H236.582L234.904 28.7594L234.811 29.7799L233.879 29.8727L233.786 27.7389H246.183L246.089 29.8727L245.157 29.7799L245.064 28.7594L243.386 28.6666H240.963V38.3149L241.056 39.9849L241.895 40.0776L241.988 40.9126H238.073L238.167 40.0776L239.005 39.9849L239.099 38.3149V28.6666H239.005Z" fill="black" stroke="black" stroke-width="0.288" stroke-miterlimit="10" stroke-linecap="round" stroke-linejoin="round"/>
<path d="M139.55 28.9451H137.127L135.449 29.0378L135.356 30.0583L134.423 30.1511L134.33 28.0173H146.82L146.727 30.1511L145.795 30.0583L145.702 29.0378L144.024 28.9451H141.601V38.5934L141.694 40.2633L142.533 40.3561L142.626 41.191H138.711L138.804 40.3561L139.643 40.2633L139.736 38.5934V28.9451H139.55Z" fill="black" stroke="black" stroke-width="0.288" stroke-miterlimit="10" stroke-linecap="round" stroke-linejoin="round"/>
<path d="M153.811 28.9451H151.388L149.71 29.0378L149.617 30.0583L148.685 30.1511L148.591 28.0173H161.082L160.988 30.1511L160.056 30.0583L159.963 29.0378L158.285 28.9451H155.862V38.5934L155.955 40.2633L156.794 40.3561L156.887 41.191H152.972L153.065 40.3561L153.904 40.2633L153.998 38.5934V28.9451H153.811Z" fill="black" stroke="black" stroke-width="0.288" stroke-miterlimit="10" stroke-linecap="round" stroke-linejoin="round"/>
<path d="M249.818 30.2437L248.793 28.7594L248.233 28.6666L248.14 27.8316H252.148L252.055 28.6666L251.123 28.7594L254.292 33.8619L257.554 28.7594L256.622 28.6666L256.529 27.8316H259.605L259.512 28.6666L258.953 28.7594L257.648 30.6148L254.758 35.0679V38.3149L254.851 39.9848L255.69 40.0776L255.783 40.9126H251.869L251.962 40.0776L252.801 39.9848L252.894 38.3149V35.0679L249.818 30.2437Z" fill="black" stroke="black" stroke-width="0.288" stroke-miterlimit="10" stroke-linecap="round" stroke-linejoin="round"/>
<path d="M55.003 65.6829L56.4011 65.7757L56.4943 66.7962H51.5542L51.6474 65.7757L52.5795 65.6829L52.6727 63.7347V54.4575L52.5795 52.5093L51.6474 52.4165L51.5542 51.396H57.8925C60.6888 51.396 62.6462 52.602 62.6462 55.3852C62.6462 57.0551 61.9006 58.6322 60.316 59.4672C58.8246 60.2094 56.9604 60.3949 55.3758 60.3949H55.003V65.6829ZM55.3758 59.3744C56.6808 59.3744 57.8925 59.3744 58.9178 58.5395C59.8499 57.7973 60.2228 56.5912 60.2228 55.3852C60.2228 53.2514 59.011 52.3237 56.8672 52.3237C56.2147 52.3237 55.5623 52.4165 54.9098 52.602V59.3744H55.3758Z" fill="black" stroke="black" stroke-width="0.288" stroke-miterlimit="10" stroke-linecap="round" stroke-linejoin="round"/>
<path d="M79.5173 66.8888L79.6106 66.0538L80.4494 65.9611L80.5427 64.2912V56.4055L80.4494 54.7356L79.6106 54.6428L79.5173 53.8079H84.1779C85.11 53.8079 86.1353 53.8079 86.9742 54.2718C87.8131 54.7356 88.3723 55.7561 88.3723 56.6838C88.3723 58.4465 86.8809 59.6526 85.2964 60.1164C87.2538 60.302 89.0248 61.6008 89.0248 63.549C89.0248 64.6623 88.4655 65.6828 87.4402 66.3322C86.4149 66.9816 85.11 66.8888 83.9914 66.8888H79.5173ZM82.6865 59.6526C83.6186 59.6526 84.4575 59.7453 85.2032 59.1887C85.9489 58.6321 86.3217 57.7971 86.3217 56.8694C86.3217 54.6428 84.3643 54.5501 82.5001 54.5501H82.3136V59.5598H82.6865V59.6526ZM83.805 65.9611C84.6439 65.9611 85.4828 65.7755 86.1353 65.2189C86.6945 64.755 86.9742 64.0128 86.9742 63.3634C86.9742 61.4152 84.8303 60.4875 83.0593 60.4875H82.5001V64.1984L82.5933 65.8683L83.805 65.9611Z" fill="black" stroke="black" stroke-width="0.288" stroke-miterlimit="10" stroke-linecap="round" stroke-linejoin="round"/>
<path d="M92.3804 56.3128L92.2872 54.6429L91.4483 54.5501L91.3551 53.7151H95.27L95.1767 54.5501L94.3378 54.6429L94.2446 56.3128V64.1984L94.3378 65.8683H97.507L99.4644 65.7756L99.5576 64.5695L100.49 64.4767L100.583 66.8888H91.3551L91.4483 66.0539L92.2872 65.9611L92.3804 64.2912V56.3128Z" fill="black" stroke="black" stroke-width="0.288" stroke-miterlimit="10" stroke-linecap="round" stroke-linejoin="round"/>
<path d="M103.752 56.3128L103.659 54.6429L102.82 54.5501L102.727 53.7151H106.642L106.548 54.5501L105.709 54.6429L105.616 56.3128V64.1984L105.709 65.8683L106.548 65.9611L106.642 66.796H102.727L102.82 65.9611L103.659 65.8683L103.752 64.1984V56.3128Z" fill="black" stroke="black" stroke-width="0.288" stroke-miterlimit="10" stroke-linecap="round" stroke-linejoin="round"/>
<path d="M131.902 64.0129L133.02 64.1057L133.113 65.1262C134.046 65.6828 135.071 66.2395 136.189 66.2395C138.054 66.2395 139.545 65.1262 139.545 63.3635C139.545 61.4153 137.96 60.6731 136.376 59.8382C134.418 58.8177 131.995 57.6116 131.995 55.1995C131.995 54.0863 132.554 53.0658 133.393 52.2308C134.325 51.3959 135.444 51.0248 136.749 51.0248C138.147 51.0248 139.545 51.2103 140.943 51.6742L140.85 54.0863L139.731 53.9935L139.638 52.973C138.799 52.5091 137.774 52.1381 136.842 52.1381C135.35 52.1381 134.325 53.3441 134.325 54.7357C134.325 56.4056 135.817 57.1478 137.121 57.8899C138.054 58.4466 139.265 59.0032 140.104 59.6526C141.223 60.4876 141.782 61.5081 141.782 62.8996C141.782 65.6828 139.265 67.3527 136.469 67.3527C134.884 67.3527 133.3 67.0744 131.808 66.6105L131.902 64.0129Z" fill="black" stroke="black" stroke-width="0.288" stroke-miterlimit="10" stroke-linecap="round" stroke-linejoin="round"/>
<path d="M161.449 64.1984L161.542 65.8683L162.381 65.9611L162.475 66.796H158.56L158.653 65.9611L159.492 65.8683L159.585 64.1984V56.3128L159.492 54.6429L158.653 54.5501L158.56 53.7151H162.475L162.381 54.5501L161.542 54.6429L161.449 56.3128V59.5598H168.533V56.3128L168.44 54.6429L167.601 54.5501L167.508 53.7151H171.423L171.33 54.5501L170.491 54.6429L170.397 56.3128V64.1984L170.491 65.8683L171.33 65.9611L171.423 66.796H167.508L167.601 65.9611L168.44 65.8683L168.533 64.1984V60.4875H161.449V64.1984Z" fill="black" stroke="black" stroke-width="0.288" stroke-miterlimit="10" stroke-linecap="round" stroke-linejoin="round"/>
<path d="M175.431 65.3117C174.126 63.9202 173.753 62.2502 173.753 60.4876C173.753 58.7249 174.126 57.055 175.338 55.6634C176.643 54.1791 178.507 53.5296 180.557 53.5296C182.515 53.5296 184.286 54.0863 185.591 55.4779C186.989 56.8695 187.362 58.6321 187.362 60.4876C187.362 62.1575 186.989 63.9201 185.777 65.219C184.472 66.7033 182.608 67.3527 180.557 67.3527C178.6 67.26 176.736 66.7033 175.431 65.3117ZM185.311 60.3948C185.311 57.7044 184.193 54.3646 180.557 54.3646C176.922 54.3646 175.804 57.7044 175.804 60.3948C175.804 63.0852 176.922 66.425 180.557 66.425C184.193 66.425 185.311 63.0852 185.311 60.3948Z" fill="black" stroke="black" stroke-width="0.288" stroke-miterlimit="10" stroke-linecap="round" stroke-linejoin="round"/>
<path d="M190.997 65.3117C189.692 63.9202 189.319 62.2502 189.319 60.4876C189.319 58.7249 189.692 57.055 190.904 55.6634C192.209 54.1791 194.073 53.5296 196.124 53.5296C198.081 53.5296 199.852 54.0863 201.157 55.4779C202.555 56.8695 202.928 58.6321 202.928 60.4876C202.928 62.1575 202.555 63.9201 201.343 65.219C200.039 66.7033 198.174 67.3527 196.124 67.3527C194.166 67.26 192.302 66.7033 190.997 65.3117ZM200.877 60.3948C200.877 57.7044 199.759 54.3646 196.124 54.3646C192.489 54.3646 191.37 57.7044 191.37 60.3948C191.37 63.0852 192.489 66.425 196.124 66.425C199.759 66.425 200.877 63.0852 200.877 60.3948Z" fill="black" stroke="black" stroke-width="0.288" stroke-miterlimit="10" stroke-linecap="round" stroke-linejoin="round"/>
<path d="M190.816 39.6137C189.511 38.2222 189.138 36.4595 189.138 34.7896C189.138 33.0269 189.511 31.357 190.723 29.9654C192.027 28.4811 193.892 27.8316 195.942 27.8316C197.9 27.8316 199.671 28.3883 200.976 29.7799C202.374 31.1715 202.747 32.9341 202.747 34.7896C202.747 36.4595 202.374 38.2222 201.162 39.521C199.857 41.0053 197.993 41.6547 195.942 41.6547C193.985 41.6547 192.121 41.0053 190.816 39.6137ZM200.696 34.7896C200.696 32.0992 199.578 28.7594 195.942 28.7594C192.307 28.7594 191.189 32.0992 191.189 34.7896C191.189 37.48 192.307 40.8198 195.942 40.8198C199.578 40.727 200.696 37.3872 200.696 34.7896Z" fill="black" stroke="black" stroke-width="0.288" stroke-miterlimit="10" stroke-linecap="round" stroke-linejoin="round"/>
<path d="M206.097 56.3128L206.004 54.6429L205.165 54.5501L205.072 53.7151H208.987L208.894 54.5501L208.055 54.6429L207.961 56.3128V64.1984L208.055 65.8683H211.224L213.181 65.7756L213.274 64.5695L214.207 64.4767L214.3 66.8888H205.072L205.165 66.0539L206.004 65.9611L206.097 64.2912V56.3128Z" fill="black" stroke="black" stroke-width="0.288" stroke-miterlimit="10" stroke-linecap="round" stroke-linejoin="round"/>
<path d="M216.537 64.4768L217.469 64.5696L217.562 65.4973C218.308 65.9612 219.24 66.425 220.172 66.425C221.756 66.425 222.968 65.4973 222.968 63.9202C222.968 62.2503 221.663 61.6936 220.265 60.9515C218.587 60.0237 216.537 59.0032 216.537 56.9622C216.537 56.0345 217.003 55.1068 217.655 54.4574C218.401 53.7152 219.426 53.4369 220.545 53.4369C221.756 53.4369 222.968 53.6224 224.087 53.9935L223.994 56.0345L223.061 55.9417L222.968 55.014C222.223 54.6429 221.384 54.2718 220.545 54.2718C219.24 54.2718 218.401 55.2923 218.401 56.4984C218.401 57.9827 219.613 58.5394 220.824 59.1888C221.663 59.6526 222.689 60.2093 223.434 60.6731C224.366 61.3225 224.832 62.2503 224.832 63.4563C224.832 65.8684 222.689 67.26 220.358 67.26C219.053 67.26 217.655 66.9817 216.443 66.7033L216.537 64.4768Z" fill="black" stroke="black" stroke-width="0.288" stroke-miterlimit="10" stroke-linecap="round" stroke-linejoin="round"/>
<path fill-rule="evenodd" clip-rule="evenodd" d="M24.8959 78.207C26.3872 78.207 27.9718 77.001 28.3446 75.8877C28.3446 75.8877 29.37 76.9082 29.37 79.2275C29.37 82.4746 27.0397 84.0517 24.8959 84.0517C22.752 84.0517 20.4218 82.4746 20.4218 79.2275C20.4218 76.8155 21.4471 75.8877 21.4471 75.8877C21.8199 77.001 23.4977 78.207 24.8959 78.207Z" fill="white"/>
<path fill-rule="evenodd" clip-rule="evenodd" d="M21.1674 5.93736C21.8199 5.65905 22.9384 5.28796 23.3113 5.28796C23.6841 5.28796 27.3193 5.65905 27.3193 9.64826C27.3193 13.6375 22.9384 18.0905 22.9384 20.9665C22.9384 23.8424 25.2687 25.0485 27.2261 25.0485C29.0903 25.0485 31.3274 23.8424 31.5138 20.8737C33.9373 21.2448 36.3607 24.1208 36.3607 26.8112C36.3607 29.5016 34.683 32.7486 32.0731 34.604C28.9039 33.4908 21.8199 33.3052 17.7186 34.6968C14.6427 33.0269 12.8717 28.3883 12.8717 25.5123C12.8717 17.3484 22.9384 13.9158 22.9384 8.72054C22.9384 7.23618 21.8199 6.30845 21.1674 6.21568C20.8878 6.12291 20.8878 6.12291 21.1674 5.93736Z" fill="#9B2743"/>
<path fill-rule="evenodd" clip-rule="evenodd" d="M31.8867 10.1121C34.0305 9.1844 35.2423 11.4109 35.2423 12.9881C35.2423 17.8122 27.7854 18.3689 27.7854 22.7292C26.8533 21.6159 26.4805 20.9665 26.4805 19.2038C26.4805 14.658 32.7256 14.5652 32.7256 11.5037C32.7256 10.8543 32.3527 10.3904 31.8867 10.1121Z" fill="#9B2743"/>
<path fill-rule="evenodd" clip-rule="evenodd" d="M25.4551 75.795C25.6415 75.795 25.5483 75.795 25.6415 75.5166L26.6669 39.2426C26.6669 38.8716 26.5736 38.8716 26.2008 38.8716H23.7773C23.4977 38.8716 23.4045 38.9643 23.3113 39.2426L24.3366 75.5166C24.4298 75.7022 24.3366 75.795 24.523 75.795H25.4551Z" fill="white"/>
<path fill-rule="evenodd" clip-rule="evenodd" d="M22.2859 39.2426C22.2859 39.2426 22.2859 38.9643 21.9131 39.0571C20.7945 39.1499 18.2778 39.7065 17.3457 40.0776C17.0661 40.1704 17.1593 40.3559 17.1593 40.5415L21.2606 75.0528C21.2606 75.0528 21.2606 75.2383 21.447 75.2383C21.7266 75.3311 23.4044 75.7022 23.4044 75.7022C23.4044 75.7022 23.5908 75.795 23.5908 75.5166L22.2859 39.2426Z" fill="white"/>
<path fill-rule="evenodd" clip-rule="evenodd" d="M27.5989 39.2426C27.5989 39.2426 27.5989 38.9643 27.9718 39.0571C29.0903 39.1499 31.607 39.7065 32.5391 40.0776C32.8187 40.1704 32.7255 40.3559 32.7255 40.5415L28.7175 75.1456C28.7175 75.1456 28.7175 75.3311 28.531 75.3311C28.2514 75.4239 26.5736 75.795 26.5736 75.795C26.5736 75.795 26.3872 75.8877 26.3872 75.6094L27.5989 39.2426Z" fill="white"/>
<path fill-rule="evenodd" clip-rule="evenodd" d="M25.4551 75.795C25.6415 75.795 25.5483 75.795 25.6415 75.5166L26.6669 39.2426C26.6669 38.8716 26.5736 38.8716 26.2008 38.8716H23.7773C23.4977 38.8716 23.4045 38.9643 23.3113 39.2426L24.3366 75.5166C24.4298 75.7022 24.3366 75.795 24.523 75.795H25.4551Z" fill="black"/>
<path fill-rule="evenodd" clip-rule="evenodd" d="M24.8958 37.7583C29.9292 37.7583 34.0305 39.4282 34.7762 39.9848C34.9626 40.1704 35.149 40.3559 34.8694 40.3559C34.4965 40.4487 33.7508 40.9126 33.7508 42.1186C33.7508 43.3246 34.5897 44.4379 36.2675 44.4379C37.9453 44.4379 38.9706 43.2319 38.9706 41.8403C38.9706 38.686 34.7762 34.5113 24.8026 34.5113C14.8291 34.5113 10.6346 38.5932 10.6346 41.8403C10.6346 43.2319 11.66 44.4379 13.3377 44.4379C15.0155 44.4379 15.8544 43.3246 15.8544 42.1186C15.8544 40.9126 15.1087 40.4487 14.7359 40.3559C14.5495 40.2631 14.6427 40.0776 14.8291 39.9848C15.8544 39.4282 19.8625 37.8511 24.8958 37.7583Z" fill="black"/>
<path fill-rule="evenodd" clip-rule="evenodd" d="M22.2859 39.2426C22.2859 39.2426 22.2859 38.9643 21.9131 39.0571C20.7945 39.1499 18.2778 39.7065 17.3457 40.0776C17.0661 40.1704 17.1593 40.3559 17.1593 40.5415L21.2606 75.0528C21.2606 75.0528 21.2606 75.2383 21.447 75.2383C21.7266 75.3311 23.4044 75.7022 23.4044 75.7022C23.4044 75.7022 23.5908 75.795 23.5908 75.5166L22.2859 39.2426Z" fill="black"/>
<path fill-rule="evenodd" clip-rule="evenodd" d="M27.5989 39.2426C27.5989 39.2426 27.5989 38.9643 27.9718 39.0571C29.0903 39.1499 31.607 39.7065 32.5391 40.0776C32.8187 40.1704 32.7255 40.3559 32.7255 40.5415L28.7175 75.1456C28.7175 75.1456 28.7175 75.3311 28.531 75.3311C28.2514 75.4239 26.5736 75.795 26.5736 75.795C26.5736 75.795 26.3872 75.8877 26.3872 75.6094L27.5989 39.2426Z" fill="black"/>
<path fill-rule="evenodd" clip-rule="evenodd" d="M20.981 6.12291C21.3539 5.65905 22.8452 5.28796 23.3113 5.28796C23.6841 5.28796 27.3193 5.65905 27.3193 9.64826C27.3193 13.6375 22.9384 18.0905 22.9384 20.9665C22.9384 23.8424 25.2687 25.0485 27.2261 25.0485C29.0903 25.0485 31.3274 23.8424 31.5138 20.8737C33.9373 21.2448 36.3607 24.1208 36.3607 26.8112C36.3607 29.5016 34.683 32.7486 32.0731 34.604C28.9039 33.4908 21.8199 33.3052 17.7186 34.6968C14.6427 33.0269 12.8717 28.3883 12.8717 25.5123C12.8717 17.3484 22.9384 13.9158 22.9384 8.72054C22.9384 7.14341 21.6335 6.21568 20.981 6.12291Z" fill="#9B2743"/>
<path fill-rule="evenodd" clip-rule="evenodd" d="M31.8867 10.1121C34.0305 9.1844 35.2423 11.4109 35.2423 12.9881C35.2423 17.8122 27.7854 18.3689 27.7854 22.7292C26.8533 21.6159 26.4805 20.9665 26.4805 19.2038C26.4805 14.658 32.7256 14.5652 32.7256 11.5037C32.7256 10.8543 32.3527 10.3904 31.8867 10.1121Z" fill="#9B2743"/>
<path fill-rule="evenodd" clip-rule="evenodd" d="M24.8959 78.207C26.3872 78.207 27.9718 77.001 28.3446 75.8877C28.3446 75.8877 29.37 76.9082 29.37 79.2275C29.37 82.4746 27.0397 84.0517 24.8959 84.0517C22.752 84.0517 20.4218 82.4746 20.4218 79.2275C20.4218 76.8155 21.4471 75.8877 21.4471 75.8877C21.8199 77.001 23.4977 78.207 24.8959 78.207Z" fill="black"/>
</svg>
