<svg xmlns="http://www.w3.org/2000/svg" width="154.711" height="77.746" viewBox="0 0 154.711 77.746">
  <g id="Logo" transform="translate(-224.359 -55.797)">
    <g id="Group_3563" data-name="Group 3563" transform="translate(224.359 55.797)">
      <g id="Group_3562" data-name="Group 3562" transform="translate(0 0)">
        <path id="Path_102854" data-name="Path 102854" d="M240.061,230.058v17.573a30.578,30.578,0,0,1-11.788,2.732c-12.2,0-19.914-10.082-19.914-23.071,0-12.031,7.661-22.569,20.12-22.569a16.929,16.929,0,0,1,10.068,3.408l-2.255,5.232a14.936,14.936,0,0,0-7.622-2.326c-7.568,0-12.746,6.364-12.746,16.38,0,10.467,5.946,16.642,12.045,16.642a9.934,9.934,0,0,0,5-1.067v-8.4h-4.258v-4.533Z" transform="translate(-208.359 -173.18)" fill="#00558b"/>
        <path id="Path_102855" data-name="Path 102855" d="M377.1,276.967c-.05-4.216,1.647-8.059,5.5-8.059,3.333,0,4.683,3.275,4.426,8.059Zm16.243,4.561c.5-9.408-2.781-17.29-10.645-17.29-7.194,0-12.852,6.186-12.852,15.881,0,10.414,5.7,17.153,13.313,17.153a16.849,16.849,0,0,0,9.874-3.56l-1.907-4.382a10.832,10.832,0,0,1-6.776,2.521c-4.169,0-7.506-4.41-7.353-10.323Z" transform="translate(-335.641 -220.089)" fill="#00558b"/>
        <path id="Path_102856" data-name="Path 102856" d="M498.874,273.046v26.121h-6.71V267.6h13.544c5.884,0,9,3.906,9,11.842v19.72h-6.686V280.4c0-4.4-1.58-7.351-5.042-7.351Z" transform="translate(-432.053 -222.742)" fill="#00558b"/>
        <path id="Path_102858" data-name="Path 102858" d="M495.068,159.415a4.381,4.381,0,1,1-4.395-4.4A4.378,4.378,0,0,1,495.068,159.415Z" transform="translate(-427.434 -134.004)" fill="#00558b"/>
        <path id="Path_102859" data-name="Path 102859" d="M402.707,171.119a39.115,39.115,0,0,1-50.8.986h-15.6a45.549,45.549,0,0,0,68.477-.986Z" transform="translate(-309.205 -146.693)" fill="#00558b"/>
        <path id="Path_102860" data-name="Path 102860" d="M779.581,276.909c-.049-4.21,1.677-8.059,5.491-8.059,3.365,0,4.722,3.277,4.506,8.059Zm16.241,4.562c.491-9.408-2.765-17.284-10.648-17.284-7.151,0-12.819,6.181-12.819,15.876,0,10.41,5.7,17.159,13.264,17.159a17.122,17.122,0,0,0,9.934-3.565l-1.943-4.388a10.733,10.733,0,0,1-6.746,2.534c-4.184,0-7.521-4.422-7.382-10.332Z" transform="translate(-652.898 -220.048)" fill="#00558b"/>
        <path id="Path_102861" data-name="Path 102861" d="M664.817,214.171h3.662c2.852,0,5.649,1.685,5.649,6.684,0,3.214-1.557,7.934-6.448,7.934h-2.863Zm10.494,18.412c3.3-2.481,5.946-6.247,5.946-12.816,0-7.482-4.533-11.525-11.309-11.525H657.715v44.116h7.1V234.722h4.22l6.89,17.636h8.152Z" transform="translate(-562.539 -175.953)" fill="#00558b"/>
        <path id="Path_102857" data-name="Path 102857" d="M632.519,76.927c.966-1.759,1.57-4.908-3.239-8.09-8.059-5.365.9-13.04.9-13.04s-.658,3.68,5.224,7.55c5.176,3.4,1.62,9.6-2.35,13.58Z" transform="translate(-537.476 -55.797)" fill="#faa41a"/>
      </g>
    </g>
    <g id="Group_3564" data-name="Group 3564" transform="translate(370.331 124.732)">
      <path id="Path_102862" data-name="Path 102862" d="M893.642,390.071a4.407,4.407,0,1,1,4.36-4.408A4.388,4.388,0,0,1,893.642,390.071Zm-.045-8.094a3.681,3.681,0,1,0,3.545,3.709A3.6,3.6,0,0,0,893.6,381.977Zm.907,6.067-.862-1.952h-.59v1.86H891.91v-4.764H893.6c.838,0,1.071.043,1.385.26a1.282,1.282,0,0,1,.573,1.069,1.4,1.4,0,0,1-.833,1.339l.974,1.977ZM893.525,384h-.473v1.207h.473c.474,0,.736-.209.736-.69C894.261,384.092,893.956,384,893.525,384Z" transform="translate(-889.264 -381.26)" fill="#00558b"/>
    </g>
  </g>
</svg>
