<?xml version="1.0" encoding="utf-8"?>
<!-- Generator: Adobe Illustrator 27.2.0, SVG Export Plug-In . SVG Version: 6.00 Build 0)  -->
<svg version="1.1" id="Layer_1" xmlns="http://www.w3.org/2000/svg" xmlns:xlink="http://www.w3.org/1999/xlink" x="0px" y="0px"
	 viewBox="0 0 193.2 48" style="enable-background:new 0 0 193.2 48;" xml:space="preserve">
<style type="text/css">
	.st0{fill:#FFFFFF;}
</style>
<g id="Gentex_Logo" transform="translate(-138.999 -41)">
	<path id="Path_3" class="st0" d="M224.9,84.8c-0.1-0.6-0.7-1.1-1.3-1.1c-1.2,0-1.7,1-1.7,2.1c0,1,0.5,2.1,1.7,2.1
		c0.8,0,1.4-0.6,1.4-1.4c0,0,0,0,0,0h1.3c0,1.4-1.2,2.6-2.7,2.5c0,0,0,0,0,0c-1.8-0.1-3.1-1.6-3-3.4c0.1-1.6,1.4-2.9,3-3
		c1.3-0.1,2.5,0.9,2.6,2.2L224.9,84.8z"/>
	<path id="Path_4" class="st0" d="M234.2,82.6c1.8-0.1,3.3,1.2,3.4,3s-1.2,3.3-3,3.4s-3.3-1.2-3.4-3c0-0.1,0-0.1,0-0.2
		c-0.1-1.6,1.1-3.1,2.7-3.2C234,82.6,234.1,82.6,234.2,82.6 M234.2,87.9c1.2,0,1.7-1,1.7-2.1c0-1.1-0.5-2.1-1.7-2.1s-1.7,1-1.7,2.1
		C232.6,86.8,233,87.9,234.2,87.9"/>
	<path id="Path_5" class="st0" d="M242.5,82.7h3.3c0.9-0.1,1.7,0.6,1.8,1.6c0,0,0,0.1,0,0.1c0.1,0.7-0.3,1.3-1,1.5v0
		c0.7,0.2,0.9,0.8,0.9,1.4c0,0.5,0.1,1,0.3,1.5h-1.3c-0.1-0.5-0.2-1-0.2-1.5c-0.1-0.6-0.3-0.9-1-0.9h-1.3v2.4h-1.3L242.5,82.7z
		 M243.8,85.5h1.5c0.6,0,0.9-0.3,0.9-0.9c0-0.6-0.3-0.8-0.9-0.8h-1.5V85.5z"/>
	<path id="Path_6" class="st0" d="M252.9,82.7h2.8c1.1-0.1,2,0.7,2.1,1.8s-0.7,2-1.8,2.1c-0.1,0-0.2,0-0.3,0h-1.4v2.2h-1.3V82.7z
		 M254.3,85.6h1c0.6,0,1.2-0.1,1.2-0.9s-0.6-0.9-1.2-0.9h-1V85.6z"/>
	<path id="Path_7" class="st0" d="M265.7,82.6c1.8-0.1,3.3,1.2,3.4,3s-1.2,3.3-3,3.4s-3.3-1.2-3.4-3c0-0.1,0-0.1,0-0.2
		c-0.1-1.6,1.1-3.1,2.7-3.2C265.5,82.6,265.6,82.6,265.7,82.6 M265.7,87.9c1.2,0,1.7-1,1.7-2.1c0-1.1-0.5-2.1-1.7-2.1
		s-1.7,1-1.7,2.1C264,86.8,264.5,87.9,265.7,87.9"/>
	<path id="Path_8" class="st0" d="M273.9,82.7h3.3c0.9-0.1,1.7,0.6,1.8,1.6c0,0,0,0.1,0,0.1c0.1,0.7-0.3,1.3-1,1.5v0
		c0.7,0.2,0.9,0.8,0.9,1.4c0,0.5,0.1,1,0.3,1.5h-1.3c-0.1-0.5-0.2-1-0.2-1.5c-0.1-0.6-0.3-0.9-1-0.9h-1.3v2.4h-1.3V82.7z
		 M275.3,85.5h1.5c0.6,0,0.9-0.3,0.9-0.9c0-0.6-0.3-0.8-0.9-0.8h-1.5V85.5z"/>
	<path id="Path_9" class="st0" d="M286.1,82.7h1.4l2.3,6.1h-1.4l-0.5-1.4h-2.3l-0.5,1.4h-1.4L286.1,82.7z M286,86.5h1.6l-0.8-2.3h0
		L286,86.5z"/>
	<path id="Path_10" class="st0" d="M295.3,83.9h-1.8v-1.1h5v1.1h-1.8v5h-1.3V83.9z"/>
	<rect id="Rectangle_43" x="303.5" y="82.7" class="st0" width="1.3" height="6.1"/>
	<path id="Path_11" class="st0" d="M313.1,82.6c1.8-0.1,3.3,1.2,3.4,3s-1.2,3.3-3,3.4c-1.8,0.1-3.3-1.2-3.4-3c0-0.1,0-0.1,0-0.2
		c-0.1-1.6,1.1-3.1,2.7-3.2C312.9,82.6,313,82.6,313.1,82.6 M313.1,87.9c1.2,0,1.7-1,1.7-2.1c0-1.1-0.5-2.1-1.7-2.1s-1.7,1-1.7,2.1
		C311.4,86.8,311.9,87.9,313.1,87.9"/>
	<path id="Path_12" class="st0" d="M321.3,82.7h1.3l2.6,4.1h0v-4.1h1.3v6.1h-1.3l-2.5-4.1h0v4.1h-1.3L321.3,82.7z"/>
	<path id="Path_13" class="st0" d="M171.9,74.6H165l-0.4-3.2c-1,1.2-2.2,2.1-3.6,2.8c-1.9,0.9-4.1,1.3-6.2,1.2
		c-4.1,0.1-8-1.4-11-4.2c-3.1-2.8-4.7-7-4.8-12.6c0-5.3,1.6-9.5,4.6-12.7c3-3.2,7.1-4.8,12.5-4.8c1.9,0,3.8,0.2,5.6,0.7
		c1.7,0.5,3.2,1.3,4.6,2.3c2.9,2.2,4.8,5.5,5.2,9.1h-10.1c-0.6-2.6-2.9-4.3-5.5-4.2c-1.9-0.1-3.7,0.9-4.7,2.6
		c-1.1,2.2-1.7,4.6-1.6,7c-0.1,2.1,0.4,4.3,1.5,6.2c1,1.8,2.9,2.7,5.6,2.7c1.2,0,2.5-0.4,3.5-1.1c1-0.6,1.8-1.5,2.1-2.7h-4.6v-7
		h14.1V74.6z M201,74.5v-7.6h-16v-5.1h13v-7.6h-13v-4.6h15.4v-7.6h-26.1v32.6H201z M212.5,41.9h-9.7v32.6h9.9V64.1l-0.4-7.4
		l11.2,17.8h9.7V41.9h-9.9v10.4l0.4,7.4L212.5,41.9z M235.2,50.4h9.3v24.1h10.7V50.4h9.3v-8.6h-29.3L235.2,50.4z M293.6,74.5v-7.6
		h-16v-5.1h13v-7.6h-13v-4.6H293v-7.6H267v32.6L293.6,74.5z M310.4,65.3l5.1,9.2h11.6l-10.7-16.9L327,41.9h-11.6l-4.5,8.3l-4.5-8.3
		h-11.6l10.1,15.7l-11.2,16.9h11.6L310.4,65.3z"/>
	<path id="Path_14" class="st0" d="M330.1,46.3c-1.2,0-2.1-1-2.1-2.1s1-2.1,2.1-2.1c1.2,0,2.1,1,2.1,2.1v0
		C332.2,45.3,331.3,46.3,330.1,46.3 M330.1,42.3c-1,0-1.9,0.8-1.9,1.9c0,1,0.8,1.9,1.9,1.9c1,0,1.9-0.8,1.9-1.9c0,0,0,0,0,0
		C332,43.1,331.1,42.3,330.1,42.3 M329,45.6v-2.9h1.3c0.2,0,0.4,0,0.6,0.1c0.1,0.1,0.3,0.1,0.3,0.3c0.1,0.1,0.1,0.3,0.1,0.4
		c0,0.2-0.1,0.4-0.2,0.5c-0.2,0.2-0.4,0.3-0.6,0.3c0.1,0,0.2,0.1,0.2,0.1c0.1,0.1,0.2,0.2,0.3,0.4l0.5,0.8H331l-0.4-0.6
		c-0.1-0.2-0.2-0.3-0.3-0.4c-0.1-0.1-0.1-0.1-0.2-0.2c-0.1,0-0.1-0.1-0.2-0.1c-0.1,0-0.1,0-0.2,0h-0.4v1.3L329,45.6z M329.3,44h0.8
		c0.1,0,0.3,0,0.4-0.1c0.1,0,0.2-0.1,0.2-0.2c0.1-0.1,0.1-0.2,0.1-0.3c0-0.1-0.1-0.3-0.1-0.3c-0.1-0.1-0.3-0.1-0.5-0.1h-0.9
		L329.3,44z"/>
</g>
</svg>
