<svg id="Layer_1" data-name="Layer 1" xmlns="http://www.w3.org/2000/svg" viewBox="0 0 1676.94 304.34"><defs><style>.cls-1{fill:#005293;}.cls-2{fill:#fff;}</style></defs><path class="cls-1" d="M375.39,120.53h0L628.75,376.24H425.05c-10,0-16.23,1-22.19,4.26-6.83,3.75-10,8.79-13.85,16.6l-13.62,27.77L361.77,397.1c-3.83-7.81-7-12.85-13.85-16.6-6-3.26-12.23-4.26-22.2-4.26H122Z" transform="translate(-122.02 -120.53)"/><path class="cls-2" d="M368,349.56a161.14,161.14,0,0,1-52.11,8.74c-49.5,0-71.08-25.27-71.08-57.52,0-37,29.38-59.16,72.16-59.16,22.37,0,36,3.9,50.55,9.91v26.19h-3.77c-10.5-8.06-22.58-15-42.61-15-25.28,0-41.19,14-41.19,36.66,0,20,9.94,38.53,42.22,37.39a58.29,58.29,0,0,0,12.14-1.88V314.17H307.82V293.12H368Z" transform="translate(-122.02 -120.53)"/><path class="cls-2" d="M476.65,250.66c-9.22-5.21-21.19-6.62-34.8-6.62H384V355.9h33.72V319.39H441c13.13,0,25.49-1.56,35.41-7.19,11.68-6.61,17.88-17,17.88-32.88,0-13.89-5.94-22-17.67-28.66m-17,30.55c0,8.15-4.41,12.22-9.06,14.37-4.31,2-10.66,2.76-16.35,2.76H417.71V265.09h16.55c5.69,0,12,.25,16.35,2.24,4.65,2.16,9.06,5.73,9.06,13.88" transform="translate(-122.02 -120.53)"/><path d="M1089.42,334.06c-4.4.14-8.45-.86-11.39-3.23-4.74-3.83-6.38-10.2-6.38-18.75,0-14.38,7.12-23.54,18.77-23.39a26,26,0,0,1,12.73,3.64v37a23.06,23.06,0,0,1-13.73,4.7m39.75-62.63H1104l-.43,4.06c-5.74-4.34-13.59-6.6-22.65-6.6-17.6,0-35.7,14.06-36.07,43.7-.32,26.11,13.94,42.62,36.36,42.1,9.57-.22,16-3.53,22-8.65v1.6a35.41,35.41,0,0,1-1,9c-2.54,9.28-11,12.24-21.82,12-8.87-.2-17.45-3-23.81-5.63h-3.16v21.32a142.8,142.8,0,0,0,30.76,3.61c15.64,0,34.42-2.93,41.82-21.53,2.15-5.45,3.23-12.11,3.23-20.06Z" transform="translate(-122.02 -120.53)"/><path d="M778.46,350.1c-7,3.91-22.59,8.44-42.71,8.22-35.18-.41-58.79-21.69-58.79-58.51,0-31.88,21.62-58,59.65-58.18,19.53-.09,31.33,2.82,41.45,7.94v25.74H775c-10.16-9-20.4-13.12-35-12.58-22.14.81-33.66,17-33.85,37.21C706,320.27,715,337.32,740,337.16a34.48,34.48,0,0,0,10.41-1.58V314.83H734v-21.1h44.49Z" transform="translate(-122.02 -120.53)"/><path d="M946.34,313.72c0,16.28-4.91,25.86-17.37,25.86s-17.36-9.58-17.36-25.86,4.91-25.88,17.36-25.88,17.37,9.6,17.37,25.88m26.83,0c0-29.26-17.74-44.83-44.2-44.83s-44.22,15.57-44.22,44.83,17.74,44.82,44.22,44.82,44.2-15.58,44.2-44.82" transform="translate(-122.02 -120.53)"/><path d="M1040.08,297.43h-2.27a35,35,0,0,0-11.42-1.79,27.44,27.44,0,0,0-16.31,4.83V356h-26V271.43h26v12.44c2.52-3.11,8.4-8.39,12.3-10.17a27.87,27.87,0,0,1,11.61-2.47,44.86,44.86,0,0,1,6.09.31Z" transform="translate(-122.02 -120.53)"/><path d="M1401.25,279.36c-.87-26.73-19-35.37-43-35.37h-45.43v54.5H1279.9v21h32.94V356h27.62V319.53h15.68c32.47,0,45.81-18.31,45.11-40.17m-53.39,19.13h-7.4V265.08h10.47c13,0,21.64,3.57,21.64,15.56,0,15.22-11.23,17.85-24.71,17.85" transform="translate(-122.02 -120.53)"/><path d="M1539.42,358.32c-28,0-48-14-48-44.33,0-29.58,19.08-45.1,47.17-45.1a62.19,62.19,0,0,1,28.26,6.76v23.07h-3.67c-7.31-6.92-13.54-10.45-23.44-10.45-13,0-21.48,9.31-21.48,25.72,0,16.93,8.45,24.95,21.88,24.95,10.66,0,16.77-4,23-10.21h3.67V351.8a59.45,59.45,0,0,1-27.46,6.52" transform="translate(-122.02 -120.53)"/><path d="M1606.17,356h-26V271.43h26Zm0-96.44h-26V238.87h26Z" transform="translate(-122.02 -120.53)"/><path d="M1676.08,258.89h-2.94c-3.15-1.58-5.8-2.9-10.35-2.94-3.33,0-6,1-7.3,2.75-1.66,2.16-2.34,4.93-2.34,10.35v2.38h22.93v18.32H1654V356h-26V289.75h-12.06V271.43H1628v-4.95c0-9.56,1.79-15.84,6.56-21,5.08-5.54,13.18-7.29,22.86-7.44a75.27,75.27,0,0,1,18.69,2Z" transform="translate(-122.02 -120.53)"/><path d="M1771.47,358.32c-28,0-47.94-14-47.94-44.33,0-29.58,19.08-45.1,47.16-45.1a62.34,62.34,0,0,1,28.28,6.76v23.07h-3.69c-7.31-6.92-13.53-10.45-23.46-10.45-13,0-21.45,9.31-21.45,25.72,0,16.93,8.43,24.95,21.87,24.95,10.7,0,16.75-4,23-10.21H1799V351.8a59.62,59.62,0,0,1-27.5,6.52" transform="translate(-122.02 -120.53)"/><path d="M1712.87,356h-26V271.43h26Zm0-96.44h-26V238.87h26Z" transform="translate(-122.02 -120.53)"/><path d="M1172.64,356h-26V271.43h26Zm0-96.44h-26V238.87h26Z" transform="translate(-122.02 -120.53)"/><path d="M874.71,314.89c0-10.16-1.74-21.47-7.58-30-6.2-9-17-15.74-32.45-16-30.76-.51-45.34,19.4-45.34,45.9,0,28.8,21.8,43.53,50.2,43.53,15.88,0,25.1-3.77,33.74-8.5V329.57h-2.89c-8.5,6.41-17.71,10.42-28.62,10.3-18.12-.23-25.15-9.42-25.85-19.44h58.79ZM816,304.47a20.2,20.2,0,0,1,3.56-11.28c3.51-4.86,7.65-6.7,14.19-6.79,9.83-.1,15.17,7.25,15.46,18.07Z" transform="translate(-122.02 -120.53)"/><path d="M1440.44,340c-8.7.72-13.53-1.86-13.76-9.36-.25-8.35,6.63-11.51,17.27-13,4.12-.57,7.91-.95,11.42-1.26V334c-3.18,2.82-9.61,5.57-14.93,6m14.93,16H1481V298.39q0-15.25-9.8-22.37c-6.52-4.74-16-7.13-30.69-7.13-5.3,0-21,1.5-30.79,4.16v20.12h2.38c7-3.79,14.46-6.54,23.54-6.64,6.19-.06,11.2.54,14.44,2.24,4.91,2.61,5.47,6.37,5.47,11.19v.46q-11.44.69-22.06,2.1c-23.46,3.13-32.94,13.08-32.94,29.26s11.81,25.91,27,26.54c11.93.49,20.19-2.56,27.9-9.73Z" transform="translate(-122.02 -120.53)"/><path d="M1225.64,340c-8.72.72-13.52-1.86-13.76-9.36-.25-8.35,6.6-11.51,17.26-13,4.09-.57,7.88-.95,11.41-1.26V334c-3.19,2.82-9.6,5.57-14.91,6m14.91,16h25.57V298.39c0-10.17-3.21-17.61-9.77-22.37s-17.12-7.13-31.81-7.13c-5.32,0-22,1.5-31.76,4.16v20.12h2.37a53,53,0,0,1,24.51-6.64c6.21-.06,12.33.54,15.57,2.24,4.9,2.61,5.44,6.37,5.44,11.19v.46q-11.4.69-22.06,2.1c-23.39,3.13-32.94,13.08-32.94,29.26s11.82,25.91,27,26.54c11.89.49,20.15-2.56,27.87-9.73Z" transform="translate(-122.02 -120.53)"/></svg>