<?xml version="1.0" encoding="utf-8"?>
<!-- Generator: Adobe Illustrator 23.1.0, SVG Export Plug-In . SVG Version: 6.00 Build 0)  -->
<svg version="1.1" id="Globe_Life_Logo" xmlns="http://www.w3.org/2000/svg" xmlns:xlink="http://www.w3.org/1999/xlink" x="0px"
	 y="0px" viewBox="0 0 566.93 98.57" style="enable-background:new 0 0 566.93 98.57;" xml:space="preserve">
<style type="text/css">
	.st0{fill:#00558C;}
	.st1{fill:#319B42;}
	.st2{fill:#FFFFFF;}
</style>
<g>
	<g>
		<path class="st0" d="M161.44,85.81c-22.32,0-38.42-14.82-38.42-36.84c0-22.42,16.6-36.74,37.93-36.74
			c10.96,0,21.14,3.66,26.97,9.28l-10.67,12.15c-3.26-3.75-8.89-6.52-15.71-6.52c-11.85,0-20.54,9.28-20.54,21.83
			c0,12.84,7.61,22.03,21.34,22.03c3.95,0,7.61-0.59,10.57-1.88V56.38h-13.33V42.75h28.84v37.04
			C181.59,83.34,172.21,85.81,161.44,85.81z"/>
		<rect x="194.57" y="12.22" class="st0" width="16.4" height="71.81"/>
		<path class="st0" d="M243.01,33.26c-14.82,0-27.26,9.88-27.26,25.98c0,16.1,12.45,26.37,27.26,26.37
			c14.92,0,27.36-10.27,27.36-26.37C270.37,43.14,257.93,33.26,243.01,33.26z M243.11,71.98c-7.61,0-11.66-6.42-11.66-12.74
			s3.95-12.54,11.56-12.54c7.61,0,11.76,6.22,11.76,12.54S250.72,71.98,243.11,71.98z"/>
		<path class="st0" d="M306.16,33.46c-7.21,0-12.25,3.36-15.01,6.62h-0.2V12.22h-16.2v71.81h14.91v-6.42h0.2
			c3.16,4.94,9.58,7.8,16.1,7.8c14.82,0,23.41-12.45,23.41-26.18S320.48,33.46,306.16,33.46z M302.11,71.98
			c-7.31,0-11.85-6.22-11.85-12.64c0-6.22,4.54-12.64,11.85-12.64c7.71,0,11.66,6.22,11.66,12.54
			C313.76,65.66,309.81,71.98,302.11,71.98z"/>
		<path class="st0" d="M383.99,60.03c0-16.79-10.17-26.77-24.69-26.77c-14.92,0-26.57,10.27-26.57,26.37
			c0,16.6,12.25,25.98,27.06,25.98c9.98,0,17.68-3.75,22.32-10.47l-11.26-7.11c-2.17,2.96-5.73,5.14-10.87,5.14
			c-5.83,0-11.26-3.85-11.75-9.28h35.66C383.99,62.7,383.99,61.32,383.99,60.03z M348.23,53.81c0.39-5.04,4.94-9.38,11.16-9.38
			c6.42,0,9.68,4.25,9.68,9.38H348.23z"/>
		<polygon class="st0" points="409.77,84.04 409.77,12.22 426.76,12.22 426.76,69.32 453.82,69.32 453.82,84.04 		"/>
		<g>
			<path class="st0" d="M466.67,28.03c-5.24,0-9.28-4.05-9.28-8.89c0-4.74,4.05-8.89,9.28-8.89c5.14,0,9.28,3.95,9.28,8.89
				C475.96,24.18,471.81,28.03,466.67,28.03z"/>
			<rect x="458.57" y="34.84" class="st0" width="16.2" height="49.19"/>
		</g>
		<path class="st0" d="M516.16,21.31c-1.18-0.39-2.86-0.69-4.44-0.69c-5.93,0-7.21,4.74-7.21,9.28v4.94h10.96v12.15H504.5v37.04
			h-16.2V46.99h-8.99V34.84h8.99V30.1c0-12.05,4.74-22.62,21.14-22.62c2.77,0,5.63,0.3,7.8,0.99L516.16,21.31z"/>
		<path class="st0" d="M566.93,60.03c0-16.79-10.17-26.77-24.69-26.77c-14.92,0-26.57,10.27-26.57,26.37
			c0,16.6,12.25,25.98,27.06,25.98c9.98,0,17.68-3.75,22.32-10.47l-11.26-7.11c-2.17,2.96-5.73,5.14-10.87,5.14
			c-5.83,0-11.26-3.85-11.75-9.28h35.66C566.93,62.7,566.93,61.32,566.93,60.03z M531.17,53.81c0.4-5.04,4.94-9.38,11.16-9.38
			c6.42,0,9.68,4.25,9.68,9.38H531.17z"/>
	</g>
	<g>
		<path class="st1" d="M97.82,40.68c-1.68-9.53-6.1-18.12-12.41-24.92c-0.01,0.12-0.03,0.25-0.04,0.37
			c-0.43,4.98,0.59,9.75,3.05,14.18C90.75,34.52,94.14,38.01,97.82,40.68z M73.64,81.67c3.85-3.91,6.6-7.51,8.17-10.71
			c1.55-3.16,1.9-5.78,1.07-7.98c-0.4-1.06-1.41-2.35-2.83-3.61c-1.63-1.44-3.77-2.85-6.21-4.07c-2.51-1.26-5.29-2.3-8.04-3.01
			c-2.88-0.75-5.63-1.12-8.18-1.12c-2.67,0-4.97,0.42-6.81,1.24c-0.83,0.37-1.7,0.55-2.61,0.55c-1.6,0-3.13-0.59-4.31-1.67
			l-5.92-5.38c-0.83-0.75-1.41-1.72-1.68-2.8c-0.25-1-0.22-2.05,0.08-3.04c0.3-0.99,0.87-1.87,1.63-2.56
			c0.83-0.74,1.85-1.22,2.96-1.38c0.2-0.03,0.41-0.06,0.62-0.09c3.01-0.42,6.12-0.86,9.22-3.26c3.94-3.05,7.18-8.84,9.63-17.21
			c1.2-4.12,1.96-9.1,2.5-13.65C58.59,0.67,54.02,0,49.28,0C35.87,0,23.72,5.36,14.83,14.05c1.35,0.57,2.56,1.38,3.59,2.43
			c1.38,1.41,2.83,3.92,1.85,7.87c-0.46,1.87-1.35,3.69-2.3,5.61c-2.02,4.12-3.25,6.99-2,9.31c0.77,1.36,3.15,4.42,10.49,9.78
			c4.75,3.47,9.58,6.44,12.03,7.91c1.24,0.74,2.2,1.84,2.76,3.18c0.56,1.34,0.68,2.79,0.33,4.21c-0.52,2.11-0.92,4.31-0.41,6.04
			c0.2,0.67,0.8,2.73,5.38,4.35c1.65,0.59,2.96,1.85,3.6,3.48c0.64,1.62,0.55,3.45-0.26,5c-1.44,2.78-4.44,8.53-7.85,14.84
			c2.36,0.35,4.77,0.53,7.23,0.53c1.3,0,2.59-0.05,3.86-0.15C58.97,94.27,67.21,88.19,73.64,81.67z"/>
		<path class="st0" d="M45,79.12c-10.29-3.66-9.17-10.85-7.93-15.89c0.22-0.88-0.17-1.81-0.95-2.27
			c-4.67-2.79-20.3-12.46-24.21-19.43c-4.62-8.43,7.18-17.72,3.19-21.78c-1.02-1.04-2.31-1.65-3.77-1.88C4.25,26.39,0,37.34,0,49.28
			c0,23.07,15.86,42.44,37.27,47.81c3.73-6.87,7.06-13.26,8.5-16.03C46.15,80.32,45.79,79.4,45,79.12z M98.5,46.7
			c-6.06-3.57-11.09-8.57-14.16-14.12c-2.91-5.26-4.13-10.93-3.61-16.85c0.11-1.29,0.31-2.59,0.59-3.9
			c-4.1-3.51-8.78-6.36-13.88-8.38c-0.56,4.47-1.33,9.28-2.54,13.42C58.43,39,48.08,39.8,41.62,40.73
			c-0.83,0.12-1.15,1.15-0.53,1.71l5.92,5.38c0.33,0.3,0.75,0.46,1.18,0.46c0.24,0,0.48-0.05,0.71-0.15
			c2.55-1.14,5.54-1.64,8.71-1.64c12.13,0,26.83,7.4,29.63,14.85C91.5,72.67,76.37,86.7,63.72,96.42
			c20.18-6.17,34.85-24.94,34.85-47.14C98.57,48.42,98.55,47.55,98.5,46.7z"/>
		<path class="st2" d="M97.82,40.68c0.35,1.97,0.58,3.97,0.68,6.01c-6.06-3.57-11.09-8.57-14.16-14.12
			c-2.91-5.26-4.13-10.93-3.61-16.85c0.11-1.29,0.31-2.59,0.59-3.9c1.44,1.23,2.81,2.54,4.09,3.93c-0.01,0.12-0.03,0.25-0.04,0.37
			c-0.43,4.98,0.59,9.75,3.05,14.18C90.75,34.52,94.14,38.01,97.82,40.68z M49.91,83.21c0.8-1.55,0.9-3.37,0.26-5
			c-0.64-1.63-1.95-2.89-3.6-3.48c-4.58-1.63-5.18-3.68-5.38-4.35c-0.51-1.73-0.1-3.93,0.41-6.04c0.35-1.41,0.23-2.87-0.33-4.21
			c-0.56-1.34-1.52-2.43-2.76-3.18c-2.45-1.46-7.28-4.43-12.03-7.91c-7.34-5.36-9.73-8.43-10.49-9.78c-1.25-2.32-0.02-5.19,2-9.31
			c0.94-1.92,1.84-3.74,2.3-5.61c0.97-3.95-0.47-6.46-1.85-7.87c-1.03-1.05-2.24-1.86-3.59-2.43c-1.23,1.21-2.41,2.48-3.51,3.81
			c1.47,0.24,2.75,0.84,3.77,1.88c3.99,4.06-7.81,13.35-3.19,21.78c3.91,6.98,19.54,16.65,24.21,19.43
			c0.78,0.47,1.17,1.39,0.95,2.27c-1.23,5.05-2.36,12.23,7.93,15.89c0.79,0.28,1.15,1.19,0.77,1.94c-1.44,2.77-4.77,9.16-8.5,16.03
			c1.57,0.39,3.16,0.71,4.79,0.95C45.47,91.73,48.46,85.99,49.91,83.21z M87.24,61.34c-2.8-7.45-17.5-14.85-29.63-14.85
			c-3.16,0-6.15,0.5-8.71,1.64c-0.23,0.1-0.47,0.15-0.71,0.15c-0.43,0-0.85-0.16-1.18-0.46l-5.92-5.38c-0.62-0.56-0.3-1.6,0.53-1.71
			C48.08,39.8,58.43,39,64.9,16.87c1.21-4.14,1.98-8.95,2.54-13.42c-1.47-0.58-2.97-1.1-4.51-1.54c-0.54,4.55-1.3,9.53-2.5,13.65
			c-2.44,8.37-5.68,14.16-9.63,17.21c-3.1,2.39-6.21,2.83-9.22,3.26c-0.21,0.03-0.41,0.06-0.62,0.09c-1.11,0.16-2.13,0.64-2.96,1.38
			c-0.77,0.69-1.33,1.57-1.63,2.56c-0.3,0.99-0.33,2.04-0.08,3.04c0.27,1.08,0.85,2.05,1.68,2.8l5.92,5.38
			c1.18,1.08,2.71,1.67,4.31,1.67c0.9,0,1.78-0.19,2.61-0.55c1.85-0.82,4.14-1.24,6.81-1.24c2.55,0,5.31,0.38,8.18,1.12
			c2.75,0.71,5.53,1.75,8.04,3.01c2.43,1.22,4.58,2.63,6.21,4.07c1.43,1.27,2.44,2.55,2.83,3.61c0.83,2.21,0.48,4.82-1.07,7.98
			c-1.56,3.2-4.31,6.8-8.17,10.71c-6.43,6.53-14.67,12.6-20.5,16.75c3.65-0.28,7.19-0.96,10.57-2C76.37,86.7,91.5,72.67,87.24,61.34
			z"/>
	</g>
</g>
</svg>
