<?xml version="1.0" encoding="utf-8"?>
<!-- Generator: Adobe Illustrator 21.1.0, SVG Export Plug-In . SVG Version: 6.00 Build 0)  -->
<svg version="1.1" xmlns="http://www.w3.org/2000/svg" xmlns:xlink="http://www.w3.org/1999/xlink" x="0px" y="0px"
	 viewBox="0 0 390 82" enable-background="new 0 0 390 82" xml:space="preserve">
<g id="full_color_-_horizontal">
	<g>
		<g>
			<g>
				<path fill="#005F9E" d="M105.8,25.8c0-7.3,5.4-12.1,12.1-12.1c4.5,0,7.5,2.2,9.3,4.9l-3.3,1.9c-1.2-1.8-3.4-3.1-6-3.1
					c-4.6,0-8,3.5-8,8.4c0,4.9,3.4,8.5,8,8.5c2.4,0,4.4-1.1,5.5-2.1v-3.6h-6.9V25h11v8.8c-2.3,2.6-5.5,4.2-9.5,4.2
					C111.3,38,105.8,33.2,105.8,25.8z"/>
				<path fill="#005F9E" d="M132.3,29c0-4.8,3.3-8.9,8.6-8.9c5.4,0,8.6,4,8.6,8.9c0,4.9-3.3,8.9-8.6,8.9
					C135.6,37.9,132.3,33.9,132.3,29z M145.8,29c0-3-1.7-5.6-4.9-5.6c-3.1,0-4.8,2.6-4.8,5.6c0,3,1.7,5.6,4.8,5.6
					C144.1,34.7,145.8,32,145.8,29z"/>
				<path fill="#005F9E" d="M154,29c0-4.8,3.3-8.9,8.6-8.9c5.4,0,8.6,4,8.6,8.9c0,4.9-3.3,8.9-8.6,8.9C157.3,37.9,154,33.9,154,29z
					 M167.4,29c0-3-1.7-5.6-4.9-5.6c-3.1,0-4.8,2.6-4.8,5.6c0,3,1.7,5.6,4.8,5.6C165.7,34.7,167.4,32,167.4,29z"/>
				<path fill="#005F9E" d="M188.4,37.5v-2.3c-1.3,1.7-3.2,2.7-5.4,2.7c-4.3,0-7.5-3.3-7.5-8.9c0-5.5,3.1-8.9,7.5-8.9
					c2.1,0,4,1,5.4,2.8v-8.8h3.6v23.4H188.4z M188.4,32.4v-6.7c-0.8-1.3-2.6-2.3-4.3-2.3c-2.9,0-4.7,2.3-4.7,5.6
					c0,3.3,1.8,5.6,4.7,5.6C185.8,34.7,187.6,33.7,188.4,32.4z"/>
				<path fill="#005F9E" d="M202.9,37.5l-6.8-16.9h3.9l4.9,12.7l4.9-12.7h3.9l-6.8,16.9H202.9z"/>
				<path fill="#005F9E" d="M217.2,16.3c0-1.3,1-2.3,2.3-2.3c1.2,0,2.3,1,2.3,2.3c0,1.3-1,2.3-2.3,2.3
					C218.3,18.5,217.2,17.5,217.2,16.3z M217.7,37.5V20.6h3.6v16.9H217.7z"/>
				<path fill="#005F9E" d="M227.8,37.5V14.2h3.6v23.4H227.8z"/>
				<path fill="#005F9E" d="M237.9,37.5V14.2h3.6v23.4H237.9z"/>
				<path fill="#005F9E" d="M246.9,29c0-4.9,3.5-8.9,8.5-8.9c5,0,8.3,3.9,8.3,9.2v0.9h-12.9c0.3,2.6,2.2,4.7,5.3,4.7
					c1.6,0,3.6-0.7,4.8-1.9l1.7,2.4c-1.7,1.6-4.1,2.5-6.8,2.5C250.7,37.9,246.9,34.4,246.9,29z M255.4,23.2c-3.1,0-4.5,2.4-4.7,4.5
					h9.4C260.1,25.7,258.7,23.2,255.4,23.2z"/>
				<path fill="#005F9E" d="M299.8,37.5V20.2l-7.1,17.3h-1.7l-7.1-17.3v17.3h-4.1V14.2h5.7l6.3,15.4l6.3-15.4h5.7v23.4H299.8z"/>
				<path fill="#005F9E" d="M321.7,37.5v-2.2c-1.2,1.4-3.3,2.7-5.9,2.7c-3.6,0-5.4-1.9-5.4-5.4v-12h3.6v10.6c0,2.6,1.3,3.4,3.4,3.4
					c1.8,0,3.4-1.1,4.3-2.2V20.6h3.6v16.9H321.7z"/>
				<path fill="#005F9E" d="M332.5,33.6v-9.8h-2.8v-3.2h2.8V16h3.6v4.6h3.4v3.2h-3.4v8.9c0,1.2,0.6,2,1.6,2c0.7,0,1.4-0.3,1.6-0.6
					l0.9,2.8c-0.7,0.6-1.7,1.1-3.4,1.1C334,37.9,332.5,36.4,332.5,33.6z"/>
				<path fill="#005F9E" d="M355.9,37.5v-2.2c-1.2,1.4-3.3,2.7-5.9,2.7c-3.6,0-5.4-1.9-5.4-5.4v-12h3.6v10.6c0,2.6,1.3,3.4,3.4,3.4
					c1.8,0,3.4-1.1,4.3-2.2V20.6h3.6v16.9H355.9z"/>
				<path fill="#005F9E" d="M376.3,37.5v-1.8c-1.2,1.4-3.2,2.2-5.4,2.2c-2.7,0-5.8-1.9-5.8-5.6c0-3.9,3.1-5.5,5.8-5.5
					c2.3,0,4.2,0.7,5.4,2.2v-2.5c0-2-1.6-3.2-3.9-3.2c-1.9,0-3.5,0.7-5,2.1l-1.5-2.6c1.9-1.9,4.4-2.7,7-2.7c3.7,0,7,1.6,7,6.1v11.2
					H376.3z M376.3,33.7v-2.6c-0.8-1.2-2.4-1.8-4-1.8c-2,0-3.6,1.2-3.6,3c0,1.8,1.5,3,3.6,3C373.9,35.4,375.4,34.8,376.3,33.7z"/>
				<path fill="#005F9E" d="M386.4,37.5V14.2h3.6v23.4H386.4z"/>
			</g>
			<g>
				<path fill="#005F9E" d="M105.6,52.5c0-4.1,2.9-6.8,6.6-6.8c2.1,0,3.7,0.9,4.8,2.3l-0.9,0.6c-0.8-1.2-2.3-1.9-3.8-1.9
					c-3.1,0-5.5,2.4-5.5,5.8c0,3.4,2.4,5.8,5.5,5.8c1.6,0,3-0.8,3.8-1.9L117,57c-1.2,1.4-2.7,2.4-4.8,2.4
					C108.5,59.3,105.6,56.6,105.6,52.5z"/>
				<path fill="#005F9E" d="M126.9,59.1V58c-0.8,0.9-1.9,1.4-3.2,1.4c-1.6,0-3.3-1.1-3.3-3.2c0-2.1,1.7-3.2,3.3-3.2
					c1.3,0,2.4,0.4,3.2,1.4v-1.9c0-1.4-1.1-2.2-2.6-2.2c-1.2,0-2.1,0.4-3,1.4l-0.6-0.7c1-1.1,2.1-1.6,3.7-1.6c1.9,0,3.5,0.9,3.5,3.1
					v6.7H126.9z M126.9,57.2v-2.1c-0.7-0.9-1.7-1.3-2.9-1.3c-1.6,0-2.6,1-2.6,2.4c0,1.3,1,2.4,2.6,2.4
					C125.1,58.5,126.2,58.1,126.9,57.2z"/>
				<path fill="#005F9E" d="M131.9,57.8l0.6-0.8c0.6,0.8,1.7,1.4,3.1,1.4c1.6,0,2.5-0.8,2.5-1.9c0-1.2-1.3-1.5-2.7-1.9
					c-1.6-0.4-3.3-0.8-3.3-2.7c0-1.5,1.2-2.7,3.4-2.7c1.6,0,2.7,0.6,3.4,1.4l-0.6,0.7c-0.6-0.8-1.6-1.3-2.8-1.3
					c-1.5,0-2.4,0.8-2.4,1.7c0,1.1,1.2,1.4,2.5,1.7c1.6,0.4,3.5,0.9,3.5,2.9c0,1.5-1.2,2.8-3.6,2.8C134,59.3,132.8,58.9,131.9,57.8z
					"/>
				<path fill="#005F9E" d="M149.7,59.1v-1.4c-0.8,0.9-2,1.6-3.4,1.6c-1.9,0-3-0.9-3-3.1v-6.7h1V56c0,1.9,0.9,2.4,2.3,2.4
					c1.2,0,2.5-0.7,3.1-1.6v-7.3h1v9.6H149.7z"/>
				<path fill="#005F9E" d="M161.6,59.1V58c-0.8,0.9-1.9,1.4-3.2,1.4c-1.6,0-3.3-1.1-3.3-3.2c0-2.1,1.7-3.2,3.3-3.2
					c1.3,0,2.4,0.4,3.2,1.4v-1.9c0-1.4-1.1-2.2-2.6-2.2c-1.2,0-2.1,0.4-3,1.4l-0.6-0.7c1-1.1,2.1-1.6,3.7-1.6c1.9,0,3.5,0.9,3.5,3.1
					v6.7H161.6z M161.6,57.2v-2.1c-0.7-0.9-1.7-1.3-2.9-1.3c-1.6,0-2.6,1-2.6,2.4c0,1.3,1,2.4,2.6,2.4
					C159.9,58.5,160.9,58.1,161.6,57.2z"/>
				<path fill="#005F9E" d="M167.4,59.1V45.9h1v13.2H167.4z"/>
				<path fill="#005F9E" d="M173.4,57.2v-6.8h-1.6v-0.9h1.6v-2.6h1v2.6h1.9v0.9h-1.9v6.7c0,0.8,0.3,1.3,1,1.3c0.5,0,0.8-0.2,1.1-0.5
					l0.4,0.8c-0.4,0.4-0.8,0.6-1.6,0.6C174,59.3,173.4,58.6,173.4,57.2z"/>
				<path fill="#005F9E" d="M179.8,61.9c0.2,0.1,0.6,0.2,0.8,0.2c0.6,0,1.1-0.3,1.4-1.2l0.7-1.7l-4-9.7h1.1l3.5,8.4l3.4-8.4h1.2
					l-4.9,11.7c-0.5,1.2-1.3,1.8-2.4,1.8c-0.3,0-0.7-0.1-1-0.1L179.8,61.9z"/>
				<path fill="#005F9E" d="M197.6,52.5c0-4.1,2.9-6.8,6.6-6.8c2.1,0,3.7,0.9,4.8,2.3l-0.9,0.6c-0.8-1.2-2.3-1.9-3.8-1.9
					c-3.1,0-5.5,2.4-5.5,5.8c0,3.4,2.4,5.8,5.5,5.8c1.6,0,3-0.8,3.8-1.9L209,57c-1.2,1.4-2.7,2.4-4.8,2.4
					C200.5,59.3,197.6,56.6,197.6,52.5z"/>
				<path fill="#005F9E" d="M212.3,54.3c0-2.8,1.8-5,4.6-5c2.8,0,4.6,2.2,4.6,5c0,2.8-1.8,5-4.6,5C214.1,59.3,212.3,57.1,212.3,54.3
					z M220.3,54.3c0-2.1-1.2-4.1-3.5-4.1c-2.2,0-3.5,2-3.5,4.1c0,2.1,1.3,4.1,3.5,4.1C219.1,58.4,220.3,56.4,220.3,54.3z"/>
				<path fill="#005F9E" d="M237,59.1v-6.7c0-1.3-0.6-2.2-1.9-2.2c-1,0-2.2,0.8-2.7,1.6v7.3h-1v-6.7c0-1.3-0.6-2.2-1.9-2.2
					c-1,0-2.1,0.8-2.7,1.6v7.2h-1v-9.6h1V51c0.4-0.6,1.7-1.7,3.1-1.7c1.5,0,2.3,0.9,2.5,1.8c0.5-0.9,1.8-1.8,3.1-1.8
					c1.7,0,2.6,1,2.6,2.9v6.9H237z"/>
				<path fill="#005F9E" d="M243.8,57.5v5.2h-1V49.5h1V51c0.7-1,1.9-1.7,3.3-1.7c2.5,0,4.2,1.9,4.2,5c0,3.1-1.7,5-4.2,5
					C245.8,59.3,244.6,58.6,243.8,57.5z M250.3,54.3c0-2.3-1.2-4.1-3.3-4.1c-1.3,0-2.6,0.8-3.1,1.7v4.7c0.5,0.9,1.8,1.7,3.1,1.7
					C249.1,58.4,250.3,56.6,250.3,54.3z"/>
				<path fill="#005F9E" d="M261.6,59.1V58c-0.8,0.9-1.9,1.4-3.2,1.4c-1.6,0-3.3-1.1-3.3-3.2c0-2.1,1.7-3.2,3.3-3.2
					c1.3,0,2.4,0.4,3.2,1.4v-1.9c0-1.4-1.1-2.2-2.6-2.2c-1.2,0-2.1,0.4-3,1.4l-0.6-0.7c1-1.1,2.1-1.6,3.7-1.6c1.9,0,3.5,0.9,3.5,3.1
					v6.7H261.6z M261.6,57.2v-2.1c-0.7-0.9-1.7-1.3-2.9-1.3c-1.6,0-2.6,1-2.6,2.4c0,1.3,1,2.4,2.6,2.4
					C259.9,58.5,260.9,58.1,261.6,57.2z"/>
				<path fill="#005F9E" d="M273.8,59.1v-6.5c0-1.8-0.9-2.4-2.3-2.4c-1.2,0-2.5,0.8-3.1,1.6v7.2h-1v-9.6h1V51c0.7-0.8,2-1.7,3.4-1.7
					c1.9,0,3,1,3,3.1v6.7H273.8z"/>
				<path fill="#005F9E" d="M279.2,61.9c0.2,0.1,0.6,0.2,0.8,0.2c0.6,0,1.1-0.3,1.4-1.2l0.7-1.7l-4-9.7h1.1l3.5,8.4l3.4-8.4h1.2
					l-4.9,11.7c-0.5,1.2-1.3,1.8-2.4,1.8c-0.3,0-0.7-0.1-1-0.1L279.2,61.9z"/>
			</g>
			<g>
				<polygon fill="#00B156" points="81.7,39.9 64.2,22.4 46.8,39.8 37.9,39.8 64.2,13.5 90.6,39.9 				"/>
				<polygon fill="#00B156" points="45.3,13.5 19,39.8 27.9,39.8 45.3,22.4 62.7,39.8 71.6,39.8 				"/>
				<polygon fill="#00B156" points="40.3,8.5 35.8,4 0,39.8 8.9,39.8 				"/>
				<g>
					<path fill="#8CC6EC" d="M81.7,42.7L64.3,60.2l-5-5l12.3-12.5h-8.9l-7.9,8l-7.9-8l0,0h0h0h-8.9l12.4,12.4L35.8,69.7L9,42.7l0,0
						h0h0H0l35.8,35.8l19-19l9.5,9.5l26.3-26.4H81.7z"/>
					<path fill="#8CC6EC" d="M35.4,50.3l-7.5-7.6H19l12,12L35.4,50.3z"/>
				</g>
			</g>
		</g>
	</g>
</g>
<g id="blue_color_-_horizontal" display="none">
	<g display="inline">
		<g>
			<path fill="#005F9E" d="M15.6,9.9c0-14.7,11-24.3,24.4-24.3c9.1,0,15,4.4,18.8,9.8l-6.7,3.8C49.7-4.3,45.3-7.1,40-7.1
				C30.8-7.1,24,0,24,9.9c0,9.9,6.8,17,16.1,17c4.7,0,8.9-2.3,11-4.2v-7.3H37.2V8.1h22.1v17.6c-4.6,5.1-11.1,8.5-19.2,8.5
				C26.6,34.3,15.6,24.6,15.6,9.9z"/>
			<path fill="#005F9E" d="M68.9,16.3c0-9.7,6.6-17.8,17.3-17.8c10.8,0,17.4,8.1,17.4,17.8c0,9.8-6.6,17.9-17.4,17.9
				C75.6,34.2,68.9,26.1,68.9,16.3z M96,16.3c0-6-3.5-11.3-9.8-11.3c-6.2,0-9.7,5.3-9.7,11.3c0,6.1,3.5,11.3,9.7,11.3
				C92.5,27.7,96,22.4,96,16.3z"/>
			<path fill="#005F9E" d="M112.4,16.3c0-9.7,6.6-17.8,17.3-17.8c10.8,0,17.4,8.1,17.4,17.8c0,9.8-6.6,17.9-17.4,17.9
				C119.1,34.2,112.4,26.1,112.4,16.3z M139.5,16.3c0-6-3.5-11.3-9.8-11.3c-6.2,0-9.7,5.3-9.7,11.3c0,6.1,3.5,11.3,9.7,11.3
				C136,27.7,139.5,22.4,139.5,16.3z"/>
			<path fill="#005F9E" d="M181.7,33.4v-4.6c-2.6,3.4-6.5,5.5-10.8,5.5c-8.7,0-15-6.6-15-17.8c0-11,6.3-17.9,15-17.9
				c4.2,0,8.1,2,10.8,5.6v-17.7h7.3v47H181.7z M181.7,23.1V9.6C180.1,7.1,176.5,5,173,5c-5.8,0-9.5,4.7-9.5,11.3
				c0,6.6,3.7,11.3,9.5,11.3C176.5,27.7,180.1,25.7,181.7,23.1z"/>
			<path fill="#005F9E" d="M210.9,33.4l-13.8-34h7.8l9.8,25.5l9.8-25.5h7.9l-13.8,34H210.9z"/>
			<path fill="#005F9E" d="M239.8-9.4c0-2.5,2.1-4.6,4.5-4.6c2.5,0,4.5,2,4.5,4.6c0,2.5-2,4.6-4.5,4.6
				C241.8-4.8,239.8-6.9,239.8-9.4z M240.7,33.4v-34h7.3v34H240.7z"/>
			<path fill="#005F9E" d="M261,33.4v-47h7.3v47H261z"/>
			<path fill="#005F9E" d="M281.3,33.4v-47h7.3v47H281.3z"/>
			<path fill="#005F9E" d="M299.5,16.3c0-9.9,7.1-17.8,17.1-17.8c10.1,0,16.6,7.8,16.6,18.5v1.8h-26c0.6,5.1,4.4,9.4,10.8,9.4
				c3.3,0,7.2-1.3,9.6-3.7l3.4,4.9c-3.4,3.2-8.3,4.9-13.7,4.9C307,34.2,299.5,27.1,299.5,16.3z M316.6,4.6c-6.3,0-9.1,4.9-9.5,9h19
				C326,9.6,323.2,4.6,316.6,4.6z"/>
			<path fill="#005F9E" d="M405.8,33.4V-1.5l-14.3,34.9H388L373.8-1.5v34.9h-8.2v-47h11.5l12.6,30.9l12.7-30.9H414v47H405.8z"/>
			<path fill="#005F9E" d="M449.9,33.4v-4.5c-2.4,2.7-6.6,5.4-11.9,5.4c-7.3,0-10.8-3.8-10.8-10.8V-0.7h7.3v21.4
				c0,5.3,2.7,6.9,6.8,6.9c3.7,0,6.9-2.1,8.7-4.4V-0.7h7.3v34H449.9z"/>
			<path fill="#005F9E" d="M471.7,25.5V5.8h-5.6v-6.5h5.6V-10h7.3v9.3h6.8v6.5H479v17.8c0,2.3,1.1,4,3.2,4c1.4,0,2.7-0.6,3.3-1.2
				l1.7,5.6c-1.3,1.3-3.5,2.2-6.9,2.2C474.7,34.2,471.7,31.1,471.7,25.5z"/>
			<path fill="#005F9E" d="M518.8,33.4v-4.5c-2.4,2.7-6.6,5.4-11.9,5.4c-7.3,0-10.8-3.8-10.8-10.8V-0.7h7.3v21.4
				c0,5.3,2.7,6.9,6.8,6.9c3.7,0,6.9-2.1,8.7-4.4V-0.7h7.3v34H518.8z"/>
			<path fill="#005F9E" d="M559.7,33.4v-3.7c-2.5,2.9-6.4,4.5-10.9,4.5c-5.5,0-11.7-3.7-11.7-11.3c0-7.8,6.2-11.1,11.7-11.1
				c4.5,0,8.4,1.5,10.9,4.4v-5.1c0-3.9-3.2-6.3-7.9-6.3c-3.8,0-7.1,1.4-10,4.3l-3-5.1c3.9-3.7,8.8-5.5,14.2-5.5
				c7.5,0,14,3.2,14,12.3v22.5H559.7z M559.7,25.6v-5.1c-1.7-2.3-4.8-3.5-8-3.5c-4.1,0-7.2,2.4-7.2,6.1c0,3.7,3.1,6.1,7.2,6.1
				C554.8,29.1,558,27.9,559.7,25.6z"/>
			<path fill="#005F9E" d="M580,33.4v-47h7.3v47H580z"/>
		</g>
		<g>
			<path fill="#005F9E" d="M15,63.5c0-8.2,5.9-13.8,13.4-13.8c4.2,0,7.4,1.9,9.6,4.7l-1.9,1.2c-1.7-2.3-4.5-3.9-7.7-3.9
				c-6.2,0-11,4.7-11,11.7c0,6.9,4.8,11.7,11,11.7c3.2,0,6.1-1.6,7.7-3.9l1.9,1.2c-2.3,2.9-5.4,4.7-9.6,4.7
				C20.9,77.3,15,71.7,15,63.5z"/>
			<path fill="#005F9E" d="M57.9,76.8v-2.3c-1.7,1.9-3.8,2.8-6.5,2.8c-3.3,0-6.7-2.3-6.7-6.4c0-4.2,3.4-6.4,6.7-6.4
				c2.6,0,4.8,0.9,6.5,2.8v-3.9c0-2.9-2.3-4.4-5.1-4.4c-2.4,0-4.2,0.8-6,2.8l-1.1-1.4c2-2.2,4.2-3.2,7.4-3.2c3.9,0,7,1.9,7,6.2v13.6
				H57.9z M57.9,73v-4.2c-1.3-1.8-3.5-2.7-5.8-2.7c-3.2,0-5.2,2-5.2,4.8c0,2.7,2.1,4.7,5.2,4.7C54.4,75.6,56.6,74.8,57.9,73z"/>
			<path fill="#005F9E" d="M68,74.2l1.2-1.6c1.2,1.6,3.5,2.8,6.2,2.8c3.2,0,5.1-1.7,5.1-3.9c0-2.4-2.6-3.1-5.3-3.8
				c-3.2-0.8-6.7-1.6-6.7-5.4c0-3,2.5-5.3,6.8-5.3c3.3,0,5.5,1.3,6.8,2.8l-1.1,1.5c-1.1-1.5-3.2-2.6-5.7-2.6c-3,0-4.8,1.5-4.8,3.5
				c0,2.2,2.5,2.8,5.1,3.4c3.3,0.8,7,1.8,7,5.9c0,3.1-2.4,5.7-7.2,5.7C72.2,77.3,69.9,76.3,68,74.2z"/>
			<path fill="#005F9E" d="M103.9,76.8V74c-1.6,1.8-4.1,3.3-6.9,3.3c-3.9,0-6-1.8-6-6.2V57.5h2.1v13.1c0,3.8,1.9,4.8,4.6,4.8
				c2.5,0,4.9-1.5,6.2-3.2V57.5h2.1v19.3H103.9z"/>
			<path fill="#005F9E" d="M127.8,76.8v-2.3c-1.7,1.9-3.8,2.8-6.5,2.8c-3.3,0-6.7-2.3-6.7-6.4c0-4.2,3.4-6.4,6.7-6.4
				c2.6,0,4.8,0.9,6.5,2.8v-3.9c0-2.9-2.3-4.4-5.1-4.4c-2.4,0-4.2,0.8-6,2.8l-1.1-1.4c2-2.2,4.2-3.2,7.4-3.2c3.9,0,7,1.9,7,6.2v13.6
				H127.8z M127.8,73v-4.2c-1.3-1.8-3.5-2.7-5.8-2.7c-3.2,0-5.2,2-5.2,4.8c0,2.7,2.1,4.7,5.2,4.7C124.3,75.6,126.4,74.8,127.8,73z"
				/>
			<path fill="#005F9E" d="M139.5,76.8V50.2h2.1v26.6H139.5z"/>
			<path fill="#005F9E" d="M151.6,73.1V59.3h-3.2v-1.8h3.2v-5.3h2.1v5.3h3.9v1.8h-3.9v13.4c0,1.6,0.6,2.6,2,2.6
				c0.9,0,1.7-0.4,2.1-0.9l0.8,1.6c-0.8,0.7-1.7,1.2-3.2,1.2C152.8,77.3,151.6,75.7,151.6,73.1z"/>
			<path fill="#005F9E" d="M164.4,82.4c0.4,0.2,1.2,0.3,1.7,0.3c1.3,0,2.1-0.5,2.9-2.4l1.5-3.4l-8.1-19.4h2.3l7,16.8l6.9-16.8h2.3
				L171,81c-1,2.4-2.6,3.6-4.9,3.6c-0.6,0-1.5-0.1-2-0.3L164.4,82.4z"/>
			<path fill="#005F9E" d="M200.2,63.5c0-8.2,5.9-13.8,13.4-13.8c4.2,0,7.4,1.9,9.6,4.7l-1.9,1.2c-1.7-2.3-4.5-3.9-7.7-3.9
				c-6.2,0-11,4.7-11,11.7c0,6.9,4.8,11.7,11,11.7c3.2,0,6-1.6,7.7-3.9l1.9,1.2c-2.3,2.9-5.4,4.7-9.6,4.7
				C206.1,77.3,200.2,71.7,200.2,63.5z"/>
			<path fill="#005F9E" d="M229.8,67.1c0-5.6,3.6-10.1,9.2-10.1c5.7,0,9.2,4.5,9.2,10.1c0,5.6-3.6,10.1-9.2,10.1
				C233.4,77.3,229.8,72.8,229.8,67.1z M246,67.1c0-4.3-2.5-8.2-7-8.2c-4.4,0-7,4-7,8.2c0,4.3,2.5,8.3,7,8.3
				C243.5,75.4,246,71.4,246,67.1z"/>
			<path fill="#005F9E" d="M279.5,76.8V63.3c0-2.7-1.1-4.4-3.8-4.4c-2.1,0-4.4,1.5-5.5,3.3v14.6h-2.1V63.3c0-2.7-1.1-4.4-3.8-4.4
				c-2,0-4.3,1.6-5.5,3.3v14.6h-2.1V57.5h2.1v2.9c0.8-1.2,3.4-3.4,6.2-3.4c3,0,4.5,1.8,5,3.6c1.1-1.8,3.6-3.6,6.3-3.6
				c3.5,0,5.2,2,5.2,5.9v13.9H279.5z"/>
			<path fill="#005F9E" d="M293.2,73.7v10.5h-2.1V57.5h2.1v3c1.3-2,3.8-3.5,6.6-3.5c5.1,0,8.5,3.9,8.5,10.1c0,6.1-3.4,10.1-8.5,10.1
				C297.2,77.3,294.8,75.9,293.2,73.7z M306.2,67.1c0-4.7-2.4-8.2-6.7-8.2c-2.7,0-5.2,1.6-6.3,3.4v9.5c1.1,1.8,3.6,3.5,6.3,3.5
				C303.8,75.4,306.2,71.8,306.2,67.1z"/>
			<path fill="#005F9E" d="M329,76.8v-2.3c-1.7,1.9-3.8,2.8-6.5,2.8c-3.3,0-6.7-2.3-6.7-6.4c0-4.2,3.4-6.4,6.7-6.4
				c2.6,0,4.8,0.9,6.5,2.8v-3.9c0-2.9-2.3-4.4-5.1-4.4c-2.4,0-4.2,0.8-6,2.8l-1.1-1.4c2-2.2,4.2-3.2,7.4-3.2c3.9,0,7,1.9,7,6.2v13.6
				H329z M329,73v-4.2c-1.3-1.8-3.5-2.7-5.8-2.7c-3.2,0-5.2,2-5.2,4.8c0,2.7,2.1,4.7,5.2,4.7C325.5,75.6,327.6,74.8,329,73z"/>
			<path fill="#005F9E" d="M353.6,76.8V63.7c0-3.7-1.9-4.8-4.6-4.8c-2.5,0-5,1.6-6.2,3.3v14.6h-2.1V57.5h2.1v2.9
				c1.4-1.7,4.1-3.4,6.9-3.4c3.9,0,6,1.9,6,6.3v13.5H353.6z"/>
			<path fill="#005F9E" d="M364.4,82.4c0.4,0.2,1.2,0.3,1.7,0.3c1.3,0,2.1-0.5,2.9-2.4l1.5-3.4l-8.1-19.4h2.3l7,16.8l6.9-16.8h2.3
				L371,81c-1,2.4-2.6,3.6-4.9,3.6c-0.6,0-1.5-0.1-2-0.3L364.4,82.4z"/>
		</g>
		<g>
			<polygon fill="#005F9E" points="-33,38.2 -68.1,3.1 -103.1,38.1 -121,38.1 -68.1,-14.9 -15,38.2 			"/>
			<polygon fill="#005F9E" points="-106.2,-14.9 -159.2,38.1 -141.2,38.1 -106.2,3.1 -71.2,38.1 -53.2,38.1 			"/>
			<polygon fill="#005F9E" points="-116.2,-25 -125.3,-34 -197.3,38.1 -179.3,38.1 			"/>
			<g>
				<path fill="#005F9E" d="M-33,43.9L-68,79L-78,69l24.8-25.1h-18l-15.9,16l-16-16l0,0h0h0H-121l24.9,25L-125.3,98l-54-54.2l0,0
					h-0.1h0h-17.9l72,72.1l38.1-38.1L-68,96.9l53-53.1H-33z"/>
				<path fill="#005F9E" d="M-126.2,59.1l-15.1-15.2h-17.9l24.1,24.2L-126.2,59.1z"/>
			</g>
		</g>
	</g>
</g>
<g id="black_-_horizontal" display="none">
	<g display="inline">
		<g>
			<g>
				<path d="M15.6,9.9c0-14.7,11-24.3,24.4-24.3c9.1,0,15,4.4,18.8,9.8l-6.7,3.8C49.7-4.3,45.3-7.1,40-7.1C30.8-7.1,24,0,24,9.9
					c0,9.9,6.8,17,16.1,17c4.7,0,8.9-2.3,11-4.2v-7.3H37.2V8.1h22.1v17.6c-4.6,5.1-11.1,8.5-19.2,8.5C26.6,34.3,15.6,24.6,15.6,9.9z
					"/>
				<path d="M68.9,16.3c0-9.7,6.6-17.8,17.3-17.8c10.8,0,17.4,8.1,17.4,17.8c0,9.8-6.6,17.9-17.4,17.9
					C75.6,34.2,68.9,26.1,68.9,16.3z M96,16.3c0-6-3.5-11.3-9.8-11.3c-6.2,0-9.7,5.3-9.7,11.3c0,6.1,3.5,11.3,9.7,11.3
					C92.5,27.7,96,22.4,96,16.3z"/>
				<path d="M112.4,16.3c0-9.7,6.6-17.8,17.3-17.8c10.8,0,17.4,8.1,17.4,17.8c0,9.8-6.6,17.9-17.4,17.9
					C119.1,34.2,112.4,26.1,112.4,16.3z M139.5,16.3c0-6-3.5-11.3-9.8-11.3c-6.2,0-9.7,5.3-9.7,11.3c0,6.1,3.5,11.3,9.7,11.3
					C136,27.7,139.5,22.4,139.5,16.3z"/>
				<path d="M181.7,33.4v-4.6c-2.6,3.4-6.5,5.5-10.8,5.5c-8.7,0-15-6.6-15-17.8c0-11,6.3-17.9,15-17.9c4.2,0,8.1,2,10.8,5.6v-17.7
					h7.3v47H181.7z M181.7,23.1V9.6C180.1,7.1,176.5,5,173,5c-5.8,0-9.5,4.7-9.5,11.3c0,6.6,3.7,11.3,9.5,11.3
					C176.5,27.7,180.1,25.7,181.7,23.1z"/>
				<path d="M210.9,33.4l-13.8-34h7.8l9.8,25.5l9.8-25.5h7.9l-13.8,34H210.9z"/>
				<path d="M239.8-9.4c0-2.5,2.1-4.6,4.5-4.6c2.5,0,4.5,2,4.5,4.6c0,2.5-2,4.6-4.5,4.6C241.8-4.8,239.8-6.9,239.8-9.4z M240.7,33.4
					v-34h7.3v34H240.7z"/>
				<path d="M261,33.4v-47h7.3v47H261z"/>
				<path d="M281.3,33.4v-47h7.3v47H281.3z"/>
				<path d="M299.5,16.3c0-9.9,7.1-17.8,17.1-17.8c10.1,0,16.6,7.8,16.6,18.5v1.8h-26c0.6,5.1,4.4,9.4,10.8,9.4
					c3.3,0,7.2-1.3,9.6-3.7l3.4,4.9c-3.4,3.2-8.3,4.9-13.7,4.9C307,34.2,299.5,27.1,299.5,16.3z M316.6,4.6c-6.3,0-9.1,4.9-9.5,9h19
					C326,9.6,323.2,4.6,316.6,4.6z"/>
				<path d="M405.8,33.4V-1.5l-14.3,34.9H388L373.8-1.5v34.9h-8.2v-47h11.5l12.6,30.9l12.7-30.9H414v47H405.8z"/>
				<path d="M449.9,33.4v-4.5c-2.4,2.7-6.6,5.4-11.9,5.4c-7.3,0-10.8-3.8-10.8-10.8V-0.7h7.3v21.4c0,5.3,2.7,6.9,6.8,6.9
					c3.7,0,6.9-2.1,8.7-4.4V-0.7h7.3v34H449.9z"/>
				<path d="M471.7,25.5V5.8h-5.6v-6.5h5.6V-10h7.3v9.3h6.8v6.5H479v17.8c0,2.3,1.1,4,3.2,4c1.4,0,2.7-0.6,3.3-1.2l1.7,5.6
					c-1.3,1.3-3.5,2.2-6.9,2.2C474.7,34.2,471.7,31.1,471.7,25.5z"/>
				<path d="M518.8,33.4v-4.5c-2.4,2.7-6.6,5.4-11.9,5.4c-7.3,0-10.8-3.8-10.8-10.8V-0.7h7.3v21.4c0,5.3,2.7,6.9,6.8,6.9
					c3.7,0,6.9-2.1,8.7-4.4V-0.7h7.3v34H518.8z"/>
				<path d="M559.7,33.4v-3.7c-2.5,2.9-6.4,4.5-10.9,4.5c-5.5,0-11.7-3.7-11.7-11.3c0-7.8,6.2-11.1,11.7-11.1
					c4.5,0,8.4,1.5,10.9,4.4v-5.1c0-3.9-3.2-6.3-7.9-6.3c-3.8,0-7.1,1.4-10,4.3l-3-5.1c3.9-3.7,8.8-5.5,14.2-5.5
					c7.5,0,14,3.2,14,12.3v22.5H559.7z M559.7,25.6v-5.1c-1.7-2.3-4.8-3.5-8-3.5c-4.1,0-7.2,2.4-7.2,6.1c0,3.7,3.1,6.1,7.2,6.1
					C554.8,29.1,558,27.9,559.7,25.6z"/>
				<path d="M580,33.4v-47h7.3v47H580z"/>
			</g>
			<g>
				<path d="M15,63.5c0-8.2,5.9-13.8,13.4-13.8c4.2,0,7.4,1.9,9.6,4.7l-1.9,1.2c-1.7-2.3-4.5-3.9-7.7-3.9c-6.2,0-11,4.7-11,11.7
					c0,6.9,4.8,11.7,11,11.7c3.2,0,6.1-1.6,7.7-3.9l1.9,1.2c-2.3,2.9-5.4,4.7-9.6,4.7C20.9,77.3,15,71.7,15,63.5z"/>
				<path d="M57.9,76.8v-2.3c-1.7,1.9-3.8,2.8-6.5,2.8c-3.3,0-6.7-2.3-6.7-6.4c0-4.2,3.4-6.4,6.7-6.4c2.6,0,4.8,0.9,6.5,2.8v-3.9
					c0-2.9-2.3-4.4-5.1-4.4c-2.4,0-4.2,0.8-6,2.8l-1.1-1.4c2-2.2,4.2-3.2,7.4-3.2c3.9,0,7,1.9,7,6.2v13.6H57.9z M57.9,73v-4.2
					c-1.3-1.8-3.5-2.7-5.8-2.7c-3.2,0-5.2,2-5.2,4.8c0,2.7,2.1,4.7,5.2,4.7C54.4,75.6,56.6,74.8,57.9,73z"/>
				<path d="M68,74.2l1.2-1.6c1.2,1.6,3.5,2.8,6.2,2.8c3.2,0,5.1-1.7,5.1-3.9c0-2.4-2.6-3.1-5.3-3.8c-3.2-0.8-6.7-1.6-6.7-5.4
					c0-3,2.5-5.3,6.8-5.3c3.3,0,5.5,1.3,6.8,2.8l-1.1,1.5c-1.1-1.5-3.2-2.6-5.7-2.6c-3,0-4.8,1.5-4.8,3.5c0,2.2,2.5,2.8,5.1,3.4
					c3.3,0.8,7,1.8,7,5.9c0,3.1-2.4,5.7-7.2,5.7C72.2,77.3,69.9,76.3,68,74.2z"/>
				<path d="M103.9,76.8V74c-1.6,1.8-4.1,3.3-6.9,3.3c-3.9,0-6-1.8-6-6.2V57.5h2.1v13.1c0,3.8,1.9,4.8,4.6,4.8
					c2.5,0,4.9-1.5,6.2-3.2V57.5h2.1v19.3H103.9z"/>
				<path d="M127.8,76.8v-2.3c-1.7,1.9-3.8,2.8-6.5,2.8c-3.3,0-6.7-2.3-6.7-6.4c0-4.2,3.4-6.4,6.7-6.4c2.6,0,4.8,0.9,6.5,2.8v-3.9
					c0-2.9-2.3-4.4-5.1-4.4c-2.4,0-4.2,0.8-6,2.8l-1.1-1.4c2-2.2,4.2-3.2,7.4-3.2c3.9,0,7,1.9,7,6.2v13.6H127.8z M127.8,73v-4.2
					c-1.3-1.8-3.5-2.7-5.8-2.7c-3.2,0-5.2,2-5.2,4.8c0,2.7,2.1,4.7,5.2,4.7C124.3,75.6,126.4,74.8,127.8,73z"/>
				<path d="M139.5,76.8V50.2h2.1v26.6H139.5z"/>
				<path d="M151.6,73.1V59.3h-3.2v-1.8h3.2v-5.3h2.1v5.3h3.9v1.8h-3.9v13.4c0,1.6,0.6,2.6,2,2.6c0.9,0,1.7-0.4,2.1-0.9l0.8,1.6
					c-0.8,0.7-1.7,1.2-3.2,1.2C152.8,77.3,151.6,75.7,151.6,73.1z"/>
				<path d="M164.4,82.4c0.4,0.2,1.2,0.3,1.7,0.3c1.3,0,2.1-0.5,2.9-2.4l1.5-3.4l-8.1-19.4h2.3l7,16.8l6.9-16.8h2.3L171,81
					c-1,2.4-2.6,3.6-4.9,3.6c-0.6,0-1.5-0.1-2-0.3L164.4,82.4z"/>
				<path d="M200.2,63.5c0-8.2,5.9-13.8,13.4-13.8c4.2,0,7.4,1.9,9.6,4.7l-1.9,1.2c-1.7-2.3-4.5-3.9-7.7-3.9c-6.2,0-11,4.7-11,11.7
					c0,6.9,4.8,11.7,11,11.7c3.2,0,6-1.6,7.7-3.9l1.9,1.2c-2.3,2.9-5.4,4.7-9.6,4.7C206.1,77.3,200.2,71.7,200.2,63.5z"/>
				<path d="M229.8,67.1c0-5.6,3.6-10.1,9.2-10.1c5.7,0,9.2,4.5,9.2,10.1c0,5.6-3.6,10.1-9.2,10.1C233.4,77.3,229.8,72.8,229.8,67.1
					z M246,67.1c0-4.3-2.5-8.2-7-8.2c-4.4,0-7,4-7,8.2c0,4.3,2.5,8.3,7,8.3C243.5,75.4,246,71.4,246,67.1z"/>
				<path d="M279.5,76.8V63.3c0-2.7-1.1-4.4-3.8-4.4c-2.1,0-4.4,1.5-5.5,3.3v14.6h-2.1V63.3c0-2.7-1.1-4.4-3.8-4.4
					c-2,0-4.3,1.6-5.5,3.3v14.6h-2.1V57.5h2.1v2.9c0.8-1.2,3.4-3.4,6.2-3.4c3,0,4.5,1.8,5,3.6c1.1-1.8,3.6-3.6,6.3-3.6
					c3.5,0,5.2,2,5.2,5.9v13.9H279.5z"/>
				<path d="M293.2,73.7v10.5h-2.1V57.5h2.1v3c1.3-2,3.8-3.5,6.6-3.5c5.1,0,8.5,3.9,8.5,10.1c0,6.1-3.4,10.1-8.5,10.1
					C297.2,77.3,294.8,75.9,293.2,73.7z M306.2,67.1c0-4.7-2.4-8.2-6.7-8.2c-2.7,0-5.2,1.6-6.3,3.4v9.5c1.1,1.8,3.6,3.5,6.3,3.5
					C303.8,75.4,306.2,71.8,306.2,67.1z"/>
				<path d="M329,76.8v-2.3c-1.7,1.9-3.8,2.8-6.5,2.8c-3.3,0-6.7-2.3-6.7-6.4c0-4.2,3.4-6.4,6.7-6.4c2.6,0,4.8,0.9,6.5,2.8v-3.9
					c0-2.9-2.3-4.4-5.1-4.4c-2.4,0-4.2,0.8-6,2.8l-1.1-1.4c2-2.2,4.2-3.2,7.4-3.2c3.9,0,7,1.9,7,6.2v13.6H329z M329,73v-4.2
					c-1.3-1.8-3.5-2.7-5.8-2.7c-3.2,0-5.2,2-5.2,4.8c0,2.7,2.1,4.7,5.2,4.7C325.5,75.6,327.6,74.8,329,73z"/>
				<path d="M353.6,76.8V63.7c0-3.7-1.9-4.8-4.6-4.8c-2.5,0-5,1.6-6.2,3.3v14.6h-2.1V57.5h2.1v2.9c1.4-1.7,4.1-3.4,6.9-3.4
					c3.9,0,6,1.9,6,6.3v13.5H353.6z"/>
				<path d="M364.4,82.4c0.4,0.2,1.2,0.3,1.7,0.3c1.3,0,2.1-0.5,2.9-2.4l1.5-3.4l-8.1-19.4h2.3l7,16.8l6.9-16.8h2.3L371,81
					c-1,2.4-2.6,3.6-4.9,3.6c-0.6,0-1.5-0.1-2-0.3L364.4,82.4z"/>
			</g>
			<g>
				<polygon points="-33,38.2 -68.1,3.1 -103.1,38.1 -121,38.1 -68.1,-14.9 -15,38.2 				"/>
				<polygon points="-106.2,-14.9 -159.2,38.1 -141.2,38.1 -106.2,3.1 -71.2,38.1 -53.2,38.1 				"/>
				<polygon points="-116.2,-25 -125.3,-34 -197.3,38.1 -179.3,38.1 				"/>
				<g>
					<path d="M-33,43.9L-68,79L-78,69l24.8-25.1h-18l-15.9,16l-16-16l0,0h0h0H-121l24.9,25L-125.3,98l-54-54.2l0,0h-0.1h0h-17.9
						l72,72.1l38.1-38.1L-68,96.9l53-53.1H-33z"/>
					<path d="M-126.2,59.1l-15.1-15.2h-17.9l24.1,24.2L-126.2,59.1z"/>
				</g>
			</g>
		</g>
	</g>
</g>
<g id="white_-_horizontal" display="none">
	<g display="inline">
		<g>
			<g>
				<path fill="#FFFFFF" d="M15.6,9.9c0-14.7,11-24.3,24.4-24.3c9.1,0,15,4.4,18.8,9.8l-6.7,3.8C49.7-4.3,45.3-7.1,40-7.1
					C30.8-7.1,24,0,24,9.9c0,9.9,6.8,17,16.1,17c4.7,0,8.9-2.3,11-4.2v-7.3H37.2V8.1h22.1v17.6c-4.6,5.1-11.1,8.5-19.2,8.5
					C26.6,34.3,15.6,24.6,15.6,9.9z"/>
				<path fill="#FFFFFF" d="M68.9,16.3c0-9.7,6.6-17.8,17.3-17.8c10.8,0,17.4,8.1,17.4,17.8c0,9.8-6.6,17.9-17.4,17.9
					C75.6,34.2,68.9,26.1,68.9,16.3z M96,16.3c0-6-3.5-11.3-9.8-11.3c-6.2,0-9.7,5.3-9.7,11.3c0,6.1,3.5,11.3,9.7,11.3
					C92.5,27.7,96,22.4,96,16.3z"/>
				<path fill="#FFFFFF" d="M112.4,16.3c0-9.7,6.6-17.8,17.3-17.8c10.8,0,17.4,8.1,17.4,17.8c0,9.8-6.6,17.9-17.4,17.9
					C119.1,34.2,112.4,26.1,112.4,16.3z M139.5,16.3c0-6-3.5-11.3-9.8-11.3c-6.2,0-9.7,5.3-9.7,11.3c0,6.1,3.5,11.3,9.7,11.3
					C136,27.7,139.5,22.4,139.5,16.3z"/>
				<path fill="#FFFFFF" d="M181.7,33.4v-4.6c-2.6,3.4-6.5,5.5-10.8,5.5c-8.7,0-15-6.6-15-17.8c0-11,6.3-17.9,15-17.9
					c4.2,0,8.1,2,10.8,5.6v-17.7h7.3v47H181.7z M181.7,23.1V9.6C180.1,7.1,176.5,5,173,5c-5.8,0-9.5,4.7-9.5,11.3
					c0,6.6,3.7,11.3,9.5,11.3C176.5,27.7,180.1,25.7,181.7,23.1z"/>
				<path fill="#FFFFFF" d="M210.9,33.4l-13.8-34h7.8l9.8,25.5l9.8-25.5h7.9l-13.8,34H210.9z"/>
				<path fill="#FFFFFF" d="M239.8-9.4c0-2.5,2.1-4.6,4.5-4.6c2.5,0,4.5,2,4.5,4.6c0,2.5-2,4.6-4.5,4.6
					C241.8-4.8,239.8-6.9,239.8-9.4z M240.7,33.4v-34h7.3v34H240.7z"/>
				<path fill="#FFFFFF" d="M261,33.4v-47h7.3v47H261z"/>
				<path fill="#FFFFFF" d="M281.3,33.4v-47h7.3v47H281.3z"/>
				<path fill="#FFFFFF" d="M299.5,16.3c0-9.9,7.1-17.8,17.1-17.8c10.1,0,16.6,7.8,16.6,18.5v1.8h-26c0.6,5.1,4.4,9.4,10.8,9.4
					c3.3,0,7.2-1.3,9.6-3.7l3.4,4.9c-3.4,3.2-8.3,4.9-13.7,4.9C307,34.2,299.5,27.1,299.5,16.3z M316.6,4.6c-6.3,0-9.1,4.9-9.5,9h19
					C326,9.6,323.2,4.6,316.6,4.6z"/>
				<path fill="#FFFFFF" d="M405.8,33.4V-1.5l-14.3,34.9H388L373.8-1.5v34.9h-8.2v-47h11.5l12.6,30.9l12.7-30.9H414v47H405.8z"/>
				<path fill="#FFFFFF" d="M449.9,33.4v-4.5c-2.4,2.7-6.6,5.4-11.9,5.4c-7.3,0-10.8-3.8-10.8-10.8V-0.7h7.3v21.4
					c0,5.3,2.7,6.9,6.8,6.9c3.7,0,6.9-2.1,8.7-4.4V-0.7h7.3v34H449.9z"/>
				<path fill="#FFFFFF" d="M471.7,25.5V5.8h-5.6v-6.5h5.6V-10h7.3v9.3h6.8v6.5H479v17.8c0,2.3,1.1,4,3.2,4c1.4,0,2.7-0.6,3.3-1.2
					l1.7,5.6c-1.3,1.3-3.5,2.2-6.9,2.2C474.7,34.2,471.7,31.1,471.7,25.5z"/>
				<path fill="#FFFFFF" d="M518.8,33.4v-4.5c-2.4,2.7-6.6,5.4-11.9,5.4c-7.3,0-10.8-3.8-10.8-10.8V-0.7h7.3v21.4
					c0,5.3,2.7,6.9,6.8,6.9c3.7,0,6.9-2.1,8.7-4.4V-0.7h7.3v34H518.8z"/>
				<path fill="#FFFFFF" d="M559.7,33.4v-3.7c-2.5,2.9-6.4,4.5-10.9,4.5c-5.5,0-11.7-3.7-11.7-11.3c0-7.8,6.2-11.1,11.7-11.1
					c4.5,0,8.4,1.5,10.9,4.4v-5.1c0-3.9-3.2-6.3-7.9-6.3c-3.8,0-7.1,1.4-10,4.3l-3-5.1c3.9-3.7,8.8-5.5,14.2-5.5
					c7.5,0,14,3.2,14,12.3v22.5H559.7z M559.7,25.6v-5.1c-1.7-2.3-4.8-3.5-8-3.5c-4.1,0-7.2,2.4-7.2,6.1c0,3.7,3.1,6.1,7.2,6.1
					C554.8,29.1,558,27.9,559.7,25.6z"/>
				<path fill="#FFFFFF" d="M580,33.4v-47h7.3v47H580z"/>
			</g>
			<g>
				<path fill="#FFFFFF" d="M15,63.5c0-8.2,5.9-13.8,13.4-13.8c4.2,0,7.4,1.9,9.6,4.7l-1.9,1.2c-1.7-2.3-4.5-3.9-7.7-3.9
					c-6.2,0-11,4.7-11,11.7c0,6.9,4.8,11.7,11,11.7c3.2,0,6.1-1.6,7.7-3.9l1.9,1.2c-2.3,2.9-5.4,4.7-9.6,4.7
					C20.9,77.3,15,71.7,15,63.5z"/>
				<path fill="#FFFFFF" d="M57.9,76.8v-2.3c-1.7,1.9-3.8,2.8-6.5,2.8c-3.3,0-6.7-2.3-6.7-6.4c0-4.2,3.4-6.4,6.7-6.4
					c2.6,0,4.8,0.9,6.5,2.8v-3.9c0-2.9-2.3-4.4-5.1-4.4c-2.4,0-4.2,0.8-6,2.8l-1.1-1.4c2-2.2,4.2-3.2,7.4-3.2c3.9,0,7,1.9,7,6.2
					v13.6H57.9z M57.9,73v-4.2c-1.3-1.8-3.5-2.7-5.8-2.7c-3.2,0-5.2,2-5.2,4.8c0,2.7,2.1,4.7,5.2,4.7C54.4,75.6,56.6,74.8,57.9,73z"
					/>
				<path fill="#FFFFFF" d="M68,74.2l1.2-1.6c1.2,1.6,3.5,2.8,6.2,2.8c3.2,0,5.1-1.7,5.1-3.9c0-2.4-2.6-3.1-5.3-3.8
					c-3.2-0.8-6.7-1.6-6.7-5.4c0-3,2.5-5.3,6.8-5.3c3.3,0,5.5,1.3,6.8,2.8l-1.1,1.5c-1.1-1.5-3.2-2.6-5.7-2.6c-3,0-4.8,1.5-4.8,3.5
					c0,2.2,2.5,2.8,5.1,3.4c3.3,0.8,7,1.8,7,5.9c0,3.1-2.4,5.7-7.2,5.7C72.2,77.3,69.9,76.3,68,74.2z"/>
				<path fill="#FFFFFF" d="M103.9,76.8V74c-1.6,1.8-4.1,3.3-6.9,3.3c-3.9,0-6-1.8-6-6.2V57.5h2.1v13.1c0,3.8,1.9,4.8,4.6,4.8
					c2.5,0,4.9-1.5,6.2-3.2V57.5h2.1v19.3H103.9z"/>
				<path fill="#FFFFFF" d="M127.8,76.8v-2.3c-1.7,1.9-3.8,2.8-6.5,2.8c-3.3,0-6.7-2.3-6.7-6.4c0-4.2,3.4-6.4,6.7-6.4
					c2.6,0,4.8,0.9,6.5,2.8v-3.9c0-2.9-2.3-4.4-5.1-4.4c-2.4,0-4.2,0.8-6,2.8l-1.1-1.4c2-2.2,4.2-3.2,7.4-3.2c3.9,0,7,1.9,7,6.2
					v13.6H127.8z M127.8,73v-4.2c-1.3-1.8-3.5-2.7-5.8-2.7c-3.2,0-5.2,2-5.2,4.8c0,2.7,2.1,4.7,5.2,4.7
					C124.3,75.6,126.4,74.8,127.8,73z"/>
				<path fill="#FFFFFF" d="M139.5,76.8V50.2h2.1v26.6H139.5z"/>
				<path fill="#FFFFFF" d="M151.6,73.1V59.3h-3.2v-1.8h3.2v-5.3h2.1v5.3h3.9v1.8h-3.9v13.4c0,1.6,0.6,2.6,2,2.6
					c0.9,0,1.7-0.4,2.1-0.9l0.8,1.6c-0.8,0.7-1.7,1.2-3.2,1.2C152.8,77.3,151.6,75.7,151.6,73.1z"/>
				<path fill="#FFFFFF" d="M164.4,82.4c0.4,0.2,1.2,0.3,1.7,0.3c1.3,0,2.1-0.5,2.9-2.4l1.5-3.4l-8.1-19.4h2.3l7,16.8l6.9-16.8h2.3
					L171,81c-1,2.4-2.6,3.6-4.9,3.6c-0.6,0-1.5-0.1-2-0.3L164.4,82.4z"/>
				<path fill="#FFFFFF" d="M200.2,63.5c0-8.2,5.9-13.8,13.4-13.8c4.2,0,7.4,1.9,9.6,4.7l-1.9,1.2c-1.7-2.3-4.5-3.9-7.7-3.9
					c-6.2,0-11,4.7-11,11.7c0,6.9,4.8,11.7,11,11.7c3.2,0,6-1.6,7.7-3.9l1.9,1.2c-2.3,2.9-5.4,4.7-9.6,4.7
					C206.1,77.3,200.2,71.7,200.2,63.5z"/>
				<path fill="#FFFFFF" d="M229.8,67.1c0-5.6,3.6-10.1,9.2-10.1c5.7,0,9.2,4.5,9.2,10.1c0,5.6-3.6,10.1-9.2,10.1
					C233.4,77.3,229.8,72.8,229.8,67.1z M246,67.1c0-4.3-2.5-8.2-7-8.2c-4.4,0-7,4-7,8.2c0,4.3,2.5,8.3,7,8.3
					C243.5,75.4,246,71.4,246,67.1z"/>
				<path fill="#FFFFFF" d="M279.5,76.8V63.3c0-2.7-1.1-4.4-3.8-4.4c-2.1,0-4.4,1.5-5.5,3.3v14.6h-2.1V63.3c0-2.7-1.1-4.4-3.8-4.4
					c-2,0-4.3,1.6-5.5,3.3v14.6h-2.1V57.5h2.1v2.9c0.8-1.2,3.4-3.4,6.2-3.4c3,0,4.5,1.8,5,3.6c1.1-1.8,3.6-3.6,6.3-3.6
					c3.5,0,5.2,2,5.2,5.9v13.9H279.5z"/>
				<path fill="#FFFFFF" d="M293.2,73.7v10.5h-2.1V57.5h2.1v3c1.3-2,3.8-3.5,6.6-3.5c5.1,0,8.5,3.9,8.5,10.1
					c0,6.1-3.4,10.1-8.5,10.1C297.2,77.3,294.8,75.9,293.2,73.7z M306.2,67.1c0-4.7-2.4-8.2-6.7-8.2c-2.7,0-5.2,1.6-6.3,3.4v9.5
					c1.1,1.8,3.6,3.5,6.3,3.5C303.8,75.4,306.2,71.8,306.2,67.1z"/>
				<path fill="#FFFFFF" d="M329,76.8v-2.3c-1.7,1.9-3.8,2.8-6.5,2.8c-3.3,0-6.7-2.3-6.7-6.4c0-4.2,3.4-6.4,6.7-6.4
					c2.6,0,4.8,0.9,6.5,2.8v-3.9c0-2.9-2.3-4.4-5.1-4.4c-2.4,0-4.2,0.8-6,2.8l-1.1-1.4c2-2.2,4.2-3.2,7.4-3.2c3.9,0,7,1.9,7,6.2
					v13.6H329z M329,73v-4.2c-1.3-1.8-3.5-2.7-5.8-2.7c-3.2,0-5.2,2-5.2,4.8c0,2.7,2.1,4.7,5.2,4.7C325.5,75.6,327.6,74.8,329,73z"
					/>
				<path fill="#FFFFFF" d="M353.6,76.8V63.7c0-3.7-1.9-4.8-4.6-4.8c-2.5,0-5,1.6-6.2,3.3v14.6h-2.1V57.5h2.1v2.9
					c1.4-1.7,4.1-3.4,6.9-3.4c3.9,0,6,1.9,6,6.3v13.5H353.6z"/>
				<path fill="#FFFFFF" d="M364.4,82.4c0.4,0.2,1.2,0.3,1.7,0.3c1.3,0,2.1-0.5,2.9-2.4l1.5-3.4l-8.1-19.4h2.3l7,16.8l6.9-16.8h2.3
					L371,81c-1,2.4-2.6,3.6-4.9,3.6c-0.6,0-1.5-0.1-2-0.3L364.4,82.4z"/>
			</g>
			<g>
				<polygon fill="#FFFFFF" points="-33,38.2 -68.1,3.1 -103.1,38.1 -121,38.1 -68.1,-14.9 -15,38.2 				"/>
				<polygon fill="#FFFFFF" points="-106.2,-14.9 -159.2,38.1 -141.2,38.1 -106.2,3.1 -71.2,38.1 -53.2,38.1 				"/>
				<polygon fill="#FFFFFF" points="-116.2,-25 -125.3,-34 -197.3,38.1 -179.3,38.1 				"/>
				<g>
					<path fill="#FFFFFF" d="M-33,43.9L-68,79L-78,69l24.8-25.1h-18l-15.9,16l-16-16l0,0h0h0H-121l24.9,25L-125.3,98l-54-54.2l0,0
						h-0.1h0h-17.9l72,72.1l38.1-38.1L-68,96.9l53-53.1H-33z"/>
					<path fill="#FFFFFF" d="M-126.2,59.1l-15.1-15.2h-17.9l24.1,24.2L-126.2,59.1z"/>
				</g>
			</g>
		</g>
	</g>
</g>
<g id="full_color_-_stacked" display="none">
	<g display="inline">
		<g>
			<g>
				<g>
					<path fill="#005F9E" d="M-195,159.4c0-20.1,15-33.2,33.3-33.2c12.4,0,20.5,6,25.6,13.4l-9.1,5.2c-3.3-4.8-9.3-8.6-16.5-8.6
						c-12.6,0-21.9,9.7-21.9,23.2c0,13.5,9.3,23.3,21.9,23.3c6.5,0,12.2-3.1,15-5.8v-10h-19V157h30.1v24c-6.3,7-15.1,11.6-26.2,11.6
						C-180,192.7-195,179.5-195,159.4z"/>
					<path fill="#005F9E" d="M-122.2,168.2c0-13.3,9-24.3,23.6-24.3c14.8,0,23.7,11.1,23.7,24.3c0,13.4-9,24.4-23.7,24.4
						C-113.2,192.6-122.2,181.5-122.2,168.2z M-85.3,168.2c0-8.2-4.8-15.4-13.3-15.4c-8.5,0-13.2,7.2-13.2,15.4
						c0,8.3,4.8,15.5,13.2,15.5C-90,183.6-85.3,176.4-85.3,168.2z"/>
					<path fill="#005F9E" d="M-62.9,168.2c0-13.3,9-24.3,23.6-24.3c14.8,0,23.7,11.1,23.7,24.3c0,13.4-9,24.4-23.7,24.4
						C-53.9,192.6-62.9,181.5-62.9,168.2z M-25.9,168.2c0-8.2-4.8-15.4-13.3-15.4c-8.5,0-13.2,7.2-13.2,15.4
						c0,8.3,4.8,15.5,13.2,15.5C-30.7,183.6-25.9,176.4-25.9,168.2z"/>
					<path fill="#005F9E" d="M31.7,191.4v-6.3c-3.5,4.6-8.9,7.5-14.8,7.5c-11.8,0-20.5-9-20.5-24.3c0-15,8.6-24.4,20.5-24.4
						c5.7,0,11,2.7,14.8,7.6v-24.1h10v64.1H31.7z M31.7,177.5V159c-2.3-3.5-7.1-6.2-11.9-6.2c-7.9,0-13,6.4-13,15.5
						c0,8.9,5,15.4,13,15.4C24.5,183.6,29.4,181,31.7,177.5z"/>
					<path fill="#005F9E" d="M71.5,191.4L52.7,145h10.7l13.4,34.8L90.2,145H101l-18.8,46.4H71.5z"/>
					<path fill="#005F9E" d="M110.8,133.1c0-3.5,2.9-6.2,6.2-6.2c3.4,0,6.2,2.8,6.2,6.2c0,3.5-2.8,6.2-6.2,6.2
						C113.7,139.3,110.8,136.6,110.8,133.1z M112,191.4V145h10v46.4H112z"/>
					<path fill="#005F9E" d="M139.8,191.4v-64.1h10v64.1H139.8z"/>
					<path fill="#005F9E" d="M167.5,191.4v-64.1h10v64.1H167.5z"/>
					<path fill="#005F9E" d="M192.3,168.2c0-13.5,9.7-24.3,23.3-24.3c13.8,0,22.7,10.7,22.7,25.3v2.4h-35.5c0.8,7,6,12.8,14.7,12.8
						c4.5,0,9.8-1.8,13-5.1l4.6,6.6c-4.6,4.4-11.3,6.7-18.7,6.7C202.6,192.6,192.3,182.9,192.3,168.2z M215.7,152.1
						c-8.6,0-12.5,6.6-13,12.3h25.9C228.4,158.9,224.7,152.1,215.7,152.1z"/>
					<path fill="#005F9E" d="M337.4,191.4v-47.6l-19.5,47.6h-4.8l-19.4-47.6v47.6h-11.1v-64.1h15.7l17.2,42.2l17.3-42.2h15.7v64.1
						H337.4z"/>
					<path fill="#005F9E" d="M397.6,191.4v-6.2c-3.3,3.7-9,7.3-16.3,7.3c-9.9,0-14.8-5.2-14.8-14.7V145h10v29.2
						c0,7.2,3.6,9.4,9.2,9.4c5,0,9.4-2.9,11.8-6.1V145h10v46.4H397.6z"/>
					<path fill="#005F9E" d="M427.3,180.7v-26.8h-7.6V145h7.6v-12.7h10V145h9.3v8.8h-9.3v24.3c0,3.2,1.5,5.5,4.4,5.5
						c1.9,0,3.7-0.8,4.5-1.6l2.4,7.6c-1.8,1.7-4.8,3-9.4,3C431.4,192.6,427.3,188.4,427.3,180.7z"/>
					<path fill="#005F9E" d="M491.5,191.4v-6.2c-3.3,3.7-9,7.3-16.3,7.3c-9.9,0-14.8-5.2-14.8-14.7V145h10v29.2
						c0,7.2,3.6,9.4,9.2,9.4c5,0,9.4-2.9,11.8-6.1V145h10v46.4H491.5z"/>
					<path fill="#005F9E" d="M547.3,191.4v-5c-3.4,3.9-8.8,6.2-14.9,6.2c-7.5,0-16-5.1-16-15.4c0-10.7,8.5-15.1,16-15.1
						c6.2,0,11.5,2,14.9,6v-6.9c0-5.4-4.4-8.6-10.8-8.6c-5.1,0-9.6,1.9-13.6,5.9l-4.1-7c5.3-5.1,12-7.5,19.3-7.5
						c10.2,0,19.1,4.3,19.1,16.8v30.8H547.3z M547.3,180.9v-7c-2.3-3.2-6.6-4.8-11-4.8c-5.6,0-9.8,3.3-9.8,8.4c0,5,4.2,8.3,9.8,8.3
						C540.7,185.7,545,184,547.3,180.9z"/>
					<path fill="#005F9E" d="M575,191.4v-64.1h10v64.1H575z"/>
				</g>
				<g>
					<path fill="#005F9E" d="M-54.5,232.5c0-11.2,8-18.8,18.2-18.8c5.7,0,10,2.6,13.1,6.4l-2.6,1.7c-2.3-3.2-6.2-5.3-10.5-5.3
						c-8.5,0-15,6.5-15,16c0,9.4,6.5,16,15,16c4.3,0,8.3-2.1,10.5-5.3l2.6,1.6c-3.2,4-7.4,6.5-13.1,6.5
						C-46.5,251.3-54.5,243.7-54.5,232.5z"/>
					<path fill="#005F9E" d="M4,250.7v-3.1c-2.3,2.6-5.2,3.8-8.8,3.8c-4.5,0-9.1-3.1-9.1-8.8c0-5.7,4.6-8.7,9.1-8.7
						c3.6,0,6.6,1.2,8.8,3.8v-5.3c0-3.9-3.1-6-7-6c-3.2,0-5.8,1.1-8.1,3.9l-1.6-2c2.7-2.9,5.7-4.4,10-4.4c5.3,0,9.5,2.6,9.5,8.4
						v18.5H4z M4,245.5v-5.8c-1.8-2.4-4.8-3.6-7.9-3.6c-4.3,0-7.1,2.8-7.1,6.5c0,3.7,2.8,6.5,7.1,6.5C-0.8,249.1,2.1,247.9,4,245.5z
						"/>
					<path fill="#005F9E" d="M17.7,247.2l1.7-2.1c1.7,2.1,4.7,3.9,8.4,3.9c4.4,0,7-2.3,7-5.3c0-3.3-3.6-4.2-7.3-5.2
						c-4.4-1.1-9.2-2.2-9.2-7.4c0-4,3.4-7.3,9.3-7.3c4.5,0,7.4,1.7,9.3,3.9l-1.6,2c-1.5-2.1-4.3-3.5-7.8-3.5c-4,0-6.5,2.1-6.5,4.8
						c0,3,3.3,3.8,7,4.7c4.5,1.1,9.5,2.4,9.5,8c0,4.2-3.2,7.7-9.8,7.7C23.5,251.3,20.3,250.1,17.7,247.2z"/>
					<path fill="#005F9E" d="M66.7,250.7v-3.9c-2.2,2.4-5.6,4.5-9.4,4.5c-5.3,0-8.2-2.5-8.2-8.4v-18.5h2.8v17.9
						c0,5.1,2.5,6.5,6.3,6.5c3.3,0,6.7-2,8.5-4.4v-20h2.8v26.3H66.7z"/>
					<path fill="#005F9E" d="M99.3,250.7v-3.1c-2.3,2.6-5.2,3.8-8.8,3.8c-4.5,0-9.1-3.1-9.1-8.8c0-5.7,4.6-8.7,9.1-8.7
						c3.6,0,6.6,1.2,8.8,3.8v-5.3c0-3.9-3.1-6-7-6c-3.2,0-5.8,1.1-8.1,3.9l-1.6-2c2.7-2.9,5.7-4.4,10-4.4c5.3,0,9.5,2.6,9.5,8.4
						v18.5H99.3z M99.3,245.5v-5.8c-1.8-2.4-4.7-3.6-7.9-3.6c-4.3,0-7.1,2.8-7.1,6.5c0,3.7,2.8,6.5,7.1,6.5
						C94.5,249.1,97.4,247.9,99.3,245.5z"/>
					<path fill="#005F9E" d="M115.2,250.7v-36.3h2.8v36.3H115.2z"/>
					<path fill="#005F9E" d="M131.8,245.6v-18.7h-4.3v-2.5h4.3v-7.2h2.9v7.2h5.3v2.5h-5.3v18.3c0,2.1,0.9,3.6,2.7,3.6
						c1.2,0,2.3-0.6,2.9-1.3l1.1,2.2c-1,1-2.3,1.6-4.4,1.6C133.4,251.3,131.8,249.2,131.8,245.6z"/>
					<path fill="#005F9E" d="M149.2,258.4c0.6,0.3,1.6,0.4,2.3,0.4c1.7,0,2.9-0.7,3.9-3.2l2-4.7l-11-26.5h3.1l9.5,23l9.4-23h3.2
						l-13.5,32.1c-1.4,3.3-3.6,4.9-6.7,4.9c-0.9,0-2.1-0.2-2.8-0.4L149.2,258.4z"/>
					<path fill="#005F9E" d="M198,232.5c0-11.2,8-18.8,18.2-18.8c5.7,0,10,2.6,13.1,6.4l-2.6,1.7c-2.3-3.2-6.2-5.3-10.5-5.3
						c-8.5,0-15,6.5-15,16c0,9.4,6.5,16,15,16c4.3,0,8.3-2.1,10.5-5.3l2.6,1.6c-3.2,4-7.4,6.5-13.1,6.5
						C206.1,251.3,198,243.7,198,232.5z"/>
					<path fill="#005F9E" d="M238.4,237.5c0-7.7,4.9-13.8,12.5-13.8c7.7,0,12.6,6.1,12.6,13.8c0,7.7-4.9,13.8-12.6,13.8
						C243.4,251.3,238.4,245.2,238.4,237.5z M260.5,237.5c0-5.8-3.4-11.2-9.5-11.2c-6,0-9.5,5.4-9.5,11.2c0,5.9,3.5,11.3,9.5,11.3
						C257.1,248.8,260.5,243.4,260.5,237.5z"/>
					<path fill="#005F9E" d="M306.2,250.7v-18.4c0-3.7-1.6-6-5.2-6c-2.8,0-6,2.1-7.4,4.5v19.9h-2.9v-18.4c0-3.7-1.5-6-5.2-6
						c-2.8,0-5.9,2.1-7.4,4.5v19.9h-2.8v-26.3h2.8v4c1.1-1.7,4.6-4.6,8.4-4.6c4,0,6.2,2.4,6.9,5c1.5-2.5,5-5,8.6-5
						c4.8,0,7.1,2.7,7.1,8v18.9H306.2z"/>
					<path fill="#005F9E" d="M325,246.4v14.3h-2.8v-36.3h2.8v4.1c1.8-2.7,5.2-4.8,9.1-4.8c7,0,11.7,5.3,11.7,13.8
						c0,8.4-4.7,13.8-11.7,13.8C330.4,251.3,327.1,249.4,325,246.4z M342.7,237.5c0-6.4-3.3-11.2-9.1-11.2c-3.6,0-7.1,2.2-8.6,4.7
						v13c1.5,2.5,5,4.8,8.6,4.8C339.4,248.8,342.7,243.9,342.7,237.5z"/>
					<path fill="#005F9E" d="M373.8,250.7v-3.1c-2.3,2.6-5.2,3.8-8.8,3.8c-4.5,0-9.1-3.1-9.1-8.8c0-5.7,4.6-8.7,9.1-8.7
						c3.6,0,6.6,1.2,8.8,3.8v-5.3c0-3.9-3.1-6-7-6c-3.2,0-5.8,1.1-8.1,3.9l-1.6-2c2.7-2.9,5.7-4.4,10-4.4c5.3,0,9.5,2.6,9.5,8.4
						v18.5H373.8z M373.8,245.5v-5.8c-1.8-2.4-4.8-3.6-7.9-3.6c-4.3,0-7.1,2.8-7.1,6.5c0,3.7,2.8,6.5,7.1,6.5
						C369,249.1,372,247.9,373.8,245.5z"/>
					<path fill="#005F9E" d="M407.4,250.7v-17.8c0-5.1-2.5-6.6-6.3-6.6c-3.3,0-6.8,2.1-8.5,4.5v19.9h-2.8v-26.3h2.8v4
						c1.9-2.3,5.6-4.6,9.4-4.6c5.3,0,8.2,2.6,8.2,8.5v18.4H407.4z"/>
					<path fill="#005F9E" d="M422.1,258.4c0.6,0.3,1.6,0.4,2.3,0.4c1.7,0,2.9-0.7,3.9-3.2l2-4.7l-11-26.5h3.1l9.5,23l9.4-23h3.2
						l-13.5,32.1c-1.4,3.3-3.6,4.9-6.7,4.9c-0.9,0-2.1-0.2-2.8-0.4L422.1,258.4z"/>
				</g>
			</g>
			<g>
				<polygon fill="#00B156" points="317.4,-58.7 258.7,-117.4 200.1,-58.9 170.1,-58.9 258.7,-147.5 347.5,-58.7 				"/>
				<polygon fill="#00B156" points="194.9,-147.5 106.3,-58.9 136.4,-58.9 194.9,-117.4 253.5,-58.8 283.5,-58.8 				"/>
				<polygon fill="#00B156" points="178.1,-164.3 163,-179.4 42.5,-58.8 72.6,-58.8 				"/>
				<g>
					<path fill="#8CC6EC" d="M317.4-49.1L258.9,9.7L242-7.1l41.5-42h-30l-26.6,26.8l-26.7-26.8l0,0h0h0h-29.9l41.6,41.8L163,41.5
						L72.6-49.1l0,0h-0.1h0H42.6L163,71.5l63.8-63.8l32.1,31.9l88.6-88.7H317.4z"/>
					<path fill="#8CC6EC" d="M161.5-23.7l-25.3-25.4h-29.9l40.4,40.5L161.5-23.7z"/>
				</g>
			</g>
		</g>
	</g>
</g>
<g id="blue_color_-_stacked" display="none">
	<g display="inline">
		<g>
			<g>
				<path fill="#005F9E" d="M-195,159.4c0-20.1,15-33.2,33.3-33.2c12.4,0,20.5,6,25.6,13.4l-9.1,5.2c-3.3-4.8-9.3-8.6-16.5-8.6
					c-12.6,0-21.9,9.7-21.9,23.2c0,13.5,9.3,23.3,21.9,23.3c6.5,0,12.2-3.1,15-5.8v-10h-19V157h30.1v24c-6.3,7-15.1,11.6-26.2,11.6
					C-180,192.7-195,179.5-195,159.4z"/>
				<path fill="#005F9E" d="M-122.2,168.2c0-13.3,9-24.3,23.6-24.3c14.8,0,23.7,11.1,23.7,24.3c0,13.4-9,24.4-23.7,24.4
					C-113.2,192.6-122.2,181.5-122.2,168.2z M-85.3,168.2c0-8.2-4.8-15.4-13.3-15.4c-8.5,0-13.2,7.2-13.2,15.4
					c0,8.3,4.8,15.5,13.2,15.5C-90,183.6-85.3,176.4-85.3,168.2z"/>
				<path fill="#005F9E" d="M-62.9,168.2c0-13.3,9-24.3,23.6-24.3c14.8,0,23.7,11.1,23.7,24.3c0,13.4-9,24.4-23.7,24.4
					C-53.9,192.6-62.9,181.5-62.9,168.2z M-25.9,168.2c0-8.2-4.8-15.4-13.3-15.4c-8.5,0-13.2,7.2-13.2,15.4
					c0,8.3,4.8,15.5,13.2,15.5C-30.7,183.6-25.9,176.4-25.9,168.2z"/>
				<path fill="#005F9E" d="M31.7,191.4v-6.3c-3.5,4.6-8.9,7.5-14.8,7.5c-11.8,0-20.5-9-20.5-24.3c0-15,8.6-24.4,20.5-24.4
					c5.7,0,11,2.7,14.8,7.6v-24.1h10v64.1H31.7z M31.7,177.5V159c-2.3-3.5-7.1-6.2-11.9-6.2c-7.9,0-13,6.4-13,15.5
					c0,8.9,5,15.4,13,15.4C24.5,183.6,29.4,181,31.7,177.5z"/>
				<path fill="#005F9E" d="M71.5,191.4L52.7,145h10.7l13.4,34.8L90.2,145H101l-18.8,46.4H71.5z"/>
				<path fill="#005F9E" d="M110.8,133.1c0-3.5,2.9-6.2,6.2-6.2c3.4,0,6.2,2.8,6.2,6.2c0,3.5-2.8,6.2-6.2,6.2
					C113.7,139.3,110.8,136.6,110.8,133.1z M112,191.4V145h10v46.4H112z"/>
				<path fill="#005F9E" d="M139.8,191.4v-64.1h10v64.1H139.8z"/>
				<path fill="#005F9E" d="M167.5,191.4v-64.1h10v64.1H167.5z"/>
				<path fill="#005F9E" d="M192.3,168.2c0-13.5,9.7-24.3,23.3-24.3c13.8,0,22.7,10.7,22.7,25.3v2.4h-35.5c0.8,7,6,12.8,14.7,12.8
					c4.5,0,9.8-1.8,13-5.1l4.6,6.6c-4.6,4.4-11.3,6.7-18.7,6.7C202.6,192.6,192.3,182.9,192.3,168.2z M215.7,152.1
					c-8.6,0-12.5,6.6-13,12.3h25.9C228.4,158.9,224.7,152.1,215.7,152.1z"/>
				<path fill="#005F9E" d="M337.4,191.4v-47.6l-19.5,47.6h-4.8l-19.4-47.6v47.6h-11.1v-64.1h15.7l17.2,42.2l17.3-42.2h15.7v64.1
					H337.4z"/>
				<path fill="#005F9E" d="M397.6,191.4v-6.2c-3.3,3.7-9,7.3-16.3,7.3c-9.9,0-14.8-5.2-14.8-14.7V145h10v29.2
					c0,7.2,3.6,9.4,9.2,9.4c5,0,9.4-2.9,11.8-6.1V145h10v46.4H397.6z"/>
				<path fill="#005F9E" d="M427.3,180.7v-26.8h-7.6V145h7.6v-12.7h10V145h9.3v8.8h-9.3v24.3c0,3.2,1.5,5.5,4.4,5.5
					c1.9,0,3.7-0.8,4.5-1.6l2.4,7.6c-1.8,1.7-4.8,3-9.4,3C431.4,192.6,427.3,188.4,427.3,180.7z"/>
				<path fill="#005F9E" d="M491.5,191.4v-6.2c-3.3,3.7-9,7.3-16.3,7.3c-9.9,0-14.8-5.2-14.8-14.7V145h10v29.2
					c0,7.2,3.6,9.4,9.2,9.4c5,0,9.4-2.9,11.8-6.1V145h10v46.4H491.5z"/>
				<path fill="#005F9E" d="M547.3,191.4v-5c-3.4,3.9-8.8,6.2-14.9,6.2c-7.5,0-16-5.1-16-15.4c0-10.7,8.5-15.1,16-15.1
					c6.2,0,11.5,2,14.9,6v-6.9c0-5.4-4.4-8.6-10.8-8.6c-5.1,0-9.6,1.9-13.6,5.9l-4.1-7c5.3-5.1,12-7.5,19.3-7.5
					c10.2,0,19.1,4.3,19.1,16.8v30.8H547.3z M547.3,180.9v-7c-2.3-3.2-6.6-4.8-11-4.8c-5.6,0-9.8,3.3-9.8,8.4c0,5,4.2,8.3,9.8,8.3
					C540.7,185.7,545,184,547.3,180.9z"/>
				<path fill="#005F9E" d="M575,191.4v-64.1h10v64.1H575z"/>
			</g>
			<g>
				<path fill="#005F9E" d="M-54.5,232.5c0-11.2,8-18.8,18.2-18.8c5.7,0,10,2.6,13.1,6.4l-2.6,1.7c-2.3-3.2-6.2-5.3-10.5-5.3
					c-8.5,0-15,6.5-15,16c0,9.4,6.5,16,15,16c4.3,0,8.3-2.1,10.5-5.3l2.6,1.6c-3.2,4-7.4,6.5-13.1,6.5
					C-46.5,251.3-54.5,243.7-54.5,232.5z"/>
				<path fill="#005F9E" d="M4,250.7v-3.1c-2.3,2.6-5.2,3.8-8.8,3.8c-4.5,0-9.1-3.1-9.1-8.8c0-5.7,4.6-8.7,9.1-8.7
					c3.6,0,6.6,1.2,8.8,3.8v-5.3c0-3.9-3.1-6-7-6c-3.2,0-5.8,1.1-8.1,3.9l-1.6-2c2.7-2.9,5.7-4.4,10-4.4c5.3,0,9.5,2.6,9.5,8.4v18.5
					H4z M4,245.5v-5.8c-1.8-2.4-4.8-3.6-7.9-3.6c-4.3,0-7.1,2.8-7.1,6.5c0,3.7,2.8,6.5,7.1,6.5C-0.8,249.1,2.1,247.9,4,245.5z"/>
				<path fill="#005F9E" d="M17.7,247.2l1.7-2.1c1.7,2.1,4.7,3.9,8.4,3.9c4.4,0,7-2.3,7-5.3c0-3.3-3.6-4.2-7.3-5.2
					c-4.4-1.1-9.2-2.2-9.2-7.4c0-4,3.4-7.3,9.3-7.3c4.5,0,7.4,1.7,9.3,3.9l-1.6,2c-1.5-2.1-4.3-3.5-7.8-3.5c-4,0-6.5,2.1-6.5,4.8
					c0,3,3.3,3.8,7,4.7c4.5,1.1,9.5,2.4,9.5,8c0,4.2-3.2,7.7-9.8,7.7C23.5,251.3,20.3,250.1,17.7,247.2z"/>
				<path fill="#005F9E" d="M66.7,250.7v-3.9c-2.2,2.4-5.6,4.5-9.4,4.5c-5.3,0-8.2-2.5-8.2-8.4v-18.5h2.8v17.9
					c0,5.1,2.5,6.5,6.3,6.5c3.3,0,6.7-2,8.5-4.4v-20h2.8v26.3H66.7z"/>
				<path fill="#005F9E" d="M99.3,250.7v-3.1c-2.3,2.6-5.2,3.8-8.8,3.8c-4.5,0-9.1-3.1-9.1-8.8c0-5.7,4.6-8.7,9.1-8.7
					c3.6,0,6.6,1.2,8.8,3.8v-5.3c0-3.9-3.1-6-7-6c-3.2,0-5.8,1.1-8.1,3.9l-1.6-2c2.7-2.9,5.7-4.4,10-4.4c5.3,0,9.5,2.6,9.5,8.4v18.5
					H99.3z M99.3,245.5v-5.8c-1.8-2.4-4.7-3.6-7.9-3.6c-4.3,0-7.1,2.8-7.1,6.5c0,3.7,2.8,6.5,7.1,6.5
					C94.5,249.1,97.4,247.9,99.3,245.5z"/>
				<path fill="#005F9E" d="M115.2,250.7v-36.3h2.8v36.3H115.2z"/>
				<path fill="#005F9E" d="M131.8,245.6v-18.7h-4.3v-2.5h4.3v-7.2h2.9v7.2h5.3v2.5h-5.3v18.3c0,2.1,0.9,3.6,2.7,3.6
					c1.2,0,2.3-0.6,2.9-1.3l1.1,2.2c-1,1-2.3,1.6-4.4,1.6C133.4,251.3,131.8,249.2,131.8,245.6z"/>
				<path fill="#005F9E" d="M149.2,258.4c0.6,0.3,1.6,0.4,2.3,0.4c1.7,0,2.9-0.7,3.9-3.2l2-4.7l-11-26.5h3.1l9.5,23l9.4-23h3.2
					l-13.5,32.1c-1.4,3.3-3.6,4.9-6.7,4.9c-0.9,0-2.1-0.2-2.8-0.4L149.2,258.4z"/>
				<path fill="#005F9E" d="M198,232.5c0-11.2,8-18.8,18.2-18.8c5.7,0,10,2.6,13.1,6.4l-2.6,1.7c-2.3-3.2-6.2-5.3-10.5-5.3
					c-8.5,0-15,6.5-15,16c0,9.4,6.5,16,15,16c4.3,0,8.3-2.1,10.5-5.3l2.6,1.6c-3.2,4-7.4,6.5-13.1,6.5
					C206.1,251.3,198,243.7,198,232.5z"/>
				<path fill="#005F9E" d="M238.4,237.5c0-7.7,4.9-13.8,12.5-13.8c7.7,0,12.6,6.1,12.6,13.8c0,7.7-4.9,13.8-12.6,13.8
					C243.4,251.3,238.4,245.2,238.4,237.5z M260.5,237.5c0-5.8-3.4-11.2-9.5-11.2c-6,0-9.5,5.4-9.5,11.2c0,5.9,3.5,11.3,9.5,11.3
					C257.1,248.8,260.5,243.4,260.5,237.5z"/>
				<path fill="#005F9E" d="M306.2,250.7v-18.4c0-3.7-1.6-6-5.2-6c-2.8,0-6,2.1-7.4,4.5v19.9h-2.9v-18.4c0-3.7-1.5-6-5.2-6
					c-2.8,0-5.9,2.1-7.4,4.5v19.9h-2.8v-26.3h2.8v4c1.1-1.7,4.6-4.6,8.4-4.6c4,0,6.2,2.4,6.9,5c1.5-2.5,5-5,8.6-5
					c4.8,0,7.1,2.7,7.1,8v18.9H306.2z"/>
				<path fill="#005F9E" d="M325,246.4v14.3h-2.8v-36.3h2.8v4.1c1.8-2.7,5.2-4.8,9.1-4.8c7,0,11.7,5.3,11.7,13.8
					c0,8.4-4.7,13.8-11.7,13.8C330.4,251.3,327.1,249.4,325,246.4z M342.7,237.5c0-6.4-3.3-11.2-9.1-11.2c-3.6,0-7.1,2.2-8.6,4.7v13
					c1.5,2.5,5,4.8,8.6,4.8C339.4,248.8,342.7,243.9,342.7,237.5z"/>
				<path fill="#005F9E" d="M373.8,250.7v-3.1c-2.3,2.6-5.2,3.8-8.8,3.8c-4.5,0-9.1-3.1-9.1-8.8c0-5.7,4.6-8.7,9.1-8.7
					c3.6,0,6.6,1.2,8.8,3.8v-5.3c0-3.9-3.1-6-7-6c-3.2,0-5.8,1.1-8.1,3.9l-1.6-2c2.7-2.9,5.7-4.4,10-4.4c5.3,0,9.5,2.6,9.5,8.4v18.5
					H373.8z M373.8,245.5v-5.8c-1.8-2.4-4.8-3.6-7.9-3.6c-4.3,0-7.1,2.8-7.1,6.5c0,3.7,2.8,6.5,7.1,6.5
					C369,249.1,372,247.9,373.8,245.5z"/>
				<path fill="#005F9E" d="M407.4,250.7v-17.8c0-5.1-2.5-6.6-6.3-6.6c-3.3,0-6.8,2.1-8.5,4.5v19.9h-2.8v-26.3h2.8v4
					c1.9-2.3,5.6-4.6,9.4-4.6c5.3,0,8.2,2.6,8.2,8.5v18.4H407.4z"/>
				<path fill="#005F9E" d="M422.1,258.4c0.6,0.3,1.6,0.4,2.3,0.4c1.7,0,2.9-0.7,3.9-3.2l2-4.7l-11-26.5h3.1l9.5,23l9.4-23h3.2
					l-13.5,32.1c-1.4,3.3-3.6,4.9-6.7,4.9c-0.9,0-2.1-0.2-2.8-0.4L422.1,258.4z"/>
			</g>
		</g>
		<g>
			<polygon fill="#005F9E" points="317.4,-58.7 258.7,-117.4 200.1,-58.9 170.1,-58.9 258.7,-147.5 347.5,-58.7 			"/>
			<polygon fill="#005F9E" points="194.9,-147.5 106.3,-58.9 136.4,-58.9 194.9,-117.4 253.5,-58.8 283.5,-58.8 			"/>
			<polygon fill="#005F9E" points="178.1,-164.3 163,-179.4 42.5,-58.8 72.6,-58.8 			"/>
			<g>
				<path fill="#005F9E" d="M317.4-49.1L258.9,9.7L242-7.1l41.5-42h-30l-26.6,26.8l-26.7-26.8l0,0h0h0h-29.9l41.6,41.8L163,41.5
					L72.6-49.1l0,0h-0.1h0H42.6L163,71.5l63.8-63.8l32.1,31.9l88.6-88.7H317.4z"/>
				<path fill="#005F9E" d="M161.5-23.7l-25.3-25.4h-29.9l40.4,40.5L161.5-23.7z"/>
			</g>
		</g>
	</g>
</g>
<g id="black_color_-_stacked" display="none">
	<g display="inline">
		<g>
			<g>
				<g>
					<path d="M-195,159.4c0-20.1,15-33.2,33.3-33.2c12.4,0,20.5,6,25.6,13.4l-9.1,5.2c-3.3-4.8-9.3-8.6-16.5-8.6
						c-12.6,0-21.9,9.7-21.9,23.2c0,13.5,9.3,23.3,21.9,23.3c6.5,0,12.2-3.1,15-5.8v-10h-19V157h30.1v24c-6.3,7-15.1,11.6-26.2,11.6
						C-180,192.7-195,179.5-195,159.4z"/>
					<path d="M-122.2,168.2c0-13.3,9-24.3,23.6-24.3c14.8,0,23.7,11.1,23.7,24.3c0,13.4-9,24.4-23.7,24.4
						C-113.2,192.6-122.2,181.5-122.2,168.2z M-85.3,168.2c0-8.2-4.8-15.4-13.3-15.4c-8.5,0-13.2,7.2-13.2,15.4
						c0,8.3,4.8,15.5,13.2,15.5C-90,183.6-85.3,176.4-85.3,168.2z"/>
					<path d="M-62.9,168.2c0-13.3,9-24.3,23.6-24.3c14.8,0,23.7,11.1,23.7,24.3c0,13.4-9,24.4-23.7,24.4
						C-53.9,192.6-62.9,181.5-62.9,168.2z M-25.9,168.2c0-8.2-4.8-15.4-13.3-15.4c-8.5,0-13.2,7.2-13.2,15.4
						c0,8.3,4.8,15.5,13.2,15.5C-30.7,183.6-25.9,176.4-25.9,168.2z"/>
					<path d="M31.7,191.4v-6.3c-3.5,4.6-8.9,7.5-14.8,7.5c-11.8,0-20.5-9-20.5-24.3c0-15,8.6-24.4,20.5-24.4c5.7,0,11,2.7,14.8,7.6
						v-24.1h10v64.1H31.7z M31.7,177.5V159c-2.3-3.5-7.1-6.2-11.9-6.2c-7.9,0-13,6.4-13,15.5c0,8.9,5,15.4,13,15.4
						C24.5,183.6,29.4,181,31.7,177.5z"/>
					<path d="M71.5,191.4L52.7,145h10.7l13.4,34.8L90.2,145H101l-18.8,46.4H71.5z"/>
					<path d="M110.8,133.1c0-3.5,2.9-6.2,6.2-6.2c3.4,0,6.2,2.8,6.2,6.2c0,3.5-2.8,6.2-6.2,6.2C113.7,139.3,110.8,136.6,110.8,133.1
						z M112,191.4V145h10v46.4H112z"/>
					<path d="M139.8,191.4v-64.1h10v64.1H139.8z"/>
					<path d="M167.5,191.4v-64.1h10v64.1H167.5z"/>
					<path d="M192.3,168.2c0-13.5,9.7-24.3,23.3-24.3c13.8,0,22.7,10.7,22.7,25.3v2.4h-35.5c0.8,7,6,12.8,14.7,12.8
						c4.5,0,9.8-1.8,13-5.1l4.6,6.6c-4.6,4.4-11.3,6.7-18.7,6.7C202.6,192.6,192.3,182.9,192.3,168.2z M215.7,152.1
						c-8.6,0-12.5,6.6-13,12.3h25.9C228.4,158.9,224.7,152.1,215.7,152.1z"/>
					<path d="M337.4,191.4v-47.6l-19.5,47.6h-4.8l-19.4-47.6v47.6h-11.1v-64.1h15.7l17.2,42.2l17.3-42.2h15.7v64.1H337.4z"/>
					<path d="M397.6,191.4v-6.2c-3.3,3.7-9,7.3-16.3,7.3c-9.9,0-14.8-5.2-14.8-14.7V145h10v29.2c0,7.2,3.6,9.4,9.2,9.4
						c5,0,9.4-2.9,11.8-6.1V145h10v46.4H397.6z"/>
					<path d="M427.3,180.7v-26.8h-7.6V145h7.6v-12.7h10V145h9.3v8.8h-9.3v24.3c0,3.2,1.5,5.5,4.4,5.5c1.9,0,3.7-0.8,4.5-1.6l2.4,7.6
						c-1.8,1.7-4.8,3-9.4,3C431.4,192.6,427.3,188.4,427.3,180.7z"/>
					<path d="M491.5,191.4v-6.2c-3.3,3.7-9,7.3-16.3,7.3c-9.9,0-14.8-5.2-14.8-14.7V145h10v29.2c0,7.2,3.6,9.4,9.2,9.4
						c5,0,9.4-2.9,11.8-6.1V145h10v46.4H491.5z"/>
					<path d="M547.3,191.4v-5c-3.4,3.9-8.8,6.2-14.9,6.2c-7.5,0-16-5.1-16-15.4c0-10.7,8.5-15.1,16-15.1c6.2,0,11.5,2,14.9,6v-6.9
						c0-5.4-4.4-8.6-10.8-8.6c-5.1,0-9.6,1.9-13.6,5.9l-4.1-7c5.3-5.1,12-7.5,19.3-7.5c10.2,0,19.1,4.3,19.1,16.8v30.8H547.3z
						 M547.3,180.9v-7c-2.3-3.2-6.6-4.8-11-4.8c-5.6,0-9.8,3.3-9.8,8.4c0,5,4.2,8.3,9.8,8.3C540.7,185.7,545,184,547.3,180.9z"/>
					<path d="M575,191.4v-64.1h10v64.1H575z"/>
				</g>
				<g>
					<path d="M-54.5,232.5c0-11.2,8-18.8,18.2-18.8c5.7,0,10,2.6,13.1,6.4l-2.6,1.7c-2.3-3.2-6.2-5.3-10.5-5.3c-8.5,0-15,6.5-15,16
						c0,9.4,6.5,16,15,16c4.3,0,8.3-2.1,10.5-5.3l2.6,1.6c-3.2,4-7.4,6.5-13.1,6.5C-46.5,251.3-54.5,243.7-54.5,232.5z"/>
					<path d="M4,250.7v-3.1c-2.3,2.6-5.2,3.8-8.8,3.8c-4.5,0-9.1-3.1-9.1-8.8c0-5.7,4.6-8.7,9.1-8.7c3.6,0,6.6,1.2,8.8,3.8v-5.3
						c0-3.9-3.1-6-7-6c-3.2,0-5.8,1.1-8.1,3.9l-1.6-2c2.7-2.9,5.7-4.4,10-4.4c5.3,0,9.5,2.6,9.5,8.4v18.5H4z M4,245.5v-5.8
						c-1.8-2.4-4.8-3.6-7.9-3.6c-4.3,0-7.1,2.8-7.1,6.5c0,3.7,2.8,6.5,7.1,6.5C-0.8,249.1,2.1,247.9,4,245.5z"/>
					<path d="M17.7,247.2l1.7-2.1c1.7,2.1,4.7,3.9,8.4,3.9c4.4,0,7-2.3,7-5.3c0-3.3-3.6-4.2-7.3-5.2c-4.4-1.1-9.2-2.2-9.2-7.4
						c0-4,3.4-7.3,9.3-7.3c4.5,0,7.4,1.7,9.3,3.9l-1.6,2c-1.5-2.1-4.3-3.5-7.8-3.5c-4,0-6.5,2.1-6.5,4.8c0,3,3.3,3.8,7,4.7
						c4.5,1.1,9.5,2.4,9.5,8c0,4.2-3.2,7.7-9.8,7.7C23.5,251.3,20.3,250.1,17.7,247.2z"/>
					<path d="M66.7,250.7v-3.9c-2.2,2.4-5.6,4.5-9.4,4.5c-5.3,0-8.2-2.5-8.2-8.4v-18.5h2.8v17.9c0,5.1,2.5,6.5,6.3,6.5
						c3.3,0,6.7-2,8.5-4.4v-20h2.8v26.3H66.7z"/>
					<path d="M99.3,250.7v-3.1c-2.3,2.6-5.2,3.8-8.8,3.8c-4.5,0-9.1-3.1-9.1-8.8c0-5.7,4.6-8.7,9.1-8.7c3.6,0,6.6,1.2,8.8,3.8v-5.3
						c0-3.9-3.1-6-7-6c-3.2,0-5.8,1.1-8.1,3.9l-1.6-2c2.7-2.9,5.7-4.4,10-4.4c5.3,0,9.5,2.6,9.5,8.4v18.5H99.3z M99.3,245.5v-5.8
						c-1.8-2.4-4.7-3.6-7.9-3.6c-4.3,0-7.1,2.8-7.1,6.5c0,3.7,2.8,6.5,7.1,6.5C94.5,249.1,97.4,247.9,99.3,245.5z"/>
					<path d="M115.2,250.7v-36.3h2.8v36.3H115.2z"/>
					<path d="M131.8,245.6v-18.7h-4.3v-2.5h4.3v-7.2h2.9v7.2h5.3v2.5h-5.3v18.3c0,2.1,0.9,3.6,2.7,3.6c1.2,0,2.3-0.6,2.9-1.3
						l1.1,2.2c-1,1-2.3,1.6-4.4,1.6C133.4,251.3,131.8,249.2,131.8,245.6z"/>
					<path d="M149.2,258.4c0.6,0.3,1.6,0.4,2.3,0.4c1.7,0,2.9-0.7,3.9-3.2l2-4.7l-11-26.5h3.1l9.5,23l9.4-23h3.2l-13.5,32.1
						c-1.4,3.3-3.6,4.9-6.7,4.9c-0.9,0-2.1-0.2-2.8-0.4L149.2,258.4z"/>
					<path d="M198,232.5c0-11.2,8-18.8,18.2-18.8c5.7,0,10,2.6,13.1,6.4l-2.6,1.7c-2.3-3.2-6.2-5.3-10.5-5.3c-8.5,0-15,6.5-15,16
						c0,9.4,6.5,16,15,16c4.3,0,8.3-2.1,10.5-5.3l2.6,1.6c-3.2,4-7.4,6.5-13.1,6.5C206.1,251.3,198,243.7,198,232.5z"/>
					<path d="M238.4,237.5c0-7.7,4.9-13.8,12.5-13.8c7.7,0,12.6,6.1,12.6,13.8c0,7.7-4.9,13.8-12.6,13.8
						C243.4,251.3,238.4,245.2,238.4,237.5z M260.5,237.5c0-5.8-3.4-11.2-9.5-11.2c-6,0-9.5,5.4-9.5,11.2c0,5.9,3.5,11.3,9.5,11.3
						C257.1,248.8,260.5,243.4,260.5,237.5z"/>
					<path d="M306.2,250.7v-18.4c0-3.7-1.6-6-5.2-6c-2.8,0-6,2.1-7.4,4.5v19.9h-2.9v-18.4c0-3.7-1.5-6-5.2-6c-2.8,0-5.9,2.1-7.4,4.5
						v19.9h-2.8v-26.3h2.8v4c1.1-1.7,4.6-4.6,8.4-4.6c4,0,6.2,2.4,6.9,5c1.5-2.5,5-5,8.6-5c4.8,0,7.1,2.7,7.1,8v18.9H306.2z"/>
					<path d="M325,246.4v14.3h-2.8v-36.3h2.8v4.1c1.8-2.7,5.2-4.8,9.1-4.8c7,0,11.7,5.3,11.7,13.8c0,8.4-4.7,13.8-11.7,13.8
						C330.4,251.3,327.1,249.4,325,246.4z M342.7,237.5c0-6.4-3.3-11.2-9.1-11.2c-3.6,0-7.1,2.2-8.6,4.7v13c1.5,2.5,5,4.8,8.6,4.8
						C339.4,248.8,342.7,243.9,342.7,237.5z"/>
					<path d="M373.8,250.7v-3.1c-2.3,2.6-5.2,3.8-8.8,3.8c-4.5,0-9.1-3.1-9.1-8.8c0-5.7,4.6-8.7,9.1-8.7c3.6,0,6.6,1.2,8.8,3.8v-5.3
						c0-3.9-3.1-6-7-6c-3.2,0-5.8,1.1-8.1,3.9l-1.6-2c2.7-2.9,5.7-4.4,10-4.4c5.3,0,9.5,2.6,9.5,8.4v18.5H373.8z M373.8,245.5v-5.8
						c-1.8-2.4-4.8-3.6-7.9-3.6c-4.3,0-7.1,2.8-7.1,6.5c0,3.7,2.8,6.5,7.1,6.5C369,249.1,372,247.9,373.8,245.5z"/>
					<path d="M407.4,250.7v-17.8c0-5.1-2.5-6.6-6.3-6.6c-3.3,0-6.8,2.1-8.5,4.5v19.9h-2.8v-26.3h2.8v4c1.9-2.3,5.6-4.6,9.4-4.6
						c5.3,0,8.2,2.6,8.2,8.5v18.4H407.4z"/>
					<path d="M422.1,258.4c0.6,0.3,1.6,0.4,2.3,0.4c1.7,0,2.9-0.7,3.9-3.2l2-4.7l-11-26.5h3.1l9.5,23l9.4-23h3.2l-13.5,32.1
						c-1.4,3.3-3.6,4.9-6.7,4.9c-0.9,0-2.1-0.2-2.8-0.4L422.1,258.4z"/>
				</g>
			</g>
			<g>
				<polygon points="317.4,-58.7 258.7,-117.4 200.1,-58.9 170.1,-58.9 258.7,-147.5 347.5,-58.7 				"/>
				<polygon points="194.9,-147.5 106.3,-58.9 136.4,-58.9 194.9,-117.4 253.5,-58.8 283.5,-58.8 				"/>
				<polygon points="178.1,-164.3 163,-179.4 42.5,-58.8 72.6,-58.8 				"/>
				<g>
					<path d="M317.4-49.1L258.9,9.7L242-7.1l41.5-42h-30l-26.6,26.8l-26.7-26.8l0,0h0h0h-29.9l41.6,41.8L163,41.5L72.6-49.1l0,0
						h-0.1h0H42.6L163,71.5l63.8-63.8l32.1,31.9l88.6-88.7H317.4z"/>
					<path d="M161.5-23.7l-25.3-25.4h-29.9l40.4,40.5L161.5-23.7z"/>
				</g>
			</g>
		</g>
	</g>
</g>
<g id="white_color_-_stacked" display="none">
	<g display="inline">
		<g>
			<g>
				<g>
					<path fill="#FFFFFF" d="M-195,159.4c0-20.1,15-33.2,33.3-33.2c12.4,0,20.5,6,25.6,13.4l-9.1,5.2c-3.3-4.8-9.3-8.6-16.5-8.6
						c-12.6,0-21.9,9.7-21.9,23.2c0,13.5,9.3,23.3,21.9,23.3c6.5,0,12.2-3.1,15-5.8v-10h-19V157h30.1v24c-6.3,7-15.1,11.6-26.2,11.6
						C-180,192.7-195,179.5-195,159.4z"/>
					<path fill="#FFFFFF" d="M-122.2,168.2c0-13.3,9-24.3,23.6-24.3c14.8,0,23.7,11.1,23.7,24.3c0,13.4-9,24.4-23.7,24.4
						C-113.2,192.6-122.2,181.5-122.2,168.2z M-85.3,168.2c0-8.2-4.8-15.4-13.3-15.4c-8.5,0-13.2,7.2-13.2,15.4
						c0,8.3,4.8,15.5,13.2,15.5C-90,183.6-85.3,176.4-85.3,168.2z"/>
					<path fill="#FFFFFF" d="M-62.9,168.2c0-13.3,9-24.3,23.6-24.3c14.8,0,23.7,11.1,23.7,24.3c0,13.4-9,24.4-23.7,24.4
						C-53.9,192.6-62.9,181.5-62.9,168.2z M-25.9,168.2c0-8.2-4.8-15.4-13.3-15.4c-8.5,0-13.2,7.2-13.2,15.4
						c0,8.3,4.8,15.5,13.2,15.5C-30.7,183.6-25.9,176.4-25.9,168.2z"/>
					<path fill="#FFFFFF" d="M31.7,191.4v-6.3c-3.5,4.6-8.9,7.5-14.8,7.5c-11.8,0-20.5-9-20.5-24.3c0-15,8.6-24.4,20.5-24.4
						c5.7,0,11,2.7,14.8,7.6v-24.1h10v64.1H31.7z M31.7,177.5V159c-2.3-3.5-7.1-6.2-11.9-6.2c-7.9,0-13,6.4-13,15.5
						c0,8.9,5,15.4,13,15.4C24.5,183.6,29.4,181,31.7,177.5z"/>
					<path fill="#FFFFFF" d="M71.5,191.4L52.7,145h10.7l13.4,34.8L90.2,145H101l-18.8,46.4H71.5z"/>
					<path fill="#FFFFFF" d="M110.8,133.1c0-3.5,2.9-6.2,6.2-6.2c3.4,0,6.2,2.8,6.2,6.2c0,3.5-2.8,6.2-6.2,6.2
						C113.7,139.3,110.8,136.6,110.8,133.1z M112,191.4V145h10v46.4H112z"/>
					<path fill="#FFFFFF" d="M139.8,191.4v-64.1h10v64.1H139.8z"/>
					<path fill="#FFFFFF" d="M167.5,191.4v-64.1h10v64.1H167.5z"/>
					<path fill="#FFFFFF" d="M192.3,168.2c0-13.5,9.7-24.3,23.3-24.3c13.8,0,22.7,10.7,22.7,25.3v2.4h-35.5c0.8,7,6,12.8,14.7,12.8
						c4.5,0,9.8-1.8,13-5.1l4.6,6.6c-4.6,4.4-11.3,6.7-18.7,6.7C202.6,192.6,192.3,182.9,192.3,168.2z M215.7,152.1
						c-8.6,0-12.5,6.6-13,12.3h25.9C228.4,158.9,224.7,152.1,215.7,152.1z"/>
					<path fill="#FFFFFF" d="M337.4,191.4v-47.6l-19.5,47.6h-4.8l-19.4-47.6v47.6h-11.1v-64.1h15.7l17.2,42.2l17.3-42.2h15.7v64.1
						H337.4z"/>
					<path fill="#FFFFFF" d="M397.6,191.4v-6.2c-3.3,3.7-9,7.3-16.3,7.3c-9.9,0-14.8-5.2-14.8-14.7V145h10v29.2
						c0,7.2,3.6,9.4,9.2,9.4c5,0,9.4-2.9,11.8-6.1V145h10v46.4H397.6z"/>
					<path fill="#FFFFFF" d="M427.3,180.7v-26.8h-7.6V145h7.6v-12.7h10V145h9.3v8.8h-9.3v24.3c0,3.2,1.5,5.5,4.4,5.5
						c1.9,0,3.7-0.8,4.5-1.6l2.4,7.6c-1.8,1.7-4.8,3-9.4,3C431.4,192.6,427.3,188.4,427.3,180.7z"/>
					<path fill="#FFFFFF" d="M491.5,191.4v-6.2c-3.3,3.7-9,7.3-16.3,7.3c-9.9,0-14.8-5.2-14.8-14.7V145h10v29.2
						c0,7.2,3.6,9.4,9.2,9.4c5,0,9.4-2.9,11.8-6.1V145h10v46.4H491.5z"/>
					<path fill="#FFFFFF" d="M547.3,191.4v-5c-3.4,3.9-8.8,6.2-14.9,6.2c-7.5,0-16-5.1-16-15.4c0-10.7,8.5-15.1,16-15.1
						c6.2,0,11.5,2,14.9,6v-6.9c0-5.4-4.4-8.6-10.8-8.6c-5.1,0-9.6,1.9-13.6,5.9l-4.1-7c5.3-5.1,12-7.5,19.3-7.5
						c10.2,0,19.1,4.3,19.1,16.8v30.8H547.3z M547.3,180.9v-7c-2.3-3.2-6.6-4.8-11-4.8c-5.6,0-9.8,3.3-9.8,8.4c0,5,4.2,8.3,9.8,8.3
						C540.7,185.7,545,184,547.3,180.9z"/>
					<path fill="#FFFFFF" d="M575,191.4v-64.1h10v64.1H575z"/>
				</g>
				<g>
					<path fill="#FFFFFF" d="M-54.5,232.5c0-11.2,8-18.8,18.2-18.8c5.7,0,10,2.6,13.1,6.4l-2.6,1.7c-2.3-3.2-6.2-5.3-10.5-5.3
						c-8.5,0-15,6.5-15,16c0,9.4,6.5,16,15,16c4.3,0,8.3-2.1,10.5-5.3l2.6,1.6c-3.2,4-7.4,6.5-13.1,6.5
						C-46.5,251.3-54.5,243.7-54.5,232.5z"/>
					<path fill="#FFFFFF" d="M4,250.7v-3.1c-2.3,2.6-5.2,3.8-8.8,3.8c-4.5,0-9.1-3.1-9.1-8.8c0-5.7,4.6-8.7,9.1-8.7
						c3.6,0,6.6,1.2,8.8,3.8v-5.3c0-3.9-3.1-6-7-6c-3.2,0-5.8,1.1-8.1,3.9l-1.6-2c2.7-2.9,5.7-4.4,10-4.4c5.3,0,9.5,2.6,9.5,8.4
						v18.5H4z M4,245.5v-5.8c-1.8-2.4-4.8-3.6-7.9-3.6c-4.3,0-7.1,2.8-7.1,6.5c0,3.7,2.8,6.5,7.1,6.5C-0.8,249.1,2.1,247.9,4,245.5z
						"/>
					<path fill="#FFFFFF" d="M17.7,247.2l1.7-2.1c1.7,2.1,4.7,3.9,8.4,3.9c4.4,0,7-2.3,7-5.3c0-3.3-3.6-4.2-7.3-5.2
						c-4.4-1.1-9.2-2.2-9.2-7.4c0-4,3.4-7.3,9.3-7.3c4.5,0,7.4,1.7,9.3,3.9l-1.6,2c-1.5-2.1-4.3-3.5-7.8-3.5c-4,0-6.5,2.1-6.5,4.8
						c0,3,3.3,3.8,7,4.7c4.5,1.1,9.5,2.4,9.5,8c0,4.2-3.2,7.7-9.8,7.7C23.5,251.3,20.3,250.1,17.7,247.2z"/>
					<path fill="#FFFFFF" d="M66.7,250.7v-3.9c-2.2,2.4-5.6,4.5-9.4,4.5c-5.3,0-8.2-2.5-8.2-8.4v-18.5h2.8v17.9
						c0,5.1,2.5,6.5,6.3,6.5c3.3,0,6.7-2,8.5-4.4v-20h2.8v26.3H66.7z"/>
					<path fill="#FFFFFF" d="M99.3,250.7v-3.1c-2.3,2.6-5.2,3.8-8.8,3.8c-4.5,0-9.1-3.1-9.1-8.8c0-5.7,4.6-8.7,9.1-8.7
						c3.6,0,6.6,1.2,8.8,3.8v-5.3c0-3.9-3.1-6-7-6c-3.2,0-5.8,1.1-8.1,3.9l-1.6-2c2.7-2.9,5.7-4.4,10-4.4c5.3,0,9.5,2.6,9.5,8.4
						v18.5H99.3z M99.3,245.5v-5.8c-1.8-2.4-4.7-3.6-7.9-3.6c-4.3,0-7.1,2.8-7.1,6.5c0,3.7,2.8,6.5,7.1,6.5
						C94.5,249.1,97.4,247.9,99.3,245.5z"/>
					<path fill="#FFFFFF" d="M115.2,250.7v-36.3h2.8v36.3H115.2z"/>
					<path fill="#FFFFFF" d="M131.8,245.6v-18.7h-4.3v-2.5h4.3v-7.2h2.9v7.2h5.3v2.5h-5.3v18.3c0,2.1,0.9,3.6,2.7,3.6
						c1.2,0,2.3-0.6,2.9-1.3l1.1,2.2c-1,1-2.3,1.6-4.4,1.6C133.4,251.3,131.8,249.2,131.8,245.6z"/>
					<path fill="#FFFFFF" d="M149.2,258.4c0.6,0.3,1.6,0.4,2.3,0.4c1.7,0,2.9-0.7,3.9-3.2l2-4.7l-11-26.5h3.1l9.5,23l9.4-23h3.2
						l-13.5,32.1c-1.4,3.3-3.6,4.9-6.7,4.9c-0.9,0-2.1-0.2-2.8-0.4L149.2,258.4z"/>
					<path fill="#FFFFFF" d="M198,232.5c0-11.2,8-18.8,18.2-18.8c5.7,0,10,2.6,13.1,6.4l-2.6,1.7c-2.3-3.2-6.2-5.3-10.5-5.3
						c-8.5,0-15,6.5-15,16c0,9.4,6.5,16,15,16c4.3,0,8.3-2.1,10.5-5.3l2.6,1.6c-3.2,4-7.4,6.5-13.1,6.5
						C206.1,251.3,198,243.7,198,232.5z"/>
					<path fill="#FFFFFF" d="M238.4,237.5c0-7.7,4.9-13.8,12.5-13.8c7.7,0,12.6,6.1,12.6,13.8c0,7.7-4.9,13.8-12.6,13.8
						C243.4,251.3,238.4,245.2,238.4,237.5z M260.5,237.5c0-5.8-3.4-11.2-9.5-11.2c-6,0-9.5,5.4-9.5,11.2c0,5.9,3.5,11.3,9.5,11.3
						C257.1,248.8,260.5,243.4,260.5,237.5z"/>
					<path fill="#FFFFFF" d="M306.2,250.7v-18.4c0-3.7-1.6-6-5.2-6c-2.8,0-6,2.1-7.4,4.5v19.9h-2.9v-18.4c0-3.7-1.5-6-5.2-6
						c-2.8,0-5.9,2.1-7.4,4.5v19.9h-2.8v-26.3h2.8v4c1.1-1.7,4.6-4.6,8.4-4.6c4,0,6.2,2.4,6.9,5c1.5-2.5,5-5,8.6-5
						c4.8,0,7.1,2.7,7.1,8v18.9H306.2z"/>
					<path fill="#FFFFFF" d="M325,246.4v14.3h-2.8v-36.3h2.8v4.1c1.8-2.7,5.2-4.8,9.1-4.8c7,0,11.7,5.3,11.7,13.8
						c0,8.4-4.7,13.8-11.7,13.8C330.4,251.3,327.1,249.4,325,246.4z M342.7,237.5c0-6.4-3.3-11.2-9.1-11.2c-3.6,0-7.1,2.2-8.6,4.7
						v13c1.5,2.5,5,4.8,8.6,4.8C339.4,248.8,342.7,243.9,342.7,237.5z"/>
					<path fill="#FFFFFF" d="M373.8,250.7v-3.1c-2.3,2.6-5.2,3.8-8.8,3.8c-4.5,0-9.1-3.1-9.1-8.8c0-5.7,4.6-8.7,9.1-8.7
						c3.6,0,6.6,1.2,8.8,3.8v-5.3c0-3.9-3.1-6-7-6c-3.2,0-5.8,1.1-8.1,3.9l-1.6-2c2.7-2.9,5.7-4.4,10-4.4c5.3,0,9.5,2.6,9.5,8.4
						v18.5H373.8z M373.8,245.5v-5.8c-1.8-2.4-4.8-3.6-7.9-3.6c-4.3,0-7.1,2.8-7.1,6.5c0,3.7,2.8,6.5,7.1,6.5
						C369,249.1,372,247.9,373.8,245.5z"/>
					<path fill="#FFFFFF" d="M407.4,250.7v-17.8c0-5.1-2.5-6.6-6.3-6.6c-3.3,0-6.8,2.1-8.5,4.5v19.9h-2.8v-26.3h2.8v4
						c1.9-2.3,5.6-4.6,9.4-4.6c5.3,0,8.2,2.6,8.2,8.5v18.4H407.4z"/>
					<path fill="#FFFFFF" d="M422.1,258.4c0.6,0.3,1.6,0.4,2.3,0.4c1.7,0,2.9-0.7,3.9-3.2l2-4.7l-11-26.5h3.1l9.5,23l9.4-23h3.2
						l-13.5,32.1c-1.4,3.3-3.6,4.9-6.7,4.9c-0.9,0-2.1-0.2-2.8-0.4L422.1,258.4z"/>
				</g>
			</g>
			<g>
				<polygon fill="#FFFFFF" points="317.4,-58.7 258.7,-117.4 200.1,-58.9 170.1,-58.9 258.7,-147.5 347.5,-58.7 				"/>
				<polygon fill="#FFFFFF" points="194.9,-147.5 106.3,-58.9 136.4,-58.9 194.9,-117.4 253.5,-58.8 283.5,-58.8 				"/>
				<polygon fill="#FFFFFF" points="178.1,-164.3 163,-179.4 42.5,-58.8 72.6,-58.8 				"/>
				<g>
					<path fill="#FFFFFF" d="M317.4-49.1L258.9,9.7L242-7.1l41.5-42h-30l-26.6,26.8l-26.7-26.8l0,0h0h0h-29.9l41.6,41.8L163,41.5
						L72.6-49.1l0,0h-0.1h0H42.6L163,71.5l63.8-63.8l32.1,31.9l88.6-88.7H317.4z"/>
					<path fill="#FFFFFF" d="M161.5-23.7l-25.3-25.4h-29.9l40.4,40.5L161.5-23.7z"/>
				</g>
			</g>
		</g>
	</g>
</g>
</svg>
