<?xml version="1.0" encoding="UTF-8"?>
<svg width="358px" height="92px" viewBox="0 0 358 92" version="1.1" xmlns="http://www.w3.org/2000/svg" xmlns:xlink="http://www.w3.org/1999/xlink">
    <!-- Generator: Sketch 55.2 (78181) - https://sketchapp.com -->
    <title>GFSClogo541</title>
    <desc>Created with Sketch.</desc>
    <defs>
        <polygon id="path-1" points="0.06 0.439 58.125 0.439 58.125 43.77 0.06 43.77"></polygon>
    </defs>
    <g id="GFSClogo541" stroke="none" stroke-width="1" fill="none" fill-rule="evenodd">
        <path d="M88.695,31.605 C88.695,33.535 83.276,35.187 79.51,35.187 C71.427,35.187 67.201,29.951 67.201,18.836 C67.201,7.952 71.38,2.165 79.602,2.165 C83.735,2.165 88.145,4.186 88.145,4.965 C88.145,5.104 88.099,5.287 87.915,5.655 L86.399,8.686 C86.261,8.962 86.077,9.145 85.895,9.145 C85.619,9.145 83.046,7.125 79.924,7.125 C75.239,7.125 73.723,11.487 73.723,18.514 C73.723,25.68 74.917,30.227 79.877,30.227 C81.577,30.227 82.771,29.676 83.185,29.492 L83.185,22.833 L79.74,22.833 C78.959,22.833 78.776,22.695 78.776,21.868 L78.776,18.836 C78.776,18.01 78.959,17.872 79.74,17.872 L87.731,17.872 C88.512,17.872 88.695,18.01 88.695,18.836 L88.695,31.605" id="Fill-1" fill="#1A1919"></path>
        <path d="M102.659,33.763 C102.659,34.269 102.568,34.406 102.017,34.406 L97.469,34.406 C96.919,34.406 96.826,34.269 96.826,33.763 L96.826,19.893 C96.826,14.841 95.632,14.014 95.632,12.957 C95.632,12.774 95.816,12.636 96.046,12.544 L99.536,11.12 C99.72,11.074 99.95,10.937 100.134,10.937 C100.686,10.937 101.604,13.003 101.832,14.565 C102.705,13.508 104.405,10.937 107.528,10.937 C108.86,10.937 110.192,11.396 110.192,11.993 C110.192,12.177 110.146,12.36 110.101,12.453 L108.677,16.311 C108.631,16.448 108.493,16.724 108.309,16.724 C108.033,16.724 107.207,16.219 106.15,16.219 C104.727,16.219 103.257,17.78 102.659,18.423 L102.659,33.763" id="Fill-2" fill="#1A1919"></path>
        <path d="M126.176,20.353 C126.176,18.469 126.039,15.208 122.87,15.208 C119.288,15.208 119.103,19.066 118.965,20.353 L126.176,20.353 Z M131.504,31.972 C131.596,32.11 131.643,32.293 131.643,32.478 C131.643,33.671 127.049,35.187 123.421,35.187 C117.358,35.187 113.132,31.742 113.132,23.292 C113.132,15.989 117.037,10.937 123.191,10.937 C130.998,10.937 132.376,17.917 132.376,23.475 C132.376,24.348 132.193,24.623 131.32,24.623 L118.965,24.623 C118.965,27.196 119.701,30.365 124.018,30.365 C127.324,30.365 129.208,28.85 129.851,28.85 C130.081,28.85 130.265,29.033 130.356,29.217 L131.504,31.972 L131.504,31.972 Z" id="Fill-3" fill="#1A1919"></path>
        <path d="M150.108,24.118 C148.96,24.118 143.632,23.75 143.632,27.792 C143.632,29.584 144.919,30.916 146.664,30.916 C148.362,30.916 149.557,29.721 150.108,29.171 L150.108,24.118 Z M152.91,35.003 C152.727,35.05 152.497,35.187 152.312,35.187 C151.899,35.187 151.21,33.581 150.981,32.432 C150.061,33.351 148.454,35.187 145.009,35.187 C140.784,35.187 138.121,32.432 138.121,28.114 C138.121,20.353 146.479,20.353 150.108,20.353 L150.108,18.929 C150.108,16.861 149.741,15.529 146.847,15.529 C144.275,15.529 141.748,16.907 141.151,16.907 C140.921,16.907 140.738,16.632 140.692,16.448 L139.774,13.647 C139.681,13.462 139.635,13.279 139.635,13.095 C139.635,12.039 144.182,10.937 147.72,10.937 C153.46,10.937 155.62,13.555 155.62,18.332 L155.62,27.196 C155.62,31.65 156.813,32.248 156.813,33.166 C156.813,33.351 156.63,33.488 156.4,33.581 L152.91,35.003 L152.91,35.003 Z" id="Fill-4" fill="#1A1919"></path>
        <path d="M177.71,33.075 C177.756,33.305 177.802,33.305 177.802,33.442 C177.802,34.314 174.451,35.187 171.328,35.187 C165.402,35.187 165.402,30.548 165.402,26.323 L165.402,15.989 L162.141,15.989 C161.59,15.989 161.499,15.851 161.499,15.346 L161.499,12.36 C161.499,11.855 161.59,11.717 162.141,11.717 L165.402,11.717 L165.402,5.931 C165.402,5.333 165.494,5.195 166.136,5.104 L170.18,4.553 C170.317,4.553 170.5,4.507 170.778,4.507 C171.191,4.507 171.237,4.735 171.237,5.287 L171.237,11.717 L176.471,11.717 C176.885,11.717 177.253,11.717 177.253,12.223 C177.253,12.314 177.253,12.405 177.206,12.59 L176.608,15.3 C176.471,15.943 176.333,15.989 175.783,15.989 L171.237,15.989 L171.237,27.104 C171.237,28.574 171.237,29.905 172.796,29.905 C174.633,29.905 175.783,29.033 176.425,29.033 C176.608,29.033 176.746,29.124 176.794,29.308 L177.71,33.075" id="Fill-5" fill="#1A1919"></path>
        <path d="M194.472,13.968 C194.058,12.177 193.692,9.467 193.46,7.538 L193.369,7.538 C193.184,9.467 192.772,12.131 192.312,13.968 L190.292,21.868 L196.354,21.868 L194.472,13.968 Z M187.721,33.442 C187.536,34.269 187.444,34.406 186.756,34.406 L182.117,34.406 C181.52,34.406 181.243,34.314 181.197,33.993 C181.197,33.763 181.334,33.396 181.382,33.212 L190.429,3.634 C190.615,3.037 190.661,2.945 191.441,2.945 L196.217,2.945 C196.906,2.945 196.998,3.128 197.183,3.68 L206.184,33.305 C206.23,33.488 206.367,33.855 206.367,34.039 C206.367,34.314 205.91,34.406 205.448,34.406 L200.305,34.406 C199.845,34.406 199.753,34.269 199.525,33.442 L197.503,26.002 L189.604,26.002 L187.721,33.442 L187.721,33.442 Z" id="Fill-6" fill="#1A1919"></path>
        <path d="M242.46,33.763 C242.46,34.269 242.367,34.406 241.817,34.406 L237.269,34.406 C236.719,34.406 236.627,34.269 236.627,33.763 L236.627,19.617 C236.627,17.872 236.442,15.759 234.699,15.759 C232.768,15.759 231.253,17.09 230.657,17.642 L230.657,33.763 C230.657,34.269 230.566,34.406 230.014,34.406 L225.466,34.406 C224.915,34.406 224.823,34.269 224.823,33.763 L224.823,19.617 C224.823,17.872 224.638,15.759 222.895,15.759 C220.964,15.759 219.45,17.09 218.851,17.642 L218.851,33.763 C218.851,34.269 218.761,34.406 218.21,34.406 L213.663,34.406 C213.111,34.406 213.02,34.269 213.02,33.763 L213.02,19.893 C213.02,13.417 212.146,13.784 212.146,12.729 C212.146,12.498 212.331,12.314 212.651,12.223 L216.142,11.074 C216.416,10.983 216.648,10.937 216.831,10.937 C217.427,10.937 217.796,11.947 218.302,14.105 C219.679,12.912 221.7,10.937 225.329,10.937 C227.303,10.937 229.46,12.177 230.014,14.105 C231.391,12.912 233.368,10.937 237.132,10.937 C241.45,10.937 242.46,14.198 242.46,18.193 L242.46,33.763" id="Fill-7" fill="#1A1919"></path>
        <path d="M262.664,20.353 C262.664,18.469 262.527,15.208 259.359,15.208 C255.775,15.208 255.591,19.066 255.455,20.353 L262.664,20.353 Z M267.993,31.972 C268.085,32.11 268.129,32.293 268.129,32.478 C268.129,33.671 263.537,35.187 259.91,35.187 C253.846,35.187 249.622,31.742 249.622,23.292 C249.622,15.989 253.526,10.937 259.679,10.937 C267.489,10.937 268.866,17.917 268.866,23.475 C268.866,24.348 268.68,24.623 267.809,24.623 L255.455,24.623 C255.455,27.196 256.188,30.365 260.505,30.365 C263.812,30.365 265.695,28.85 266.338,28.85 C266.568,28.85 266.751,29.033 266.843,29.217 L267.993,31.972 L267.993,31.972 Z" id="Fill-8" fill="#1A1919"></path>
        <path d="M282.048,33.763 C282.048,34.269 281.956,34.406 281.406,34.406 L276.859,34.406 C276.309,34.406 276.215,34.269 276.215,33.763 L276.215,19.893 C276.215,14.841 275.021,14.014 275.021,12.957 C275.021,12.774 275.205,12.636 275.435,12.544 L278.925,11.12 C279.109,11.074 279.34,10.937 279.523,10.937 C280.074,10.937 280.992,13.003 281.223,14.565 C282.096,13.508 283.793,10.937 286.918,10.937 C288.249,10.937 289.581,11.396 289.581,11.993 C289.581,12.177 289.535,12.36 289.49,12.453 L288.064,16.311 C288.021,16.448 287.881,16.724 287.698,16.724 C287.424,16.724 286.596,16.219 285.54,16.219 C284.115,16.219 282.646,17.78 282.048,18.423 L282.048,33.763" id="Fill-9" fill="#1A1919"></path>
        <path d="M299.265,8.732 C297.154,8.732 295.452,7.032 295.452,4.92 C295.452,2.807 297.154,1.153 299.265,1.153 C301.332,1.153 303.031,2.807 303.031,4.92 C303.031,7.032 301.332,8.732 299.265,8.732 Z M302.205,33.763 C302.205,34.269 302.114,34.406 301.562,34.406 L297.014,34.406 C296.462,34.406 296.371,34.269 296.371,33.763 L296.371,15.989 L292.835,15.989 C292.284,15.989 292.192,15.851 292.192,15.346 L292.192,12.36 C292.192,11.855 292.284,11.717 292.835,11.717 L301.562,11.717 C302.114,11.717 302.205,11.855 302.205,12.36 L302.205,33.763 L302.205,33.763 Z" id="Fill-10" fill="#1A1919"></path>
        <path d="M326.638,32.293 C326.684,32.432 326.778,32.615 326.778,32.753 C326.778,33.855 323.055,35.187 320.299,35.187 C313.917,35.187 310.104,31.283 310.104,23.521 C310.104,15.759 314.008,10.937 320.805,10.937 C323.285,10.937 327.326,12.314 327.326,13.738 C327.326,13.876 327.234,14.014 327.189,14.152 L325.489,17.137 C325.398,17.229 325.307,17.366 325.167,17.366 C324.71,17.366 323.193,15.529 320.805,15.529 C317.682,15.529 316.304,17.917 316.304,23.199 C316.304,28.251 317.498,30.594 321.035,30.594 C323.378,30.594 324.295,29.033 325.122,29.033 C325.259,29.033 325.353,29.124 325.443,29.262 L326.638,32.293" id="Fill-11" fill="#1A1919"></path>
        <path d="M343.668,24.118 C342.521,24.118 337.194,23.75 337.194,27.792 C337.194,29.584 338.482,30.916 340.225,30.916 C341.923,30.916 343.119,29.721 343.668,29.171 L343.668,24.118 Z M346.471,35.003 C346.287,35.05 346.058,35.187 345.874,35.187 C345.46,35.187 344.772,33.581 344.543,32.432 C343.623,33.351 342.017,35.187 338.571,35.187 C334.345,35.187 331.682,32.432 331.682,28.114 C331.682,20.353 340.042,20.353 343.668,20.353 L343.668,18.929 C343.668,16.861 343.301,15.529 340.408,15.529 C337.835,15.529 335.311,16.907 334.713,16.907 C334.485,16.907 334.299,16.632 334.254,16.448 L333.335,13.647 C333.243,13.462 333.199,13.279 333.199,13.095 C333.199,12.039 337.745,10.937 341.281,10.937 C347.023,10.937 349.182,13.555 349.182,18.332 L349.182,27.196 C349.182,31.65 350.374,32.248 350.374,33.166 C350.374,33.351 350.193,33.488 349.962,33.581 L346.471,35.003 L346.471,35.003 Z" id="Fill-12" fill="#1A1919"></path>
        <path d="M3.117,48.431 L19.007,45.922 C19.928,41.295 20.999,35.558 20.632,35.603 C20.465,35.623 19.312,34.858 17.726,33.738 L4,34.647 L3.117,48.431" id="Fill-13" fill="#003C68"></path>
        <polyline id="Fill-14" fill="#003C68" points="56.367 31.181 43.368 32.041 43.126 32.376 49.021 44.815 54.117 44.847 56.367 31.181"></polyline>
        <path d="M49.95,46.776 L50.946,48.879 L45.996,46.715 L33.117,46.515 L23.444,48.056 L17.833,51.651 C17.833,51.651 18.073,50.517 18.413,48.857 L3,51.313 L1.75,59.813 L57,58.063 C57,58.063 56.45,51.347 54.45,46.847 L49.95,46.776" id="Fill-15" fill="#003C68"></path>
        <g id="Group-19" transform="translate(0.000000, 1.000000)">
            <mask id="mask-2" fill="white">
                <use xlink:href="#path-1"></use>
            </mask>
            <g id="Clip-17"></g>
            <polyline id="Fill-16" fill="#003C68" mask="url(#mask-2)" points="33.833 40.399 28.695 43.691 41.545 43.77 33.833 40.399"></polyline>
            <polyline id="Fill-18" fill="#003C68" mask="url(#mask-2)" points="0 0.439 2.45 12.514 25.962 13.769 28.176 5.766 33.106 14.15 57.117 15.431 58.125 1.189 0 0.439"></polyline>
        </g>
        <polyline id="Fill-20" fill="#003C68" points="56.867 17.847 34.404 17.355 36.602 21.092 52.935 18.759 45.649 28.874 56.617 28.431 56.867 17.847"></polyline>
        <path d="M2.834,23.897 L3.867,33.181 L14.896,31.704 C10.836,28.744 6.117,25.181 6.117,25.181 C7.73,24.777 23.45,23.847 23.45,23.847 L25.301,17.156 L2.084,16.647 L2.834,23.897" id="Fill-21" fill="#003C68"></path>
        <polyline id="Fill-22" fill="#1A1919" points="13.538 91.829 10.795 91.829 10.795 86.979 7.161 86.979 7.161 91.829 4.419 91.829 4.419 80.07 7.161 80.07 7.161 84.665 10.795 84.665 10.795 80.07 13.538 80.07 13.538 91.829"></polyline>
        <path d="M21.766,80.07 L18.577,80.07 L14.806,91.829 L17.223,91.829 L17.96,89.412 L21.766,89.412 L22.485,91.829 L25.451,91.829 L21.766,80.07 Z M18.628,87.253 L19.88,83.121 L21.131,87.253 L18.628,87.253 L18.628,87.253 Z" id="Fill-23" fill="#1A1919"></path>
        <path d="M29.53,87.185 L31.535,87.185 L33.335,91.829 L36.386,91.829 L34.21,86.635 C35.478,86.173 36.249,84.939 36.249,83.602 C36.249,82.454 35.718,81.306 34.758,80.671 C33.85,80.089 32.787,80.07 31.741,80.07 L26.787,80.07 L26.787,91.829 L29.53,91.829 L29.53,87.185 Z M29.53,82.162 L30.97,82.162 C31.484,82.162 32.273,82.094 32.735,82.385 C33.13,82.624 33.404,83.121 33.404,83.585 C33.404,84.1 33.164,84.646 32.718,84.921 C32.222,85.212 31.604,85.162 31.038,85.162 L29.53,85.162 L29.53,82.162 L29.53,82.162 Z" id="Fill-24" fill="#1A1919"></path>
        <path d="M38.015,80.07 L38.015,91.829 L41.889,91.829 C43.552,91.829 44.991,91.486 46.157,90.2 C47.203,89.019 47.682,87.492 47.682,85.915 C47.682,84.218 47.134,82.591 45.865,81.391 C44.58,80.174 43.123,80.07 41.426,80.07 L38.015,80.07 Z M40.757,82.231 L41.7,82.231 C42.677,82.231 43.38,82.35 44.015,83.174 C44.58,83.91 44.854,84.904 44.854,85.83 C44.854,86.704 44.666,87.612 44.203,88.367 C43.568,89.396 42.831,89.618 41.683,89.618 L40.757,89.618 L40.757,82.231 L40.757,82.231 Z" id="Fill-25" fill="#1A1919"></path>
        <polyline id="Fill-26" fill="#1A1919" points="65.714 91.829 63.006 91.829 61.086 84.047 61.052 84.047 59.2 91.829 56.526 91.829 53.493 80.07 56.304 80.07 57.967 87.407 58.104 87.989 58.138 87.989 60.041 80.07 62.578 80.07 64.548 87.989 64.583 87.989 64.686 87.476 66.4 80.07 68.662 80.07 65.714 91.829"></polyline>
        <path d="M74.473,92 C76.068,92 77.456,91.349 78.364,90.013 C79.119,88.898 79.479,87.27 79.479,85.932 C79.479,84.511 79.05,82.847 78.211,81.698 C77.267,80.413 76.033,79.899 74.473,79.899 C70.993,79.899 69.434,82.813 69.434,85.932 C69.434,87.407 69.811,88.932 70.668,90.148 C71.593,91.453 72.879,92 74.473,92 Z M74.473,82.144 C75.331,82.144 75.828,82.504 76.17,83.292 C76.513,84.082 76.598,85.094 76.598,85.95 C76.598,86.721 76.513,87.698 76.238,88.418 C75.931,89.292 75.416,89.755 74.473,89.755 C72.537,89.755 72.313,87.407 72.313,85.932 C72.313,85.195 72.416,84.185 72.69,83.481 C73.016,82.624 73.53,82.144 74.473,82.144 L74.473,82.144 Z" id="Fill-27" fill="#1A1919"></path>
        <path d="M84.037,87.185 L86.044,87.185 L87.843,91.829 L90.894,91.829 L88.718,86.635 C89.986,86.173 90.757,84.939 90.757,83.602 C90.757,82.454 90.226,81.306 89.266,80.671 C88.357,80.089 87.295,80.07 86.248,80.07 L81.295,80.07 L81.295,91.829 L84.037,91.829 L84.037,87.185 Z M84.037,82.162 L85.478,82.162 C85.992,82.162 86.78,82.094 87.243,82.385 C87.637,82.624 87.912,83.121 87.912,83.585 C87.912,84.1 87.671,84.646 87.226,84.921 C86.729,85.212 86.112,85.162 85.546,85.162 L84.037,85.162 L84.037,82.162 L84.037,82.162 Z" id="Fill-28" fill="#1A1919"></path>
        <polyline id="Fill-29" fill="#1A1919" points="95.282 85.607 98.967 80.07 101.607 80.07 98.779 84.27 102.31 91.829 99.276 91.829 96.945 86.739 95.282 89.121 95.282 91.829 92.608 91.829 92.608 80.07 95.282 80.07 95.282 85.607"></polyline>
        <path d="M117.891,88.882 C116.262,88.882 114.959,87.596 114.959,85.95 C114.942,84.305 116.246,83.001 117.891,83.001 C119.519,83.001 120.838,84.305 120.838,85.95 C120.838,87.577 119.519,88.882 117.891,88.882" id="Fill-30" fill="#1A1919"></path>
        <polygon id="Fill-31" fill="#1A1919" points="134.431 91.829 137.173 91.829 137.173 80.07 134.431 80.07"></polygon>
        <polyline id="Fill-32" fill="#1A1919" points="148.573 91.829 146.224 91.829 141.716 83.927 141.647 83.927 141.647 91.829 139.522 91.829 139.522 80.07 142.488 80.07 146.413 86.979 146.447 86.979 146.447 80.07 148.573 80.07 148.573 91.829"></polyline>
        <polyline id="Fill-33" fill="#1A1919" points="158.667 82.401 155.72 82.401 155.72 91.829 152.977 91.829 152.977 82.401 149.996 82.401 149.996 80.07 158.667 80.07 158.667 82.401"></polyline>
        <polyline id="Fill-34" fill="#1A1919" points="162.833 82.35 162.833 84.733 167.29 84.733 167.29 86.945 162.833 86.945 162.833 89.55 168.49 89.55 168.49 91.829 160.09 91.829 160.09 80.07 168.49 80.07 168.49 82.35 162.833 82.35"></polyline>
        <path d="M174.37,87.733 L174.37,85.539 L179.203,85.539 L179.203,91.829 L177.952,91.829 L177.557,90.476 C176.683,91.538 175.723,92 174.352,92 C170.907,92 169.484,89.138 169.484,86.053 C169.484,82.864 171.044,79.899 174.592,79.899 C177.128,79.899 178.843,81.442 179.203,83.927 L176.597,84.287 C176.478,83.104 175.843,82.11 174.523,82.11 C172.586,82.11 172.295,84.63 172.295,86.088 C172.295,87.612 172.724,89.772 174.643,89.772 C175.843,89.772 176.665,88.932 176.597,87.733 L174.37,87.733" id="Fill-35" fill="#1A1919"></path>
        <path d="M184.139,87.185 L186.145,87.185 L187.945,91.829 L190.996,91.829 L188.819,86.635 C190.087,86.173 190.859,84.939 190.859,83.602 C190.859,82.454 190.327,81.306 189.368,80.671 C188.458,80.089 187.396,80.07 186.35,80.07 L181.397,80.07 L181.397,91.829 L184.139,91.829 L184.139,87.185 Z M184.139,82.162 L185.579,82.162 C186.093,82.162 186.882,82.094 187.345,82.385 C187.739,82.624 188.013,83.121 188.013,83.585 C188.013,84.1 187.773,84.646 187.328,84.921 C186.831,85.212 186.213,85.162 185.648,85.162 L184.139,85.162 L184.139,82.162 L184.139,82.162 Z" id="Fill-36" fill="#1A1919"></path>
        <polygon id="Fill-37" fill="#1A1919" points="192.708 91.829 195.453 91.829 195.453 80.07 192.708 80.07"></polygon>
        <polyline id="Fill-38" fill="#1A1919" points="205.633 82.401 202.686 82.401 202.686 91.829 199.944 91.829 199.944 82.401 196.96 82.401 196.96 80.07 205.633 80.07 205.633 82.401"></polyline>
        <polyline id="Fill-39" fill="#1A1919" points="212.525 86.876 212.525 91.829 209.782 91.829 209.782 86.876 206.062 80.07 209.25 80.07 211.514 84.544 213.742 80.07 216.209 80.07 212.525 86.876"></polyline>
        <path d="M231.705,88.882 C230.076,88.882 228.774,87.596 228.774,85.95 C228.757,84.305 230.059,83.001 231.705,83.001 C233.333,83.001 234.653,84.305 234.653,85.95 C234.653,87.577 233.333,88.882 231.705,88.882" id="Fill-40" fill="#1A1919"></path>
        <polyline id="Fill-41" fill="#1A1919" points="250.937 82.35 250.937 84.733 255.393 84.733 255.393 86.945 250.937 86.945 250.937 89.55 256.593 89.55 256.593 91.829 248.193 91.829 248.193 80.07 256.593 80.07 256.593 82.35 250.937 82.35"></polyline>
        <polyline id="Fill-42" fill="#1A1919" points="264.135 85.539 267.768 91.829 264.581 91.829 262.232 87.561 259.867 91.829 257.244 91.829 260.878 85.572 257.656 80.07 260.862 80.07 262.763 83.654 264.768 80.07 267.339 80.07 264.135 85.539"></polyline>
        <path d="M275.74,84.63 C275.722,83.327 275.276,82.11 273.767,82.11 C271.831,82.11 271.643,84.646 271.643,86.069 C271.643,87.682 271.831,89.755 273.905,89.755 C275.19,89.755 275.792,88.676 275.945,87.544 L278.619,87.715 C278.328,90.406 276.476,92 273.767,92 C270.271,92 268.575,89.156 268.575,85.95 C268.575,82.693 270.323,79.899 273.854,79.899 C276.802,79.899 278.31,81.613 278.619,84.442 L275.74,84.63" id="Fill-43" fill="#1A1919"></path>
        <polyline id="Fill-44" fill="#1A1919" points="283.162 82.35 283.162 84.733 287.618 84.733 287.618 86.945 283.162 86.945 283.162 89.55 288.818 89.55 288.818 91.829 280.417 91.829 280.417 80.07 288.818 80.07 288.818 82.35 283.162 82.35"></polyline>
        <polyline id="Fill-45" fill="#1A1919" points="297.765 89.498 297.765 91.829 290.29 91.829 290.29 80.07 293.035 80.07 293.035 89.498 297.765 89.498"></polyline>
        <polyline id="Fill-46" fill="#1A1919" points="306.335 89.498 306.335 91.829 298.861 91.829 298.861 80.07 301.605 80.07 301.605 89.498 306.335 89.498"></polyline>
        <polyline id="Fill-47" fill="#1A1919" points="310.244 82.35 310.244 84.733 314.7 84.733 314.7 86.945 310.244 86.945 310.244 89.55 315.9 89.55 315.9 91.829 307.5 91.829 307.5 80.07 315.9 80.07 315.9 82.35 310.244 82.35"></polyline>
        <polyline id="Fill-48" fill="#1A1919" points="326.493 91.829 324.144 91.829 319.636 83.927 319.568 83.927 319.568 91.829 317.444 91.829 317.444 80.07 320.408 80.07 324.333 86.979 324.367 86.979 324.367 80.07 326.493 80.07 326.493 91.829"></polyline>
        <path d="M335.39,84.63 C335.372,83.327 334.926,82.11 333.417,82.11 C331.481,82.11 331.292,84.646 331.292,86.069 C331.292,87.682 331.481,89.755 333.555,89.755 C334.841,89.755 335.44,88.676 335.595,87.544 L338.269,87.715 C337.978,90.406 336.126,92 333.417,92 C329.921,92 328.224,89.156 328.224,85.95 C328.224,82.693 329.973,79.899 333.503,79.899 C336.453,79.899 337.96,81.613 338.269,84.442 L335.39,84.63" id="Fill-49" fill="#1A1919"></path>
        <polyline id="Fill-50" fill="#1A1919" points="342.81 82.35 342.81 84.733 347.268 84.733 347.268 86.945 342.81 86.945 342.81 89.55 348.468 89.55 348.468 91.829 340.069 91.829 340.069 80.07 348.468 80.07 348.468 82.35 342.81 82.35"></polyline>
        <polygon id="Fill-51" fill="#1A1919" points="1.617 68.514 350.284 68.514 350.284 67.514 1.617 67.514"></polygon>
        <polyline id="Fill-52" fill="#1A1919" points="66.783 48.502 75.064 48.502 75.064 50.831 70.147 50.831 70.147 52.723 74.347 52.723 74.347 54.912 70.147 54.912 70.147 59.341 66.783 59.341 66.783 48.502"></polyline>
        <polygon id="Fill-53" fill="#1A1919" points="83.058 59.341 86.415 59.341 86.415 48.502 83.058 48.502"></polygon>
        <polyline id="Fill-54" fill="#1A1919" points="94.897 48.502 98.024 48.502 102.105 54.499 102.105 48.502 105.263 48.502 105.263 59.341 102.105 59.341 98.046 53.39 98.046 59.341 94.897 59.341 94.897 48.502"></polyline>
        <path d="M119.367,55.208 L118.17,51.311 L116.987,55.208 L119.367,55.208 Z M120.061,57.552 L116.259,57.552 L115.731,59.341 L112.31,59.341 L116.384,48.502 L120.039,48.502 L124.111,59.341 L120.604,59.341 L120.061,57.552 L120.061,57.552 Z" id="Fill-55" fill="#1A1919"></path>
        <polyline id="Fill-56" fill="#1A1919" points="131.254 48.502 134.382 48.502 138.464 54.499 138.464 48.502 141.622 48.502 141.622 59.341 138.464 59.341 134.405 53.39 134.405 59.341 131.254 59.341 131.254 48.502"></polyline>
        <path d="M157.12,54.905 L160.053,55.792 C159.858,56.616 159.547,57.302 159.123,57.854 C158.699,58.407 158.172,58.823 157.544,59.104 C156.915,59.386 156.116,59.525 155.145,59.525 C153.966,59.525 153.004,59.354 152.257,59.012 C151.51,58.67 150.866,58.067 150.324,57.206 C149.782,56.344 149.511,55.24 149.511,53.895 C149.511,52.103 149.988,50.725 150.941,49.763 C151.895,48.799 153.245,48.316 154.99,48.316 C156.355,48.316 157.428,48.593 158.21,49.145 C158.991,49.697 159.572,50.545 159.95,51.688 L156.994,52.347 C156.89,52.017 156.781,51.774 156.667,51.622 C156.48,51.366 156.251,51.168 155.98,51.029 C155.71,50.892 155.407,50.823 155.071,50.823 C154.312,50.823 153.73,51.128 153.326,51.738 C153.02,52.192 152.868,52.904 152.868,53.873 C152.868,55.074 153.05,55.898 153.415,56.344 C153.78,56.789 154.291,57.011 154.953,57.011 C155.593,57.011 156.077,56.832 156.406,56.472 C156.733,56.112 156.972,55.589 157.12,54.905" id="Fill-57" fill="#1A1919"></path>
        <polygon id="Fill-58" fill="#1A1919" points="167.872 59.341 171.227 59.341 171.227 48.502 167.872 48.502"></polygon>
        <path d="M185.657,55.208 L184.459,51.311 L183.277,55.208 L185.657,55.208 Z M186.352,57.552 L182.549,57.552 L182.02,59.341 L178.6,59.341 L182.674,48.502 L186.329,48.502 L190.402,59.341 L186.893,59.341 L186.352,57.552 L186.352,57.552 Z" id="Fill-59" fill="#1A1919"></path>
        <polyline id="Fill-60" fill="#1A1919" points="197.524 48.502 200.872 48.502 200.872 56.672 206.1 56.672 206.1 59.341 197.524 59.341 197.524 48.502"></polyline>
        <path d="M224.203,55.756 L227.389,55.556 C227.457,56.073 227.599,56.468 227.811,56.738 C228.155,57.178 228.648,57.396 229.289,57.396 C229.767,57.396 230.135,57.284 230.394,57.061 C230.653,56.836 230.782,56.575 230.782,56.28 C230.782,55.999 230.659,55.748 230.413,55.526 C230.167,55.304 229.594,55.095 228.698,54.898 C227.228,54.567 226.181,54.128 225.554,53.58 C224.924,53.034 224.61,52.337 224.61,51.489 C224.61,50.933 224.77,50.406 225.093,49.911 C225.415,49.414 225.902,49.025 226.549,48.741 C227.198,48.458 228.086,48.316 229.215,48.316 C230.601,48.316 231.657,48.574 232.382,49.09 C233.11,49.604 233.542,50.424 233.681,51.548 L230.524,51.732 C230.44,51.244 230.264,50.89 229.995,50.668 C229.727,50.446 229.356,50.336 228.883,50.336 C228.493,50.336 228.2,50.418 228.001,50.582 C227.806,50.748 227.706,50.949 227.706,51.187 C227.706,51.359 227.788,51.514 227.951,51.651 C228.108,51.795 228.483,51.928 229.074,52.051 C230.539,52.366 231.587,52.686 232.22,53.008 C232.854,53.331 233.315,53.731 233.604,54.21 C233.892,54.688 234.036,55.223 234.036,55.813 C234.036,56.51 233.843,57.149 233.459,57.735 C233.075,58.323 232.538,58.769 231.846,59.071 C231.158,59.375 230.287,59.525 229.237,59.525 C227.394,59.525 226.117,59.172 225.407,58.461 C224.697,57.751 224.295,56.849 224.203,55.756" id="Fill-61" fill="#1A1919"></path>
        <polyline id="Fill-62" fill="#1A1919" points="241.77 48.502 250.747 48.502 250.747 50.815 245.126 50.815 245.126 52.539 250.34 52.539 250.34 54.75 245.126 54.75 245.126 56.886 250.909 56.886 250.909 59.341 241.77 59.341 241.77 48.502"></polyline>
        <path d="M262.179,52.895 L263.591,52.895 C263.744,52.895 264.04,52.844 264.478,52.747 C264.7,52.701 264.881,52.588 265.021,52.405 C265.163,52.224 265.232,52.014 265.232,51.777 C265.232,51.427 265.122,51.158 264.9,50.972 C264.678,50.784 264.261,50.69 263.65,50.69 L262.179,50.69 L262.179,52.895 Z M258.814,59.341 L258.814,48.502 L264.398,48.502 C265.432,48.502 266.223,48.591 266.77,48.768 C267.318,48.945 267.758,49.274 268.093,49.755 C268.429,50.235 268.597,50.82 268.597,51.511 C268.597,52.112 268.468,52.631 268.211,53.068 C267.955,53.504 267.603,53.857 267.154,54.128 C266.869,54.301 266.476,54.443 265.978,54.558 C266.376,54.69 266.667,54.823 266.85,54.956 C266.973,55.046 267.151,55.235 267.385,55.527 C267.62,55.817 267.775,56.042 267.855,56.2 L269.476,59.341 L265.693,59.341 L263.902,56.028 C263.674,55.599 263.473,55.322 263.295,55.193 C263.053,55.025 262.78,54.941 262.475,54.941 L262.179,54.941 L262.179,59.341 L258.814,59.341 L258.814,59.341 Z" id="Fill-63" fill="#1A1919"></path>
        <polyline id="Fill-64" fill="#1A1919" points="275.283 48.502 278.783 48.502 281.222 56.302 283.63 48.502 287.031 48.502 283.005 59.341 279.375 59.341 275.283 48.502"></polyline>
        <polygon id="Fill-65" fill="#1A1919" points="294.315 59.341 297.671 59.341 297.671 48.502 294.315 48.502"></polygon>
        <path d="M313.348,54.905 L316.283,55.792 C316.086,56.616 315.776,57.302 315.352,57.854 C314.927,58.407 314.401,58.823 313.773,59.104 C313.145,59.386 312.345,59.525 311.374,59.525 C310.196,59.525 309.234,59.354 308.487,59.012 C307.74,58.67 307.095,58.067 306.553,57.206 C306.011,56.344 305.74,55.24 305.74,53.895 C305.74,52.103 306.217,50.725 307.17,49.763 C308.124,48.799 309.473,48.316 311.218,48.316 C312.583,48.316 313.657,48.593 314.439,49.145 C315.22,49.697 315.8,50.545 316.179,51.688 L313.222,52.347 C313.119,52.017 313.009,51.774 312.896,51.622 C312.708,51.366 312.48,51.168 312.21,51.029 C311.938,50.892 311.635,50.823 311.299,50.823 C310.54,50.823 309.96,51.128 309.555,51.738 C309.249,52.192 309.097,52.904 309.097,53.873 C309.097,55.074 309.279,55.898 309.644,56.344 C310.008,56.789 310.521,57.011 311.181,57.011 C311.822,57.011 312.306,56.832 312.635,56.472 C312.962,56.112 313.201,55.589 313.348,54.905" id="Fill-66" fill="#1A1919"></path>
        <polyline id="Fill-67" fill="#1A1919" points="323.96 48.502 332.935 48.502 332.935 50.815 327.316 50.815 327.316 52.539 332.529 52.539 332.529 54.75 327.316 54.75 327.316 56.886 333.098 56.886 333.098 59.341 323.96 59.341 323.96 48.502"></polyline>
        <path d="M340.374,55.756 L343.561,55.556 C343.629,56.073 343.771,56.468 343.983,56.738 C344.328,57.178 344.82,57.396 345.462,57.396 C345.939,57.396 346.308,57.284 346.566,57.061 C346.825,56.836 346.955,56.575 346.955,56.28 C346.955,55.999 346.831,55.748 346.585,55.526 C346.339,55.304 345.766,55.095 344.871,54.898 C343.4,54.567 342.353,54.128 341.728,53.58 C341.096,53.034 340.782,52.337 340.782,51.489 C340.782,50.933 340.942,50.406 341.265,49.911 C341.588,49.414 342.074,49.025 342.721,48.741 C343.37,48.458 344.258,48.316 345.387,48.316 C346.773,48.316 347.829,48.574 348.554,49.09 C349.283,49.604 349.714,50.424 349.853,51.548 L346.696,51.732 C346.612,51.244 346.437,50.89 346.167,50.668 C345.899,50.446 345.528,50.336 345.055,50.336 C344.665,50.336 344.372,50.418 344.175,50.582 C343.978,50.748 343.879,50.949 343.879,51.187 C343.879,51.359 343.96,51.514 344.123,51.651 C344.281,51.795 344.655,51.928 345.246,52.051 C346.71,52.366 347.759,52.686 348.392,53.008 C349.027,53.331 349.487,53.731 349.776,54.21 C350.064,54.688 350.207,55.223 350.207,55.813 C350.207,56.51 350.016,57.149 349.631,57.735 C349.247,58.323 348.71,58.769 348.019,59.071 C347.33,59.375 346.46,59.525 345.409,59.525 C343.566,59.525 342.29,59.172 341.58,58.461 C340.871,57.751 340.468,56.849 340.374,55.756" id="Fill-68" fill="#1A1919"></path>
        <path d="M352.858,4.216 L353.267,4.216 C353.743,4.216 354.128,4.058 354.128,3.672 C354.128,3.331 353.879,3.104 353.335,3.104 C353.108,3.104 352.949,3.127 352.858,3.149 L352.858,4.216 Z M352.835,6.326 L351.973,6.326 L351.973,2.605 C352.314,2.537 352.79,2.491 353.403,2.491 C354.106,2.491 354.424,2.605 354.696,2.764 C354.9,2.923 355.059,3.218 355.059,3.581 C355.059,3.989 354.742,4.307 354.288,4.443 L354.288,4.488 C354.651,4.624 354.855,4.896 354.968,5.395 C355.081,5.963 355.15,6.19 355.241,6.326 L354.31,6.326 C354.197,6.19 354.128,5.85 354.015,5.419 C353.948,5.01 353.72,4.829 353.244,4.829 L352.835,4.829 L352.835,6.326 Z M350.543,4.375 C350.543,6.031 351.769,7.348 353.448,7.348 C355.081,7.348 356.285,6.031 356.285,4.397 C356.285,2.741 355.081,1.402 353.425,1.402 C351.769,1.402 350.543,2.741 350.543,4.375 Z M357.238,4.375 C357.238,6.485 355.581,8.142 353.425,8.142 C351.292,8.142 349.591,6.485 349.591,4.375 C349.591,2.311 351.292,0.653 353.425,0.653 C355.581,0.653 357.238,2.311 357.238,4.375 L357.238,4.375 Z" id="Fill-69" fill="#1A1919"></path>
    </g>
</svg>