<?xml version="1.0" encoding="utf-8"?>
<svg xmlns="http://www.w3.org/2000/svg" fill="none" height="49" viewBox="0 0 149 24" width="308">
              <path d="M43.0028 17.7138C42.2105 18.1259 41.3833 18.427 40.5212 18.6108C39.6591 18.7946 38.7812 18.8865 37.8874 18.8865C36.9334 18.8865 36.0554 18.7376 35.2536 18.4397C34.4517 18.1417 33.7544 17.7139 33.1681 17.156C32.5817 16.5982 32.1253 15.9231 31.7989 15.1308C31.4724 14.3384 31.3076 13.4541 31.3076 12.4779C31.3076 11.5018 31.4724 10.6175 31.7989 9.82512C32.1253 9.03276 32.5817 8.35767 33.1681 7.79985C33.7544 7.24203 34.4485 6.81415 35.2536 6.51623C36.0586 6.2183 36.9365 6.06934 37.8874 6.06934C38.8636 6.06934 39.7605 6.18661 40.5846 6.42114C41.4054 6.65568 42.1249 7.06137 42.7461 7.63504L40.8508 9.70151C40.4831 9.32118 40.0711 9.03593 39.6115 8.83943C39.152 8.64292 38.5783 8.54784 37.8905 8.54784C37.3169 8.54784 36.7971 8.64609 36.3312 8.83943C35.8653 9.03593 35.4659 9.3085 35.1331 9.65714C34.8003 10.0089 34.5436 10.4241 34.3661 10.9059C34.1886 11.3877 34.0999 11.9106 34.0999 12.4748C34.0999 13.0484 34.1886 13.5746 34.3661 14.05C34.5436 14.5254 34.8003 14.9406 35.1331 15.2892C35.4659 15.641 35.8653 15.9136 36.3312 16.1069C36.7971 16.3034 37.3169 16.3985 37.8905 16.3985C38.4769 16.3985 38.9808 16.332 39.4055 16.1989C39.8302 16.0657 40.1694 15.9326 40.4229 15.7932V13.8123H38.236V11.3306H43.006V17.7138H43.0028Z" fill="#666766"/>
              <path d="M58.2288 13.8726C58.2288 14.5953 58.1178 15.2608 57.9023 15.8694C57.6836 16.4779 57.3603 17.0072 56.9293 17.4541C56.4983 17.901 55.9626 18.2528 55.3192 18.5063C54.6758 18.7599 53.9342 18.8867 53.0974 18.8867C52.248 18.8867 51.5 18.7599 50.8598 18.5063C50.2164 18.2528 49.6808 17.9042 49.2497 17.4541C48.8187 17.0072 48.4954 16.4779 48.2767 15.8694C48.058 15.2608 47.9503 14.5953 47.9503 13.8726V6.38007H50.638V13.768C50.638 14.1484 50.6982 14.497 50.8186 14.8203C50.9391 15.1404 51.107 15.4193 51.3257 15.657C51.5444 15.8916 51.8043 16.0754 52.1086 16.2085C52.4128 16.3416 52.7425 16.4082 53.0974 16.4082C53.4524 16.4082 53.782 16.3416 54.08 16.2085C54.3779 16.0754 54.6378 15.8916 54.8565 15.657C55.0752 15.4225 55.2432 15.1436 55.3636 14.8203C55.484 14.5002 55.5442 14.1484 55.5442 13.768V6.38007H58.2319V13.8726H58.2288Z" fill="#666766"/>
              <path d="M63.2587 6.38007H65.9464V18.5761H63.2587V6.38007Z" fill="#666766"/>
              <path d="M75.0078 6.38007C75.984 6.38007 76.9094 6.48784 77.7905 6.70653C78.6685 6.92522 79.4355 7.27703 80.0884 7.76512C80.7445 8.25321 81.2611 8.8871 81.6478 9.66678C82.0313 10.4465 82.2246 11.3941 82.2246 12.5098C82.2246 13.4986 82.0376 14.3671 81.6636 15.1182C81.2896 15.8694 80.7888 16.5033 80.1549 17.0135C79.5242 17.5238 78.7952 17.9137 77.968 18.1767C77.1408 18.4398 76.2756 18.5729 75.3659 18.5729H70.9731V6.38007H75.0078ZM73.6639 16.0944H75.0585C75.6797 16.0944 76.2565 16.031 76.789 15.9042C77.3215 15.7775 77.7842 15.5683 78.174 15.2767C78.5639 14.9851 78.8713 14.5984 79.0963 14.123C79.3214 13.6476 79.4323 13.0644 79.4323 12.3735C79.4323 11.7776 79.3214 11.2578 79.0963 10.8141C78.8713 10.3736 78.5702 10.0091 78.1931 9.72066C77.8127 9.43224 77.369 9.21989 76.8587 9.0741C76.3484 8.93147 75.8096 8.85857 75.2487 8.85857H73.6639V16.0944Z" fill="#666766"/>
              <path d="M86.7348 6.38007H95.0197V8.86174H89.4225V11.1342H94.7091V13.6159H89.4225V16.0976H95.3303V18.5792H86.7348V6.38007Z" fill="#666766"/>
              <path d="M98.7913 6.38007H101.72L103.666 14.1991H103.701L106.249 6.38007H108.747L111.279 14.4083H111.314L113.364 6.38324H116.087L112.521 18.5792H110.128L107.441 10.139H107.406L104.718 18.5792H102.411L98.7913 6.38007Z" fill="#666766"/>
              <path d="M118.84 6.38007H121.527V18.5761H118.84V6.38007Z" fill="#666766"/>
              <path d="M126.557 6.38007H131.276C131.898 6.38007 132.484 6.44029 133.042 6.56073C133.6 6.68117 134.088 6.88085 134.506 7.16293C134.924 7.44501 135.257 7.82217 135.504 8.30075C135.752 8.77617 135.875 9.37202 135.875 10.082C135.875 10.9441 135.65 11.6762 135.203 12.2784C134.756 12.8806 134.1 13.2641 133.241 13.4226L136.341 18.5729H133.121L130.573 13.6983H129.248V18.5729H126.56V6.38007H126.557ZM129.245 11.429H130.83C131.07 11.429 131.327 11.4195 131.597 11.4036C131.866 11.3878 132.11 11.3339 132.329 11.2483C132.547 11.1628 132.728 11.0265 132.871 10.8426C133.013 10.6588 133.086 10.4021 133.086 10.0661C133.086 9.75553 133.023 9.50831 132.896 9.32448C132.769 9.14066 132.608 9.0012 132.414 8.90295C132.218 8.8047 131.996 8.73814 131.742 8.70327C131.489 8.66841 131.242 8.65256 131.001 8.65256H129.245V11.429Z" fill="#666766"/>
              <path d="M140.404 6.38007H148.689V8.86174H143.092V11.1342H148.379V13.6159H143.092V16.0976H149V18.5792H140.404V6.38007Z" fill="#666766"/>
              <path d="M23.5965 4.71929V0H0V23.5933H14.1579V18.874H4.71929V4.71929H23.5965Z" fill="#00739D"/>
              <path d="M23.5965 9.43856V23.5964H18.8772V14.1579H9.43866V9.43856H23.5965Z" fill="#00739D"/>
            </svg>