<?xml version="1.0" encoding="utf-8"?>
<!-- Generator: Adobe Illustrator 22.1.0, SVG Export Plug-In . SVG Version: 6.00 Build 0)  -->
<svg version="1.1" id="Layer_1" xmlns="http://www.w3.org/2000/svg" xmlns:xlink="http://www.w3.org/1999/xlink" x="0px" y="0px"
	 viewBox="0 0 388 115.2" style="enable-background:new 0 0 388 115.2;" xml:space="preserve">
<style type="text/css">
	.st0{fill:#144991;}
	.st1{fill:#007ABD;}
	.st2{fill:#00B7E3;}
	.st3{fill:#252F6B;}
	.st4{fill:#4E4F53;}
</style>
<title>HMH-HealthHub</title>
<g id="HMH">
	<rect x="48.5" y="19.6" class="st0" width="18.3" height="14.8"/>
	<rect x="67.4" y="4.2" class="st0" width="18.3" height="14.8"/>
	
		<rect x="26.8" y="28.6" transform="matrix(0.7071 -0.7071 0.7071 0.7071 -14.9123 35.987)" class="st1" width="18.3" height="14.8"/>
	<rect x="29.3" y="4.3" transform="matrix(0.7071 -0.7071 0.7071 0.7071 2.9851 30.6118)" class="st1" width="18.3" height="14.8"/>
	<rect x="19.6" y="48.5" class="st2" width="14.8" height="18.3"/>
	<rect x="4.2" y="29.6" class="st2" width="14.8" height="18.3"/>
	<polygon class="st3" points="47.7,80.4 34.8,67.5 24.3,78 37.2,90.9 	"/>
	
		<rect x="4.3" y="67.6" transform="matrix(0.7071 -0.7071 0.7071 0.7071 -50.847 30.7546)" class="st3" width="14.8" height="18.3"/>
	<polygon class="st0" points="66.7,80.8 48.5,80.8 48.5,95.6 66.7,95.6 	"/>
	<rect x="29.5" y="96.2" class="st0" width="18.3" height="14.8"/>
	
		<rect x="67.6" y="96.1" transform="matrix(0.7071 -0.7071 0.7071 0.7071 -50.7077 84.5735)" class="st1" width="18.3" height="14.8"/>
	
		<rect x="70.1" y="71.8" transform="matrix(0.7071 -0.7071 0.7071 0.7071 -32.8174 79.2013)" class="st1" width="18.3" height="14.8"/>
	<rect x="96.2" y="67.4" class="st2" width="14.8" height="18.3"/>
	<rect x="80.7" y="48.5" class="st2" width="14.8" height="18.3"/>
	<polygon class="st3" points="115.2,39.7 102.3,26.8 91.8,37.2 104.7,50.2 	"/>
	
		<rect x="71.8" y="26.9" transform="matrix(0.7071 -0.7071 0.7071 0.7071 -2.2658 66.5454)" class="st3" width="14.8" height="18.3"/>
	<path class="st4" d="M139.6,46.6h1.4c1.5,0,2.1-0.3,2.1-1.8V27.7c0-1.5-0.6-1.8-2.1-1.8h-1.4v-1.6H150V26h-1.3
		c-1.5,0-2.1,0.3-2.1,1.8v7.4h10.1v-7.4c0-1.5-0.6-1.8-2-1.8h-1.4v-1.6h10.4V26h-1.4c-1.5,0-2.1,0.3-2.1,1.8v17.1
		c0,1.5,0.6,1.8,2.1,1.8h1.4v1.6h-10.4v-1.6h1.4c1.5,0,2-0.3,2-1.8v-7.7h-10.1v7.7c0,1.5,0.6,1.8,2.1,1.8h1.4v1.6h-10.4V46.6z"/>
	<path class="st4" d="M165.9,44.7c0-3.1,3-5,9.8-6.4v-0.5c0-3.3-1-4.6-3.4-4.6c-0.9,0-1.9,0.2-2.6,0.7c-0.1,0.2-0.2,0.4,0.1,0.5
		c1,0.5,1.4,1.7,0.9,2.6c-0.4,0.7-1.1,1.1-1.9,1.1c-1.1,0-2.1-0.9-2.1-2c0-0.1,0-0.2,0-0.2c0-2.4,2.6-4.2,6.2-4.2s6,1.9,6,5.9v7.8
		c0,0.9,0.3,1.2,0.8,1.2c0.5-0.1,0.9-0.3,1.1-0.7l0.7,0.8c-0.6,1-1.7,1.6-2.9,1.6c-1.5,0-2.6-1.2-2.6-3.3h-0.2
		c-1.1,2.1-3.2,3.4-5.5,3.4C167.8,48.6,165.9,47.2,165.9,44.7 M175.7,41.5v-1.9c-5.2,1-6.4,2.6-6.4,4.5c-0.1,1.1,0.7,2.2,1.8,2.3
		c0.1,0,0.2,0,0.3,0C173.5,46.5,175.7,44.7,175.7,41.5"/>
	<path class="st4" d="M182.5,40.2c-0.2-4.6,3.4-8.5,8-8.7c0,0,0.1,0,0.1,0c3.1,0,5.6,1.9,5.6,4.6c0.2,1.3-0.8,2.4-2,2.6
		c-0.1,0-0.2,0-0.3,0c-1.1,0-2.1-0.9-2.1-2c0-0.1,0-0.1,0-0.2c0-0.9,0.5-1.7,1.3-2c0.4-0.1,0.4-0.4,0.2-0.6
		c-0.7-0.6-1.7-0.9-2.7-0.8c-2.8,0-4.6,2.5-4.6,7c0,4.2,2,6.7,4.6,6.7c1.7,0,3.2-1,4.7-2.6l1,0.8c-1.4,2.3-3.9,3.7-6.6,3.8
		C185.8,48.7,182.5,45.5,182.5,40.2"/>
	<path class="st4" d="M198.1,46.6h0.5c1.4,0,1.7-0.3,1.7-1.8V27.7c0-1.4-0.3-1.8-1.7-1.8h-0.7v-1.5l5.5-0.6v16.7l4.3-4.9
		c0.6-0.6,0.7-1,0.7-1.3s-0.3-0.7-1.6-0.7v-1.5h7.5v1.5c-2.4,0.2-3.1,0.5-4.4,2l-2.4,2.6l4.4,6.9c0.8,1.1,1.4,1.5,3.1,1.6v1.6h-7.5
		v-1.6c1,0,1.3-0.2,1.3-0.6s-0.1-0.5-0.4-1l-2.9-4.8l-2.1,2.3v2.3c0,1.4,0.3,1.8,1.7,1.8h0.5v1.6h-7.5L198.1,46.6z"/>
	<path class="st4" d="M216.1,40.2c0-5.2,3.7-8.7,7.4-8.7c3.5,0,6.6,2.9,6.6,7.7c0,0.5,0,1-0.1,1.4h-10.6c0.2,3.8,1.8,6.2,4.6,6.2
		c1.9,0,3.5-0.9,5-2.9l1.1,0.7c-1.7,2.6-3.8,4.1-6.8,4.1C219.1,48.7,216.1,45.4,216.1,40.2 M225.1,39c1.2,0,1.6-0.2,1.6-1.2
		c0-3-1.2-4.8-3.3-4.8s-3.7,2-3.9,6L225.1,39z"/>
	<path class="st4" d="M232.4,46.6h0.6c1.4,0,1.7-0.3,1.7-1.8v-9.4c0-1.4-0.3-1.8-1.7-1.8h-0.6v-1.5l5.4-0.4l-0.4,4.5h0.2
		c1.1-2.5,3-4.4,5.5-4.4c2.9,0,4.6,1.7,4.6,5.4v7.7c0,1.4,0.3,1.8,1.7,1.8h0.3v1.6h-7.6v-1.6h0.7c1.5,0,1.7-0.3,1.7-1.8v-7.6
		c0-2.2-0.7-3.3-2.4-3.3c-2.4,0-4.3,3.5-4.3,6.7v4.2c0,1.4,0.3,1.8,1.7,1.8h0.7v1.6h-7.8L232.4,46.6z"/>
	<path class="st4" d="M252,41.8h1c0.8,2.8,3,5.2,6.1,5.2c2,0,3.2-0.9,3.2-2.5s-1-2.2-4.5-3.1s-5.6-2-5.6-5.3c0-2.8,2-4.6,5-4.6
		c2.2,0,3.2,1,4,1c0.5,0,0.8-0.3,1.2-1h1v5.9h-1c-0.6-2-2.5-4.4-5.4-4.4c-1.6,0-2.6,0.8-2.6,2.2s1.2,2,4.2,2.8c4.2,1.1,6,2.4,6,5.4
		s-2.3,4.9-5.6,4.9c-2.4,0-4.1-1.3-4.8-1.3s-0.8,0.4-1.2,1.3h-1L252,41.8z"/>
	<path class="st4" d="M267.2,44.7c0-3.1,3-5,9.8-6.4v-0.5c0-3.3-1-4.6-3.4-4.6c-0.9,0-1.9,0.2-2.6,0.7c-0.1,0.2-0.2,0.4,0.1,0.5
		c1,0.5,1.4,1.7,0.9,2.6c-0.4,0.7-1.1,1.1-1.9,1.1c-1.1,0-2.1-0.9-2.1-2c0-0.1,0-0.2,0-0.3c0-2.4,2.6-4.2,6.2-4.2s6,1.9,6,5.9v7.8
		c0,0.9,0.3,1.2,0.8,1.2c0.5-0.1,0.9-0.3,1.1-0.7l0.7,0.8c-0.6,1-1.7,1.6-2.9,1.6c-1.5,0-2.6-1.2-2.6-3.3H277
		c-1.1,2.1-3.2,3.4-5.5,3.4C269,48.6,267.1,47.2,267.2,44.7 M276.9,41.5v-1.9c-5.2,1-6.4,2.6-6.4,4.5c-0.1,1.1,0.6,2.2,1.8,2.3
		c0.1,0,0.2,0,0.3,0C274.7,46.5,276.9,44.7,276.9,41.5"/>
	<path class="st4" d="M283.7,40.2c-0.2-4.6,3.4-8.5,8.1-8.7c0,0,0.1,0,0.1,0c3.1,0,5.6,1.9,5.6,4.6c0.2,1.3-0.8,2.4-2,2.6
		c-0.1,0-0.2,0-0.3,0c-1.1,0-2.1-0.9-2.1-2c0-0.1,0-0.1,0-0.2c0-0.9,0.5-1.7,1.3-2c0.4-0.1,0.4-0.4,0.2-0.6
		c-0.7-0.6-1.7-0.9-2.7-0.8c-2.8,0-4.6,2.5-4.6,7c0,4.2,2,6.7,4.6,6.7c1.7,0,3.2-1,4.6-2.6l1,0.8c-1.4,2.3-3.9,3.7-6.6,3.8
		C287.1,48.7,283.8,45.5,283.7,40.2"/>
	<path class="st4" d="M299.1,46.6h0.5c1.4,0,1.7-0.3,1.7-1.8V27.7c0-1.4-0.3-1.8-1.7-1.8h-0.7v-1.5l5.5-0.6v16.7l4.3-4.9
		c0.6-0.6,0.7-1,0.7-1.3s-0.3-0.7-1.6-0.7v-1.5h7.5v1.5c-2.4,0.2-3.1,0.5-4.4,2l-2.4,2.6l4.5,6.9c0.8,1.1,1.4,1.5,3.1,1.6v1.6h-7.5
		v-1.6c1,0,1.3-0.2,1.3-0.6s-0.1-0.5-0.5-1l-3-4.8l-2.1,2.3v2.3c0,1.4,0.3,1.8,1.7,1.8h0.5v1.6H299L299.1,46.6z"/>
	<path class="st4" d="M145.2,65.8H145v14c0,3.2,0.7,3.9,3.3,3.9h0.4v1.6h-9.4v-1.5h0.7c2.3,0,3-0.8,3-3.9V65c0-1.5-0.6-1.8-2.1-1.8
		h-1.4v-1.6h8l6.7,18.6l6.6-18.6h7.8v1.6h-1.4c-1.5,0-2.1,0.3-2.1,1.8v17.1c0,1.5,0.6,1.8,2.1,1.8h1.4v1.6h-10.5v-1.6h1.4
		c1.5,0,2-0.3,2-1.8V65.8h-0.2l-7.2,19.9h-1.6L145.2,65.8z"/>
	<path class="st4" d="M170.2,77.4c0-5.2,3.7-8.7,7.4-8.7c3.5,0,6.6,2.9,6.6,7.7c0,0.5,0,1-0.1,1.4h-10.6c0.2,3.8,1.8,6.2,4.6,6.2
		c1.9,0,3.5-0.9,5-2.9l1.1,0.7c-1.7,2.6-3.8,4.1-6.8,4.1C173.2,85.9,170.2,82.6,170.2,77.4 M179.2,76.2c1.2,0,1.6-0.2,1.6-1.2
		c0-3-1.3-4.8-3.3-4.8s-3.7,2-3.9,6L179.2,76.2z"/>
	<path class="st4" d="M186.6,83.8h0.6c1.4,0,1.7-0.3,1.7-1.8v-9.4c0-1.4-0.3-1.8-1.7-1.8h-0.6v-1.5l5.4-0.4l-0.5,5.5h0.2
		c1.3-3.4,3.1-5.6,5.2-5.6c1.6-0.2,2.9,1,3.1,2.5c0,0.2,0,0.3,0,0.5c0,1.6-0.9,2.6-2.1,2.6c-1,0.1-1.8-0.7-1.9-1.6c0,0,0-0.1,0-0.1
		c0-0.7,0.3-1.3,0.9-1.7c0.3-0.2,0.2-0.6-0.2-0.6c-2.3,0-4.8,5-4.8,8.7v2.9c0,1.4,0.3,1.8,1.7,1.8h1.1v1.6h-8.2L186.6,83.8z"/>
	<path class="st4" d="M202.3,83.8h0.5c1.3,0,1.6-0.3,1.6-1.8v-9.4c0-1.4-0.3-1.8-1.6-1.8H202v-1.5l5.6-0.4v13.1
		c0,1.4,0.3,1.8,1.6,1.8h0.4v1.6h-7.3L202.3,83.8z M203.4,63.5c0-1.3,1.1-2.2,2.4-2.2c1.3,0,2.2,1.1,2.2,2.4c0,1.2-1.1,2.2-2.3,2.2
		C204.3,65.8,203.4,64.8,203.4,63.5"/>
	<path class="st4" d="M223.8,81.9h-0.2c-1.2,2.3-2.9,3.8-5.3,3.8c-3.4,0-6.5-3.4-6.5-8.3s3.2-8.4,6.7-8.4c2.2,0.1,4.2,1.4,5.2,3.4
		h0.2l-0.4-3.4V65c0-1.4-0.3-1.7-1.7-1.7h-1.2v-1.6l6-0.6v20.8c0,1.5,0.3,1.8,1.7,1.8h0.6v1.5l-5.4,0.7L223.8,81.9z M223.5,77.3
		c0-3.5-2.2-6.5-4.5-6.5s-3.6,2.3-3.6,6.5s1.4,6.6,3.6,6.6S223.5,80.8,223.5,77.3"/>
	<path class="st4" d="M231.5,83.8h0.5c1.3,0,1.6-0.3,1.6-1.8v-9.4c0-1.4-0.3-1.8-1.6-1.8h-0.8v-1.5l5.6-0.4v13.1
		c0,1.4,0.3,1.8,1.6,1.8h0.4v1.6h-7.3V83.8z M232.6,63.5c0-1.3,1.1-2.2,2.4-2.2c1.3,0,2.2,1.1,2.2,2.4c0,1.2-1.1,2.2-2.3,2.2
		C233.6,65.8,232.6,64.8,232.6,63.5"/>
	<path class="st4" d="M241.3,81.9c0-3,3-5,9.8-6.4V75c0-3.3-1-4.6-3.4-4.6c-0.9,0-1.9,0.2-2.6,0.7c-0.1,0.2-0.2,0.4,0.1,0.6
		c1,0.5,1.3,1.7,0.8,2.6c-0.4,0.7-1.1,1.1-1.8,1.1c-1.1,0-2.1-0.8-2.1-2c0-0.1,0-0.2,0-0.2c0-2.4,2.6-4.2,6.2-4.2s6,1.9,6,5.9v7.8
		c0,0.9,0.3,1.2,0.8,1.2c0.4-0.1,0.9-0.3,1.1-0.7l0.7,0.8c-0.6,1-1.7,1.6-2.9,1.6c-1.5,0-2.6-1.2-2.6-3.3h-0.2
		c-1.1,2.1-3.2,3.4-5.5,3.4C243.2,85.8,241.3,84.5,241.3,81.9 M251.1,78.8v-1.9c-5.2,1-6.4,2.6-6.4,4.6c-0.1,1.1,0.7,2.2,1.8,2.3
		c0.1,0,0.2,0,0.3,0C248.9,83.7,251.1,81.9,251.1,78.8"/>
	<path class="st4" d="M258.4,83.8h0.6c1.4,0,1.7-0.3,1.7-1.8v-9.4c0-1.4-0.3-1.8-1.7-1.8h-0.6v-1.5l5.4-0.4l-0.4,4.5h0.2
		c1.1-2.5,3-4.4,5.5-4.4c2.9,0,4.6,1.7,4.6,5.4v7.7c0,1.4,0.3,1.8,1.7,1.8h0.4v1.6h-7.6v-1.6h0.7c1.5,0,1.7-0.3,1.7-1.8v-7.6
		c0-2.2-0.7-3.3-2.4-3.3c-2.4,0-4.3,3.5-4.3,6.7v4.2c0,1.4,0.3,1.8,1.7,1.8h0.7v1.6h-7.8V83.8z"/>
	<path class="st4" d="M284.1,83.9h1.2c1.5,0,2.2-0.3,2.5-1.8l4.2-17.1c0.3-1.4-0.1-1.8-1.6-1.8h-1.2l0.4-1.6h10.2l-0.4,1.6h-1.3
		c-1.5,0-2.1,0.3-2.5,1.8l-1.9,7.4h9.9l1.9-7.4c0.4-1.5-0.1-1.8-1.6-1.8h-1.3l0.4-1.6h10.2l-0.4,1.6h-1.2c-1.5,0-2.2,0.3-2.5,1.8
		l-4.3,17.1c-0.4,1.4,0.1,1.8,1.7,1.8h1.2l-0.4,1.6h-10.2l0.4-1.6h1.4c1.5,0,2.1-0.3,2.5-1.8l1.9-7.7h-9.9l-2,7.7
		c-0.4,1.4,0.2,1.8,1.7,1.8h1.3l-0.4,1.6h-10.2L284.1,83.9z"/>
	<path class="st4" d="M313.8,79.8c0,2.5,1.1,4.1,2.6,4.1c1.9,0,3.3-0.9,5.1-2.7l1,0.8c-2.1,2.5-4.1,3.9-6.9,3.9
		c-3,0-5.3-2.2-5.3-6.3c0-4.5,4.4-10.8,9.6-10.8c2.4,0,4,1.3,4,3.5c0,3.1-3,5.7-10.1,7L313.8,79.8z M320.5,72.3
		c0-1.2-0.6-1.9-1.4-1.9c-1.8,0-4.5,3.3-5.1,7.5C319.3,76.7,320.5,75,320.5,72.3"/>
	<path class="st4" d="M325.5,80.2c0-6,4.4-11.2,8.2-11.2c2.4,0,3.3,1.2,4,3.5h0.1c0.9-1.1,1.6-2.2,2.1-3.5h1.6l-3.6,11.8
		c-0.3,0.7-0.4,1.4-0.5,2.2c0,0.5,0.2,0.7,0.5,0.7c0.6,0,1.4-0.9,2.9-3.2l1,0.7c-1.6,2.8-3,4.4-4.9,4.4s-2.3-1-2.3-2
		c0-0.5,0.1-1,0.2-1.5h-0.2c-1.4,2-2.9,3.7-5.1,3.7C327.2,85.8,325.4,83.9,325.5,80.2 M336.2,74.2c0-2.1-0.7-3.4-2.1-3.4
		c-2.7,0-5.1,4.4-5.1,10c0,2,0.5,2.8,1.6,2.8C332.8,83.7,336.2,79,336.2,74.2"/>
	<path class="st4" d="M343.9,83.2c0-0.8,0.2-1.6,0.5-2.3l4.6-15.7c0.1-0.4,0.2-0.8,0.2-1.3c0-0.5-0.4-0.7-1.4-0.7h-1.1l0.4-1.6
		l6.3-0.6l-5.7,19.6c-0.2,0.7-0.4,1.5-0.5,2.3c0,0.5,0.1,0.7,0.4,0.7c0.6,0,1.3-0.8,2.8-3.1l1.1,0.7c-1.7,2.8-3,4.3-5,4.3
		c-1.3,0.1-2.4-0.8-2.5-2C343.8,83.5,343.8,83.3,343.9,83.2"/>
	<path class="st4" d="M354.4,82.8c0-0.7,0.1-1.5,0.4-2.2l2.8-9.6h-2.3l0.3-1.3c2.9-0.6,4-1.5,5.9-6.4h1.7l-1.8,6h4.3l-0.4,1.7h-4.5
		l-2.9,9.9c-0.2,0.5-0.2,1-0.2,1.5c0,0.8,0.3,1.5,1.2,1.5c1.3,0,2.2-1,3.8-3.9l1.1,0.7c-1.8,3.7-3.5,5.3-6.1,5.3
		c-1.7,0.1-3.1-1.1-3.2-2.8C354.4,83,354.3,82.9,354.4,82.8"/>
	<path class="st4" d="M374.5,83.2c0-0.9,0.2-1.9,0.6-2.8l2-5.2c0.4-1,0.7-2,0.8-3.1c0-0.6-0.2-1-0.9-1c-2.3,0-5.6,5.2-7,9.9
		l-1.4,4.4h-3.2l6-20.3c0.1-0.4,0.2-0.8,0.2-1.3c0-0.5-0.4-0.7-1.4-0.7h-1.3l0.5-1.6l6.4-0.6l-2.7,8.6l-1.8,4.8l0.2,0.1
		c2-3.3,4-5.6,6.6-5.6c1.4-0.2,2.7,0.8,2.9,2.3c0,0.2,0,0.4,0,0.6c-0.1,1.2-0.4,2.3-0.8,3.4l-2.1,5.4c-0.3,0.7-0.5,1.4-0.6,2.2
		c0,0.5,0.2,0.8,0.5,0.8c0.6,0,1.3-0.8,2.8-3.1l1,0.7c-1.7,2.8-3,4.3-5,4.3c-1.2,0.1-2.4-0.8-2.5-2
		C374.5,83.5,374.5,83.3,374.5,83.2"/>
</g>
</svg>
