<?xml version="1.0" encoding="UTF-8"?> <svg xmlns="http://www.w3.org/2000/svg" data-name="Group 921" width="245.095" height="44.573" viewBox="0 0 245.095 44.573"><defs><clipPath id="a"><rect data-name="Rectangle 3" width="245.095" height="44.573" fill="none"></rect></clipPath></defs><rect data-name="Rectangle 1" width="8.856" height="8.858" transform="translate(215.188)" fill="#800f2e"></rect><rect data-name="Rectangle 2" width="8.858" height="8.849" transform="translate(215.188 13.254)" fill="#800f2e"></rect><g data-name="Group 2"><g data-name="Group 1" clip-path="url(#a)" fill="#002d67"><path data-name="Path 1" d="M18.141 33.099H6.631v5.438a25.805 25.805 0 00.133 3.411 1.752 1.752 0 00.654 1.2 3.8 3.8 0 002.054.427h.569v.672H0v-.672h.577a3.789 3.789 0 001.981-.361 1.637 1.637 0 00.71-1.108 25.276 25.276 0 00.152-3.523V27.528a24.132 24.132 0 00-.152-3.4 1.488 1.488 0 00-.664-1.06 5.273 5.273 0 00-2.2-.284H0v-.674h9.993v.674h-.407a5.275 5.275 0 00-2.121.264 1.389 1.389 0 00-.681.994 20.725 20.725 0 00-.152 3.477v4.473h11.509v-4.473A24 24 0 0018 24.127a1.464 1.464 0 00-.643-1.06 5.172 5.172 0 00-2.16-.284h-.589v-.674h10.023v.674h-.322a5.321 5.321 0 00-2.131.264 1.412 1.412 0 00-.683.994 20.85 20.85 0 00-.17 3.486v11.02a30.49 30.49 0 00.124 3.411 1.725 1.725 0 00.662 1.193 3.711 3.711 0 002.019.388h.5v.674H14.607v-.635h.768a3.664 3.664 0 001.894-.361A1.611 1.611 0 0018 42.062a25.609 25.609 0 00.143-3.525z"></path><path data-name="Path 2" d="M38.83 37.752h-6.632l-.492 1.089a11.194 11.194 0 00-1 3.166 1.41 1.41 0 00.539 1.193 2.208 2.208 0 001.394.407v.577h-5.273v-.577a2.84 2.84 0 001.733-.824 10.244 10.244 0 001.384-2.71c.046-.131.264-.633.625-1.506l5.106-12.146h.531l5.844 13.913.8 1.838a2.449 2.449 0 00.72.948 2.607 2.607 0 001.365.444v.579h-6.885v-.579a5 5 0 001.724-.189.731.731 0 00.446-.749 7.532 7.532 0 00-.6-1.695zm-.257-.616l-3.079-7.438-3.069 7.436z"></path><path data-name="Path 3" d="M66.199 44.213h-4.737a20.386 20.386 0 01-3.789-4.575 37.74 37.74 0 00-1.714-2.274 8.418 8.418 0 00-1.241-1.365 1.856 1.856 0 00-1.052-.237h-.691v3.876a22.11 22.11 0 00.095 2.7 1.375 1.375 0 00.521.948 2.905 2.905 0 001.62.313h.845v.577h-8.425v-.579h.568a3.033 3.033 0 001.564-.284 1.3 1.3 0 00.558-.892 19.945 19.945 0 00.114-2.841v-8.536a18.954 18.954 0 00-.114-2.708 1.139 1.139 0 00-.512-.844 4.123 4.123 0 00-1.724-.237h-.3v-.568l2.511-.162q2.5-.113 3.978-.114a14.567 14.567 0 014.073.475 5.338 5.338 0 012.54 1.535 3.608 3.608 0 01.946 2.529 3.948 3.948 0 01-1.259 2.946 6.419 6.419 0 01-3.733 1.508c.73.359 1.894 1.629 3.534 3.789a18.182 18.182 0 003.125 3.505 4.667 4.667 0 002.681.871zm-13.263-9.038a18.191 18.191 0 002-.075 7.4 7.4 0 001.789-.284 3.126 3.126 0 001.231-.683 3.165 3.165 0 00.749-1.174 5.234 5.234 0 00.264-1.8 4.537 4.537 0 00-.948-2.975c-.616-.739-1.952-1.118-4.015-1.118a7.824 7.824 0 00-1.1.056z"></path><path data-name="Path 4" d="M76.893 34.768a7.422 7.422 0 014.425 1.488 4.063 4.063 0 011.44 3.173 4.311 4.311 0 01-.948 2.841 4.529 4.529 0 01-2.509 1.564 18 18 0 01-4.094.369h-6.9v-.577h.672a3 3 0 001.544-.284 1.27 1.27 0 00.55-.892 18.384 18.384 0 00.124-2.841v-8.524a17.786 17.786 0 00-.133-2.757 1.177 1.177 0 00-.521-.863 4.122 4.122 0 00-1.743-.236h-.342v-.569l2.843-.085 3.343-.046c4.793 0 7.2 1.382 7.2 4.139a3.421 3.421 0 01-1.241 2.747 7.47 7.47 0 01-3.7 1.394m-3.185-.26h.55c1.894 0 3.135-.284 3.789-.871a3.586 3.586 0 001.013-2.841 4.59 4.59 0 00-.4-2.123 2.711 2.711 0 00-1.176-1.241 6.627 6.627 0 00-2.757-.369H73.7zm0 .654v3.9a23.471 23.471 0 00.095 3.164 1.54 1.54 0 00.483 1.013 2.445 2.445 0 001.564.351 4.163 4.163 0 003.1-1.052 4.394 4.394 0 001.033-3.183 4 4 0 00-1.175-3.188c-.776-.681-2.15-1.033-4.112-1.033h-.948"></path><path data-name="Path 5" d="M85.922 35.337a8.338 8.338 0 012.708-6.509 9.712 9.712 0 016.777-2.453 9.928 9.928 0 016.831 2.425 8.373 8.373 0 012.747 6.633 8.7 8.7 0 01-2.623 6.631 10.685 10.685 0 01-13.765 0 8.727 8.727 0 01-2.672-6.631m2.955.085q0 4.233 1.687 6.357a6.062 6.062 0 005.055 2.134 5.68 5.68 0 004.685-2.136q1.723-2.122 1.724-6.328t-1.7-6.281a6.63 6.63 0 00-9.368-.442c-.137.125-.27.257-.4.394q-1.688 2.047-1.687 6.206"></path><path data-name="Path 6" d="M119.681 26.687h5.806v.568a3.1 3.1 0 00-1.714.531 1.751 1.751 0 00-.691 1 11.476 11.476 0 00-.133 2.152v5.835a23.617 23.617 0 01-.17 3.324 4.653 4.653 0 01-1 2.131 5.609 5.609 0 01-2.322 1.668 9.078 9.078 0 01-3.486.616 8.959 8.959 0 01-3.959-.786 5.1 5.1 0 01-2.322-2.046 7.032 7.032 0 01-.691-3.382v-7.262a17.056 17.056 0 00-.124-2.7 1.176 1.176 0 00-.512-.844 4.123 4.123 0 00-1.724-.237h-.444v-.568h8.032v.568h-.346a4.339 4.339 0 00-1.706.218 1.155 1.155 0 00-.541.8 17.2 17.2 0 00-.131 2.766v5.523a21 21 0 00.264 4.073 3.58 3.58 0 001.488 2.1 5.367 5.367 0 003.268.946 6.877 6.877 0 002.907-.6 4.724 4.724 0 001.951-1.501 4.239 4.239 0 00.778-1.9 22.471 22.471 0 00.143-2.994v-5.972a8.688 8.688 0 00-.172-2.085 1.544 1.544 0 00-.72-.948 3.887 3.887 0 00-1.762-.434z"></path><path data-name="Path 7" d="M146.729 44.212h-4.738a20.468 20.468 0 01-3.842-4.575 40.93 40.93 0 00-1.714-2.274 8.267 8.267 0 00-1.232-1.326 1.776 1.776 0 00-1.042-.237h-.691v3.874a22.523 22.523 0 00.095 2.7 1.343 1.343 0 00.521.948 2.856 2.856 0 001.61.313h.853v.577h-8.427v-.577h.577a3.051 3.051 0 001.564-.286 1.262 1.262 0 00.55-.89 18.393 18.393 0 00.124-2.841v-8.573a19.541 19.541 0 00-.114-2.708 1.189 1.189 0 00-.521-.844 4.066 4.066 0 00-1.724-.237h-.293v-.568l2.5-.124c1.677-.075 3-.114 3.988-.114a14.651 14.651 0 014.075.473 5.384 5.384 0 012.567 1.5 3.608 3.608 0 01.946 2.529 3.961 3.961 0 01-1.268 2.946 6.361 6.361 0 01-3.724 1.508c.73.359 1.894 1.629 3.534 3.789a17.88 17.88 0 003.125 3.505 4.639 4.639 0 002.681.871zm-13.264-9.038a18.192 18.192 0 002-.075 7.4 7.4 0 001.789-.284 3.137 3.137 0 001.241-.712 3.02 3.02 0 00.739-1.174 5.189 5.189 0 00.274-1.8 4.537 4.537 0 00-.948-2.975c-.606-.737-1.952-1.118-4.007-1.118a7.554 7.554 0 00-1.1.058z"></path><path data-name="Path 8" d="M180.346 38.755h.577l-.369 5.457h-14.5v-.579h.361a2.708 2.708 0 001.695-.349 1.582 1.582 0 00.494-.882 21.745 21.745 0 00.1-2.747v-8.611a19.179 19.179 0 00-.114-2.643 1.216 1.216 0 00-.5-.89 3.531 3.531 0 00-1.661-.249v-.577h12.533l.371 4.224h-.577a6.147 6.147 0 00-.948-2.471 2.619 2.619 0 00-1.515-.967 11.965 11.965 0 00-2.664-.2h-2.435v7.38h1.9a5.152 5.152 0 001.789-.218 1.162 1.162 0 00.674-.662 5.9 5.9 0 00.16-1.735h.579v5.949h-.579a5.009 5.009 0 00-.245-1.969 1.2 1.2 0 00-.72-.654 6.3 6.3 0 00-1.6-.143h-1.9v4.15c0 2.085.141 3.307.407 3.675s.946.55 2.16.55h1.31a6.691 6.691 0 002.274-.332 3.951 3.951 0 001.695-1.44 8.431 8.431 0 001.27-3.069"></path><path data-name="Path 9" d="M184.239 44.212v-5.457h.672c.73 3.695 2.463 5.154 5.2 5.154a3.787 3.787 0 002.841-1.052 3.367 3.367 0 001.013-2.369 3.019 3.019 0 00-.89-2.206 11.194 11.194 0 00-3.268-1.9 25.182 25.182 0 01-3.171-1.577 4.817 4.817 0 01-1.677-1.762 4.665 4.665 0 01-.606-2.313 4.136 4.136 0 011.3-3.116 4.515 4.515 0 013.278-1.251 6.042 6.042 0 012.085.359 5.315 5.315 0 012.008 1.488 2.727 2.727 0 00.674-1.535h.577v4.23h-.58a5.093 5.093 0 00-1.724-2.785 4.147 4.147 0 00-2.843-1.137 2.836 2.836 0 00-2.272.844 2.746 2.746 0 00-.73 1.847 2.669 2.669 0 00.946 2.056 12.274 12.274 0 003.26 1.894 32.9 32.9 0 013.278 1.62 4.507 4.507 0 011.581 1.706 4.932 4.932 0 01.616 2.509 4.734 4.734 0 01-1.486 3.648 5.6 5.6 0 01-4 1.421 6.1 6.1 0 01-4.795-2.208 5.553 5.553 0 00-.633 1.9z"></path><path data-name="Path 10" d="M198.468 30.913h-.568l.085-4.226h17.051l.087 4.226h-.531a6.8 6.8 0 00-.815-2.5 2.2 2.2 0 00-1.108-.946 8.232 8.232 0 00-2.029-.181h-2.841v12.376a23.059 23.059 0 00.095 2.708 1.343 1.343 0 00.521.948 2.843 2.843 0 001.6.313h.853v.577h-8.81v-.577h.948a3.077 3.077 0 001.564-.284 1.344 1.344 0 00.558-.882 19.671 19.671 0 00.124-2.841V27.293h-2.606a9.727 9.727 0 00-2.282.172 2.021 2.021 0 00-1.147.956 7.127 7.127 0 00-.788 2.482"></path><path data-name="Path 11" d="M159.554 22.11v.672c1.762 0 2.643.788 2.643 2.029a14.39 14.39 0 01-1.288 3.988l-5.106 12.221-6.349-14.684a8.062 8.062 0 01-.766-2.208 1.108 1.108 0 01.606-1.089 6.971 6.971 0 012.378-.257v-.672h-9.474v.672a3.922 3.922 0 012.274.569 5.489 5.489 0 011.316 2.226c.3.768.531 1.307.674 1.62l7.5 17.329h1.214l6.47-15.377 1.477-3.467a5.571 5.571 0 011.345-2.056 2.851 2.851 0 011.809-.824v-.672z"></path><path data-name="Path 12" d="M228.441 13.234v8.876L245.098 0h-16.657v13.234z"></path></g></g></svg> 