<?xml version="1.0" encoding="utf-8"?>
<!-- Generator: Adobe Illustrator 26.3.1, SVG Export Plug-In . SVG Version: 6.00 Build 0)  -->
<svg version="1.1" id="Layer_1" xmlns="http://www.w3.org/2000/svg" xmlns:xlink="http://www.w3.org/1999/xlink" x="0px" y="0px"
	 viewBox="0 0 539.3 169.3" style="enable-background:new 0 0 539.3 169.3;" xml:space="preserve">
<style type="text/css">
	.st0{fill:#20201E;}
	.st1{fill:none;}
	
		.st2{clip-path:url(#SVGID_00000108307063279467199290000002805671890431321771_);fill:url(#SVGID_00000070817988971006747710000010704587175416841860_);}
	.st3{clip-path:url(#SVGID_00000165200884537464106120000016365484626381934468_);fill:#20201E;}
</style>
<path class="st0" d="M294.3,134.3l-29.8-79c0,0-1.2-3-4.8-3c-4.6,0-3.6,0-26.5,0L279.8,167l1.8,0L294.3,134.3z"/>
<rect x="1.8" y="0.6" class="st1" width="535.3" height="167.4"/>
<g>
	<defs>
		<path id="SVGID_1_" d="M326.9,52.3c-3.7,0-4.7,2.3-4.7,2.3L279.8,167h27.1l45.5-114.7H326.9z"/>
	</defs>
	<clipPath id="SVGID_00000139256951533614316590000007522200814386398143_">
		<use xlink:href="#SVGID_1_"  style="overflow:visible;"/>
	</clipPath>
	
		<linearGradient id="SVGID_00000110436963781243991290000011843036027822921096_" gradientUnits="userSpaceOnUse" x1="-118.4629" y1="306.7718" x2="-117.4703" y2="306.7718" gradientTransform="matrix(91.8176 -91.8176 -91.8176 -91.8176 39313.1445 17446.373)">
		<stop  offset="0" style="stop-color:#628F35"/>
		<stop  offset="0.1598" style="stop-color:#87AE4B"/>
		<stop  offset="0.2532" style="stop-color:#98BC55"/>
		<stop  offset="0.6823" style="stop-color:#B5C83E"/>
		<stop  offset="1" style="stop-color:#B5C83E"/>
	</linearGradient>
	
		<polygon style="clip-path:url(#SVGID_00000139256951533614316590000007522200814386398143_);fill:url(#SVGID_00000110436963781243991290000011843036027822921096_);" points="
		222.1,109.2 316.2,15.2 410.4,109.2 316.2,203.3 	"/>
</g>
<g>
	<defs>
		<rect id="SVGID_00000008852899711627413790000001679088774799489971_" x="1.8" y="1.2" width="535.3" height="167.4"/>
	</defs>
	<clipPath id="SVGID_00000129898475905010983560000015382791175103581580_">
		<use xlink:href="#SVGID_00000008852899711627413790000001679088774799489971_"  style="overflow:visible;"/>
	</clipPath>
	<path style="clip-path:url(#SVGID_00000129898475905010983560000015382791175103581580_);fill:#20201E;" d="M81.9,96.4H29.9
		c1.3-8.3,4.2-14.8,8.8-19.3c4.6-4.5,10.9-6.8,18.8-6.8c4.1,0,7.7,0.7,10.8,2.1c3.1,1.4,5.6,3.3,7.7,5.6c2,2.4,3.5,5.2,4.5,8.3
		C81.4,89.5,81.9,92.8,81.9,96.4 M106.7,102.5c0-8.3-1.2-15.6-3.7-22.1c-2.5-6.4-5.9-11.9-10.3-16.3C88.3,59.6,83,56.3,76.9,54
		c-6.1-2.3-12.8-3.5-20-3.5c-8.6,0-16.3,1.5-23.1,4.5c-6.8,3-12.6,7-17.3,12.1c-4.7,5.1-8.4,11.1-10.9,18C3.1,92,1.8,99.3,1.8,107.1
		c0,10.1,1.5,18.9,4.4,26.5c2.9,7.6,6.9,14,12,19.2c5.1,5.2,11,9.1,17.9,11.7c6.9,2.6,14.3,4,22.2,4c4,0,8.2-0.3,12.5-0.9
		c4.3-0.6,8.5-1.6,12.6-3.1c4.1-1.5,8.1-3.4,11.9-5.8c3.8-2.4,7.2-5.4,10.3-9l-7.9-10.1c-1.1-1.7-2.8-2.6-5.1-2.6
		c-1.7,0-3.5,0.5-5.3,1.6c-1.8,1-3.9,2.2-6.4,3.5c-2.4,1.3-5.3,2.4-8.5,3.5c-3.2,1-7.1,1.6-11.6,1.6s-8.5-0.7-12.2-2.1
		c-3.7-1.4-6.9-3.5-9.6-6.3c-2.7-2.8-4.8-6.3-6.5-10.6c-1.6-4.3-2.7-9.4-3.1-15.3h71c2.5,0,4.2-0.7,5.1-2.2
		C106.3,109.4,106.7,106.6,106.7,102.5"/>
	<path style="clip-path:url(#SVGID_00000129898475905010983560000015382791175103581580_);fill:#20201E;" d="M150.3,57.3
		c-1.1-3.4-3.5-5-7-5h-16.9v114.7H154V84c3.7-3.7,7.7-6.7,11.8-8.8c4.2-2.2,8.6-3.2,13.4-3.2c6.6,0,11.4,1.9,14.6,5.8
		c3.2,3.8,4.8,9.3,4.8,16.3v73h27.6V94c0-6.4-0.8-12.3-2.5-17.6c-1.7-5.3-4.1-9.9-7.4-13.7c-3.2-3.8-7.3-6.8-12.1-8.9
		c-4.8-2.1-10.4-3.2-16.7-3.2c-3.9,0-7.5,0.4-10.7,1.2c-3.3,0.8-6.4,1.9-9.2,3.2c-2.9,1.4-5.6,3.1-8.2,5c-2.6,2-5,4.1-7.3,6.4
		L150.3,57.3z"/>
	<path style="clip-path:url(#SVGID_00000129898475905010983560000015382791175103581580_);fill:#20201E;" d="M394.5,52.3h-27.7
		v114.7h27.7V52.3z M398.3,18.9c0-2.5-0.5-4.8-1.5-6.9c-1-2.2-2.3-4-3.9-5.6c-1.6-1.6-3.5-2.8-5.6-3.7c-2.2-0.9-4.5-1.4-6.9-1.4
		c-2.4,0-4.6,0.5-6.8,1.4c-2.1,0.9-4,2.2-5.5,3.7c-1.6,1.6-2.8,3.4-3.7,5.6c-0.9,2.2-1.4,4.5-1.4,6.9c0,2.4,0.5,4.6,1.4,6.7
		c0.9,2.1,2.2,3.9,3.7,5.5c1.6,1.6,3.4,2.8,5.5,3.7c2.1,0.9,4.4,1.4,6.8,1.4c2.5,0,4.8-0.5,6.9-1.4c2.2-0.9,4-2.2,5.6-3.7
		c1.6-1.6,2.9-3.4,3.9-5.5C397.8,23.5,398.3,21.3,398.3,18.9"/>
	<path style="clip-path:url(#SVGID_00000129898475905010983560000015382791175103581580_);fill:#20201E;" d="M446,59.2
		c-0.4-2.6-1.1-4.4-2.2-5.4c-1.1-1-3.1-1.5-5.9-1.5h-16.2v114.7h27.6V96.3c1.3-3.1,2.6-5.8,4.1-8.2c1.5-2.4,3.1-4.4,5-6.1
		c1.9-1.7,4-3,6.4-3.9c2.4-0.9,5.1-1.3,8.2-1.3c2.1,0,4.2,0.2,6.4,0.6c2.2,0.4,3.9,0.6,5,0.6c1.2,0,2.1-0.3,2.8-0.8
		c0.7-0.6,1.2-1.5,1.6-2.8l1.8-20.7c-3.2-2.3-7.5-3.5-12.7-3.5c-6.7,0-12.5,2-17.4,5.9c-4.9,3.9-9.2,9.3-12.7,16.1L446,59.2z"/>
	<path style="clip-path:url(#SVGID_00000129898475905010983560000015382791175103581580_);fill:#20201E;" d="M533.3,52.3h-27.7
		v114.7h27.7V52.3z M537.1,18.9c0-2.5-0.5-4.8-1.5-6.9c-1-2.2-2.3-4-3.9-5.6c-1.6-1.6-3.5-2.8-5.6-3.7c-2.2-0.9-4.5-1.4-6.9-1.4
		c-2.4,0-4.6,0.5-6.8,1.4c-2.1,0.9-4,2.2-5.5,3.7c-1.6,1.6-2.8,3.4-3.7,5.6c-0.9,2.2-1.4,4.5-1.4,6.9c0,2.4,0.5,4.6,1.4,6.7
		c0.9,2.1,2.2,3.9,3.7,5.5c1.6,1.6,3.4,2.8,5.5,3.7c2.1,0.9,4.4,1.4,6.8,1.4c2.5,0,4.8-0.5,6.9-1.4c2.2-0.9,4-2.2,5.6-3.7
		c1.6-1.6,2.9-3.4,3.9-5.5C536.6,23.5,537.1,21.3,537.1,18.9"/>
</g>
</svg>
