<svg id="Layer_1" data-name="Layer 1" xmlns="http://www.w3.org/2000/svg" viewBox="0 0 600.15 256.43"><defs><style>.cls-1,.cls-2{fill:#fff;}.cls-1{stroke:#fff;stroke-width:18.71px;}.cls-3{fill:#f58025;}</style></defs><title>NEW_newspaper_LOGO-nowhitespace</title><path class="cls-1" d="M777,279.74H441.63c-2.86,0-5.66.17-8.47.34v-.34c-65.4.45-118.27,53.43-118.27,118.75,0,65.64,53.47,118.91,119.33,118.91H701.15v-.15h32.19q5.8,0,11.48-.51v.66H777c65.86,0,119.34-53.27,119.34-118.91S842.84,279.74,777,279.74Z" transform="translate(-305.54 -270.32)"/><path class="cls-2" d="M442.07,279.8H733.12c57.43,0,105.06,37,105.06,83.19v70.85c0,45.73-47.63,83.33-105.06,83.33H442.36c-57.72,0-105.36-37.61-105.36-83.33V363C337,316.81,384.33,279.8,442.07,279.8Z" transform="translate(-305.54 -270.32)"/><path class="cls-3" d="M778.1,516.6h0A118.2,118.2,0,0,0,896.32,398.52c0-65.17-53-117.94-118.22-117.94h-346a118,118,0,0,0,1,236h345Z" transform="translate(-305.54 -270.32)"/><path class="cls-2" d="M464.59,277.35v57.78h0a49.59,49.59,0,0,1,26.56-7.56,50.22,50.22,0,0,1,50.24,50.25h0V465h-42.7V380.54h0a16.9,16.9,0,1,0-33.8,0h0V465H418.58V277.35ZM686.27,520.67V398.5h0a68.27,68.27,0,1,1,68.19,68.35A65.09,65.09,0,0,1,737,464.56h0V416h0a24.74,24.74,0,1,0-7.11-17.5h0V520.67ZM545.65,398.5a68.2,68.2,0,1,1,136.39,0h0V465h-43.6V398.5h0a24.61,24.61,0,1,0-24.62,24.73A23.88,23.88,0,0,0,631.19,416h0v48.57h0a64.37,64.37,0,0,1-17.37,2.29,68.25,68.25,0,0,1-68.17-68.36Z" transform="translate(-305.54 -270.32)"/><path class="cls-2" d="M832.58,443.47a11.11,11.11,0,1,1-11.06,11.09,11.06,11.06,0,0,1,11.06-11.09Zm0,21a9.94,9.94,0,1,0-9.94-9.93,9.94,9.94,0,0,0,9.94,9.93Zm-5-16.55h0v12.9H830v-4.67h2.25c2.84,0,3.55,1.43,3.66,4.67h2.73c0-2.64-.51-4.67-3.35-5.68h0a3.55,3.55,0,0,0,3.45-3.45c0-2.14-2-3.76-5.06-3.76h-6.09Zm2.41,6.22h0V450h3.27c2,0,2.74.81,2.74,1.94,0,1.4-.92,2.23-3.16,2.23H830Z" transform="translate(-305.54 -270.32)"/></svg>