<?xml version="1.0" encoding="utf-8"?>
<!-- Generator: Adobe Illustrator 26.0.2, SVG Export Plug-In . SVG Version: 6.00 Build 0)  -->
<svg version="1.1" id="Layer_1" xmlns="http://www.w3.org/2000/svg" xmlns:xlink="http://www.w3.org/1999/xlink" x="0px" y="0px"
	 viewBox="0 0 162 20.1" style="enable-background:new 0 0 162 20.1;" xml:space="preserve">
<style type="text/css">
	.st0{fill:#2D75B9;}
</style>
<polygon class="st0" points="10.7,0.3 10.7,6.9 7.3,6.9 7.3,0.3 0,0.3 0,19.7 7.3,19.7 7.3,12.5 10.7,12.5 10.7,19.7 18,19.7 
	18,0.3 "/>
<polygon class="st0" points="31.4,0.3 31.4,19.7 46.1,19.7 46.1,14.7 38.7,14.7 38.7,12.4 45.4,12.4 45.4,7.4 38.7,7.4 38.7,5.3 
	45.9,5.3 45.9,0.3 "/>
<path class="st0" d="M67.6,4.2l1.7,7.7h-3.4L67.6,4.2z M63,0.3l-6.4,19.5H64l0.7-3.1h5.6l0.7,3.1h8L72.8,0.3H63z"/>
<g>
	<path class="st0" d="M89.5,19.7h7.3v-7c0.2,0,0.5,0,0.7,0c1.7,0,2,0.8,2.3,2.9l0.2,1.4c0.1,0.9,0.3,1.8,0.6,2.7h7.4
		c-0.3-1.4-0.6-2.6-0.7-3.5l-0.2-2.1c-0.3-2.8-1-4-3.6-4.4c2.5-0.7,3.8-2.2,3.8-4.5c0-3.9-2.5-4.9-7.8-4.9h-9.9V19.7z M96.8,8.3V4.7
		c0.3,0,0.6,0,0.8,0c1.6,0,2.4,0.5,2.4,1.7c0,1.2-0.9,2-2.7,2C97.2,8.3,97,8.3,96.8,8.3"/>
	<path class="st0" d="M125.5,13.5v0.2c0,1.3,0.6,1.9,1.8,1.9c1.1,0,1.8-0.6,1.8-1.4c0-0.6-0.3-1.1-0.8-1.3c-1-0.5-2.7-0.8-5-1.5
		c-3.1-1-4.6-2.5-4.6-5.3c0-3.8,3.1-6.1,8.7-6.1c5.1,0,7.8,1.9,7.8,5.3v0.4h-6.4c-0.1-1.2-0.6-1.7-1.7-1.7c-1,0-1.6,0.6-1.6,1.3
		c0,1.4,1.3,1.3,3.8,2c4.5,1.2,6.6,2.4,6.6,6c0,4.1-3.3,6.8-8.9,6.8c-5.7,0-8.7-2.2-8.7-5.9c0-0.2,0-0.4,0-0.7H125.5z"/>
</g>
<polygon class="st0" points="145.2,0.3 145.2,5.5 149.9,5.5 149.9,19.7 157.4,19.7 157.4,5.5 162,5.5 162,0.3 "/>
</svg>
