<svg xmlns="http://www.w3.org/2000/svg" xmlns:xlink="http://www.w3.org/1999/xlink" viewBox="0 0 118.3 41"><defs><style>.e{fill:#25408f;}.f{clip-path:url(#d);}.g{fill:none;}</style><clipPath id="d"><rect class="g" width="183.81" height="41"/></clipPath></defs><g id="a"/><g id="b"><g id="c"><g class="f"><path class="e" d="M8.44,1.24L0,41H12.5l3.03-14.08h6.98s.07,.04-.48,2.32c-1.29,5.35,2.25,11.76,9.94,11.76,9.02,0,25.19,0,30.69,0,3.15,0,8.41-2.06,9.61-7.46,1.26-5.69,2.32-10.57,2.53-11.57,.86-4.06-2.87-6.67-5.4-6.67h-10.37l-2.44,11.62s4.59,.03,5.11,0c1.91-.09,1.39,2.46-.43,2.46h-26.81L40.44,1.24h-12.48l-3.01,14.07h-6.93L21,1.24H8.44Z"/><path class="e" d="M76.71,12.85l2.44-11.61h-28.44s-8.11-.28-9.71,6.67c-.66,2.89-2.05,9.82-2.48,11.53-.96,3.83,1.48,7.45,5.93,7.48,3.49,.02,9.8,0,9.8,0l2.45-11.61h-5.35c-1.69-.07-1.46-2.44,.51-2.46h24.85Z"/><path class="e" d="M109.59,12.85l2.44-11.61s-12.81,0-18.4,0c-7.65,0-13.72,5.59-15.01,11.63-1.9,8.89-2.58,12.27-3.53,16.47-1.19,5.31,3.2,11.66,10.08,11.66h18.45l2.46-11.61h-18.43l3.51-16.53h18.43Z"/><path class="e" d="M116.15,0c.37,0,.72,.09,1.06,.28,.34,.18,.61,.44,.8,.79,.19,.34,.29,.7,.29,1.08s-.09,.73-.28,1.07c-.19,.34-.45,.6-.79,.79-.34,.19-.69,.28-1.07,.28s-.73-.09-1.07-.28c-.34-.19-.61-.45-.79-.79-.19-.34-.29-.69-.29-1.07s.1-.73,.29-1.08c.19-.34,.46-.61,.8-.79C115.43,.09,115.78,0,116.15,0m0,.42c-.3,0-.58,.07-.85,.22-.27,.15-.48,.36-.64,.64-.16,.28-.23,.56-.23,.87s.07,.59,.23,.86c.15,.27,.37,.49,.64,.64,.27,.15,.56,.23,.86,.23s.58-.08,.86-.23c.27-.15,.48-.36,.64-.64,.15-.27,.23-.56,.23-.86s-.08-.59-.23-.87c-.16-.28-.37-.49-.64-.64-.27-.15-.56-.22-.85-.22m-.97,2.87V1.02h.46c.43,0,.67,0,.73,0,.15,.01,.28,.04,.36,.09,.08,.05,.16,.12,.21,.22,.06,.1,.08,.21,.08,.33,0,.16-.05,.31-.16,.42-.11,.12-.26,.19-.45,.22,.07,.03,.12,.06,.16,.09,.04,.03,.09,.09,.15,.18,.02,.02,.07,.11,.17,.28l.27,.46h-.57l-.19-.37c-.13-.25-.23-.41-.32-.47s-.19-.1-.32-.1h-.12v.94h-.46Zm.46-1.29h.19c.27,0,.43,0,.5-.03,.06-.02,.11-.06,.15-.11,.04-.05,.06-.11,.06-.18s-.02-.12-.06-.17c-.04-.05-.09-.08-.15-.11-.07-.02-.23-.03-.5-.03h-.19v.62Z"/></g></g></g></svg>