<?xml version="1.0" encoding="utf-8"?>
<!-- Generator: Adobe Illustrator 24.0.1, SVG Export Plug-In . SVG Version: 6.00 Build 0)  -->
<svg version="1.1" xmlns="http://www.w3.org/2000/svg" xmlns:xlink="http://www.w3.org/1999/xlink" x="0px" y="0px"
	 viewBox="0 0 315.9 85" style="enable-background:new 0 0 315.9 85;" xml:space="preserve">
<style type="text/css">
	.st0{display:none;}
	.st1{display:inline;fill:#FFFFFF;}
	.st2{display:inline;fill:#DB0011;}
	.st3{display:inline;}
	.st4{fill:#FFFFFF;}
	.st5{fill:none;}
	.st6{fill:#DB0011;}
	.st7{fill:#F08700;}
	.st8{fill:#FFDC00;}
	.st9{fill:#009641;}
	.st10{fill:#00A0E1;}
	.st11{fill:#961B80;}
	.st12{fill:#ECECEC;}
	.st13{fill:#F5AAC8;}
	.st14{fill:#6EC8DC;}
	.st15{fill:#6E320A;}
</style>
<g id="HSBC_MASTERBRAND_LOGO_WW_RGB" class="st0">
	<rect x="42.6" class="st1" width="85" height="85"/>
	<polygon class="st2" points="170.1,42.6 127.6,0 127.6,85.1 	"/>
	<polygon class="st2" points="85.1,42.6 127.6,0 42.6,0 	"/>
	<polygon class="st2" points="0,42.6 42.6,85.1 42.6,0 	"/>
	<polygon class="st2" points="85.1,42.6 42.6,85.1 127.6,85.1 	"/>
	<path class="st3" d="M207.4,45.1H192v15.2h-7.7V24.7h7.7v14.6h15.4V24.7h7.7v35.6h-7.7V45.1z"/>
	<path class="st3" d="M233.7,61c-7.7,0-14-3.1-14.1-11.6h7.7c0.1,3.8,2.3,6.1,6.5,6.1c3.1,0,6.7-1.6,6.7-5.1c0-2.8-2.4-3.6-6.4-4.8
		l-2.6-0.7c-5.6-1.6-11.2-3.8-11.2-10.2c0-7.9,7.4-10.6,14.1-10.6c6.9,0,12.9,2.4,13,10.3h-7.7c-0.3-3.2-2.2-5.1-5.8-5.1
		c-2.9,0-5.7,1.5-5.7,4.7c0,2.6,2.4,3.4,7.4,5l3,0.9c6.1,1.9,10,4,10,10C248.5,57.9,240.7,61,233.7,61z"/>
	<path class="st3" d="M252.9,24.8h12.4c2.3-0.1,4.7,0,7,0.4c4.3,1,7.6,3.8,7.6,8.6c0,4.6-2.9,6.9-7.1,8c4.8,0.9,8.4,3.3,8.4,8.6
		c0,8.1-8,9.9-14.2,9.9h-14L252.9,24.8z M265.3,39.6c3.4,0,6.9-0.7,6.9-4.8c0-3.7-3.2-4.7-6.4-4.7h-5.4v9.5H265.3z M266,55
		c3.6,0,7.1-0.8,7.1-5.2s-3-5.2-6.7-5.2h-6.1V55H266z"/>
	<path class="st3" d="M301.2,61c-11.5,0-16.6-7.3-16.6-18.2s5.7-18.8,17-18.8c7.1,0,14,3.2,14.2,11.2h-8c-0.4-3.6-2.8-5.4-6.2-5.4
		c-7,0-9.1,7.5-9.1,13.2s2.1,12.3,8.8,12.3c3.5,0,6.1-1.9,6.6-5.5h8C315.1,58,308.6,61,301.2,61z"/>
</g>
<g id="Layer_2">
	<path d="M207.6,45.1h-15.3v15.1h-7.7V24.8h7.7v14.5h15.3V24.8h7.7v35.4h-7.7V45.1z"/>
	<path d="M233.6,60.8c-7.6,0-13.9-3-14.1-11.5h7.7c0.1,3.8,2.3,6,6.5,6c3.1,0,6.7-1.6,6.7-5.1c0-2.7-2.4-3.6-6.4-4.8l-2.5-0.7
		c-5.6-1.6-11.1-3.8-11.1-10.1c0-7.9,7.3-10.5,14-10.5c6.9,0,12.8,2.4,12.9,10.2h-7.7c-0.3-3.2-2.2-5.1-5.8-5.1
		c-2.8,0-5.7,1.5-5.7,4.7c0,2.6,2.3,3.4,7.3,4.9l2.9,0.9c6.1,1.9,9.9,4,9.9,9.9C248.4,57.8,240.6,60.8,233.6,60.8z"/>
	<path d="M252.7,24.8H265c3.9,0,5.4,0.1,7,0.4c4.3,1,7.5,3.8,7.5,8.6c0,4.6-2.9,6.9-7,8c4.8,0.9,8.4,3.3,8.4,8.6
		c0,8-7.9,9.9-14.1,9.9h-13.9V24.8z M265,39.5c3.4,0,6.8-0.7,6.8-4.8c0-3.7-3.2-4.6-6.3-4.6h-5.4v9.4H265z M265.8,54.9
		c3.6,0,7.1-0.8,7.1-5.1c0-4.2-3-5.2-6.7-5.2h-6.1v10.3H265.8z"/>
	<path d="M300.8,60.8c-11.4,0-16.5-7.3-16.5-18.1c0-10.7,5.7-18.7,16.9-18.7c7,0,13.9,3.1,14.1,11.2h-7.9c-0.4-3.5-2.7-5.4-6.2-5.4
		c-6.9,0-9,7.4-9,13.1s2.1,12.2,8.8,12.2c3.5,0,6-1.9,6.6-5.4h8C314.6,57.8,308.1,60.8,300.8,60.8z"/>
	<rect x="42.6" y="0" class="st4" width="85" height="85"/>
	<polygon class="st5" points="70.9,56.7 85.1,42.5 85.1,42.5 70.9,28.3 56.8,14.2 42.6,0 42.6,14.2 42.6,28.3 42.6,42.5 42.6,56.7 
		42.6,70.8 42.6,85 56.8,70.8 	"/>
	<polygon class="st6" points="113.4,14.2 127.6,0 127.6,0 42.6,0 56.8,14.2 	"/>
	<polygon class="st6" points="42.6,0 28.4,14.2 42.6,14.2 	"/>
	<polygon class="st7" points="70.9,28.3 99.3,28.3 113.4,14.2 56.8,14.2 	"/>
	<polygon class="st7" points="42.6,14.2 28.4,14.2 14.3,28.3 42.6,28.3 	"/>
	<polygon class="st8" points="85.1,42.5 85.1,42.5 99.3,28.3 70.9,28.3 	"/>
	<polygon class="st8" points="42.6,28.3 14.3,28.3 0.1,42.5 42.6,42.5 	"/>
	<polygon class="st9" points="42.6,42.5 0.1,42.5 0.1,42.5 14.3,56.7 42.6,56.7 	"/>
	<polygon class="st9" points="99.3,56.7 85.1,42.5 70.9,56.7 	"/>
	<polygon class="st10" points="42.6,56.7 14.3,56.7 28.4,70.8 42.6,70.8 	"/>
	<polygon class="st10" points="56.8,70.8 113.4,70.8 99.3,56.7 70.9,56.7 	"/>
	<polygon class="st11" points="113.4,70.8 56.8,70.8 42.6,85 127.6,85 127.6,85 	"/>
	<polygon class="st11" points="28.4,70.8 42.6,85 42.6,70.8 	"/>
	<polygon class="st12" points="127.6,47.9 127.6,37.1 133,42.5 	"/>
	<polygon class="st13" points="127.6,27.8 127.6,37.1 133,42.5 127.6,47.9 127.6,57.2 142.3,42.5 	"/>
	<polygon class="st14" points="127.6,18.5 127.6,27.8 142.3,42.5 127.6,57.2 127.6,66.5 151.6,42.5 	"/>
	<polygon class="st15" points="127.6,9.3 127.6,18.5 151.6,42.5 127.6,66.5 127.6,75.7 160.9,42.5 	"/>
	<polygon points="127.6,0 127.6,9.3 160.9,42.5 127.6,75.7 127.6,85 170.1,42.6 	"/>
</g>
</svg>
