<?xml version="1.0" encoding="UTF-8"?> <svg xmlns="http://www.w3.org/2000/svg" xmlns:xlink="http://www.w3.org/1999/xlink" width="360px" height="251px" viewBox="0 0 360 251"> <title>Group 21</title> <g id="inKind-6.0-Dark-Mode" stroke="none" stroke-width="1" fill="none" fill-rule="evenodd"> <g id="Group-21" transform="translate(0.000021, -0.000022)"> <path d="M180.192966,231.6816 C230.128053,231.6816 280.062585,231.670565 329.997672,231.698153 C334.731183,231.700911 339.129946,228.196159 340.580708,223.641967 C340.919883,222.577078 340.975766,221.512741 340.975213,220.418609 C340.96968,166.347094 340.980193,112.275579 340.951974,58.2040641 C340.949761,54.0686545 338.963401,50.945165 335.443285,48.7596603 C333.557073,47.5882828 331.540282,47.129222 329.321535,47.1297737 C254.119292,47.1496369 178.917048,47.1474299 103.715358,47.1424641 C101.513764,47.1424641 101.820294,47.4062034 101.814208,45.2411137 C101.799822,40.0910252 101.876178,34.940385 101.768283,29.7930553 C101.736745,28.3077287 102.236378,28.0831641 103.55988,28.0891159 C114.533548,28.1383397 125.507216,28.1168212 136.481438,28.1168212 C200.663535,28.1168212 264.846186,28.0919922 329.028284,28.146616 C337.664798,28.1543406 345.310346,31.1476157 351.362933,37.3659034 C355.569146,41.6867029 358.236622,46.9769374 359.404092,52.953556 C359.861121,55.2946558 360,57.6523083 360,60.0314792 C359.992807,113.551238 360.012726,167.070998 359.969568,220.590757 C359.964589,226.731247 357.997041,232.343155 354.570986,237.459587 C351.507898,242.035297 347.500874,245.509152 342.499011,247.783489 C339.264399,249.25447 335.90806,250.247079 332.291115,250.549993 C330.228953,250.722692 328.179517,250.796627 326.128421,250.797179 C227.82631,250.815387 129.523646,250.823112 31.2209824,250.774557 C27.2432836,250.772902 23.3640729,249.968994 19.5744973,248.466563 C15.360538,246.795846 11.7596389,244.333912 8.70595696,241.138694 C6.24652296,238.565305 4.30110791,235.570927 2.92448883,232.202457 C1.99383237,229.925361 1.38187871,227.589227 0.83355496,225.226609 C0.518725277,223.86929 0.324515754,222.450726 0.32396245,221.059198 C0.297403883,181.425476 0.310129863,141.791755 0.270287081,102.157482 C0.270287081,100.833268 0.68582293,100.590495 1.89423774,100.604289 C7.19599174,100.66443 12.4988524,100.628566 17.8011597,100.630773 C19.5645379,100.631325 19.5756039,100.64236 19.5756039,102.409634 C19.5761572,141.951212 19.5966295,181.493342 19.5523652,221.035472 C19.5462789,226.570686 24.9515006,231.703119 30.2493815,231.699808 C80.230392,231.66891 130.211402,231.6816 180.192966,231.6816" id="Fill-1" fill="#E5B840"></path> <path d="M275.021327,153.675471 C275.021327,152.250837 275.005834,150.826756 275.027966,149.402674 C275.039032,148.645665 274.850909,147.960936 274.491262,147.300485 C272.810326,144.21617 270.485898,141.866794 267.105214,140.639137 C262.515008,138.972834 258.14557,139.338097 254.109222,142.113428 C250.513855,144.585846 249.226872,148.354338 248.927534,152.460505 C248.651989,156.243894 249.273349,159.934037 251.759895,162.971452 C255.032685,166.968923 259.417615,168.129817 264.401773,167.395982 C267.621446,166.922024 270.345912,165.386487 272.474471,163.012834 C274.315312,160.961406 275.512107,158.53975 275.036266,155.602754 C274.935011,154.975407 275.02188,154.318266 275.021327,153.675471 M274.944418,130.104464 L274.944418,128.2776 C274.944418,117.796447 274.964337,107.314743 274.917306,96.83359 C274.911773,95.6456598 275.168506,95.2671553 276.426164,95.2837092 C281.81866,95.3592985 287.212816,95.3388836 292.605865,95.2963984 C293.62837,95.2886738 294.037261,95.4740638 294.035606,96.6338544 C294.001296,124.491452 294.004063,152.349602 294.028408,180.207199 C294.028961,181.183255 293.853564,181.566726 292.75913,181.554035 C287.458483,181.494997 282.156175,181.48948 276.855528,181.556794 C275.686398,181.571692 275.456777,181.154012 275.518193,180.127747 C275.595102,178.860915 275.537006,177.586911 275.537006,176.033167 C273.504722,177.861686 271.552667,179.326045 269.359926,180.475353 C264.889233,182.817556 260.089879,183.432764 255.156072,183.185577 C251.027874,182.979221 247.046856,182.063306 243.380667,180.042224 C239.386922,177.840719 236.155077,174.839167 233.809623,170.929426 C228.751323,162.499149 228.334685,153.393524 230.531853,144.16927 C232.212789,137.111762 236.21262,131.367985 242.561778,127.526661 C246.11122,125.378675 250.059593,124.310476 254.167318,123.95349 C258.612559,123.567813 263.011875,124.018046 267.228047,125.50889 C269.957493,126.473359 272.453445,127.94765 274.944418,130.104464" id="Fill-4" fill="#FFFFFF"></path> <path d="M86.4877011,147.672975 C91.5565143,140.986247 96.6457998,134.314416 101.678095,127.600099 C102.775296,126.13574 103.904588,125.364385 105.926359,125.426733 C111.960134,125.612123 118.002761,125.490737 124.041515,125.500669 C124.334766,125.50122 124.737571,125.3219 124.906329,125.676127 C125.066233,126.012698 124.738678,126.251057 124.546128,126.502657 C121.398385,130.623169 118.264474,134.754165 115.105111,138.865849 C111.863859,143.084574 108.622054,147.30385 105.323258,151.477883 C104.602857,152.389383 104.698025,152.96652 105.41234,153.831673 C110.320142,159.772979 115.162654,165.767806 120.040024,171.733941 C122.509418,174.755356 125.006477,177.753597 127.490809,180.762321 C127.636328,180.938331 127.783507,181.113789 127.708257,181.384701 C127.344737,181.647889 126.915927,181.523192 126.516442,181.523744 C120.108634,181.53202 113.700826,181.512709 107.293019,181.549125 C106.417139,181.554642 105.893714,181.277109 105.343177,180.593484 C101.401997,175.694996 97.4005057,170.845062 93.4261268,165.973059 C91.3114009,163.380358 89.2165939,160.771657 87.1040812,158.177853 C86.8877395,157.912459 86.7527334,157.539472 86.3172836,157.449536 C85.988068,157.9097 86.1518459,158.423936 86.1512926,158.897895 C86.1385666,165.839534 86.1424397,172.781174 86.1418864,179.722261 C86.1418864,181.52871 86.1418864,181.529261 84.3967672,181.529261 C79.1874149,181.529813 73.9780626,181.529813 68.7692636,181.529261 C66.9638343,181.529261 66.9627277,181.52871 66.9627277,179.782403 C66.9621744,155.142093 66.9627277,130.502335 66.9627277,105.862577 C66.9627277,102.782676 67.0009056,99.7016717 66.9411488,96.6228745 C66.9212299,95.5966087 67.2261001,95.2848667 68.2690772,95.2936948 C73.754528,95.3422493 79.2410853,95.3510774 84.7259828,95.2889722 C85.9238848,95.2760386 86.1662318,95.6876484 86.1640185,96.7917117 C86.1324802,113.203136 86.1418864,129.61456 86.1418864,146.025984 L86.1418864,147.618903 C86.2575268,147.637662 86.372614,147.655319 86.4877011,147.672975" id="Fill-6" fill="#FFFFFF"></path> <path d="M46.6952763,34.6888947 C53.1224496,28.1831422 60.7419919,26.2404101 69.3325818,27.3819928 C73.8381321,27.9806479 77.8075313,29.6910908 80.9292696,33.0981828 C83.4102824,35.8056484 84.6906267,39.0885953 85.5925114,42.5773471 C86.2431963,45.094457 86.2863539,47.6468793 86.2852473,50.2136472 C86.2824808,61.2917998 86.2686482,72.3705042 86.3090954,83.4492086 C86.3134658,84.5676175 86.0572863,84.9345351 84.8754301,84.921293 C79.3905326,84.8572893 73.9045285,84.8644621 68.4190778,84.9163272 C67.3074911,84.9273623 67.0336058,84.5769974 67.037479,83.5027289 C67.0756569,73.0684752 67.0596111,62.6331181 67.061271,52.1983127 C67.061271,50.5320102 66.7088167,48.9192281 66.1627062,47.3676908 C64.9808499,44.0130157 61.5310027,42.8256372 58.1923694,43.0772379 C53.7122711,43.4154642 50.3769577,45.6914568 47.8610868,49.3004913 C47.3940986,49.9708746 47.2718186,50.7013993 47.2729252,51.5102733 C47.2895243,62.1293651 47.2646256,72.7484569 47.3111031,83.3669969 C47.3166361,84.5505131 47.0643297,84.9406044 45.8044577,84.9245539 C40.3660377,84.85122 34.9259579,84.8650139 29.4864313,84.9163272 C28.4058296,84.9262588 28.0771673,84.6487256 28.0793695,83.5341789 C28.1142387,65.744469 28.1125787,47.9542072 28.0827004,30.1644972 C28.0810404,29.1111955 28.3106614,28.7492437 29.4443802,28.7630376 C34.7450276,28.8264895 40.0467816,28.8204202 45.347429,28.7680034 C46.4534827,28.7569682 46.7871247,29.0974016 46.7174085,30.1760841 C46.6266667,31.5896824 46.6952763,33.0132124 46.6952763,34.6888947" id="Fill-8" fill="#FFFFFF"></path> <path d="M181.928513,131.257192 C182.464111,130.80089 182.828185,130.54322 183.129182,130.22596 C186.586775,126.574992 190.955106,124.748681 195.813664,123.886286 C200.885244,122.985269 205.860549,123.468607 210.570268,125.447204 C215.261728,127.418075 218.195344,131.156221 219.949869,135.880354 C221.05039,138.844937 221.545596,141.902768 221.550576,145.041155 C221.569388,156.581127 221.53619,168.121651 221.598252,179.66052 C221.605353,180.982527 221.190929,181.223644 219.983067,181.208747 C214.727791,181.147502 209.471407,181.138122 204.216131,181.212609 C202.880456,181.23192 202.427301,180.983078 202.437814,179.510442 C202.51251,169.25882 202.468799,159.006094 202.476545,148.753368 C202.478205,146.801256 202.174994,144.955081 201.288602,143.166841 C200.143817,140.856639 198.216108,139.768577 195.818644,139.54346 C189.951414,138.991153 185.732475,141.604268 182.799413,146.336678 C182.451385,146.898365 182.548766,147.491502 182.548766,148.077467 C182.54102,158.605519 182.523868,169.133571 182.570345,179.662175 C182.575878,180.847347 182.324125,181.231369 181.0637,181.214807 C175.624173,181.139777 170.182987,181.155778 164.742907,181.205988 C163.727042,181.215919 163.427705,180.977561 163.429906,179.923707 C163.464223,162.085443 163.462009,144.247178 163.433791,126.408914 C163.432131,125.456032 163.666178,125.172981 164.647739,125.181809 C169.995417,125.230915 175.344202,125.225949 180.69188,125.185671 C181.630836,125.178498 182.003209,125.399201 181.950092,126.400086 C181.868203,127.938381 181.928513,129.484401 181.928513,131.257192" id="Fill-10" fill="#FFFFFF"></path> <path d="M136.051078,153.444892 C136.051078,144.436375 136.069337,135.427859 136.025626,126.419894 C136.020646,125.398594 136.25414,125.124923 137.300437,125.135641 C142.830706,125.194444 148.362634,125.189478 153.892902,125.13982 C154.884975,125.130992 155.199252,125.316934 155.197039,126.391203 C155.157754,144.361888 155.157201,162.332574 155.198154,180.303812 C155.200358,181.426635 154.797553,181.539745 153.852511,181.532572 C148.368167,181.493397 142.88327,181.484569 137.398925,181.5384 C136.336029,181.548573 136.01788,181.297524 136.023881,180.194012 C136.072104,171.277639 136.051078,162.361266 136.051078,153.444892" id="Fill-12" fill="#FFFFFF"></path> <path d="M19.8778736,56.73838 C19.8778736,65.6547535 19.8596146,74.5711269 19.9022933,83.4875004 C19.9071987,84.5099039 19.6637452,84.8111625 18.6141285,84.8012309 C13.0844134,84.7488141 7.55303848,84.7466071 2.02221684,84.8020294 C0.906203708,84.8128178 0.658323747,84.45528 0.66053696,83.3953572 C0.691521956,65.6542017 0.694288473,47.913598 0.6566462,30.1729943 C0.653897319,29.0137554 0.975919947,28.7202213 2.11517182,28.7323599 C7.59951598,28.790846 13.0849667,28.7941566 18.5687576,28.7298221 C19.7091161,28.7169108 19.9038789,29.0998293 19.8994525,30.1271986 C19.8618278,38.9972245 19.8778736,47.8678023 19.8778736,56.73838" id="Fill-14" fill="#FFFFFF"></path> <path d="M20.4606131,10.7130644 C20.4617195,16.6234723 15.94123,21.3956081 10.3318392,21.4055571 C4.57637639,21.4160231 0.00442968699,16.6985111 0,10.7450662 C-0.00442316878,4.76017122 4.50057381,0.0332794254 10.2388843,0 C15.9821744,-0.0329312686 20.4595063,4.65975167 20.4606131,10.7130644" id="Fill-16" fill="#FFFFFF"></path> <path d="M155.777122,108.134376 C155.853478,112.478349 152.189502,117.183171 146.468344,117.678096 C141.105173,118.142674 136.771701,114.711305 135.73979,109.651153 C134.990063,105.975907 135.634109,102.686339 138.085243,99.7576198 C141.22192,96.008991 146.785387,95.1747362 150.884813,97.8347509 C154.273243,100.032946 155.767716,103.163608 155.777122,108.134376" id="Fill-19" fill="#FFFFFF"></path> </g> </g> </svg> 