<svg id="Layer_1" data-name="Layer 1" xmlns="http://www.w3.org/2000/svg" viewBox="0 0 157.91 79.54"><defs><style>.cls-1{fill:#255f92;}.cls-2{fill:#f47d48;}</style></defs><path class="cls-1" d="M31.46,14.17V43.9s11.73,7.16,22.15,10.65V14.17Z"/><path class="cls-2" d="M31.42,52.36V77.54H53.57V60.77a164.94,164.94,0,0,1-22.15-8.36"/><path class="cls-1" d="M75.64,30,55.75,30V14.17h62.19v4.88s2.84-5.08,15-6c0,0,12.19-1,21.74,6.81V36.63s-7.21-7.41-14.53-8.13c0,0-6.2-.5-7.32,3.05,0,0-1.72,3.36,5.39,7.12,0,0,12.7,6.2,15.35,10.36,0,0,2.84,2.11,3.55,9.23,0,0-10.32,10.77-45,8.87L112,57.06s9,5.49,14.23,6c0,0,9,1.42,9.45-3.76,0,0,1.52-2.65-5.89-6.1,0,0-8.74-4.37-12.5-7.93,0,0-3.56-3.86-4.58-7.62a33.47,33.47,0,0,1-.55-7.79H97.89L98,65.71s-15.34-2.2-22.31-4.23l0-31.5"/><path class="cls-2" d="M75.71,77.67H98V69.16s-16.69-1.42-22.33-3Z"/><path class="cls-2" d="M112,69.72v4.16s8.39,4.19,14.25,4.35c0,0,7.63,1.37,14.1,0a20.8,20.8,0,0,0,10.67-5s6.05-3,6.15-14.27C157.16,59,147,69.55,112,69.72Z"/><path class="cls-2" d="M31.42,52.41C11.19,42.89-1,30.89,1,20.31,3.54,6.47,24.77-.07,53.72.78,30.42.17,13.65,5.64,11,17.08,9.1,25.44,17.14,35.19,31.46,43.9Z"/></svg>