<svg xmlns="http://www.w3.org/2000/svg" width="181.703" height="53.819" viewBox="0 0 181.703 53.819">
  <g id="Group_12739" data-name="Group 12739" transform="translate(-64 -182)">
    <g id="Group_12732" data-name="Group 12732">
      <g id="Group_9994" data-name="Group 9994" transform="translate(12722 6316)">
        <path id="Path_11070" data-name="Path 11070" d="M0,.148A16.01,16.01,0,0,1,1.856,0,4.668,4.668,0,0,1,5.308,1.225,4.668,4.668,0,0,1,6.533,4.677V52.705H0Z" transform="translate(-12658 -6134)" fill="#FFFFFF"/>
        <path id="Path_11071" data-name="Path 11071" d="M27.806,36.845a11.6,11.6,0,0,1,1.262-.074,5.234,5.234,0,0,1,3.266.965,3.97,3.97,0,0,1,1.485,2.821A14.343,14.343,0,0,1,38.9,37.328a18.035,18.035,0,0,1,6.5-1.151,12.588,12.588,0,0,1,7.386,2,9.713,9.713,0,0,1,3.823,5.79,30.865,30.865,0,0,1,.52,6.83V71.884h-6.31V51.024a20.188,20.188,0,0,0-.445-5.122,4.866,4.866,0,0,0-2.3-3.044,9.557,9.557,0,0,0-4.677-.965,14.425,14.425,0,0,0-4.788.742A8.38,8.38,0,0,0,35.3,44.6a3.667,3.667,0,0,0-1.188,2.561v24.72h-6.31Z" transform="translate(-12672.741 -6153.179)" fill="#FFFFFF"/>
        <path id="Path_11072" data-name="Path 11072" d="M123.6,45.161a10.24,10.24,0,0,0-3.86-2.784,12.27,12.27,0,0,0-4.974-1.076,8.813,8.813,0,0,0-4.825,1.151,3.921,3.921,0,0,0-1.151,5.419A5.138,5.138,0,0,0,110.9,49.5a24.883,24.883,0,0,0,4.6,1.448,25.483,25.483,0,0,1,6.718,2.45,9.217,9.217,0,0,1,3.563,3.526,10.34,10.34,0,0,1,1.151,5.011,9.681,9.681,0,0,1-3.786,7.98,15.281,15.281,0,0,1-9.8,3.007,20.341,20.341,0,0,1-8.166-1.41q-3.341-1.336-3.341-3.118a4.552,4.552,0,0,1,.371-1.67,19.2,19.2,0,0,1,1.485-2.71,15.931,15.931,0,0,0,4.677,2.784,14.345,14.345,0,0,0,5.2,1,8.733,8.733,0,0,0,5.271-1.373,4.638,4.638,0,0,0,1.856-3.972,4.561,4.561,0,0,0-1.633-3.675q-1.634-1.373-6.087-2.338-5.865-1.262-8.426-3.749a8.74,8.74,0,0,1-2.561-6.57,8.637,8.637,0,0,1,3.563-7.238,14.54,14.54,0,0,1,9.057-2.71,22.074,22.074,0,0,1,5.048.557,13.573,13.573,0,0,1,3.86,1.448q2.523,1.411,2.524,2.9a8.661,8.661,0,0,1-1.41,4.009Z" transform="translate(-12711.993 -6153.18)" fill="#FFFFFF"/>
        <path id="Path_11073" data-name="Path 11073" d="M166.749,37.042a12.246,12.246,0,0,1,1.336-.074q4.972,0,4.974,5.048v17.3a19.057,19.057,0,0,0,.445,4.825,4.148,4.148,0,0,0,1.633,2.376A7.055,7.055,0,0,0,177.4,67.59a12.3,12.3,0,0,0,3.155.334,11.526,11.526,0,0,0,4.491-.854,10.123,10.123,0,0,0,3.3-2.116,3.536,3.536,0,0,0,1.262-2.376V37.042a12.245,12.245,0,0,1,1.336-.074q4.973,0,4.974,5.048V72.3h-6.31V69.038q-3.786,4.381-11.061,4.38a16.819,16.819,0,0,1-5.234-.742,8.78,8.78,0,0,1-3.712-2.264,9.427,9.427,0,0,1-2.153-3.934,27.236,27.236,0,0,1-.705-7.164Z" transform="translate(-12746.402 -6153.599)" fill="#FFFFFF"/>
        <path id="Path_11074" data-name="Path 11074" d="M242.113,7.069a12.246,12.246,0,0,1,1.336-.074q4.972,0,4.974,5.048V49.435a8.808,8.808,0,0,0,.3,2.821,1.924,1.924,0,0,0,1.039,1.076,5.678,5.678,0,0,0,2.228.334v2.672a13.24,13.24,0,0,1-4.083.52,6.963,6.963,0,0,1-3.266-.668,4.182,4.182,0,0,1-1.893-2.116,13.28,13.28,0,0,1-.631-4.862Z" transform="translate(-12786.357 -6137.708)" fill="#FFFFFF"/>
        <path id="Path_11075" data-name="Path 11075" d="M275.19,55.628q.223,5.79,3.007,8.908t7.98,3.118a12.263,12.263,0,0,0,9.8-4.231,13.722,13.722,0,0,1,1.485,2.264,4.35,4.35,0,0,1,.594,1.819,3.4,3.4,0,0,1-1.633,2.524Q292.412,73,285.583,73q-8.167,0-12.546-4.825t-4.38-14.031a21.041,21.041,0,0,1,2.041-9.651,14.667,14.667,0,0,1,5.716-6.162,15.928,15.928,0,0,1,8.2-2.153,14.881,14.881,0,0,1,7.72,1.893,12.24,12.24,0,0,1,4.862,5.382,18.359,18.359,0,0,1,1.67,8.017,26.962,26.962,0,0,1-.223,4.157Zm17.371-4.751q0-9.5-8.24-9.5a8.434,8.434,0,0,0-6.384,2.561,10.724,10.724,0,0,0-2.747,6.941Z" transform="translate(-12800.43 -6153.18)" fill="#FFFFFF"/>
        <path id="Path_11076" data-name="Path 11076" d="M345.332,15.079a12.246,12.246,0,0,1,1.336-.074q4.972,0,4.974,5.048v5.716H362.7v5.345H351.642V50.267q0,6.088,4.825,6.087a6.31,6.31,0,0,0,2.487-.52,9.881,9.881,0,0,0,2.265-1.336,7.546,7.546,0,0,0,1.41-1.336q2.152,2.672,2.153,4.157a2.982,2.982,0,0,1-1.41,2.153,10.042,10.042,0,0,1-3.452,1.707,15.772,15.772,0,0,1-4.417.594q-7.424,0-9.428-5.568a20.3,20.3,0,0,1-.742-6.384Z" transform="translate(-12841.079 -6141.955)" fill="#FFFFFF"/>
      </g>
    </g>
  </g>
</svg>
