<svg id="Art" xmlns="http://www.w3.org/2000/svg" width="182" height="38" viewBox="0 0 432 89.74"><defs><style>.cls-1{fill:#006963;}.cls-2{fill:#15191e;}</style></defs><path class="cls-1" d="M29.5,16.13c-4.38,5.04-10.73,7.93-17.41,7.93H0V1H42.65l-13.15,15.13ZM85.31,1H42.65V24.06h12.09c6.68,0,13.03-2.89,17.41-7.93L85.31,1Zm29.5,7.93c-4.38-5.04-10.73-7.93-17.41-7.93h-12.09V24.06h42.65l-13.15-15.13ZM42.65,29.01H0v23.06H12.09c6.68,0,13.03-2.89,17.41-7.93l13.15-15.13Zm42.65,0H42.65v23.06h12.09c6.68,0,13.03-2.89,17.41-7.93l13.15-15.13Zm42.65,0h-42.65v23.06h12.09c6.68,0,13.03-2.89,17.41-7.93l13.15-15.13ZM42.65,57.01H0v23.06H12.09c6.68,0,13.03-2.89,17.41-7.93l13.15-15.13Zm42.65,0H42.65v23.06h12.09c6.68,0,13.03-2.89,17.41-7.93l13.15-15.13Z"/><g><rect class="cls-2" x="329.39" y="1.1" width="6.85" height="6.48"/><path class="cls-2" d="M202.79,61.63c0-5.09-3.64-8.36-11.1-8.36s-11.49,4.28-11.69,9.29h6.36c0-2.82,1.46-4.62,5.26-4.62,3.45,0,4.92,1,4.81,3.29-.11,2.38-3.46,2.67-9.19,3.66-6.22,1.08-8.32,3.82-8.32,7.94,0,4.63,3.48,7.51,8.68,7.51s7.83-2.28,8.97-5.66h.3v.91c0,2.38,2.16,4.24,4.54,4.24h4.11v-5.09h-2.73v-13.12Zm-6.36,5.93c0,4.85-2.44,8.14-6.99,8.14-2.28,0-3.91-1.16-3.91-3.39s1.19-3.18,4.06-3.89l2.72-.66c1.54-.35,2.83-.56,4.12-1.57v1.36Z"/><rect class="cls-2" x="149.99" y="1.1" width="7.16" height="35.27"/><path class="cls-2" d="M220.4,36.89c6.92,0,11.64-3.49,12.7-9.44h-6.68c-.77,2.64-2.94,4.25-6.02,4.25-3.53,0-5.77-2.57-6.18-6.98h18.97c.03-.45,.05-.91,.05-1.37,0-5.75-2.32-10.67-7.46-12.63,0,0,0,0,0,0-.19-.07-2.29-.91-5.36-.91-8.1,0-12.87,4.98-12.87,13.54s4.77,13.54,12.87,13.54Zm0-21.95c3.48,0,5.39,2.42,6.01,5.77h-12.02c.62-3.35,2.53-5.77,6.01-5.77Z"/><path class="cls-2" d="M420.03,18.16c0-5.09-3.64-8.36-11.1-8.36s-11.49,4.28-11.69,9.29h6.36c0-2.82,1.46-4.62,5.26-4.62,3.45,0,4.92,1,4.81,3.29-.11,2.38-3.46,2.67-9.19,3.66-6.22,1.08-8.32,3.82-8.32,7.94,0,4.63,3.48,7.51,8.68,7.51s7.83-2.28,8.97-5.66h.3v.91c0,2.38,2.16,4.24,4.54,4.24h4.11v-5.09h-2.73v-13.12Zm-6.36,5.93c0,4.85-2.44,8.14-6.99,8.14-2.28,0-3.91-1.16-3.91-3.39s1.19-3.18,4.06-3.89l2.72-.66c1.54-.35,2.83-.56,4.12-1.57v1.36Z"/><path class="cls-2" d="M169.12,21.78c0-2.05,.41-3.66,1.59-4.82,1.18-1.16,2.62-1.74,4.31-1.74,3.42,0,4.95,1.65,4.95,4.95v16.21h6.85V19.1c0-3-.85-5.31-2.56-6.94-1.65-1.58-3.9-2.36-6.73-2.36-3.86,0-7.62,2.4-8.4,6.55h-.3l-.18-6.04h-6.37v26.05h6.85v-14.59Z"/><path class="cls-2" d="M164.25,44.61h-14.27v35.27h7.16v-11.2h7.06c8.92,0,14.16-4.46,14.16-12.04s-5.24-12.04-14.11-12.04Zm.31,18.52h-7.42v-12.97h7.42c4.05,0,6.38,2.44,6.38,6.48s-2.39,6.49-6.38,6.49Z"/><rect class="cls-2" x="425.15" y="1.1" width="6.85" height="35.27"/><path class="cls-2" d="M198.96,0h-.53l-4.62,5.34c-1.08,1.25-1.64,2.84-1.64,4.49v.49h-3.75v4.72h3.77v13.11c0,5.29,3.24,8.73,8.79,8.73,1.97,0,4.1-.47,5.65-1.2v-5.08c-.93,.52-2.23,.83-3.48,.83-2.59,0-4.18-1.4-4.18-3.84V15.04h7.66v-4.72h-7.67V0Z"/><path class="cls-2" d="M275.14,55.43l-2.92,3.36h-.3l-.16-4.95h-6.2v26.05h6.84l-.17-20.43h9.99v-6.14h-2.44c-1.78,0-3.47,.77-4.63,2.11Z"/><path class="cls-2" d="M306.15,18.16c0-5.09-3.64-8.36-11.1-8.36s-11.49,4.28-11.69,9.29h6.36c0-2.82,1.46-4.62,5.26-4.62,3.45,0,4.92,1,4.81,3.29-.11,2.38-3.46,2.67-9.19,3.66-6.22,1.08-8.32,3.82-8.32,7.94,0,4.63,3.48,7.51,8.68,7.51s7.83-2.28,8.97-5.66h.3v.91c0,2.38,2.16,4.24,4.54,4.24h4.11v-5.09h-2.73v-13.12Zm-6.36,5.93c0,4.85-2.44,8.14-6.99,8.14-2.28,0-3.91-1.16-3.91-3.39s1.19-3.18,4.06-3.89l2.72-.66c1.54-.35,2.83-.56,4.12-1.57v1.36Z"/><path class="cls-2" d="M352.63,9.8c-8.51,0-13.6,5.03-13.6,13.54s5.09,13.54,13.6,13.54,13.54-5.03,13.54-13.54-5.03-13.54-13.54-13.54Zm0,21.64c-4.15,0-6.59-3.01-6.59-8.09s2.44-8.15,6.59-8.15,6.59,3.06,6.59,8.15-2.44,8.09-6.59,8.09Z"/><path class="cls-2" d="M318.46,0h-.53l-4.62,5.34c-1.08,1.25-1.64,2.84-1.64,4.49v.49h-3.75v4.72h3.77v13.11c0,5.29,3.24,8.73,8.79,8.73,1.97,0,4.1-.47,5.65-1.2v-5.08c-.93,.52-2.23,.83-3.48,.83-2.59,0-4.18-1.4-4.18-3.84V15.04h7.66v-4.72h-7.67V0Z"/><rect class="cls-2" x="329.39" y="10.32" width="6.85" height="26.05"/><path class="cls-2" d="M384.26,9.8c-3.86,0-7.62,2.4-8.4,6.55h-.3l-.18-6.04h-6.37v26.05h6.85v-14.59c0-2.05,.41-3.66,1.59-4.82,1.18-1.16,2.62-1.74,4.31-1.74,3.42,0,4.95,1.65,4.95,4.95v16.21h6.85V19.1c0-3-.85-5.31-2.56-6.94-1.65-1.58-3.9-2.36-6.73-2.36Z"/><path class="cls-2" d="M242.67,15.94h9.99v-6.14h-2.44c-1.78,0-3.47,.77-4.63,2.11l-2.92,3.36h-.3l-.16-4.95h-6.2v26.05h6.84l-.17-20.43Z"/><path class="cls-2" d="M222.89,53.19c-3.74,0-6.62,2.04-7.88,5.05h-.3l-.15-4.44h-6.4v35.94h6.84v-14.58h.14c1.34,3.2,4.39,5.29,7.75,5.29,3.64,0,6.54-1.25,8.7-3.74,2.13-2.49,3.19-5.79,3.19-9.89s-1.06-7.45-3.19-9.95c-2.16-2.46-5.06-3.69-8.7-3.69Zm3.21,19.74c-1.19,1.51-2.81,2.27-4.86,2.27s-3.68-.72-4.81-2.17c-1.19-1.41-1.78-3.48-1.78-6.21s.58-4.76,1.73-6.21c1.16-1.45,2.77-2.17,4.86-2.17s3.74,.7,4.88,2.1c1.14,1.4,1.71,3.42,1.71,6.08s-.58,4.83-1.73,6.31Z"/><path class="cls-2" d="M255.19,54.23s0,0,0,0c-.19-.07-2.29-.91-5.36-.91-8.1,0-12.87,4.98-12.87,13.54s4.77,13.54,12.87,13.54c6.92,0,11.64-3.49,12.7-9.44h-6.68c-.77,2.64-2.94,4.25-6.02,4.25-3.53,0-5.77-2.57-6.18-6.98h18.97c.03-.45,.05-.91,.05-1.37,0-5.75-2.32-10.67-7.46-12.63Zm-11.32,9.99c.62-3.35,2.53-5.77,6.01-5.77s5.39,2.42,6.01,5.77h-12.02Z"/><path class="cls-2" d="M272.88,20.16v16.21h6.85V19.1c0-3-.85-5.31-2.56-6.94-1.65-1.58-3.9-2.36-6.73-2.36-3.86,0-7.62,2.4-8.4,6.55h-.3l-.18-6.04h-6.37v26.05h6.85v-14.59c0-2.05,.41-3.66,1.59-4.82,1.18-1.16,2.62-1.74,4.31-1.74,3.42,0,4.95,1.65,4.95,4.95Z"/></g><path class="cls-1" d="M76,75.57h3.57v.58h-1.48v3.97h-.63v-3.97h-1.46v-.58Zm9.32,0v4.54h-.63v-4.06l-.37,1.09-1.2,2.97h-.62l-1.2-2.97-.37-1.12v4.08h-.62v-4.54h.98l1.21,3.02,.3,.87,.3-.87,1.21-3.02h.98Z"/></svg>
