<svg width="77" height="30" viewBox="0 0 77 30" fill="none" xmlns="http://www.w3.org/2000/svg">
<path d="M26.2387 9.18238C25.6181 7.52492 24.8994 6.19895 23.0049 4.30944C20.4897 1.72381 16.3412 0.0332031 14.512 0.0332031H14.4793C14.5446 0.0663523 14.5773 0.0663563 14.6753 0.0995055C14.806 0.132655 14.904 0.165796 15.2633 0.298392C17.7458 1.19342 20.1303 3.18237 21.7309 5.50282C23.7235 8.41994 24.0501 10.8398 24.0828 13.6244C24.1155 16.5083 23.2988 19.5581 21.8616 21.7459C19.673 25.094 16.0799 26.9835 12.0621 26.9172C10.4942 26.884 8.20764 26.5857 6.44373 25.2266C4.54917 23.8012 3.34057 22.1105 2.88326 20.221C2.45861 18.5304 2.45861 16.7404 2.88326 15.4476C3.37323 13.989 4.32051 12.8951 5.62711 12.2652C6.99904 11.6354 8.89361 11.6023 10.2655 12.199C13.0094 13.3923 12.7481 15.9117 12.4214 16.6741C12.1274 17.4365 11.3761 18.1989 10.3635 18.1989C9.74289 18.1989 9.15493 17.9669 8.79561 17.5691C8.3383 17.0719 8.14231 16.5083 8.07698 16.1769C8.04431 16.1106 8.04432 16.0111 8.01165 15.978L7.97899 15.8785L7.88099 16.0111C7.88099 16.0443 7.58701 16.4752 7.48901 16.8398C7.35836 17.3371 7.35835 17.8343 7.45635 18.2984C7.685 19.1603 8.30564 19.8233 9.28559 20.2542C10.6902 20.8509 12.3561 20.4862 13.4014 19.8896C14.3486 19.326 15.0999 18.4973 15.5246 17.536C16.0472 16.3426 16.1779 14.8509 15.9166 13.3592C15.6226 11.768 14.0873 10.1437 12.8461 9.41441C10.8862 8.28734 9.48157 8.15475 7.42368 8.3205C5.69244 8.45309 4.18985 9.14923 2.68726 10.4752C1.47866 11.5691 0.466052 13.3923 0.204732 15.0498C-0.187247 17.4697 -0.0239232 19.1603 0.760035 21.315C2.39328 25.7238 5.79044 27.8122 6.80305 28.3426C8.40363 29.1713 10.6248 29.9669 13.238 29.9669C14.6753 29.9669 16.2106 29.7349 17.8765 29.1382C21.1103 27.978 23.3315 26.1216 25.1934 23.1382C26.1734 21.5802 26.8593 19.3923 27.088 16.442C27.382 13.757 26.9247 11.0387 26.2387 9.18238Z" fill="#D72A25"/>
<path d="M32.9676 0H32.6083V0.364643V29.6685V30H32.9676H37.704H38.0307V29.6685V0.364643V0H37.704H32.9676Z" fill="white"/>
<path d="M43.7797 0H43.4204V0.364643V29.6685V30H43.7797H48.5161H48.8428V29.6685V0.364643V0H48.5161H43.7797Z" fill="white"/>
<path d="M76.6733 0H71.9042H71.5776V0.364643V19.1602L58.5769 0.165746L58.4789 0H58.3156H54.5918H54.2651V0.364643V29.6685V30H54.5918H59.3282H59.6875V29.6685V10.8729L72.6555 29.8343L72.7535 30H72.9495H76.6733H76.9999V29.6685V0.364643V0H76.6733Z" fill="white"/>
</svg>
