<svg version="1.2" baseProfile="tiny-ps" xmlns="http://www.w3.org/2000/svg" viewBox="0 0 300 60" width="300" height="60"><title>IHG_Secondary_Horizontal_Logo_Black_RGB_4-svg</title><defs><clipPath id="cp1"><path d="M66.98 10.33h34.49v39.39H66.98V10.33z"/></clipPath><clipPath id="cp2"><path d="M229.15 10.79h13.47v14.56h-13.47V10.79z"/></clipPath></defs><style>tspan{white-space:pre}.shp0{fill:#000}</style><g id="Header-Phase-1"><g id="Header_Large_1008px_alt"><g id="Primary"><g id="IHG-Logo-Secondary-Horizontal"><g id="Group-38"><path id="Fill-1" class="shp0" d="M54.85 10.97H49.1v16.76H28.31V10.97h-5.7v38.11h5.7V31.67H49.1v17.41h5.75V10.97z"/><path id="Fill-2" class="shp0" d="M0 49.08h5.7V10.97H0v38.11z"/><g id="Group-37"><g id="Group-5"><g id="Clip-Path: Clip-Path: Fill-3" clip-path="url(#cp1)"><g id="Clip-Path: Fill-3"><path id="Fill-3" fill-rule="evenodd" class="shp0" d="M95.71 30.74v14.77c-1.61 1.1-4.31 1.96-7.37 1.96-8.92 0-15.02-7.89-15.02-17.85 0-9.38 5.35-17.1 14.28-17.1 6.16 0 9.67 2.88 12.26 6.1h.29V12c-1.84-.46-6.97-1.67-12.32-1.67-12.96 0-20.85 9.45-20.85 19.81 0 11.34 8.53 19.58 20.96 19.58 6.16 0 10.94-2.36 13.53-3.11V30.74h-5.76z"/></g></g></g><path id="Fill-6" fill-rule="evenodd" class="shp0" d="M105.19 11.36c1.3 0 2.29 1.01 2.29 2.28 0 1.29-1.01 2.28-2.29 2.28-1.26 0-2.28-.98-2.28-2.27 0-1.27 1.01-2.29 2.28-2.29zm0 .37c-1.09 0-1.87.8-1.87 1.92 0 1.13.82 1.9 1.87 1.9 1.07 0 1.88-.79 1.88-1.91 0-1.12-.78-1.91-1.88-1.91zm-.78.76h.8c.52 0 .86.21.86.68v.01c0 .34-.2.52-.46.61l.59.95h-.51l-.55-.87h-.23v.87h-.5v-2.25zm.78 1.04c.26 0 .4-.12.4-.33v-.01c0-.24-.15-.32-.4-.32h-.28v.66h.28z"/><path id="Fill-8" class="shp0" d="M122.02 11h1.85v6.42h10.89V11h1.85v14.21h-1.85v-6.3h-10.89v6.3h-1.85V11z"/><path id="Fill-10" fill-rule="evenodd" class="shp0" d="M140.55 18.2v-.16c0-4.04 3.67-7.22 9.34-7.22 5.66 0 9.34 3.18 9.34 7.18v.16c0 4.01-3.68 7.23-9.28 7.23-5.73 0-9.4-3.22-9.4-7.19zm16.75-.06v-.16c0-3.16-2.72-5.75-7.41-5.75-4.73 0-7.42 2.43-7.42 5.79v.16c0 3.41 3.06 5.76 7.48 5.76 4.53 0 7.35-2.39 7.35-5.8z"/><path id="Fill-12" class="shp0" d="M166.62 12.43h-5.84V11h13.53v1.43h-5.84v12.78h-1.85V12.43z"/><path id="Fill-14" class="shp0" d="M177.81 11h11.96v1.43h-10.11v4.79h8.52v1.43h-8.52v5.13h10.59v1.43h-12.44V11z"/><path id="Fill-16" class="shp0" d="M193.91 11h1.84v12.78h9.17v1.43h-11.01V11z"/><path id="Fill-18" fill-rule="evenodd" class="shp0" d="M207.16 20.88h1.81c.3 1.75 1.63 3.1 5.43 3.1 3.04 0 4.75-1.03 4.75-2.76 0-1.67-1.26-2.21-5.15-2.67-3.92-.45-6.1-1.39-6.1-3.93 0-2.19 2.28-3.8 6.02-3.8 3.69 0 6.06 1.31 6.44 3.92h-1.69c-.44-1.85-1.99-2.51-4.75-2.51-3 0-4.29.92-4.29 2.35 0 1.27.93 2.01 4.9 2.46 4.18.48 6.4 1.32 6.4 4.12 0 2.46-2.42 4.23-6.53 4.23-4.77 0-6.88-2.01-7.24-4.51z"/><path id="Fill-20" fill-rule="evenodd" class="shp0" d="M122.02 34.84h6.76c3.16 0 5.82 1.17 5.82 4.17v.08c0 2.46-2.08 3.7-4.07 4.05l5.21 5.91h-2.23l-5.09-5.77h-4.55v5.77h-1.85V34.84zm6.88 7.05c2.37 0 3.86-.97 3.86-2.78v-.08c0-2.03-1.61-2.78-3.86-2.78h-5.03v5.64h5.03z"/><path id="Fill-22" class="shp0" d="M139.79 34.84h11.96v1.43h-10.11v4.79h8.52v1.43h-8.52v5.13h10.59v1.43h-12.44V34.84z"/><path id="Fill-24" fill-rule="evenodd" class="shp0" d="M155.37 44.71h1.81c.3 1.75 1.63 3.1 5.43 3.1 3.04 0 4.75-1.03 4.75-2.76 0-1.67-1.26-2.2-5.15-2.66-3.92-.46-6.1-1.39-6.1-3.94 0-2.18 2.28-3.79 6.02-3.79 3.69 0 6.06 1.31 6.44 3.91h-1.69c-.44-1.85-1.99-2.5-4.75-2.5-3 0-4.29.91-4.29 2.34 0 1.28.93 2.01 4.9 2.47 4.18.48 6.4 1.31 6.4 4.11 0 2.47-2.42 4.24-6.53 4.24-4.77 0-6.88-2.01-7.24-4.52z"/><path id="Fill-26" fill-rule="evenodd" class="shp0" d="M172.72 42.03v-.16c0-4.03 3.68-7.21 9.34-7.21 5.67 0 9.34 3.18 9.34 7.17v.16c0 4.02-3.67 7.24-9.28 7.24-5.72 0-9.4-3.22-9.4-7.2zm16.75-.06v-.16c0-3.16-2.72-5.74-7.41-5.74-4.73 0-7.41 2.42-7.41 5.78v.16c0 3.42 3.06 5.76 7.47 5.76 4.53 0 7.35-2.38 7.35-5.8z"/><path id="Fill-28" fill-rule="evenodd" class="shp0" d="M196.01 34.84h6.76c3.16 0 5.82 1.17 5.82 4.17v.08c0 2.46-2.08 3.7-4.07 4.05l5.2 5.91h-2.22l-5.09-5.77h-4.55v5.77h-1.85V34.84zm6.88 7.05c2.36 0 3.85-.97 3.85-2.78v-.08c0-2.03-1.61-2.78-3.85-2.78h-5.03v5.64h5.03z"/><path id="Fill-30" class="shp0" d="M217.83 36.27h-5.84v-1.43h13.53v1.43h-5.84v12.78h-1.85V36.27z"/><path id="Fill-32" fill-rule="evenodd" class="shp0" d="M228.11 44.71h1.81c.29 1.75 1.63 3.1 5.42 3.1 3.04 0 4.75-1.03 4.75-2.76 0-1.67-1.25-2.2-5.15-2.66-3.91-.46-6.1-1.39-6.1-3.94 0-2.18 2.29-3.79 6.02-3.79 3.7 0 6.07 1.31 6.44 3.91h-1.69c-.43-1.85-1.98-2.5-4.75-2.5-3 0-4.29.91-4.29 2.34 0 1.28.94 2.01 4.91 2.47 4.17.48 6.4 1.31 6.4 4.11 0 2.47-2.42 4.24-6.54 4.24-4.77 0-6.87-2.01-7.23-4.52z"/><g id="Group-36"><g id="Clip-Path: Clip-Path: Fill-34" clip-path="url(#cp2)"><g id="Clip-Path: Fill-34"><path id="Fill-34" fill-rule="evenodd" class="shp0" d="M238.63 23.26c-1.05 1.18-2.57 2.09-4.64 2.09-2.92 0-4.84-1.41-4.84-3.8 0-2.27 1.75-3.5 3.56-4.18-.94-.83-1.57-1.83-1.57-3.16 0-2.19 1.79-3.42 3.8-3.42 2.16 0 3.6 1.39 3.6 3.3 0 1.41-1.11 2.79-3.28 3.64l3.45 3.5 2.24-3.36h1.53l-2.85 4.3 2.99 3.04h-2.1l-1.89-1.95zm-.84-.85l-4.1-4.2c-1.68.62-2.91 1.55-2.91 3.24 0 1.55 1.14 2.53 3.24 2.53 1.67 0 2.92-.66 3.77-1.57zm-.73-8.36c0-1.09-.78-1.95-2.15-1.95-1.27 0-2.27.72-2.27 2.13 0 1.08.72 1.91 1.68 2.69 2-.86 2.74-1.73 2.74-2.87z"/></g></g></g></g></g></g></g></g></g></svg>