<svg width="178" height="32" viewBox="0 0 178 32" fill="none" xmlns="http://www.w3.org/2000/svg">
<path d="M65.2353 8.20743C65.2353 9.5955 64.2229 10.6822 62.6088 10.6822C61.0711 10.6822 60.0566 9.59447 60.0566 8.20743C60.0566 6.78117 61.1072 5.69238 62.645 5.69238C64.2219 5.69341 65.1982 6.78117 65.2353 8.20743ZM60.3188 13.3108L64.9711 13.3108L64.9711 31.5838L60.3188 31.5838L60.3188 13.3108Z" fill="#8D979B"/>
<path d="M69.926 19.2016C69.926 16.7248 69.8889 14.961 69.7753 13.3108L73.7909 13.3108L73.9416 16.8001L74.0913 16.8001C74.9922 14.2107 77.1306 12.897 79.0821 12.897C79.5342 12.897 79.7953 12.9352 80.1709 13.0084L80.1709 17.3625C79.7963 17.2882 79.3825 17.2129 78.82 17.2129C76.6063 17.2129 75.1047 18.6381 74.6919 20.7032C74.6176 21.116 74.5412 21.6031 74.5412 22.1274L74.5412 31.5849L69.925 31.5849L69.925 19.2016L69.926 19.2016Z" fill="#8D979B"/>
<path d="M88.2011 8.20743C88.2011 9.5955 87.1877 10.6822 85.5736 10.6822C84.0369 10.6822 83.0224 9.59447 83.0224 8.20743C83.0224 6.78117 84.073 5.69238 85.6118 5.69238C87.1866 5.69341 88.1629 6.78117 88.2011 8.20743ZM83.2845 13.3108L87.9369 13.3108L87.9369 31.5838L83.2845 31.5838L83.2845 13.3108Z" fill="#8D979B"/>
<path d="M109.741 4.94238L109.741 26.4446C109.741 28.3198 109.815 30.3467 109.89 31.5852L105.762 31.5852L105.573 28.6955L105.499 28.6955C104.41 30.7224 102.197 31.998 99.5348 31.998C95.1797 31.998 91.7296 28.2816 91.7296 22.653C91.6914 16.5362 95.5182 12.8962 99.9094 12.8962C102.423 12.8962 104.226 13.9478 105.049 15.2977L105.124 15.2977L105.124 4.94238L109.741 4.94238ZM105.123 20.9285C105.123 20.5518 105.086 20.1018 105.013 19.7282C104.599 17.9263 103.136 16.4619 101.035 16.4619C98.0714 16.4619 96.4181 19.0894 96.4181 22.5033C96.4181 25.8419 98.0714 28.2827 100.997 28.2827C102.872 28.2827 104.525 27.0092 104.974 25.0184C105.087 24.6066 105.124 24.1546 105.124 23.6675L105.124 20.9285L105.123 20.9285Z" fill="#8D979B"/>
<path d="M119.609 8.20743C119.609 9.5955 118.595 10.6822 116.981 10.6822C115.443 10.6822 114.429 9.59447 114.429 8.20743C114.429 6.78117 115.48 5.69238 117.018 5.69238C118.595 5.69341 119.571 6.78117 119.609 8.20743ZM114.693 13.3108L119.348 13.3108L119.348 31.5838L114.693 31.5838L114.693 13.3108Z" fill="#8D979B"/>
<path d="M140.66 26.1071C140.66 28.2826 140.734 30.0846 140.811 31.5851L136.757 31.5851L136.531 28.81L136.455 28.81C135.668 30.1217 133.867 32 130.602 32C127.264 32 124.222 30.0113 124.222 24.0441L124.222 13.311L128.839 13.311L128.839 23.2546C128.839 26.2939 129.814 28.2444 132.255 28.2444C134.092 28.2444 135.292 26.9327 135.784 25.7696C135.931 25.3568 136.044 24.8687 136.044 24.3434L136.044 13.311L140.66 13.311L140.66 26.1071Z" fill="#8D979B"/>
<path d="M145.651 18.7517C145.651 16.6505 145.612 14.8867 145.499 13.3118L149.478 13.3118L149.666 16.0116L149.777 16.0116C150.679 14.5864 152.329 12.898 155.408 12.898C157.808 12.898 159.686 14.2489 160.473 16.2738L160.549 16.2738C161.186 15.2613 161.935 14.51 162.799 13.9847C163.81 13.2726 164.975 12.897 166.476 12.897C169.513 12.897 172.593 14.961 172.593 20.8147L172.593 31.5839L168.089 31.5839L168.089 21.4907C168.089 18.4513 167.037 16.6505 164.824 16.6505C163.25 16.6505 162.086 17.7754 161.599 19.0891C161.485 19.5391 161.373 20.1015 161.373 20.6279L161.373 31.5839L156.869 31.5839L156.869 21.0025C156.869 18.4513 155.859 16.6505 153.717 16.6505C151.993 16.6505 150.828 18.0014 150.415 19.277C150.227 19.729 150.152 20.2522 150.152 20.7786L150.152 31.5849L145.651 31.5849L145.651 18.7517Z" fill="#8D979B"/>
<path d="M2.61515 6.36459C4.05896 6.36459 5.23134 5.1922 5.23134 3.74943C5.23134 2.30459 4.05896 1.13428 2.61515 1.13428C1.17032 1.13428 6.33024e-09 2.30356 1.41578e-08 3.74943C2.19687e-08 5.1922 1.17032 6.36459 2.61515 6.36459Z" fill="#F2B207"/>
<path d="M13.3751 5.23134C14.8199 5.23134 15.9913 4.06102 15.9913 2.61515C15.9913 1.17135 14.8199 -1.63993e-07 13.3751 -1.05647e-07C11.9323 -4.7385e-08 10.7589 1.17135 10.7589 2.61515C10.7589 4.06205 11.9323 5.23134 13.3751 5.23134Z" fill="#F2B207"/>
<path d="M21.1205 12.6494C22.5663 12.6494 23.7367 11.475 23.7367 10.0312C23.7367 8.58737 22.5663 7.41602 21.1205 7.41602C19.6777 7.41602 18.5063 8.58737 18.5063 10.0312C18.5063 11.475 19.6767 12.6494 21.1205 12.6494Z" fill="#F2B207"/>
<path d="M30.996 18.3266C32.4408 18.3266 33.6143 17.1522 33.6143 15.7115C33.6143 14.2646 32.4408 13.0942 30.996 13.0942C29.5512 13.0942 28.3798 14.2646 28.3798 15.7115C28.3798 17.1522 29.5512 18.3266 30.996 18.3266Z" fill="#F2B207"/>
<path d="M30.996 27.7191C32.4408 27.7191 33.6143 26.5519 33.6143 25.105C33.6143 23.6591 32.4408 22.4878 30.996 22.4878C29.5512 22.4878 28.3798 23.6591 28.3798 25.105C28.3798 26.5529 29.5512 27.7191 30.996 27.7191Z" fill="#F2B207"/>
<path d="M41.9003 31.6137C43.3441 31.6137 44.5155 30.4433 44.5155 28.9975C44.5155 27.5537 43.3441 26.3823 41.9003 26.3823C40.4565 26.3823 39.2841 27.5537 39.2841 28.9975C39.2831 30.4433 40.4555 31.6137 41.9003 31.6137Z" fill="#F2B207"/>
<path d="M47.2533 22.5603C48.6982 22.5603 49.8685 21.3879 49.8685 19.9441C49.8685 18.5003 48.6982 17.3311 47.2533 17.3311C45.8095 17.3311 44.6382 18.5003 44.6382 19.9441C44.6382 21.3879 45.8095 22.5603 47.2533 22.5603Z" fill="#F2B207"/>
<path d="M175.271 13.1685C176.51 13.1685 177.509 14.1654 177.509 15.4193C177.509 16.6877 176.51 17.6846 175.257 17.6846C173.988 17.6846 172.992 16.6877 172.992 15.4193C172.992 14.1654 173.989 13.1685 175.257 13.1685L175.271 13.1685ZM175.227 13.6814C174.302 13.6814 173.604 14.4647 173.604 15.4193C173.604 16.4018 174.302 17.1717 175.258 17.1717C176.198 17.1851 176.897 16.4018 176.897 15.4193C176.897 14.4647 176.198 13.6814 175.243 13.6814L175.227 13.6814ZM174.929 16.5432L174.401 16.5432L174.401 14.378C174.558 14.3501 174.843 14.3068 175.227 14.3068C175.641 14.3068 175.84 14.378 175.999 14.4771C176.126 14.5627 176.211 14.734 176.211 14.9477C176.211 15.1757 176.012 15.3605 175.756 15.4461L175.756 15.474C175.968 15.5452 176.083 15.7165 176.156 16.0148C176.225 16.3285 176.268 16.4575 176.311 16.5421L175.728 16.5421C175.658 16.4575 175.614 16.2718 175.559 16.0457C175.515 15.8156 175.401 15.7176 175.158 15.7176L174.929 15.7176L174.929 16.5432ZM174.958 15.3037L175.157 15.3037C175.412 15.3037 175.612 15.2181 175.612 15.0199C175.612 14.8331 175.469 14.7351 175.198 14.7351C175.087 14.7351 174.999 14.7495 174.958 14.7495L174.958 15.3037Z" fill="#8D979B"/>
</svg>
