<svg width="168" height="32" viewBox="0 0 168 32" xmlns="http://www.w3.org/2000/svg">
    <defs>
        <linearGradient x1="50%" y1="17.943%" x2="50%" y2="90.606%" id="4j0k3cq7xa">
            <stop stop-color="#76DCFD" offset="0%"/>
            <stop stop-color="#085CE5" offset="100%"/>
        </linearGradient>
    </defs>
    <g fill-rule="nonzero" fill="none">
        <path d="m151.802 31.95 10.04-23.492h-5.709l-4.23 9.907-4.668-9.907h-5.775l7.722 16.269-3.089 7.223h5.709zm-16.863-7.422V15.35c1.276-1.26 2.955-1.955 5.607-2.055V8.192c-2.417 0-4.163.763-5.607 1.989V8.458h-5.44v16.07h5.44zm-18.575 0V14.455c.94-1.06 2.015-1.624 3.022-1.624 1.78 0 2.955 1.094 2.955 3.38v8.317h5.473V15.35c0-4.573-2.82-7.39-6.95-7.39-1.747 0-3.19.564-4.5 1.591V8.458h-5.44v16.07h5.44zm-12.15-9.609h-6.649c.403-1.624 1.578-2.684 3.425-2.684 1.746 0 2.921.928 3.224 2.684zm-2.989 9.974c4.03 0 7.152-2.088 7.925-5.402h-5.373c-.47.73-1.343 1.16-2.485 1.16-2.082 0-3.223-1.126-3.66-2.584h11.618l-.033-.1c.1-.596.1-1.226.1-1.822 0-4.838-3.592-8.052-8.327-8.052-5.205 0-8.663 3.512-8.663 8.383 0 4.904 3.56 8.417 8.898 8.417zm-21.982-.365V14.455c.94-1.06 2.014-1.624 3.022-1.624 1.78 0 2.955 1.094 2.955 3.38v8.317h5.473V15.35c0-4.573-2.82-7.39-6.951-7.39-1.746 0-3.19.564-4.5 1.591V0h-5.439v24.528h5.44zm-25.096 0V21.38l2.283-2.419 3.895 5.567h6.514l-6.715-9.51 6.178-6.56h-6.48l-5.675 6.03V0h-5.44v24.528h5.44zm-15.43.365c4.5 0 7.958-2.817 8.327-6.959h-5.137c-.269 1.458-1.511 2.42-3.19 2.42-2.317 0-3.727-1.69-3.727-3.878 0-2.187 1.41-3.843 3.727-3.843 1.679 0 2.921.96 3.19 2.419h5.137c-.37-4.142-3.827-6.959-8.327-6.959-5.138 0-8.898 3.512-8.898 8.383 0 4.904 3.76 8.417 8.898 8.417zm-18.788-4.44c-2.216 0-3.828-1.757-3.828-3.977 0-2.22 1.612-4.01 3.828-4.01 1.21 0 2.384.365 3.392 1.525v4.97c-1.008 1.16-2.183 1.492-3.392 1.492zm-1.656 4.406c1.78 0 3.257-.463 4.466-1.226v.895h5.44V8.458h-5.44v.861c-1.21-.762-2.687-1.226-4.466-1.226-4.399 0-8.092 3.579-8.092 8.383 0 4.772 3.693 8.383 8.092 8.383zM0 32c6.447-.137 8.495-3.123 8.495-8.236V8.458H3.022v16.026c0 1.922-.6 2.569-3.022 2.569V32z" fill="#06185F"/>
        <path d="M5.736 0c1.878 0 3.4 1.502 3.4 3.355 0 1.854-1.522 3.356-3.4 3.356s-3.4-1.502-3.4-3.356C2.335 1.502 3.857 0 5.735 0" fill="url(#4j0k3cq7xa)"/>
        <path d="M165.485 11.007V8.394h.616l.397.977.236.658h.034l.236-.658.388-.977H168v2.613h-.464V9.852l.059-.885h-.034l-.616 1.636h-.397l-.615-1.636h-.035l.06.885v1.155h-.473zm-1.756 0V8.849h-.835v-.455h2.185v.455h-.843v2.158h-.507z" fill="#06185F"/>
    </g>
</svg>
