<svg width="160" height="51" xmlns="http://www.w3.org/2000/svg"><g fill="none" fill-rule="evenodd"><path d="M150.723 34.006a5.597 5.597 0 013.619 1.109c.393.319.723.706.974 1.14.215.37.377.766.48 1.178l.013-.008a5.1 5.1 0 01.19 1.391c.004.3-.02.598-.07.894a4.464 4.464 0 01-1.094 2.29 5.114 5.114 0 01-3.66 1.618 5.691 5.691 0 01-2.218-.522 7.794 7.794 0 00-.862-.267c-.228 0-.228.133-.228.485v4.988c-.06.493.034.991.269 1.431.29.3.702.456 1.123.43.556.032.908.085.908.46 0 .377-.327.377-.535.377-.853 0-2.217-.106-3.075-.106-.415 0-2.541.106-3.018.106-.204 0-.531-.024-.531-.405 0-.38.357-.432.887-.432.39.009.766-.148 1.028-.43.234-.44.324-.94.257-1.431V36.256c.042-.422-.11-.84-.415-1.141a1.506 1.506 0 00-.878-.271c-.535-.057-.887-.085-.887-.461 0-.377.104-.377.933-.377.381 0 2.21.106 2.624.106.605 0 3.514-.106 4.166-.106zM132.278 34c.198 0 .484.028.484.401 0 .374-.333.426-.841.426-.305.008-.602.1-.858.269a1.383 1.383 0 00-.396 1.131v9.118c.001.34.008.717.04 1.112.028.584.143 1.16.341 1.71a3.086 3.086 0 001.127 1.42 5.346 5.346 0 005.198 0c.518-.345.92-.84 1.155-1.42.225-.543.36-1.12.397-1.706v-9.05c0-.481-.036-.859-.036-1.168a1.677 1.677 0 00-.397-1.131 1.72 1.72 0 00-1.075-.321c-.504-.033-.794-.089-.794-.434s.362-.345.58-.345c.384 0 .916.104 2.027.104.949 0 2.004-.104 2.345-.104l.068-.004c.2.006.36.174.357.377 0 .378-.436.434-.774.434-.357-.024-.71.08-1 .293a1.775 1.775 0 00-.349 1.131c-.028.29-.028.638-.028 1.04v9.166c-.04.584-.16 1.16-.357 1.71a4.03 4.03 0 01-.861 1.42c-.785.835-2.08 1.421-4.21 1.421-1.865 0-3.655-.321-4.846-1.42a4.166 4.166 0 01-1.007-1.421 5.97 5.97 0 01-.433-1.706 6.148 6.148 0 01-.048-.955v-9.23c.049-.43-.097-.86-.397-1.168a1.38 1.38 0 00-.825-.27c-.508-.024-.865-.084-.865-.457s.27-.373.508-.373 1.183.104 2.85.104c1.666 0 2.721-.104 2.92-.104zm-29.819.01a4.962 4.962 0 013.455 1.106c.356.323.646.713.852 1.146.178.362.304.746.375 1.142a4.769 4.769 0 01-.122 2.292 3.685 3.685 0 01-2.26 2.297 6.099 6.099 0 01-.938.275c.323.219.596.385 1.191 1.523l.253.494 1.187 2.288.877 1.725.081.155c.21.452.47.88.77 1.279.193.24.465.404.768.462.82.105 1.052.145 1.052.474 0 .328-.232.328-.408.328-.326 0-1.941-.11-2.312-.11-.196 0-1.118.11-1.338.11-.44 0-.542-.22-.816-.81l-.22-.458-.693-1.434-.84-1.721-1.224-2.252-.138-.28c-.555-1.166-.665-1.27-1.779-1.27-.424 0-.469.13-.469.587v4.94c-.056.49.02.984.22 1.434.243.312.624.486 1.02.462.547.02.89.109.89.457 0 .349-.319.349-.523.349h-.078c-.603-.01-2.794-.106-2.89-.106-.433 0-2.431.106-2.88.106-.196 0-.522 0-.522-.377s.375-.43.897-.43c.386.01.752-.16.991-.461.207-.448.287-.944.229-1.434V36.262a1.56 1.56 0 00-.347-1.146 1.34 1.34 0 00-.865-.292c-.546-.032-.897-.06-.897-.437 0-.33.078-.37.644-.376h.274c.112 0 .388.017.694.039l.373.026c.308.021.59.04.715.04.701 0 4-.106 4.751-.106zm15.12-.01a8.562 8.562 0 014.494 1.248 8.723 8.723 0 011.447 1.12c.36.357.685.746.972 1.16A7.947 7.947 0 01126 42.013l-.02-.003v.218a9.16 9.16 0 01-.226 2.03 8.89 8.89 0 01-.861 2.245 8.95 8.95 0 01-2.86 3.095A8.307 8.307 0 01117.498 51a8.598 8.598 0 01-4.674-1.402 8.724 8.724 0 01-1.634-1.407 7.997 7.997 0 01-1.19-1.688 8.327 8.327 0 01-.816-2.245 8.801 8.801 0 01-.184-1.787v-.461a8.638 8.638 0 01.409-2.253 7.97 7.97 0 011.148-2.24c.291-.401.616-.777.972-1.125a9.014 9.014 0 011.487-1.117 8.859 8.859 0 013.06-1.156 9.08 9.08 0 011.503-.119zm-29.314 0c.554 0 1.107.04 1.655.12.76.066 1.495.308 2.15.705.085.127.143.27.168.422.095.37.165.745.212 1.124.06.373.098.75.114 1.128 0 .347-.094.478-.282.478-.189 0-.36-.191-.514-.49l-.059-.123a7.048 7.048 0 00-.569-1.005 3.98 3.98 0 00-1.196-1.16 4.12 4.12 0 00-2.17-.577 4.316 4.316 0 00-2.13.577 5.35 5.35 0 00-1.388 1.128c-.31.359-.585.747-.82 1.16-.418.705-.749 1.46-.984 2.247-.22.736-.36 1.493-.42 2.26v.753c0 .503.035 1.005.106 1.502.113.774.322 1.53.62 2.251.254.61.584 1.183.984 1.706.416.559.93 1.035 1.514 1.407.777.49 1.675.748 2.59.745 1.121 0 1.749-.227 2.086-.745a2.88 2.88 0 00.37-1.407v-3.24c0-.239-.021-.477-.064-.713-.16-.713-.62-.885-1.448-.885-.737-.027-.93-.051-.93-.398 0-.306.096-.342.773-.346h.303c.392 0 1.07.11 2.675.11.384 0 2.68-.11 3.032-.11.098 0 .357-.005.357.29s-.243.38-.887.43c-.815.056-1.066.307-1.141.89a6.23 6.23 0 000 .765v.267c0 .159.051.573.051 1.215v1.694c-.007.948-.039 1.075-.612 1.41l-.086.048a9.538 9.538 0 01-5.064 1.363 8.195 8.195 0 01-4.86-1.41 7.126 7.126 0 01-1.471-1.411 8.291 8.291 0 01-1.028-1.686 9.867 9.867 0 01-.742-2.248 8.431 8.431 0 01-.16-1.593c0-.216.027-.431.027-.65.063-.771.228-1.53.49-2.255a8.896 8.896 0 012.217-3.336 8.46 8.46 0 011.526-1.124 9.36 9.36 0 013.295-1.163c.566-.08 1.138-.12 1.71-.12zm29.037.664a4.494 4.494 0 00-2.227.58 4.786 4.786 0 00-1.352 1.12c-.29.358-.54.746-.744 1.156a8.61 8.61 0 00-.772 2.245A11.162 11.162 0 00112 41.91v.1c.004.753.082 1.505.233 2.244.15.772.388 1.526.706 2.249a8.3 8.3 0 00.99 1.692c.4.548.897 1.024 1.466 1.407a4.19 4.19 0 002.324.71 4.08 4.08 0 002.3-.714 5.557 5.557 0 001.373-1.407 8.112 8.112 0 00.87-1.688 11.03 11.03 0 00.617-2.273c.098-.636.147-1.279.147-1.922v-.33a10.478 10.478 0 00-.343-2.249 9.06 9.06 0 00-.923-2.245 7.026 7.026 0 00-.817-1.12 5.048 5.048 0 00-1.402-1.12 4.593 4.593 0 00-2.238-.58zm32.123.054c-.46-.053-.92.106-1.243.43-.225.34-.339.74-.328 1.144v5.162c-.022.179.001.36.066.53.066.076.15.136.245.173a3.94 3.94 0 001.687.3c.548 0 1.086-.143 1.559-.413a3.404 3.404 0 001.579-2.29 4.53 4.53 0 00.103-1.003 4.46 4.46 0 00-.174-1.282 3.853 3.853 0 00-.538-1.177 3.596 3.596 0 00-1.244-1.145 3.552 3.552 0 00-1.712-.429zm-48.467.045a1.065 1.065 0 00-.938.345c-.181.352-.255.749-.212 1.142v4.916c.003.562.03.76.429.83.27.033.543.046.815.037.249.01.498.006.747-.012a2.643 2.643 0 002.487-2.292 5.31 5.31 0 00-.057-2.289 4.24 4.24 0 00-.452-1.178 2.895 2.895 0 00-1.187-1.142 3.64 3.64 0 00-1.632-.357zM87.055 1c.36 0 .944 0 .944.709a.588.588 0 01-.186.47 2.483 2.483 0 01-1.387.283c-1.235.105-1.803.504-2.065 1.136a3.991 3.991 0 00-.226 1.426V23.25a26.174 26.174 0 01-.355 4.56 12.092 12.092 0 01-1.028 3.13c-.236.493-.506.97-.807 1.426a9.672 9.672 0 01-.807 1.136c-.286.37-.605.737-.952 1.14-.14.157-.23.241-.44.467a17.6 17.6 0 01-.665.669c-.407.402-.85.805-1.33 1.204-1.453 1.128-3.107 2.014-4.64 2.014a2.266 2.266 0 01-.233 0 2.858 2.858 0 01-2.872-2.843 2.208 2.208 0 010-.327c.047-.405.185-.795.403-1.14a2.303 2.303 0 011.977-1.136 2.192 2.192 0 011.912 1.136c.169.217.342.515.524.806.066.115.14.227.218.334.225.39.635.637 1.085.656a1.65 1.65 0 001.266-.656c.277-.343.5-.728.658-1.14a8.48 8.48 0 00.403-1.172c.097-.359.181-.733.258-1.136.089-.468.165-.942.23-1.426.06-.471.113-.95.153-1.426.049-.572.117-1.12.117-1.704.065-1.302.075-2.497.077-3.364V5.036a3.99 3.99 0 00-.23-1.426c-.262-.644-.851-1.043-2.061-1.144a2.387 2.387 0 01-1.371-.286.636.636 0 01-.202-.515c0-.665.589-.665.948-.665.875 0 4.743.193 5.283.193 1.485 0 3.917-.193 5.401-.193zm10.228 0c.456 0 .81 0 1.263 1.149v.045l.553 1.437.549 1.442 3.514 9.22 1.764 4.61 1.21 3.178 1.178-3.177 1.667-4.615 3.402-9.22.536-1.434.355-.957c.069-.183.134-.334.198-.484.512-1.108.973-1.186 1.614-1.186.397 0 .918.031 1.462.069l.823.058c.543.037 1.062.069 1.455.069.985 0 2.212-.196 2.704-.196s1.122 0 1.122.595a.05.05 0 000 .024.501.501 0 01-.403.567c-.412.086-.831.133-1.252.142-1.387.106-1.904.391-2.073 1.291-.066.478-.088.96-.065 1.442v.595l.25 8.577.142 4.614.148 4.606.07 2.444c-.004.724.035 1.447.116 2.167.19 1.153.658 1.47 2.018 1.47.42-.05.846.042 1.21.261a.579.579 0 01.186.456c0 .668-.722.668-1.174.668-.674 0-3.059-.195-4.73-.195-2.247 0-4.68.195-5.584.195-.307 0-.807 0-.807-.59a.655.655 0 01.17-.505c.23-.209.705-.249 1.585-.31 1.235-.11 1.752-.603 1.957-1.417a9.264 9.264 0 00.117-2.216l-.04-2.37-.085-4.607-.073-4.614-.16-9.033h-.118l-3.317 9.033-1.69 4.614-1.692 4.606-1.694 4.61-.206.559a7.296 7.296 0 01-.476 1.185.65.65 0 01-.585.407.78.78 0 01-.654-.407 3.52 3.52 0 01-.379-.786l-.367-.937-1.864-4.63-1.764-4.607-1.764-4.614-3.187-8.223h-.09a579.575 579.575 0 00-.447 8.223c-.067 1.561-.118 3.1-.153 4.614v4.627c-.048 1.544.076 3.09.371 4.606.363 1.311 1.045 1.421 2.28 1.421.763 0 1.356.025 1.614.31.093.114.14.26.133.407 0 .717-.81.717-1.303.717-.617 0-2.102-.195-4.035-.195-1.562 0-3.317.195-4.035.195-.32 0-.775-.102-.75-.668a.544.544 0 01.245-.505 4.25 4.25 0 011.47-.354c.968-.188 1.589-.338 1.936-1.372a8.826 8.826 0 00.31-2.497c0-.074.05-.864.126-2.11a886.04 886.04 0 00.517-9.217c.165-3.38.306-6.818.306-9.22v-.45c-.003-.39-.013-.718-.036-.98-.101-1.103-.505-1.108-2.079-1.149a3.06 3.06 0 01-1.545-.293.589.589 0 01-.258-.59c0-.35.315-.595.992-.595.07 0 .182.004.324.01l.323.018c.418.024.972.059 1.54.09l.487.027c.566.029 1.111.05 1.515.05 1.622 0 2.651-.195 3.107-.195zm48.128-.792c.432 0 .583.27 1.084 1.717.06.188.127.38.199.596l.318.869c.174.497.345.983.508 1.435.175.465.341.922.48 1.281l3.064 7.95 1.688 4.622 1.736 4.613.397 1.011c.43 1.245.961 2.45 1.59 3.602a2.683 2.683 0 002.105 1.424c.371.003.735.11 1.052.31l.07.087c.083.124.121.275.105.427 0 .591-.755.591-1.021.591-.77 0-4.45-.196-5.208-.196-2.705 0-5.006.196-5.14.196-.445 0-1.022 0-1.022-.669a.59.59 0 01.191-.457 2.636 2.636 0 011.403-.408c1.16-.102 1.557-.338 1.557-1.056v-.27a5.122 5.122 0 00-.294-1.113l-1.156-3.5-.747-2.243c-.444-1.316-.598-1.426-1.539-1.435h-5.914c-1.027.008-1.054.101-1.378 1.223l-.715 2.447-.795 2.684c0 .155-.365 1.342-.397 1.938v.077c0 1.2 1.108 1.293 2.126 1.342a2.682 2.682 0 011.493.306c.13.114.2.282.19.457 0 .673-.532.673-1.548.673-.252 0-1.196-.063-2.203-.117l-.467-.024a37.084 37.084 0 00-1.68-.055c-.5 0-3.099.196-3.679.196-.266 0-.842 0-.842-.718a.659.659 0 01.13-.408c.344-.266.762-.41 1.193-.408 1.282-.134 1.747-.175 2.41-1.321.092-.163.188-.339.291-.547.385-.816.965-2.255 1.66-4.079.54-1.35 1.12-2.924 1.733-4.613.528-1.473 1.072-3.027 1.648-4.617 1.1-3.088 2.229-6.29 3.234-9.145l.036-.09.508-1.424c.203-.583.373-1.036.513-1.444.585-1.58.695-1.706.96-1.716zm-13.761.794c.876 0 3.247.355 3.575 1.49a.869.869 0 01.034.27 4.834 4.834 0 01-.233 1.187c-.195.531-.436 1.017-.801 1.017-.241 0-.386-.167-.532-.408a5.531 5.531 0 00-.378-.596 2.679 2.679 0 00-2.305-1.188 2.971 2.971 0 00-2.491 1.188 3.04 3.04 0 00-.569 1.437 2.308 2.308 0 000 .339 1.988 1.988 0 00.718 1.731c.5-.105 1.01-.152 1.52-.139l.229.001c.75.007 1.74.083 1.74.881 0 .572-.582.817-1.275.817a4.227 4.227 0 01-2.417-.817c-2.308.604-2.982 2.936-2.982 4.36a4.92 4.92 0 00.416 2.042c.875 1.828 2.75 2.988 4.804 2.973 1.974.04 3.758-1.152 4.443-2.973.175-.431.267-.89.27-1.355a1.502 1.502 0 00-.29-.91 12.21 12.21 0 00-1.491-.107c-1.059 0-2.33.245-3.052 1.29a.751.751 0 01-.312.274c-.045 0-.24.004-.24-.355 0-.36.888-1.952 2.836-2.634.959-.351 1.208-.375 3.7-.596a2.127 2.127 0 001.81-1.045c.091-.192.191-.274.312-.274.311 0 .311.33.311.47 0 1.261-.921 3.042-2.417 3.042a4.719 4.719 0 01-.718-.082c.166.353.249.738.241 1.127-.008.387-.08.77-.212 1.135-1.07 2.682-3.715 4.435-6.644 4.406-2.716 0-5.428-1.634-6.092-4.398a5.372 5.372 0 01-.158-1.34c0-3.829 3.223-5.033 4.85-5.646a3.892 3.892 0 01-.876-2.23v-.293c0-.391.054-.78.162-1.156a3.716 3.716 0 01.81-1.445 5.027 5.027 0 013.704-1.49zm11.901 7.372l-1.918 5.654-.835 2.447c-.1.293-.158.6-.174.91 0 .48.27.48 1.064.48h4.211c1.017 0 1.017-.175 1.017-.346a2.584 2.584 0 00-.266-.91l-.974-2.581-2.125-5.654z" fill="#000"/><path d="M61.21 28.013c.664 0 .402-.15.479-.408.587-.885.14.327.587.678-2.99 2.015-3.25.35-1.078-.27h.012zm-9.31-.232c-2.347 1.424.22.249.647 1.783-1.235-.119-2.752-1.632-3.074-.816a.121.121 0 01-.1-.102c-.093-.115-.154-.212-.222-.225.075.037.153.069.233.094.08-.277.403-.69-.402-.591.402-1.375 2.571-.335 3.73-2.138.257 1.187.744.591 1.654.738-1.718-.045-4.865 1.02-2.479 1.257h.012zm-3.445 5.618c.43 0 2.012-1.632 1.61-.16.277.184 3.218-.489 1.609.51-2.66-.407.583.968 1.034 1.445-.427 1.008-3.967-1.616-4.265-1.795h.012zm-1.843-3.39c1.799-1.747 7.182 1.305 2.112-.168-1.69.433 0 .857.644 1.187-1.13.34-2.768-.146-2.768-1.02h.012zm.91 5.002c-.89-.347-2.894-.282-2.459.534a.92.92 0 01-.125-.738c.793-.123 3.086-.902 2.571.204h.012zm-.644 1.97a16.33 16.33 0 01-1.61-1.187c.267.256.56.48.877.669.376.004.749-.058 1.103-.184-.25.14-.523.38-.37.702zm-3.903-10.347c-.161 1-1.586 1.314-2.415.816 2.346-.518 2.089-3.464 3.891-1.477.234 1.049-1.082.898-1.476.661zm-6.265-.787c2.068-1.192 3.122-1.465 5.351 0-1.315.477-.539.983-1.3 0 .17 2.542-3.283.249-4.051 0zm-1.348 9.164c-1.171-.853-.668 1.244-1.758 1.15-.258.857 1.609.653 2.104.494-.76 2.448-2.58 1.187-4.048 1.97-.91-2.04.233-1.721 0-2.558-.133-.35-.221.057-.273.163v.05l-.037-.09c.274-2.856 4.684-5.064 5.066-3.485.19 1.971 1.654.592 2.708.037-.173 1.224.197 1.224 1.292 1.147-4.805 2.496-3.823-1.176-5.054 1.122zM34.066 31.4c-.748.379-.869.905-2.108 1.313-.181-.93 1.054-2.574 2.108-1.313zM44.258 16.47c1.67-.75 1.642.763 3.074-.33-.47 2.199 2.157 2.04 0 4.08-1.239-.274.861-.686-.301-2.967-1.477.33-5.951-1.762-2.773-.783zm-17.16 17.058c.587-.354.51 0 1.46 1.632.008 1.714-1.356-1.142-1.46-1.632zM37.703 1.383c.527.184 1.352-1.538 2.382-1.154-.552 1.632-.206.293-.48 2.04-.37 2.435 1.791.183 2.745.273-.636 2.374.966 1.705 2.438 1.783-1.525.791.334.547-.651 2.448.66.261 1.83-1.04 2.414-1.485.356.096.523.39.67.706l.088.192c.235.51.506.993 1.511.734.129 2.215.093.71 1.119 2.489-1.484.49-.52 1.147.689 1.793l.262.138c1.057.552 2.178 1.088 1.978 1.496-.205.26-.435 1.913-.974 1.318-.346.791.821.4 1.171.49 1.642-1.037 5.267 2.202 6.438 2.794.99-.139 3.661-1.632 3.078.816 2.306.22 2.591.257 3.887 1.481.298 1.791-3.5.67-3.726 1.31 1.762 2.26-1.034 1.95-.901 3.961.207.875.972.8 1.757.647l.372-.075c.943-.187 1.794-.283 1.6 1.264 1.075-.265 1.087.845.33.498-.253 1.342 1.183.078 1.944.673.02.408-1.38.392-1.002.833.39 1.33.35.26-.99.705.093.861-.265.735-.973.735-.387.559.386.82.647 1.155h-1.134c-.057.29-.167.566-.322.816-.205-.56.358-1.428-.652-1.155-.338 1.783-2.076.918-2.752 0 .49-.082 1.81.453 1.61-.49-.321-.124-.85-.098-1.39-.064l-.324.02c-.804.047-1.542.046-1.542-.482.266-.926-1.71-.706-2.213-.33.234.39.617.665 1.058.758-.263.017-.525.05-.784.098-1.147 0-.487.457-.487.657-.511.926-1.38.339-2.012-.167-4.478 1.187 1.243 4.035 3.134 1.783-.241 1.318 1.461 2.056 3.22 2.297.848-.086.575 1.069 1.436 1.004a.1.1 0 000 .049v.04c-.463 1.033.45.804-1.079 1.849-.29-.494 0-.494 0-.494h-.635c-1.521 3.95-3.074 2.427-3.074 3.452-1.634 1.003-7.03.408-4.1-1.13a3.452 3.452 0 01-1.002-1.881c-.379.265-.415.575-1.586-.09 1.187-1.567-1.235-1.848-1.682-1.75a2.117 2.117 0 00-1.682-.078c1.143.049 1.067 1.248 2.08 1.632-.913.436-.703 1.473-2.011 1.028-.124.62-.66.359-1.261.02l-.229-.13c-.422-.238-.856-.466-1.19-.424-.125-.396.21-.772.463-.992-1.895-.771-1.642-.081-1.758 0-.077-.877 0-1.122-.588-1.122-.724-.024-1.135.416-1.722-.326-.08-.106 1.114-.192.052-.25-3.368 1.413.069.658 1.907 2.192-1.746.836 1.368 1.722 1.666 1.93.121-.102.523-.314 1.578.04-1.014.523-.813-.469-1.171.85 2.579.272 2.028 1.647.165.656-.471.196-1.103.906-.97-.318h-.527c-.543.232.495-.123.044.347H42.34c.479-.25.797-.172.66-.845-.604 0-.926.073-.805-.665-.603-1.204-4.305-.473-5.182-.653-.737-1.04.052-1.591.804-1.632.624.686 1.376-.608-.116-.816-1.847.649-8.929 5.076-6 9.192a6.282 6.282 0 00.403 3.893c2.972.025 5.932.379 8.828 1.056v.123L30.79 51l-10.14-.061v-.123a38.152 38.152 0 017.476-1c1.42-3.814-.418-13.149-.66-13.606-1.07-3.86-3.118-1.257-3.118-3.133-.652-.013-1.139-.127-.974.656 0 .85-.804 0-.804 0-.855 0-.944-.14-.973-.29l-.013-.076c-.028-.15-.113-.29-.958-.29-2.557.682-1.039 1.285.409 1.597l.206.042c.306.061.6.108.842.14-.399.624-.749.93-.129 1.301 1.396.347 1.992 3.19-.193 1.656.028 1.747-.897 2.436-1.3-.159-5.5-2.774-.414.922-3.404 3.117-2.173.054-.45-1.236-1.875-2.117-.957-.122-2.084.347-.712-.84-.616-.355-3.235 1.872-3.726 2.3.306 1.135-2.543-.142-2.108-.983-1.964.372-3.614-.22-4.048-.816-.149-.754 1.295-.848 1.46-.983.098.051.2.092.306.122l.003.002a1.583 1.583 0 001.957-1.111c2.611-.245 3.63-3.036 5.504-3.444 1.079.763 1.565.551 2.583-.13-.024-.164 1.063.93.85-.074-3.602-1.465-3.292-1.669-3.566-1.669-.696 0-2.812.143-2.454 1.539-1.465.404-1.15-.482-2.76 1.15-.286-.081-1.276.24-.966-.49 1.815-.987 1.296-.62.644-2.447-1.469.432-.821 2.896-2.752 1.31-1.264-.278-1.65 1.044-2.588.987-1.066-2.46-.985-.453-2.273-.16-.954-.779-.422-1.285.165-2.137-.668-.6-.535-.466-.668-.963 3.424-1.432 2.603-.037 2.93-1.432-1.28.326-1.308-1.408-.037-1.033 1.288-.363 5.895-2.072 4.285-2.64-1.291.225-.97.817-1.456.817-1.501-.368-3.738.926-3.11-.657-2.503.473-2.793-.033-2.596-1.975 1.348-.612 1.722-.665 1.787-1.31 0-.816-.487 0-.487 0-.193-.84.51-.673 1.094-.722-2.356-2.171-1.528-2.32-.562-2.053l.142.041c.308.097.614.227.823.34 1.907-1.877.913.938 3.046.591.45-1.885-1.09-1.885-2.12-1.595.478-1.106-.359-1.6-.653-2.138 1.147-.041 2.797-.094 3.561.498.861-.494 2.366.408 2.109-.816-.532-.71-1.686-1.661 0-1.975.676 1.065 2.285 1.216 2.285-.567-1.106-3.68 1.943-1.371 3.794-.082.745 1.408 4.137.38 2.684.592-.012-.172.073-.637.036-.816.633-.413.62-.287.596-.15l-.009.054c-.006.053 0 .096.057.096l-.04-.478c-1.992.718-2.342.576-3.549-.844 2.048-1.037 2.475-1.457 0-1.632-.616-1.212 2.792-1.62 3.074-2.624 0-.995-1.139-.816-1.943-.816-3.545.339-4.885-2.542-.7-1.848.716-.135.406-.106.716-1.293a33.308 33.308 0 005.633-.306c-1.935-1.306 1.36-1.204 1.98-2.836.997 1.412 1.42-.326 2.414.816.338 0 .973-.657.973-.49.475.796.58 2.196.676 2.15-.414 1.384 1.119-.762 2.242.482-.43-3.488 1.094-1.065 2.265-.657.485-.15.514-.505.517-.861l.002-.193c.01-.382.083-.722.78-.757 2.395.122.053 1.754 2.572 2.656-.262-.245.523-2.073-.487-1.97 1.424-1.498 1.312-.27 2.346 0z" fill="#008D9A"/></g></svg>