<svg xmlns="http://www.w3.org/2000/svg" width="250" height="47.805" viewBox="0 0 250 47.805">
  <defs>
    <style>
      .cls-1 {
        fill: #eb1700;
      }
    </style>
  </defs>
  <path id="JNJ_IM_Logo_SingleLine_White_RGB" class="cls-1" d="M27.142,22.839c-2.331,0-3.633-2.209-3.633-6.2,0-4.054,1.3-6.2,3.633-6.2s3.633,2.179,3.633,6.2c0,4.054-1.306,6.2-3.633,6.2m0-14.071c-4.753,0-7.383,3.542-7.383,7.869s2.635,7.869,7.383,7.869,7.383-3.542,7.383-7.869S31.89,8.767,27.142,8.767m33.008,0a4.375,4.375,0,0,0-4.175,2.209h-.182V9.071H52.221V24.2h3.572V14.423c0-2.24,1.15-3.542,2.995-3.542,1.784,0,2.574,1.181,2.574,2.964V24.193h3.572V13.819c0-3.116-1.636-5.052-4.783-5.052m12.887,0c-3.3,0-5.781,1.393-5.781,4.358a4.391,4.391,0,0,0,3.663,4.358l3.025.755c1.606.395,2.331.968,2.331,2.24,0,1.545-1.089,2.422-2.995,2.422-2.057,0-3.116-1-3.451-3.511l-3.208.907c.182,2.6,2.6,4.206,6.263,4.206,4.084,0,6.294-1.905,6.294-4.931,0-2.843-1.966-4.024-4.024-4.54l-2.9-.725c-1.454-.365-2.088-1.029-2.088-2,0-1.211,1.029-1.936,2.574-1.936a2.842,2.842,0,0,1,3.086,2.9l3.025-.907c-.365-2.122-2.452-3.6-5.812-3.6M88.046,22.839c-2.331,0-3.633-2.209-3.633-6.2,0-4.054,1.3-6.2,3.633-6.2s3.633,2.179,3.633,6.2c0,4.054-1.3,6.2-3.633,6.2m0-14.071c-4.753,0-7.383,3.542-7.383,7.869s2.635,7.869,7.383,7.869,7.383-3.542,7.383-7.869-2.635-7.869-7.383-7.869m17.427,0a4.375,4.375,0,0,0-4.175,2.209h-.182V9.071H97.543V24.2h3.572V14.423c0-2.24,1.15-3.542,2.995-3.542,1.784,0,2.574,1.181,2.574,2.964V24.193h3.572V13.819c0-3.116-1.636-5.052-4.783-5.052m53.039,14.071c-2.331,0-3.633-2.209-3.633-6.2,0-4.054,1.3-6.2,3.633-6.2s3.633,2.179,3.633,6.2c0,4.054-1.3,6.2-3.633,6.2m0-14.071c-4.753,0-7.383,3.542-7.383,7.869s2.635,7.869,7.383,7.869,7.383-3.542,7.383-7.869-2.63-7.869-7.383-7.869m33.008,0a4.375,4.375,0,0,0-4.175,2.209h-.182V9.071H183.59V24.2h3.572V14.423c0-2.24,1.15-3.542,2.995-3.542,1.784,0,2.574,1.181,2.574,2.964V24.193H196.3V13.819c0-3.116-1.636-5.052-4.783-5.052m12.891,0c-3.3,0-5.781,1.393-5.781,4.358a4.391,4.391,0,0,0,3.663,4.358l3.025.755c1.6.395,2.331.968,2.331,2.24,0,1.545-1.089,2.422-2.995,2.422-2.057,0-3.116-1-3.451-3.511L198,20.3c.182,2.6,2.6,4.206,6.263,4.206,4.084,0,6.294-1.905,6.294-4.931,0-2.843-1.966-4.024-4.023-4.54l-2.9-.725c-1.454-.365-2.088-1.029-2.088-2,0-1.211,1.029-1.936,2.574-1.936a2.842,2.842,0,0,1,3.086,2.9l3.025-.907c-.365-2.122-2.452-3.6-5.812-3.6m15,14.071c-2.331,0-3.633-2.209-3.633-6.2,0-4.054,1.3-6.2,3.633-6.2s3.633,2.179,3.633,6.2c0,4.054-1.3,6.2-3.633,6.2m0-14.071c-4.753,0-7.383,3.542-7.383,7.869s2.635,7.869,7.383,7.869,7.383-3.542,7.383-7.869-2.63-7.869-7.383-7.869m17.427,0a4.375,4.375,0,0,0-4.175,2.209h-.182V9.071h-3.572V24.2h3.572V14.423c0-2.24,1.15-3.542,2.995-3.542,1.784,0,2.574,1.181,2.574,2.964V24.193h3.572V13.819c0-3.116-1.632-5.052-4.783-5.052M17.641,3.016H13.887V18.659c0,2.543-.968,4.054-3.268,4.054-2.27,0-3.268-1.6-3.268-4.358v-2.9l-3.75.942v1.3c0,3.963,1.966,6.992,7.023,6.992s7.018-3.025,7.018-6.992V3.016m22.57,0H36.639V24.2h3.572V14.423c0-2.24,1.15-3.542,2.995-3.542,1.784,0,2.574,1.181,2.574,2.964V24.193h3.568V13.819c0-3.116-1.636-5.052-4.783-5.052a4.375,4.375,0,0,0-4.175,2.209h-.182V3.016m108.8,0h-3.75V18.659c0,2.543-.968,4.054-3.268,4.054-2.27,0-3.268-1.6-3.268-4.358v-2.9l-3.75.938v1.3c0,3.963,1.966,6.992,7.023,6.992s7.018-3.025,7.018-6.992V3.016m22.566,0h-3.572V24.2h3.572V14.423c0-2.24,1.15-3.542,2.995-3.542,1.784,0,2.574,1.181,2.574,2.964V24.193h3.572V13.819c0-3.116-1.632-5.052-4.783-5.052a4.375,4.375,0,0,0-4.175,2.209h-.182V3.016M122.022,22.474A4.7,4.7,0,0,1,117.33,17.6a4.684,4.684,0,0,1,1.845-3.841l6.84,7.474a8.1,8.1,0,0,1-3.993,1.241m6.658-3.724-5.929-6.537a7.937,7.937,0,0,1,2.934-.573,3.6,3.6,0,0,1,3.963,3.872,5.942,5.942,0,0,1-.968,3.238m-6.749-7.413-1.3-1.454c-1.15-1.272-1.484-2.057-1.484-2.995a2.859,2.859,0,0,1,5.716.152,4.53,4.53,0,0,1-2.93,4.3m.182-8.807c-4.175,0-6.233,2.331-6.233,5.234,0,1.571.664,3.147,2.422,5.052l.03.061c-2.964,1.424-4.327,3.724-4.327,6.081a5.734,5.734,0,0,0,6.081,5.721,12.424,12.424,0,0,0,6.84-2.452l1.814,1.966h4.753v-.148l-3.872-4.267a9.644,9.644,0,0,0,2.574-5.9,3.669,3.669,0,0,0-3.963-3.841,10.975,10.975,0,0,0-3.633.725l-.061-.122c2.3-1.241,3.268-2.392,3.268-3.993,0-2.3-2.062-4.115-5.695-4.115M69.439,34.9H66.865L62.993,47.127,59.091,34.9H56.426l4.931,15.13H64.5L69.439,34.9m31.615,0H98.541v15.13h2.513Zm15.43,0H113.91l-3.872,12.227-3.9-12.227h-2.661l4.931,15.13h3.147l4.931-15.13m84.142,0h-2.513v15.13h2.513Zm21.6,0h-2.513v15.13h2.513ZM17.971,34.6a4.2,4.2,0,0,0-4.236,2.635V34.9H11.222v15.13h2.513V40.074c0-2.118,1.059-3.542,3.3-3.542,2.209,0,3.268,1.424,3.268,3.542v9.957h2.513V39.562A4.622,4.622,0,0,0,17.971,34.6m15.222,0a4.2,4.2,0,0,0-4.236,2.635V34.9H26.443v15.13h2.513V40.074c0-2.118,1.059-3.542,3.3-3.542,2.209,0,3.268,1.424,3.268,3.542v9.957h2.513V39.562A4.626,4.626,0,0,0,33.193,34.6m14.944,13.59c-2.543,0-4.3-1.814-4.3-5.721,0-3.932,1.723-5.721,4.3-5.721,2.543,0,4.3,1.784,4.3,5.721,0,3.9-1.693,5.721-4.3,5.721m.122-13.59c-4.54,0-7.049,3.329-7.049,8.051,0,4.779,2.574,7.687,6.81,7.687,4.57,0,7.053-3.329,7.053-8.051,0-4.783-2.548-7.687-6.814-7.687m28.863,13.92a2.6,2.6,0,0,1-2.9-2.661c0-1.424.816-2.118,2.543-2.543l1.845-.456a6.264,6.264,0,0,0,2.027-.664v2.934a3.225,3.225,0,0,1-3.511,3.39m.79-13.92c-3.663,0-5.933,2.209-6.111,4.844l2.331.486a3.351,3.351,0,0,1,3.6-3.39,2.577,2.577,0,0,1,2.9,2.813v.091c0,.725-.213,1.029-.877,1.211L75.4,41.741c-2.331.608-3.694,2.148-3.694,4.3,0,2.726,2.027,4.3,4.722,4.3,2.27,0,3.785-1.089,4.206-2.6a7.424,7.424,0,0,0,.3,2.3h2.574a10.053,10.053,0,0,1-.395-3.147V39.2c0-2.843-1.975-4.6-5.208-4.6m42.627,6.233c.334-2.661,1.693-4.175,4.084-4.175,2.27,0,3.6,1.363,3.663,4.175h-7.748m4.084-6.233c-3.993,0-6.78,2.813-6.78,7.991,0,4.961,2.574,7.748,6.78,7.748a5.8,5.8,0,0,0,6.172-4.931l-2.3-.6c-.395,2.543-1.754,3.42-3.633,3.42-2.995,0-4.327-2.209-4.418-5.6H130.82v-.846c.009-5.3-2.869-7.179-6.2-7.179m43.66,6.233c.334-2.661,1.693-4.175,4.084-4.175,2.27,0,3.6,1.363,3.663,4.175h-7.748m4.084-6.233c-3.993,0-6.78,2.813-6.78,7.991,0,4.961,2.574,7.748,6.78,7.748a5.8,5.8,0,0,0,6.172-4.931l-2.3-.6c-.395,2.543-1.753,3.42-3.633,3.42-2.995,0-4.327-2.209-4.418-5.6h10.378v-.846c.009-5.3-2.869-7.179-6.2-7.179m38.395,0c-4.145,0-6.962,2.9-6.962,8.021,0,5.022,2.752,7.717,6.84,7.717a5.838,5.838,0,0,0,6.2-5.386l-2.392-.577c-.425,2.843-1.632,3.815-3.633,3.815-2.9,0-4.388-2.118-4.388-5.751,0-3.78,1.571-5.69,4.267-5.69,1.905,0,3.3.938,3.75,3.633l2.392-.573a5.673,5.673,0,0,0-6.076-5.208m21.845,0a4.2,4.2,0,0,0-4.236,2.635V34.9h-2.513v15.13h2.513V40.074c0-2.118,1.059-3.542,3.3-3.542,2.209,0,3.268,1.424,3.268,3.542v9.957h2.513V39.562a4.624,4.624,0,0,0-4.844-4.965m10.712,6.233c.334-2.661,1.693-4.175,4.084-4.175,2.27,0,3.6,1.363,3.663,4.175h-7.748M247.4,34.6c-3.993,0-6.78,2.813-6.78,7.991,0,4.961,2.574,7.748,6.78,7.748a5.8,5.8,0,0,0,6.172-4.931l-2.3-.6c-.395,2.543-1.753,3.42-3.633,3.42-2.995,0-4.327-2.209-4.418-5.6H253.6v-.846c0-5.3-2.869-7.179-6.2-7.179M91.253,30.664l-2.513.6V34.9h-2.9v1.936h2.9v9.258c0,2.483,1.181,4.236,4.145,4.236a5.285,5.285,0,0,0,3.238-.938l-.694-1.814a4.18,4.18,0,0,1-2.209.634c-1.363,0-1.966-.816-1.966-2.513V36.836h4.479V34.9H91.253V30.664M7.294,28.846H4.659V50.026H7.294Zm154.82,0h-3.993l-6.263,17.066-6.294-17.066h-4.175V50.026h2.635V31.784l6.749,18.247H152.8l6.688-18.277V50.031h2.63V28.846m25.769,19.341c-2.483,0-4.145-1.784-4.145-5.721,0-3.963,1.667-5.721,4.145-5.721s4.145,1.753,4.145,5.721c0,3.932-1.662,5.721-4.145,5.721m6.6-19.341h-2.513V37.8a4.426,4.426,0,0,0-4.51-3.208c-3.39,0-6.354,2.665-6.354,7.96,0,5.356,2.964,7.778,6.142,7.778a4.71,4.71,0,0,0,4.722-3.359v1.15a10.982,10.982,0,0,0,.152,1.905h2.543a20.491,20.491,0,0,1-.182-3.147V28.846m-94.672-.451a1.767,1.767,0,0,0-1.784,1.784,1.742,1.742,0,0,0,1.784,1.754,1.717,1.717,0,0,0,1.753-1.754,1.739,1.739,0,0,0-1.753-1.784m99.572,0a1.767,1.767,0,0,0-1.784,1.784,1.742,1.742,0,0,0,1.784,1.754,1.717,1.717,0,0,0,1.754-1.754,1.739,1.739,0,0,0-1.754-1.784m21.6,0a1.767,1.767,0,0,0-1.784,1.784,1.742,1.742,0,0,0,1.784,1.754,1.717,1.717,0,0,0,1.754-1.754,1.739,1.739,0,0,0-1.754-1.784" transform="translate(-3.6 -2.53)"/>
</svg>
