<svg xmlns="http://www.w3.org/2000/svg" xmlns:xlink="http://www.w3.org/1999/xlink" width="181.17" height="39.5" viewBox="0 0 181.17 39.5"><defs><style>.cls-1{fill:url(#linear-gradient);}</style><linearGradient id="linear-gradient" x1="43.5" y1="-33.95" x2="142.13" y2="64.67" gradientUnits="userSpaceOnUse"><stop offset="0.02" stop-color="#e81d1d"/><stop offset="0.1" stop-color="#e8421d"/><stop offset="0.71" stop-color="#f5851f"/><stop offset="1" stop-color="#feb447"/></linearGradient></defs><g id="Layer_2" data-name="Layer 2"><g id="design"><path class="cls-1" d="M176.73,4.15h0A2.24,2.24,0,0,1,179,1.91a2.21,2.21,0,0,1,2.22,2.22h0a2.22,2.22,0,1,1-4.44,0Zm4.19,0h0a2,2,0,1,0-3.93,0h0a2,2,0,0,0,2,2A2,2,0,0,0,180.92,4.14ZM178.12,3h1c.46,0,.83.24.83.69a.68.68,0,0,1-.55.67l.63.87h-.45L179,4.4h-.54v.81h-.36Zm1,1.12c.32,0,.5-.16.5-.41s-.19-.39-.5-.39h-.6v.8ZM34.55,28.43A12.9,12.9,0,0,0,44.3,32.5c3.43,0,6.28-1,8.22-2.93s3-4.7,3-8.45V1.39a1,1,0,0,0-1-1H49.33a1,1,0,0,0-1,1V20.8c0,3.66-1.63,5.24-4.25,5.24A7.12,7.12,0,0,1,39,23.61a1,1,0,0,0-1.4,0l-3.11,3.46A1,1,0,0,0,34.55,28.43ZM58,20.08V20c0-7,5.6-12.61,13.15-12.61S84.22,12.94,84.22,19.9V20c0,7-5.61,12.61-13.15,12.61S58,27,58,20.08Zm19.43,0V20a6.44,6.44,0,0,0-6.37-6.69c-3.93,0-6.28,3-6.28,6.6V20a6.43,6.43,0,0,0,6.37,6.69C75.09,26.68,77.44,23.65,77.44,20.08Zm30.65,0V20c0-6.92,4.92-12.61,12-12.61,8.09,0,11.8,6.28,11.8,13.15,0,.28,0,.58,0,.9a1,1,0,0,1-1,.91h-16a5.62,5.62,0,0,0,5.92,4.74,7.64,7.64,0,0,0,5.26-1.94,1,1,0,0,1,1.25,0l2.57,2.28a1,1,0,0,1,.07,1.39,12.2,12.2,0,0,1-9.24,3.77C113.46,32.6,108.09,27.49,108.09,20.08Zm17.08-2c-.41-3.07-2.22-5.15-5.11-5.15s-4.7,2-5.24,5.15Zm9.58-9.24V31.09a1,1,0,0,0,1,1h4.94a1,1,0,0,0,1-1V18.54c0-3.25,2-5.71,4.67-5.71s3.78,1.31,3.78,4.57V31.09a1,1,0,0,0,1,1H156a1,1,0,0,0,1-1V16.37c0-5.56-3-9-8.23-9-3.48,0-5.51,1.85-7.09,3.89V8.8a1,1,0,0,0-1-1h-4.94A1,1,0,0,0,134.75,8.8Zm35.74,23.66a10.34,10.34,0,0,0,4.89-1.1,1,1,0,0,0,.53-.87V27a1,1,0,0,0-1.27-.91,7.24,7.24,0,0,1-2.12.31c-1.53,0-2.21-.76-2.21-2.35V13.71H175a1,1,0,0,0,1-1V8.8a1,1,0,0,0-1-1h-4.73V2.61a1,1,0,0,0-1-1h-4.93a1,1,0,0,0-1,1V7.83h-2.57a1,1,0,0,0-1,1v3.94a1,1,0,0,0,1,1h2.57V25.18C163.44,30.79,166.29,32.46,170.49,32.46ZM16.3,0A16.31,16.31,0,1,0,32.61,16.3,16.3,16.3,0,0,0,16.3,0ZM26.5,18.6a.72.72,0,0,1-.72.72H19.32v6.46a.72.72,0,0,1-.72.72H14a.72.72,0,0,1-.72-.72V19.32H6.82a.72.72,0,0,1-.72-.72V14a.72.72,0,0,1,.72-.72h6.47V6.82A.72.72,0,0,1,14,6.1H18.6a.72.72,0,0,1,.72.72v6.47h6.46a.72.72,0,0,1,.72.72Zm81-10.77h-5a1,1,0,0,0-.92.67l-5,15.63L91.46,8.49a1,1,0,0,0-.92-.66H85.06a1,1,0,0,0-.9,1.32l8.75,22.42c.41,1-.43,2.15-2,2.15a15.24,15.24,0,0,1-3.14-.38,1,1,0,0,0-1.28.91v3.49a1,1,0,0,0,.54.87,10.84,10.84,0,0,0,5,.89c4.32,0,5.76-2.75,7.5-6.86l8.82-23.5A1,1,0,0,0,107.47,7.83Z"/></g></g></svg>