<?xml version="1.0" encoding="UTF-8"?>
<svg width="383px" height="89px" viewBox="0 0 383 89" version="1.1" xmlns="http://www.w3.org/2000/svg" xmlns:xlink="http://www.w3.org/1999/xlink">
    <title>kl-logo-tagline-cyan</title>
    <g id="kl-logo-tagline-cyan" stroke="none" stroke-width="1" fill="none" fill-rule="evenodd">
        <g id="KLOVE-logo-2013-tag-CMYK" transform="translate(0.000000, 0.523000)" fill="#00AEEF">
            <polyline id="Fill-23" points="273.648 86.172 288.483 86.172 322.487 1.294 300.441 1.303 281.188 51.208 261.949 1.334 239.473 1.334 273.648 86.172"></polyline>
            <polyline id="Fill-24" points="326.073 86.156 382.929 86.156 382.929 66.452 346.631 66.452 346.631 53.658 382.076 53.658 382.076 33.832 346.631 33.832 346.631 21.038 382.806 21.038 382.806 1.334 326.073 1.334 326.073 86.156"></polyline>
            <polygon id="Fill-25" points="0 86.156 20.434 86.156 20.434 1.334 0 1.334"></polygon>
            <polyline id="Fill-26" points="46.466 43.506 46.559 43.385 78.23 1.334 52.826 1.334 21.229 44.096 54.526 86.156 81.082 86.156 46.466 43.506"></polyline>
            <path d="M203.091,0 C181.026,0 162.803,16.347 159.81,37.586 C161.417,37.784 168.836,38.573 179.714,37.916 C182.32,27.421 191.789,19.636 203.091,19.636 C216.402,19.636 227.193,30.427 227.193,43.739 C227.193,57.05 216.402,67.841 203.091,67.841 C192.014,67.841 182.688,60.366 179.868,50.187 C197.481,46.482 209.016,37.791 213.789,32.122 C213.789,32.122 201.46,39.35 179.951,40.857 L179.95,40.861 C179.902,40.863 179.857,40.865 179.809,40.867 C179.591,40.882 179.379,40.9 179.159,40.914 C179.16,40.907 179.161,40.901 179.162,40.894 C168.217,41.372 161.097,40.644 159.488,40.453 C159.488,40.456 159.488,40.458 159.487,40.461 C151.386,39.606 141.509,37.875 131.943,34.888 C129.084,33.995 126.304,33.243 123.595,32.604 L123.595,1.334 L103.201,1.334 L103.201,29.868 C76.86,29.173 60.61,40.489 55.385,47.101 C55.385,47.101 72.203,37.377 103.201,41.046 L103.201,86.137 L160.409,86.137 L160.409,66.471 L123.595,66.471 L123.595,45.075 C125.485,45.591 127.396,46.137 129.358,46.752 C140.251,50.17 151.191,51.705 160.129,51.929 C163.965,72.168 181.735,87.477 203.091,87.477 C227.247,87.477 246.829,67.895 246.829,43.739 C246.829,19.583 227.247,0 203.091,0" id="Fill-27"></path>
        </g>
    </g>
</svg>