<svg xmlns="http://www.w3.org/2000/svg" width="233.819" height="33.254" viewBox="0 0 233.819 33.254"><g transform="translate(-13 13.944)"><path d="M62.155,7.372a14.827,14.827,0,0,0-9.721,3.274.5.5,0,0,0-.034.726l3.341,3.341a.487.487,0,0,0,.624.051A9.029,9.029,0,0,1,62,13.025a9.174,9.174,0,1,1-5.637,16.589.487.487,0,0,0-.624.051L52.4,33.007a.5.5,0,0,0,.034.726A14.826,14.826,0,1,0,62.155,7.372Z" transform="translate(-32.634 -17.714)" fill="#0a1b5f"/><g transform="translate(13 -5.945)"><path d="M21.641,49.87a.485.485,0,0,0,.051-.624,9.134,9.134,0,0,1,0-10.767.487.487,0,0,0-.051-.624L17.388,33.6a.5.5,0,0,0-.726.034,16.135,16.135,0,0,0,0,20.471.5.5,0,0,0,.726.034Z" transform="translate(-13 -33.459)" fill="#0061ff"/></g><g transform="translate(48.592 -13.944)"><path d="M612.5-13.937Z" transform="translate(-546.919 13.944)" fill="#0a1b5f"/><path d="M249.079,19.775a8.951,8.951,0,0,0-.692-2.093,11.55,11.55,0,0,0-1.2-1.991A8.04,8.04,0,0,0,245.417,14a8.787,8.787,0,0,0-2.4-1.164,10.226,10.226,0,0,0-3.071-.439H224.761a.864.864,0,0,0-.861.861V39.385a.864.864,0,0,0,.861.861h3.325a.864.864,0,0,0,.861-.861V33.411h11a9.453,9.453,0,0,0,1.991-.219,9.87,9.87,0,0,0,4.084-1.873,8.041,8.041,0,0,0,1.688-1.772,8.555,8.555,0,0,0,1.164-2.4,10.278,10.278,0,0,0,.422-3.088v-2.3a12.368,12.368,0,0,0-.219-1.991Zm-4.843,4.287a4.693,4.693,0,0,1-.3,1.738,3.915,3.915,0,0,1-.878,1.316,3.856,3.856,0,0,1-1.35.861,5.692,5.692,0,0,1-1.755.405h-11V17.446h11a4.4,4.4,0,0,1,1.755.321,3.925,3.925,0,0,1,1.3.878,3.986,3.986,0,0,1,.844,1.367,6.861,6.861,0,0,1,.405,1.755l-.017,2.3Z" transform="translate(-223.9 -7.954)" fill="#0a1b5f"/><path d="M615.863,12.4Z" transform="translate(-549.708 -7.954)" fill="#0a1b5f"/><path d="M589.916,39.267a1,1,0,0,1-1,1h-2.9a1.01,1.01,0,0,1-.709-.3L569.546,21.142V39.385a.864.864,0,0,1-.861.861h-3.325a.864.864,0,0,1-.861-.861V13.261a.864.864,0,0,1,.861-.861h2.987a1.01,1.01,0,0,1,.709.3l15.8,18.868V13.261a.864.864,0,0,1,.861-.861h3.325a.864.864,0,0,1,.861.861V39.267Z" transform="translate(-507.02 -7.954)" fill="#0a1b5f"/><path d="M1110.5,39.267a1,1,0,0,1-1,1h-2.9a1.01,1.01,0,0,1-.709-.3l-15.745-18.817V39.385a.864.864,0,0,1-.861.861h-3.325a.864.864,0,0,1-.861-.861V13.261a.864.864,0,0,1,.861-.861h2.987a1.01,1.01,0,0,1,.709.3l15.779,18.868V13.261a.864.864,0,0,1,.861-.861h3.325a.864.864,0,0,1,.861.861V39.267Z" transform="translate(-939.762 -7.954)" fill="#0a1b5f"/><path d="M423.607,35.2H406.663V28.871h14.665a.864.864,0,0,0,.861-.861V24.652a.864.864,0,0,0-.861-.861H406.663V17.446h16.944a.864.864,0,0,0,.861-.861h0V13.261a.864.864,0,0,0-.861-.861H402.461a.864.864,0,0,0-.861.861V39.385a.864.864,0,0,0,.861.861H423.59a.864.864,0,0,0,.861-.861V36.06A.819.819,0,0,0,423.607,35.2Z" transform="translate(-371.611 -7.954)" fill="#0a1b5f"/><path d="M929.073,12.4H921.04a14.517,14.517,0,0,0-5.552,1.029,13.607,13.607,0,0,0-4.422,2.869,13.219,13.219,0,0,0-2.92,4.4,14.491,14.491,0,0,0-1.046,5.62V39.385a.864.864,0,0,0,.861.861H911.3a.864.864,0,0,0,.861-.861V33.428h15.324V39.4a.864.864,0,0,0,.861.861h3.325a.864.864,0,0,0,.861-.861V13.261a.864.864,0,0,0-.861-.861Zm-1.62,15.965H912.146V26.323a9.927,9.927,0,0,1,.591-3.612,7.787,7.787,0,0,1,1.5-2.481,7.23,7.23,0,0,1,2.008-1.553,10.768,10.768,0,0,1,3.8-1.164c.506-.051.827-.068.979-.068h6.43Z" transform="translate(-791.802 -7.954)" fill="#0a1b5f"/><path d="M1284.99,35.2h-16.927V28.871h14.665a.864.864,0,0,0,.861-.861V24.652a.864.864,0,0,0-.861-.861h-14.665V17.446h16.944a.864.864,0,0,0,.861-.861h0V13.261a.864.864,0,0,0-.861-.861h-21.146a.864.864,0,0,0-.861.861V39.385a.864.864,0,0,0,.861.861h21.129a.864.864,0,0,0,.861-.861V36.06A.843.843,0,0,0,1284.99,35.2Z" transform="translate(-1087.64 -7.954)" fill="#0a1b5f"/><path d="M764.777,35.2H747.546V13.261a.864.864,0,0,0-.861-.861h-3.325a.864.864,0,0,0-.861.861V39.385a.864.864,0,0,0,.861.861h21.433a.864.864,0,0,0,.861-.861h0V36.06A.879.879,0,0,0,764.777,35.2Z" transform="translate(-654.98 -7.954)" fill="#0a1b5f"/></g></g></svg>