<?xml version="1.0" encoding="utf-8"?>
<!-- Generator: Adobe Illustrator 26.1.0, SVG Export Plug-In . SVG Version: 6.00 Build 0)  -->
<svg version="1.1" id="Layer_1" xmlns="http://www.w3.org/2000/svg" xmlns:xlink="http://www.w3.org/1999/xlink" x="0px" y="0px"
	 viewBox="0 0 614.62 154.73" style="enable-background:new 0 0 614.62 154.73;" xml:space="preserve">
<style type="text/css">
	.st0{clip-path:url(#SVGID_00000126280958434291375320000008004370142617572996_);}
	.st1{clip-path:url(#SVGID_00000047037073387976550580000013239748185148319155_);fill:#F1E029;}
	.st2{clip-path:url(#SVGID_00000047037073387976550580000013239748185148319155_);fill:#231F20;}
	.st3{clip-path:url(#SVGID_00000137847321329759667160000000214340775090976165_);}
	.st4{clip-path:url(#SVGID_00000161606948389755416240000007163794369799726982_);fill:#FFFFFF;}
	.st5{clip-path:url(#SVGID_00000061462700048657434240000000284950105131002754_);fill:#FFFFFF;}
</style>
<g>
	<g id="Logo_Horizontal_Yellow_RGB_00000172423747465595846270000004326123520607164590_">
		<g>
			<defs>
				<rect id="SVGID_1_" x="11.91" y="8.81" width="582.95" height="98.93"/>
			</defs>
			<clipPath id="SVGID_00000114764126149727546630000005787558266956709551_">
				<use xlink:href="#SVGID_1_"  style="overflow:visible;"/>
			</clipPath>
			<g style="clip-path:url(#SVGID_00000114764126149727546630000005787558266956709551_);">
				<defs>
					<rect id="SVGID_00000047769797366706374560000009566439382956776330_" x="11.91" y="8.81" width="582.95" height="98.93"/>
				</defs>
				<clipPath id="SVGID_00000005983014239132184960000008409967518789402005_">
					<use xlink:href="#SVGID_00000047769797366706374560000009566439382956776330_"  style="overflow:visible;"/>
				</clipPath>
				<path style="clip-path:url(#SVGID_00000005983014239132184960000008409967518789402005_);fill:#F1E029;" d="M104.44,47.23
					c-3.4-7.06-8.64-12.45-17.85-14.16c-1.7-9.21-7.09-14.45-14.15-17.86c-8.65-4.17-8.56-6.4-11.04-6.4c-2.49,0-2.4,2.23-11.05,6.4
					c-7.06,3.41-12.45,8.65-14.15,17.86c-9.23,1.7-14.47,7.09-17.88,14.16c-4.17,8.65-6.4,8.56-6.4,11.05c0,2.49,2.23,2.4,6.4,11.05
					c3.41,7.07,8.65,12.46,17.88,14.16c1.7,9.21,7.09,14.45,14.15,17.86c8.65,4.17,8.56,6.4,11.05,6.4c2.49,0,2.4-2.23,11.04-6.4
					c7.06-3.41,12.45-8.65,14.15-17.86c9.21-1.7,14.45-7.09,17.85-14.16c4.17-8.65,6.4-8.56,6.4-11.05
					C110.84,55.79,108.61,55.88,104.44,47.23 M52.14,21.37c7.88-0.49,7.17-4.82,9.21-4.82h0.07c2.04,0,1.34,4.33,9.22,4.82
					c5.86,0.37,10.17,4.64,12.06,11.23c-0.87-0.06-1.77-0.09-2.7-0.09c-7.34,0-13.94,3.08-18.62,8c-4.69-4.92-11.29-8-18.62-8
					c-0.93,0-1.81,0.03-2.68,0.09C41.98,26.01,46.28,21.73,52.14,21.37 M83.77,40.7c0,5.89-2.71,11.51-6.89,15.64
					c-2.7-2.04-5.81-3.55-9.2-4.39c-0.84-3.37-2.35-6.47-4.38-9.16c4.13-4.19,9.76-6.9,15.65-6.9c1.58,0,3.07,0.12,4.5,0.32
					C83.66,37.64,83.77,39.13,83.77,40.7 M83.77,75.85c0,1.57-0.11,3.07-0.32,4.5c-1.43,0.2-2.93,0.32-4.5,0.32
					c-5.89,0-11.52-2.71-15.65-6.9c2.03-2.7,3.54-5.8,4.38-9.17c3.38-0.84,6.49-2.35,9.19-4.39C81.06,64.34,83.77,69.96,83.77,75.85
					 M39.01,75.85c0-5.89,2.71-11.51,6.89-15.64c2.7,2.03,5.8,3.54,9.17,4.38c0.85,3.37,2.35,6.48,4.38,9.17
					c-4.13,4.19-9.76,6.9-15.65,6.9c-1.57,0-3.05-0.11-4.48-0.31C39.12,78.92,39.01,77.42,39.01,75.85 M39.01,40.7
					c0-1.57,0.12-3.07,0.31-4.5c1.43-0.2,2.91-0.31,4.48-0.31c5.89,0,11.52,2.72,15.65,6.9c-2.03,2.7-3.53,5.8-4.38,9.17
					c-3.37,0.85-6.47,2.35-9.17,4.39C41.72,52.21,39.01,46.59,39.01,40.7 M66.12,58.21v0.07v0.07c0,1.43-0.16,2.84-0.47,4.22
					c-1.37,0.3-2.77,0.46-4.2,0.46h-0.07h-0.07c-1.43,0-2.84-0.16-4.23-0.47c-0.3-1.38-0.46-2.79-0.46-4.21v-0.07v-0.07
					c0-1.43,0.16-2.84,0.47-4.22c1.38-0.3,2.79-0.47,4.22-0.47h0.07h0.07c1.42,0,2.83,0.16,4.2,0.46
					C65.95,55.37,66.12,56.78,66.12,58.21 M61.43,51.15h-0.08c-1.19,0-2.35,0.11-3.5,0.27c0.82-2.29,2.02-4.45,3.53-6.39
					c1.5,1.94,2.71,4.1,3.53,6.39C63.76,51.26,62.61,51.15,61.43,51.15 M54.53,54.74c-0.16,1.14-0.27,2.31-0.27,3.49v0.08
					c0,1.19,0.11,2.35,0.27,3.49c-2.29-0.82-4.45-2.03-6.4-3.53C50.07,56.77,52.23,55.56,54.53,54.74 M57.84,65.13
					c1.15,0.16,2.31,0.27,3.5,0.27h0.08c1.18,0,2.34-0.11,3.47-0.26c-0.82,2.3-2.02,4.45-3.53,6.4
					C59.87,69.58,58.66,67.43,57.84,65.13 M68.22,61.82c0.16-1.15,0.27-2.31,0.27-3.5v-0.08c0-1.19-0.11-2.35-0.27-3.51
					c2.31,0.82,4.48,2.03,6.43,3.54C72.7,59.79,70.53,61,68.22,61.82 M24.47,67.53c-0.49-7.87-4.82-7.17-4.82-9.21v-0.07
					c0-2.04,4.33-1.34,4.82-9.22c0.37-5.87,4.65-10.17,11.24-12.06c-0.06,0.87-0.09,1.76-0.09,2.7c0,7.33,3.08,13.93,8,18.62
					c-4.92,4.69-8,11.29-8,18.62c0,0.94,0.04,1.83,0.09,2.7C29.12,77.7,24.83,73.4,24.47,67.53 M70.64,95.18
					c-7.88,0.49-7.18,4.82-9.22,4.82h-0.07c-2.04,0-1.34-4.33-9.21-4.82c-5.86-0.37-10.16-4.64-12.06-11.22
					c0.86,0.06,1.75,0.09,2.67,0.09c7.33,0,13.93-3.08,18.62-8c4.68,4.92,11.28,8,18.62,8c0.93,0,1.83-0.04,2.7-0.09
					C80.8,90.54,76.5,94.81,70.64,95.18 M103.11,58.31c0,2.04-4.33,1.34-4.82,9.21c-0.37,5.86-4.64,10.17-11.22,12.06
					c0.06-0.87,0.09-1.76,0.09-2.7c0-7.33-3.08-13.93-8-18.62c4.92-4.69,8-11.28,8-18.62c0-0.93-0.04-1.82-0.09-2.69
					c6.58,1.89,10.85,6.2,11.22,12.05c0.49,7.88,4.82,7.18,4.82,9.22V58.31z"/>
				<path style="clip-path:url(#SVGID_00000005983014239132184960000008409967518789402005_);fill:#231F20;" d="M141.67,50.13
					c0-4.98-0.09-5.74-2.85-5.98l-1.18-0.1c-0.29-0.19-0.19-1.04,0.09-1.18c2.33,0.09,3.85,0.14,5.98,0.14
					c1.85,0,3.47-0.05,5.51-0.14c0.28,0.14,0.38,1,0.09,1.18l-0.9,0.1c-2.75,0.28-2.85,1-2.85,5.98v5.46c0,0.9,0.1,1.8,0.62,1.8
					c0.42,0,1-0.28,1.33-0.52c0.67-0.57,1.9-1.8,2.42-2.28l5.13-5.08c0.9-0.85,3.23-3.28,3.7-3.94c0.24-0.33,0.33-0.57,0.33-0.76
					c0-0.19-0.19-0.33-0.81-0.47L157,44.05c-0.33-0.33-0.28-0.95,0.1-1.18c1.66,0.09,3.56,0.14,5.22,0.14c1.66,0,3.27-0.05,4.7-0.14
					c0.34,0.24,0.38,0.9,0.1,1.18c-1.24,0.1-3.09,0.57-4.42,1.33c-1.33,0.76-3.99,2.99-6.65,5.51l-4.27,4.04
					c-0.66,0.66-1.09,1.09-1.09,1.47c0,0.33,0.28,0.71,0.9,1.47c4.51,5.17,8.17,9.45,11.87,13.34c1.14,1.14,2.18,1.76,3.8,1.94
					l1.28,0.14c0.33,0.24,0.24,1.04-0.09,1.18c-1.24-0.09-3.09-0.14-5.32-0.14c-1.95,0-3.61,0.05-5.79,0.14
					c-0.34-0.09-0.48-0.9-0.19-1.18l1.09-0.19c0.67-0.1,1.14-0.24,1.14-0.48c0-0.28-0.33-0.67-0.66-1.09
					c-0.9-1.14-2.14-2.42-3.94-4.46l-3.8-4.27c-2.71-3.04-3.47-3.99-4.61-3.99c-0.71,0-0.81,0.62-0.81,2.28v6.13
					c0,4.98,0.1,5.65,2.76,5.93l1.28,0.14c0.28,0.19,0.19,1.04-0.09,1.18c-2.33-0.09-3.94-0.14-5.79-0.14
					c-1.94,0-3.56,0.05-5.51,0.14c-0.28-0.14-0.38-0.85-0.1-1.18l0.95-0.14c2.52-0.38,2.61-0.95,2.61-5.93V50.13z"/>
				<path style="clip-path:url(#SVGID_00000005983014239132184960000008409967518789402005_);fill:#231F20;" d="M183.44,50.13
					c0-4.94-0.09-5.65-2.9-5.98l-0.76-0.1c-0.28-0.19-0.19-1.04,0.09-1.18c2.04,0.09,3.66,0.14,5.6,0.14h8.93
					c3.04,0,5.84,0,6.41-0.14c0.28,0.81,0.57,4.22,0.76,6.31c-0.19,0.28-0.95,0.38-1.19,0.09c-0.71-2.23-1.14-3.89-3.61-4.51
					c-1-0.23-2.52-0.28-4.6-0.28h-3.42c-1.42,0-1.42,0.09-1.42,1.9v9.5c0,1.33,0.14,1.33,1.57,1.33h2.75c2,0,3.47-0.09,4.04-0.28
					c0.57-0.19,0.9-0.48,1.14-1.66l0.38-1.94c0.24-0.29,1.04-0.29,1.23,0.05c0,1.14-0.19,2.99-0.19,4.8c0,1.71,0.19,3.51,0.19,4.56
					c-0.19,0.33-1,0.33-1.23,0.05l-0.43-1.85c-0.19-0.85-0.52-1.57-1.47-1.8c-0.66-0.19-1.8-0.24-3.66-0.24h-2.75
					c-1.42,0-1.57,0.05-1.57,1.28v6.69c0,2.52,0.14,4.13,0.9,4.94c0.57,0.57,1.57,1.09,5.75,1.09c3.65,0,5.03-0.19,6.08-0.71
					c0.85-0.47,2.14-2.14,3.37-4.6c0.33-0.24,1-0.09,1.19,0.33c-0.33,1.66-1.52,5.32-2.14,6.6c-4.27-0.09-8.5-0.14-12.73-0.14h-4.27
					c-2.04,0-3.66,0.05-6.46,0.14c-0.28-0.14-0.38-0.9-0.09-1.18l1.57-0.14c2.71-0.24,2.94-0.95,2.94-5.93V50.13z"/>
				<path style="clip-path:url(#SVGID_00000005983014239132184960000008409967518789402005_);fill:#231F20;" d="M247.62,66.27
					c0,1.42,0,7.07,0.14,8.31c-0.09,0.29-0.38,0.52-0.9,0.52c-0.57-0.81-1.95-2.47-6.08-7.17L229.77,55.4
					c-1.28-1.47-4.51-5.36-5.51-6.41h-0.1c-0.19,0.57-0.24,1.66-0.24,3.09v10.35c0,2.23,0.05,8.4,0.85,9.83
					c0.28,0.52,1.23,0.81,2.42,0.9l1.47,0.14c0.29,0.38,0.24,0.95-0.09,1.19c-2.14-0.09-3.8-0.14-5.55-0.14
					c-2,0-3.28,0.05-4.94,0.14c-0.33-0.24-0.38-0.9-0.1-1.19l1.28-0.14c1.09-0.14,1.85-0.43,2.09-0.95c0.67-1.71,0.62-7.5,0.62-9.78
					V48.7c0-1.33-0.05-2.33-1.04-3.42c-0.66-0.67-1.8-1-2.94-1.14l-0.81-0.1c-0.28-0.28-0.28-1,0.09-1.19
					c1.99,0.14,4.51,0.14,5.36,0.14c0.76,0,1.57-0.05,2.19-0.14c0.95,2.42,6.55,8.69,8.12,10.45l4.61,5.18
					c3.28,3.66,5.6,6.31,7.83,8.59h0.1c0.19-0.24,0.19-1,0.19-1.99V54.93c0-2.23-0.05-8.4-0.95-9.83c-0.28-0.43-1.04-0.71-2.94-0.95
					l-0.81-0.1c-0.33-0.28-0.28-1.04,0.09-1.19c2.18,0.1,3.8,0.14,5.6,0.14c2.04,0,3.28-0.05,4.89-0.14
					c0.38,0.24,0.38,0.9,0.09,1.19l-0.67,0.1c-1.52,0.24-2.47,0.62-2.66,1c-0.81,1.71-0.71,7.6-0.71,9.78V66.27z"/>
				<path style="clip-path:url(#SVGID_00000005983014239132184960000008409967518789402005_);fill:#231F20;" d="M267.56,49.18
					c0-3.32-0.24-4.32-2.23-4.61l-1.05-0.14c-0.38-0.23-0.42-0.99,0.05-1.18c4.04-0.24,7.88-0.38,11.92-0.38
					c3.99,0,7.36,0.29,10.45,1.43c6.41,2.33,9.64,7.74,9.64,14c0,6.03-2.9,11.21-8.31,14.15c-3.09,1.66-6.98,2.28-10.64,2.28
					c-3.04,0-6.08-0.38-7.74-0.38c-1.99,0-3.7,0.05-5.94,0.14c-0.28-0.14-0.38-0.9-0.09-1.19l1.09-0.14
					c2.75-0.38,2.85-0.95,2.85-5.93V49.18z M271.45,66.13c0,2.52,0.14,4.03,0.95,5.18c1.04,1.47,2.85,1.95,5.84,1.95
					c9.21,0,13.34-6.03,13.34-14.86c0-5.22-2.52-14.05-14.95-14.05c-2.8,0-4.32,0.38-4.7,0.67c-0.38,0.28-0.47,1.47-0.47,3.61V66.13
					z"/>
				<path style="clip-path:url(#SVGID_00000005983014239132184960000008409967518789402005_);fill:#231F20;" d="M312.18,50.18
					c0-4.51-0.14-5.32-2.09-5.56l-1.52-0.19c-0.33-0.23-0.33-0.99,0.05-1.19c2.66-0.24,5.94-0.38,10.59-0.38
					c2.94,0,5.74,0.24,7.93,1.43c2.28,1.18,3.94,3.32,3.94,6.64c0,4.51-3.56,6.98-5.94,7.93c-0.24,0.28,0,0.76,0.24,1.14
					c3.8,6.13,6.32,9.92,9.54,12.63c0.81,0.71,2,1.23,3.28,1.33c0.24,0.1,0.28,0.48,0.05,0.67c-0.42,0.14-1.18,0.24-2.09,0.24
					c-4.04,0-6.46-1.18-9.83-5.98c-1.24-1.76-3.18-5.03-4.65-7.17c-0.71-1.04-1.47-1.52-3.37-1.52c-2.14,0-2.23,0.05-2.23,1.04v5.98
					c0,4.98,0.1,5.56,2.85,5.94l0.99,0.14c0.28,0.24,0.19,1.04-0.09,1.19c-2.14-0.09-3.75-0.14-5.65-0.14c-2,0-3.7,0.05-5.94,0.14
					c-0.28-0.14-0.38-0.85-0.09-1.19l1.18-0.14c2.76-0.33,2.85-0.95,2.85-5.94V50.18z M316.07,56.97c0,0.85,0,1.38,0.14,1.57
					c0.14,0.14,0.85,0.24,3.27,0.24c1.71,0,3.51-0.19,4.89-1.24c1.29-1,2.38-2.66,2.38-5.89c0-3.75-2.33-7.31-7.6-7.31
					c-2.94,0-3.09,0.19-3.09,1.52V56.97z"/>
				<path style="clip-path:url(#SVGID_00000005983014239132184960000008409967518789402005_);fill:#231F20;" d="M365.53,63.33
					c-0.33-1.04-0.52-1.19-1.95-1.19h-7.17c-1.19,0-1.47,0.14-1.8,1.14l-1.66,4.98c-0.71,2.14-1.04,3.42-1.04,3.94
					c0,0.57,0.24,0.85,1.38,0.95l1.57,0.14c0.33,0.24,0.33,1-0.09,1.19c-1.24-0.09-2.71-0.09-4.94-0.14c-1.57,0-3.28,0.09-4.56,0.14
					c-0.28-0.19-0.38-0.95-0.09-1.19l1.57-0.14c1.14-0.09,2.19-0.62,2.85-2.33c0.86-2.18,2.18-5.27,4.18-10.59l4.84-12.82
					c0.67-1.71,0.95-2.61,0.81-3.37c1.14-0.33,1.95-1.18,2.47-1.8c0.28,0,0.62,0.09,0.71,0.42c0.62,2.09,1.38,4.27,2.09,6.37
					l6.5,19.09c1.38,4.08,1.99,4.79,4.04,5.03l1.28,0.14c0.33,0.24,0.24,1,0,1.19c-1.94-0.09-3.61-0.14-5.74-0.14
					c-2.28,0-4.08,0.09-5.46,0.14c-0.38-0.19-0.43-0.95-0.09-1.19l1.38-0.14c1-0.09,1.66-0.38,1.66-0.85c0-0.52-0.24-1.38-0.62-2.52
					L365.53,63.33z M356.13,59.1c-0.38,1.09-0.33,1.14,1,1.14h5.84c1.38,0,1.47-0.19,1.05-1.47l-2.56-7.74
					c-0.38-1.14-0.81-2.42-1.09-2.99h-0.09c-0.14,0.24-0.62,1.38-1.14,2.8L356.13,59.1z"/>
				<path style="clip-path:url(#SVGID_00000005983014239132184960000008409967518789402005_);fill:#231F20;" d="M415.38,75.1
					c-3.99,0-6.51-1.24-7.41-1.76c-0.57-1.05-1.19-4.42-1.28-6.65c0.24-0.33,0.95-0.43,1.14-0.14c0.71,2.42,2.66,7.07,8.17,7.07
					c3.99,0,5.94-2.61,5.94-5.46c0-2.09-0.43-4.42-3.89-6.65l-4.51-2.94c-2.37-1.57-5.13-4.27-5.13-8.17c0-4.51,3.51-8.17,9.69-8.17
					c1.47,0,3.18,0.28,4.42,0.62c0.62,0.19,1.28,0.28,1.66,0.28c0.42,1.14,0.85,3.8,0.85,5.79c-0.19,0.28-0.95,0.43-1.19,0.14
					c-0.62-2.28-1.9-5.37-6.46-5.37c-4.65,0-5.65,3.09-5.65,5.27c0,2.75,2.28,4.75,4.04,5.84l3.8,2.37c2.99,1.85,5.93,4.6,5.93,9.11
					C425.49,71.54,421.55,75.1,415.38,75.1"/>
				<path style="clip-path:url(#SVGID_00000005983014239132184960000008409967518789402005_);fill:#231F20;" d="M445.04,46.28
					c3.46-2.71,7.88-4.03,12.82-4.03c2.56,0,6.17,0.52,8.4,1.14c0.57,0.14,0.9,0.24,1.33,0.19c0.05,1.09,0.28,4.08,0.66,6.98
					c-0.24,0.33-0.95,0.38-1.28,0.1c-0.71-3.23-2.85-6.93-9.73-6.93c-7.27,0-13.44,4.61-13.44,14.43c0,9.97,6.31,15.48,14.1,15.48
					c6.12,0,8.83-3.99,9.92-6.79c0.33-0.24,1.04-0.14,1.24,0.19c-0.33,2.47-1.57,5.6-2.28,6.51c-0.57,0.09-1.14,0.28-1.66,0.48
					c-1.04,0.38-4.46,1.09-7.5,1.09c-4.28,0-8.36-0.85-11.82-3.18c-3.8-2.61-6.74-6.93-6.74-13.06
					C439.06,53.6,441.43,49.09,445.04,46.28"/>
				<path style="clip-path:url(#SVGID_00000005983014239132184960000008409967518789402005_);fill:#231F20;" d="M481.21,59.01
					c0-9.49,7.12-16.76,16.9-16.76c10.97,0,16.47,7.93,16.47,16.28c0,9.59-7.31,16.57-16.47,16.57
					C487.57,75.1,481.21,67.56,481.21,59.01 M509.84,60.01c0-7.83-3.47-16.28-12.53-16.28c-4.94,0-11.35,3.37-11.35,13.77
					c0,7.03,3.42,16.14,12.77,16.14C504.43,73.63,509.84,69.36,509.84,60.01"/>
				<path style="clip-path:url(#SVGID_00000005983014239132184960000008409967518789402005_);fill:#231F20;" d="M541.83,67.22
					c0,4.98,0.1,5.7,2.85,5.93l1.52,0.14c0.28,0.19,0.19,1.04-0.1,1.18c-2.71-0.09-4.32-0.14-6.22-0.14c-1.9,0-3.56,0.05-6.6,0.14
					c-0.28-0.14-0.38-0.95,0-1.18l1.71-0.14c2.7-0.24,2.94-0.95,2.94-5.93V46c0-1.47,0-1.52-1.42-1.52h-2.61
					c-2.04,0-4.65,0.09-5.84,1.18c-1.14,1.05-1.61,2.09-2.14,3.28c-0.38,0.28-1.04,0.05-1.23-0.33c0.76-2.14,1.47-5.18,1.8-7.07
					c0.14-0.1,0.76-0.14,0.9,0c0.28,1.52,1.85,1.47,4.03,1.47h19.23c2.57,0,2.99-0.09,3.7-1.33c0.24-0.1,0.76-0.05,0.85,0.14
					c-0.52,1.94-0.85,5.79-0.71,7.22c-0.19,0.38-1,0.38-1.24,0.09c-0.14-1.19-0.47-2.94-1.18-3.47c-1.09-0.81-2.9-1.18-5.51-1.18
					h-3.37c-1.42,0-1.38,0.05-1.38,1.61V67.22z"/>
				<path style="clip-path:url(#SVGID_00000005983014239132184960000008409967518789402005_);fill:#231F20;" d="M581.47,67.22
					c0,4.98,0.09,5.7,2.85,5.93l1.52,0.14c0.28,0.19,0.19,1.04-0.1,1.18c-2.71-0.09-4.32-0.14-6.22-0.14s-3.56,0.05-6.6,0.14
					c-0.28-0.14-0.38-0.95,0-1.18l1.71-0.14c2.7-0.24,2.94-0.95,2.94-5.93V46c0-1.47,0-1.52-1.43-1.52h-2.61
					c-2.04,0-4.65,0.09-5.84,1.18c-1.14,1.05-1.61,2.09-2.14,3.28c-0.38,0.28-1.04,0.05-1.24-0.33c0.76-2.14,1.47-5.18,1.81-7.07
					c0.14-0.1,0.76-0.14,0.9,0c0.28,1.52,1.85,1.47,4.03,1.47h19.23c2.56,0,2.99-0.09,3.7-1.33c0.24-0.1,0.76-0.05,0.86,0.14
					c-0.52,1.94-0.86,5.79-0.71,7.22c-0.19,0.38-1,0.38-1.24,0.09c-0.14-1.19-0.48-2.94-1.19-3.47c-1.09-0.81-2.9-1.18-5.51-1.18
					h-3.37c-1.43,0-1.38,0.05-1.38,1.61V67.22z"/>
			</g>
		</g>
	</g>
	<g>
		<path d="M287.23,134.11l-1.61,1.87l-0.3-0.15l2.74-8.77l0.49,0.07c-0.08,0.41-0.15,1.05-0.15,1.69c0,4.12,2.28,8.06,6.29,8.06
			c3.11,0,5.62-2.14,5.62-5.4c0-1.61-0.56-3-2.06-4.72c-1.39-1.61-3.41-3.41-4.68-5.25c-0.86-1.27-1.69-2.4-1.69-4.61
			c0-3.3,2.89-7.19,8.32-7.19c2.66,0,4.76,1.31,5.7,1.99l1.2-1.16l0.37,0.11l-1.99,8.58l-0.49-0.07c0.04-0.37,0.07-0.71,0.07-1.05
			c0-2.06-0.6-7.76-5.06-7.76c-3,0-4.83,2.44-4.83,4.91c0,2.02,0.71,3.22,2.14,5.06c1.12,1.46,2.7,2.77,3.86,4.12
			c1.69,2.02,2.51,3.63,2.51,5.47c0,4.87-4.42,7.53-8.99,7.53C290.41,137.45,288.01,134.86,287.23,134.11z"/>
		<path d="M313.76,136.14c0-1.09,0.3-1.95,0.56-2.7c0.64-1.72,2.81-7.08,3.26-8.43c0.45-1.39,0.82-2.36,0.82-2.92
			c0-0.45-0.04-0.82-0.49-0.82c-0.64,0-1.65,0.64-2.36,1.31c-1.8,1.72-3.75,3.9-4.42,5.73c-0.49,1.31-1.95,5.55-3.07,8.81h-2.96
			l9.03-25.18c0.23-0.6,0.26-1.09,0.23-1.31l-2.21-0.3v-0.41h5.62l-5.62,15.62l0.11,0.04c2.7-3.93,6.22-6.44,8.06-6.44
			c0.86,0,1.27,0.97,1.27,1.76c0,0.79-0.3,1.95-0.75,3.11l-4.16,11.09h0.11c1.2-0.71,3.15-2.55,4.46-3.93l0.26,0.26
			c-0.79,1.16-4.83,5.88-6.44,5.88C314.29,137.3,313.76,136.7,313.76,136.14z"/>
		<path d="M323.17,136.29c0-0.86,0.49-2.06,0.79-2.81c0.67-1.72,2.06-4.95,2.81-6.86c1.09-2.74,1.87-4.57,1.87-5.02
			c0-0.34-0.04-0.34-0.23-0.34c-0.49,0-2.17,1.61-3.86,3.45l-0.3-0.26c2.06-2.92,4.98-5.32,6.22-5.32c0.64,0,1.24,0.6,1.24,1.42
			c0,0.94-0.67,2.88-1.42,4.68l-4.08,10.04l0.11,0.11c1.42-0.79,3.63-2.92,4.72-4.01l0.26,0.3c-0.75,1.24-4.83,5.62-6.82,5.62
			C323.62,137.3,323.17,136.77,323.17,136.29z M330.52,112.72c0-1.12,0.82-1.91,1.84-1.91s1.8,0.82,1.8,1.84s-0.83,1.84-1.84,1.84
			S330.52,113.73,330.52,112.72z"/>
		<path d="M341.46,136.14c0-1.09,0.3-1.95,0.56-2.7c0.64-1.72,2.81-7.08,3.26-8.43c0.45-1.39,0.82-2.36,0.82-2.92
			c0-0.45-0.04-0.82-0.49-0.82c-0.64,0-1.69,0.64-2.4,1.31c-1.8,1.72-3,3.3-4.23,5.85c-0.71,1.46-2.4,5.62-3.63,8.69h-3
			c1.76-4.08,3.45-7.91,4.35-10.27c1.05-2.74,1.61-4.38,1.61-4.68c0-0.37-0.04-0.56-0.3-0.56c-0.6,0-2.06,1.69-3.93,3.82l-0.3-0.26
			c2.28-3.37,5.28-6.07,6.82-6.07c0.49,0,0.86,0.41,0.86,1.12c0,0.79-0.75,3.33-1.54,5.32l0.11,0.04c2.66-4.05,6.14-6.44,8.06-6.44
			c0.82,0,1.2,0.97,1.2,1.76c0,0.79-0.3,1.95-0.75,3.11l-4.16,11.09h0.11c1.2-0.71,3.15-2.55,4.46-3.93l0.26,0.26
			c-0.79,1.16-4.83,5.88-6.45,5.88C341.99,137.3,341.46,136.7,341.46,136.14z"/>
		<path d="M350.39,133.89c0-6.03,5.28-14.76,10.12-14.76c1.99,0,2.44,1.16,2.44,2.02c0,1.87-1.57,4.61-8.73,7.19
			c-0.64,1.76-0.9,3.37-0.9,4.38c0,1.72,0.52,2.43,1.91,2.43c1.87,0,3.6-1.57,5.02-3.97l0.41,0.22c-1.05,2.25-4.46,5.88-7.53,5.88
			C351.77,137.3,350.39,136.44,350.39,133.89z M360.54,121.49c0-1.12-0.49-1.65-1.01-1.65c-1.27,0-3.86,4.2-5.13,7.94
			C358.74,126.02,360.54,124,360.54,121.49z"/>
		<path d="M367.89,137.11l0.11-0.37c1.91-0.15,2.88-0.56,3.71-1.39c0.34-0.34,0.94-1.91,1.39-3.11c1.2-3.26,2.59-7.46,2.92-8.47
			c1.12-3.26,1.95-5.7,3-8.96c0.23-0.71,0.52-1.69,0.52-2.36c0-1.65-1.84-1.91-3.07-1.95l0.15-0.37c2.32,0,6.59-0.04,9.29-0.04
			c5.13,0,8.09,2.4,8.09,5.92c0,5.21-4.53,7.27-8.09,7.83c2.55,0.68,5.81,2.55,5.81,6.3c0,5.43-5.55,7.12-10.45,7.12
			C378.83,137.26,373.85,137.11,367.89,137.11z M387.86,129.17c0-2.17-1.61-4.53-3.86-4.76c-1.61-0.15-2.92-0.15-4.57-0.15
			l-3.78,11.62c0.82,0.37,1.99,0.79,4.27,0.79C384.56,136.66,387.86,133.89,387.86,129.17z M383.81,123.51
			c3.86-0.3,6.56-4.31,6.56-7.49c0-2.59-1.12-5.32-4.5-5.32c-0.82,0-1.54,0.15-2.06,0.45l-4.16,12.51
			C381.3,123.66,382.88,123.58,383.81,123.51z"/>
		<path d="M397.91,126.47c0.97-2.66,1.42-4.57,1.42-4.83c0-0.26,0-0.37-0.19-0.37c-0.41,0-1.99,1.35-3.82,3.82l-0.34-0.22
			c2.36-3.86,4.87-5.81,6.22-5.81c0.56,0,0.97,0.3,0.97,1.2c0,0.79-0.52,2.96-1.01,4.31l0.11,0.04c2.59-4.2,4.91-5.43,5.92-5.43
			c1.05,0,1.91,0.79,1.91,1.8c0,0.94-0.71,1.87-1.84,1.87c-1.35,0-1.61-1.01-1.95-1.84c-1.35,0.3-4.01,3.9-4.91,6.37
			c-1.42,3.9-2.4,6.67-3.6,9.74h-3C395.48,133.03,397.09,128.76,397.91,126.47z"/>
		<path d="M407.02,136.29c0-0.86,0.49-2.06,0.79-2.81c0.67-1.72,2.06-4.95,2.81-6.86c1.09-2.74,1.87-4.57,1.87-5.02
			c0-0.34-0.04-0.34-0.23-0.34c-0.49,0-2.17,1.61-3.86,3.45l-0.3-0.26c2.06-2.92,4.98-5.32,6.22-5.32c0.64,0,1.24,0.6,1.24,1.42
			c0,0.94-0.67,2.88-1.42,4.68l-4.08,10.04l0.11,0.11c1.42-0.79,3.63-2.92,4.72-4.01l0.26,0.3c-0.75,1.24-4.83,5.62-6.82,5.62
			C407.47,137.3,407.02,136.77,407.02,136.29z M414.36,112.72c0-1.12,0.82-1.91,1.84-1.91s1.8,0.82,1.8,1.84s-0.83,1.84-1.84,1.84
			S414.36,113.73,414.36,112.72z"/>
		<path d="M413.02,140.3c0-2.21,2.1-3.9,6.48-4.68c-1.27-1.01-2.32-1.84-2.32-3.22c0-1.42,1.5-2.36,3.67-2.25
			c-1.12-0.9-1.87-2.59-1.87-4.23c0-3.22,3.03-6.78,6.59-6.78c1.01,0,1.91,0.41,2.51,1.16c0.9-0.67,1.69-1.2,2.62-1.2
			c1.09,0,1.54,0.52,1.54,1.05c0,0.64-0.34,1.27-1.05,1.27c-1.09,0-1.01-1.2-1.65-1.2c-0.45,0-0.75,0.11-1.24,0.41
			c0.52,0.75,0.75,1.72,0.75,2.62c0,2.81-2.17,7.42-6.71,7.42c-0.3,0-0.67-0.11-0.94-0.23c-1.24,0.11-1.72,0.64-1.72,1.2
			c0,0.6,0.56,1.09,1.31,1.69c1.2,0.97,4.35,3.34,5.32,4.23c1.2,1.09,2.21,2.7,2.21,3.97c0,3.03-3.18,4.38-6.56,4.38
			C417.1,145.92,413.02,143.82,413.02,140.3z M425.68,142.21c0-1.12-0.75-2.25-1.72-3.11c-1.09-0.94-2.81-2.21-4.08-3.18
			c-2.55,1.2-4.27,3.18-4.27,4.91c0,2.4,3.03,4.38,6.07,4.38C424.3,145.2,425.68,143.89,425.68,142.21z M427.18,121.6
			c0-1.27-0.23-1.84-1.24-1.84c-2.14,0-4.87,5.51-4.87,8.36c0,1.54,0.26,1.95,0.94,1.95C423.92,130.07,427.18,124.3,427.18,121.6z"
			/>
		<path d="M437.9,136.14c0-1.09,0.3-1.95,0.56-2.7c0.64-1.72,2.81-7.08,3.26-8.43c0.45-1.39,0.82-2.36,0.82-2.92
			c0-0.45-0.04-0.82-0.49-0.82c-0.64,0-1.65,0.64-2.36,1.31c-1.8,1.72-3.75,3.9-4.42,5.73c-0.49,1.31-1.95,5.55-3.07,8.81h-2.96
			l9.03-25.18c0.23-0.6,0.26-1.09,0.23-1.31l-2.21-0.3v-0.41h5.62l-5.62,15.62l0.11,0.04c2.7-3.93,6.22-6.44,8.06-6.44
			c0.86,0,1.27,0.97,1.27,1.76c0,0.79-0.3,1.95-0.75,3.11l-4.16,11.09h0.11c1.2-0.71,3.15-2.55,4.46-3.93l0.26,0.26
			c-0.79,1.16-4.83,5.88-6.44,5.88C438.43,137.3,437.9,136.7,437.9,136.14z"/>
		<path d="M446.79,136.06c0-0.82,0.49-2.17,0.6-2.47l4.65-12.74h-2.85l0.83-1.46h2.55l1.42-3.97l3.3-1.09l-1.91,5.06h4.16l-0.9,1.46
			h-3.71c-1.42,3.82-2.92,7.87-3.37,9.14c-0.67,1.87-1.39,3.9-1.39,4.46c0,0.34,0.11,0.41,0.3,0.41c0.86,0,3.9-3.33,4.8-4.61
			l0.34,0.23c-0.86,1.54-5.13,6.82-7.53,6.82C447.2,137.3,446.79,136.62,446.79,136.06z"/>
		<path d="M454.92,142.17v-0.34c4.12-0.34,5.92-2.92,5.92-4.57c0-0.67-0.26-1.12-0.52-1.39c-0.41,0.79-1.05,1.2-1.72,1.24
			c-0.86,0-1.65-0.64-1.65-1.57c0-1.12,0.97-2.25,2.47-2.25c1.54,0,2.66,1.24,2.66,3.34c0,3.56-2.4,5.66-5.7,5.66
			C455.9,142.28,455.41,142.24,454.92,142.17z"/>
		<path d="M471.34,137.11l0.11-0.37c1.91-0.15,2.89-0.56,3.71-1.39c0.34-0.34,0.94-1.91,1.39-3.11c1.2-3.26,2.59-7.46,2.92-8.47
			c1.12-3.26,1.95-5.7,3-8.96c0.22-0.71,0.53-1.69,0.53-2.36c0-1.65-1.84-1.91-3.07-1.95l0.15-0.37h9.33
			c7.49,0,12.29,4.68,12.29,11.65c0,8.17-6.18,15.51-16.37,15.51C480.26,137.3,476.14,137.11,471.34,137.11z M497.98,120.77
			c0-7.23-4.95-10.08-8.24-10.08c-0.9,0-1.87,0.23-2.14,0.49c-0.34,0.34-1.09,2.59-1.95,5.1c-0.86,2.51-1.76,5.02-2.59,7.46
			l-2.7,8.24c-0.37,1.16-0.79,2.51-0.79,3.07c0,1.05,1.31,1.61,3.37,1.61C492.44,136.66,497.98,129.58,497.98,120.77z"/>
		<path d="M502.6,131.75c0-6.48,5.17-12.63,9.18-12.63c2.1,0,3.52,2.36,3.52,5.85c0,4.8-4.23,12.33-8.99,12.33
			C504.4,137.3,502.6,135.39,502.6,131.75z M513.02,121.86c0-1.65-0.22-2.17-0.9-2.17c-2.4,0-7.31,9.74-7.31,14.69
			c0,1.8,0.37,2.36,1.2,2.36C507.92,136.74,513.02,128.19,513.02,121.86z"/>
		<path d="M524.9,127.37c0-6.82,6.56-17.61,16.97-17.61c4.38,0,6.22,1.65,7.08,2.36l1.24-1.16l0.37,0.11l-1.91,8.06l-0.49-0.08
			c0.08-0.56,0.11-1.35,0.11-1.76c0-1.54-1.01-6.86-5.99-6.86c-7.01,0-13.71,10.19-13.71,18.85c0,4.2,2.21,7.53,6.22,7.53
			c2.06,0,4.42-0.79,5.58-2.59c0.49-0.75,0.75-1.57,1.2-3.11c0.22-0.71,0.49-1.8,0.49-2.47c0-1.72-2.1-1.91-3.33-1.95l0.15-0.37
			h10.49l-0.15,0.37c-0.82,0.11-1.99,0.07-3.03,1.31c-0.6,0.71-0.97,2.02-1.42,3.52c-0.41,1.31-0.82,2.77-1.12,3.86
			c-3.48,1.57-6.14,2.06-8.66,2.06C528.46,137.45,524.9,133.85,524.9,127.37z"/>
		<path d="M549.87,131.75c0-6.48,5.17-12.63,9.18-12.63c2.1,0,3.52,2.36,3.52,5.85c0,4.8-4.23,12.33-8.99,12.33
			C551.67,137.3,549.87,135.39,549.87,131.75z M560.28,121.86c0-1.65-0.22-2.17-0.9-2.17c-2.4,0-7.31,9.74-7.31,14.69
			c0,1.8,0.37,2.36,1.2,2.36C555.19,136.74,560.28,128.19,560.28,121.86z"/>
		<path d="M563.59,131.75c0-6.48,5.17-12.63,9.18-12.63c2.1,0,3.52,2.36,3.52,5.85c0,4.8-4.23,12.33-8.99,12.33
			C565.39,137.3,563.59,135.39,563.59,131.75z M574,121.86c0-1.65-0.22-2.17-0.9-2.17c-2.4,0-7.31,9.74-7.31,14.69
			c0,1.8,0.37,2.36,1.2,2.36C568.91,136.74,574,128.19,574,121.86z"/>
		<path d="M576.26,134.86c0-6.41,6.48-15.59,11.01-15.59c1.2,0,1.99,0.64,2.32,1.27l2.96-9.4c0.11-0.3-0.04-0.49-0.3-0.52l-2.06-0.3
			v-0.41h5.69c-2.02,5.88-4.91,14.84-6.67,20.31c-0.49,1.54-1.31,3.86-1.31,4.31c0,0.26,0.04,0.41,0.26,0.41
			c0.52,0,3.22-2.62,4.2-3.82l0.26,0.26c-1.01,1.69-4.83,5.92-6.71,5.92c-0.79,0-1.09-0.45-1.09-1.05c0-0.94,0.9-3.56,1.54-5.73
			l-0.11-0.11c-1.69,2.44-5.32,6.89-7.94,6.89C576.82,137.3,576.26,136.25,576.26,134.86z M586.82,128.38
			c1.31-2.51,1.83-5.06,1.83-6.11c0-1.35-0.71-2.44-1.72-2.44c-2.92,0-7.57,10.42-7.57,13.79c0,1.09,0.15,1.61,0.97,1.61
			C581.88,135.24,584.84,132.17,586.82,128.38z"/>
	</g>
</g>
<g id="Shine_Bright_x2C__Do_Good_White_00000147907442405366167510000015772244872812071045_">
	<g>
		<defs>
			<rect id="SVGID_00000173135652035592207690000000650449791021265063_" x="-20.97" y="193.72" width="650.58" height="168.12"/>
		</defs>
		<clipPath id="SVGID_00000122710528477557857110000009433354772815597500_">
			<use xlink:href="#SVGID_00000173135652035592207690000000650449791021265063_"  style="overflow:visible;"/>
		</clipPath>
		<g style="clip-path:url(#SVGID_00000122710528477557857110000009433354772815597500_);">
			<defs>
				<rect id="SVGID_00000171717209443380357040000010207108727102127262_" x="-20.97" y="193.73" width="650.58" height="163.94"/>
			</defs>
			<clipPath id="SVGID_00000052096120245397559870000003930249720497444012_">
				<use xlink:href="#SVGID_00000171717209443380357040000010207108727102127262_"  style="overflow:visible;"/>
			</clipPath>
			<path style="clip-path:url(#SVGID_00000052096120245397559870000003930249720497444012_);fill:#FFFFFF;" d="M104.56,264.31
				c-3.42-7.09-8.68-12.51-17.93-14.22c-1.71-9.26-7.12-14.52-14.22-17.94c-8.69-4.19-8.6-6.43-11.09-6.43
				c-2.5,0-2.41,2.24-11.09,6.43c-7.1,3.42-12.51,8.68-14.22,17.94c-9.27,1.7-14.53,7.12-17.95,14.22
				c-4.19,8.69-6.43,8.6-6.43,11.09c0,2.5,2.24,2.4,6.43,11.1c3.42,7.1,8.69,12.51,17.95,14.22c1.71,9.25,7.12,14.51,14.22,17.93
				c8.69,4.19,8.6,6.43,11.09,6.43c2.5,0,2.4-2.24,11.09-6.43c7.1-3.42,12.5-8.68,14.22-17.94c9.25-1.71,14.51-7.12,17.93-14.21
				c4.19-8.69,6.43-8.6,6.43-11.1C110.98,272.9,108.75,273,104.56,264.31 M52.03,238.33c7.91-0.49,7.2-4.84,9.25-4.84h0.07
				c2.05,0,1.35,4.35,9.26,4.84c5.89,0.37,10.21,4.66,12.11,11.28c-0.88-0.06-1.77-0.1-2.71-0.1c-7.37,0-14,3.1-18.7,8.04
				c-4.71-4.94-11.34-8.04-18.7-8.04c-0.93,0-1.82,0.04-2.69,0.1C41.82,242.99,46.14,238.7,52.03,238.33 M83.8,257.75
				c0,5.91-2.72,11.56-6.92,15.71c-2.72-2.04-5.84-3.56-9.24-4.41c-0.85-3.38-2.36-6.49-4.4-9.2c4.15-4.2,9.8-6.93,15.72-6.93
				c1.58,0,3.08,0.12,4.52,0.32C83.68,254.67,83.8,256.17,83.8,257.75 M83.8,293.05c0,1.58-0.12,3.08-0.32,4.52
				c-1.44,0.2-2.94,0.32-4.52,0.32c-5.92,0-11.57-2.73-15.72-6.93c2.04-2.71,3.55-5.82,4.4-9.2c3.4-0.85,6.52-2.37,9.23-4.41
				C81.07,281.48,83.8,287.13,83.8,293.05 M38.83,293.05c0-5.92,2.73-11.56,6.92-15.71c2.71,2.04,5.82,3.55,9.21,4.4
				c0.85,3.39,2.36,6.5,4.4,9.21c-4.15,4.2-9.8,6.93-15.71,6.93c-1.57,0-3.07-0.11-4.5-0.31C38.95,296.13,38.83,294.63,38.83,293.05
				 M38.83,257.75c0-1.58,0.12-3.09,0.32-4.52c1.43-0.2,2.93-0.32,4.5-0.32c5.92,0,11.56,2.73,15.71,6.93
				c-2.04,2.71-3.55,5.82-4.4,9.21c-3.39,0.85-6.5,2.36-9.21,4.4C41.56,269.31,38.83,263.66,38.83,257.75 M66.07,275.33v0.07v0.07
				c0,1.43-0.17,2.85-0.47,4.24c-1.38,0.3-2.79,0.46-4.22,0.46h-0.07h-0.07c-1.43,0-2.86-0.16-4.24-0.46
				c-0.3-1.38-0.46-2.8-0.46-4.23v-0.07v-0.07c0-1.43,0.16-2.85,0.47-4.24c1.39-0.3,2.81-0.47,4.24-0.47h0.07h0.07
				c1.42,0,2.84,0.17,4.22,0.46C65.9,272.48,66.07,273.9,66.07,275.33 M61.36,268.25h-0.08c-1.19,0-2.36,0.11-3.52,0.27
				c0.82-2.3,2.03-4.47,3.54-6.42c1.51,1.95,2.72,4.12,3.54,6.42C63.7,268.36,62.54,268.25,61.36,268.25 M54.43,271.85
				c-0.16,1.15-0.27,2.32-0.27,3.51v0.08c0,1.19,0.11,2.36,0.27,3.5c-2.31-0.82-4.48-2.04-6.43-3.55
				C49.95,273.89,52.12,272.67,54.43,271.85 M57.76,282.28c1.15,0.16,2.32,0.27,3.52,0.27h0.08c1.19,0,2.35-0.11,3.49-0.26
				c-0.82,2.31-2.03,4.47-3.54,6.43C59.79,286.76,58.58,284.59,57.76,282.28 M68.18,278.95c0.16-1.15,0.27-2.32,0.27-3.51v-0.08
				c0-1.2-0.11-2.37-0.27-3.52c2.32,0.82,4.5,2.04,6.46,3.56C72.68,276.92,70.5,278.14,68.18,278.95 M24.23,284.69
				c-0.5-7.91-4.84-7.2-4.84-9.26v-0.07c0-2.05,4.35-1.35,4.84-9.26c0.37-5.89,4.67-10.22,11.29-12.12
				c-0.06,0.88-0.09,1.77-0.09,2.71c0,7.36,3.09,13.99,8.03,18.7c-4.94,4.71-8.03,11.33-8.03,18.7c0,0.94,0.04,1.84,0.09,2.71
				C28.9,294.91,24.6,290.58,24.23,284.69 M70.61,312.47c-7.91,0.5-7.21,4.84-9.26,4.84h-0.07c-2.05,0-1.34-4.35-9.25-4.84
				c-5.89-0.37-10.21-4.66-12.11-11.27c0.87,0.06,1.75,0.09,2.69,0.09c7.36,0,13.99-3.1,18.7-8.04c4.71,4.95,11.34,8.04,18.7,8.04
				c0.94,0,1.83-0.04,2.71-0.1C80.81,307.81,76.49,312.1,70.61,312.47 M103.22,275.43c0,2.05-4.35,1.35-4.84,9.26
				c-0.37,5.89-4.66,10.21-11.27,12.11c0.06-0.88,0.09-1.77,0.09-2.71c0-7.36-3.09-13.99-8.03-18.7c4.94-4.71,8.03-11.33,8.03-18.7
				c0-0.93-0.04-1.83-0.09-2.7c6.61,1.9,10.9,6.22,11.27,12.11c0.49,7.91,4.84,7.21,4.84,9.26V275.43z"/>
			<path style="clip-path:url(#SVGID_00000052096120245397559870000003930249720497444012_);fill:#FFFFFF;" d="M141.95,267.22
				c0-5.01-0.1-5.77-2.86-6.01l-1.19-0.1c-0.29-0.19-0.19-1.05,0.1-1.19c2.34,0.09,3.86,0.14,6.01,0.14c1.86,0,3.48-0.05,5.53-0.14
				c0.29,0.14,0.38,1,0.09,1.19l-0.91,0.1c-2.76,0.29-2.86,1-2.86,6.01v5.48c0,0.91,0.1,1.81,0.62,1.81c0.43,0,1-0.29,1.34-0.52
				c0.67-0.57,1.91-1.81,2.43-2.29l5.15-5.1c0.91-0.86,3.24-3.29,3.72-3.96c0.24-0.33,0.33-0.57,0.33-0.76
				c0-0.19-0.19-0.33-0.81-0.48l-1.29-0.29c-0.34-0.33-0.29-0.95,0.09-1.19c1.67,0.09,3.58,0.14,5.24,0.14
				c1.67,0,3.29-0.05,4.72-0.14c0.34,0.24,0.38,0.91,0.1,1.19c-1.24,0.1-3.1,0.57-4.43,1.34c-1.34,0.76-4.01,3-6.68,5.53l-4.29,4.05
				c-0.67,0.67-1.1,1.1-1.1,1.48c0,0.34,0.29,0.71,0.9,1.48c4.53,5.2,8.2,9.49,11.92,13.4c1.14,1.14,2.19,1.76,3.81,1.96l1.29,0.14
				c0.33,0.24,0.24,1.05-0.09,1.19c-1.24-0.09-3.1-0.14-5.34-0.14c-1.96,0-3.62,0.05-5.82,0.14c-0.33-0.09-0.47-0.91-0.19-1.19
				l1.1-0.19c0.67-0.1,1.15-0.24,1.15-0.48c0-0.29-0.34-0.67-0.67-1.1c-0.91-1.15-2.15-2.43-3.96-4.48l-3.81-4.29
				c-2.72-3.05-3.48-4.01-4.63-4.01c-0.71,0-0.81,0.62-0.81,2.29v6.15c0,5.01,0.1,5.67,2.77,5.96l1.29,0.14
				c0.29,0.19,0.19,1.05-0.09,1.19c-2.34-0.09-3.96-0.14-5.82-0.14c-1.96,0-3.58,0.05-5.53,0.14c-0.29-0.14-0.38-0.86-0.1-1.19
				l0.96-0.14c2.53-0.38,2.62-0.95,2.62-5.96V267.22z"/>
			<path style="clip-path:url(#SVGID_00000052096120245397559870000003930249720497444012_);fill:#FFFFFF;" d="M183.9,267.22
				c0-4.96-0.1-5.67-2.91-6.01l-0.76-0.1c-0.29-0.19-0.19-1.05,0.09-1.19c2.05,0.09,3.67,0.14,5.63,0.14h8.96
				c3.05,0,5.87,0,6.44-0.14c0.29,0.81,0.57,4.24,0.76,6.34c-0.19,0.29-0.95,0.38-1.19,0.09c-0.72-2.24-1.15-3.91-3.62-4.53
				c-1-0.24-2.53-0.28-4.63-0.28h-3.43c-1.43,0-1.43,0.09-1.43,1.91v9.54c0,1.34,0.14,1.34,1.57,1.34h2.76c2,0,3.48-0.1,4.05-0.29
				c0.57-0.19,0.91-0.48,1.14-1.67l0.38-1.95c0.24-0.29,1.05-0.29,1.24,0.05c0,1.14-0.19,3.01-0.19,4.82c0,1.72,0.19,3.53,0.19,4.58
				c-0.19,0.33-1,0.33-1.24,0.05l-0.43-1.86c-0.19-0.86-0.52-1.57-1.48-1.81c-0.67-0.19-1.81-0.24-3.67-0.24h-2.76
				c-1.43,0-1.57,0.05-1.57,1.29V284c0,2.53,0.14,4.15,0.91,4.96c0.57,0.57,1.58,1.1,5.77,1.1c3.67,0,5.06-0.19,6.1-0.71
				c0.86-0.48,2.14-2.14,3.39-4.62c0.33-0.24,1-0.1,1.19,0.33c-0.33,1.67-1.53,5.34-2.15,6.63c-4.29-0.09-8.54-0.14-12.78-0.14
				h-4.29c-2.05,0-3.67,0.05-6.49,0.14c-0.29-0.14-0.38-0.91-0.09-1.19l1.57-0.14c2.72-0.24,2.96-0.95,2.96-5.96V267.22z"/>
			<path style="clip-path:url(#SVGID_00000052096120245397559870000003930249720497444012_);fill:#FFFFFF;" d="M248.36,283.43
				c0,1.43,0,7.11,0.14,8.35c-0.1,0.29-0.38,0.52-0.91,0.52c-0.57-0.81-1.96-2.48-6.1-7.2l-11.07-12.59
				c-1.29-1.48-4.53-5.39-5.53-6.44h-0.09c-0.19,0.57-0.24,1.67-0.24,3.1v10.39c0,2.24,0.05,8.44,0.86,9.87
				c0.29,0.52,1.24,0.81,2.43,0.91l1.48,0.14c0.29,0.38,0.24,0.95-0.1,1.19c-2.14-0.09-3.81-0.14-5.58-0.14
				c-2,0-3.29,0.05-4.96,0.14c-0.33-0.24-0.38-0.91-0.09-1.19l1.29-0.14c1.1-0.14,1.86-0.43,2.1-0.95c0.67-1.71,0.62-7.53,0.62-9.82
				v-13.78c0-1.33-0.05-2.34-1.05-3.43c-0.67-0.67-1.81-1-2.96-1.14l-0.81-0.1c-0.29-0.29-0.29-1,0.1-1.19
				c2,0.14,4.53,0.14,5.39,0.14c0.76,0,1.57-0.05,2.19-0.14c0.96,2.43,6.58,8.73,8.15,10.49l4.63,5.2c3.29,3.67,5.62,6.34,7.87,8.63
				h0.1c0.19-0.24,0.19-1,0.19-2v-10.2c0-2.24-0.05-8.44-0.95-9.87c-0.29-0.43-1.05-0.71-2.96-0.95l-0.81-0.1
				c-0.33-0.29-0.29-1.05,0.1-1.19c2.19,0.1,3.81,0.14,5.62,0.14c2.05,0,3.29-0.05,4.91-0.14c0.38,0.24,0.38,0.91,0.1,1.19
				l-0.67,0.1c-1.53,0.24-2.48,0.62-2.67,1c-0.81,1.72-0.71,7.63-0.71,9.82V283.43z"/>
			<path style="clip-path:url(#SVGID_00000052096120245397559870000003930249720497444012_);fill:#FFFFFF;" d="M268.38,266.26
				c0-3.34-0.24-4.34-2.24-4.62l-1.05-0.14c-0.38-0.24-0.43-1,0.05-1.19c4.05-0.24,7.91-0.38,11.97-0.38c4,0,7.39,0.29,10.49,1.43
				c6.44,2.34,9.68,7.77,9.68,14.07c0,6.06-2.91,11.25-8.35,14.21c-3.1,1.67-7.01,2.29-10.68,2.29c-3.05,0-6.1-0.38-7.77-0.38
				c-2,0-3.72,0.05-5.96,0.14c-0.29-0.14-0.38-0.91-0.09-1.19l1.1-0.14c2.77-0.38,2.86-0.95,2.86-5.96V266.26z M272.29,283.29
				c0,2.53,0.14,4.05,0.95,5.2c1.05,1.48,2.86,1.95,5.86,1.95c9.25,0,13.4-6.05,13.4-14.93c0-5.24-2.53-14.11-15.02-14.11
				c-2.81,0-4.34,0.38-4.72,0.67c-0.38,0.29-0.48,1.48-0.48,3.62V283.29z"/>
			<path style="clip-path:url(#SVGID_00000052096120245397559870000003930249720497444012_);fill:#FFFFFF;" d="M313.2,267.26
				c0-4.53-0.14-5.34-2.1-5.58l-1.53-0.19c-0.33-0.24-0.33-1,0.05-1.19c2.67-0.24,5.96-0.38,10.63-0.38c2.96,0,5.77,0.24,7.96,1.43
				c2.29,1.19,3.96,3.34,3.96,6.68c0,4.53-3.58,7.01-5.96,7.97c-0.24,0.28,0,0.76,0.24,1.14c3.81,6.15,6.34,9.97,9.58,12.69
				c0.81,0.71,2,1.24,3.29,1.33c0.24,0.1,0.29,0.48,0.05,0.67c-0.43,0.14-1.19,0.24-2.1,0.24c-4.05,0-6.49-1.19-9.87-6.01
				c-1.24-1.76-3.19-5.05-4.67-7.2c-0.71-1.05-1.48-1.53-3.39-1.53c-2.15,0-2.24,0.05-2.24,1.05v6.01c0,5.01,0.09,5.58,2.86,5.96
				l1,0.14c0.29,0.24,0.19,1.05-0.1,1.19c-2.15-0.09-3.77-0.14-5.67-0.14c-2,0-3.72,0.05-5.96,0.14c-0.29-0.14-0.38-0.86-0.09-1.19
				l1.19-0.14c2.77-0.33,2.86-0.95,2.86-5.96V267.26z M317.11,274.08c0,0.86,0,1.38,0.14,1.57c0.14,0.14,0.86,0.24,3.29,0.24
				c1.72,0,3.53-0.19,4.91-1.24c1.29-1,2.38-2.67,2.38-5.91c0-3.77-2.34-7.34-7.63-7.34c-2.96,0-3.1,0.19-3.1,1.53V274.08z"/>
			<path style="clip-path:url(#SVGID_00000052096120245397559870000003930249720497444012_);fill:#FFFFFF;" d="M366.79,280.48
				c-0.33-1.05-0.52-1.19-1.95-1.19h-7.2c-1.19,0-1.48,0.14-1.81,1.15l-1.67,5.01c-0.72,2.15-1.05,3.43-1.05,3.96
				c0,0.57,0.24,0.86,1.38,0.96l1.57,0.14c0.33,0.24,0.33,1-0.09,1.19c-1.24-0.1-2.72-0.1-4.96-0.14c-1.57,0-3.29,0.1-4.58,0.14
				c-0.29-0.19-0.38-0.95-0.09-1.19l1.57-0.14c1.14-0.1,2.19-0.62,2.86-2.34c0.86-2.2,2.19-5.3,4.2-10.64l4.86-12.87
				c0.67-1.72,0.96-2.62,0.81-3.39c1.14-0.33,1.96-1.19,2.48-1.81c0.29,0,0.62,0.09,0.71,0.43c0.62,2.1,1.38,4.29,2.1,6.39
				l6.53,19.17c1.38,4.1,2,4.82,4.05,5.06l1.29,0.14c0.33,0.24,0.24,1,0,1.19c-1.96-0.1-3.62-0.14-5.77-0.14
				c-2.29,0-4.1,0.1-5.49,0.14c-0.38-0.19-0.43-0.95-0.1-1.19l1.38-0.14c1-0.1,1.67-0.38,1.67-0.86c0-0.52-0.24-1.38-0.62-2.53
				L366.79,280.48z M357.35,276.23c-0.38,1.1-0.33,1.14,1,1.14h5.86c1.38,0,1.48-0.19,1.05-1.48l-2.58-7.77
				c-0.38-1.14-0.81-2.43-1.1-3.01h-0.09c-0.14,0.24-0.62,1.38-1.14,2.81L357.35,276.23z"/>
			<path style="clip-path:url(#SVGID_00000052096120245397559870000003930249720497444012_);fill:#FFFFFF;" d="M416.85,292.3
				c-4.01,0-6.53-1.24-7.44-1.76c-0.57-1.05-1.19-4.43-1.29-6.68c0.24-0.33,0.95-0.43,1.15-0.14c0.71,2.43,2.67,7.11,8.2,7.11
				c4.01,0,5.96-2.62,5.96-5.48c0-2.1-0.43-4.43-3.91-6.67l-4.53-2.96c-2.38-1.57-5.15-4.29-5.15-8.2c0-4.53,3.53-8.2,9.73-8.2
				c1.48,0,3.2,0.29,4.43,0.62c0.62,0.19,1.29,0.29,1.67,0.29c0.43,1.14,0.86,3.81,0.86,5.82c-0.19,0.29-0.95,0.43-1.19,0.14
				c-0.62-2.29-1.91-5.39-6.49-5.39c-4.67,0-5.68,3.1-5.68,5.3c0,2.76,2.29,4.77,4.05,5.86l3.82,2.38c3.01,1.86,5.96,4.62,5.96,9.16
				C427,288.72,423.04,292.3,416.85,292.3"/>
			<path style="clip-path:url(#SVGID_00000052096120245397559870000003930249720497444012_);fill:#FFFFFF;" d="M446.64,263.36
				c3.48-2.72,7.91-4.05,12.88-4.05c2.58,0,6.2,0.52,8.44,1.14c0.57,0.14,0.91,0.24,1.33,0.19c0.05,1.1,0.29,4.1,0.67,7.01
				c-0.24,0.33-0.95,0.38-1.29,0.1c-0.71-3.24-2.86-6.96-9.78-6.96c-7.29,0-13.5,4.63-13.5,14.5c0,10.01,6.35,15.54,14.17,15.54
				c6.15,0,8.87-4.01,9.96-6.82c0.33-0.24,1.05-0.14,1.24,0.19c-0.33,2.48-1.58,5.63-2.29,6.53c-0.57,0.09-1.14,0.29-1.67,0.48
				c-1.05,0.38-4.48,1.1-7.54,1.1c-4.29,0-8.39-0.86-11.87-3.19c-3.81-2.62-6.77-6.96-6.77-13.11
				C440.63,270.7,443.02,266.17,446.64,263.36"/>
			<path style="clip-path:url(#SVGID_00000052096120245397559870000003930249720497444012_);fill:#FFFFFF;" d="M482.97,276.13
				c0-9.54,7.15-16.83,16.98-16.83c11.02,0,16.55,7.96,16.55,16.36c0,9.63-7.35,16.64-16.55,16.64
				C489.36,292.3,482.97,284.72,482.97,276.13 M511.72,277.14c0-7.87-3.48-16.36-12.59-16.36c-4.96,0-11.4,3.39-11.4,13.83
				c0,7.06,3.43,16.21,12.83,16.21C506.29,290.82,511.72,286.53,511.72,277.14"/>
			<path style="clip-path:url(#SVGID_00000052096120245397559870000003930249720497444012_);fill:#FFFFFF;" d="M543.85,284.38
				c0,5.01,0.1,5.72,2.86,5.96l1.53,0.14c0.29,0.19,0.19,1.05-0.1,1.19c-2.72-0.09-4.34-0.14-6.24-0.14c-1.91,0-3.58,0.05-6.63,0.14
				c-0.29-0.14-0.38-0.95,0-1.19l1.72-0.14c2.72-0.24,2.96-0.95,2.96-5.96v-21.31c0-1.48,0-1.53-1.43-1.53h-2.62
				c-2.05,0-4.67,0.09-5.87,1.19c-1.14,1.05-1.62,2.1-2.14,3.29c-0.38,0.29-1.05,0.05-1.24-0.33c0.76-2.15,1.48-5.2,1.81-7.11
				c0.14-0.1,0.76-0.14,0.91,0c0.29,1.52,1.86,1.48,4.05,1.48h19.31c2.57,0,3-0.1,3.72-1.34c0.24-0.1,0.76-0.05,0.86,0.14
				c-0.52,1.96-0.86,5.82-0.71,7.25c-0.19,0.38-1,0.38-1.24,0.09c-0.14-1.19-0.48-2.96-1.19-3.48c-1.1-0.81-2.91-1.19-5.53-1.19
				h-3.39c-1.43,0-1.38,0.05-1.38,1.62V284.38z"/>
			<path style="clip-path:url(#SVGID_00000052096120245397559870000003930249720497444012_);fill:#FFFFFF;" d="M583.66,284.38
				c0,5.01,0.09,5.72,2.86,5.96l1.53,0.14c0.29,0.19,0.19,1.05-0.1,1.19c-2.72-0.09-4.34-0.14-6.24-0.14
				c-1.91,0-3.58,0.05-6.63,0.14c-0.29-0.14-0.38-0.95,0-1.19l1.72-0.14c2.72-0.24,2.95-0.95,2.95-5.96v-21.31
				c0-1.48,0-1.53-1.43-1.53h-2.62c-2.05,0-4.67,0.09-5.87,1.19c-1.14,1.05-1.62,2.1-2.15,3.29c-0.38,0.29-1.05,0.05-1.24-0.33
				c0.76-2.15,1.48-5.2,1.81-7.11c0.14-0.1,0.76-0.14,0.91,0c0.29,1.52,1.86,1.48,4.05,1.48h19.32c2.58,0,3-0.1,3.72-1.34
				c0.24-0.1,0.76-0.05,0.86,0.14c-0.52,1.96-0.86,5.82-0.71,7.25c-0.19,0.38-1,0.38-1.24,0.09c-0.14-1.19-0.48-2.96-1.19-3.48
				c-1.1-0.81-2.91-1.19-5.53-1.19h-3.39c-1.43,0-1.38,0.05-1.38,1.62V284.38z"/>
		</g>
		<g style="clip-path:url(#SVGID_00000122710528477557857110000009433354772815597500_);">
			<defs>
				<rect id="SVGID_00000131335456317960201010000014259729680249038210_" x="-20.97" y="193.72" width="650.58" height="168.12"/>
			</defs>
			<clipPath id="SVGID_00000034780216732976265020000010907786797477610919_">
				<use xlink:href="#SVGID_00000131335456317960201010000014259729680249038210_"  style="overflow:visible;"/>
			</clipPath>
			<path style="clip-path:url(#SVGID_00000034780216732976265020000010907786797477610919_);fill:#FFFFFF;" d="M288.13,350.04
				l-1.61,1.87l-0.3-0.15l2.73-8.77l0.49,0.07c-0.07,0.41-0.15,1.05-0.15,1.69c0,4.12,2.29,8.06,6.3,8.06
				c3.11,0,5.62-2.14,5.62-5.39c0-1.61-0.56-3-2.06-4.72c-1.39-1.61-3.41-3.41-4.68-5.24c-0.86-1.27-1.69-2.4-1.69-4.61
				c0-3.3,2.89-7.19,8.32-7.19c2.66,0,4.76,1.31,5.7,1.99l1.2-1.16l0.37,0.11l-1.99,8.58l-0.49-0.07c0.04-0.38,0.07-0.71,0.07-1.05
				c0-2.06-0.6-7.76-5.06-7.76c-3,0-4.83,2.44-4.83,4.91c0,2.02,0.71,3.22,2.14,5.06c1.12,1.46,2.7,2.77,3.86,4.12
				c1.69,2.02,2.51,3.63,2.51,5.47c0,4.87-4.42,7.53-8.99,7.53C291.31,353.37,288.92,350.79,288.13,350.04"/>
			<path style="clip-path:url(#SVGID_00000034780216732976265020000010907786797477610919_);fill:#FFFFFF;" d="M314.67,352.06
				c0-1.09,0.3-1.95,0.56-2.7c0.64-1.72,2.81-7.08,3.26-8.43c0.45-1.39,0.82-2.36,0.82-2.92c0-0.45-0.04-0.82-0.49-0.82
				c-0.64,0-1.65,0.64-2.36,1.31c-1.8,1.72-3.75,3.9-4.42,5.73c-0.49,1.31-1.95,5.55-3.07,8.81h-2.96l9.03-25.18
				c0.22-0.6,0.26-1.09,0.22-1.31l-2.21-0.3v-0.41h5.62l-5.62,15.62l0.11,0.04c2.7-3.93,6.22-6.44,8.06-6.44
				c0.86,0,1.27,0.97,1.27,1.76c0,0.79-0.3,1.95-0.75,3.11l-4.16,11.09h0.11c1.2-0.71,3.15-2.55,4.46-3.93l0.26,0.26
				c-0.79,1.16-4.83,5.88-6.44,5.88C315.19,353.22,314.67,352.62,314.67,352.06"/>
			<path style="clip-path:url(#SVGID_00000034780216732976265020000010907786797477610919_);fill:#FFFFFF;" d="M324.08,352.21
				c0-0.86,0.49-2.06,0.79-2.81c0.67-1.72,2.06-4.95,2.81-6.86c1.09-2.74,1.87-4.57,1.87-5.02c0-0.34-0.04-0.34-0.23-0.34
				c-0.49,0-2.17,1.61-3.86,3.45l-0.3-0.26c2.06-2.92,4.98-5.32,6.22-5.32c0.64,0,1.24,0.6,1.24,1.42c0,0.94-0.67,2.88-1.42,4.68
				l-4.08,10.04l0.11,0.11c1.42-0.79,3.64-2.92,4.72-4.01l0.26,0.3c-0.75,1.24-4.83,5.62-6.82,5.62
				C324.53,353.22,324.08,352.7,324.08,352.21 M331.42,328.64c0-1.12,0.82-1.91,1.84-1.91c1.01,0,1.8,0.82,1.8,1.84
				c0,1.01-0.82,1.83-1.84,1.83C332.21,330.41,331.42,329.66,331.42,328.64"/>
			<path style="clip-path:url(#SVGID_00000034780216732976265020000010907786797477610919_);fill:#FFFFFF;" d="M342.36,352.06
				c0-1.09,0.3-1.95,0.56-2.7c0.64-1.72,2.81-7.08,3.26-8.43c0.45-1.39,0.82-2.36,0.82-2.92c0-0.45-0.04-0.82-0.49-0.82
				c-0.64,0-1.69,0.64-2.4,1.31c-1.8,1.72-3,3.3-4.23,5.85c-0.71,1.46-2.4,5.62-3.63,8.69h-3c1.76-4.08,3.45-7.91,4.35-10.27
				c1.05-2.74,1.61-4.38,1.61-4.68c0-0.38-0.04-0.56-0.3-0.56c-0.6,0-2.06,1.69-3.93,3.82l-0.3-0.26c2.29-3.37,5.28-6.07,6.82-6.07
				c0.49,0,0.86,0.41,0.86,1.12c0,0.79-0.75,3.33-1.54,5.32l0.11,0.04c2.66-4.05,6.14-6.44,8.06-6.44c0.82,0,1.2,0.97,1.2,1.76
				c0,0.79-0.3,1.95-0.75,3.11l-4.16,11.09h0.11c1.2-0.71,3.15-2.55,4.46-3.93l0.26,0.26c-0.79,1.16-4.83,5.88-6.45,5.88
				C342.89,353.22,342.36,352.62,342.36,352.06"/>
			<path style="clip-path:url(#SVGID_00000034780216732976265020000010907786797477610919_);fill:#FFFFFF;" d="M351.29,349.81
				c0-6.03,5.28-14.76,10.11-14.76c1.99,0,2.44,1.16,2.44,2.02c0,1.87-1.57,4.61-8.73,7.19c-0.64,1.76-0.9,3.37-0.9,4.38
				c0,1.72,0.53,2.43,1.91,2.43c1.87,0,3.6-1.57,5.02-3.97l0.41,0.22c-1.05,2.25-4.46,5.88-7.53,5.88
				C352.68,353.22,351.29,352.36,351.29,349.81 M361.44,337.41c0-1.12-0.49-1.65-1.01-1.65c-1.27,0-3.86,4.2-5.13,7.94
				C359.65,341.95,361.44,339.92,361.44,337.41"/>
			<path style="clip-path:url(#SVGID_00000034780216732976265020000010907786797477610919_);fill:#FFFFFF;" d="M368.79,353.04
				l0.11-0.37c1.91-0.15,2.88-0.56,3.71-1.39c0.34-0.34,0.94-1.91,1.39-3.11c1.2-3.26,2.59-7.46,2.92-8.47
				c1.12-3.26,1.95-5.7,3-8.95c0.23-0.71,0.52-1.69,0.52-2.36c0-1.65-1.84-1.91-3.07-1.95l0.15-0.37c2.32,0,6.59-0.04,9.29-0.04
				c5.13,0,8.09,2.4,8.09,5.92c0,5.21-4.53,7.27-8.09,7.83c2.55,0.67,5.81,2.55,5.81,6.3c0,5.43-5.55,7.12-10.45,7.12
				C379.73,353.19,374.75,353.04,368.79,353.04 M388.76,345.09c0-2.17-1.61-4.53-3.86-4.76c-1.61-0.15-2.92-0.15-4.57-0.15
				l-3.79,11.61c0.82,0.38,1.99,0.79,4.27,0.79C385.47,352.59,388.76,349.81,388.76,345.09 M384.72,339.44
				c3.86-0.3,6.56-4.31,6.56-7.49c0-2.59-1.12-5.32-4.5-5.32c-0.82,0-1.54,0.15-2.06,0.45l-4.16,12.52
				C382.21,339.59,383.78,339.51,384.72,339.44"/>
			<path style="clip-path:url(#SVGID_00000034780216732976265020000010907786797477610919_);fill:#FFFFFF;" d="M398.81,342.4
				c0.97-2.66,1.42-4.57,1.42-4.83c0-0.26,0-0.37-0.19-0.37c-0.41,0-1.99,1.35-3.82,3.82l-0.34-0.23c2.36-3.86,4.87-5.81,6.22-5.81
				c0.56,0,0.97,0.3,0.97,1.2c0,0.79-0.52,2.96-1.01,4.31l0.11,0.04c2.58-4.2,4.91-5.43,5.92-5.43c1.05,0,1.91,0.79,1.91,1.8
				c0,0.94-0.71,1.87-1.83,1.87c-1.35,0-1.61-1.01-1.95-1.83c-1.35,0.3-4.01,3.9-4.91,6.37c-1.42,3.9-2.4,6.67-3.6,9.74h-3
				C396.38,348.95,397.99,344.68,398.81,342.4"/>
			<path style="clip-path:url(#SVGID_00000034780216732976265020000010907786797477610919_);fill:#FFFFFF;" d="M407.93,352.21
				c0-0.86,0.49-2.06,0.79-2.81c0.67-1.72,2.06-4.95,2.81-6.86c1.09-2.74,1.87-4.57,1.87-5.02c0-0.34-0.04-0.34-0.23-0.34
				c-0.49,0-2.17,1.61-3.86,3.45l-0.3-0.26c2.06-2.92,4.98-5.32,6.22-5.32c0.64,0,1.24,0.6,1.24,1.42c0,0.94-0.67,2.88-1.42,4.68
				l-4.08,10.04l0.11,0.11c1.42-0.79,3.64-2.92,4.72-4.01l0.26,0.3c-0.75,1.24-4.83,5.62-6.82,5.62
				C408.38,353.22,407.93,352.7,407.93,352.21 M415.27,328.64c0-1.12,0.82-1.91,1.84-1.91c1.01,0,1.8,0.82,1.8,1.84
				c0,1.01-0.82,1.83-1.84,1.83C416.06,330.41,415.27,329.66,415.27,328.64"/>
			<path style="clip-path:url(#SVGID_00000034780216732976265020000010907786797477610919_);fill:#FFFFFF;" d="M413.92,356.22
				c0-2.21,2.1-3.9,6.48-4.68c-1.27-1.01-2.32-1.84-2.32-3.22c0-1.42,1.5-2.36,3.67-2.25c-1.12-0.9-1.87-2.59-1.87-4.24
				c0-3.22,3.04-6.78,6.59-6.78c1.01,0,1.91,0.41,2.51,1.16c0.9-0.67,1.69-1.2,2.62-1.2c1.09,0,1.54,0.53,1.54,1.05
				c0,0.64-0.34,1.27-1.05,1.27c-1.09,0-1.01-1.2-1.65-1.2c-0.45,0-0.75,0.11-1.24,0.41c0.52,0.75,0.75,1.72,0.75,2.62
				c0,2.81-2.17,7.42-6.71,7.42c-0.3,0-0.67-0.11-0.94-0.23c-1.24,0.11-1.72,0.64-1.72,1.2c0,0.6,0.56,1.09,1.31,1.69
				c1.2,0.97,4.35,3.33,5.32,4.23c1.2,1.09,2.21,2.7,2.21,3.97c0,3.03-3.19,4.38-6.56,4.38
				C418.01,361.84,413.92,359.74,413.92,356.22 M426.59,358.13c0-1.12-0.75-2.25-1.72-3.11c-1.09-0.94-2.81-2.21-4.08-3.18
				c-2.55,1.2-4.27,3.18-4.27,4.91c0,2.4,3.03,4.38,6.07,4.38C425.2,361.13,426.59,359.82,426.59,358.13 M428.09,337.53
				c0-1.27-0.23-1.84-1.24-1.84c-2.13,0-4.87,5.51-4.87,8.36c0,1.54,0.26,1.95,0.94,1.95C424.83,345.99,428.09,340.22,428.09,337.53
				"/>
			<path style="clip-path:url(#SVGID_00000034780216732976265020000010907786797477610919_);fill:#FFFFFF;" d="M438.81,352.06
				c0-1.09,0.3-1.95,0.56-2.7c0.64-1.72,2.81-7.08,3.26-8.43c0.45-1.39,0.82-2.36,0.82-2.92c0-0.45-0.04-0.82-0.49-0.82
				c-0.64,0-1.65,0.64-2.36,1.31c-1.8,1.72-3.75,3.9-4.42,5.73c-0.49,1.31-1.95,5.55-3.07,8.81h-2.96l9.03-25.18
				c0.22-0.6,0.26-1.09,0.22-1.31l-2.21-0.3v-0.41h5.62l-5.62,15.62l0.11,0.04c2.7-3.93,6.22-6.44,8.06-6.44
				c0.86,0,1.27,0.97,1.27,1.76c0,0.79-0.3,1.95-0.75,3.11l-4.16,11.09h0.11c1.2-0.71,3.15-2.55,4.46-3.93l0.26,0.26
				c-0.79,1.16-4.83,5.88-6.44,5.88C439.33,353.22,438.81,352.62,438.81,352.06"/>
			<path style="clip-path:url(#SVGID_00000034780216732976265020000010907786797477610919_);fill:#FFFFFF;" d="M447.69,351.99
				c0-0.82,0.49-2.17,0.6-2.47l4.65-12.74h-2.85l0.83-1.46h2.55l1.42-3.97l3.3-1.09l-1.91,5.06h4.16l-0.9,1.46h-3.71
				c-1.42,3.82-2.92,7.87-3.37,9.14c-0.67,1.87-1.39,3.9-1.39,4.46c0,0.34,0.11,0.41,0.3,0.41c0.86,0,3.9-3.33,4.8-4.61l0.34,0.23
				c-0.86,1.54-5.13,6.82-7.53,6.82C448.11,353.22,447.69,352.55,447.69,351.99"/>
			<path style="clip-path:url(#SVGID_00000034780216732976265020000010907786797477610919_);fill:#FFFFFF;" d="M455.83,358.09v-0.34
				c4.12-0.34,5.92-2.92,5.92-4.57c0-0.67-0.26-1.12-0.52-1.39c-0.41,0.79-1.05,1.2-1.72,1.24c-0.86,0-1.65-0.64-1.65-1.57
				c0-1.12,0.97-2.25,2.47-2.25c1.54,0,2.66,1.24,2.66,3.33c0,3.56-2.4,5.66-5.7,5.66C456.8,358.21,456.31,358.17,455.83,358.09"/>
			<path style="clip-path:url(#SVGID_00000034780216732976265020000010907786797477610919_);fill:#FFFFFF;" d="M472.25,353.04
				l0.11-0.38c1.91-0.15,2.89-0.56,3.71-1.39c0.34-0.34,0.94-1.91,1.39-3.11c1.2-3.26,2.59-7.45,2.92-8.47
				c1.12-3.26,1.95-5.7,3-8.95c0.22-0.71,0.53-1.69,0.53-2.36c0-1.65-1.84-1.91-3.07-1.95l0.15-0.37h9.33
				c7.49,0,12.29,4.68,12.29,11.65c0,8.17-6.18,15.51-16.37,15.51C481.16,353.22,477.04,353.04,472.25,353.04 M498.89,336.7
				c0-7.23-4.95-10.08-8.24-10.08c-0.9,0-1.88,0.23-2.14,0.49c-0.34,0.34-1.09,2.59-1.95,5.1c-0.86,2.51-1.76,5.02-2.59,7.46
				l-2.7,8.24c-0.38,1.16-0.79,2.51-0.79,3.07c0,1.05,1.31,1.61,3.37,1.61C493.34,352.59,498.89,345.51,498.89,336.7"/>
			<path style="clip-path:url(#SVGID_00000034780216732976265020000010907786797477610919_);fill:#FFFFFF;" d="M503.51,347.68
				c0-6.48,5.17-12.63,9.18-12.63c2.1,0,3.52,2.36,3.52,5.85c0,4.8-4.23,12.33-8.99,12.33C505.3,353.22,503.51,351.31,503.51,347.68
				 M513.92,337.79c0-1.65-0.22-2.17-0.9-2.17c-2.4,0-7.31,9.74-7.31,14.69c0,1.8,0.38,2.36,1.2,2.36
				C508.83,352.66,513.92,344.12,513.92,337.79"/>
			<path style="clip-path:url(#SVGID_00000034780216732976265020000010907786797477610919_);fill:#FFFFFF;" d="M525.81,343.3
				c0-6.82,6.56-17.61,16.97-17.61c4.38,0,6.22,1.65,7.08,2.36l1.24-1.16l0.37,0.11l-1.91,8.06l-0.49-0.08
				c0.08-0.56,0.11-1.35,0.11-1.76c0-1.54-1.01-6.86-5.99-6.86c-7.01,0-13.71,10.19-13.71,18.85c0,4.2,2.21,7.53,6.22,7.53
				c2.06,0,4.42-0.79,5.58-2.58c0.49-0.75,0.75-1.57,1.2-3.11c0.22-0.71,0.49-1.8,0.49-2.47c0-1.72-2.1-1.91-3.33-1.95l0.15-0.38
				h10.49l-0.15,0.38c-0.82,0.11-1.98,0.07-3.03,1.31c-0.6,0.71-0.97,2.02-1.42,3.52c-0.41,1.31-0.82,2.77-1.12,3.86
				c-3.48,1.57-6.15,2.06-8.66,2.06C529.37,353.37,525.81,349.78,525.81,343.3"/>
			<path style="clip-path:url(#SVGID_00000034780216732976265020000010907786797477610919_);fill:#FFFFFF;" d="M550.77,347.68
				c0-6.48,5.17-12.63,9.18-12.63c2.1,0,3.52,2.36,3.52,5.85c0,4.8-4.23,12.33-8.99,12.33
				C552.57,353.22,550.77,351.31,550.77,347.68 M561.19,337.79c0-1.65-0.22-2.17-0.9-2.17c-2.4,0-7.31,9.74-7.31,14.69
				c0,1.8,0.38,2.36,1.2,2.36C556.09,352.66,561.19,344.12,561.19,337.79"/>
			<path style="clip-path:url(#SVGID_00000034780216732976265020000010907786797477610919_);fill:#FFFFFF;" d="M564.49,347.68
				c0-6.48,5.17-12.63,9.18-12.63c2.1,0,3.52,2.36,3.52,5.85c0,4.8-4.24,12.33-8.99,12.33
				C566.29,353.22,564.49,351.31,564.49,347.68 M574.91,337.79c0-1.65-0.22-2.17-0.9-2.17c-2.4,0-7.31,9.74-7.31,14.69
				c0,1.8,0.38,2.36,1.2,2.36C569.81,352.66,574.91,344.12,574.91,337.79"/>
			<path style="clip-path:url(#SVGID_00000034780216732976265020000010907786797477610919_);fill:#FFFFFF;" d="M577.16,350.79
				c0-6.41,6.48-15.59,11.01-15.59c1.2,0,1.99,0.64,2.32,1.27l2.96-9.4c0.11-0.3-0.04-0.49-0.3-0.52l-2.06-0.3v-0.41h5.69
				c-2.02,5.88-4.91,14.84-6.67,20.31c-0.49,1.54-1.31,3.86-1.31,4.31c0,0.26,0.04,0.41,0.26,0.41c0.52,0,3.22-2.62,4.2-3.82
				l0.26,0.26c-1.01,1.69-4.83,5.92-6.71,5.92c-0.79,0-1.09-0.45-1.09-1.05c0-0.94,0.9-3.56,1.54-5.73l-0.11-0.11
				c-1.69,2.44-5.32,6.9-7.94,6.9C577.72,353.22,577.16,352.17,577.16,350.79 M587.73,344.31c1.31-2.51,1.83-5.06,1.83-6.11
				c0-1.35-0.71-2.44-1.72-2.44c-2.92,0-7.57,10.42-7.57,13.79c0,1.09,0.15,1.61,0.97,1.61
				C582.78,351.16,585.74,348.09,587.73,344.31"/>
		</g>
	</g>
</g>
</svg>
