<svg width="184" height="86" xmlns="http://www.w3.org/2000/svg" xmlns:xlink="http://www.w3.org/1999/xlink"><defs><path id="a" d="M0 0h57v30.536H0z"/><path id="c" d="M31.584 35.704V.69H.39v35.015z"/><path id="e" d="M7.227 8.53H.397V.792h6.83z"/></defs><g fill="none" fill-rule="evenodd"><g transform="translate(63)"><mask id="b" fill="#fff"><use xlink:href="#a"/></mask><path d="M38.025 4.324c3.988-2.067 7.416-.127 8.793.653 4.173 2.362 5.473 4.955 5.814 6.8L38.025 4.324zm6.265 23.253l2.915-11.086a3.084 3.084 0 0 1-2.066-.534l-2.807 10.89c-2.98-5.58-3.426-10.733-1.066-13.903.743-.998 1.937-1.846 3.038-2.008.122 1.408 1.618 3.49 2.621 3.923.916.397 3.135-.404 3.415-1.596l2.176 1.203c-.082.344-2.051 8.286-8.226 13.111zm-23.16.39a6590.66 6590.66 0 0 0 4.698-7.38c3.292.296 6.317 1.245 9.01 2.798a19.554 19.554 0 0 1 5.503 4.71c-4.409-.02-12.37-.075-19.211-.127zm-15.513-.061a25.939 25.939 0 0 1 7.253-5.026c3.228-1.5 6.617-2.294 10.064-2.384-2.109 3.33-3.978 6.274-4.744 7.479l-12.573-.07zM32.579 9.913l.11-.177c.952-1.538 1.93-2.734 2.904-3.652l6.302 3.122a8.089 8.089 0 0 0-2.35 2.141c-.978 1.315-2.124 3.618-2.043 7.083.032 1.36.25 2.77.65 4.22a21.837 21.837 0 0 0-2.128-1.438c-2.568-1.522-5.521-2.56-8.663-3.037 2.072-3.264 4.071-6.424 5.218-8.262zM54.8 12.884v.02a9.208 9.208 0 0 0-.215-2.245c-.692-3.14-2.918-5.853-6.721-8.069C43.719.176 39.72.051 36.09 2.321c-.313.197-.61.407-.898.623L29.402 0l.969 3.033 2.98 1.574c-1.323 1.409-2.208 2.841-2.684 3.613l-.106.172a1641.753 1641.753 0 0 1-5.985 9.51l-.043-.002c-4.317-.18-8.772.693-12.829 2.553-3.992 1.83-7.554 4.59-10.247 7.95 0 0-.065.083-.085.111C.732 29.412 0 30.536 0 30.536l43.937-.144.452-.287c5.187-3.598 7.906-8.934 9.163-12.272l.011-.03c1.485-.057 2.334 1.574 2.396 1.474 2.744-4.414-.76-6.206-1.158-6.393z" fill="#57849B" mask="url(#b)"/></g><path fill="#64666A" d="M0 42.754h3.787V57.89h.54l14.515-15.135h5.454L8.52 58.727 25.062 77.77h-5.544L4.328 59.964h-.541V77.77H0zM34.973 42.735h16.843v2.944H38.153v8.38H50.91v2.945H38.153v9.513h14.344v2.944H34.973zM78.46 47.454c-.531-.856-1.238-1.479-2.12-1.868A6.757 6.757 0 0 0 73.576 45c-.705 0-1.4.088-2.08.264a6.175 6.175 0 0 0-1.836.794 3.967 3.967 0 0 0-1.306 1.396c-.328.578-.493 1.258-.493 2.038 0 .604.095 1.139.285 1.605.188.465.497.886.926 1.264.43.378 1.01.73 1.742 1.056.731.329 1.628.656 2.687.983 1.034.327 2.038.68 3.008 1.056.972.378 1.83.856 2.573 1.434a6.367 6.367 0 0 1 1.78 2.171c.442.869.663 1.958.663 3.265 0 1.335-.265 2.492-.795 3.473a7.305 7.305 0 0 1-2.101 2.436c-.87.64-1.873 1.12-3.009 1.434a13.125 13.125 0 0 1-3.519.472c-.782 0-1.565-.07-2.347-.208a11.293 11.293 0 0 1-2.25-.642 9.056 9.056 0 0 1-2.026-1.132 6.844 6.844 0 0 1-1.628-1.719l2.725-2.226a5.585 5.585 0 0 0 2.422 2.226 7.415 7.415 0 0 0 5.356.454 6.23 6.23 0 0 0 1.873-.887 4.845 4.845 0 0 0 1.362-1.453c.354-.579.53-1.245.53-2 0-.832-.14-1.504-.416-2.02-.278-.516-.707-.963-1.287-1.34-.58-.378-1.312-.717-2.195-1.02-.883-.301-1.918-.654-3.104-1.056a19.78 19.78 0 0 1-2.648-1.038 8.162 8.162 0 0 1-2.1-1.434 6.127 6.127 0 0 1-1.402-2.039c-.34-.793-.51-1.743-.51-2.85 0-1.284.252-2.404.757-3.36A7.088 7.088 0 0 1 67.257 44a9.303 9.303 0 0 1 2.914-1.453c1.083-.327 2.22-.49 3.405-.49 1.515 0 2.895.233 4.145.698 1.248.466 2.366 1.278 3.35 2.435l-2.612 2.265zM112.52 45.68h-8.856V69.46h-3.178V45.68h-8.857v-2.944h20.892zM124.594 42.735h6.85c1.287 0 2.565.075 3.84.226 1.275.152 2.415.48 3.426.982a6.213 6.213 0 0 1 2.461 2.208c.629.97.945 2.285.945 3.945 0 1.963-.593 3.548-1.779 4.757-1.186 1.208-2.826 1.976-4.92 2.304l7.608 12.304h-3.9l-7.265-12.004h-4.09v12.004h-3.176V42.735zm3.177 11.778h2.84c.884 0 1.796-.026 2.742-.075a9.438 9.438 0 0 0 2.613-.49c.795-.278 1.45-.712 1.967-1.305.519-.59.777-1.44.777-2.547 0-.957-.19-1.723-.568-2.303a3.831 3.831 0 0 0-1.495-1.34 6.402 6.402 0 0 0-2.082-.623 18.11 18.11 0 0 0-2.328-.15h-4.466v8.833z"/><g transform="translate(151.078 42.065)"><mask id="d" fill="#fff"><use xlink:href="#c"/></mask><path d="M14.454.689h3.56l13.57 35.015h-4.418l-3.244-8.606H7.964l-3.291 8.606H.39L14.454.69zm1.714 5.341h-.089L9.45 23.24H22.48L16.168 6.03z" fill="#64666A" mask="url(#d)"/></g><path d="M41.555 78.987h-.423c-.08-.273-.244-.567-.496-.88-.248-.314-.487-.486-.717-.516a5.476 5.476 0 0 0-.416-.033c-.16-.007-.34-.01-.544-.01h-1.343v2.971h.922c.28 0 .495-.024.65-.08a.992.992 0 0 0 .396-.247c.076-.075.144-.194.207-.356.063-.164.103-.336.123-.52h.423v2.91h-.423a2.132 2.132 0 0 0-.117-.522 1.294 1.294 0 0 0-.213-.423.853.853 0 0 0-.427-.261 2.305 2.305 0 0 0-.619-.071h-.922v2.546c0 .112.024.216.073.307a.52.52 0 0 0 .26.217c.056.026.179.054.367.09.187.035.33.054.427.057v.37h-3.47v-.37c.114-.006.262-.017.452-.034.188-.016.31-.034.367-.061a.462.462 0 0 0 .246-.2.629.629 0 0 0 .075-.32V78.21a.716.716 0 0 0-.061-.304c-.042-.087-.128-.16-.26-.215a1.984 1.984 0 0 0-.409-.12 3.894 3.894 0 0 0-.41-.064v-.37h6.282v1.85zM51.257 84.536H47.65v-.37l.439-.031c.19-.014.328-.035.406-.063a.568.568 0 0 0 .272-.186.555.555 0 0 0 .084-.327V78.2c0-.12-.02-.222-.061-.303-.044-.083-.14-.151-.295-.206a3.07 3.07 0 0 0-.426-.118 3.436 3.436 0 0 0-.42-.066v-.37h3.607v.37a4.105 4.105 0 0 0-.843.125c-.14.043-.24.111-.286.205a.67.67 0 0 0-.074.313v5.355c0 .114.028.216.082.304a.54.54 0 0 0 .278.212c.082.028.21.058.388.09.18.034.33.052.455.056v.37zM65.97 77.507a2.63 2.63 0 0 0-.486.084 1.77 1.77 0 0 0-.468.16c-.135.087-.226.255-.273.5-.047.247-.071.561-.071.94v5.418h-.49l-4.855-6.056v3.819c0 .428.028.756.087.985.058.229.148.394.268.49.087.077.265.147.537.214.27.065.449.102.536.105v.37H57.47v-.37c.1-.007.272-.043.513-.103.24-.06.392-.116.452-.163a.755.755 0 0 0 .27-.445c.05-.2.074-.542.074-1.025v-3.646c0-.16-.03-.319-.09-.48a.868.868 0 0 0-.243-.37 1.702 1.702 0 0 0-.55-.293 2.074 2.074 0 0 0-.562-.134v-.371h2.288l4.502 5.642v-3.521c0-.43-.03-.762-.09-.992-.06-.23-.146-.384-.26-.46a1.98 1.98 0 0 0-.516-.196 3.005 3.005 0 0 0-.545-.102v-.371h3.257v.371zM79.577 84.536h-3.33v-.37c.294-.018.538-.052.732-.105.193-.052.29-.116.29-.193a.761.761 0 0 0-.045-.235l-.663-1.657h-2.812c-.106.243-.193.456-.258.635l-.178.502c-.047.15-.081.269-.1.364-.02.094-.029.17-.029.23 0 .14.119.248.355.323.237.077.505.12.803.136v.37h-3.017v-.37a2.62 2.62 0 0 0 .367-.06c.147-.034.267-.078.36-.133.152-.094.269-.192.351-.296.082-.102.163-.243.243-.423.402-.929.845-1.972 1.332-3.13l1.296-3.091h.453l2.67 6.381c.057.137.12.246.192.329.07.084.171.166.3.246.086.048.199.09.339.122.138.033.255.051.349.055v.37zm-3.223-3.025l-1.213-2.87-1.195 2.87h2.408zM93.573 77.507a2.63 2.63 0 0 0-.486.084 1.79 1.79 0 0 0-.467.16c-.136.087-.227.255-.274.5-.047.247-.071.561-.071.94v5.418h-.49l-4.855-6.056v3.819c0 .428.029.756.087.985.059.229.148.394.268.49.087.077.265.147.537.214.271.065.45.102.536.105v.37h-3.285v-.37c.101-.007.274-.043.513-.103.241-.06.392-.116.452-.163a.755.755 0 0 0 .27-.445c.05-.2.075-.542.075-1.025v-3.646c0-.16-.03-.319-.091-.48a.868.868 0 0 0-.243-.37 1.702 1.702 0 0 0-.55-.293 2.074 2.074 0 0 0-.561-.134v-.371h2.287l4.503 5.642v-3.521c0-.43-.03-.762-.09-.992-.061-.23-.147-.384-.261-.46a1.98 1.98 0 0 0-.516-.196 3.005 3.005 0 0 0-.544-.102v-.371h3.256v.371z" fill="#64666A"/><g transform="translate(99.202 76.184)"><mask id="f" fill="#fff"><use xlink:href="#e"/></mask><path d="M4.035 8.53A3.71 3.71 0 0 1 2.66 8.27a3.545 3.545 0 0 1-1.163-.751A3.613 3.613 0 0 1 .697 6.32a4.086 4.086 0 0 1-.3-1.595c0-.592.099-1.128.294-1.61.195-.48.466-.895.812-1.245.341-.344.746-.608 1.212-.796A3.965 3.965 0 0 1 4.209.792c.394 0 .752.046 1.071.134.321.092.625.219.915.382l.231-.355h.45l.052 2.637h-.463a5.716 5.716 0 0 0-.27-.834 3.193 3.193 0 0 0-.423-.767 1.998 1.998 0 0 0-.643-.553 1.768 1.768 0 0 0-.852-.203c-.364 0-.704.077-1.018.225a2.312 2.312 0 0 0-.814.664c-.218.281-.389.64-.513 1.076a5.3 5.3 0 0 0-.185 1.454c0 .473.064.908.194 1.302.13.395.315.744.554 1.042.241.296.526.528.857.693.326.167.694.253 1.1.253.305 0 .585-.046.84-.135.256-.087.477-.205.667-.352a2.855 2.855 0 0 0 .845-1.157l.423.188c-.322.733-.752 1.257-1.287 1.572-.533.314-1.167.472-1.905.472" fill="#64666A" mask="url(#f)"/></g><path d="M116.126 84.536h-3.606v-.37l.439-.031c.19-.014.328-.035.406-.063a.568.568 0 0 0 .272-.186.555.555 0 0 0 .084-.327V78.2c0-.12-.02-.222-.061-.303-.044-.083-.14-.151-.295-.206a3.07 3.07 0 0 0-.426-.118 3.436 3.436 0 0 0-.42-.066v-.37h3.607v.37a4.105 4.105 0 0 0-.843.125c-.14.043-.239.111-.286.205a.67.67 0 0 0-.074.313v5.355c0 .114.028.216.082.304a.54.54 0 0 0 .278.212c.082.028.21.058.388.09.18.034.33.052.455.056v.37zM130.087 84.536h-3.329v-.37c.294-.018.537-.052.731-.105.194-.052.291-.116.291-.193a.761.761 0 0 0-.044-.235l-.664-1.657h-2.812c-.106.243-.191.456-.257.635l-.178.502c-.049.15-.083.269-.101.364a1.12 1.12 0 0 0-.027.23c0 .14.118.248.354.323.237.077.504.12.801.136v.37h-3.017v-.37a2.62 2.62 0 0 0 .368-.06c.147-.034.266-.078.362-.133.15-.094.266-.192.35-.296.082-.102.162-.243.243-.423.4-.929.845-1.972 1.331-3.13l1.297-3.091h.452l2.67 6.381c.056.137.12.246.193.329.07.084.17.166.3.246.085.048.198.09.337.122.14.033.257.051.35.055v.37zm-3.222-3.025l-1.213-2.87-1.196 2.87h2.409zM142.295 82.335l-.17 2.201h-6.26v-.371c.092-.006.222-.02.394-.035.171-.018.291-.04.358-.069a.471.471 0 0 0 .244-.197.638.638 0 0 0 .077-.334V78.23a.706.706 0 0 0-.066-.312c-.041-.09-.128-.164-.255-.22a2.087 2.087 0 0 0-.363-.122 2.165 2.165 0 0 0-.39-.07v-.37h3.383v.37a2.786 2.786 0 0 0-.41.052c-.166.031-.287.06-.364.084a.408.408 0 0 0-.26.213.759.759 0 0 0-.072.324v4.969c0 .23.013.408.035.534a.476.476 0 0 0 .173.294.834.834 0 0 0 .388.124c.17.019.41.029.72.029.138 0 .283-.003.434-.012.151-.006.294-.02.428-.041.132-.021.253-.051.364-.085a.607.607 0 0 0 .247-.14 4.9 4.9 0 0 0 .539-.726c.204-.326.346-.589.426-.79h.4z" fill="#64666A"/></g></svg>