<svg xmlns="http://www.w3.org/2000/svg" xmlns:xlink="http://www.w3.org/1999/xlink" width="241.106" height="98.216" viewBox="0 0 241.106 98.216"><defs><clipPath id="a"><rect width="241.106" height="98.216" fill="none"/></clipPath></defs><g clip-path="url(#a)"><path d="M142.883,43.611h23.7v4.34c-3.918,4.408-10.762,6.642-20.351,6.642-16.309,0-25.29-7.068-25.29-19.9s8.79-19.9,24.751-19.9c8.979,0,15.1,2.253,20.467,7.532l.778.766,13.343-9.713-1.1-1.065C174.459,7.711,163.805,0,145.608,0c-26.219,0-41.873,12.969-41.873,34.691s15.654,34.691,41.873,34.691c16.229,0,29.633-5.559,36.774-15.25l.252-.341V29.362h-39.75Z" transform="translate(-30.613)"/><path d="M76.825,2.8H53.98L18.39,33.174V2.8H1.448v65.43H18.39V51.918L33.368,39.232l23.8,29H77.725L45.835,29.04Z" transform="translate(-0.427 -0.827)"/><path d="M305.8,24.131C301.332,8.8,286.825,0,265.993,0,253.589,0,243.218,3.153,236,9.117c-7.362,6.085-11.254,14.929-11.254,25.573,0,12.927,5.569,22.917,16.107,28.891l1.923,1.09V34.691c0-12.534,8.462-19.723,23.215-19.723,10.523,0,18.265,3.6,21.8,10.135l.364.676h18.117Z" transform="translate(-66.325)"/><path d="M316.442,42.33V77.082l1.929-1.108a30.665,30.665,0,0,0,15.27-21.535l.011-.06V42.33Z" transform="translate(-93.384 -12.492)" fill="#3270f4"/><path d="M286.4,85.144l1.363-.08a53.42,53.42,0,0,0,15-2.92l.85-.307V53.571H286.4Z" transform="translate(-84.52 -15.809)" fill="#3270f4"/><path d="M256.224,85.414l.895.287A55.778,55.778,0,0,0,272.1,88.185l1.335.049V63.9H256.224Z" transform="translate(-75.614 -18.857)" fill="#3270f4"/><path d="M19.184,126.493c0,3.336-3.082,5.607-8.966,5.607A16.107,16.107,0,0,1,0,128.925l2.48-2.919a11.894,11.894,0,0,0,7.83,2.525c2.78,0,4.171-.51,4.171-1.575,0-1.043-1.3-1.39-4.634-1.668-4.819-.417-9.2-1.483-9.2-5.1,0-3.475,3.753-5.375,8.9-5.375a15.61,15.61,0,0,1,8.9,2.409l-2.386,2.942a11.134,11.134,0,0,0-6.51-1.807c-1.9,0-4.193.3-4.193,1.46,0,1.089,1.876,1.228,4.772,1.459,5.306.441,9.059,1.483,9.059,5.213" transform="translate(0 -33.883)"/><path d="M41.276,123.458c0-5.491,4.147-8.642,10.564-8.642s10.588,3.151,10.588,8.642S58.258,132.1,51.84,132.1s-10.564-3.15-10.564-8.641m16.333,0c0-3.059-2.2-4.8-5.769-4.8-3.545,0-5.769,1.738-5.769,4.8s2.2,4.8,5.769,4.8,5.769-1.738,5.769-4.8" transform="translate(-12.181 -33.883)"/><path d="M102.585,127.99v3.8H86.946V115.572h4.727V127.99Z" transform="translate(-25.658 -34.106)"/><path d="M141.864,115.572v8.572c0,4.935-3.36,8.178-9.406,8.178s-9.429-3.243-9.429-8.178v-8.572h4.726v8.2c0,2.827,1.575,4.657,4.7,4.657s4.68-1.831,4.68-4.657v-8.2Z" transform="translate(-36.307 -34.106)"/><path d="M182.32,119.348h-6.742V131.79h-4.727V119.348h-6.7v-3.776H182.32Z" transform="translate(-48.444 -34.106)"/><rect width="4.726" height="16.217" transform="translate(144.143 81.466)"/><path d="M226.855,123.458c0-5.491,4.147-8.642,10.564-8.642s10.588,3.151,10.588,8.642-4.17,8.641-10.588,8.641-10.564-3.15-10.564-8.641m16.333,0c0-3.059-2.2-4.8-5.769-4.8-3.545,0-5.769,1.738-5.769,4.8s2.2,4.8,5.769,4.8,5.769-1.738,5.769-4.8" transform="translate(-66.947 -33.883)"/><path d="M291.708,115.572v16.217h-4.147l-10.472-10.657v10.657h-4.564V115.572h5l9.614,9.916v-9.916Z" transform="translate(-80.424 -34.106)"/><path d="M334.016,126.493c0,3.336-3.082,5.607-8.966,5.607a16.107,16.107,0,0,1-10.217-3.174l2.48-2.919a11.894,11.894,0,0,0,7.83,2.525c2.78,0,4.171-.51,4.171-1.575,0-1.043-1.3-1.39-4.634-1.668-4.819-.417-9.2-1.483-9.2-5.1,0-3.475,3.753-5.375,8.9-5.375a15.61,15.61,0,0,1,8.9,2.409l-2.386,2.942a11.134,11.134,0,0,0-6.51-1.807c-1.9,0-4.193.3-4.193,1.46,0,1.089,1.876,1.228,4.772,1.459,5.306.441,9.059,1.483,9.059,5.213" transform="translate(-92.909 -33.883)"/></g></svg>