<?xml version="1.0" encoding="UTF-8"?>
<!-- Generator: Adobe Illustrator 18.1.1, SVG Export Plug-In . SVG Version: 6.00 Build 0)  -->
<svg xmlns="http://www.w3.org/2000/svg" xmlns:xlink="http://www.w3.org/1999/xlink" version="1.1" id="Layer_1" x="0px" y="0px" viewBox="0 0 654.8 148.1" style="enable-background:new 0 0 654.8 148.1;" xml:space="preserve">
<g>
	<polygon style="fill:#FFFFFF;" points="39.6,0.1 0,0.1 0,117.2 39.6,117.2 39.6,85 71.4,117.2 125.3,117.2 66.4,58.6 125.1,0.1    76,0.1 39.6,33.6  "></polygon>
	<rect x="129.8" y="0.1" style="fill:#FFFFFF;" width="36.4" height="117.1"></rect>
	<rect x="174.5" y="0.1" style="fill:#FFFFFF;" width="35.8" height="20.9"></rect>
	<rect x="174.5" y="36.3" style="fill:#FFFFFF;" width="35.8" height="81"></rect>
	<path style="fill:#FFFFFF;" d="M255.1,36.3v8.2c0,0,12.2-11.4,30.5-11c33.3,0,33.3,25.9,33.3,25.9s0.1,37.3,0,39.5   c-0.1,2.1,0,19.6-31,19.6c-23.5,0.7-33.6-6.4-33.6-6.4v36.2h-36.4V36.3H255.1z M257.2,95.4c0,8.5,26.7,8.7,26.7-0.5   c0-10.3,0-23.6,0-35.1c0-8.1-26.7-8.1-26.7,0"></path>
	<path style="fill:#FFFFFF;" d="M545.7,64.5c0,0,0-31.7-54.1-31.7c-54.1,0-54.1,36.9-54.1,44c0,5,0,42.7,57.6,42.7   c50.7,0,50.4-34.6,50.4-34.6l-35,0c0,0-0.1,13.7-16.4,13.7c-17.9,0-17.3-21.6-17.3-21.6s-1.6-25,17.6-25   c15.7,0,15.2,12.6,15.2,12.5H545.7z"></path>
	<path style="fill:#FFFFFF;" d="M550.9,0v117.2h40V59.6c0.2-8.7,26.5-8.8,26.5,0.4c0,9.1,0,57.2,0,57.2h37.3c0,0-0.1-66.8,0-69.4   c0.1-2.5-0.5-17.1-33.6-17.5c-33-0.5-30.7,16.4-30.7,16.4l0-46.7H550.9z"></path>
	<path style="fill:#FFFFFF;" d="M640.1,18.6c0-3.8,2.9-6.7,6.6-6.7c3.6,0,6.5,2.9,6.5,6.7c0,3.9-2.9,6.7-6.5,6.7   C642.9,25.3,640.1,22.5,640.1,18.6z M646.6,26.6c4.4,0,8.1-3.4,8.1-8.1c0-4.6-3.8-8-8.1-8c-4.4,0-8.2,3.4-8.2,8   C638.4,23.2,642.2,26.6,646.6,26.6z M644.9,19.2h1.6l2.5,4h1.6l-2.6-4.1c1.4-0.2,2.4-0.9,2.4-2.6c0-1.8-1.1-2.6-3.3-2.6h-3.5v9.3   h1.4V19.2z M644.9,18v-2.9h1.9c1,0,2,0.2,2,1.4c0,1.4-1.1,1.5-2.3,1.5H644.9z"></path>
	<path style="fill:#FFFFFF;" d="M431,56.6h-36.1c-0.2-7.3-17.4-6.9-17.4-6.9s-17.7,0.1-17.9,7.3c0.1,15.8,52.9,2.9,67.7,17.7   c12.4,12.4,4.6,26.4,0.5,31.1c-5,5.8-16.9,13.9-45.6,13.9c-58.7,0-58.5-25.8-58.5-25.8l37.5,0c0,0-2.3,7.5,16.6,7.7   c18.8,0.3,18.3-8.6,18.3-8.6s3.1-8-18.2-8c-54.3,0-54.2-18.5-54.2-23.6c0-28.7,43.6-28.6,54-28.6c12.7,0,37.5,0.5,48.1,11.1   C430.3,48.3,431,56.6,431,56.6z"></path>
</g>
</svg>
