<?xml version="1.0" encoding="utf-8"?>
<!-- Generator: Adobe Illustrator 25.2.1, SVG Export Plug-In . SVG Version: 6.00 Build 0)  -->
<svg version="1.1" id="Layer_1" xmlns="http://www.w3.org/2000/svg" xmlns:xlink="http://www.w3.org/1999/xlink" x="0px" y="0px"
	 viewBox="0 0 290 61" style="enable-background:new 0 0 290 61;" xml:space="preserve">
<style type="text/css">
	.st0{fill:#008C99;}
</style>
<g>
	<g>
		<path class="st0" d="M17.1,50.5c3.5,1.6,7.6,2.2,11.7,1.7c6.6-0.8,12.2-4.5,15.6-9.6c-5,3.4-11.7,6.1-17.6,7.3
			C23.3,50.7,20,50.8,17.1,50.5"/>
		<path class="st0" d="M35.6,15.1c-0.1,1.9-1.5,4.4-1.9,5.1c-2.5,4.6-6.6,10.9-12.5,21.1c-0.9,1.5-0.7,2.8,0.5,3.7
			c1.4,1,4.1,1.8,7.2,1.4c13.5-1.9,17.1-6.8,18.1-8.8c1-3,1.4-6.4,1-9.7c-1.1-8.7-7.2-15.6-15.1-18.1C33.5,10.1,35.8,11.8,35.6,15.1
			"/>
		<path class="st0" d="M26.8,8.7c-1.1,0-2.3,0-3.4,0.2C11.3,10.3,2.7,21.2,4.2,33.2c0.2,1.2,0.4,2.4,0.8,3.6
			C14,27.9,33.2,10.8,26.8,8.7"/>
		<path class="st0" d="M52.7,36.9c0.1,0,1.2-0.4,1.5-0.7c0.2-0.2,0.4-0.5,0.4-0.8V17.9c0-0.3-0.2-0.5-0.4-0.8
			c-0.3-0.3-1.5-0.7-1.5-0.7h8.1c0,0-0.8,0.3-1.2,0.6c-0.3,0.3-0.6,0.5-0.6,0.9v17.4h11.8c1,0,1.6-0.2,2.4-0.5
			c0.8-0.3,1.2-0.6,1.7-1.1l-0.7,3.2"/>
		<path class="st0" d="M77,24.3c1.9-1.3,4-1.7,6.8-1.7c4.8,0,7.9,1.4,7.9,3.7v8.9c0,0.3,0.2,0.5,0.6,0.7c0.4,0.2,0.7,0.3,1.1,0.3
			l-3.6,1l-1.5-0.8l-0.2-1.1c-0.1,0.1-3.6,2-7.2,2c-3.4,0-5.9-2-5.9-4c0.1-2.7,4.4-3.9,8.6-4.5c3.1-0.5,4.4-1,4.4-1l0-2
			c0-1.3-2.2-2-4.3-1.9c-5.2,0-7.7,4.3-7.6,4.3 M82.7,35.7c2.3,0,5.3-1.3,5.4-1.3v-5.3c-0.1,0-2.1,0.5-3.4,0.7
			c-2.9,0.5-5.6,1.4-5.7,3.3C78.8,34.6,80.5,35.7,82.7,35.7z"/>
		<path class="st0" d="M101,36.9h-7.9c0.6-0.1,1.2-0.3,1.4-0.6c0.2-0.2,0.2-0.4,0.2-0.7V17.9c0-0.4-0.2-0.6-0.6-0.9
			c-0.5-0.2-1.6-0.4-1.8-0.4l6.5-1v13.7l8.2-4.8c0.4-0.2,0.9-0.5,0.8-0.9c-0.1-0.4-1.1-0.7-1.2-0.7h7c-0.9,0.2-1.4,0.4-2.3,0.7
			c-0.9,0.4-1.4,0.6-2.1,1.1l-6.9,4.1l7.6,6.1c0.7,0.6,1.2,0.9,2.1,1.4c0.6,0.2,1.6,0.4,2.2,0.6h-8.1c0,0,1-0.2,1.1-0.5
			c0.1-0.2-0.2-0.4-0.4-0.6l-8.2-6.2v5.5c0,0.4,0,0.8,0.3,1C99.5,36.5,100.4,36.7,101,36.9"/>
		<path class="st0" d="M129.5,32.5c0,0-0.8,4.5-9.1,4.6c-5.6,0-10.1-3.2-10.1-7.3c-0.1-4,4.4-7.4,10.5-7.3c7.9,0.1,8.9,5,8.9,6.2
			h-15.3c-1,2.1,1.7,6.5,7.4,6.6C126.8,35.5,129.5,32.5,129.5,32.5 M125.5,27.4c0.3-1.3-1.8-4-4.9-4c-4.6,0-6.3,3.2-6.1,4H125.5z"/>
		<path class="st0" d="M134.8,35.5c0,0.3,0,0.5,0.2,0.8c0.3,0.3,1.2,0.5,1.9,0.6h-7.3c0.5-0.1,1.2-0.2,1.4-0.5
			c0.2-0.2,0.1-0.4,0.1-0.7V17.8c0-0.4-0.2-0.6-0.6-0.8c-0.5-0.3-1.6-0.4-1.7-0.4l6-0.9"/>
		<path class="st0" d="M138.8,24.3c1.9-1.3,4-1.7,6.8-1.7c4.8,0,7.9,1.4,7.9,3.7v8.9c0,0.3,0.2,0.5,0.6,0.7c0.4,0.2,0.7,0.3,1.1,0.3
			l-3.6,1l-1.5-0.8l-0.2-1.1c-0.1,0.1-3.6,2-7.2,2c-3.4,0-5.9-2-5.9-4c0.1-2.7,4.4-3.9,8.6-4.5c3.1-0.5,4.4-1,4.4-1l0-2
			c0-1.3-2.2-2-4.3-1.9c-5.2,0-7.5,4.3-7.5,4.4 M144.4,35.7c2.3,0,5.3-1.3,5.4-1.3v-5.3c-0.1,0-2.1,0.5-3.4,0.7
			c-2.9,0.5-5.6,1.4-5.7,3.3C140.6,34.6,142.3,35.7,144.4,35.7z"/>
		<path class="st0" d="M161.9,36.9h-6.1c0,0,0.7-0.3,0.9-0.5c0.2-0.3,0.2-0.4,0.2-0.6V24.4c0-0.3-0.2-0.5-0.5-0.7
			c-0.4-0.3-1.5-0.4-1.7-0.4l5.8-0.8l-0.1,2.1c1.5-0.9,4.1-2.1,7.5-2.1c4.5,0.1,6.7,2.1,6.7,4.5v8.6c0,0.3,0,0.5,0.2,0.8
			c0.2,0.2,1,0.4,1.3,0.5h-6.8c0.3-0.1,1.4-0.2,1.6-0.4c0.2-0.2,0.1-0.6,0.1-0.8V27c0-1.6-1.8-3.1-4.8-3c-1.6,0-3.6,0.5-5.8,1.7v9.9
			c0,0.3,0.1,0.5,0.3,0.8C161,36.6,161.8,36.7,161.9,36.9"/>
		<path class="st0" d="M197.1,36.2l-5.8,1.1v-1.7c-2,1.2-3.8,1.7-6.6,1.7c-5.9,0-9.2-3.8-9.1-7.5c0.1-3.5,4.4-7.4,10.7-7.3
			c2,0,3.2,0.3,5,1l0-5.2c0-0.4-0.2-0.7-0.6-1c-0.5-0.4-2-0.5-2-0.5l6.3-1v19c-0.2,0.4,0,0.7,0.3,1
			C195.6,36.1,196.5,36.2,197.1,36.2 M179.4,29.5c0,3,2.5,6.3,7.4,6.3c3.5,0,4.2-1.1,4.5-1.3v-9.2c-0.7-0.7-1.9-1.9-4.3-1.9
			C182.5,23.5,179.4,26.5,179.4,29.5z"/>
		<path class="st0" d="M213.1,37.1l-13.6,0c0.1,0,1.2-0.3,1.7-0.6c0.3-0.2,0.4-0.5,0.4-0.8V19.2c0-0.3-0.2-0.5-0.4-0.8
			c-0.3-0.3-1.4-0.6-1.6-0.7h10.2c5,0,10.7,1,10.7,4.3c0,2.2-3,4-5.9,4.4c3.5,0,9,2,9,5.2C223.7,34.8,218.8,37.1,213.1,37.1
			 M208.7,18.9c-0.9,0-2.8,0-2.8,0v7.2l4.2,0c3.5,0,6.8-1.6,6.6-3.7C216.3,19.8,212.8,19,208.7,18.9z M211.8,27.1h-5.9v8.7
			c0,0,2.9,0,4.4,0c5.9,0.1,9-1.7,8.9-4.4C219.2,29,215.9,27.1,211.8,27.1z"/>
		<path class="st0" d="M226.2,25.2c1.8-1.2,3.8-1.6,6.4-1.6c4.6,0,7.4,1.3,7.4,3.5v8.4c0,0.3,0.2,0.5,0.6,0.7s0.6,0.3,1.1,0.3
			l-3.4,0.9l-1.4-0.8l-0.2-1c-0.1,0-3.4,1.9-6.8,1.9c-3.2,0-5.6-1.9-5.5-3.8c0.1-2.5,4.1-3.7,8.1-4.3c2.9-0.4,4.1-1,4.2-1l0-1.9
			c0-1.2-2.1-1.9-4.1-1.8c-4.9,0-7.1,4.1-7.1,4.1 M231.6,36c2.2,0,5-1.2,5.1-1.2v-5c-0.1,0-2,0.4-3.2,0.7c-2.8,0.5-5.3,1.3-5.4,3.1
			C228,35,229.6,36,231.6,36z"/>
		<path class="st0" d="M248.2,37.1h-5.8c0,0,0.7-0.3,0.8-0.4c0.2-0.3,0.2-0.4,0.2-0.6V25.4c0-0.3-0.2-0.5-0.4-0.7
			c-0.4-0.3-1.4-0.4-1.6-0.4l5.5-0.8l-0.1,2c1.4-0.8,3.9-2,7.1-2c4.2,0.1,6.3,2,6.3,4.2v8.1c0,0.3,0,0.5,0.2,0.7
			c0.2,0.2,0.9,0.4,1.3,0.5h-6.2c0.3-0.1,1.1-0.2,1.3-0.4c0.2-0.2,0.1-0.6,0.1-0.8v-8.1c0-1.5-1.6-2.9-4.5-2.8
			c-1.5,0-3.4,0.5-5.4,1.6v9.3c0,0.3,0.1,0.5,0.3,0.7C247.3,36.8,248,36.9,248.2,37.1"/>
		<path class="st0" d="M268.4,37.1h-6.9c0.5-0.1,1.1-0.3,1.4-0.6c0.2-0.2,0.2-0.4,0.2-0.7V19.2c0-0.3-0.2-0.6-0.6-0.8
			c-0.5-0.2-1.6-0.4-1.7-0.4L267,17v12.9l7.8-4.5c0.4-0.2,0.8-0.5,0.7-0.8c-0.1-0.4-1.1-0.7-1.1-0.7h6.6c-0.9,0.2-1.4,0.4-2.1,0.7
			c-0.8,0.3-1.3,0.6-2,1l-6.5,3.9l7.2,5.8c0.7,0.5,1.1,0.9,2,1.3c0.5,0.2,1.5,0.4,2.1,0.5H274c0,0,0.9-0.2,1-0.4
			c0-0.2-0.2-0.4-0.3-0.5l-7.8-5.9v5.2c0,0.4,0,0.7,0.3,1C267.5,36.8,267.8,37,268.4,37.1"/>
	</g>
	<path class="st0" d="M284.2,21c1.4,0,2.5,1.1,2.5,2.5c0,1.4-1.1,2.6-2.5,2.6c-1.4,0-2.5-1.1-2.5-2.6C281.6,22.1,282.8,21,284.2,21
		 M284.2,21.4c-1.1,0-2,1-2,2.1c0,1.2,0.9,2.2,2.1,2.2c1.1,0,2-1,2-2.1C286.2,22.4,285.3,21.4,284.2,21.4L284.2,21.4z M283.7,25
		h-0.5v-2.8c0.2,0,0.5-0.1,0.8-0.1c0.4,0,0.7,0.1,0.9,0.2c0.2,0.1,0.3,0.3,0.3,0.6c0,0.4-0.2,0.6-0.6,0.7v0c0.2,0,0.4,0.3,0.5,0.7
		c0.1,0.4,0.1,0.6,0.2,0.7h-0.5c-0.1-0.1-0.1-0.4-0.2-0.7c-0.1-0.4-0.2-0.5-0.6-0.5h-0.3L283.7,25L283.7,25z M283.7,23.5h0.3
		c0.4,0,0.7-0.1,0.7-0.5c0-0.2-0.2-0.5-0.7-0.5c-0.1,0-0.2,0-0.3,0V23.5z"/>
</g>
</svg>
