<svg id="Layer_1" data-name="Layer 1" xmlns="http://www.w3.org/2000/svg" viewBox="0 0 712.84 154"><defs><style>.cls-1{fill:#ec1f32;}</style></defs><title>landolakes-logo-watermark-red</title><path class="cls-1" d="M703.73,35a8.16,8.16,0,1,1-8.11,8.13A8,8,0,0,1,703.73,35Zm0,1.26a6.9,6.9,0,0,0,0,13.79,6.65,6.65,0,0,0,6.51-6.89,6.69,6.69,0,0,0-6.51-6.9Zm-1.52,11.61h-1.44V38.74a17.21,17.21,0,0,1,2.56-.22,4.84,4.84,0,0,1,2.84.7,2.18,2.18,0,0,1,.83,1.87,2.26,2.26,0,0,1-1.78,2.21v.08c.79.15,1.34.87,1.51,2.19a8,8,0,0,0,.58,2.25h-1.51a6.63,6.63,0,0,1-.61-2.31,1.72,1.72,0,0,0-2-1.59h-1Zm0-5h1.05c1.2,0,2.21-.44,2.21-1.55,0-.8-.59-1.6-2.21-1.6a6.49,6.49,0,0,0-1.05.08Z"/><path class="cls-1" d="M689.39,36.66c-8.79-6.14-22-6.84-30.7-1.1a20.56,20.56,0,0,0-7.83,18.53c1.49,8.49,7.15,15.49,12.63,22.26,6.27,7.74,12.18,15,12.07,24.17a10.54,10.54,0,0,1-4.2,7.06c-3.17,2.44-11,2.47-15.38.23l-3.25-1.48.17,17.54s17.9,6.14,32.59-4.61a22.1,22.1,0,0,0,7.08-9.63c3.23-8.48,2.07-19-3-28-2.2-4.44-5.59-8.43-8.87-12.3-3.88-4.56-7.54-8.87-9.23-13.55-.72-2.9-.38-6.11,2.59-8.12,2.92-1.81,7.81.26,12.29,3.07A34.65,34.65,0,0,1,690.74,54l-.55-16.75Z"/><polygon class="cls-1" points="647.97 48.02 647.97 33.22 606.09 33.22 606.09 33.57 605.97 33.57 605.97 123.06 606.09 123.06 606.09 123.52 647.97 123.52 647.97 108.71 624.05 108.71 624.05 82.5 639.67 82.5 639.67 67.69 624.05 67.69 624.05 48.02 647.97 48.02"/><path class="cls-1" d="M43.22,108.28s-19.88.13-23.39.06l.47-75H0l.13,89.7,41.45.14Z"/><path class="cls-1" d="M481.54,108.41s-17.54.13-21,.06l.46-75H441.32l.13,89.71,38.11.13Z"/><path class="cls-1" d="M526.25,123.12l17.45.17L535.22,34l-20.5-.3h-.25C503.09,34.92,499,40.4,497.55,44.78l-.08.34c-.5,3.24-3.07,21.63-4.16,27.55l-.22,1.68a57.39,57.39,0,0,0-12.43,3l-2.54,18a89.52,89.52,0,0,1,12.58-3.26c-1.59,11-4.59,31.33-4.59,31.33l16.91-.07,4.87-32.45a32.77,32.77,0,0,1,15.45,4.57Zm-16-49.36c.48-3,.86-5.92,1.22-8.81.54-4.42,1.1-9,2-13.37a5,5,0,0,1,3.54-3l.31-.08a3.9,3.9,0,0,1,2.25,0l2.07,27.28c-1.67-.5-3.4-1-5.12-1.32-2.1-.34-4.21-.55-6.31-.71"/><path class="cls-1" d="M582.12,72.57l0,0L601.7,33.4H582.8L566.5,65.91l-.34-.15.15-32.42-18.43.23.11,89.51,18,0,.13-38.37v-1c20,10,17.17,39.36,17.17,39.36l18.36,0c.65-17-3.6-38.81-19.49-50.55"/><path class="cls-1" d="M174.32,33.19l.09,90.05-18.16.13s0-3.69-.14-9c-.21-11.13-4.5-31.11-19.65-50.84L136,123.07l-18.73.25.21-89.79s3.1-.19,4-.19c17,0,30.42,18.88,33.87,26.9l-.42-27.05Z"/><path class="cls-1" d="M238.56,54c8,14.56,7.26,39.18-2.94,53.12-7.09,9.69-20.53,15.86-35.27,15.86l-13.74-.24.24-89.06,13.56,0c17.13,0,30.9,7,38.15,20.28m-17.83,5.24c-3-5-9.67-9-15.81-9.23l-.34,57.39c7.15-.84,13-4.73,16.94-11.72,5.07-8.9,6.1-24.95-.79-36.44"/><path class="cls-1" d="M107.51,123.34,98.78,34l-21.11-.3-.25,0C65.7,35,61.48,40.45,60,44.82l-.08.34c-.51,3.24-3.16,21.63-4.28,27.55l-.23,1.7a56.8,56.8,0,0,0-12.35,3l-2.55,18A89.17,89.17,0,0,1,53,92.2c-1.65,11-4.72,31.3-4.72,31.3l17.4-.07,5-32.43c5.72.44,11.35,1.84,15.92,5l0-.06,2.94,27.21ZM73.05,73.83c.49-3,.89-5.94,1.25-8.84.56-4.42,1.14-9,2.11-13.37a5.1,5.1,0,0,1,3.65-3l.3-.08a4.18,4.18,0,0,1,2.33,0l2.15,27.52a61,61,0,0,0-5.91-1.56c-2-.32-3.92-.53-5.88-.68"/><path class="cls-1" d="M266.08,77A76.46,76.46,0,1,0,342.52.55,76.53,76.53,0,0,0,266.08,77m131.67-.74a54.91,54.91,0,1,1-54.92-54.91,55,55,0,0,1,54.92,54.91"/></svg>