<svg enable-background="new 0 0 401.02 148.19" viewBox="0 0 401.02 148.19" xmlns="http://www.w3.org/2000/svg" xmlns:xlink="http://www.w3.org/1999/xlink"><clipPath id="a"><path d="m49.98 58.63h40.46v44.71h-40.46z"/></clipPath><path d="m75.89 114.79c-.53 0-1.06-.14-1.52-.41-5.47-3.07-32.64-19.07-32.64-30.65v-35.19c0-1.31.82-2.47 2.05-2.92l31.06-11.4c.69-.26 1.45-.26 2.14 0l31.06 11.4c1.23.45 2.05 1.61 2.05 2.92v35.19c0 12.61-27.24 27.77-32.7 30.69-.46.25-.98.37-1.5.37" fill="#328f43"/><path d="m75.89 114.79c-.53 0-1.06-.14-1.52-.41-5.47-3.07-32.64-19.07-32.64-30.65v-35.19c0-1.31.82-2.47 2.05-2.92l31.06-11.4c.69-.26 1.45-.26 2.14 0l31.06 11.4c1.23.45 2.05 1.61 2.05 2.92v35.19c0 12.61-27.24 27.77-32.7 30.69-.46.25-.98.37-1.5.37" fill="#7c6990"/><path d="m53.12 85.83h-11.11c1.14 4.53 5.71 9.53 11.11 14.09z" fill="#8e809e"/><path d="m87.3 38.01 5.21 1.92 6.18 2.26z" fill="#fff"/><path d="m87.3 38.01 5.21 1.92z" fill="#b2aabb"/><path d="m64.51 38.01-11.39 4.18z" fill="#fff"/><path d="m64.51 38.01-11.39 4.19v43.63h11.39v-15.9z" fill="#8e809e"/><path clip-path="url(#a)" d="m75.91 69.93h-11.39v15.9h-.01v15.89h11.4z" fill="#b0a3bc"/><path d="m64.51 85.83v-15.9z" fill="#665679"/><path d="m98.69 42.2 9.34 3.43c1.23.45 2.05 1.61 2.05 2.92v21.39 13.8.02.01.01.01.01.01.01.01.01.01.01.02.01.01s0 .01 0 .01v.01.01.01.01.01.01.01.01.01.02.01.01.01.01.01.01c-.16 4.28-3.39 8.83-7.78 13.08 4.51-4.37 7.79-9.05 7.79-13.42v-35.2c0-1.31-.82-2.47-2.05-2.92z" fill="#fff"/><path d="m75.91 34.03v51.79h11.39v22.78c-4.43 2.82-8.22 4.91-9.92 5.81 3.57-1.91 16.43-9.03 24.92-17.26 4.39-4.26 7.62-8.81 7.78-13.09-.21 5.38-5.26 11.2-11.39 16.31v-30.44h11.39v-21.39c0-1.31-.82-2.48-2.05-2.92l-9.34-3.43v43.63h-11.39v-47.81l-10.32-3.79c-.35-.12-.71-.19-1.07-.19m34.18 49.75c0 .01 0 .01 0 0m0 .02c0 .01 0 .01 0 0m0 .06s0 .01 0 0zm0 .05v.01s0 0 0-.01m-.01.02v.01zm0 .02v.01c0-.01 0-.01 0-.01m0 .01v.02s0-.01 0-.02m0 .03v.01zm0 .02v.01zm0 .01v.01s0 0 0-.01m0 .02v.01zm0 .02v.01z" fill="#9b90aa"/><path d="m87.3 85.83h-11.39v28.96c.52 0 1.02-.13 1.48-.37 1.7-.91 5.49-2.99 9.92-5.82v-22.77z" fill="#b4adbe"/><path d="m92.51 39.93 6.19 2.27z" fill="#fff"/><path d="m87.3 38.01v47.82h11.39v-43.64l-6.18-2.26z" fill="#ccc8d2"/><path d="m110.09 83.73v.02zm0 .03v.01c0-.01 0-.01 0-.01m0 .08v.02s0-.01 0-.02m0 .08s0 .01 0 0zm0 .02c-.01 0 0 0 0 0m-.01.04c0 .01 0 .01 0 0m0 .07s0 .01 0 0m0 .02" fill="#ab9fba"/><path d="m110.09 69.93h-11.4v30.45c6.13-5.12 11.18-10.93 11.39-16.31v-.01-.01-.01s0 0 0-.01v-.01-.01s0 0 0-.01 0-.01 0-.02c0 0 0 0 0-.01v-.01s0 0 0-.01v-.01-.01-.01s0 0 0-.01c0 0 0 0 0-.01 0 0 0 0 0-.01v-.01-.01s0 0 0-.01 0-.01 0-.02c0 0 0 0 0-.01v-.01s0 0 0-.01v-.01-.01-.01s0 0 0-.01v-.01-.01-.01-.01-.02-13.78z" fill="#887b97"/><g fill="#71618a"><path d="m139.27 45.95h-6.87v57.03h25.09v-6.12h-18.22z"/><path d="m205.73 92.8-8.55-30.31h-7.04l12.02 40.49h6.75l12.03-40.49h-6.51z"/><path d="m187.22 92.3v-19.36c0-11.21-9.76-11.21-12.96-11.21-8.28 0-13.44 4.2-13.8 11.24l-.05 1.05h6.93v-1c0-5.08 4.58-5.63 6.55-5.63 4.94 0 6.78 2.19 6.78 8.07v2.27c-.7.04-1.45.07-2.23.11-7.61.32-19.12.81-19.12 13.55 0 7.62 4.44 12.36 11.59 12.36 4.1 0 7.53-1.33 10.06-3.88v3.12h6.83l-.11-1.1c-.47-4.46-.47-6.84-.47-9.59zm-6.57-8.96v5.99c0 4.67-3.99 8.76-8.53 8.76-5.51 0-5.94-5.31-5.94-6.93 0-6.97 5.89-7.64 13.59-7.8.29-.01.59-.02.88-.02z"/><path d="m339.42 61.73c-3.88 0-7.4 1.49-9.75 4.03v-3.27h-6.57v40.49h6.57v-25.78c0-2.88.9-5.23 2.6-6.79 1.71-1.58 4.16-2.28 7.07-2.05l1.08.09v-6.73h-1z"/><path d="m309.46 90.25c.04 2.49-.64 4.52-1.97 5.86-1.28 1.3-3.13 1.96-5.49 1.96-6.36 0-7.69-6.21-7.69-11.43v-1.97h21.95v-1c0-11.29 0-21.96-14.26-21.96-9.46 0-14.26 5.8-14.26 17.23v9.45c0 10.03 4.93 15.33 14.26 15.33 9.08 0 13.74-4.4 14.26-13.44l.06-1.05h-6.87zm-15.15-11.22c.14-8.68 2.14-11.65 7.69-11.65 5.54 0 7.54 2.96 7.68 11.65z"/><path d="m272.57 45.95h7.64v7.79h-7.64z"/><path d="m257.55 45.95h6.57v57.03h-6.57z"/><path d="m273.1 62.49h6.57v40.49h-6.57z"/><path d="m249.64 92.3v-19.36c0-11.21-9.76-11.21-12.96-11.21-8.28 0-13.44 4.2-13.8 11.24l-.05 1.05h6.93v-1c0-5.08 4.58-5.63 6.55-5.63 4.94 0 6.78 2.19 6.78 8.07v2.27c-.7.04-1.45.07-2.23.11-7.61.32-19.12.81-19.12 13.55 0 7.62 4.44 12.36 11.59 12.36 4.09 0 7.52-1.33 10.05-3.88v3.11h6.83l-.11-1.1c-.46-4.45-.46-6.83-.46-9.58zm-6.57-8.96v5.99c0 4.67-3.99 8.76-8.53 8.76-5.51 0-5.94-5.31-5.94-6.93 0-6.97 5.89-7.64 13.58-7.8.3-.01.6-.02.89-.02z"/><path d="m359.4 54.27c0 3.19-2.61 5.8-5.8 5.8-3.16 0-5.8-2.58-5.8-5.8 0-3.28 2.7-5.8 5.8-5.8 3.13.01 5.8 2.52 5.8 5.8zm-10.65-.01c0 2.7 2.18 4.88 4.85 4.88 2.7 0 4.88-2.22 4.88-4.88 0-2.7-2.21-4.85-4.88-4.85-2.65 0-4.85 2.12-4.85 4.85zm2.68-3.24h2.24c.77 0 2.27 0 2.27 1.72 0 1.2-.77 1.44-1.23 1.59.89.06.95.64 1.07 1.47.06.52.15 1.41.34 1.72h-1.38c-.03-.31-.24-1.96-.24-2.05-.09-.37-.22-.55-.68-.55h-1.14v2.61h-1.26v-6.51zm1.23 2.86h1.01c.83 0 .98-.58.98-.92 0-.89-.61-.89-.95-.89h-1.04z"/></g></svg>