<?xml version="1.0" encoding="UTF-8"?><svg id="a" xmlns="http://www.w3.org/2000/svg" viewBox="0 0 315.1 129.65"><polygon points="260 54.16 254.55 59.62 254.59 79.7 235.29 54.16 225.54 54.16 225.54 96.58 235.89 96.58 235.89 71.23 255.14 96.58 264.82 96.58 264.82 54.16 260 54.16" fill="#314f65"/><path d="M291.02,54.16h-12.59l-5.68,5.71v36.72h17.85c13.74,0,23-8.59,23-21.24s-9.14-21.18-22.57-21.18m.3,33.47h-7.51v-24.45h6.96c6.72,0,11.5,4.96,11.5,12.29s-4.54,12.16-10.95,12.16" fill="#314f65"/><polygon points="68.3 85.83 68.3 43.68 63.92 43.68 55.7 51.92 55.7 96.56 91.91 96.56 91.91 85.83 68.3 85.83" fill="#314f65"/><path d="M178.1,74.92v-3.99h-12.74l-8.76,8.79h11.94v6.16c-2.54,1.27-5.2,2.06-7.32,2.06-6.9,0-12.1-5.39-12.1-12.59s5.15-12.76,11.98-12.47c4.18,.18,6.02,.87,9.22,3.26l7.14-7.21c-4.34-3.34-10.47-5.43-16.3-5.43-13.43,0-23.42,9.32-23.42,21.85s9.74,22.03,22.69,22.03c5.93,0,13.13-2.3,17.67-5.57v-16.89h0Z" fill="#314f65"/><polygon points="111.03 79.72 131.26 79.7 131.26 70.92 111.04 70.92 111.04 63 125.37 63 134.04 54.24 134.04 54.16 99.97 54.16 99.97 96.58 134.04 96.58 134.04 87.75 111.04 87.75 111.03 79.72" fill="#314f65"/><polygon points="196.12 79.72 216.34 79.7 216.34 70.92 196.13 70.92 196.13 62.99 210.45 62.99 219.13 54.24 219.13 54.16 185.05 54.16 185.05 96.58 219.13 96.58 219.13 87.75 196.13 87.75 196.12 79.72" fill="#314f65"/><path d="M55.67,111.43h8.38c4.84,0,6.71,1.45,6.71,4.47,0,2.26-1.26,3.49-3.54,3.93v.07c2.85,.34,4.2,2.21,4.2,4.33,0,2.65-1.94,4.94-6.76,4.94h-9v-17.75Zm2.56,7.47h6.54c2.14,0,3.44-.81,3.44-2.71,0-1.65-.81-2.75-4.3-2.75h-5.68v5.46Zm0,8.26h6.12c3.47,0,4.38-1.35,4.38-3.07,0-2.04-1.4-3.17-4.52-3.17h-5.97v6.24Z" fill="#314f65"/><rect x="96.8" y="111.43" width="2.56" height="17.75" fill="#314f65"/><path d="M134.66,110.96c7.45,0,9.98,5.11,9.98,9.34s-2.53,9.34-9.98,9.34-9.98-5.11-9.98-9.34,2.53-9.34,9.98-9.34m0,16.67c4.3,0,7.28-2.95,7.28-7.33s-2.97-7.32-7.28-7.32-7.28,2.95-7.28,7.32,2.98,7.33,7.28,7.33" fill="#314f65"/><polygon points="174.98 113.59 167.45 113.59 167.45 111.43 185.06 111.43 185.06 113.59 177.53 113.59 177.53 129.18 174.98 129.18 174.98 113.59" fill="#314f65"/><polygon points="209.12 111.43 222.4 111.43 222.4 113.44 211.68 113.44 211.68 119.05 221.71 119.05 221.71 121.07 211.68 121.07 211.68 127.16 222.69 127.16 222.69 129.18 209.12 129.18 209.12 111.43" fill="#314f65"/><path d="M265.96,124.24c-.56,3.91-4.25,5.41-8.61,5.41-6.34,0-9.27-4.45-9.27-9.34,0-4.23,2.53-9.34,9.98-9.34,4.2,0,7.43,2.12,7.65,5.14h-2.85c-.44-2.31-2.53-3.12-4.99-3.12-4.06,0-7.08,2.34-7.08,7.33s3.02,7.33,7.08,7.33c2.44,0,4.8-1.08,5.24-3.39h2.85Z" fill="#314f65"/><g><polygon points="305.34 120.92 293.94 120.92 293.94 129.18 291.38 129.18 291.38 111.43 293.94 111.43 293.94 118.9 305.34 118.9 305.34 111.43 307.9 111.43 307.9 129.18 305.34 129.18 305.34 120.92" fill="#314f65"/><path d="M39.87,71.16l-5.57-5.57-5.02,5.04,5.65,5.64c6.16,6.16,6.97,16.18,1.27,22.77-6.56,7.58-18.3,7.58-24.86,0-5.7-6.58-4.89-16.61,1.27-22.76L54.57,34.3c1.39-1.39,1.39-3.64,0-5.03-1.39-1.39-3.64-1.39-5.02,0L7.66,71.16c-8.81,8.81-9.86,23.12-1.7,32.54,9.4,10.84,26.19,10.84,35.59,0,8.17-9.41,7.12-23.73-1.69-32.54" fill="#e54973"/><path d="M18.24,49.42l-6.03-6.03c-6.41-6.41-6.41-16.8,0-23.21L26.33,6.07c1.39-1.39,1.39-3.64,0-5.03-1.39-1.39-3.64-1.39-5.03,0L7.19,15.16C-2,24.34-2,39.23,7.19,48.42l6.03,6.03,5.03-5.03Z" fill="#4063aa"/></g></svg>