<svg width="124" height="25" viewBox="0 0 124 25" fill="none" xmlns="http://www.w3.org/2000/svg">
<path fill-rule="evenodd" clip-rule="evenodd" d="M63.7205 24.5842H67.6772V7.57568H63.7205V24.5842ZM63.273 2.34472C63.273 0.993927 64.3052 0.0585327 65.7159 0.0585327C67.1266 0.0585327 68.1588 0.993927 68.1588 2.34472C68.1588 3.66114 67.1266 4.59654 65.7159 4.59654C64.3052 4.59654 63.273 3.66114 63.273 2.34472Z" fill="#3D383B"/>
<path fill-rule="evenodd" clip-rule="evenodd" d="M72.0467 20.081C73.5605 21.2588 75.0057 21.9861 76.7262 21.9861C78.5494 21.9861 79.4098 21.1202 79.4098 19.9424C79.4098 18.5221 77.5862 17.8986 75.7971 17.2057C73.5605 16.3745 71.049 15.0928 71.049 12.2523C71.049 9.27313 73.4229 7.1599 77.2078 7.1599C79.5471 7.1599 81.4397 8.13004 82.8159 9.20365L80.9923 11.6288C79.8224 10.7625 78.6184 10.1738 77.2764 10.1738C75.5908 10.1738 74.7994 10.9706 74.7994 12.0442C74.7994 13.3606 76.485 13.915 78.3086 14.5732C80.6138 15.4391 83.1598 16.5475 83.1598 19.7347C83.1598 22.6443 80.8546 25 76.5885 25C74.2833 25 71.84 23.9955 70.189 22.6443L72.0467 20.081Z" fill="#3D383B"/>
<path fill-rule="evenodd" clip-rule="evenodd" d="M93.2066 7.16002C95.3742 7.16002 97.0256 8.02593 98.161 9.13466L96.2687 11.6633C95.3742 10.8665 94.4796 10.4163 93.4133 10.4163C90.6951 10.4163 88.8025 12.6678 88.8025 16.0974C88.8025 19.492 90.6606 21.7438 93.3098 21.7438C94.6859 21.7438 95.8558 21.0508 96.7848 20.2888L98.4363 22.8174C96.8535 24.2377 94.8236 25.0001 92.8972 25.0001C88.2864 25.0001 84.7427 21.7438 84.7427 16.0974C84.7427 10.4163 88.6993 7.16002 93.2066 7.16002Z" fill="#3D383B"/>
<path fill-rule="evenodd" clip-rule="evenodd" d="M100.879 24.5842H104.836V7.57568H100.879V24.5842ZM100.432 2.34472C100.432 0.993927 101.464 0.0585327 102.875 0.0585327C104.285 0.0585327 105.318 0.993927 105.318 2.34472C105.318 3.66114 104.285 4.59654 102.875 4.59654C101.464 4.59654 100.432 3.66114 100.432 2.34472Z" fill="#3D383B"/>
<path fill-rule="evenodd" clip-rule="evenodd" d="M115.949 21.7437C118.426 21.7437 119.94 19.4919 119.94 16.0974C119.94 12.6677 118.426 10.4163 115.949 10.4163C113.472 10.4163 111.992 12.6677 111.992 16.0974C111.992 19.4919 113.472 21.7437 115.949 21.7437ZM115.949 7.15994C120.181 7.15994 124 10.4163 124 16.0974C124 21.7437 120.181 25 115.949 25C111.752 25 107.932 21.7437 107.932 16.0974C107.932 10.4163 111.752 7.15994 115.949 7.15994Z" fill="#3D383B"/>
<path fill-rule="evenodd" clip-rule="evenodd" d="M24.6342 12.401C24.6342 19.2498 19.1195 24.8021 12.3171 24.8021H0V12.401C0 5.55229 5.51474 -3.8147e-05 12.3171 -3.8147e-05C19.1195 -3.8147e-05 24.6342 5.55229 24.6342 12.401Z" fill="#4CADC8"/>
<path fill-rule="evenodd" clip-rule="evenodd" d="M13.1718 12.401C13.1718 5.55229 18.6865 -3.8147e-05 25.4889 -3.8147e-05H37.806V12.401C37.806 19.2498 32.2912 24.8021 25.4889 24.8021C18.6865 24.8021 13.1718 19.2498 13.1718 12.401Z" fill="#D84398"/>
<path fill-rule="evenodd" clip-rule="evenodd" d="M13.1718 12.401C13.1718 16.811 15.4586 20.6829 18.9029 22.8818C22.3476 20.6829 24.6341 16.811 24.6341 12.401C24.6341 7.99104 22.3476 4.11917 18.9029 1.92022C15.4586 4.11917 13.1718 7.99104 13.1718 12.401Z" fill="#26629C"/>
<path fill-rule="evenodd" clip-rule="evenodd" d="M48 3H51.8967V21.7036H61V25H48V3Z" fill="#3D383B"/>
</svg>
