<?xml version="1.0" encoding="utf-8"?>
<!-- Generator: Adobe Illustrator 21.1.0, SVG Export Plug-In . SVG Version: 6.00 Build 0)  -->
<svg version="1.1" id="logo" xmlns="http://www.w3.org/2000/svg" xmlns:xlink="http://www.w3.org/1999/xlink" x="0px" y="0px"
	 viewBox="0 0 894.0831 364.2932" enable-background="new 0 0 894.0831 364.2932" xml:space="preserve">
<g>
	<linearGradient id="SVGID_1_" gradientUnits="userSpaceOnUse" x1="756.9901" y1="78.6965" x2="772.5687" y2="139.0653">
		<stop  offset="0" style="stop-color:#55DE3C"/>
		<stop  offset="0.5" style="stop-color:#ACFA78"/>
		<stop  offset="1" style="stop-color:#55DE3C"/>
	</linearGradient>
	<path fill="url(#SVGID_1_)" d="M772.1514,71.5977c-15.3593,7.8489-31.3115,32.979-24.6159,54.041
		c3.5225,11.084,12.9585,14.3972,24.2709,14.1355c7.9186-1.4607,15.1102-3.2073,21.5059-4.1018
		C772.8197,135.2456,767.1908,101.999,772.1514,71.5977z"/>
	<linearGradient id="SVGID_2_" gradientUnits="userSpaceOnUse" x1="796.8472" y1="135.5195" x2="798.1805" y2="203.6862">
		<stop  offset="0" style="stop-color:#20783C"/>
		<stop  offset="0.0112" style="stop-color:#257D3E"/>
		<stop  offset="0.1279" style="stop-color:#55A953"/>
		<stop  offset="0.2387" style="stop-color:#7BCC63"/>
		<stop  offset="0.3408" style="stop-color:#96E56E"/>
		<stop  offset="0.431" style="stop-color:#A6F576"/>
		<stop  offset="0.5" style="stop-color:#ACFA78"/>
		<stop  offset="1" style="stop-color:#55DE3C"/>
	</linearGradient>
	<path fill="url(#SVGID_2_)" d="M819.8885,146.2893c-4.5776-8.5569-11.02-11.2112-19.1231-11.2102
		c-2.3454,0-4.8344,0.2271-7.4531,0.5933c-6.3956,0.8945-13.5872,2.6411-21.5059,4.1018c-0.0343,0.0063-0.0678,0.0129-0.1021,0.0193
		c28.2645-1.9753,24.4365,24.0339,24.8353,63.9653C806.631,189.9268,830.3182,165.7925,819.8885,146.2893z"/>
	<linearGradient id="SVGID_3_" gradientUnits="userSpaceOnUse" x1="756.9901" y1="78.6965" x2="772.5687" y2="139.0653">
		<stop  offset="0" style="stop-color:#55DE3C"/>
		<stop  offset="0.5" style="stop-color:#ACFA78"/>
		<stop  offset="1" style="stop-color:#55DE3C"/>
	</linearGradient>
	<path fill="url(#SVGID_3_)" d="M772.1514,71.5977c-15.3593,7.8489-31.3115,32.979-24.6159,54.041
		c3.5225,11.084,12.9585,14.3972,24.2709,14.1355c7.9186-1.4607,15.1102-3.2073,21.5059-4.1018
		C772.8197,135.2456,767.1908,101.999,772.1514,71.5977z"/>
	<linearGradient id="SVGID_4_" gradientUnits="userSpaceOnUse" x1="796.8472" y1="135.5195" x2="798.1805" y2="203.6862">
		<stop  offset="0" style="stop-color:#20783C"/>
		<stop  offset="0.0112" style="stop-color:#257D3E"/>
		<stop  offset="0.1279" style="stop-color:#55A953"/>
		<stop  offset="0.2387" style="stop-color:#7BCC63"/>
		<stop  offset="0.3408" style="stop-color:#96E56E"/>
		<stop  offset="0.431" style="stop-color:#A6F576"/>
		<stop  offset="0.5" style="stop-color:#ACFA78"/>
		<stop  offset="1" style="stop-color:#55DE3C"/>
	</linearGradient>
	<path fill="url(#SVGID_4_)" d="M819.8885,146.2893c-4.5776-8.5569-11.02-11.2112-19.1231-11.2102
		c-2.3454,0-4.8344,0.2271-7.4531,0.5933c-6.3956,0.8945-13.5872,2.6411-21.5059,4.1018c-0.0343,0.0063-0.0678,0.0129-0.1021,0.0193
		c28.2645-1.9753,24.4365,24.0339,24.8353,63.9653C806.631,189.9268,830.3182,165.7925,819.8885,146.2893z"/>
</g>
<g>
	<path fill="#969BA0" d="M572.2689,277.1697c-0.2579-0.0554-0.5569-0.1107-0.8973-0.1661c-0.3405-0.0544-0.6948-0.096-1.0625-0.1237
		c-0.3687-0.0277-0.741-0.0508-1.1179-0.0692c-0.3779-0.0184-0.7137-0.0277-1.0076-0.0277c-0.8281,0-1.4081,0.1476-1.7393,0.442
		s-0.4969,0.7917-0.4969,1.4902c0,0.2759,0.0319,0.525,0.0969,0.7456c0.0641,0.2205,0.2113,0.4604,0.4415,0.7179
		c0.2298,0.2574,0.561,0.5564,0.9938,0.8969c0.4323,0.3405,1.0076,0.7686,1.725,1.2835c0.5703,0.4051,1.0768,0.7963,1.5184,1.1737
		c0.442,0.3774,0.8143,0.7778,1.1183,1.2004c0.3036,0.4236,0.5287,0.8886,0.6759,1.3943c0.1472,0.5066,0.2209,1.0999,0.2209,1.7809
		c0,1.7845-0.4553,3.0634-1.3665,3.8367c-0.9108,0.7733-2.2404,1.1589-3.989,1.1589c-1.1041,0-2.1116-0.0508-3.0224-0.1513
		c-0.9112-0.1015-1.6337-0.2159-2.167-0.3451c-0.1656-0.0184-0.2487-0.0923-0.2487-0.2205l0.1934-2.4849
		c0-0.1283,0.0641-0.1929,0.1933-0.1929c0.699,0.1283,1.403,0.2252,2.1116,0.2897c0.7082,0.0646,1.4219,0.0969,2.1393,0.0969
		c0.8282,0,1.4219-0.1384,1.7809-0.4143c0.3585-0.2759,0.538-0.8009,0.538-1.5732c0-0.2584-0.0277-0.4973-0.0826-0.7179
		c-0.0554-0.2215-0.2072-0.4835-0.4553-0.7871c-0.2487-0.3036-0.6353-0.681-1.1594-1.1322
		c-0.5245-0.4503-1.2563-1.0344-2.1947-1.7523c-0.5892-0.442-1.0676-0.86-1.4357-1.2558c-0.3682-0.3958-0.658-0.7871-0.8693-1.1737
		c-0.2117-0.3866-0.3547-0.7871-0.4281-1.2005c-0.0739-0.4143-0.1103-0.86-0.1103-1.3389c0-0.92,0.1287-1.6886,0.3867-2.305
		c0.2574-0.6164,0.639-1.1045,1.1455-1.4634c0.5057-0.3589,1.1359-0.6118,1.8907-0.7594c0.7543-0.1467,1.6286-0.2205,2.6224-0.2205
		c0.3867,0,0.7959,0.0139,1.2286,0.0415c0.4323,0.0277,0.8461,0.0692,1.2424,0.1246c0.3954,0.0544,0.7493,0.1144,1.0625,0.179
		c0.3128,0.0646,0.5523,0.1338,0.7179,0.2067c0.0918,0.0554,0.1379,0.1384,0.1379,0.2491l-0.1656,2.4009
		C572.4345,277.1143,572.3792,277.1697,572.2689,277.1697z"/>
	<path fill="#969BA0" d="M592.3649,283.3252c0,1.767-0.1615,3.3504-0.4835,4.7483c-0.322,1.3989-0.7866,2.4572-1.3938,3.1742
		c-0.5892,0.7003-1.3209,1.1645-2.1947,1.3942c-0.8743,0.2298-1.9829,0.3451-3.3264,0.3451s-2.4429-0.1153-3.2988-0.3451
		s-1.5783-0.6939-2.167-1.3942c-0.5892-0.7169-1.0446-1.7753-1.3661-3.1742c-0.3225-1.3979-0.4835-2.9813-0.4835-4.7483
		c0-1.7661,0.161-3.3486,0.4835-4.7474c0.3215-1.3989,0.7769-2.4572,1.3661-3.1751c0.5887-0.6985,1.325-1.1635,2.2086-1.3933
		c0.8835-0.2307,1.9968-0.3451,3.3403-0.3451c1.343,0,2.4383,0.12,3.2849,0.358c0.8462,0.2399,1.564,0.7003,2.1532,1.3804
		c0.6072,0.7179,1.0718,1.7762,1.3938,3.1751S592.3649,281.5591,592.3649,283.3252z M581.4883,283.3252
		c0,0.6625,0.0184,1.3029,0.0554,1.9193c0.0364,0.6164,0.0918,1.1866,0.1656,1.7107c0.0734,0.5251,0.1656,0.9855,0.2759,1.3804
		c0.1107,0.3959,0.239,0.704,0.3866,0.9246c0.221,0.3137,0.5385,0.5066,0.9523,0.5804c0.4143,0.0738,0.9707,0.1098,1.6701,0.1098
		c0.7359,0,1.3066-0.036,1.7117-0.1098c0.4046-0.0738,0.7174-0.2667,0.9384-0.5804c0.1472-0.2206,0.2759-0.5287,0.3867-0.9246
		c0.1102-0.3949,0.202-0.8553,0.2759-1.3804c0.0734-0.5241,0.1287-1.0943,0.1656-1.7107c0.0369-0.6164,0.0554-1.2567,0.0554-1.9193
		c0-0.6625-0.0185-1.3011-0.0554-1.9184c-0.0369-0.6164-0.0923-1.1866-0.1656-1.7116c-0.0739-0.5241-0.1656-0.9836-0.2759-1.3795
		c-0.1108-0.3958-0.2394-0.704-0.3867-0.9255c-0.221-0.3128-0.5338-0.5056-0.9384-0.5795
		c-0.4051-0.0729-0.9573-0.1107-1.6562-0.1107c-0.7364,0-1.3112,0.0378-1.7255,0.1107c-0.4138,0.0738-0.7313,0.2667-0.9523,0.5795
		c-0.1476,0.2215-0.2759,0.5297-0.3866,0.9255c-0.1103,0.3958-0.2025,0.8554-0.2759,1.3795
		c-0.0739,0.525-0.1292,1.0953-0.1656,1.7116C581.5067,282.0242,581.4883,282.6627,581.4883,283.3252z"/>
	<path fill="#969BA0" d="M607.1885,292.7112c-0.1845,0-0.3132-0.1107-0.3866-0.3313l-4.9966-13.5262
		c-0.1102-0.3682-0.2394-0.5518-0.3866-0.5518c-0.0923,0-0.1472,0.0268-0.1656,0.0821c-0.0184,0.0554-0.0272,0.203-0.0272,0.442
		l0.2205,13.6093c0,0.1836-0.0922,0.2759-0.2759,0.2759h-2.871c-0.1841,0-0.2759-0.0923-0.2759-0.2759v-18.2192
		c0-0.1836,0.0918-0.2759,0.2759-0.2759h4.7206c0.1472,0,0.2667,0.1098,0.3589,0.3313l4.6925,13.0566
		c0.0734,0.203,0.1287,0.3276,0.1656,0.3728c0.0369,0.0461,0.0918,0.0692,0.1656,0.0692c0.1287,0,0.1934-0.0923,0.1934-0.2759
		l-0.1934-13.278c0-0.1836,0.0919-0.2759,0.2764-0.2759h2.926c0.1837,0,0.2759,0.0923,0.2759,0.2759v18.2192
		c0,0.1836-0.0923,0.2759-0.2759,0.2759H607.1885z"/>
	<path fill="#969BA0" d="M626.8979,288.1566c-0.0184-0.1292-0.0922-0.1938-0.2209-0.1938h-5.3828
		c-0.1656,0-0.2579,0.0646-0.2759,0.1938l-1.0491,4.2787c-0.0739,0.1836-0.1933,0.2759-0.3589,0.2759h-3.2023
		c-0.1472,0-0.2205-0.0554-0.2205-0.1652c0-0.0554,0.0088-0.0923,0.0277-0.1107c0.1282-0.5518,0.3174-1.2973,0.5656-2.2357
		c0.2487-0.9393,0.5287-1.9783,0.842-3.1198c0.3128-1.1405,0.6348-2.3326,0.9661-3.5746c0.3313-1.242,0.6625-2.4434,0.9938-3.6023
		c0.3313-1.1599,0.6349-2.2367,0.9112-3.2305c0.2759-0.9938,0.5149-1.8122,0.7175-2.4563c0.0554-0.1836,0.1656-0.2759,0.3312-0.2759
		h5.2729c0.1656,0,0.2759,0.0923,0.3313,0.2759c0.2021,0.681,0.4457,1.5502,0.7313,2.6086c0.2851,1.0583,0.5938,2.1942,0.925,3.4095
		c0.3313,1.2143,0.6625,2.4563,0.9938,3.726c0.3313,1.2706,0.6436,2.4664,0.9384,3.5894c0.2944,1.122,0.5522,2.1158,0.7728,2.9814
		c0.2209,0.8646,0.3769,1.4994,0.4692,1.9045v0.1107c0,0.1098-0.0646,0.1652-0.1929,0.1652h-3.5336
		c-0.2025,0-0.322-0.0923-0.3589-0.2759L626.8979,288.1566z M626.2077,285.1753c0.1107,0,0.1656-0.0554,0.1656-0.1661
		c-0.0739-0.3488-0.1841-0.86-0.3312-1.5317c-0.1472-0.6717-0.3128-1.3942-0.4969-2.1675c-0.1841-0.7723-0.3636-1.541-0.538-2.305
		c-0.1754-0.7631-0.3271-1.4118-0.4558-1.946c-0.0185-0.0554-0.0549-0.0914-0.1103-0.1098
		c-0.0554-0.0185-0.1753-0.0277-0.3589-0.0277c-0.1841,0-0.3036,0.0092-0.3589,0.0277c-0.0549,0.0184-0.0923,0.0544-0.1102,0.1098
		c-0.1476,0.5342-0.3174,1.1829-0.5107,1.946c-0.1933,0.764-0.3867,1.5327-0.5795,2.305c-0.1933,0.7733-0.3687,1.4958-0.5246,2.1675
		c-0.1569,0.6718-0.2717,1.183-0.3451,1.5317c0,0.1107,0.0549,0.1661,0.1656,0.1661H626.2077z"/>
	<path fill="#969BA0" d="M646.8288,292.463c-0.4798,0.1476-1.0446,0.2713-1.6978,0.3728c-0.6533,0.1006-1.3859,0.1513-2.1961,0.1513
		c-1.3435,0-2.4794-0.2067-3.4076-0.621c-0.9301-0.4143-1.6803-1.0261-2.2505-1.8353c-0.5703-0.8102-0.9795-1.8086-1.2277-2.9952
		c-0.2487-1.1876-0.3728-2.5439-0.3728-4.072c0-1.5087,0.1241-2.866,0.3728-4.072c0.2482-1.2051,0.6574-2.2311,1.2277-3.0773
		c0.5703-0.847,1.3204-1.5003,2.2505-1.9608c0.9282-0.4595,2.0641-0.6893,3.4076-0.6893c0.8102,0,1.5428,0.0406,2.1961,0.1237
		c0.6533,0.083,1.1626,0.1984,1.5317,0.3451c0.0554,0.0369,0.1015,0.0646,0.1384,0.083c0.0369,0.0185,0.0554,0.0738,0.0554,0.1652
		l-0.1384,2.6224c0,0.0378-0.0277,0.0793-0.0831,0.1245c-0.0554,0.0461-0.1199,0.0508-0.1938,0.0139
		c-0.3672-0.1107-0.8193-0.2021-1.3527-0.2759c-0.5333-0.0738-1.0667-0.1107-1.6-0.1107c-0.7917,0-1.4413,0.1154-1.947,0.3451
		c-0.5057,0.2307-0.9015,0.6072-1.1866,1.1322c-0.2851,0.5241-0.4835,1.2143-0.5933,2.0697
		c-0.1108,0.8563-0.1661,1.9193-0.1661,3.1889c0,1.1968,0.0554,2.1989,0.1661,3.009c0.1098,0.8102,0.3082,1.4671,0.5933,1.9737
		c0.2852,0.5066,0.681,0.8692,1.1866,1.0907c0.5057,0.2205,1.1553,0.3312,1.947,0.3312c0.5149,0,1.039-0.0369,1.5723-0.1107
		s0.9763-0.1559,1.325-0.2482c0.0739-0.0184,0.1476-0.023,0.2215-0.0138c0.0738,0.0092,0.1199,0.06,0.1384,0.1513l0.192,2.4572
		C646.9746,292.3153,646.9377,292.4261,646.8288,292.463z"/>
	<path fill="#969BA0" d="M660.8782,288.1566c-0.0185-0.1292-0.0923-0.1938-0.2206-0.1938h-5.3832
		c-0.1661,0-0.2584,0.0646-0.2759,0.1938l-1.0491,4.2787c-0.0738,0.1836-0.1929,0.2759-0.3589,0.2759h-3.2018
		c-0.1476,0-0.2214-0.0554-0.2214-0.1652c0-0.0554,0.0092-0.0923,0.0276-0.1107c0.1292-0.5518,0.3174-1.2973,0.5666-2.2357
		c0.2482-0.9393,0.5287-1.9783,0.8415-3.1198c0.3128-1.1405,0.6348-2.3326,0.9661-3.5746c0.3312-1.242,0.6625-2.4434,0.9938-3.6023
		c0.3312-1.1599,0.6348-2.2367,0.9107-3.2305c0.2768-0.9938,0.5158-1.8122,0.7179-2.4563c0.0554-0.1836,0.1661-0.2759,0.3312-0.2759
		h5.2725c0.1661,0,0.2759,0.0923,0.3312,0.2759c0.203,0.681,0.4466,1.5502,0.7318,2.6086c0.2851,1.0583,0.5933,2.1942,0.9246,3.4095
		c0.3312,1.2143,0.6625,2.4563,0.9938,3.726c0.3312,1.2706,0.644,2.4664,0.9384,3.5894c0.2944,1.122,0.5527,2.1158,0.7733,2.9814
		c0.2205,0.8646,0.3774,1.4994,0.4697,1.9045v0.1107c0,0.1098-0.0646,0.1652-0.1938,0.1652h-3.5331
		c-0.203,0-0.3221-0.0923-0.3589-0.2759L660.8782,288.1566z M660.188,285.1753c0.1108,0,0.1661-0.0554,0.1661-0.1661
		c-0.0739-0.3488-0.1846-0.86-0.3313-1.5317c-0.1476-0.6717-0.3137-1.3942-0.4973-2.1675c-0.1837-0.7723-0.3636-1.541-0.538-2.305
		c-0.1753-0.7631-0.3276-1.4118-0.4558-1.946c-0.0185-0.0554-0.0554-0.0914-0.1107-0.1098
		c-0.0544-0.0185-0.1744-0.0277-0.358-0.0277c-0.1846,0-0.3045,0.0092-0.3589,0.0277c-0.0554,0.0184-0.0923,0.0544-0.1107,0.1098
		c-0.1476,0.5342-0.3174,1.1829-0.5103,1.946c-0.1938,0.764-0.3867,1.5327-0.5804,2.305c-0.1928,0.7733-0.3682,1.4958-0.5241,2.1675
		c-0.1569,0.6718-0.2722,1.183-0.3451,1.5317c0,0.1107,0.0554,0.1661,0.1652,0.1661H660.188z"/>
	<path fill="#969BA0" d="M685.5851,276.6724c-0.7917,0-1.4727,0.1107-2.043,0.3313c-0.5702,0.2214-1.0445,0.5942-1.4219,1.1183
		c-0.3774,0.5251-0.6533,1.2245-0.8277,2.0983c-0.1754,0.8738-0.2621,1.9645-0.2621,3.2711c0,1.2328,0.0729,2.2681,0.2206,3.105
		c0.1467,0.8378,0.3903,1.5096,0.7317,2.0152c0.3405,0.5066,0.7816,0.8655,1.325,1.0768c0.5426,0.2122,1.2097,0.3174,2.0014,0.3174
		c0.2935,0,0.5933-0.0175,0.8969-0.0554c0.3036-0.036,0.538-0.0821,0.704-0.1375c0.1282-0.0369,0.1929-0.12,0.1929-0.2482v-4.6653
		c0-0.1107-0.0554-0.1661-0.1652-0.1661h-2.1813c-0.1837,0-0.2759-0.0913-0.2759-0.2759v-2.4019
		c0-0.1836,0.0923-0.2759,0.2759-0.2759h5.4939c0.1836,0,0.2759,0.0923,0.2759,0.2759v9.6342c0,0.1476-0.0139,0.2528-0.0415,0.3174
		c-0.0277,0.0646-0.0969,0.1153-0.2067,0.1523c-0.5896,0.2021-1.349,0.3912-2.2773,0.5656
		c-0.9301,0.1744-1.947,0.2621-3.0505,0.2621c-2.7977,0-4.8037-0.8185-6.018-2.4563c-1.2143-1.6378-1.8224-3.9936-1.8224-7.0672
		c0-1.5087,0.1476-2.866,0.442-4.072c0.2943-1.2051,0.7594-2.2311,1.3942-3.0773c0.6348-0.847,1.4533-1.5003,2.4563-1.9608
		c1.003-0.4595,2.2127-0.6893,3.63-0.6893c0.4051,0,0.824,0.0138,1.2568,0.0406c0.4318,0.0277,0.8507,0.06,1.2558,0.0969
		c0.4042,0.0369,0.7733,0.083,1.1045,0.1384c0.3313,0.0554,0.5887,0.12,0.7723,0.1929c0.0554,0.0369,0.1015,0.0646,0.1384,0.083
		c0.0369,0.0185,0.0554,0.0738,0.0554,0.1652l-0.1384,2.6224c0,0.0378-0.0277,0.0793-0.0831,0.1245
		c-0.0554,0.0461-0.1199,0.0508-0.1928,0.0139c-0.1846-0.0554-0.4235-0.1107-0.7179-0.1652
		c-0.2944-0.0554-0.6118-0.1061-0.9523-0.1523c-0.3405-0.0461-0.681-0.083-1.0214-0.1107
		C686.1692,276.6862,685.861,276.6724,685.5851,276.6724z"/>
	<path fill="#969BA0" d="M702.59,286.1414c-0.1107-0.2021-0.1891-0.3358-0.2353-0.4005c-0.0461-0.0646-0.1154-0.1052-0.2067-0.1246
		h-1.9322c-0.1476,0-0.2215,0.0655-0.2215,0.1938v6.6252c0,0.1836-0.0923,0.2759-0.2759,0.2759h-3.1188
		c-0.1845,0-0.2768-0.0923-0.2768-0.2759v-18.2192c0-0.1836,0.0923-0.2759,0.2768-0.2759h5.6038
		c2.1158,0,3.6992,0.3912,4.7474,1.1728c1.0492,0.7825,1.5742,2.1214,1.5742,4.0166c0,1.2521-0.1661,2.2727-0.4974,3.0644
		c-0.3312,0.7917-0.9753,1.4625-1.9322,2.0153c-0.1845,0.1652-0.2759,0.2943-0.2759,0.3866c0,0.239,0.1467,0.5979,0.441,1.0759
		l3.6715,6.7636c0.0369,0.0738,0.0508,0.1375,0.0416,0.1929c-0.0093,0.0554-0.0692,0.083-0.179,0.083h-3.6715
		c-0.1476,0-0.2584-0.083-0.3313-0.2482L702.59,286.1414z M701.5409,283.1324c1.1774,0,1.9968-0.2574,2.4563-0.7732
		c0.4604-0.5149,0.6902-1.3887,0.6902-2.6224c0-0.6256-0.0461-1.1359-0.1375-1.5317c-0.0923-0.3959-0.2584-0.7133-0.4974-0.9523
		s-0.561-0.4051-0.9661-0.4973c-0.405-0.0913-0.9199-0.1375-1.5455-0.1375h-1.1876c-0.1476,0-0.2436,0.0138-0.2897,0.0415
		c-0.0461,0.0267-0.0692,0.0683-0.0692,0.1236v6.1288c0,0.1283,0.0646,0.2021,0.1938,0.2205H701.5409z"/>
	<path fill="#969BA0" d="M728.7308,283.3252c0,1.767-0.1614,3.3504-0.4835,4.7483c-0.322,1.3989-0.7861,2.4572-1.3942,3.1742
		c-0.5887,0.7003-1.3204,1.1645-2.1942,1.3942c-0.8738,0.2298-1.983,0.3451-3.3264,0.3451c-1.3435,0-2.4425-0.1153-3.2988-0.3451
		c-0.8553-0.2298-1.5779-0.6939-2.1666-1.3942c-0.5896-0.7169-1.0445-1.7753-1.3666-3.1742
		c-0.322-1.3979-0.4835-2.9813-0.4835-4.7483c0-1.7661,0.1614-3.3486,0.4835-4.7474c0.3221-1.3989,0.777-2.4572,1.3666-3.1751
		c0.5887-0.6985,1.325-1.1635,2.2081-1.3933c0.8831-0.2307,1.9968-0.3451,3.3403-0.3451c1.3435,0,2.4379,0.12,3.2849,0.358
		c0.8461,0.2399,1.564,0.7003,2.1527,1.3804c0.6081,0.7179,1.0722,1.7762,1.3942,3.1751
		C728.5694,279.9767,728.7308,281.5591,728.7308,283.3252z M717.8547,283.3252c0,0.6625,0.0175,1.3029,0.0544,1.9193
		c0.0369,0.6164,0.0923,1.1866,0.1661,1.7107c0.0729,0.5251,0.1652,0.9855,0.2759,1.3804c0.1107,0.3959,0.239,0.704,0.3866,0.9246
		c0.2205,0.3137,0.538,0.5066,0.9523,0.5804s0.9707,0.1098,1.6701,0.1098c0.7363,0,1.3066-0.036,1.7117-0.1098
		c0.4042-0.0738,0.7179-0.2667,0.9384-0.5804c0.1467-0.2206,0.2759-0.5287,0.3866-0.9246c0.1107-0.3949,0.2021-0.8553,0.2759-1.3804
		c0.0738-0.5241,0.1282-1.0943,0.1661-1.7107c0.0359-0.6164,0.0544-1.2567,0.0544-1.9193c0-0.6625-0.0185-1.3011-0.0544-1.9184
		c-0.0378-0.6164-0.0923-1.1866-0.1661-1.7116c-0.0739-0.5241-0.1652-0.9836-0.2759-1.3795s-0.2399-0.704-0.3866-0.9255
		c-0.2205-0.3128-0.5342-0.5056-0.9384-0.5795c-0.4051-0.0729-0.9568-0.1107-1.6563-0.1107c-0.7363,0-1.3112,0.0378-1.7255,0.1107
		c-0.4143,0.0738-0.7318,0.2667-0.9523,0.5795c-0.1476,0.2215-0.2759,0.5297-0.3866,0.9255
		c-0.1108,0.3958-0.203,0.8554-0.2759,1.3795c-0.0738,0.525-0.1292,1.0953-0.1661,1.7116
		C717.8722,282.0242,717.8547,282.6627,717.8547,283.3252z"/>
	<path fill="#969BA0" d="M747.6393,288.4879c0,0.7548-0.1605,1.4127-0.4826,1.9737c-0.322,0.561-0.7825,1.0261-1.3804,1.3942
		c-0.598,0.3682-1.3112,0.6487-2.1389,0.8415c-0.8286,0.1929-1.7394,0.2897-2.7332,0.2897c-2.3013,0-3.989-0.3765-5.0657-1.1313
		c-1.0768-0.7548-1.6148-1.8777-1.6148-3.368v-14.2718c0-0.1836,0.0923-0.2759,0.2759-0.2759h3.1197
		c0.1837,0,0.2759,0.0923,0.2759,0.2759v13.195c0,0.5343,0.083,0.9661,0.2482,1.2974c0.1661,0.3312,0.3867,0.5841,0.6625,0.7594
		s0.5979,0.2897,0.9661,0.3451c0.3682,0.0554,0.764,0.083,1.1876,0.083c0.4042,0,0.7908-0.0277,1.1589-0.083
		s0.6902-0.1753,0.9661-0.3589s0.4973-0.4374,0.6625-0.7594c0.1661-0.322,0.2482-0.7594,0.2482-1.3112v-13.1673
		c0-0.1836,0.0923-0.2759,0.2769-0.2759h3.0911c0.1836,0,0.2759,0.0923,0.2759,0.2759V288.4879z"/>
	<path fill="#969BA0" d="M759.3709,273.9402c0.9393,0,1.7947,0.096,2.5679,0.2898c0.7723,0.1928,1.4302,0.5149,1.9737,0.9661
		c0.5425,0.4512,0.9615,1.0445,1.2559,1.7809c0.2943,0.7354,0.442,1.6563,0.442,2.7599c0,1.3075-0.1661,2.3696-0.4974,3.1889
		c-0.3312,0.8185-0.7917,1.4579-1.3804,1.9184c-0.5887,0.4604-1.2789,0.7686-2.0706,0.9246
		c-0.7908,0.1569-1.6562,0.2344-2.5947,0.2344H757.77c-0.1652,0-0.2713,0.0139-0.3174,0.0415s-0.0692,0.0784-0.0692,0.1523v6.2385
		c0,0.1836-0.0922,0.2759-0.2759,0.2759h-3.1188c-0.1846,0-0.2769-0.0923-0.2769-0.2759v-18.2192
		c0-0.1836,0.0923-0.2759,0.2769-0.2759H759.3709z M758.9022,283.2431c0.5518,0,1.0251-0.0461,1.4219-0.1384
		c0.395-0.0923,0.717-0.2621,0.9661-0.5103c0.2482-0.2491,0.4318-0.5979,0.5518-1.0491c0.1191-0.4512,0.179-1.0261,0.179-1.7255
		c0-1.2697-0.2436-2.1259-0.7308-2.567c-0.4882-0.442-1.266-0.6625-2.3326-0.6625h-1.3804c-0.1292,0-0.1938,0.0646-0.1938,0.1928
		v6.2662c0,0.1292,0.0646,0.1938,0.1938,0.1938H758.9022z"/>
</g>
<g>
	<path fill="#969BA0" d="M89.8169,230.8035h-3.1201c-3.6299,0-4.5796-0.2676-4.5796-6.7393v-71.7578
		c0-1.4492,0-5.8594-5.3799-5.8594c-3.4106,0-5.1396,1.9717-5.1396,5.8594v68.5176c0,9.0459,0,19.2988,13.2993,19.2988
		c2.1802,0,5.106-0.0723,6.6831-0.4238c3.6167-0.835,3.6167-3.6543,3.6167-4.7158
		C95.1968,230.8035,91.1475,230.8035,89.8169,230.8035z"/>
	<path fill="#969BA0" d="M160.1353,169.2459c-4.1465,0-10.354,0.7021-15.3765,2.6699c-0.1533,0.0527-0.3115,0.1084-0.4717,0.166
		c-0.2407,0.0859-0.6221,0.2217-0.8276,0.2715c-0.1489-0.0557-0.4487-0.2051-0.7358-0.3486
		c-5.1367-2.4248-10.9307-2.7588-16.4268-2.7588c-6.3345,0-12.2539,0.7578-17.5879,2.251
		c-4.0098,1.1133-4.8315,3.8789-4.8315,7.6885v55.0781c0,1.4492,0,5.8594,5.3799,5.8594c3.4106,0,5.1401-1.9717,5.1401-5.8594
		v-51.1182c0-1.5439,0.0674-2.4434,0.1963-2.6699c0.0034-0.0039,0.0835-0.1016,0.3882-0.2773
		c1.1152-0.5869,4.6851-1.2725,11.0747-1.2725c12.6196,0,12.6196,3.2939,12.6196,4.7002v50.6377c0,1.4492,0,5.8594,5.3799,5.8594
		c3.4106,0,5.1396-1.9717,5.1396-5.8594v-51.1182c0-2.4141,0.2241-2.5098,0.7646-2.7422c1.9668-0.8418,6.3413-1.4775,10.1748-1.4775
		c11.1318,0,14.1797,2.8418,14.1797,13.2197v42.1182c0,1.4492,0,5.8594,5.3799,5.8594c3.4106,0,5.1396-1.9717,5.1396-5.8594
		v-43.0781C184.8345,175.6023,177.6787,169.2459,160.1353,169.2459z"/>
	<path fill="#969BA0" d="M208.9766,147.7673c-4.6528,0-6.8198,2.167-6.8198,6.8193c0,6.4697,3.6445,7.2998,6.8198,7.2998
		c4.3848,0,6.3398-2.251,6.3398-7.2998C215.3164,151.659,214.6592,147.7673,208.9766,147.7673z"/>
	<path fill="#969BA0" d="M208.6167,169.9656c-3.4106,0-5.1401,1.9717-5.1401,5.8604v58.4375c0,1.4492,0,5.8594,5.3799,5.8594
		c3.4106,0,5.1401-1.9717,5.1401-5.8594v-58.4375C213.9966,174.3767,213.9966,169.9656,208.6167,169.9656z"/>
	<path fill="#969BA0" d="M278.4541,169.2459c-5.6792,0-12.3203,0.8916-16.1499,2.168l-0.1953,0.0742
		c-2.4326,1.0439-2.7139,3.0439-2.7139,4.458c0,1.1992,0.4707,2.8477,1.791,3.8789c0.9858,0.7705,2.2217,1.0195,3.4443,0.7129
		c4.2031-0.9941,9.73-1.6123,14.4238-1.6123c11.6963,0,12.8594,3.8262,12.8594,13.2197c0,2.2207,0,4.9443-0.2495,5.8193
		c-0.3999,0.0967-1.2168,0.1699-1.6548,0.208l-11.1709,0.8418c-18.8057,1.6289-24.2432,6.4404-24.2432,21.4492
		c0,16.9707,10.5068,20.3799,27.459,20.3799c14.8301,0,20.0195-0.834,20.0195-10.1797V193.825
		C302.0737,177.1716,298.5396,169.2459,278.4541,169.2459z M291.6406,208.4216c0.2729,0.4502,0.2729,2.5947,0.2729,3.4023v13.9199
		c0,2.1191,0,4.5215-0.5488,4.8975c-1.1108,0.7617-5.6572,0.7617-9.3105,0.7617c-14.689,0-17.0596-3.2246-17.0596-10.9395
		c0-10.3115,2.7485-12.2588,17.2998-12.2588h6.7188C291.1001,208.2048,291.6016,208.4216,291.6406,208.4216z"/>
	<path fill="#969BA0" d="M330.354,207.7234l23.1255-0.3584c12.5005-0.1328,16.3931-2.2168,16.3931-14.9795
		c0-14.7061-8.5649-23.1396-23.499-23.1396c-19.043,0-28.2998,10.4736-28.2998,32.0186v6.4805
		c0,23.2002,8.6069,33.0986,28.7793,33.0986c6.9512,0,13.6235-1.0088,17.8486-2.6992l0.1895-0.085
		c1.8984-0.9492,2.8213-2.4268,2.8213-4.5156c0-2.125-0.9019-3.2451-1.6582-3.8115c-0.7612-0.5703-2.1069-1.1191-4.2393-0.4912
		c-2.2847,0.7275-8.3145,1.8027-14.002,1.8027c-14.458,0-19.0986-5.3408-19.0986-21.9795c0-0.6104,0.02-0.9785,0.0435-1.2002
		C329.0186,207.8132,329.498,207.7517,330.354,207.7234z M346.0132,178.8054c9.1372,0,13.5791,4.7168,13.5791,14.4199
		c0,1.9121-0.0425,3.9805-0.5503,4.3291c-1.0635,0.7305-5.3755,0.7305-8.229,0.7305h-19.1992c-0.6836,0-2.104,0-2.8765-0.0918
		c-0.0137-0.2236-0.0229-0.5449-0.0229-1.0078v-0.6006C328.7144,184.7869,334.5347,178.8054,346.0132,178.8054z"/>
	<path fill="#969BA0" d="M407.0913,169.2459c-7.1309,0-13.4536,0.7578-18.7876,2.251c-4.0098,1.1133-4.8315,3.8789-4.8315,7.6885
		v55.0781c0,1.4492,0,5.8594,5.3799,5.8594c3.4106,0,5.1396-1.9717,5.1396-5.8594v-51.1182c0-1.5439,0.0674-2.4434,0.1968-2.6699
		c0.0029-0.0039,0.083-0.1016,0.3877-0.2773c1.3335-0.7012,6.248-1.2725,10.9556-1.2725c1.4395,0,2.4053,0.0674,3.3394,0.1328
		c0.7861,0.0557,1.5288,0.1074,2.4204,0.1074c2.1401,0,4.2998-1.4414,4.2998-4.6602
		C415.5913,169.2459,411.0757,169.2459,407.0913,169.2459z"/>
	<path fill="#969BA0" d="M446.3296,169.2459c-20.5303,0-27.459,9.4727-27.459,37.5391c0,24.5098,7.6655,34.0586,27.3398,34.0586
		c20.605,0,27.2188-9.0342,27.2188-37.1787C473.4292,181.866,468.9951,169.2459,446.3296,169.2459z M462.6694,204.7449
		c0,25.0254-4.168,26.2988-16.2197,26.2988c-11.8789,0-16.6992-1.0078-16.6992-26.2988c0-23.5947,2.9502-25.8193,16.6992-25.8193
		C458.4648,178.9256,462.6694,181.0408,462.6694,204.7449z"/>
	<path fill="#969BA0" d="M506.998,199.991c-9.4668-7.1602-11.3687-10.6523-11.3687-13.9658c0-2.6104,0-6.9795,11.2998-6.9795
		c3.3662,0,6.3584,0.2012,10.3159,0.6934c1.0967,0.1768,2.1372-0.0879,2.9346-0.7529c1.4888-1.2422,1.4888-3.3184,1.4888-4
		c0-5.3086-6.7842-5.7402-14.9795-5.7402c-8.0142,0-21.459,2.1953-21.459,16.8994c0,8.4941,4.8462,13.6562,16.4443,22.7324
		c8.2729,6.4346,10.7949,9.8711,10.7949,14.7061c0,3.6094-0.9565,7.46-12.3799,7.46c-3.7593,0-7.5049-0.1973-11.0903-0.5811
		c-1.8203-0.2236-2.9673,0.4053-3.6128,0.9746c-0.98,0.8652-1.4766,2.1396-1.4766,3.7861c0,5.6201,8.0859,5.6201,15.2197,5.6201
		c15.6724,0,23.6191-5.9277,23.6191-17.6191C522.7485,213.5125,517.2061,207.5613,506.998,199.991z"/>
	<path fill="#969BA0" d="M557.5688,169.2459c-4.4297,0-9.6655,0.1494-14.9233,1.2559c-4.23,0.9062-6.6558,3.9844-6.6558,8.4443
		v76.917c0,1.4492,0,5.8594,5.3799,5.8594c3.4106,0,5.1396-1.9717,5.1396-5.8594v-15.7197c0-0.0986,0.0015-0.1826,0.0039-0.2539
		c1.1992-0.2461,4.3496-0.2461,6.1357-0.2461c25.9644,0,34.2988-8.7715,34.2988-36.0986
		C586.9478,177.5798,579.8091,169.2459,557.5688,169.2459z M546.5093,183.5056c0-2.6484,0.2373-3.0889,0.7417-3.4072
		c1.6621-1.0518,6.6157-1.1729,10.1978-1.1729c14.29,0,18.7393,3.3955,18.7393,24.6191c0,22.3252-5.5703,26.2988-21.2588,26.2988
		c-8.4199,0-8.4199-0.2549-8.4199-3.3799V183.5056z"/>
	<path fill="#969BA0" d="M624.1675,169.2459c-5.6787,0-12.3198,0.8916-16.1499,2.168l-0.1953,0.0742
		c-2.4321,1.0439-2.7134,3.0439-2.7134,4.458c0,1.1992,0.4702,2.8477,1.7905,3.8789c0.9863,0.7695,2.2222,1.0195,3.4453,0.7129
		c4.2026-0.9941,9.7295-1.6123,14.4233-1.6123c11.6968,0,12.8599,3.8262,12.8599,13.2197c0,2.2207,0,4.9443-0.249,5.8193
		c-0.4004,0.0967-1.2178,0.1699-1.6553,0.208l-11.1714,0.8418c-18.8057,1.6289-24.2432,6.4404-24.2432,21.4492
		c0,16.9707,10.5068,20.3799,27.459,20.3799c14.8296,0,20.019-0.834,20.019-10.1797V193.825
		C647.7871,177.1716,644.2529,169.2459,624.1675,169.2459z M637.3545,208.4216c0.2734,0.4502,0.2734,2.5947,0.2734,3.4023v13.9199
		c0,2.1191,0,4.5215-0.5488,4.8975c-1.1104,0.7617-5.6572,0.7617-9.311,0.7617c-14.689,0-17.0596-3.2246-17.0596-10.9395
		c0-10.3115,2.7485-12.2588,17.2988-12.2588h6.7212C636.8145,208.2048,637.3154,208.4216,637.3545,208.4216z"/>
	<path fill="#969BA0" d="M704.8457,230.6931c-0.96-0.749-2.2119-0.9834-3.5547-0.6475c-1.8887,0.4971-5.54,0.998-9.4434,0.998
		c-7.999,0-17.1797-2.9482-17.1797-25.9395c0-23.1738,8.5635-26.2988,16.9395-26.2988c4.5674,0,7.6211,0.4297,9.8203,0.8115
		c1.1729,0.1797,2.2852-0.1182,3.1289-0.8418c1.0146-0.8711,1.5508-2.2637,1.5508-4.0293c0-2.0898-1.1182-3.6143-3.1494-4.291
		l-0.1045-0.0332c-2.8477-0.8135-6.3896-1.1758-11.4863-1.1758c-18.2998,0-27.5781,12.0645-27.5781,35.8584
		c0,22.7129,9.9209,35.7393,27.2188,35.7393c3.042,0,8.6914-0.1895,12.3086-1.4482c2.0479-0.6816,3.2705-2.3311,3.2705-4.4121
		C706.5869,233.6463,706.2852,231.8162,704.8457,230.6931z"/>
	<path fill="#969BA0" d="M761.4482,229.7322c-0.7617-0.5693-2.1025-1.1182-4.2393-0.4912
		c-2.2852,0.7275-8.3154,1.8027-14.002,1.8027c-14.458,0-19.0986-5.3408-19.0986-21.9795c0-0.6104,0.0195-0.9785,0.043-1.2002
		c0.2607-0.0508,0.7402-0.1123,1.5967-0.1406l23.125-0.3584c12.501-0.1328,16.3936-2.2168,16.3936-14.9795
		c0-14.7061-8.5654-23.1396-23.499-23.1396c-19.042,0-28.2988,10.4736-28.2988,32.0186v6.4805
		c0,23.2002,8.6064,33.0986,28.7783,33.0986c6.9512,0,13.624-1.0088,17.8477-2.6992l0.1885-0.085
		c1.8994-0.9492,2.8232-2.4258,2.8232-4.5156C763.1064,231.4187,762.2051,230.2986,761.4482,229.7322z M741.4072,178.8054
		c9.1377,0,13.5791,4.7168,13.5791,14.4199c0,1.9121-0.043,3.9805-0.5498,4.3291c-1.0635,0.7305-5.376,0.7305-8.2295,0.7305
		h-19.1992c-0.6836,0-2.1035,0-2.876-0.0918c-0.0137-0.2236-0.0234-0.5449-0.0234-1.0078v-0.6006
		C724.1084,184.7869,729.9287,178.8054,741.4072,178.8054z"/>
</g>
</svg>
