<svg xmlns="http://www.w3.org/2000/svg" width="214.986" height="125.811" viewBox="0 0 214.986 125.811"><g transform="translate(0.611 0.612)"><rect width="213.762" height="124.586" fill="#1a1818"/><g transform="translate(-1.168 -1.008)"><rect width="213.764" height="124.586" transform="translate(1.167 1.008)" fill="none" stroke="#fff" stroke-miterlimit="10" stroke-width="1.225"/></g><path d="M106.892,15.192l14.831,36.97L82.157,55.707Z" transform="translate(-1.168 -1.008)" fill="#d80028"/><path d="M121.646,52.154l10.021,3.528L106.9,15.2,121.52,51.671Z" transform="translate(-1.168 -1.008)" fill="#fff"/><g transform="translate(-1.168 -1.008)"><path d="M24.217,97.81c0,1.543-.672,2.982-2.429,2.982v.895c3.824,0,7.649-.2,11.528-.2,3.826,0,11.385,0,13.143.449l1.293-5.968-.83-.249c-1.343,2.736-2.943,4.077-6.874,4.077h-11.7c0-3.878-.309-9.643-.309-14.415,0-4.573.309-12.129.309-14.514,0-1.542.674-2.984,2.432-2.984v-.894c-1.292,0-2.845.2-4.6.2-1.549,0-3.1-.2-4.961-.2v.894c2.792.4,3,.8,3,17.5Z" fill="#fff"/><path d="M52.3,86.864c0-7.743,3.477-13.917,11.7-13.917s11.707,6.174,11.707,13.917S72.234,100.78,64,100.78,52.3,94.607,52.3,86.864m-4.181,0c0,8.671,6.733,15.273,15.883,15.273s15.884-6.6,15.884-15.273S73.157,71.593,64,71.593s-15.883,6.6-15.883,15.271" fill="#fff"/><path d="M88.929,86.864c0-7.743,3.474-13.917,11.7-13.917s11.7,6.174,11.7,13.917-3.474,13.916-11.7,13.916-11.7-6.173-11.7-13.916m-4.181,0c0,8.671,6.733,15.273,15.883,15.273s15.883-6.6,15.883-15.273-6.731-15.271-15.883-15.271-15.883,6.6-15.883,15.271" fill="#fff"/><path d="M125.29,71.593h-.79l-1.675,24.365c-.263,3.682-.614,4.4-2.947,4.908v.762c1.275,0,2.506-.165,3.783-.165,1.321,0,2.6.165,3.83.165v-.762c-1.5-.166-2.728-1.183-2.728-4.144,0-1.1,0-3.048.086-4.148l.836-13.282h.222L138.621,100.7l10.91-21.367h.177l.878,15.021c.047.677.134,2.029.134,3.638,0,1.521-.353,2.75-2.2,2.874v.762c1.1,0,2.423-.165,3.7-.165,1.54,0,2.86.165,4.135.165v-.762c-1.934-.294-2.2-.676-2.373-4.1L152.7,71.593h-.749L139.63,95.834Z" fill="#fff"/><path d="M168.615,72.1c-1.321,0-2.642.169-4.137.169-1.321,0-2.641-.169-4-.169v.762c1.718,0,2.2,1.226,2.2,2.537l.218,22.93c0,1.312-.7,2.539-1.937,2.539v.764c.88,0,2.2-.17,3.521-.17,1.5,0,2.816.17,3.738.17v-.764c-1.317,0-2.024-1.227-2.024-2.539l.224-22.93c0-1.311.483-2.537,2.2-2.537Z" fill="#fff"/><path d="M190.908,76.922l-.177-4.738c-2.285.084-4.489-.59-6.775-.59-5.763,0-10.779,2.495-10.779,8.627,0,10.915,15.53,6.218,15.53,15.191,0,3.722-3.035,5.369-6.509,5.369-2.95,0-6.47-1.267-7.482-4.272h-.79l.176,4.4a30.284,30.284,0,0,0,8.138,1.228c5.412,0,9.547-2.877,9.547-8.377,0-10.111-15.531-6.09-15.531-15.187,0-3.85,3.433-5.628,7-5.628,2.77,0,5.939,1.228,6.861,3.978Z" fill="#fff"/><path d="M82.1,55.613l39.482-3.486L131.6,55.651S96.266,58.53,95.229,58.675,82.1,55.613,82.1,55.613" fill="#4c4d4f"/></g></g></svg>