<svg xmlns="http://www.w3.org/2000/svg" width="409.547" height="30.514" viewBox="0 0 409.547 30.514" fill="#005a84">
   <title>MACOM Partners from RF to Light</title>
   <g transform="translate(-60.726 -38.866)">
      <g>
         <path d="M152.309,88.781c1.488,0,2.326-.755,2.787-3.185l1.823-9.515H154.8l.314-1.467h2.075l.147-.734c.5-2.849,2.012-4.275,4.715-4.275a8.183,8.183,0,0,1,1.739.188l-.46,1.551a6.019,6.019,0,0,0-1.468-.21c-1.508,0-2.347.8-2.682,2.766l-.126.713h2.83l-.315,1.467h-2.809l-1.8,9.472c-.649,3.416-2.242,4.8-4.778,4.8" transform="translate(177.68 -30.739)"/>
         <path d="M314.424,77.907c-3.1,0-4.317,3.206-4.317,5.784,0,1.362.419,1.908,1.069,1.908,1.97,0,4.108-4.171,4.589-6.665l.147-.838a6,6,0,0,0-1.488-.188m-4.191,12.8c2.159,0,3.437-.838,3.9-3.207a32.578,32.578,0,0,1,1.258-4.653h-.043c-.713,1.509-2.284,4.359-4.82,4.359-1.509,0-2.326-.964-2.326-3.164,0-3.836,2.012-7.628,6.538-7.628a17.154,17.154,0,0,1,3.269.314L315.87,87.967c-.482,2.494-2.075,4.38-6.057,4.38" transform="translate(132.52 -32.711)"/>
         <path d="M55.924,72.857c-.65,0-1.048.021-1.467.042l-1.048,5.554a5.969,5.969,0,0,0,1.132.084,3.784,3.784,0,0,0,3.982-3.563c0-1.3-.691-2.117-2.6-2.117M54.247,80.15a10.9,10.9,0,0,1-1.152-.063l-1.027,5.428H50.181L52.863,71.37c1.048-.042,2.18-.085,3.416-.085,2.766,0,4.233,1.321,4.233,3.416,0,3.185-2.955,5.449-6.266,5.449" transform="translate(207.205 -31.225)"/>
         <path d="M70.326,77.906c-3.1,0-4.317,3.207-4.317,5.785,0,1.362.419,1.907,1.069,1.907,1.97,0,4.108-4.171,4.59-6.664l.146-.838a5.966,5.966,0,0,0-1.488-.189M71.982,87H70.117c.188-.9.587-2.284,1.215-4.233l-.041-.021c-.755,1.614-2.327,4.464-4.862,4.464-1.509,0-2.326-.964-2.326-3.164,0-3.836,1.991-7.629,6.538-7.629a17.1,17.1,0,0,1,3.269.315C72.8,82.559,72.422,84.508,71.982,87" transform="translate(203.176 -32.711)"/>
         <path d="M86.252,78.2c-1.928-.545-3.982,3.541-4.527,6.435l-.44,2.346H79.441l1.97-10.416h1.8A28.959,28.959,0,0,1,82.145,80.4l.042.021c1.174-2.536,2.431-4.381,4.443-4.045Z" transform="translate(198.736 -32.686)"/>
         <path d="M96.729,76.567H93.9l-1.027,5.448c-.293,1.614-.084,2.054.943,2.054a5.7,5.7,0,0,0,1.447-.168l-.126,1.572a10.261,10.261,0,0,1-1.949.21c-2.137,0-2.682-1.006-2.242-3.374l1.111-5.742H89.938l.294-1.467h2.1l.649-3.374,1.949-.441L94.193,75.1h2.829Z" transform="translate(195.697 -31.225)"/>
         <path d="M107.905,86.984h-1.845l1.279-6.664c.314-1.635.021-2.348-.922-2.348-1.928,0-4.066,4.087-4.548,6.665l-.44,2.347H99.585l1.048-5.449c.272-1.488.649-3.437.922-4.967h1.823a32.456,32.456,0,0,1-1.153,4.108h.041c.986-2.2,2.641-4.317,4.821-4.317,1.928,0,2.577,1.362,2.179,3.542Z" transform="translate(192.906 -32.694)"/>
         <path d="M120.945,77.813c-1.656,0-2.766,1.446-3.248,3.207,3.227-.126,4.653-.775,4.653-2.033,0-.755-.566-1.174-1.4-1.174m-3.479,4.59a7.333,7.333,0,0,0-.1,1.216c0,1.613.566,2.032,2.242,2.032a7.815,7.815,0,0,0,2.934-.608v1.509a9.783,9.783,0,0,1-3.584.629c-2.389,0-3.5-1.027-3.5-3.374,0-4.045,2.242-7.419,5.7-7.419,2.222,0,3.06,1.132,3.06,2.368,0,2.242-2.284,3.48-6.749,3.647" transform="translate(188.313 -32.702)"/>
         <path d="M135.57,78.2c-1.928-.545-3.982,3.541-4.527,6.435l-.44,2.346h-1.845l1.97-10.416h1.8a28.957,28.957,0,0,1-1.069,3.836l.042.021c1.174-2.536,2.431-4.381,4.443-4.045Z" transform="translate(184.461 -32.686)"/>
         <path d="M144.83,78.066a5.03,5.03,0,0,0-1.572-.252c-1.362,0-2.075.65-2.075,1.53,0,1.656,3.165,2.1,3.165,4.443,0,1.739-1.53,3.395-4.485,3.395a9.02,9.02,0,0,1-1.781-.146l.335-1.677a5.753,5.753,0,0,0,1.7.272c1.362,0,2.284-.544,2.284-1.634,0-1.656-3.143-1.928-3.143-4.443,0-1.781,1.425-3.165,4.128-3.165a10.522,10.522,0,0,1,1.782.147Z" transform="translate(181.762 -32.702)"/>
         <path d="M172.357,78.2c-1.928-.545-3.982,3.541-4.527,6.435l-.44,2.346h-1.845l1.97-10.416h1.8A28.926,28.926,0,0,1,168.25,80.4l.041.021c1.175-2.536,2.431-4.381,4.443-4.045Z" transform="translate(173.813 -32.686)"/>
         <path d="M180.9,77.982c-2.284,0-3.814,2.557-3.814,5.176,0,1.551.628,2.41,2.2,2.41,2.033,0,3.814-2.18,3.814-5.218,0-1.531-.691-2.368-2.2-2.368m-1.928,9.2c-2.62,0-3.813-1.32-3.813-3.71,0-4.15,2.64-7.083,6.035-7.083,2.746,0,3.877,1.551,3.877,3.752,0,4.3-2.955,7.041-6.1,7.041" transform="translate(171.031 -32.702)"/>
         <path d="M205.357,86.984h-1.865l1.278-6.664c.314-1.635.021-2.368-.838-2.368-1.781,0-3.961,3.856-4.506,6.686l-.44,2.347h-1.845l1.279-6.664c.315-1.635.042-2.368-.86-2.368-1.76,0-3.94,3.856-4.484,6.686l-.44,2.347h-1.845l1.048-5.449c.293-1.551.649-3.437.922-4.967h1.823a31.507,31.507,0,0,1-1.153,4.108h.042c.964-2.179,2.6-4.317,4.736-4.317a1.872,1.872,0,0,1,2.1,2.033,7.547,7.547,0,0,1-.5,2.305l.041.022c.965-2.243,2.6-4.36,4.736-4.36,1.887,0,2.536,1.362,2.117,3.542Z" transform="translate(166.506 -32.694)"/>
         <path d="M227.825,72.857c-.629,0-1.111.021-1.489.042l-.922,4.82a11.034,11.034,0,0,0,1.132.041c2.117,0,3.773-1.111,3.773-3.081,0-1.236-.734-1.823-2.494-1.823m-.629,6.161c.314.461.608.964.922,1.489l2.934,5.009h-2.326l-3.5-6.35h-.1l-1.2,6.35h-1.865l2.683-14.147c.964-.063,1.97-.084,3.374-.084,2.892,0,4.191,1.153,4.191,3.1,0,2.7-2.263,4.338-5.113,4.631" transform="translate(157.453 -31.225)"/>
         <path d="M247.51,73h-5.176l-.859,4.589h4.9l-.293,1.551H241.16l-1.215,6.413h-1.865L240.762,71.4h7.062Z" transform="translate(152.818 -31.259)"/>
         <g transform="translate(404.877 40.06)">
            <path d="M264.545,76.567h-2.829l-1.027,5.448c-.293,1.614-.084,2.054.943,2.054a5.7,5.7,0,0,0,1.447-.168l-.126,1.572a10.273,10.273,0,0,1-1.949.21c-2.138,0-2.683-1.006-2.243-3.374l1.111-5.742h-2.117l.294-1.467h2.1l.649-3.374,1.949-.441-.733,3.815h2.829Z" transform="translate(-257.754 -71.285)"/>
            <path d="M273.94,77.982c-2.284,0-3.814,2.557-3.814,5.176,0,1.551.628,2.41,2.2,2.41,2.033,0,3.815-2.18,3.815-5.218,0-1.531-.692-2.368-2.2-2.368m-1.928,9.2c-2.619,0-3.813-1.32-3.813-3.71,0-4.15,2.64-7.083,6.035-7.083,2.746,0,3.877,1.551,3.877,3.752,0,4.3-2.955,7.041-6.1,7.041" transform="translate(-260.777 -72.762)"/>
         </g>
         <path d="M295.945,85.55h-6.832L291.8,71.4h1.865l-2.347,12.491h4.945Z" transform="translate(138.045 -31.259)"/>
         <path d="M304.486,73.237a1.122,1.122,0,0,1-1.153-1.2,1.316,1.316,0,0,1,1.32-1.257,1.116,1.116,0,0,1,1.153,1.173,1.363,1.363,0,0,1-1.32,1.279m-1.551,12.134H301.09l1.991-10.416h1.845Z" transform="translate(134.58 -31.08)"/>
         <path d="M332.125,85.081H330.28l1.279-6.664c.314-1.635.021-2.348-.922-2.348-1.928,0-4.065,4.087-4.548,6.665l-.44,2.347H323.8l2.913-15.3h1.844l-.943,4.883a30.956,30.956,0,0,1-1.174,4.108h.042c.985-2.2,2.64-4.317,4.82-4.317,1.928,0,2.6,1.362,2.18,3.542Z" transform="translate(128.004 -30.79)"/>
         <path d="M346.613,76.567h-2.829l-1.027,5.448c-.293,1.614-.084,2.054.943,2.054a5.7,5.7,0,0,0,1.447-.168l-.126,1.572a10.273,10.273,0,0,1-1.949.21c-2.138,0-2.683-1.006-2.243-3.374l1.111-5.742h-2.117l.293-1.467h2.1l.649-3.374,1.949-.441-.733,3.815h2.829Z" transform="translate(123.367 -31.225)"/>
      </g>
      <g>
         <path d="M59.172,9.644H46.222l-5.551,10.3a57.36,57.36,0,0,0-2.406,5.348h.154c-.056-2.083-.113-4-.226-5.235l-.7-10.414H27.249L8.437,38.928l11.431-.009s6.821-10.385,8.146-12.4,1.516-2.545,2.049-3.422h.057c.055,2.7-.1,5.349-.1,7.4l-.181,8.421h10.3l4.984-9.238a70.35,70.35,0,0,0,3.18-6.75h.057c-.17,1.8-.338,4-.4,5.517l-.394,10.472H58.215Z" transform="translate(52.289 29.982)"/>
         <path d="M111.693,38.918,107.3,9.642H94.914L75.148,38.918H86.782l5.185-7.544h-.022s6.348-9.121,6.967-10.528l.056-.183c0,1.126.112,2.6.225,3.618l.816,7.093h-3.8l-5.191,7.552h5.057l4.8-.009Z" transform="translate(32.98 29.982)"/>
         <path d="M174.9,29.8c-2.252,0-3.716-1.408-3.716-4.054,0-5.8,3.941-7.938,6.87-7.938,2.309,0,3.772,1.521,3.772,4.054,0,3.434-2.422,7.938-6.926,7.938m4.9-21.225a18.771,18.771,0,0,0-19.256,18.859c0,7.151,4.392,11.654,13.176,11.654,9.008,0,18.748-7.375,18.748-18.522,0-8.05-5.348-11.991-12.668-11.991" transform="translate(8.262 30.291)"/>
         <path d="M151.938,9.251a19.41,19.41,0,0,0-5.575-.676c-12.611,0-19.2,9.008-19.2,18.972,0,7.206,4.279,11.429,13.231,11.429a38.864,38.864,0,0,0,6.138-.789l.9-9.12a14.285,14.285,0,0,1-4.335.676c-2.7,0-4.73-1.464-4.73-4.167,0-3.435,2.365-8.163,7.319-8.163a9.866,9.866,0,0,1,3.661.733Z" transform="translate(17.924 30.291)"/>
         <path d="M247.251,9.644H234.3l-5.551,10.3a57.363,57.363,0,0,0-2.406,5.348h.154c-.056-2.083-.113-4-.226-5.235l-.7-10.414H215.327L196.516,38.928l11.431-.009s6.821-10.385,8.146-12.4,1.516-2.545,2.048-3.422h.057c.055,2.7-.1,5.349-.1,7.4l-.181,8.421h10.3l4.984-9.238a70.175,70.175,0,0,0,3.181-6.75h.057c-.17,1.8-.338,4-.4,5.517l-.394,10.472h10.641Z" transform="translate(-2.15 29.982)"/>
         <path d="M273.622,42.308h.512a1,1,0,0,1,.627.152.487.487,0,0,1,.183.392.48.48,0,0,1-.191.392,1.094,1.094,0,0,1-.662.152h-.469ZM272.541,45.9h1.081v-1.71a.769.769,0,0,1,.134-.016.589.589,0,0,1,.426.242,9.921,9.921,0,0,1,.836,1.484H276.3q-.693-1.236-.7-1.258a2.033,2.033,0,0,0-.347-.442,1.175,1.175,0,0,0-.367-.2,1.663,1.663,0,0,0,.89-.464,1.1,1.1,0,0,0,.282-.757,1.142,1.142,0,0,0-.37-.892,1.765,1.765,0,0,0-1.2-.333h-1.945Zm4.164.147a3.282,3.282,0,1,1,.961-2.321,3.164,3.164,0,0,1-.961,2.321m1.2-4.354a4.061,4.061,0,1,0,.546,2.033,3.99,3.99,0,0,0-.546-2.033" transform="translate(-23.514 21.294)"/>
      </g>
   </g>
</svg>
