<svg width="715px" height="91px" viewBox="0 0 715 91" version="1.1" xmlns="http://www.w3.org/2000/svg" xmlns:xlink="http://www.w3.org/1999/xlink">
    <title>Maximus-logo</title>
    <defs>
        <polygon id="path-1" points="0.388 0.854 76.598 0.854 76.598 90.94 0.388 90.94"></polygon>
    </defs>
    <g id="Page-1" stroke="none" stroke-width="1" fill="none" fill-rule="evenodd">
        <g id="Group">
            <g id="Group-3" transform="translate(638.000000, 0.000000)">
                <mask id="mask-2" fill="white">
                    <use xlink:href="#path-1"></use>
                </mask>
                <g id="Clip-2"></g>
                <path d="M12.515,59.686 C12.515,59.686 23.92,71.992 38.4,71.992 C47.271,71.992 54.693,69.461 54.693,64.21 C54.693,58.597 50.71,57.509 37.679,54.795 C20.661,51.175 5.817,43.937 5.817,27.644 C5.817,14.249 19.212,0.854 42.747,0.854 C62.115,0.854 74.969,11.351 74.969,11.351 L64.108,27.283 C64.108,27.283 54.332,19.861 42.747,19.861 C34.6,19.861 27.178,22.753 27.178,28.005 C27.178,33.256 32.971,34.522 47.451,37.597 C64.469,41.216 76.598,46.828 76.598,64.57 C76.598,79.231 61.03,91 39.125,91 C13.964,91 0.388,75.434 0.388,75.434 L12.515,59.686" id="Fill-1" fill="#502E91" mask="url(#mask-2)"></path>
            </g>
            <path d="M544.662,58.357 L544.662,2.924 L566.329,2.924 L566.329,52.399 C566.329,65.041 572.29,70.456 583.304,70.456 C594.497,70.456 600.278,62.629 600.278,62.629 L600.278,2.924 L621.945,2.924 L621.945,88.721 L600.252,88.721 L600.252,76.054 C600.252,76.054 593.594,90.677 576.08,90.677 C559.649,90.677 544.662,78.938 544.662,58.357" id="Fill-4" fill="#502E91"></path>
            <path d="M522.91,33.506 L522.91,88.719 L501.188,88.719 L501.188,39.118 C501.188,27.349 496.661,21.016 485.8,21.016 C474.395,21.016 468.966,27.574 468.966,27.574 L468.966,88.719 L447.241,88.719 L447.241,39.118 C447.241,27.349 442.716,21.016 431.855,21.016 C420.45,21.016 415.018,27.574 415.018,27.574 L415.018,88.719 L393.296,88.719 L393.296,2.913 L415.066,2.913 L415.066,15.433 C415.066,15.433 421.355,0.743 438.914,0.743 C459.551,0.743 465.524,15.764 465.524,15.764 C465.524,15.764 472.765,0.743 492.858,0.743 C510.236,0.743 522.91,12.866 522.91,33.506" id="Fill-5" fill="#502E91"></path>
            <polygon id="Fill-6" fill="#502E91" points="346.414 88.719 368.139 88.719 368.139 2.913 346.414 2.913"></polygon>
            <polyline id="Fill-7" fill="#502E91" points="307.292 55.833 331.132 88.734 305.732 88.734 294.623 73.369 307.292 55.833"></polyline>
            <polyline id="Fill-8" fill="#502E91" points="307.28 35.743 331.136 2.912 305.841 2.912 294.698 18.294 307.28 35.743"></polyline>
            <polyline id="Fill-9" fill="#502E91" points="268.955 2.912 243.659 2.912 274.701 45.825 243.61 88.735 268.782 88.735 287.398 63.153 300.029 45.825 268.955 2.912"></polyline>
            <path d="M129.613,33.502 L129.613,88.715 L107.891,88.715 L107.891,39.114 C107.891,27.345 103.364,21.012 92.503,21.012 C81.098,21.012 75.669,27.466 75.669,27.466 L75.669,88.715 L53.944,88.715 L53.944,39.114 C53.944,27.345 49.42,21.012 38.559,21.012 C27.154,21.012 21.722,27.64 21.722,27.64 L21.722,88.715 L0,88.715 L0,2.909 L21.733,2.909 L21.733,15.399 C21.733,15.399 28.059,0.739 45.617,0.739 C66.254,0.739 72.227,15.76 72.227,15.76 C72.227,15.76 79.469,0.739 99.561,0.739 C116.94,0.739 129.613,12.862 129.613,33.502" id="Fill-10" fill="#502E91"></path>
            <path d="M206.783,14.717 L206.783,2.925 L228.558,2.925 L228.558,88.731 L206.783,88.731 L206.783,77.052 C206.783,77.052 199.645,90.901 183.59,90.901 C163.64,90.901 146.121,72.26 146.121,45.831 C146.121,19.401 163.64,0.755 183.59,0.755 C200.133,0.755 206.783,14.717 206.783,14.717 L206.851,28.183 C206.851,28.183 201.774,21.028 189.284,21.028 C176.148,21.028 168.316,31.708 168.316,45.831 C168.316,59.947 176.148,70.628 189.284,70.628 C201.774,70.628 206.851,63.39 206.851,63.39 L206.851,28.183 L206.783,14.717" id="Fill-11" fill="#502E91"></path>
        </g>
    </g>
</svg>