<?xml version="1.0" encoding="UTF-8"?>
<svg width="135px" height="26px" viewBox="0 0 135 26" version="1.1" xmlns="http://www.w3.org/2000/svg" xmlns:xlink="http://www.w3.org/1999/xlink">
    <title>Logo/Medica/L/</title>
    <g id="Logo/Medica/L/" stroke="none" stroke-width="1" fill="none" fill-rule="evenodd">
        <g id="Medica-Logo-" transform="translate(0.000000, 0.500000)" fill-rule="nonzero">
            <path d="M35.1129029,2.88317091 L37.5368816,2.88317091 C37.5368816,2.88317091 44.040714,16.2860195 44.5611319,17.3908639 C46.2810157,14.2934033 51.6466079,2.88317091 51.6466079,2.88317091 L54.1930379,2.88317091 L56.8313062,23.6553598 L51.8636807,23.6553598 C51.8636807,23.6553598 51.0649644,12.6069153 50.6502999,9.69034858 L43.9182627,23.6553598 L42.6603542,23.6553598 L36.1259089,10.0910982 C35.5748782,13.6783639 34.7872939,23.6553598 34.7872939,23.6553598 L31.9236038,23.6553598 L35.1129029,2.88317091 Z" id="Path" fill="#1B3760"></path>
            <path d="M70.6098576,22.606175 C69.2120042,23.5424046 67.5609267,24.0280156 65.8787856,23.9976668 C61.4009651,23.9976668 58.6096327,21.0838831 58.6096327,16.3583771 C58.6096327,11.6968797 61.247901,8.78309595 65.4502061,8.78309595 C69.53006,8.78309595 71.8315873,11.2070746 71.8315873,15.4622564 C71.8315873,15.6153205 71.8009745,16.0188531 71.7703617,16.4724794 C71.8649831,16.4474325 63.0262275,16.3806409 63.0262275,16.3806409 C63.0568403,18.0365161 63.2126874,18.9882965 63.6412669,19.8482384 C64.2700974,21.2248231 65.6540872,22.098692 67.167307,22.0746252 C68.516803,22.0709324 69.8172772,21.5683863 70.8185813,20.6636525 C70.8185813,20.6636525 70.6683002,22.450328 70.6098576,22.606175 Z M67.6960738,14.9668853 C67.6960738,11.7441904 66.8055191,10.0298726 65.5476106,10.0298726 C64.0447995,10.0298726 63.1876406,11.7775862 63.0958021,14.9668853 L67.6960738,14.9668853 Z" id="Shape" fill="#1B3760"></path>
            <path d="M88.3374625,0.857158921 L88.3374625,23.6553598 L83.9514805,23.6553598 C83.9514805,23.6553598 84.1351574,21.9855697 84.1351574,21.0477043 C83.1221514,23.1933846 81.9282515,23.9921008 79.7797882,23.9921008 C76.097901,23.9921008 73.9216079,21.2313812 73.9216079,16.5977136 C73.9216079,11.8443778 76.3149738,8.77752999 79.9634651,8.77752999 C81.8976387,8.77752999 83.18616,9.51223763 84.043319,11.1096702 C84.043319,7.39717016 83.7650206,0.862724888 83.7650206,0.862724888 L88.3374625,0.857158921 Z M78.4300412,16.5921477 C78.4300412,20.1821964 79.3512088,22.1441998 81.0683096,22.1441998 C82.1119284,22.1441998 82.9997001,21.3788793 83.4004498,20.1961113 C83.8076306,18.8115821 84.0138217,17.3757425 84.0127106,15.9325806 C84.0127106,12.5596046 83.0609258,10.7172014 81.3132121,10.7172014 C79.47366,10.7033546 78.4300412,12.821205 78.4300412,16.5921477 Z" id="Shape" fill="#1B3760"></path>
            <path d="M97.0036732,4.10768366 C97.0036732,5.42028103 95.9396026,6.48435137 94.6270052,6.48435137 C93.3144079,6.48435137 92.2503373,5.42028103 92.2503373,4.10768366 C92.2503373,3.25858195 92.7033276,2.47397958 93.4386712,2.0494287 C94.1740149,1.62487782 95.0799956,1.62487782 95.8153393,2.0494287 C96.5506829,2.47397958 97.0036732,3.25858195 97.0036732,4.10768366 L97.0036732,4.10768366 Z M96.8812219,9.11705397 L96.8812219,23.6553598 L92.311563,23.6553598 L92.311563,9.10870502 C93.0666088,9.2347213 93.8309053,9.29709386 94.5963924,9.29516492 C95.3619276,9.29832359 96.1263281,9.23594255 96.8812219,9.10870502 L96.8812219,9.11705397 Z" id="Shape" fill="#1B3760"></path>
            <path d="M111.5058,13.1885588 C111.227502,11.2877811 110.094828,10.1523238 108.40834,10.1523238 C106.014974,10.1523238 104.573388,12.4204554 104.573388,16.1329554 C104.573388,18.1283546 105.004751,19.6311657 105.831297,20.6107759 C106.671154,21.5196455 107.855497,22.0319848 109.092954,22.0217485 C110.335371,22.0456378 111.532941,21.5575526 112.404704,20.6720015 L112.190414,22.7286263 C110.785346,23.5792963 109.168396,24.0153713 107.526134,23.9865349 C102.956475,23.9865349 100.042691,21.0727511 100.042691,16.5003092 C100.042691,11.7469734 103.140152,8.77196402 108.113343,8.77196402 C110.136572,8.77196402 111.764618,9.20054348 113.144978,10.0604854 L111.5058,13.1885588 Z" id="Path" fill="#1B3760"></path>
            <path d="M115.493816,10.8870315 C117.333368,9.35360757 118.989243,8.77196402 121.351996,8.77196402 C123.714749,8.77196402 125.370624,9.50667166 126.135945,10.8258058 C126.750984,11.9000375 126.81221,12.3898426 126.81221,16.4084708 L126.81221,18.4650956 C126.81221,20.5495502 126.873435,21.1952024 127.026499,21.6237819 C127.274756,22.0949511 127.762971,22.3904497 128.29554,22.3918853 C128.459869,22.3811109 128.62342,22.360667 128.785345,22.3306597 C128.785345,22.3306597 126.945793,23.8028579 125.902174,23.8028579 C124.338137,23.8028579 123.480978,23.1878186 122.896552,21.6850075 C121.535673,23.3770615 120.503186,23.9865349 118.833396,23.9865349 C116.256353,23.9865349 114.569865,22.4224981 114.569865,20.0597451 C114.569865,18.8018366 115.029057,17.7276049 115.919612,17.0235101 C116.565264,16.4669134 117.238746,16.1886151 118.741557,15.7656016 C121.134923,15.1199494 121.246243,15.0893366 121.802839,14.7525956 C122.271497,14.4372843 122.548975,13.906412 122.54033,13.3416229 C122.54033,11.808199 121.343647,10.6727418 119.757346,10.6727418 C118.223922,10.6727418 116.996627,11.5632965 116.320362,13.2191717 L115.493816,10.8870315 Z M122.793581,15.6737631 C121.935706,15.9593841 121.104195,16.3188057 120.308377,16.7479948 C119.236928,17.3296383 118.866792,18.0671289 118.866792,19.6005528 C118.866792,21.1339768 119.451218,21.92991 120.55328,21.92991 C121.337621,21.9201661 122.054836,21.4853613 122.426228,20.7944528 C122.67113,20.3658733 122.762969,19.6812594 122.762969,18.4038699 C122.762969,18.1895802 122.793581,15.6737631 122.793581,15.6737631 L122.793581,15.6737631 Z" id="Shape" fill="#1B3760"></path>
            <path d="M131.184277,22.2193403 C131.167273,21.6173741 131.517248,21.0653041 132.068926,20.8238431 C132.620605,20.5823821 133.26362,20.6998124 133.69431,21.1207379 C134.125,21.5416397 134.257203,22.1817849 134.028486,22.7388676 C133.79977,23.2959503 133.25589,23.658522 132.653692,23.6553598 C132.263474,23.6774677 131.881949,23.5344463 131.602423,23.261273 C131.322897,22.9880997 131.171144,22.609963 131.184277,22.2193403 L131.184277,22.2193403 Z M133.894903,22.2193403 C133.916511,21.7644017 133.686104,21.3344613 133.295323,21.100524 C132.904543,20.8665867 132.416756,20.8665867 132.025975,21.100524 C131.635195,21.3344613 131.404787,21.7644017 131.426396,22.2193403 C131.457692,22.8782332 132.001014,23.3963604 132.660649,23.3963604 C133.320285,23.3963604 133.863606,22.8782332 133.894903,22.2193403 Z M132.124925,21.4512369 L132.703786,21.4512369 C133.09062,21.4512369 133.279863,21.593169 133.279863,21.8909483 C133.293061,22.0952283 133.143714,22.2739558 132.940339,22.2972639 L133.33274,22.9679629 L133.054442,22.9679629 L132.695437,22.3362256 L132.392091,22.3362256 L132.392091,22.9679629 L132.133274,22.9679629 L132.124925,21.4512369 Z M132.681522,22.1441998 C132.940339,22.1441998 133.029395,22.0634933 133.029395,21.8881653 C133.029395,21.7128373 132.937556,21.6460457 132.684305,21.6460457 L132.406006,21.6460457 L132.406006,22.1441998 L132.681522,22.1441998 Z" id="Shape" fill="#1B3760"></path>
            <path d="M17.8500562,25.3001031 L13.2887463,21.5430753 L8.72743628,25.3001031 C8.47805144,25.5060264 8.13217138,25.549397 7.83966454,25.4114224 L7.24132309,25.1331241 C1.7729279,22.3384184 -1.06820366,16.1606481 0.369066208,10.1900551 C1.80633608,4.21946207 7.14759608,0.0113963597 13.2887463,0.0113963597 C19.4298964,0.0113963597 24.7711564,4.21946207 26.2084263,10.1900551 C27.6456962,16.1606481 24.8045646,22.3384184 19.3361694,25.1331241 L18.737828,25.4114224 C18.4453211,25.549397 18.0994411,25.5060264 17.8500562,25.3001031 Z M15.0281109,20.1014899 L18.570849,23.0097076 C23.01436,20.5916487 25.2514364,15.4673978 24.0038757,10.5648075 C22.7563149,5.66221719 18.3420141,2.23054026 13.2831803,2.23054026 C8.2243465,2.23054026 3.81004563,5.66221719 2.56248491,10.5648075 C1.31492419,15.4673978 3.55200058,20.5916487 7.99551162,23.0097076 L11.5382496,20.1014899 L6.8350075,16.2303598 C5.73381038,15.3347304 5.09292658,13.9919978 5.08915151,12.5725709 C5.08537644,11.1531439 5.71910903,9.80702138 6.81552661,8.90554723 L6.9518928,8.7914449 C8.65872329,7.364713 11.1422044,7.364713 12.8490349,8.7914449 L13.2887463,9.16993066 L13.7284576,8.7914449 C15.436103,7.36696017 17.9179543,7.36696017 19.6255997,8.7914449 L19.7591829,8.90554723 C20.8594784,9.80079797 21.4981845,11.143894 21.4981845,12.5623876 C21.4981845,13.9808812 20.8594784,15.3239771 19.7591829,16.2192279 L19.739702,16.2359258 L15.0281109,20.1014899 Z M9.89907234,9.94638306 C9.35479552,9.93902376 8.82544504,10.1243457 8.40461019,10.469584 L8.27102699,10.5864693 C7.66601275,11.061286 7.31267926,11.7877357 7.31267926,12.5568216 C7.31267926,13.3259075 7.66601275,14.0523572 8.27102699,14.5271739 L13.2803973,18.6599044 L18.3148145,14.5216079 C18.9177328,14.0466823 19.2696227,13.3215442 19.2696227,12.5540386 C19.2696227,11.786533 18.9177328,11.0613949 18.3148145,10.5864693 L18.1812313,10.469584 C17.3064911,9.77056467 16.0642641,9.77056467 15.189524,10.469584 L13.834211,11.6328711 C13.5208445,11.9032987 13.056648,11.9032987 12.7432815,11.6328711 L11.4102324,10.469584 C10.9848761,10.1208174 10.4490206,9.93529102 9.89907234,9.94638306 L9.89907234,9.94638306 Z" id="Shape" fill="#1CA08E"></path>
        </g>
    </g>
</svg>