<svg width="223" height="46" viewBox="0 0 223 46" fill="none" xmlns="http://www.w3.org/2000/svg">
<g clip-path="url(#clip0_1327_14668)">
<path d="M48.049 12.0194L41.2406 0.894287H32.8809V29.6303H40.6292V13.2104L47.8869 24.3755H48.049L55.3494 13.1273V29.6303H63.22V0.894287H54.8602L48.049 12.0194Z" fill="#E02129"/>
<path d="M74.3968 18.3005H88.0989V12.0194H74.3968V7.66784H89.5266V0.894287H66.5674V29.6303H89.7299V22.8568H74.3968V18.3005Z" fill="#E02129"/>
<path d="M118.235 10.7884V10.7068C118.235 7.874 117.379 5.65668 115.706 4.01484C113.789 2.04373 110.772 0.894287 106.408 0.894287H92.9092V29.6303H100.821V20.9272H104.288L110.038 29.6303H119.173L112.363 19.6131C115.911 18.0944 118.236 15.18 118.236 10.7869L118.235 10.7884ZM110.283 11.2808C110.283 13.375 108.733 14.6876 106.041 14.6876H100.821V7.79094H106C108.65 7.79094 110.281 8.94038 110.281 11.1977V11.2793L110.283 11.2808Z" fill="#E02129"/>
<path d="M133.946 11.7317C129.99 10.8284 129.012 10.253 129.012 8.94038V8.85732C129.012 7.83098 129.95 7.0108 131.866 7.0108C134.394 7.0108 137.249 7.99561 139.859 9.84362L143.816 4.2195C140.716 1.71593 136.924 0.401855 132.072 0.401855C125.22 0.401855 121.02 4.26103 121.02 9.59742V9.67899C121.02 15.5894 125.71 17.3143 131.786 18.7099C135.661 19.6132 136.598 20.2702 136.598 21.4597V21.5428C136.598 22.7738 135.456 23.5124 133.336 23.5124C130.033 23.5124 126.893 22.3229 124.079 20.064L119.674 25.3589C123.182 28.521 127.994 30.1213 133.05 30.1213C139.984 30.1213 144.593 26.6315 144.593 20.7611V20.6796C144.593 15.3016 140.514 13.1674 133.948 11.7302L133.946 11.7317Z" fill="#E02129"/>
<path d="M155.296 0.894287H147.343V29.6303H155.296V0.894287Z" fill="#E02129"/>
<path d="M177.746 16.0832L166.001 0.894287H158.619V29.6303H166.449V13.8659L178.642 29.6303H185.574V0.894287H177.746V16.0832Z" fill="#E02129"/>
<path d="M203.484 0.318848C194.676 0.318848 188.068 7.01084 188.068 15.2616V15.3447C188.068 23.5955 194.594 30.2044 203.401 30.2044C212.209 30.2044 218.817 23.5124 218.817 15.2616V15.1801C218.817 6.92927 212.292 0.318848 203.484 0.318848ZM210.743 15.3447C210.743 19.4901 207.847 23.02 203.484 23.02C199.121 23.02 196.184 19.4085 196.184 15.2616V15.1801C196.184 11.0346 199.079 7.50325 203.4 7.50325C207.721 7.50325 210.742 11.1147 210.742 15.2616V15.3447H210.743Z" fill="#E02129"/>
<path d="M15.093 0C13.2852 0 11.557 0.336676 9.951 0.924004L9.93037 1.05007L9.33367 1.31259L8.99922 1.49947L9.22317 1.53655L9.55909 1.34819L9.96868 1.19987C9.96868 1.19987 10.2663 1.19987 10.3031 1.34819C10.3414 1.49947 10.3031 1.34819 10.4151 1.68634C10.5271 2.0245 10.4151 1.68634 10.5271 1.8747C10.6391 2.06307 11.0103 1.95035 11.0103 1.95035C11.0103 1.95035 11.3463 2.10014 11.5319 2.13871C11.719 2.1743 11.7559 2.21286 11.7927 2.36266C11.8295 2.51246 12.0535 2.51246 12.2391 2.58662C12.4248 2.66078 12.2391 2.58662 12.3879 2.66078C12.5367 2.73493 12.3879 2.43534 12.3879 2.43534L12.2759 2.28702L12.0152 2.21286L11.94 1.8747L11.7175 1.83763L11.7927 1.68783L12.0535 1.61367L12.2391 1.50095L12.3879 1.46387L12.4984 1.68783L12.6104 1.83763H12.8343L13.0951 1.91178L13.1305 2.13871L12.7592 2.40122L13.0185 2.55102L13.2439 2.4383H13.5032L13.5401 2.28999L13.764 2.17727L13.8377 2.02747V1.87767L13.6889 1.68931V1.50243C13.6889 1.50243 13.8377 1.46535 13.9865 1.57807L14.1736 1.72639L13.9865 1.98891L14.0616 2.17727L14.097 2.32855L14.2458 2.40419L14.2856 2.55399L14.5449 2.47835V2.33003L14.4344 2.17875L14.3224 2.02895L14.3593 1.76792H14.5832V1.9548L14.8057 1.84208L15.0296 1.9548L15.2168 1.84208L15.4024 1.9548L15.5129 2.10459H15.7L15.7368 2.25588L15.8857 2.18023L16.2584 2.25588L16.2952 2.44275L16.4072 2.63111L16.6312 2.66819C16.6312 2.66819 16.8905 2.70527 17.0024 2.74235C17.1144 2.78091 17.1144 3.00635 16.8536 2.93071C16.5929 2.85655 16.4072 2.85655 16.4072 2.85655L16.5929 3.11759L16.7048 3.23179C16.8183 3.34303 16.78 3.38159 16.7048 3.64262C16.7048 3.64262 16.5177 3.53139 16.4087 3.49282C16.2967 3.45575 16.1111 3.45575 15.7751 3.23031C15.7751 3.23031 15.4761 3.26739 15.3656 3.26739C15.2551 3.26739 15.2919 3.1161 15.2919 3.1161H15.6278L15.7383 2.89215V2.74087L15.6278 2.51691L15.1814 2.36711H14.9574L14.8086 2.44127L14.8469 2.74087V2.92923C14.8469 2.92923 14.511 3.00487 14.4005 3.00487H14.2149V3.26739L13.9909 3.30446L13.767 3.41718L13.655 3.5655L13.3942 3.71678C13.132 3.8651 13.3942 3.71678 13.3574 3.82802C13.3206 3.94074 13.0966 3.94074 13.0966 3.94074L13.132 4.12761C13.132 4.12761 13.2822 4.27741 13.2822 4.39013C13.2822 4.50285 13.4311 4.50285 13.4311 4.50285L13.5784 4.42869L13.8406 4.61557L14.1 4.76537L14.399 4.87809C14.399 4.87809 14.5464 4.84101 14.6598 4.84101C14.7733 4.84101 14.7335 4.99377 14.7335 5.10353C14.7335 5.21328 14.6598 5.32897 14.6598 5.4402C14.6598 5.55144 14.9206 5.66564 14.9206 5.66564L15.1431 5.62856C15.1431 5.62856 15.2934 5.51584 15.3302 5.40461C15.3685 5.29189 15.2197 5.10353 15.2197 5.10353L15.3302 4.95521L15.479 4.87809C15.6293 4.80393 15.591 4.69121 15.591 4.69121L15.5158 4.50433C15.5158 4.50433 15.3302 4.43018 15.4053 4.09202C15.479 3.75386 15.4053 4.09202 15.4053 3.9793C15.4053 3.86658 15.1431 3.75386 15.4053 3.64114L15.3685 3.49134H15.6293L15.8149 3.60406C15.8149 3.60406 16.1125 3.5655 16.335 3.71678C16.559 3.8651 16.335 3.71678 16.335 3.90366C16.335 4.09054 16.447 4.09054 16.7063 4.27741C16.9671 4.46577 16.7063 4.27741 16.8919 4.16618C17.0791 4.05197 16.8919 3.82802 16.8919 3.82802L17.1159 3.90366C17.1159 3.90366 17.3767 4.12761 17.5623 4.31449C17.748 4.50285 17.5623 4.31449 17.6743 4.57701C17.7863 4.83953 18.0471 4.76389 18.0471 4.76389C18.0471 4.76389 18.1973 4.80245 18.383 4.95225C18.5686 5.10056 18.5318 5.0264 18.8294 5.10056C19.1285 5.1762 18.8294 5.10056 18.9414 5.25184C19.0534 5.40164 18.9045 5.40164 18.7926 5.51436C18.6806 5.62708 18.5701 5.62708 18.495 5.7398C18.4213 5.85252 18.3093 5.88812 18.3093 5.88812L17.8629 5.81396H17.2647L16.8934 6.1892L16.8198 6.41464L17.0805 6.33899L17.4518 6.00232L17.7863 6.11504L17.7494 6.34048V6.49028C17.7494 6.63859 17.8982 6.63859 17.8982 6.63859H18.0471C18.0471 6.63859 18.3078 6.67715 18.4552 6.78839L18.1207 7.08947C18.1207 7.08947 17.8614 7.16363 17.748 7.16363L17.8216 6.93967L17.5623 7.01383L17.4872 7.12803C17.4135 7.23927 17.3015 7.16511 17.3015 7.16511L17.1542 7.31491H16.8566L16.8198 7.57743L17.1174 7.7643C17.1174 7.7643 16.9317 7.95118 16.2982 7.98974C15.6661 8.02831 16.2614 8.1781 16.2614 8.1781L16.2982 8.36646L16.1509 8.70314L16.0035 8.85145V8.59042L15.9637 8.29082L15.7398 8.44062V8.66458C15.7398 8.66458 15.8518 8.81438 15.8149 9.00274C15.7781 9.18961 15.8149 9.00274 15.8518 9.11546C15.8886 9.22669 15.9254 9.30233 15.9254 9.30233L15.6646 9.52777L15.4775 9.75173L15.0694 10.0899L14.7703 10.3524L14.8455 10.6134L14.9191 10.9516L15.1048 11.3624C15.1048 11.3624 15.1416 11.5137 15.1814 11.625C15.2182 11.7377 14.9957 11.926 14.8823 11.926C14.7689 11.926 14.6967 11.6635 14.6967 11.6635L14.623 11.4766C14.623 11.4766 14.511 11.1385 14.4727 11.0272C14.4359 10.9145 14.2134 10.8404 14.2134 10.8404L13.9143 10.7262C13.6167 10.6134 13.8775 10.5764 13.8775 10.5764C13.8775 10.5764 13.02 10.5378 12.908 10.5764C12.796 10.6134 13.0568 10.8404 13.0568 10.8404L12.796 10.9145L12.6089 10.9516L12.4601 10.7632L12.161 10.6891L11.7897 10.7632L11.5658 10.9516L11.3065 10.876C11.3065 10.876 11.1945 11.0643 11.3065 11.0999C11.417 11.1385 11.1945 11.3624 11.1945 11.3624L11.084 11.6635L10.8601 11.9631C10.8601 11.9631 10.8217 12.1129 10.8217 12.2256V12.5267C10.8217 12.5267 10.8601 12.7877 11.0074 12.8248C11.1577 12.8634 11.1577 13.1244 11.1945 13.2757C11.2313 13.4255 11.3816 13.5011 11.4921 13.5011H11.9754C11.9754 13.5011 12.3113 13.3869 12.3113 13.2757C12.3113 13.1645 12.6458 13.0503 12.6458 13.0503L12.9817 12.7877C12.9817 12.7877 13.2793 12.7877 13.3176 13.0503C13.3559 13.3128 13.3176 13.0503 13.3176 13.2001C13.3176 13.3499 13.3544 13.4626 13.3544 13.4626C13.3544 13.4626 13.0568 13.9491 13.0568 14.0633C13.0568 14.1775 13.2042 14.2857 13.2042 14.2857H13.6152C14.0248 14.2857 13.9128 14.3999 14.1368 14.3999C14.3607 14.3999 14.4344 14.4741 14.4344 14.4741L14.4712 14.6995C14.5081 14.9235 14.4712 14.6995 14.3976 14.9235C14.3239 15.1489 14.3239 15.1104 14.2119 15.3744C14.0985 15.6369 14.2119 15.5983 14.2119 15.5983C14.2119 15.5983 14.2871 15.7481 14.4359 15.9365C14.5847 16.1234 14.6215 16.1604 14.6215 16.1604C14.6215 16.1604 14.8808 16.1604 15.0679 16.0106C15.2536 15.8608 15.3656 15.935 15.3656 15.935C15.3656 15.935 15.7368 16.0477 15.812 16.1589C15.8857 16.2717 16.0728 16.2717 16.0728 16.2717V15.9335C16.0728 15.8208 16.2216 15.7096 16.2216 15.7096C16.2216 15.7096 16.4087 15.5598 16.5177 15.5598C16.6267 15.5598 16.78 15.5227 16.78 15.5227L17.1527 15.2616L17.3001 15.4485L17.1896 15.5598C17.0776 15.6725 17.1513 15.7466 17.1513 15.8979C17.1513 16.0492 17.4489 16.0477 17.4489 16.0477L17.5609 15.8979C17.5609 15.8979 17.412 15.711 17.4857 15.5983C17.5608 15.4856 17.5977 15.2987 17.5977 15.2987L17.7833 15.3758L18.1561 15.5627L18.3049 15.6754C18.4522 15.7882 18.3049 15.6754 18.4905 15.6384C18.6776 15.5998 18.7528 15.6754 18.7528 15.6754H19.0504L19.3127 15.5256L19.6839 15.5998L19.7208 15.7125C19.7576 15.8252 19.7208 15.7125 19.9462 15.8623C20.1672 16.0121 19.9462 15.8623 19.9462 16.0492C19.9462 16.2361 20.1672 16.1248 20.4663 16.2746C20.7639 16.4244 20.4663 16.2746 20.5414 16.3874C20.6151 16.5001 20.5783 16.5742 20.6151 16.724C20.6519 16.8738 20.951 16.687 20.951 16.687L21.5094 16.8382L22.1047 16.8753L22.3271 17.0622L22.4406 17.212C22.4406 17.212 22.6262 17.4359 22.6262 17.5872C22.6262 17.7385 22.3669 17.9254 22.1798 18.1508C21.9942 18.3763 22.143 18.3763 22.4023 18.2621C22.6631 18.1508 22.5142 18.001 22.6262 17.7756C22.7382 17.5501 22.6262 17.7756 22.6631 17.8883C22.7014 18.001 22.775 18.1879 22.775 18.1879C22.775 18.1879 22.6262 18.3392 22.6262 18.5261C22.6262 18.7129 22.775 18.6032 22.775 18.6032L23.0358 18.3021L23.2598 18.2265L23.5574 18.3777L23.7077 18.5261L23.8933 18.7144L24.0053 18.5261L24.3412 18.4504L24.8981 18.5646C24.8981 18.5646 25.1221 18.7515 25.1604 18.8642C25.1972 18.9769 25.4948 19.014 25.4948 19.014C25.4948 19.014 25.57 19.6147 25.57 19.7645C25.57 19.9143 25.458 20.1382 25.4197 20.251C25.3829 20.3637 25.1206 20.5891 24.8981 20.9243C24.6757 21.2625 24.6757 21.0741 24.6757 21.0741C24.6757 21.0741 24.6005 21.4864 24.6005 21.5977C24.6005 21.7089 24.3412 22.3481 24.3412 22.3481C24.3412 22.3481 23.8948 22.8331 23.8565 22.9859C23.8196 23.1327 23.7091 23.284 23.522 23.3953C23.3364 23.508 23.0373 23.6593 23.0373 23.6593C23.0373 23.6593 22.5909 23.8076 22.4421 23.9588C22.2932 24.1086 22.143 24.3697 22.143 24.558C22.143 24.7464 21.8453 24.7108 21.7334 24.7835C21.6214 24.8621 21.5846 25.0846 21.5846 25.0846C21.5846 25.0846 21.3591 25.3471 21.2869 25.4598C21.2118 25.5725 20.9893 25.5354 20.9893 25.5354C20.9893 25.5354 20.8022 25.6111 20.6534 25.8721C20.5061 26.1346 20.2807 26.1346 20.0582 26.2103C19.8342 26.2844 19.7223 26.2459 19.7223 26.2459C19.7223 26.2459 19.6103 26.5084 19.6103 26.6582C19.6103 26.808 19.3878 26.9222 19.3878 26.9222C19.3878 26.9222 18.7543 26.9593 18.7543 27.0705C18.7543 27.1817 18.3461 27.2959 18.3461 27.2959L18.1973 27.5585L18.0102 27.7453C18.0102 27.7453 17.7494 27.7839 17.7494 27.9322C17.7494 28.0805 17.6758 28.082 17.4518 28.1947L17.4887 28.4202L17.2293 28.5685C17.2293 28.5685 17.1542 28.7183 16.9317 28.8696C16.9317 28.8696 16.9686 29.0965 16.9686 29.2433C16.9686 29.3902 16.7078 29.356 16.7078 29.356L16.4838 29.2819L16.4102 29.1336L16.1494 28.9066L16.002 28.607L16.0757 28.3445L16.3733 28.2318V27.8581L16.5604 27.5199L16.2997 27.6712L16.1523 27.8581L16.005 27.7068L16.1523 27.4828L16.4131 27.2959L16.4499 26.8465L16.4131 26.6211C16.4131 26.6211 16.6371 26.3601 16.749 26.3215C16.8595 26.2829 16.9715 26.0961 16.9715 26.0961C16.9715 26.0961 17.0452 25.9107 17.0452 25.7965V25.6096L16.9347 25.3456C16.9347 25.3456 17.1203 25.0831 17.2323 25.0074C17.3428 24.9348 17.2323 24.6708 17.2323 24.6708L17.3811 24.4068L17.306 24.1828C17.306 24.1828 17.3811 23.8446 17.4562 23.6948C17.5299 23.545 17.3826 23.2825 17.3826 23.2825L17.1969 22.9088C17.1969 22.9088 16.9361 22.6448 16.8242 22.6448C16.7122 22.6448 16.5634 22.3081 16.3026 22.3081C16.0418 22.3081 16.0418 22.2339 15.893 22.1969C15.7442 22.1583 16.0065 21.9329 16.0065 21.8231C16.0065 21.7134 15.9667 21.5606 15.9667 21.5606C15.9667 21.5606 15.6691 21.2981 15.6691 21.1854C15.6691 21.0726 15.5188 20.9985 15.4451 20.8872C15.3715 20.7745 15.3715 20.7374 15.146 20.6618C14.9236 20.5876 15.0355 20.1368 15.0355 20.1368L14.8116 19.9855L14.7379 19.6473L14.9236 19.5005L15.1092 19.3507L14.9619 19.1253L14.8499 18.9755C14.7379 18.8257 14.8867 18.75 14.9619 18.5631C15.0355 18.3763 14.9619 18.5631 15.0002 18.4489C15.037 18.3377 15.1858 18.2621 15.1858 18.2621L15.2595 18.0752C15.2595 18.0752 15.482 18.0366 15.5188 17.8868C15.5556 17.737 15.6691 17.7741 15.781 17.7355C15.8915 17.6985 15.8547 17.4745 15.8547 17.4745C15.8547 17.4745 15.8179 17.2861 15.781 17.1363C15.7427 16.9851 15.6691 16.9124 15.7059 16.7982C15.7427 16.687 15.5188 16.6484 15.482 16.4986C15.4451 16.3473 15.3331 16.4244 15.3331 16.4244L15.1858 16.3874L15.0355 16.6499L14.7379 16.5757C14.7379 16.5757 14.4771 16.3117 14.3652 16.3117C14.2532 16.3117 13.9939 16.1619 13.9173 16.0492C13.8436 15.9365 13.9173 16.0492 13.8804 16.1619C13.8436 16.2746 13.6948 16.0878 13.5813 15.975C13.4694 15.8638 13.4694 15.6754 13.4694 15.6754C13.4694 15.6754 13.2837 15.3002 13.2086 15.189C13.1334 15.0762 12.9493 15.1519 12.8373 15.226C12.7268 15.3002 12.3157 14.8137 12.2052 14.8137C12.0947 14.8137 11.8708 14.4014 11.7573 14.2531C11.6454 14.1018 11.5334 14.2887 11.087 14.4029C10.6391 14.5141 10.7142 14.2145 10.7142 14.2145C10.7142 14.2145 10.2309 13.8408 9.97015 13.6895C9.7079 13.5397 9.52225 13.5397 9.52225 13.5397C9.52225 13.5397 9.15097 13.1645 9.039 13.0888C8.92702 13.0147 8.96386 12.7521 8.96386 12.7521V12.153C8.96386 12.153 9.039 11.8148 8.85188 11.7021C8.66624 11.5894 8.66624 11.5523 8.62793 11.4025C8.5911 11.2527 8.44229 11.2156 8.44229 11.2156C8.44229 11.2156 8.33032 10.7647 8.33032 10.6535C8.33032 10.5422 8.0327 10.5037 7.99439 10.3895C7.95903 10.2782 7.95903 10.127 7.9222 9.86593C7.88389 9.60193 7.73508 9.78881 7.73508 9.78881C7.73508 9.78881 7.73508 9.93861 7.77339 10.2011C7.80875 10.4636 7.77339 10.2011 7.84558 10.4636C7.9222 10.7262 7.84558 10.4636 7.84558 10.652C7.84558 10.8404 7.9222 10.9516 7.9222 10.9516C7.9222 10.9516 8.06953 11.3268 8.06953 11.4381C8.06953 11.5493 8.10784 11.7762 8.10784 11.7762L8.21982 12.1129L7.99439 11.926C7.99439 11.926 7.9222 11.7747 7.73508 11.5137V11.1385C7.73508 10.913 7.54649 10.9516 7.54649 10.9516L7.51113 10.6134L7.39916 10.5022C7.28719 10.3895 7.47283 10.3524 7.47283 10.2382C7.47283 10.124 7.36085 10.0899 7.36085 10.0899L7.28718 9.90153C7.28718 9.90153 7.25035 9.67609 7.39916 9.48921C7.54649 9.30233 7.39916 9.48921 7.25182 9.37797C7.10007 9.26525 7.25182 9.22669 7.25182 9.11546C7.25182 9.00422 7.17668 8.8915 7.17668 8.8915L6.87907 8.51626C6.87907 8.51626 6.99104 8.25375 7.02935 8.14251C7.06618 8.02979 6.95273 7.72871 6.95273 7.72871L6.99252 7.46619L7.06471 7.24075L7.13985 7.05387L7.28866 6.90408L7.4743 6.60448C7.4743 6.60448 7.54797 6.4176 7.73656 6.15508C7.92367 5.89108 7.88389 5.92964 8.03417 5.89108C8.18445 5.85549 8.18445 5.48025 8.18445 5.48025H8.29496C8.40693 5.48025 8.29496 5.18065 8.29496 5.18065V4.99377C8.29496 4.80541 8.29496 4.99377 8.18445 4.73126C8.07101 4.46874 8.18445 4.57998 8.18445 4.57998V4.35602C8.18445 4.35602 8.25812 4.20622 8.40693 4.16914C8.55721 4.13058 8.44376 3.98226 8.44376 3.98226C8.44376 3.98226 8.59257 3.86806 8.66771 3.75683C8.74285 3.64411 8.44376 3.53287 8.44376 3.53287L8.5189 3.30595C8.59257 3.08199 8.5189 3.30595 8.48207 3.15615C8.44376 3.00635 8.48207 3.15615 8.33179 3.15615C8.18151 3.15615 8.25812 2.78239 8.25812 2.78239L8.15941 2.97817L8.14615 3.00635L7.69972 2.93071L7.54944 3.08051C7.40211 3.23031 7.54944 3.08051 7.47577 3.19323C7.40211 3.30446 7.17816 3.23031 7.17816 3.23031H6.65659L6.87759 3.13538L6.91737 3.11759L7.2533 3.08051L7.3638 2.81799V2.44275L7.58775 2.33152L7.88537 2.2188L8.18445 2.069L8.44376 1.95628L8.59257 1.80648L8.44376 1.69376L8.2817 1.65816C3.36955 4.15728 0 9.27267 0 15.1904C0 23.5806 6.75678 30.3839 15.093 30.3839C23.4292 30.3839 30.1845 23.5806 30.1845 15.1904C30.1845 6.80025 23.4263 0 15.093 0ZM15.9932 13.3988C15.896 13.2861 15.924 13.2594 15.84 13.3143C15.756 13.3721 15.7 13.4136 15.7 13.2727C15.7 13.1318 15.868 13.246 15.7 13.1318C15.532 13.0206 15.4481 13.0339 15.4348 12.9494C15.4215 12.8649 15.3921 12.81 15.2816 12.81C15.1711 12.81 15.2123 12.9227 15.0178 12.8382C14.8219 12.7521 14.7792 12.7269 14.6819 12.6824C14.5847 12.6394 14.514 12.5979 14.458 12.6394C14.402 12.6824 14.43 12.6824 14.2753 12.7521C14.1221 12.8233 14.0661 12.8797 14.0248 12.8515C13.9821 12.8233 13.8141 12.7521 13.9128 12.6973C14.0101 12.6409 14.0101 12.6276 14.0808 12.5845C14.15 12.543 14.3607 12.4585 14.4432 12.5C14.5272 12.543 14.6539 12.5297 14.6952 12.4867C14.7379 12.4437 14.8764 12.4006 14.9471 12.4437C15.0178 12.4867 15.1991 12.3873 15.3096 12.5134C15.4215 12.6394 15.6455 12.8367 15.6867 12.8219C15.728 12.8085 15.9652 12.7655 16.0212 12.8367C16.0772 12.9064 15.8532 12.9761 16.0625 13.0325C16.2731 13.0903 16.2997 13.0755 16.3556 13.1037C16.4102 13.1304 16.5649 13.0903 16.5649 13.16C16.5649 13.2297 16.4941 13.3143 16.4941 13.3143C16.4941 13.3143 16.4809 13.2861 16.3556 13.3291C16.2304 13.3721 16.089 13.5115 15.9917 13.3988H15.9932ZM18.6055 13.906C18.6055 13.906 18.4375 13.8601 18.4213 13.8645C18.4124 13.8675 18.3594 13.8378 18.3078 13.8096V13.9046L17.8982 13.7548L17.6006 13.7162C17.6006 13.7162 17.5638 13.7548 17.3782 13.7918C17.1925 13.8289 17.0422 13.7533 17.0422 13.7533C17.0422 13.7533 16.8198 13.6776 16.7078 13.7147C16.5958 13.7533 16.2245 13.7147 16.4838 13.6035L16.7461 13.4908C16.7461 13.4908 16.559 13.4522 16.7829 13.341C17.0054 13.2282 16.6341 13.1912 17.0054 13.2282C17.3782 13.2653 17.6758 13.3024 17.6758 13.3024L17.8629 13.3766C17.8629 13.3766 17.8673 13.3766 17.9218 13.4285C17.9793 13.4789 17.9999 13.5175 18.0043 13.5293C18.0073 13.5397 18.0412 13.6124 18.0485 13.6094C18.0574 13.6064 18.1045 13.642 18.1119 13.6524C18.1163 13.6643 18.1458 13.7399 18.1576 13.731C18.1679 13.7206 18.2047 13.7384 18.2165 13.7488C18.2224 13.7548 18.2651 13.7815 18.3108 13.8052V13.6747C18.3108 13.6747 18.5347 13.6005 18.8692 13.6747C19.2036 13.7503 18.6084 13.9001 18.6084 13.9001L18.6055 13.906Z" fill="#E02129"/>
<path d="M220.125 1.31714H221.051C221.316 1.31714 221.528 1.39575 221.662 1.53368C221.768 1.63898 221.829 1.79027 221.829 1.96083V1.96824C221.829 2.32717 221.581 2.53778 221.244 2.60007L221.907 3.48699H221.608L220.982 2.64456H220.367V3.48699H220.124V1.31862L220.125 1.31714ZM221.03 2.42209C221.353 2.42209 221.584 2.25598 221.584 1.97566V1.96973C221.584 1.70276 221.382 1.54258 221.035 1.54258H220.37V2.42209H221.032H221.03Z" fill="#E02129"/>
<path d="M220.884 4.42114C219.779 4.42114 218.879 3.51454 218.879 2.39985C218.879 1.28515 219.779 0.378555 220.884 0.378555C221.99 0.378555 222.891 1.28382 222.891 2.39985C222.891 3.51587 221.99 4.42114 220.884 4.42114Z" stroke="#E02129" stroke-width="0.22"/>
<path d="M38.2805 37.8337H39.4621L41.4157 43.793L43.3134 37.8575H44.7794L42.0065 45.9214H40.8028L38.8492 40.1682L36.8955 45.9214H35.6918L32.9189 37.8575H34.4306L36.3283 43.793L38.2819 37.8337H38.2805Z" fill="#E02129"/>
<path d="M57.8804 45.8635H56.4026L55.5952 43.9309H51.8338L51.0161 45.8635H49.584L53.0832 37.7996H54.3783L57.8775 45.8635H57.8804ZM53.7108 39.4815L52.348 42.6836H55.0869L53.7123 39.4815H53.7108Z" fill="#E02129"/>
<path d="M66.6628 45.8635H65.2543V39.1611H62.7319V37.8574H69.1852V39.1611H66.6628V45.8635Z" fill="#E02129"/>
<path d="M81.6268 39.127H77.1271V41.1856H81.1155V42.4552H77.1271V44.5939H81.6827V45.8635H75.7407V37.8574H81.6268V39.127Z" fill="#E02129"/>
<path d="M93.5338 45.8635L91.5728 43.0722H89.8181V45.8635H88.4316V37.8574H91.9765C92.4303 37.8574 92.8414 37.9167 93.2097 38.0354C93.5766 38.1541 93.8874 38.3216 94.1409 38.5382C94.3943 38.7562 94.5902 39.0232 94.7258 39.3391C94.8628 39.655 94.9306 40.008 94.9306 40.3966C94.9306 40.7318 94.8834 41.0314 94.7891 41.2939C94.6948 41.5564 94.5637 41.7893 94.3972 41.991C94.2307 42.1927 94.0318 42.3647 93.8005 42.5056C93.5692 42.6465 93.3143 42.7548 93.0329 42.8319L95.181 45.8635H93.5338ZM93.0786 39.4652C92.7898 39.2397 92.3831 39.127 91.8586 39.127H89.8181V41.8263H91.869C92.3699 41.8263 92.7692 41.7032 93.0653 41.4585C93.3615 41.2138 93.5103 40.8845 93.5103 40.4707C93.5103 40.0273 93.3659 39.6921 93.0771 39.4652H93.0786Z" fill="#E02129"/>
<path d="M111.463 40.3627C111.516 40.4769 111.613 40.5836 111.753 40.683C111.893 40.7824 112.088 40.8743 112.334 40.9574C112.58 41.0419 112.893 41.1294 113.274 41.2199C113.691 41.3267 114.062 41.4454 114.385 41.5744C114.707 41.7034 114.975 41.8621 115.187 42.049C115.4 42.2359 115.562 42.4539 115.672 42.7016C115.783 42.9493 115.837 43.2415 115.837 43.5766C115.837 43.9578 115.768 44.2975 115.628 44.5941C115.49 44.8922 115.295 45.1429 115.048 45.349C114.8 45.5552 114.502 45.7109 114.155 45.8177C113.807 45.9245 113.424 45.9779 113.008 45.9779C112.395 45.9779 111.808 45.8726 111.248 45.6634C110.686 45.4543 110.168 45.131 109.69 44.6964L110.532 43.6894C110.918 44.0246 111.308 44.2826 111.702 44.4606C112.095 44.6401 112.543 44.7291 113.042 44.7291C113.474 44.7291 113.817 44.6371 114.071 44.4547C114.324 44.2722 114.451 44.0246 114.451 43.7116C114.451 43.5663 114.426 43.4372 114.377 43.323C114.327 43.2088 114.237 43.1035 114.103 43.0086C113.971 42.9137 113.788 42.8232 113.556 42.7402C113.325 42.6556 113.023 42.5681 112.65 42.4776C112.225 42.3783 111.847 42.2685 111.517 42.1454C111.187 42.0238 110.91 41.871 110.686 41.6886C110.462 41.5062 110.292 41.2852 110.174 41.0256C110.056 40.7661 109.997 40.4502 109.997 40.0764C109.997 39.7264 110.065 39.4075 110.2 39.1213C110.336 38.835 110.521 38.5888 110.759 38.3841C110.996 38.178 111.28 38.0208 111.613 37.9095C111.946 37.7983 112.309 37.7434 112.703 37.7434C113.287 37.7434 113.811 37.8294 114.277 38.0015C114.743 38.1735 115.18 38.4227 115.59 38.7505L114.84 39.8139C114.476 39.5469 114.116 39.3437 113.76 39.2013C113.403 39.0604 113.044 38.9893 112.68 38.9893C112.27 38.9893 111.953 39.0827 111.725 39.2696C111.498 39.4564 111.385 39.6834 111.385 39.9503C111.385 40.1105 111.411 40.2485 111.464 40.3627H111.463Z" fill="#E02129"/>
<path d="M130.22 43.4504C130.015 43.9532 129.728 44.3937 129.357 44.7719C128.985 45.1486 128.546 45.4482 128.038 45.6692C127.53 45.8902 126.97 46.0014 126.357 46.0014C125.744 46.0014 125.183 45.8932 124.676 45.6751C124.169 45.4586 123.733 45.162 123.369 44.7882C123.005 44.4145 122.721 43.9769 122.517 43.4726C122.314 42.9684 122.211 42.4359 122.211 41.8708C122.211 41.3058 122.313 40.7733 122.517 40.269C122.722 39.7663 123.009 39.3258 123.381 38.9476C123.752 38.5708 124.191 38.2712 124.699 38.0502C125.206 37.8293 125.768 37.718 126.381 37.718C126.993 37.718 127.555 37.8263 128.062 38.0443C128.568 38.2609 129.005 38.5575 129.368 38.9312C129.732 39.305 130.017 39.7425 130.22 40.2468C130.425 40.7496 130.527 41.2835 130.527 41.8486C130.527 42.4137 130.425 42.9461 130.22 43.4504ZM128.862 40.7689C128.729 40.4218 128.543 40.1192 128.305 39.8597C128.066 39.6001 127.78 39.394 127.447 39.2427C127.114 39.0899 126.75 39.0143 126.357 39.0143C125.964 39.0143 125.601 39.0884 125.273 39.2368C124.943 39.3851 124.661 39.5883 124.427 39.8434C124.191 40.0985 124.008 40.3996 123.876 40.7466C123.743 41.0937 123.677 41.4615 123.677 41.8501C123.677 42.2387 123.743 42.6065 123.876 42.9535C124.008 43.3006 124.194 43.6032 124.433 43.8627C124.671 44.1223 124.957 44.3284 125.29 44.4797C125.623 44.6325 125.987 44.7081 126.381 44.7081C126.774 44.7081 127.136 44.634 127.465 44.4856C127.795 44.3373 128.076 44.1356 128.311 43.879C128.545 43.6239 128.729 43.3229 128.862 42.9758C128.994 42.6287 129.061 42.2609 129.061 41.8723C129.061 41.4837 128.994 41.1159 128.862 40.7689Z" fill="#E02129"/>
<path d="M137.3 37.8574H138.686V44.5939H142.868V45.8635H137.3V37.8574Z" fill="#E02129"/>
<path d="M155.865 42.3974C155.865 42.9921 155.784 43.5142 155.621 43.965C155.457 44.4144 155.229 44.7897 154.933 45.0922C154.638 45.3933 154.28 45.6188 153.859 45.7671C153.439 45.9154 152.967 45.9896 152.444 45.9896C151.921 45.9896 151.463 45.9154 151.048 45.7671C150.631 45.6188 150.276 45.3948 149.979 45.0982C149.683 44.8015 149.456 44.4337 149.297 43.9947C149.138 43.5557 149.059 43.047 149.059 42.4685V37.8589H150.445V42.4107C150.445 43.1582 150.623 43.7263 150.981 44.1148C151.339 44.5034 151.834 44.6977 152.466 44.6977C153.099 44.6977 153.582 44.5108 153.94 44.1371C154.298 43.7633 154.476 43.2072 154.476 42.4671V37.8574H155.863V42.3974H155.865Z" fill="#E02129"/>
<path d="M166.226 45.8635H164.817V39.1611H162.295V37.8574H168.748V39.1611H166.226V45.8635Z" fill="#E02129"/>
<path d="M176.771 37.8574V45.8635H175.384V37.8574H176.771Z" fill="#E02129"/>
<path d="M191.642 43.4504C191.438 43.9532 191.15 44.3937 190.779 44.7719C190.408 45.1486 189.969 45.4482 189.46 45.6692C188.952 45.8902 188.392 46.0014 187.779 46.0014C187.166 46.0014 186.605 45.8932 186.098 45.6751C185.591 45.4586 185.155 45.162 184.791 44.7882C184.427 44.4145 184.143 43.9769 183.94 43.4726C183.736 42.9684 183.633 42.4359 183.633 41.8708C183.633 41.3058 183.735 40.7733 183.94 40.269C184.145 39.7663 184.432 39.3258 184.803 38.9476C185.174 38.5708 185.613 38.2712 186.122 38.0502C186.629 37.8293 187.19 37.718 187.803 37.718C188.416 37.718 188.977 37.8263 189.484 38.0443C189.991 38.2609 190.427 38.5575 190.791 38.9312C191.155 39.305 191.439 39.7425 191.642 40.2468C191.847 40.7496 191.949 41.2835 191.949 41.8486C191.949 42.4137 191.847 42.9461 191.642 43.4504ZM190.284 40.7689C190.151 40.4218 189.966 40.1192 189.727 39.8597C189.488 39.6001 189.203 39.394 188.87 39.2427C188.537 39.0899 188.173 39.0143 187.779 39.0143C187.386 39.0143 187.023 39.0884 186.695 39.2368C186.365 39.3851 186.083 39.5883 185.849 39.8434C185.613 40.0985 185.431 40.3996 185.298 40.7466C185.166 41.0937 185.099 41.4615 185.099 41.8501C185.099 42.2387 185.166 42.6065 185.298 42.9535C185.431 43.3006 185.616 43.6032 185.855 43.8627C186.094 44.1223 186.38 44.3284 186.713 44.4797C187.046 44.6325 187.409 44.7081 187.803 44.7081C188.196 44.7081 188.559 44.634 188.887 44.4856C189.217 44.3373 189.499 44.1356 189.733 43.879C189.967 43.6239 190.151 43.3229 190.284 42.9758C190.417 42.6287 190.483 42.2609 190.483 41.8723C190.483 41.4837 190.417 41.1159 190.284 40.7689Z" fill="#E02129"/>
<path d="M204.266 37.8574H205.653V45.8635H204.484L200.109 40.1682V45.8635H198.722V37.8574H200.014L204.266 43.3925V37.8574Z" fill="#E02129"/>
<path d="M214.026 40.3627C214.079 40.4769 214.176 40.5836 214.316 40.683C214.456 40.7824 214.651 40.8743 214.897 40.9574C215.144 41.0419 215.456 41.1294 215.837 41.2199C216.254 41.3267 216.625 41.4454 216.947 41.5744C217.27 41.7034 217.538 41.8621 217.75 42.049C217.963 42.2359 218.125 42.4539 218.235 42.7016C218.346 42.9493 218.4 43.2415 218.4 43.5766C218.4 43.9578 218.331 44.2975 218.191 44.5941C218.053 44.8922 217.858 45.1429 217.611 45.349C217.363 45.5552 217.065 45.7109 216.718 45.8177C216.37 45.9245 215.987 45.9779 215.571 45.9779C214.958 45.9779 214.371 45.8726 213.811 45.6634C213.251 45.4543 212.731 45.131 212.255 44.6964L213.096 43.6894C213.482 44.0246 213.873 44.2826 214.266 44.4606C214.659 44.6401 215.107 44.7291 215.607 44.7291C216.038 44.7291 216.382 44.6371 216.635 44.4547C216.889 44.2722 217.015 44.0246 217.015 43.7116C217.015 43.5663 216.99 43.4372 216.942 43.323C216.892 43.2088 216.802 43.1035 216.668 43.0086C216.535 42.9137 216.352 42.8232 216.121 42.7402C215.89 42.6556 215.588 42.5681 215.215 42.4776C214.789 42.3783 214.412 42.2685 214.082 42.1454C213.752 42.0238 213.475 41.871 213.251 41.6886C213.027 41.5062 212.856 41.2852 212.738 41.0256C212.62 40.7661 212.561 40.4502 212.561 40.0764C212.561 39.7264 212.629 39.4075 212.765 39.1213C212.9 38.835 213.086 38.5888 213.323 38.3841C213.56 38.178 213.845 38.0208 214.178 37.9095C214.511 37.7983 214.873 37.7434 215.268 37.7434C215.851 37.7434 216.376 37.8294 216.841 38.0015C217.307 38.1735 217.745 38.4227 218.154 38.7505L217.404 39.8139C217.04 39.5469 216.681 39.3437 216.324 39.2013C215.968 39.0604 215.608 38.9893 215.244 38.9893C214.835 38.9893 214.518 39.0827 214.29 39.2696C214.063 39.4564 213.949 39.6834 213.949 39.9503C213.949 40.1105 213.976 40.2485 214.029 40.3627H214.026Z" fill="#E02129"/>
</g>
<defs>
<clipPath id="clip0_1327_14668">
<rect width="223" height="46" fill="white"/>
</clipPath>
</defs>
</svg>
