<?xml version="1.0" encoding="UTF-8"?>
<svg xmlns="http://www.w3.org/2000/svg" viewBox="0 0 207.75 97.97">
  <title>msd-project-clear-logo</title>
  <path d="M115.7,26.54A5.6,5.6,0,0,1,110.1,21h0c-.37-2.84,3.4-5.82,5.58-11.81,1.51,4.2,3.82,6.91,4.94,9.14a4.87,4.87,0,0,1,.41,1,4,4,0,0,1,.23,1.07,4.44,4.44,0,0,1,0,.63,5.6,5.6,0,0,1-5.6,5.59Zm9-6.9a7.15,7.15,0,0,0-.38-1.78,8.9,8.9,0,0,0-.66-1.56c-.54-1.07-1.26-2.21-2-3.41a42.24,42.24,0,0,1-4.49-8.58L115.64,0l-1.56,4.31a42.75,42.75,0,0,1-4.49,8.58c-1.86,2.93-3.34,5.26-3,7.85a9.13,9.13,0,0,0,18.26-.11,8.22,8.22,0,0,0-.06-1Z" style="fill:#598edc"></path>
  <path d="M119.63,4c1.22,2.4,2.53,4.46,3.74,6.37,1,1.54,1.9,3,2.59,4.38a10.8,10.8,0,0,1,.84,2,9,9,0,0,1,.49,2.29,11.69,11.69,0,0,1-23.23,2.62c0-.4-.07-.81-.07-1.22-.37-3.31,1.52-6.29,3.9-10a73.47,73.47,0,0,0,3.74-6.37,16.12,16.12,0,1,0,8,0Z" style="fill:#3dae2b"></path>
  <path d="M117.35,15.68l-1.58,1.83c.92.79,1.58,3.77.58,5.2l2,1.39c1.71-2.44.9-6.81-1-8.42Z" style="fill:#598edc"></path>
  <path d="M75.37,19.18v.39a7.12,7.12,0,0,1-.48,2.5c-1.44,2.83-3.46,4.2-6.17,4.2h-.45a6.28,6.28,0,0,1-2.88-.7c-2.54-1.45-3.78-3.41-3.78-6v-.38a6.85,6.85,0,0,1,.36-2c1.37-3.12,3.48-4.64,6.44-4.64a6.87,6.87,0,0,1,4,1.19A6.53,6.53,0,0,1,75.37,19.18ZM68.46,8.58h0a14.63,14.63,0,0,0-3.08.48c-5.12,1.89-7.73,5.6-7.73,11V36.87l0,.1c.35,1.55,1.22,1.87,1.88,1.87h.1c1.56-.33,1.88-1.13,1.88-1.74V27.66a10.5,10.5,0,0,0,6.58,2.56h.61A10.89,10.89,0,0,0,73.59,29c3.81-2.3,5.74-5.51,5.74-9.55A10.93,10.93,0,0,0,68.46,8.58Z" style="fill:#001689"></path>
  <path d="M97.62,9.4a11.56,11.56,0,0,0-4.59-1,10.82,10.82,0,0,0-6.75,2.47v-.7c0-.6-.32-1.38-1.83-1.76h-.11c-.66,0-1.8.29-2,2.24V28.44c.3,1.58,1.2,1.91,1.91,1.91h.16c1.62-.27,1.86-1.28,1.86-1.85V19.43a7.69,7.69,0,0,1,.41-2.65c1.33-3,3.36-4.41,6.2-4.41h.45a11.33,11.33,0,0,1,3,.66l.22,0c.6,0,1.64-.24,1.91-1.84v-.16a2.3,2.3,0,0,0-.74-1.55l-.16-.1Z" style="fill:#001689"></path>
  <path d="M137.8,8.47l-.08,0-.08,0c-1.66.26-1.9,1.3-1.9,1.89V28.6l-.16,2.21a5.13,5.13,0,0,1-5.28,3.93c-1.7.25-2.05,1.13-2.05,1.89.24,1.79,1.35,2.06,2.06,2.06h.23A10.73,10.73,0,0,0,134,38c3.73-1.81,5.62-4.72,5.62-8.65v-19c0-.57-.23-1.58-1.8-1.89Z" style="fill:#001689"></path>
  <path d="M137.72,3.34l-.1,0-.1,0c-1.47.37-1.78,1.15-1.78,1.73v.45c0,.57.29,1.34,1.69,1.74l.1,0,.1,0c1.73-.26,2-1.35,2-2s-.33-1.65-1.89-2Z" style="fill:#001689"></path>
  <path d="M160.05,18H146.4a7.73,7.73,0,0,1,.83-2.12,6.55,6.55,0,0,1,5.67-3.38h.84a6.89,6.89,0,0,1,4.6,2.17A8.81,8.81,0,0,1,160.05,18Zm-6.93-9.56a11.77,11.77,0,0,0-5.22,1.38c-3.75,2.35-5.66,5.57-5.66,9.55a11.26,11.26,0,0,0,1.45,5.46c2.34,3.64,5.52,5.48,9.43,5.48h.6c4-.53,5.91-1.5,5.91-3.06v-.22c0-.57-.23-1.55-1.84-1.86h-.56l-.1.05a8.9,8.9,0,0,1-3.87,1.1,8.75,8.75,0,0,1-3.07-.62A7.17,7.17,0,0,1,146.73,22h15.5c.59,0,1.62-.25,1.92-2v-.38a11.12,11.12,0,0,0-1.21-5.12c-2.32-4-5.62-6-9.82-6Z" style="fill:#001689"></path>
  <path d="M176.57,12.44H177a7,7,0,0,1,3.1.76c1.78,1.36,2.38,1.54,2.82,1.54s1.62-.23,1.91-1.83v-.17a2.1,2.1,0,0,0-.29-1l-.09-.11a11,11,0,0,0-18.64,7.78,11.59,11.59,0,0,0,2.35,6.81c2.5,2.74,5.27,4.13,8.22,4.13H177a14.46,14.46,0,0,0,2.62-.34c3.56-1.36,5.21-2.59,5.21-3.88V26c-.28-1.6-1.26-1.84-1.83-1.84h-.25l-.83.18-.08.07a7.61,7.61,0,0,1-4.9,2,8.21,8.21,0,0,1-2.78-.48c-3-1.5-4.43-3.61-4.43-6.47a8.5,8.5,0,0,1,.49-2.64c1.45-3,3.52-4.41,6.33-4.41Z" style="fill:#001689"></path>
  <path d="M200,28.3c-.3-1.49-1.1-1.8-1.73-1.8h-.79l-1.66-.14c-1-.38-1.52-1.39-1.52-3.07V12.74h2.28l1.23.09.09,0a2,2,0,0,0,1.58-1.92l0-.11c-.37-1.54-1.21-1.87-1.9-1.87h0L196.9,9h-2.62V2.69c0-.59-.3-1.35-1.72-1.66h-.38c-.7,0-1.57.35-1.76,2.11V9h-1.34l-.76-.08-.51,0V9c-.53.14-1.15.58-1.36,1.83A2,2,0,0,0,188,12.79l.09,0,1.27-.09h1v11a8,8,0,0,0,.35,2.43c1.24,2.78,3.17,4.18,5.75,4.18h1.57c.59,0,1.62-.24,1.9-1.9V28.3Z" style="fill:#001689"></path>
  <path d="M88.13,38.62A17.45,17.45,0,0,0,65.7,36.73c-5,3.86-7.58,8.71-7.58,14.41a18.77,18.77,0,0,0,3.77,11c4,4.42,8.5,6.66,13.24,6.66h1a23.77,23.77,0,0,0,4.2-.53c5.7-2.18,8.35-4.13,8.35-6.14v-.2c-.39-2.33-1.73-2.82-2.78-2.82h-.4l-1.25.28-.1.08A12.62,12.62,0,0,1,76,62.79,13.17,13.17,0,0,1,71.42,62c-4.93-2.47-7.33-6-7.33-10.72a14.25,14.25,0,0,1,.81-4.38c2.41-4.92,5.85-7.31,10.5-7.31h.74a11.76,11.76,0,0,1,5.16,1.29c2.88,2.2,3.83,2.47,4.33,2.47h.14c1.09,0,2.48-.48,2.91-2.91v-.13a3.15,3.15,0,0,0-.43-1.53l-.11-.14Z" style="fill:#f48120"></path>
  <path d="M100,62.76H98v-40c0-.9-.47-2.08-2.7-2.54h-.61c-1.07,0-2.39.56-2.69,3.28V65.81c.46,2.43,1.85,2.94,2.94,2.94h4.87c1.12,0,2.55-.5,2.94-2.85v-.3c-.49-2.35-1.73-2.84-2.68-2.84Z" style="fill:#f48120"></path>
  <path d="M133,49.12H110.27a12.44,12.44,0,0,1,1.45-3.77c2.49-3.77,5.56-5.61,9.4-5.61h1.36c2.51,0,5.1,1.25,7.65,3.64,1.7,2.3,2.66,4.23,2.85,5.74Zm-11.5-15.57a19.06,19.06,0,0,0-8.39,2.21c-6,3.8-9.12,9-9.12,15.38a18,18,0,0,0,2.32,8.78c3.78,5.86,8.89,8.83,15.19,8.83h.93c6.36-.82,9.45-2.38,9.45-4.77v-.37c0-1-.47-2.37-2.79-2.81h-.86l-.12.06a14.7,14.7,0,0,1-6.38,1.8,14.41,14.41,0,0,1-5.1-1,12,12,0,0,1-5.83-6.55h25.52c1.1,0,2.49-.51,2.92-3V51.4a17.79,17.79,0,0,0-1.94-8.22c-3.73-6.39-9-9.63-15.8-9.63Z" style="fill:#f48120"></path>
  <path d="M159.76,62.79h-1a12.06,12.06,0,0,1-4-.8c-4.82-2.43-7.16-5.92-7.16-10.69v-.36a14.34,14.34,0,0,1,.68-3.85c2.45-5.06,6-7.51,10.83-7.51h.13a11.85,11.85,0,0,1,4.84,1c4.56,2.45,6.77,5.87,6.77,10.46v.5a12.1,12.1,0,0,1-1.38,5.29c-2.6,4-5.8,5.93-9.76,5.93Zm-.47-29.17a18.57,18.57,0,0,0-8,1.94c-6.37,3.79-9.6,9-9.6,15.51a19.39,19.39,0,0,0,2.19,8.76c4,5.92,9,8.92,14.92,8.92h1A17,17,0,0,0,171,64.26l-.08,1.94,0,.35a3,3,0,0,0,2.88,2.2H174c2.34-.4,2.83-1.73,2.83-2.78V51.57a19.71,19.71,0,0,0-1.81-8.24c-3.85-6.44-9.15-9.71-15.77-9.71Z" style="fill:#f48120"></path>
  <path d="M206.59,35.15l-.18-.13A18.79,18.79,0,0,0,199,33.35a17.63,17.63,0,0,0-11.21,4.25V36c0-.9-.49-2.09-2.81-2.67h-.14c-1.23,0-2.76.58-3.05,3.44v29c.46,2.43,1.84,2.94,2.91,2.94H185c2.36-.4,2.86-1.75,2.86-2.81V51.17a12.93,12.93,0,0,1,.68-4.4c2.21-4.91,5.58-7.29,10.29-7.29h.73a18.15,18.15,0,0,1,5,1.07l.3,0c1.12,0,2.52-.49,2.92-2.92v-.13a3.51,3.51,0,0,0-1.15-2.38Z" style="fill:#f48120"></path>
  <path d="M49.57,66.35a1.76,1.76,0,0,1-1.76,1.75H2.21A1.75,1.75,0,0,1,.45,66.35h0V10.55A1.76,1.76,0,0,1,2.2,8.79H47.81a1.75,1.75,0,0,1,1.76,1.75h0Z" style="fill:#fff"></path>
  <path d="M5.78,50.82H3.48C3.56,29,13.42,11.2,25.43,11.2S47.32,29,47.4,50.82h-.52C46.76,29.43,37.58,12,26.32,12S5.9,29.39,5.78,50.82Z" style="fill:#598edc;fill-rule:evenodd"></path>
  <path d="M10.09,50.37H9.68v-.44c0-20.5,7.44-37.15,16.5-37.15S42.7,29.43,42.7,49.93v.44H41v-.3C41,30,34,13.52,25.52,13.52S10.09,30,10.09,50.07v.3Z" style="fill:#598edc;fill-rule:evenodd"></path>
  <path d="M49.11,56.13H1V47.5a5.32,5.32,0,0,0,4-.45c2.45-1.17,4-.71,6-.1a7.41,7.41,0,0,0,5.77.13c3-.91,2.74-1,6.67-.29s4.73.55,7-.22,3.08-1.63,7-.07,4.63.45,5.77.13,2.12-1.62,4.68-.42l.37.16a3.38,3.38,0,0,0,.78.16l0,9.61Z" style="fill:#fff;fill-rule:evenodd"></path>
  <path d="M3.92,56.12h-3V47.51a4.82,4.82,0,0,0,3,0v.88a3.84,3.84,0,0,1-2.22.28l.18.24a2.11,2.11,0,0,0,2,.06V50.7a5.6,5.6,0,0,0-.74.54A5.52,5.52,0,0,1,1.6,52v.09H3.08a5.93,5.93,0,0,0,.84-.49v4.51Zm0-8.66v.88A6.31,6.31,0,0,0,5,47.8c2-1.24,3.88-1,6.46.06a8.22,8.22,0,0,0,4.75.47V47.25c-2.5.64-3.2.31-5.13-.26-2.08-.63-3.62-1.1-6,0a7.16,7.16,0,0,1-1.12.42ZM16.2,56.12H3.92V51.61a2.87,2.87,0,0,0,.64-.51,7.08,7.08,0,0,1,1.69-.86v-.05H4.89a6,6,0,0,0-1,.51V48.92A6.73,6.73,0,0,0,5.6,48a4.06,4.06,0,0,1,4.7-.13c0-.06,3.46,2.55,5.9.83v1.37a6.15,6.15,0,0,0-4.76.22,21.26,21.26,0,0,1-3.5,1.11l.06.18a4.6,4.6,0,0,0,4.43-.85,3.11,3.11,0,0,1,3.77-.16v5.56Zm9.84,0H16.21V50.56a4,4,0,0,0,1.21.49c1,.1,2.89,2.44,7-1.57l-2.79,1.24a5.46,5.46,0,0,1-4.82-.39,6.5,6.5,0,0,0-.66-.27V48.69l.18-.12.76-.53a2.78,2.78,0,0,1-.94.29V47.25c.2,0,.4-.1.61-.17,3.07-.9,2.74-1,6.68-.28,1.05.19,1.85.32,2.55.38v1a8.08,8.08,0,0,1-2.23-.43,7.88,7.88,0,0,0-2.94-.67l-1.2.1a8.7,8.7,0,0,1,3.17.71A8.26,8.26,0,0,0,26.05,49v7.15Zm0-8.94v1A8.69,8.69,0,0,0,30,47.71a.72.72,0,0,1,.19-.11v-1a8.49,8.49,0,0,1-4.14.53Zm4.14,8.94H26V49a6.07,6.07,0,0,0,4.14-.82v1.13a3.68,3.68,0,0,0-2.27-.1l.55.24h0a12.14,12.14,0,0,0,1.72,1.08v5.61Zm0-9.46v.94a8.28,8.28,0,0,1,2.11-.8c.71-.2-1.27.72-1.27.72l-.49.38-.35.26V49.3a2.77,2.77,0,0,1,.46.22l.33.15a4.25,4.25,0,0,0,2.52.9V45.65a14,14,0,0,0-3,.92l-.3.09Zm3.31,9.46H30.18V50.51a7.71,7.71,0,0,0,3.31,1v4.63Zm0-10.48v4.92c2,0,4-1.06,5.36-1.82v-.58a1.84,1.84,0,0,1-.22-.17l.22,0V47c-.4-.11-.83-.27-1.32-.45A8.66,8.66,0,0,0,33.49,45.64Zm5.36,10.48H33.49V51.49a4.23,4.23,0,0,0,2.89-.77l2.47-1.93v7.33Zm0-9.16V48A7.93,7.93,0,0,0,41.92,48v-.78A5.2,5.2,0,0,1,38.85,47Zm3.07,9.16H38.85V48.79l.23-.17-.23.12v-.58a3.6,3.6,0,0,0,3.07.47v5.19a4.65,4.65,0,0,1-3-1l.49.72a2.81,2.81,0,0,0,2.52,1v1.57Zm0-8.95V48A5.26,5.26,0,0,0,43.83,47a3.89,3.89,0,0,1,1.35-.71v-.5c-.75.19-1.31.6-1.89.77s-.85.41-1.37.57Zm3.26,8.95H41.92V54.55a1.93,1.93,0,0,0,.71-.2,8,8,0,0,1,2.24-.9h.06a1.93,1.93,0,0,0-1.38,0h0a5.07,5.07,0,0,1-1.63.36V48.63a5.58,5.58,0,0,0,1.8-.92,7.09,7.09,0,0,1,1.46-.9V50.2a5.55,5.55,0,0,1-1.63-.82h0a2,2,0,0,0-1.36-.29h0a10.76,10.76,0,0,1,2.25,1.53,2.34,2.34,0,0,0,.74.41v5.09Zm4,0h-4V51a2.26,2.26,0,0,0,2.53-.5l.5-.67a3.68,3.68,0,0,1-3,.34V46.82c1.81-.8,2.37.4,2.82.4l.66.06a4.53,4.53,0,0,1-1-.48,2.86,2.86,0,0,0-2.48-.47v-.5a3.94,3.94,0,0,1,2.81.4l.33.14a2.52,2.52,0,0,0,.82.14v9.62Z" style="fill:#598edc;fill-rule:evenodd"></path>
  <path d="M3.45,54.08s2,1,4.7-.91v-.05a2.67,2.67,0,0,1,1.37-.43l0,.06a11.64,11.64,0,0,0-2.25,1.57c-.38.37-2.14,1.26-3.23.3l-.54-.54Z" style="fill:#fff;fill-rule:evenodd"></path>
  <path d="M20.19,53a1.61,1.61,0,0,0-.88.25l-.21.18c-1.32.91-3.24.25-3.94-.12a2.56,2.56,0,0,0-1.27-.3l.33.13s3.17,2.71,5.7.23l.27-.36Z" style="fill:#fff;fill-rule:evenodd"></path>
  <path d="M35.22,52.21C30.14,55.88,27.28,54,27.28,54l-2.66-1.64c2,.8,5.52,2.3,8.1.24l.31-.12a4.08,4.08,0,0,1,2.75-.54l-.55.3Z" style="fill:#fff;fill-rule:evenodd"></path>
  <path d="M32,62.06a19.49,19.49,0,0,0-4.07-1.3,4.88,4.88,0,0,1-1.38-.46.74.74,0,0,1-.25-.58.48.48,0,0,1,.23-.43,1.1,1.1,0,0,1,.66-.16,1,1,0,0,1,.58.12c.11.06.17.23.17.5v.56h4.49V60a1.63,1.63,0,0,0-.44-1.29,4,4,0,0,0-1.75-.63A18.2,18.2,0,0,0,27,57.84a14.47,14.47,0,0,0-2.94.24,4.11,4.11,0,0,0-1.75.63A1.49,1.49,0,0,0,21.75,60a1.34,1.34,0,0,0,.38,1,2.78,2.78,0,0,0,1,.62c.4.14,1.19.38,2.38.71a22,22,0,0,1,2.27.69.88.88,0,0,1,.44.88.5.5,0,0,1-.22.46,1.35,1.35,0,0,1-.73.16,1.29,1.29,0,0,1-.67-.12c-.12-.08-.19-.26-.19-.55V62.9H21.9v.5a1.93,1.93,0,0,0,.42,1.33,3.54,3.54,0,0,0,1.81.77,15.1,15.1,0,0,0,3.29.3,14.71,14.71,0,0,0,3.1-.27,4.19,4.19,0,0,0,1.8-.64,1.53,1.53,0,0,0,.46-1.2A1.79,1.79,0,0,0,32,62.06Z" style="fill:#001689"></path>
  <path d="M12.8,61.57l-.66-1.94c-.21-.63-.4-1.17-.58-1.62H5.3v7.63H9.52v-5l1.77,5h3L16,60.49v5.16h4.23V58h-6.3Z" style="fill:#001689"></path>
  <path d="M45.34,59.24a1.64,1.64,0,0,0-.81-.68,6,6,0,0,0-1.87-.42q-.85-.09-2.76-.12H34.3v7.63h6.1c1.14,0,2,0,2.59-.08a6.51,6.51,0,0,0,1.45-.27,1.44,1.44,0,0,0,.82-.54,2.6,2.6,0,0,0,.23-1.37V60.7A4.46,4.46,0,0,0,45.34,59.24Zm-4.68,4c0,.5-.08.82-.23.94a1.25,1.25,0,0,1-.53.13,6.62,6.62,0,0,1-.77,0v-5a5,5,0,0,1,.77,0,.83.83,0,0,1,.31,0,.49.49,0,0,1,.37.21,1.67,1.67,0,0,1,.08.67Z" style="fill:#001689"></path>
  <path d="M2.58,8.31H25V9.47H2.58a1.51,1.51,0,0,0-1,.37,1.07,1.07,0,0,0-.4.83V66.34a1.07,1.07,0,0,0,.4.83,1.51,1.51,0,0,0,1,.37H25V68.7H2.58A2.63,2.63,0,0,1,.78,68,2.29,2.29,0,0,1,0,66.34V10.67A2.25,2.25,0,0,1,.78,9a2.63,2.63,0,0,1,1.8-.67ZM25,8.31H47.45a2.65,2.65,0,0,1,1.8.67A2.29,2.29,0,0,1,50,10.67V66.34A2.29,2.29,0,0,1,49.25,68a2.65,2.65,0,0,1-1.8.67H25V67.54H47.45a1.55,1.55,0,0,0,1-.37,1.1,1.1,0,0,0,.4-.83V10.67a1.1,1.1,0,0,0-.4-.83,1.6,1.6,0,0,0-1-.37H25V8.31Z" style="fill:#001689"></path>
  <path d="M195.57,64.4a1.78,1.78,0,0,0-.82-.14h-.58v1.39h.61a1.71,1.71,0,0,0,.64-.09.68.68,0,0,0,.34-.91.79.79,0,0,0-.19-.25Zm-.73-.6a3,3,0,0,1,1,.14,1,1,0,0,1,.6,1,.86.86,0,0,1-.38.76,1.37,1.37,0,0,1-.55.18,1,1,0,0,1,.66.38,1.06,1.06,0,0,1,.21.59v.57a1.42,1.42,0,0,0,0,.2l0,0h-.63v-.5a1,1,0,0,0-.36-.88,1.79,1.79,0,0,0-.76-.12h-.53v1.51h-.67V63.81Zm-2.06-.2a3,3,0,0,0,0,4.26,3,3,0,0,0,4.24,0h0a3,3,0,0,0-4.24-4.26Zm4.6,4.6a3.49,3.49,0,1,1,1-2.48A3.36,3.36,0,0,1,197.38,68.2Z" style="fill:#f48120"></path>
  <g style="opacity:0.6000000238418579">
    <path d="M6.89,91.31,5.12,97.77H2.88L0,87.67H2.37L4,93.91l1.73-6.24H8.06l1.67,6.25,1.71-6.25H13.8l-2.88,10.1H8.68Z" style="fill:#3dae2b"></path>
    <path d="M23.67,97.51q-.26.15-.51.27a3,3,0,0,1-.39.14,1.57,1.57,0,0,1-.3,0h-.22a1.64,1.64,0,0,1-.65-.13,1.94,1.94,0,0,1-.52-.34,2.28,2.28,0,0,1-.38-.5,4.11,4.11,0,0,1-.28-.6,8.82,8.82,0,0,1-.84.77,5.62,5.62,0,0,1-.78.48,3.06,3.06,0,0,1-.78.24,4.4,4.4,0,0,1-.8.07,3.48,3.48,0,0,1-1.28-.21,3.13,3.13,0,0,1-1-.6,2.77,2.77,0,0,1-.68-1A2.91,2.91,0,0,1,14,95a1.77,1.77,0,0,1,.27-1,2.51,2.51,0,0,1,.7-.75,4.94,4.94,0,0,1,1-.55c.37-.15.74-.28,1.12-.41l1.13-.35a8.87,8.87,0,0,0,1-.36,2.32,2.32,0,0,0,.69-.42.72.72,0,0,0,.27-.56A.86.86,0,0,0,20,90a1.39,1.39,0,0,0-.41-.35A2.25,2.25,0,0,0,19,89.5a3.08,3.08,0,0,0-.61-.06,2.08,2.08,0,0,0-.6.09,1.68,1.68,0,0,0-.54.26,1.65,1.65,0,0,0-.41.46,1.77,1.77,0,0,0-.22.67H14.21a3.41,3.41,0,0,1,.43-1.52,3.51,3.51,0,0,1,.95-1.08,3.92,3.92,0,0,1,1.3-.63,5.15,5.15,0,0,1,1.46-.21,6.79,6.79,0,0,1,1.56.18,4.12,4.12,0,0,1,1.31.56,2.81,2.81,0,0,1,1.24,2.44v4.9a.55.55,0,0,0,.13.36.43.43,0,0,0,.37.16l.21,0a1.46,1.46,0,0,0,.5-.2Zm-3.56-4.58a2.63,2.63,0,0,1-.6.25c-.25.08-.51.15-.8.22l-.86.25a4.64,4.64,0,0,0-.78.3,2.26,2.26,0,0,0-.57.4.82.82,0,0,0-.22.56,1.18,1.18,0,0,0,.1.52,1,1,0,0,0,.26.36A1.07,1.07,0,0,0,17,96a1.4,1.4,0,0,0,.41.06,2.52,2.52,0,0,0,1.4-.46,4.26,4.26,0,0,0,1.28-1.39Z" style="fill:#3dae2b"></path>
    <path d="M25.9,94.17a2.41,2.41,0,0,0,.16.88,1.67,1.67,0,0,0,.4.59A1.64,1.64,0,0,0,27,96a2.24,2.24,0,0,0,.68.1,3.68,3.68,0,0,0,.66-.06,2.05,2.05,0,0,0,.58-.18,1.12,1.12,0,0,0,.4-.35,1.06,1.06,0,0,0,.15-.55.8.8,0,0,0-.18-.49,2,2,0,0,0-.48-.38,3.14,3.14,0,0,0-.67-.31l-.77-.28L26.16,93A5.74,5.74,0,0,1,25,92.38a3.09,3.09,0,0,1-.83-.86,2.28,2.28,0,0,1-.32-1.22,2.52,2.52,0,0,1,1.07-2.13,3.67,3.67,0,0,1,1.18-.52,6.5,6.5,0,0,1,3.07,0,3.48,3.48,0,0,1,1.22.6,2.77,2.77,0,0,1,.8,1,3.9,3.9,0,0,1,.34,1.47H29.24a1.72,1.72,0,0,0-.2-.63,1.18,1.18,0,0,0-.36-.41,1.5,1.5,0,0,0-.5-.22,2.86,2.86,0,0,0-.58-.06,1.91,1.91,0,0,0-1.05.24.75.75,0,0,0-.37.64.67.67,0,0,0,.18.45,1.92,1.92,0,0,0,.48.37,4.57,4.57,0,0,0,.67.31l.78.29c.4.15.81.3,1.24.48a6.2,6.2,0,0,1,1.14.6,3.4,3.4,0,0,1,.83.82,2,2,0,0,1,.32,1.11,3.07,3.07,0,0,1-.34,1.46,3,3,0,0,1-.93,1,4.17,4.17,0,0,1-1.34.57A6.74,6.74,0,0,1,27.6,98a4.76,4.76,0,0,1-1.54-.23A3.92,3.92,0,0,1,24.78,97a3.48,3.48,0,0,1-.89-1.19,4.15,4.15,0,0,1-.37-1.67Z" style="fill:#3dae2b"></path>
    <path d="M35.77,84.9v2.77h1.86v1.92H35.77v5.5a1.17,1.17,0,0,0,.2.7.64.64,0,0,0,.54.28A3.73,3.73,0,0,0,37,96a4,4,0,0,0,.9-.26v1.84a5.32,5.32,0,0,1-1.17.31c-.3,0-.6,0-.91.06a2.27,2.27,0,0,1-1.64-.72,2.3,2.3,0,0,1-.51-.83,2.83,2.83,0,0,1-.19-1.08V89.59H32V87.67h1.44V84.9Z" style="fill:#3dae2b"></path>
    <path d="M40.53,93.35a4.07,4.07,0,0,0,.26,1,3,3,0,0,0,.51.86,2.38,2.38,0,0,0,.71.59,1.8,1.8,0,0,0,.88.22,2.2,2.2,0,0,0,1.43-.47,3.11,3.11,0,0,0,.91-1.42H47.4a4.89,4.89,0,0,1-.64,1.61,4.59,4.59,0,0,1-1,1.19,4.51,4.51,0,0,1-2.84,1,4.36,4.36,0,0,1-2-.44,4.58,4.58,0,0,1-1.49-1.17,5.22,5.22,0,0,1-.95-1.71,6.53,6.53,0,0,1-.33-2.06,5.86,5.86,0,0,1,.33-1.94A5.13,5.13,0,0,1,39.41,89a4.48,4.48,0,0,1,3.47-1.55,4.66,4.66,0,0,1,1.91.38,4.32,4.32,0,0,1,1.46,1.05,4.75,4.75,0,0,1,.93,1.58,5.86,5.86,0,0,1,.32,2v.92Zm4.58-1.78a2.63,2.63,0,0,0-.24-.86,2.28,2.28,0,0,0-.48-.67,2.13,2.13,0,0,0-.7-.44,2.74,2.74,0,0,0-.9-.15,2,2,0,0,0-.83.17,2.19,2.19,0,0,0-.67.45,2.51,2.51,0,0,0-.49.68,2.7,2.7,0,0,0-.26.82Z" style="fill:#3dae2b"></path>
    <path d="M54.57,91.31l-1.78,6.46H50.55l-2.88-10.1h2.38l1.64,6.24,1.72-6.24h2.32l1.67,6.24,1.71-6.24h2.36l-2.88,10.1H56.36Z" style="fill:#3dae2b"></path>
    <path d="M71.34,97.51a4.11,4.11,0,0,1-.51.27,3.54,3.54,0,0,1-.39.14,1.57,1.57,0,0,1-.3,0h-.21a1.57,1.57,0,0,1-.65-.13,1.8,1.8,0,0,1-.52-.34,2.69,2.69,0,0,1-.39-.5,3.24,3.24,0,0,1-.27-.6,7.87,7.87,0,0,1-.85.77,5.09,5.09,0,0,1-.78.48,3.06,3.06,0,0,1-.78.24,4.25,4.25,0,0,1-.8.07,3.51,3.51,0,0,1-1.28-.21,3.24,3.24,0,0,1-1-.6,2.91,2.91,0,0,1-.68-1A3.08,3.08,0,0,1,61.65,95a1.78,1.78,0,0,1,.27-1,2.75,2.75,0,0,1,.69-.75,4.76,4.76,0,0,1,1-.54c.37-.15.74-.29,1.12-.41l1.12-.36c.34-.1.67-.22,1-.35a2.58,2.58,0,0,0,.69-.43.71.71,0,0,0,.27-.56.86.86,0,0,0-.17-.53,1.23,1.23,0,0,0-.41-.34,1.94,1.94,0,0,0-.57-.2,3.15,3.15,0,0,0-.61-.06,2.08,2.08,0,0,0-.6.09,1.68,1.68,0,0,0-.54.26,1.5,1.5,0,0,0-.41.46,1.82,1.82,0,0,0-.22.67H61.89a3.41,3.41,0,0,1,.43-1.52,3.37,3.37,0,0,1,1-1.07,4,4,0,0,1,1.3-.64A5.15,5.15,0,0,1,66,87.47a6.79,6.79,0,0,1,1.56.18,3.93,3.93,0,0,1,1.31.57,2.79,2.79,0,0,1,1.24,2.43v4.9a.53.53,0,0,0,.13.36.43.43,0,0,0,.37.16l.21,0a1.67,1.67,0,0,0,.5-.19Zm-3.56-4.58a2.63,2.63,0,0,1-.6.25c-.24.08-.51.15-.8.22l-.86.25a4.33,4.33,0,0,0-.78.3,2.26,2.26,0,0,0-.57.4.82.82,0,0,0-.22.56,1.18,1.18,0,0,0,.1.52,1,1,0,0,0,.26.36,1.11,1.11,0,0,0,.37.2,1.52,1.52,0,0,0,.42.06,2.52,2.52,0,0,0,1.4-.46,4.26,4.26,0,0,0,1.28-1.39Z" style="fill:#3dae2b"></path>
    <path d="M74.87,84.9v2.77h1.85v1.92H74.86v5.5a1.17,1.17,0,0,0,.2.7.64.64,0,0,0,.54.28A3.73,3.73,0,0,0,76,96a4,4,0,0,0,.9-.26v1.84a5.32,5.32,0,0,1-1.17.31c-.3,0-.61,0-.91.06a2.27,2.27,0,0,1-1.64-.72,2.48,2.48,0,0,1-.52-.83,3,3,0,0,1-.18-1.08V89.59H71.08V87.67h1.44V84.9Z" style="fill:#3dae2b"></path>
    <path d="M79.62,93.35a4.17,4.17,0,0,0,.26,1,3.55,3.55,0,0,0,.51.86,2.51,2.51,0,0,0,.71.59,1.8,1.8,0,0,0,.88.22,2.16,2.16,0,0,0,1.43-.47,3.11,3.11,0,0,0,.91-1.42h2.17a5.12,5.12,0,0,1-.64,1.61,4.78,4.78,0,0,1-1,1.19A4.53,4.53,0,0,1,82,98a4.3,4.3,0,0,1-2-.44,4.58,4.58,0,0,1-1.49-1.17,5.22,5.22,0,0,1-1-1.71,6,6,0,0,1-.33-2.06,5.61,5.61,0,0,1,.33-1.94,5,5,0,0,1,1-1.63A4.48,4.48,0,0,1,82,87.47a4.61,4.61,0,0,1,1.9.38,4.13,4.13,0,0,1,1.46,1.05,4.58,4.58,0,0,1,.93,1.58,5.62,5.62,0,0,1,.32,2v.92Zm4.58-1.78a2.63,2.63,0,0,0-.24-.86,2.28,2.28,0,0,0-.48-.67,2.07,2.07,0,0,0-.71-.44,2.68,2.68,0,0,0-.89-.15,2,2,0,0,0-.83.17,2.37,2.37,0,0,0-.68.45,2.47,2.47,0,0,0-.48.68,3,3,0,0,0-.27.82Z" style="fill:#3dae2b"></path>
    <path d="M87.77,87.68h1.74l.38,1.24a4.1,4.1,0,0,1,1-1.08,1.76,1.76,0,0,1,1.08-.36,3.68,3.68,0,0,1,.58.07,3.56,3.56,0,0,1,1,.38v2c-.24-.09-.45-.17-.63-.22l-.44-.11a1.09,1.09,0,0,0-.26,0H92a1.75,1.75,0,0,0-.78.18,1.86,1.86,0,0,0-.59.49,2.35,2.35,0,0,0-.37.7,2.93,2.93,0,0,0-.13.83v6H87.77Z" style="fill:#3dae2b"></path>
  </g>
  <path d="M97.78,91H102V86.89h2V91h4.22v1.76H104V96.8h-2V92.72H97.78Z" style="fill:#f48120;opacity:0.6000000238418579;isolation:isolate"></path>
  <g style="opacity:0.699999988079071">
    <path d="M115.5,94.17a2.41,2.41,0,0,0,.16.88,1.81,1.81,0,0,0,.4.59,1.68,1.68,0,0,0,.57.32,2.18,2.18,0,0,0,.67.1A3.68,3.68,0,0,0,118,96a2,2,0,0,0,.58-.18,1,1,0,0,0,.4-.35,1,1,0,0,0,.15-.55.74.74,0,0,0-.18-.49,2.12,2.12,0,0,0-.47-.38,3.67,3.67,0,0,0-.67-.31l-.78-.28c-.4-.14-.81-.29-1.23-.46a5.4,5.4,0,0,1-1.13-.62,3,3,0,0,1-.83-.86,2.2,2.2,0,0,1-.33-1.22,2.53,2.53,0,0,1,1.08-2.13,3.52,3.52,0,0,1,1.17-.52,6.5,6.5,0,0,1,3.07,0,3.61,3.61,0,0,1,1.23.6,3,3,0,0,1,.8,1,3.89,3.89,0,0,1,.33,1.47h-2.31a1.72,1.72,0,0,0-.2-.63,1.29,1.29,0,0,0-.36-.41,1.5,1.5,0,0,0-.5-.22,2.88,2.88,0,0,0-.59-.06,1.91,1.91,0,0,0-1,.25.75.75,0,0,0-.36.64.66.66,0,0,0,.18.45,2,2,0,0,0,.47.36,4.49,4.49,0,0,0,.67.31l.79.3c.4.14.81.3,1.23.47a6.25,6.25,0,0,1,1.14.61,3,3,0,0,1,.83.82,1.86,1.86,0,0,1,.32,1.1,2.89,2.89,0,0,1-.34,1.47,2.94,2.94,0,0,1-.92,1,4.36,4.36,0,0,1-1.35.57,7.29,7.29,0,0,1-1.61.18,4.94,4.94,0,0,1-1.53-.24,3.66,3.66,0,0,1-1.28-.71,3.32,3.32,0,0,1-.89-1.18,4,4,0,0,1-.37-1.67Z" style="fill:#598edc"></path>
    <path d="M125.38,84.9v2.77h1.85v1.92h-1.85v5.5a1.16,1.16,0,0,0,.19.7.65.65,0,0,0,.54.28,3.73,3.73,0,0,0,.44,0,4,4,0,0,0,.9-.26v1.84a5.18,5.18,0,0,1-1.17.31c-.3,0-.6,0-.91.06a2.13,2.13,0,0,1-.89-.19,2.18,2.18,0,0,1-.75-.53,2.45,2.45,0,0,1-.51-.83,2.83,2.83,0,0,1-.19-1.08V89.59h-1.44V87.67H123V84.9Z" style="fill:#598edc"></path>
    <path d="M127.69,92.75a6.36,6.36,0,0,1,.32-2,5,5,0,0,1,.92-1.68,4.53,4.53,0,0,1,1.5-1.14,5.18,5.18,0,0,1,4,0A4.53,4.53,0,0,1,136,89a5,5,0,0,1,.93,1.68,6.62,6.62,0,0,1,0,4.06,5.08,5.08,0,0,1-.93,1.67,4.44,4.44,0,0,1-1.5,1.12,5.18,5.18,0,0,1-4.05,0,4.44,4.44,0,0,1-1.5-1.12,5.08,5.08,0,0,1-.93-1.67A6.61,6.61,0,0,1,127.69,92.75Zm2.35,0A4.61,4.61,0,0,0,130.2,94a3.67,3.67,0,0,0,.49,1,2.33,2.33,0,0,0,.76.7,2.13,2.13,0,0,0,2,0,2.47,2.47,0,0,0,.77-.7,3.2,3.2,0,0,0,.49-1,4.87,4.87,0,0,0,0-2.55,3.25,3.25,0,0,0-.49-1,2.38,2.38,0,0,0-.77-.71,2.05,2.05,0,0,0-2,0,2.35,2.35,0,0,0-.76.71,3.47,3.47,0,0,0-.49,1A4.59,4.59,0,0,0,130,92.75Z" style="fill:#598edc"></path>
    <path d="M138.4,87.68h1.74l.39,1.24a3.93,3.93,0,0,1,.95-1.08,1.73,1.73,0,0,1,1.07-.36,3.68,3.68,0,0,1,.58.07,3.44,3.44,0,0,1,1,.38v2c-.24-.09-.45-.17-.63-.22l-.44-.11a1.09,1.09,0,0,0-.26,0h-.14a1.75,1.75,0,0,0-.78.18,1.86,1.86,0,0,0-.59.49,2.35,2.35,0,0,0-.37.7,2.92,2.92,0,0,0-.12.83v6H138.4Z" style="fill:#598edc"></path>
    <path d="M144.77,87.68h2.34v1.08a3.85,3.85,0,0,1,1.24-1,2.94,2.94,0,0,1,1.24-.3,3.82,3.82,0,0,1,.68.07,1.9,1.9,0,0,1,.64.27,2.85,2.85,0,0,1,.61.54,5.59,5.59,0,0,1,.6.92,5,5,0,0,1,.74-.86,3.85,3.85,0,0,1,.78-.56,3.12,3.12,0,0,1,.79-.29,3.69,3.69,0,0,1,2.15.19,3.1,3.1,0,0,1,1.07.75,3.21,3.21,0,0,1,.68,1.12,4.06,4.06,0,0,1,.24,1.39v6.77h-2.35V91.11a2.16,2.16,0,0,0-.12-.8,1.52,1.52,0,0,0-.32-.51,1.16,1.16,0,0,0-.44-.27,1.57,1.57,0,0,0-1.2.09,2.26,2.26,0,0,0-.63.47,2.36,2.36,0,0,0-.46.7,2.32,2.32,0,0,0-.17.87v6.12h-2.35V91.11a2.16,2.16,0,0,0-.12-.8,1.66,1.66,0,0,0-.31-.51,1.17,1.17,0,0,0-.42-.27,1.21,1.21,0,0,0-.43-.07,1.58,1.58,0,0,0-.84.22,2.42,2.42,0,0,0-.68.56,3,3,0,0,0-.46.74,2,2,0,0,0-.16.77v6h-2.34Z" style="fill:#598edc"></path>
    <path d="M166.44,91.31l-1.78,6.46h-2.24l-2.88-10.1h2.37l1.64,6.24,1.73-6.24h2.32l1.67,6.24L171,87.67h2.36l-2.88,10.1h-2.24Z" style="fill:#598edc"></path>
    <path d="M183.21,97.51a4.11,4.11,0,0,1-.51.27l-.39.14a1.57,1.57,0,0,1-.3,0h-.22a1.64,1.64,0,0,1-.65-.13,1.75,1.75,0,0,1-.51-.34,2.05,2.05,0,0,1-.39-.5,4.11,4.11,0,0,1-.28-.6,8.82,8.82,0,0,1-.84.77,5.62,5.62,0,0,1-.78.48,3.06,3.06,0,0,1-.78.24,4.25,4.25,0,0,1-.8.07,3.51,3.51,0,0,1-1.28-.21,3.09,3.09,0,0,1-1-.6,2.8,2.8,0,0,1-.69-1,3.08,3.08,0,0,1-.25-1.23,1.78,1.78,0,0,1,.27-1,2.6,2.6,0,0,1,.69-.75,5,5,0,0,1,1-.54c.37-.15.75-.29,1.13-.41l1.12-.36c.33-.1.66-.22,1-.35a2.64,2.64,0,0,0,.7-.43.7.7,0,0,0,.26-.56.85.85,0,0,0-.16-.53,1.26,1.26,0,0,0-.42-.34,2,2,0,0,0-.56-.2,3.26,3.26,0,0,0-.62-.06,2,2,0,0,0-.59.09,1.5,1.5,0,0,0-.54.26,1.67,1.67,0,0,0-.42.46,1.81,1.81,0,0,0-.21.67h-2.38a3.54,3.54,0,0,1,.43-1.52,3.37,3.37,0,0,1,.95-1.07,4,4,0,0,1,1.3-.64,5.22,5.22,0,0,1,1.47-.21,6.77,6.77,0,0,1,1.55.18,3.93,3.93,0,0,1,1.31.57A2.77,2.77,0,0,1,182,90.65v4.9a.59.59,0,0,0,.13.36.44.44,0,0,0,.37.16l.22,0a1.91,1.91,0,0,0,.5-.19Zm-3.56-4.58a2.63,2.63,0,0,1-.6.25c-.25.08-.51.15-.8.22l-.86.25a5,5,0,0,0-.78.3,2.26,2.26,0,0,0-.57.4.82.82,0,0,0-.22.56,1.18,1.18,0,0,0,.1.52,1,1,0,0,0,.26.36,1.11,1.11,0,0,0,.37.2,1.52,1.52,0,0,0,.42.06,2.52,2.52,0,0,0,1.4-.46,4.26,4.26,0,0,0,1.28-1.39Z" style="fill:#598edc"></path>
    <path d="M186.73,84.9v2.77h1.86v1.92h-1.86v5.5a1.23,1.23,0,0,0,.19.7.67.67,0,0,0,.55.28l.43,0a3.88,3.88,0,0,0,.9-.26v1.84a5.09,5.09,0,0,1-1.16.31c-.3,0-.61,0-.91.06a2.17,2.17,0,0,1-.9-.19,2.28,2.28,0,0,1-.75-.53,2.62,2.62,0,0,1-.51-.83,3,3,0,0,1-.19-1.08V89.59H183V87.67h1.44V84.9Z" style="fill:#598edc"></path>
    <path d="M191.49,93.35a3.78,3.78,0,0,0,.26,1,3.22,3.22,0,0,0,.5.86,2.42,2.42,0,0,0,.72.59,1.79,1.79,0,0,0,.87.22,2.21,2.21,0,0,0,1.44-.47,3.19,3.19,0,0,0,.91-1.42h2.16a4.89,4.89,0,0,1-.64,1.61A4.59,4.59,0,0,1,196.66,97a4.49,4.49,0,0,1-2.84,1,4.29,4.29,0,0,1-2-.44,4.52,4.52,0,0,1-1.5-1.17,5,5,0,0,1-.94-1.71,6.27,6.27,0,0,1-.34-2.06,5.62,5.62,0,0,1,.34-1.94,5.1,5.1,0,0,1,.94-1.63,4.48,4.48,0,0,1,3.47-1.55,4.62,4.62,0,0,1,1.91.38,4.32,4.32,0,0,1,1.46,1.05,4.58,4.58,0,0,1,.93,1.58,5.62,5.62,0,0,1,.32,2v.92Zm4.58-1.78a3.24,3.24,0,0,0-.24-.86,2.2,2.2,0,0,0-1.19-1.11,2.74,2.74,0,0,0-.9-.15,2,2,0,0,0-.82.17,2.24,2.24,0,0,0-.68.45,2.74,2.74,0,0,0-.49.68,2.7,2.7,0,0,0-.26.82Z" style="fill:#598edc"></path>
    <path d="M199.63,87.68h1.74l.39,1.24a3.93,3.93,0,0,1,1-1.08,1.76,1.76,0,0,1,1.08-.36,3.83,3.83,0,0,1,.58.07,3.7,3.7,0,0,1,.95.38v2l-.63-.22-.44-.11a1.26,1.26,0,0,0-.27,0h-.13a1.82,1.82,0,0,0-.79.18,1.94,1.94,0,0,0-.58.49,2.14,2.14,0,0,0-.37.7,2.62,2.62,0,0,0-.13.83v6h-2.34Z" style="fill:#598edc"></path>
  </g>
</svg>
