<svg xmlns="http://www.w3.org/2000/svg" id="Design" viewBox="0 0 232.42 41.55"><defs><style>.cls-1{fill:#fa0;}.cls-2{fill:#555;}</style></defs><path class="cls-1" d="M81.28,5.5a8.47,8.47,0,0,1-2.6-2.41,4,4,0,0,0-3.15-1.61l.3-1.34A.12.12,0,0,0,75.75,0a.11.11,0,0,0-.1,0C72.66,2.69,67,3.59,67,3.59c-5.31.67-10.29-1.23-15.65-1.85a26.71,26.71,0,0,0-8.42.07C33.81,3.49,19.9,13.08,10.82,12,6.71,11.45,2.43,8.71.25,7A1.06,1.06,0,0,0,.38,8.5a22.61,22.61,0,0,0,9.85,4.62c8.68,1.43,21.92-4.54,21.92-4.54,1.34-.58,4.72-1.67,7.29.49,0,0,5.42,4.33.41,10.94a.41.41,0,0,0,0,.34.36.36,0,0,0,.27.23,39,39,0,0,1,6.17,1.76l-8.79,4a1,1,0,0,0,1.35.51A76.33,76.33,0,0,1,49,23.54a20.07,20.07,0,0,1,4.09,2.63.69.69,0,0,0,0-1,30.19,30.19,0,0,0-3.14-2.61c12.3-13.37,23.59-13.95,28-14.14a3.55,3.55,0,0,0,3.44-2.75A.13.13,0,0,0,81.28,5.5ZM47.88,21.09c-1.59-1.05-2.81-1.75-2.81-1.75a7.74,7.74,0,0,0,4.54-4.95Z"></path><path class="cls-2" d="M94.33,35.57H95.4v3.85a2.05,2.05,0,0,1-.3,1.11,2.08,2.08,0,0,1-.83.75,3.08,3.08,0,0,1-2.52,0,2,2,0,0,1-.83-.75,2.05,2.05,0,0,1-.3-1.11V35.57h1.07v3.76a1.28,1.28,0,0,0,.16.65,1.17,1.17,0,0,0,.46.45,1.61,1.61,0,0,0,1.4,0,1.17,1.17,0,0,0,.46-.45,1.28,1.28,0,0,0,.16-.65Z"></path><path class="cls-2" d="M108,35.57v5.89h-.94l-2.78-4h0v4H103.2V35.57h1l2.77,4h0v-4Z"></path><path class="cls-2" d="M117.74,41.46h-2V35.57h2a3.09,3.09,0,0,1,1.51.35,2.42,2.42,0,0,1,1,1,3.84,3.84,0,0,1,0,3.16,2.39,2.39,0,0,1-1,1A3.1,3.1,0,0,1,117.74,41.46Zm-.93-.93h.88a2.15,2.15,0,0,0,1-.22,1.4,1.4,0,0,0,.61-.68,2.63,2.63,0,0,0,.21-1.12,2.6,2.6,0,0,0-.21-1.12,1.33,1.33,0,0,0-.61-.67,2,2,0,0,0-1-.23h-.91Z"></path><path class="cls-2" d="M128.25,41.46V35.57h3.83v.89h-2.77v1.6h2.57V39h-2.57v1.6h2.79v.9Z"></path><path class="cls-2" d="M139.88,41.46V35.57h2.21a2.46,2.46,0,0,1,1.14.24,1.55,1.55,0,0,1,.7.66,2,2,0,0,1,.23,1,1.9,1.9,0,0,1-.24,1,1.64,1.64,0,0,1-.7.65,2.61,2.61,0,0,1-1.14.22H140.5v-.88h1.43a1.69,1.69,0,0,0,.65-.11A.88.88,0,0,0,143,38a1.07,1.07,0,0,0,.12-.53,1,1,0,0,0-.13-.53.77.77,0,0,0-.37-.34,1.54,1.54,0,0,0-.65-.12h-1v5Zm3-2.67,1.46,2.67h-1.19l-1.43-2.67Z"></path><path class="cls-2" d="M153,41.46l-1.66-5.89h1.15l1.06,4.33h.05l1.14-4.33h1l1.13,4.33H157L158,35.57h1.14l-1.66,5.89h-1.05l-1.18-4.13h0L154,41.46Z"></path><path class="cls-2" d="M166.12,41.46V35.57h2.21a2.46,2.46,0,0,1,1.14.24,1.55,1.55,0,0,1,.7.66,2,2,0,0,1,.24,1,1.9,1.9,0,0,1-.24,1,1.66,1.66,0,0,1-.71.65,2.61,2.61,0,0,1-1.14.22h-1.58v-.88h1.43a1.69,1.69,0,0,0,.65-.11.83.83,0,0,0,.38-.33,1.07,1.07,0,0,0,.12-.53,1.09,1.09,0,0,0-.12-.53.84.84,0,0,0-.38-.34,1.54,1.54,0,0,0-.65-.12h-1v5Zm3-2.67,1.46,2.67h-1.19L168,38.79Z"></path><path class="cls-2" d="M179.05,35.57v5.89H178V35.57Z"></path><path class="cls-2" d="M186.35,36.46v-.89H191v.89h-1.82v5h-1.06v-5Z"></path><path class="cls-2" d="M198.3,41.46V35.57h3.83v.89h-2.77v1.6h2.57V39h-2.57v1.6h2.79v.9Z"></path><path class="cls-2" d="M209.53,41.46V35.57h2.21a2.39,2.39,0,0,1,1.13.24,1.5,1.5,0,0,1,.7.66,2,2,0,0,1,.24,1,1.9,1.9,0,0,1-.24,1,1.61,1.61,0,0,1-.71.65,2.61,2.61,0,0,1-1.14.22h-1.57v-.88h1.43a1.73,1.73,0,0,0,.65-.11.8.8,0,0,0,.37-.33,1.07,1.07,0,0,0,.12-.53,1.09,1.09,0,0,0-.12-.53.79.79,0,0,0-.38-.34,1.51,1.51,0,0,0-.65-.12h-1v5Zm3-2.67L214,41.46h-1.19l-1.44-2.67Z"></path><path class="cls-2" d="M224.14,37.19a.79.79,0,0,0-.33-.59,1.33,1.33,0,0,0-.78-.21,1.61,1.61,0,0,0-.57.1.8.8,0,0,0-.36.28.59.59,0,0,0-.13.39.66.66,0,0,0,.08.32.84.84,0,0,0,.23.23,1.66,1.66,0,0,0,.33.15A2.47,2.47,0,0,0,223,38l.55.14a3.43,3.43,0,0,1,.64.21,2.58,2.58,0,0,1,.56.33,1.69,1.69,0,0,1,.39.49,1.53,1.53,0,0,1,.14.66,1.62,1.62,0,0,1-.26.91,1.77,1.77,0,0,1-.77.62,3.36,3.36,0,0,1-2.39,0,1.76,1.76,0,0,1-.79-.62,1.84,1.84,0,0,1-.31-1h1.05a1,1,0,0,0,.19.51.92.92,0,0,0,.44.3,1.61,1.61,0,0,0,.6.1,1.66,1.66,0,0,0,.61-.1,1,1,0,0,0,.41-.29.71.71,0,0,0,.15-.44.58.58,0,0,0-.13-.39,1,1,0,0,0-.37-.25,3.23,3.23,0,0,0-.55-.18l-.67-.17a2.76,2.76,0,0,1-1.15-.57,1.29,1.29,0,0,1-.42-1,1.54,1.54,0,0,1,.28-.92,1.85,1.85,0,0,1,.77-.6,2.65,2.65,0,0,1,1.11-.22,2.54,2.54,0,0,1,1.1.22,1.76,1.76,0,0,1,.74.6,1.56,1.56,0,0,1,.28.88Z"></path><path class="cls-2" d="M229.68,12.05V27.18H229L215.51,13.83V25.36L218.59,27h-7l2.7-1.62V12.55l-2.33-2.15h4.28l12.22,12.39V12.05l-2.78-1.65h6.78Z"></path><path class="cls-2" d="M182.64,10.4,179.9,12V25.36L182.64,27h-8.48l2.74-1.64V10.41Z"></path><path class="cls-2" d="M129.45,10.4,126.71,12V25.36L129.45,27H121l2.74-1.64V10.41Z"></path><path class="cls-2" d="M111.68,25.3l2.86,1.7h-9l2.86-1.7L107,6.26,98.47,27h-.71L89.34,6.28l-1.68,19L90.51,27H83.42l2.85-1.7L88.2,3.6,84.85,2.09h6.3l8,19.61,8.08-19.61h6.22L110.06,3.6Z"></path><path class="cls-2" d="M197.55,27.39A8.7,8.7,0,1,1,197.43,10a8.7,8.7,0,1,1,.12,17.39Zm0-16.6c-4,0-5.75,3.65-5.75,8,0,4.78,2.23,7.82,5.75,7.82,2.58,0,5.83-1.82,5.83-7.91C203.42,12.4,200,10.79,197.59,10.79Z"></path><path class="cls-2" d="M144.19,17.13c-3.66-2.13-4.39-2.56-4.39-4a2.65,2.65,0,0,1,2.91-2.44,4.66,4.66,0,0,1,4.67,3.76h.11V10.22l-1.39.83A6,6,0,0,0,142.53,10a4.46,4.46,0,0,0-4.82,4.39c0,2.44,1.95,3.74,3.74,4.79,3.17,1.82,4.47,2.61,4.47,4.52a3,3,0,0,1-3.17,2.91c-2.54,0-4.43-2-5.07-4.41h-.15V27l1.58-.93a5.55,5.55,0,0,0,3.73,1.32,5.1,5.1,0,0,0,5.43-4.78C148.27,20.74,147.23,18.92,144.19,17.13Z"></path><path class="cls-2" d="M162.79,17.13c-3.65-2.13-4.39-2.56-4.39-4a2.65,2.65,0,0,1,2.91-2.44A4.66,4.66,0,0,1,166,14.46h.12V10.22l-1.39.83A6,6,0,0,0,161.14,10a4.47,4.47,0,0,0-4.83,4.39c0,2.44,2,3.74,3.74,4.79,3.18,1.82,4.48,2.61,4.48,4.52a3,3,0,0,1-3.17,2.91c-2.55,0-4.44-2-5.08-4.41h-.14V27l1.58-.93a5.52,5.52,0,0,0,3.72,1.32,5.11,5.11,0,0,0,5.44-4.78C166.88,20.74,165.83,18.92,162.79,17.13Z"></path></svg>