<?xml version="1.0" encoding="UTF-8"?> <svg xmlns="http://www.w3.org/2000/svg" xmlns:xlink="http://www.w3.org/1999/xlink" width="122px" height="67px" viewBox="0 0 122 67"><g id="Page-1" stroke="none" stroke-width="1" fill="none" fill-rule="evenodd"><g id="Desktop-Contact" transform="translate(-160.000000, -31.000000)"><g id="Group-2" transform="translate(160.000000, 31.000000)"><polygon id="Fill-1" fill="#111736" points="64.3741448 0 60.5676436 6.54622255 56.7778153 0.00756748968 34.6295385 0.00756748968 16.2666667 48.2011255 42.5657888 48.2073171 48.0157512 39.0406792 51.453069 48.2062851 69.7073975 48.2066291 73.1365491 39.0375834 78.5742621 48.2045653 104.92 48.2018134 86.5149358 0.00137590721"></polygon><polygon id="Path" fill="#CB0026" points="60.360953 10.7386754 58.9806888 15.7290628 49.0017558 13.3235332 51.1109315 16.7062051 56.6445234 19.0183285 52.8000267 22.3239182 52.7834934 25.565158 60.9873807 21.2155167 69.205102 25.5424462 69.205102 22.3266711 65.328551 19.0241785 70.9684283 16.7062051 72.9959498 13.3249097 62.8888078 15.7272522 61.595143 10.7252733 66.3615106 2.45121951 84.7779116 2.45431657 100.853333 44.9390244 80.4259441 44.9314538 72.8614566 32.0659446 68.09312 44.9390244 53.8808991 44.9335185 49.1037898 32.0841828 41.5308669 44.9342067 21.1466667 44.9390244 37.1873347 2.45775774 55.6037357 2.45775774"></polygon><polygon id="Fill-8" fill="#FEFEFE" points="58.55427 13.5956387 49.6133333 13.5956387 56.8053529 16.3969168 53.3446661 22.0609756 61.3698508 18.1338776 69.4686672 22.0609756 66.0083121 16.3969168 73.2 13.5956387 64.2590633 13.5956387 61.3804644 8.98780488"></polygon><path d="M8.94802719,54.1394687 L12.782896,54.1394687 L12.782896,66.7869486 L9.89352772,66.7869486 L9.89352772,58.7338397 L9.85828325,58.7338397 L7.47690971,65.0845287 L5.32326962,65.0845287 L2.92427385,58.7516913 L2.88902938,58.7516913 L2.88902938,66.7869486 L0,66.7869486 L0,54.1394687 L3.88705772,54.1394687 L6.42669246,60.6672999 L6.46125915,60.6672999 L8.94802719,54.1394687 Z M19.9444694,67 C19.2439857,67 18.5726464,66.9110855 17.9307905,66.7339432 C17.2885957,66.5564576 16.7192621,66.2814751 16.2234673,65.9089957 C15.7269948,65.5365162 15.3332057,65.0572707 15.0414222,64.4719459 C14.7492999,63.886621 14.6035776,63.186291 14.6035776,62.3699259 L14.6035776,58.7161942 C14.6035776,57.9121878 14.7523499,57.2115145 15.0502334,56.6141742 C15.3481169,56.0171771 15.741906,55.5173337 16.2322785,55.1153305 C16.7223121,54.7133274 17.2855457,54.4146572 17.9219794,54.2196633 C18.5580742,54.0243262 19.2090801,53.9268293 19.8743194,53.9268293 C20.5748031,53.9268293 21.2458035,54.0219231 21.8879983,54.2103943 C22.5298542,54.3998953 23.0991878,54.6927294 23.5953214,55.0885532 C24.0914551,55.4850636 24.4882942,55.9818173 24.7861777,56.5788144 C25.0837223,57.1758114 25.2324946,57.8823208 25.2324946,58.6983426 L25.2324946,62.2109784 C25.2324946,63.0386724 25.0806723,63.7541076 24.7773665,64.3569407 C24.4737219,64.9601171 24.0707828,65.4568708 23.569227,65.8468585 C23.0669934,66.2375328 22.5007097,66.5272772 21.8707149,66.7160917 C21.2400424,66.9049062 20.5981864,67 19.9444694,67 Z M19.9444694,64.3923005 C20.2247307,64.3923005 20.4931308,64.3511046 20.7500088,64.2683695 C21.0065478,64.1856345 21.2342812,64.0613602 21.4328702,63.8958901 C21.6311204,63.7300766 21.7917538,63.5141416 21.9140927,63.2484281 C22.0371095,62.9823713 22.0981095,62.6716857 22.0981095,62.3170578 L22.0981095,58.5740684 C22.0981095,58.2434714 22.0371095,57.9506373 21.9140927,57.6962527 C21.7917538,57.4422114 21.6311204,57.225933 21.4328702,57.0487907 C21.2342812,56.8713051 21.0007867,56.7384484 20.7323865,56.649534 C20.4636475,56.5609628 20.1837251,56.5166772 19.8919416,56.5166772 C19.6116803,56.5166772 19.3429413,56.5551267 19.0864023,56.6320257 C18.8295243,56.7089247 18.5987409,56.8331989 18.3947297,57.0041619 C18.1903796,57.1758114 18.0297461,57.3917465 17.9131683,57.6519671 C17.7962516,57.9121878 17.7379626,58.2252765 17.7379626,58.5919199 L17.7379626,62.298863 C17.7379626,62.9731023 17.9453627,63.4911405 18.3598241,63.8516045 C18.7739465,64.2124118 19.3022746,64.3923005 19.9444694,64.3923005 Z M27.0535489,54.139606 L30.0828784,54.139606 L34.8459644,61.2881219 L34.8808699,61.2881219 L34.8808699,54.139606 L37.7702382,54.139606 L37.7702382,66.7870859 L34.8632477,66.7870859 L29.9778228,59.3546617 L29.9425783,59.3546617 L29.9425783,66.7870859 L27.0535489,66.7870859 L27.0535489,54.139606 Z M45.0019278,66.999897 C44.2079107,66.999897 43.4928547,66.9051465 42.8567599,66.7159887 C42.2203262,66.5271742 41.6808148,66.2374298 41.237209,65.8470988 C40.7936032,65.4567678 40.452003,64.9661935 40.2127473,64.3750326 C39.9734917,63.7838716 39.8538638,63.0917807 39.8538638,62.2991033 L39.8538638,54.1395717 L42.9706267,54.1395717 L42.9706267,62.0862579 C42.9706267,62.7962003 43.1515934,63.3578375 43.513527,63.7718561 C43.8754605,64.1858748 44.4064997,64.3921975 45.1069834,64.3921975 C45.7722227,64.3921975 46.2829285,64.1972036 46.6394398,63.8068726 C46.9952733,63.4165416 47.1731901,62.8435755 47.1731901,62.0862579 L47.1731901,54.1395717 L50.237764,54.1395717 L50.237764,62.174829 C50.237764,62.9678498 50.1032251,63.6623437 49.8348249,64.2593408 C49.5664248,64.8566811 49.1956801,65.3592709 48.7229298,65.7671102 C48.2501796,66.1752927 47.6957571,66.4825454 47.0593234,66.6895547 C46.4228897,66.8962207 45.7373171,66.999897 45.0019278,66.999897 Z M52.321288,54.139606 L56.2086846,54.139606 L58.7476415,60.6674373 L58.7825471,60.6674373 L61.2689763,54.139606 L65.1038451,54.139606 L65.1038451,66.7870859 L62.2148157,66.7870859 L62.2148157,58.7339771 L62.1795712,58.7339771 L59.7981977,65.0843227 L57.6445576,65.0843227 L55.2455618,58.7518286 L55.2103173,58.7518286 L55.2103173,66.7870859 L52.321288,66.7870859 L52.321288,54.139606 Z M67.2398629,54.139606 L76.4329069,54.139606 L76.4329069,56.7116024 L70.3745869,56.7116024 L70.3745869,59.1243081 L75.4697841,59.1243081 L75.4697841,61.6784529 L70.3745869,61.6784529 L70.3745869,64.197238 L76.4681514,64.197238 L76.4681514,66.7870859 L67.2398629,66.7870859 L67.2398629,54.139606 Z M78.4116125,54.139606 L81.4409419,54.139606 L86.2040279,61.2881219 L86.2392724,61.2881219 L86.2392724,54.139606 L89.1279628,54.139606 L89.1279628,66.7870859 L86.2216501,66.7870859 L81.3358863,59.3546617 L81.3009807,59.3546617 L81.3009807,66.7870859 L78.4116125,66.7870859 L78.4116125,54.139606 Z M94.1712762,56.6762769 L90.633952,56.6762769 L90.633952,54.1396403 L100.842985,54.1396403 L100.842985,56.6762769 L97.3056613,56.6762769 L97.3056613,66.7871203 L94.1712762,66.7871203 L94.1712762,56.6762769 Z M103.999026,54.1218575 L107.343861,54.1218575 L111.721291,66.7868456 L108.517095,66.7868456 L107.763744,64.4276946 L103.298881,64.4276946 L102.528247,66.7868456 L99.5690675,66.7868456 L103.999026,54.1218575 Z M106.993788,61.9446127 L105.557576,57.3680932 L105.505049,57.3680932 L104.051892,61.9446127 L106.993788,61.9446127 Z M112.929634,54.139606 L116.064019,54.139606 L116.064019,64.197238 L122,64.197238 L122,66.7870859 L112.929634,66.7870859 L112.929634,54.139606 Z" id="Fill-56" fill="#111736"></path></g></g></g></svg> 