<?xml version="1.0" encoding="utf-8"?>
<!-- Generator: Adobe Illustrator 24.1.0, SVG Export Plug-In . SVG Version: 6.00 Build 0)  -->
<svg version="1.1" id="Layer_1" xmlns="http://www.w3.org/2000/svg" xmlns:xlink="http://www.w3.org/1999/xlink" x="0px" y="0px"
	 viewBox="0 0 341.4 174.1" style="enable-background:new 0 0 341.4 174.1;" xml:space="preserve">
<style type="text/css">
	.st0{fill:none;stroke:#FFFFFF;stroke-width:2.8;stroke-miterlimit:10;}
	.st1{clip-path:url(#SVGID_2_);}
	.st2{fill:url(#SVGID_3_);}
	.st3{clip-path:url(#SVGID_5_);}
	.st4{fill:url(#SVGID_6_);}
	.st5{clip-path:url(#SVGID_8_);}
	.st6{fill:url(#SVGID_9_);}
	.st7{clip-path:url(#SVGID_11_);}
	.st8{fill:url(#SVGID_12_);}
	.st9{clip-path:url(#SVGID_14_);}
	.st10{fill:url(#SVGID_15_);}
	.st11{clip-path:url(#SVGID_17_);}
	.st12{fill:url(#SVGID_18_);}
	.st13{clip-path:url(#SVGID_20_);}
	.st14{fill:url(#SVGID_21_);}
	.st15{clip-path:url(#SVGID_23_);}
	.st16{fill:url(#SVGID_24_);}
	.st17{clip-path:url(#SVGID_26_);}
	.st18{fill:url(#SVGID_27_);}
	.st19{fill:none;stroke:#ED1B2E;stroke-width:1.65;}
	.st20{clip-path:url(#SVGID_29_);}
	.st21{fill:url(#SVGID_30_);}
	.st22{clip-path:url(#SVGID_32_);}
	.st23{fill:url(#SVGID_33_);}
	.st24{clip-path:url(#SVGID_35_);}
	.st25{fill:url(#SVGID_36_);}
	.st26{clip-path:url(#SVGID_38_);}
	.st27{fill:url(#SVGID_39_);}
	.st28{clip-path:url(#SVGID_41_);}
	.st29{fill:url(#SVGID_42_);}
	.st30{clip-path:url(#SVGID_44_);}
	.st31{fill:url(#SVGID_45_);}
	.st32{clip-path:url(#SVGID_47_);}
	.st33{fill:url(#SVGID_48_);}
	.st34{clip-path:url(#SVGID_50_);}
	.st35{fill:url(#SVGID_51_);}
	.st36{fill:#FFE76E;}
	.st37{fill:url(#SVGID_52_);}
	.st38{fill:#FFFFFF;}
	.st39{fill:url(#SVGID_53_);}
	.st40{fill:url(#SVGID_54_);}
	.st41{fill:url(#SVGID_55_);}
	.st42{fill:url(#SVGID_56_);}
	.st43{fill:url(#SVGID_57_);}
	.st44{fill:url(#SVGID_58_);}
	.st45{fill:url(#SVGID_59_);}
	.st46{fill:url(#SVGID_60_);}
	.st47{fill:url(#SVGID_61_);}
	.st48{fill:url(#SVGID_62_);}
	.st49{fill:url(#SVGID_63_);}
	.st50{fill:url(#SVGID_64_);}
	.st51{fill:url(#SVGID_65_);}
	.st52{fill:url(#SVGID_66_);}
	.st53{fill:url(#SVGID_67_);}
	.st54{fill:url(#SVGID_68_);}
	.st55{fill:url(#SVGID_69_);}
	.st56{fill:url(#SVGID_70_);}
	.st57{fill:url(#SVGID_71_);}
	.st58{fill:url(#SVGID_72_);}
	.st59{fill:url(#SVGID_73_);}
	.st60{clip-path:url(#SVGID_75_);}
	.st61{fill:url(#SVGID_76_);}
	.st62{clip-path:url(#SVGID_78_);}
	.st63{fill:url(#SVGID_79_);}
</style>
<path class="st0" d="M67,43c5-3.8,12.1-9.8,16.3-12.2c40.4-28.3,84.4-29.3,95.2-29.4c17.1-0.2,51.4,2.5,81.9,19.2
	c12,6.7,23.6,14,34.9,21.9"/>
<g>
	<g>
		<defs>
			<path id="SVGID_1_" d="M102.2,87.8l-0.7,0.6c-0.2,0.4-0.3,0.9-0.1,1.3c7.4-3.4,15.2-6.7,23.8-7.1c10.4-1,19.8,1.6,28.7,4.7
				c11.8,4,24.4,4.5,36.4,1.4l0.1,0.1c-0.3,1.7-0.8,3.4-1.6,5c-2.1,0.2-4.3,0.6-6.3,1.1l-0.4,0.4c0,1.4-0.9,2.7-0.8,4.1
				c0.8,0.1,1.6,0.1,2.4,0c1.1-0.1,2.3,0,3.4,0.2c-1.7,5.8-3.5,11.8-5.2,17.6l-0.1,1.4c0.4,0.8,1.1,1.5,1.9,1.9
				c1.5,0.7,3.2,0.7,4.7,0c4.3-1.9,8-6.3,10.7-10.2c-0.3-0.3-0.6-0.8-1-0.8c-2.3,2.2-4.5,4.2-7.2,5.1c-0.4-0.1-0.7-0.4-0.7-0.8
				c1.2-4.8,2.7-9.5,3.9-14.3l0.3-0.6c2.4-0.2,5,0,7.4-0.4c0.5-1.8,1.1-3.5,1.5-5.4h-7.1l-0.1-0.1c0.4-2.8,1.6-5.3,2.1-8.2
				c-4,0.4-7.8,1.1-11.8,1.3c-6.6,0.7-12.8-0.8-18.7-2.1c-7-2-13.9-4.2-21.2-5.3c-3.2-0.6-6.4-1-9.7-0.9
				C124.5,78,112.8,82.5,102.2,87.8"/>
		</defs>
		<clipPath id="SVGID_2_">
			<use xlink:href="#SVGID_1_"  style="overflow:visible;"/>
		</clipPath>
		<g class="st1">
			
				<linearGradient id="SVGID_3_" gradientUnits="userSpaceOnUse" x1="-410.7485" y1="631.8608" x2="-409.7485" y2="631.8608" gradientTransform="matrix(8.872566e-16 14.49 -14.49 8.872566e-16 9307.9248 6060.0269)">
				<stop  offset="0" style="stop-color:#ED1B2E"/>
				<stop  offset="0.3" style="stop-color:#D81430"/>
				<stop  offset="1" style="stop-color:#A90533"/>
			</linearGradient>
			<rect x="101.2" y="78" class="st2" width="102.2" height="43.5"/>
		</g>
	</g>
</g>
<g>
	<g>
		<defs>
			<path id="SVGID_4_" d="M238.2,96c-4,2.1-7.2,6.1-9.6,9.8c0.3,0.4,0.7,0.7,1.1,0.8c1.6-1.7,3.3-3.2,5.3-4.4
				c0.5-0.3,1.1-0.7,1.4,0.1c-1.9,5.2-4.3,10.1-6.1,15.3c-0.1,1-0.6,2.2,0,3.1c0.8,1.4,2.6,1.5,4.2,1.3c5.2-1.5,9.7-6.2,13.2-10.6
				c-0.4-0.3-0.6-0.9-1.2-0.9c-2.4,2.1-4.6,4.3-7.2,5.6c-0.3-0.2-0.6-0.3-0.6-0.7l4.3-11c0.7-2.5,2.9-5.6,0.6-8.1
				c-0.7-0.6-1.6-0.9-2.5-0.8C240.1,95.3,239.1,95.6,238.2,96 M240.7,82.7c-1.2,1.3-1.7,3.1-1.2,4.9c0.5,1.4,1.7,2.5,3.1,2.9
				c1.8,0.5,3.7-0.1,4.8-1.6s1.2-3.5,0.3-5.1c-0.7-1-1.6-1.7-2.8-2.1c-0.4-0.1-0.8-0.1-1.2-0.1C242.6,81.6,241.5,82,240.7,82.7"/>
		</defs>
		<clipPath id="SVGID_5_">
			<use xlink:href="#SVGID_4_"  style="overflow:visible;"/>
		</clipPath>
		<g class="st3">
			
				<linearGradient id="SVGID_6_" gradientUnits="userSpaceOnUse" x1="-410.7485" y1="631.8898" x2="-409.7485" y2="631.8898" gradientTransform="matrix(8.872566e-16 14.49 -14.49 8.872566e-16 9394.5947 6060.1069)">
				<stop  offset="0" style="stop-color:#ED1B2E"/>
				<stop  offset="0.3" style="stop-color:#D81430"/>
				<stop  offset="1" style="stop-color:#A90533"/>
			</linearGradient>
			<rect x="228.6" y="81.6" class="st4" width="19.9" height="40.5"/>
		</g>
	</g>
</g>
<g>
	<g>
		<defs>
			<path id="SVGID_7_" d="M173.6,94.9c-6.4,1.5-9.9,8.2-13,13.2l-0.5,0.1c-0.3-0.2-0.7-0.3-0.7-0.7l4-8.5c0.2-0.8,0.1-1.7-0.2-2.4
				c-0.9-1.6-2.8-1.5-4.5-1.6c-5.5,0.2-9.1,6.1-10.8,10.4c0.3,0.3,0.9,0.7,1.3,0.5l2.1-2.7c1.3-1.4,2.8-3,4.7-2.5
				c-1.1,3.2-2.4,6-3.6,9.2c-0.9,3.4-3.2,6.4-2.3,10.2c0.4,1,1.4,1.6,2.5,1.5c1.9,0.1,3.4-1.7,4.4-3.1c3.1-5,5.2-10.6,9-15.3
				c1.3-1.7,3-3,4.9-3.8c0.2,0.2,0.3,0.4,0.4,0.6c-2.2,5.8-4.7,11.6-6.8,17.5c-0.4,1.1-0.2,2.4,0.5,3.4c0.8,0.6,1.7,0.8,2.7,0.7
				c5.9-0.9,10.9-6.2,14.3-11.1c-0.3-0.4-0.7-0.7-1.1-0.9c-2.3,2.2-4.6,4.4-7.3,5.7c-0.4-0.1-0.7-0.4-0.7-0.8l3.7-8.9
				c0.9-2.7,2.4-6,0.9-8.9c-0.7-1.2-2-1.9-3.4-1.8C174,94.8,173.9,94.8,173.6,94.9"/>
		</defs>
		<clipPath id="SVGID_8_">
			<use xlink:href="#SVGID_7_"  style="overflow:visible;"/>
		</clipPath>
		<g class="st5">
			
				<linearGradient id="SVGID_9_" gradientUnits="userSpaceOnUse" x1="-410.7485" y1="631.9492" x2="-409.7485" y2="631.9492" gradientTransform="matrix(8.872566e-16 14.49 -14.49 8.872566e-16 9321.8047 6060.3267)">
				<stop  offset="0" style="stop-color:#ED1B2E"/>
				<stop  offset="0.3" style="stop-color:#D81430"/>
				<stop  offset="1" style="stop-color:#A90533"/>
			</linearGradient>
			<rect x="147.9" y="94.9" class="st6" width="34" height="26.9"/>
		</g>
	</g>
</g>
<g>
	<g>
		<defs>
			<path id="SVGID_10_" d="M256.4,95.7c-5.3,0.7-8.8,6-10.5,10.5c0.3,0.4,0.7,0.7,1.2,0.7c1.4-2,2.9-4.2,5.1-5.3
				c0.3-0.1,0.9-0.4,1.2-0.1c-1.5,5.5-3.3,10.8-4.8,16.3h-0.1v1.7c0.2,1.2,1,2.2,2.1,2.5c1.2,0.3,2.4,0,3.3-0.8c2.5-3.3,4-7,6-10.6
				c1.5-2.7,2.8-5.8,5.5-7.8c0.6-0.2,1.2,0,1.5,0.5c0.5,1.6-0.4,2.8-0.5,4.3l0.3,0.2c1.9,0,3.6-1.3,5.2-2.4c1.8-1.8,3.1-3.9,2.6-6.7
				c-0.3-1.3-1.2-2.5-2.5-3c-2.4-0.8-4.4,0.5-5.9,1.9c-4,4.3-6.1,9.4-8.8,14.2c-0.5,0.3-0.9-0.1-1.2-0.4c1.2-3.9,2.7-7.7,4.1-11.6
				c0.3-0.9,0.9-1.8,0.4-2.8c-0.7-1.3-2.1-1.6-3.5-1.6L256.4,95.7"/>
		</defs>
		<clipPath id="SVGID_11_">
			<use xlink:href="#SVGID_10_"  style="overflow:visible;"/>
		</clipPath>
		<g class="st7">
			
				<linearGradient id="SVGID_12_" gradientUnits="userSpaceOnUse" x1="-410.7685" y1="631.8511" x2="-409.7685" y2="631.8511" gradientTransform="matrix(8.872566e-16 14.49 -14.49 8.872566e-16 9415.9854 6060.3867)">
				<stop  offset="0" style="stop-color:#ED1B2E"/>
				<stop  offset="0.3" style="stop-color:#D81430"/>
				<stop  offset="1" style="stop-color:#A90533"/>
			</linearGradient>
			<rect x="245.9" y="95.2" class="st8" width="29.2" height="27.1"/>
		</g>
	</g>
</g>
<g>
	<g>
		<defs>
			<path id="SVGID_13_" d="M141.8,95.5c-3.3,2.6-4.2,6.6-6.1,9.8c-2.4,4.2-5.2,8.8-9.6,11.4c-0.3-0.1-0.4-0.3-0.5-0.6l4.9-12.8
				c0.6-2,1.8-4.4,0.9-6.6c-0.9-1.3-2.6-1.9-4.2-1.5c-5,1.5-8.8,6.2-11.6,10.4c0.3,0.4,0.7,0.8,1.1,0.8c1.7-1.7,3.6-3.3,5.6-4.7
				c0.6-0.1,1.2-1,1.7-0.2c-0.4,1.3-0.8,2.6-1.3,3.8c-2,4.7-3.7,9.5-5.2,14.4c0.7,0.9,1.7,1.7,2.8,2.1c3.7-0.1,6.7-2.6,9.4-5.2
				c2.9-2.7,4.8-6,7.1-8.9l0.7,0.6c-1.5,4.2-3.4,8.1-5,12.3c0.3,0.6,0.9,0.7,1.3,0.9c6.9,0.8,12.1-5.6,15.9-10.6
				c-0.1-0.5-0.7-0.7-1.1-0.9c-2.3,2.3-4.7,4.3-7.4,6c-0.2,0.1-0.5,0-0.7-0.2c1.2-3.3,2.3-6.7,3.6-10c0.8-3,2.9-6,2-9.3
				c-0.6-1-1.6-1.5-2.7-1.5C142.8,95.1,142.3,95.2,141.8,95.5"/>
		</defs>
		<clipPath id="SVGID_14_">
			<use xlink:href="#SVGID_13_"  style="overflow:visible;"/>
		</clipPath>
		<g class="st9">
			
				<linearGradient id="SVGID_15_" gradientUnits="userSpaceOnUse" x1="-410.7785" y1="631.9188" x2="-409.7785" y2="631.9188" gradientTransform="matrix(8.872566e-16 14.49 -14.49 8.872566e-16 9289.0654 6060.7969)">
				<stop  offset="0" style="stop-color:#ED1B2E"/>
				<stop  offset="0.3" style="stop-color:#D81430"/>
				<stop  offset="1" style="stop-color:#A90533"/>
			</linearGradient>
			<rect x="115.6" y="94.9" class="st10" width="34" height="27.6"/>
		</g>
	</g>
</g>
<g>
	<g>
		<defs>
			<path id="SVGID_16_" d="M206.8,114.7c1.4-5.4,3.4-10.7,5.8-15.8c2.1,1,4.1,2.3,5.8,4c-1.4,2.3-3,4.4-4.8,6.4
				c-1.8,2.1-3.9,4.1-6.1,5.9C207.2,115.2,206.8,115,206.8,114.7 M221.5,97.9c-2.5-1.7-5.4-4.3-8.6-2.2
				c-10.5,3.2-12.5,14.4-14.2,23.6c1.2,1.2,2.4,2.5,4.1,2.5c5.6-2.8,9.9-8.4,13.8-13.2l0.4-0.1c0.3,0.1,0.6,0.4,0.7,0.7
				c-1.6,3.7-3.3,7.4-4.8,11.2c0.4,0.6,1,1,1.7,1.3c3.2,1,5.9-0.9,8.3-2.7c2.8-2.3,5.4-5,7.5-8c-0.3-0.4-0.7-0.7-1.2-0.8
				c-2.5,2.4-5,4.8-7.9,6.3c-0.2-0.1-0.3-0.3-0.4-0.5c2.2-6.2,4.5-12.2,6.4-18.4c0.2-0.8,0.1-1.6-0.5-2.2c-0.4-0.3-0.9-0.5-1.4-0.5
				C223.9,94.6,222.7,97,221.5,97.9"/>
		</defs>
		<clipPath id="SVGID_17_">
			<use xlink:href="#SVGID_16_"  style="overflow:visible;"/>
		</clipPath>
		<g class="st11">
			
				<linearGradient id="SVGID_18_" gradientUnits="userSpaceOnUse" x1="-410.7485" y1="631.8918" x2="-409.7485" y2="631.8918" gradientTransform="matrix(8.872566e-16 14.49 -14.49 8.872566e-16 9370.6748 6060.0566)">
				<stop  offset="0" style="stop-color:#ED1B2E"/>
				<stop  offset="0.3" style="stop-color:#D81430"/>
				<stop  offset="1" style="stop-color:#A90533"/>
			</linearGradient>
			<rect x="198.7" y="93.7" class="st12" width="31.8" height="28.9"/>
		</g>
	</g>
</g>
<g>
	<g>
		<defs>
			<path id="SVGID_19_" d="M280.8,107.9c0.9-2.6,1.4-5.3,3-7.6c0.3-0.3,0.8-0.4,1.2-0.2c0.8,0.5,1.4,1.2,1.8,2
				c0.4,0.7,0.5,1.6,0.3,2.4c-1.7,2.1-4,3.2-6,4.6H281C280.4,109,280.8,108.2,280.8,107.9 M287.3,96.3c-4.2,1.5-8.9,2.8-11.6,6.9
				c-2.6,4.7-3.9,10-4,15.4c0.3,2,2.5,3.2,4.1,4.2c2.3,0.3,4.2-0.8,6.2-1.5c5.5-2.5,9.4-9.1,15.3-10.5c1.2-0.4,2.5-0.6,3.8-0.4
				c1.5,0.1,3,0.2,4.2-0.7c0.6-0.5,0.8-1.3,0.5-2c-0.8-1.3-2.4-1.2-3.7-1.3c-7.2,0.5-11.9,7.1-18.1,10.2c-1.3,0.4-2.9,1.5-4.3,0.6
				c-0.4-0.4-0.5-1-0.5-1.6c-0.1-1.4,0.2-2.8,0.9-4c4.7-3,9.9-5,14.1-9c0.7-1,0.8-2.2,0.2-3.3c-1.1-2-3.1-3.3-5.4-3.4
				C288.4,95.9,287.9,96,287.3,96.3"/>
		</defs>
		<clipPath id="SVGID_20_">
			<use xlink:href="#SVGID_19_"  style="overflow:visible;"/>
		</clipPath>
		<g class="st13">
			
				<linearGradient id="SVGID_21_" gradientUnits="userSpaceOnUse" x1="-410.7485" y1="631.9312" x2="-409.7485" y2="631.9312" gradientTransform="matrix(8.872566e-16 14.49 -14.49 8.872566e-16 9445.3945 6060.2466)">
				<stop  offset="0" style="stop-color:#ED1B2E"/>
				<stop  offset="0.3" style="stop-color:#D81430"/>
				<stop  offset="1" style="stop-color:#A90533"/>
			</linearGradient>
			<rect x="271.6" y="96" class="st14" width="34.3" height="27.1"/>
		</g>
	</g>
</g>
<g>
	<g>
		<defs>
			
				<rect id="SVGID_22_" x="118.5" y="64" transform="matrix(0.8874 -0.461 0.461 0.8874 -16.667 62.6216)" width="2.8" height="2.8"/>
		</defs>
		<clipPath id="SVGID_23_">
			<use xlink:href="#SVGID_22_"  style="overflow:visible;"/>
		</clipPath>
		<g class="st15">
			
				<linearGradient id="SVGID_24_" gradientUnits="userSpaceOnUse" x1="-426.571" y1="612.0065" x2="-425.571" y2="612.0065" gradientTransform="matrix(4.378113e-16 7.15 -7.15 4.378113e-16 4495.8091 3112.1567)">
				<stop  offset="0" style="stop-color:#ED1B2E"/>
				<stop  offset="0.3" style="stop-color:#D81430"/>
				<stop  offset="1" style="stop-color:#A90533"/>
			</linearGradient>
			<rect x="118.1" y="63.5" class="st16" width="3.8" height="3.8"/>
		</g>
	</g>
</g>
<g>
	<g>
		<defs>
			
				<rect id="SVGID_25_" x="247.1" y="68.8" transform="matrix(0.533 -0.8461 0.8461 0.533 56.6209 243.0527)" width="2.8" height="2.8"/>
		</defs>
		<clipPath id="SVGID_26_">
			<use xlink:href="#SVGID_25_"  style="overflow:visible;"/>
		</clipPath>
		<g class="st17">
			
				<linearGradient id="SVGID_27_" gradientUnits="userSpaceOnUse" x1="-426.0942" y1="612.5015" x2="-425.0942" y2="612.5015" gradientTransform="matrix(4.433221e-16 7.24 -7.24 4.433221e-16 4683.0225 3151.5864)">
				<stop  offset="0" style="stop-color:#ED1B2E"/>
				<stop  offset="0.3" style="stop-color:#D81430"/>
				<stop  offset="1" style="stop-color:#A90533"/>
			</linearGradient>
			<rect x="246.6" y="68.3" class="st18" width="3.9" height="3.9"/>
		</g>
	</g>
</g>
<path class="st19" d="M110.4,58.7c0,0,29.1-19.9,70-19.8c48.4,0.2,78.9,25.9,78.9,25.9"/>
<path class="st19" d="M131.8,70.9c0,0,17.9-11.2,49.6-11.2c19.3,0.1,38.2,5.2,55,14.8"/>
<g>
	<g>
		<defs>
			<path id="SVGID_28_" d="M104.4,85.8l-0.7,0.6c-0.2,0.4-0.3,0.9-0.1,1.3c7.4-3.4,15.2-6.7,23.8-7.1c10.4-1,19.8,1.6,28.8,4.7
				c11.8,4,24.4,4.5,36.4,1.4l0.1,0.1c-0.3,1.7-0.8,3.4-1.6,5c-2.1,0.2-4.2,0.6-6.3,1.1l-0.4,0.4c0,1.4-0.9,2.7-0.8,4.1
				c0.8,0.1,1.6,0.1,2.4,0c1.1-0.1,2.3,0,3.4,0.2c-1.7,5.8-3.5,11.8-5.2,17.6l-0.1,1.4c0.4,0.8,1.1,1.5,1.9,1.9
				c1.5,0.7,3.2,0.7,4.7,0c4.3-1.9,8-6.3,10.7-10.2c-0.3-0.3-0.6-0.8-1-0.8c-2.3,2.2-4.5,4.2-7.2,5.2c-0.4-0.1-0.7-0.4-0.7-0.8
				c1.2-4.8,2.6-9.5,4-14.3l0.3-0.6c2.4-0.2,5,0,7.4-0.4c0.5-1.8,1.1-3.5,1.5-5.4l-7.1-0.1l-0.1-0.1c0.4-2.8,1.6-5.3,2.1-8.2
				c-4,0.4-7.8,1.1-11.8,1.3c-6.6,0.7-12.8-0.8-18.7-2.1c-7-2-13.9-4.2-21.2-5.3c-3.2-0.7-6.5-1-9.7-1c-12.4,0-24.1,4.5-34.7,9.8"/>
		</defs>
		<clipPath id="SVGID_29_">
			<use xlink:href="#SVGID_28_"  style="overflow:visible;"/>
		</clipPath>
		<g class="st20">
			
				<linearGradient id="SVGID_30_" gradientUnits="userSpaceOnUse" x1="-415.6669" y1="625.6553" x2="-414.6669" y2="625.6553" gradientTransform="matrix(6.723311e-16 10.98 -10.98 6.723311e-16 7024.1572 4666.6631)">
				<stop  offset="0" style="stop-color:#FFE766"/>
				<stop  offset="1" style="stop-color:#FCB131"/>
			</linearGradient>
			<rect x="103.4" y="76" class="st21" width="102.2" height="43.5"/>
		</g>
	</g>
</g>
<g>
	<g>
		<defs>
			<path id="SVGID_31_" d="M240.4,94.1c-4,2.1-7.2,6.1-9.6,9.8c0.3,0.4,0.7,0.7,1.1,0.8c1.6-1.7,3.4-3.2,5.3-4.4
				c0.5-0.3,1.1-0.7,1.4,0.1c-1.9,5.2-4.3,10.1-6.1,15.3c-0.1,1-0.5,2.2,0,3.1c0.8,1.5,2.6,1.5,4.2,1.3c5.2-1.5,9.7-6.2,13.2-10.6
				c-0.4-0.3-0.6-0.9-1.2-0.9c-2.4,2.1-4.6,4.3-7.2,5.6c-0.3-0.2-0.6-0.3-0.6-0.7l4.3-11c0.7-2.5,2.9-5.6,0.6-8.1
				c-0.7-0.6-1.6-0.9-2.5-0.8C242.3,93.4,241.3,93.7,240.4,94.1 M242.9,80.8c-1.2,1.3-1.7,3.1-1.2,4.9c0.5,1.4,1.7,2.5,3.1,2.9
				c1.8,0.5,3.7-0.1,4.8-1.6c1-1.5,1.2-3.5,0.3-5.1c-0.7-1-1.6-1.7-2.8-2.1c-0.4-0.1-0.8-0.1-1.2-0.1
				C244.8,79.7,243.8,80.1,242.9,80.8"/>
		</defs>
		<clipPath id="SVGID_32_">
			<use xlink:href="#SVGID_31_"  style="overflow:visible;"/>
		</clipPath>
		<g class="st22">
			
				<linearGradient id="SVGID_33_" gradientUnits="userSpaceOnUse" x1="-415.6369" y1="625.658" x2="-414.6369" y2="625.658" gradientTransform="matrix(6.723311e-16 10.98 -10.98 6.723311e-16 7110.437 4666.3032)">
				<stop  offset="0" style="stop-color:#FFE766"/>
				<stop  offset="1" style="stop-color:#FCB131"/>
			</linearGradient>
			<rect x="230.8" y="79.6" class="st23" width="19.9" height="40.5"/>
		</g>
	</g>
</g>
<g>
	<g>
		<defs>
			<path id="SVGID_34_" d="M175.8,92.9c-6.4,1.5-9.9,8.2-13,13.2l-0.5,0.1c-0.3-0.2-0.7-0.3-0.7-0.7l4-8.5c0.2-0.8,0.1-1.7-0.2-2.4
				c-0.8-1.6-2.8-1.5-4.5-1.6c-5.5,0.2-9.1,6.1-10.8,10.4c0.3,0.3,0.9,0.7,1.3,0.5l2.1-2.8c1.3-1.4,2.8-3,4.7-2.5
				c-1.1,3.2-2.4,6-3.6,9.2c-0.9,3.4-3.2,6.4-2.3,10.3c0.4,1,1.4,1.6,2.5,1.5c1.9,0.1,3.4-1.7,4.4-3.1c3.1-5,5.2-10.6,9-15.3
				c1.3-1.6,3-3.2,4.9-3.8c0.2,0.2,0.3,0.4,0.4,0.6c-2.2,5.8-4.7,11.6-6.8,17.5c-0.4,1.1-0.2,2.4,0.5,3.4c0.8,0.6,1.7,0.8,2.7,0.7
				c5.9-0.9,10.9-6.2,14.3-11.1c-0.3-0.4-0.7-0.7-1.1-0.9c-2.2,2.2-4.6,4.2-7.3,5.7c-0.4-0.1-0.7-0.4-0.7-0.8l3.7-8.9
				c1-2.7,2.4-6,0.9-8.9c-0.7-1.2-2-2-3.4-1.8L175.8,92.9"/>
		</defs>
		<clipPath id="SVGID_35_">
			<use xlink:href="#SVGID_34_"  style="overflow:visible;"/>
		</clipPath>
		<g class="st24">
			
				<linearGradient id="SVGID_36_" gradientUnits="userSpaceOnUse" x1="-415.6869" y1="625.5943" x2="-414.6869" y2="625.5943" gradientTransform="matrix(6.723311e-16 10.98 -10.98 6.723311e-16 7036.0874 4666.7231)">
				<stop  offset="0" style="stop-color:#FFE766"/>
				<stop  offset="1" style="stop-color:#FCB131"/>
			</linearGradient>
			<rect x="150.1" y="92.9" class="st25" width="34" height="26.9"/>
		</g>
	</g>
</g>
<g>
	<g>
		<defs>
			<path id="SVGID_37_" d="M258.6,93.8c-5.3,0.7-8.8,6-10.5,10.5c0.3,0.4,0.7,0.7,1.2,0.7c1.4-2,2.9-4.2,5.1-5.3
				c0.3-0.1,0.9-0.4,1.3,0c-1.5,5.4-3.3,10.8-4.8,16.3h-0.1l0.1,1.7c0.2,1.2,1,2.2,2.1,2.5c1.2,0.3,2.4,0,3.3-0.8
				c2.5-3.3,4-7,6-10.6c1.5-2.7,2.8-5.8,5.5-7.8c0.5-0.2,1.2,0,1.4,0.5c0.5,1.6-0.4,2.8-0.5,4.3l0.3,0.2c1.9,0,3.6-1.3,5.2-2.4
				c1.8-1.8,3.1-3.9,2.6-6.7c-0.3-1.4-1.2-2.5-2.5-3.1c-2.4-0.7-4.4,0.5-6,1.9c-4,4.3-6.1,9.4-8.8,14.2c-0.5,0.3-0.9-0.1-1.2-0.4
				c1.2-3.9,2.7-7.7,4-11.6c0.3-0.9,0.9-1.8,0.4-2.8c-0.7-1.4-2.1-1.6-3.5-1.6L258.6,93.8"/>
		</defs>
		<clipPath id="SVGID_38_">
			<use xlink:href="#SVGID_37_"  style="overflow:visible;"/>
		</clipPath>
		<g class="st26">
			
				<linearGradient id="SVGID_39_" gradientUnits="userSpaceOnUse" x1="-415.6769" y1="625.5287" x2="-414.6769" y2="625.5287" gradientTransform="matrix(6.723311e-16 10.98 -10.98 6.723311e-16 7130.9673 4666.4731)">
				<stop  offset="0" style="stop-color:#FFE766"/>
				<stop  offset="1" style="stop-color:#FCB131"/>
			</linearGradient>
			<rect x="248.1" y="93.3" class="st27" width="29.2" height="27.1"/>
		</g>
	</g>
</g>
<g>
	<g>
		<defs>
			<path id="SVGID_40_" d="M144,93.5c-3.3,2.6-4.2,6.6-6.1,9.8c-2.4,4.2-5.2,8.8-9.6,11.4c-0.3-0.1-0.5-0.3-0.5-0.6l4.8-12.8
				c0.6-2,1.8-4.4,0.9-6.7c-0.9-1.3-2.6-1.9-4.2-1.5c-5,1.5-8.8,6.2-11.6,10.4c0.3,0.4,0.7,0.8,1.1,0.8c1.7-1.7,3.6-3.3,5.6-4.7
				c0.6-0.1,1.2-1,1.7-0.2c-0.4,1.3-0.8,2.6-1.3,3.8c-2,4.7-3.7,9.5-5.2,14.4c0.7,0.9,1.7,1.7,2.7,2.1c3.7-0.1,6.7-2.6,9.4-5.2
				c2.9-2.8,4.8-6,7.1-8.9l0.6,0.6c-1.5,4.2-3.4,8.1-5,12.3c0.3,0.6,0.9,0.7,1.3,0.9c6.9,0.8,12.1-5.6,15.9-10.6
				c-0.1-0.5-0.6-0.7-1-0.9c-2.3,2.3-4.7,4.3-7.4,6c-0.2,0.1-0.5,0-0.7-0.2c1.2-3.3,2.3-6.7,3.6-10c0.8-3,2.9-6,2-9.3
				c-0.6-1-1.6-1.5-2.7-1.5C145.1,93.1,144.5,93.3,144,93.5"/>
		</defs>
		<clipPath id="SVGID_41_">
			<use xlink:href="#SVGID_40_"  style="overflow:visible;"/>
		</clipPath>
		<g class="st28">
			
				<linearGradient id="SVGID_42_" gradientUnits="userSpaceOnUse" x1="-415.6869" y1="625.557" x2="-414.6869" y2="625.557" gradientTransform="matrix(6.723311e-16 10.98 -10.98 6.723311e-16 7003.3774 4666.6831)">
				<stop  offset="0" style="stop-color:#FFE766"/>
				<stop  offset="1" style="stop-color:#FCB131"/>
			</linearGradient>
			<rect x="117.8" y="93" class="st29" width="34" height="27.6"/>
		</g>
	</g>
</g>
<g>
	<g>
		<defs>
			<path id="SVGID_43_" d="M100.7,116.9c-0.8-2.8,0.1-5.6,0.5-8.3c1.1-4,2.2-7.8,4.7-11.2c0.5-0.8,1.2-1.3,2.1-1.6
				c0.6-0.1,1.3,0.2,1.5,0.9c1,3-0.2,6-0.6,8.8c-1.2,4-2.2,8-4.8,11.3c-0.5,0.5-1.1,0.8-1.8,0.9h-0.2
				C101.5,117.8,100.9,117.4,100.7,116.9 M105.3,94c-5,1.3-9,6.2-10.6,10.9c-1.3,4.1-2.6,10,0.5,13.6c2.3,2.1,6,1.9,9,1.5
				c4.5-0.6,8.4-4.7,10.3-8.7c1.8-4.2,3.8-9.7,1.8-14.5c-1.4-2.6-4-3.4-6.7-3.4C108.1,93.5,106.7,93.7,105.3,94"/>
		</defs>
		<clipPath id="SVGID_44_">
			<use xlink:href="#SVGID_43_"  style="overflow:visible;"/>
		</clipPath>
		<g class="st30">
			
				<linearGradient id="SVGID_45_" gradientUnits="userSpaceOnUse" x1="-415.6769" y1="625.5405" x2="-414.6769" y2="625.5405" gradientTransform="matrix(6.723311e-16 10.98 -10.98 6.723311e-16 6973.5972 4666.5034)">
				<stop  offset="0" style="stop-color:#FFE766"/>
				<stop  offset="1" style="stop-color:#FCB131"/>
			</linearGradient>
			<rect x="92.1" y="93.5" class="st31" width="26.2" height="27.1"/>
		</g>
	</g>
</g>
<g>
	<g>
		<defs>
			<path id="SVGID_46_" d="M209,112.7c1.4-5.4,3.4-10.7,5.8-15.8c2.1,1,4.1,2.3,5.8,4c-1.4,2.3-3,4.4-4.8,6.4
				c-1.8,2.1-3.9,4.1-6.1,5.9C209.4,113.2,209,113,209,112.7 M223.7,95.9c-2.5-1.7-5.4-4.3-8.6-2.2c-10.5,3.2-12.5,14.4-14.2,23.6
				c1.2,1.2,2.4,2.5,4.1,2.6c5.6-2.8,9.9-8.4,13.8-13.3l0.4-0.1c0.3,0.1,0.6,0.4,0.7,0.7c-1.6,3.7-3.3,7.4-4.8,11.2
				c0.4,0.6,1,1,1.7,1.3c3.2,1,5.9-0.9,8.3-2.7c2.8-2.3,5.4-5,7.5-8c-0.3-0.4-0.7-0.7-1.2-0.8c-2.5,2.4-5,4.8-7.9,6.2
				c-0.2-0.1-0.3-0.3-0.4-0.5c2.2-6.2,4.5-12.2,6.4-18.5c0.2-0.8,0.1-1.6-0.5-2.2c-0.4-0.3-0.9-0.5-1.4-0.5
				C226.1,92.7,224.9,95,223.7,95.9"/>
		</defs>
		<clipPath id="SVGID_47_">
			<use xlink:href="#SVGID_46_"  style="overflow:visible;"/>
		</clipPath>
		<g class="st32">
			
				<linearGradient id="SVGID_48_" gradientUnits="userSpaceOnUse" x1="-415.7069" y1="625.5834" x2="-414.7069" y2="625.5834" gradientTransform="matrix(6.723311e-16 10.98 -10.98 6.723311e-16 7085.667 4666.9731)">
				<stop  offset="0" style="stop-color:#FFE766"/>
				<stop  offset="1" style="stop-color:#FCB131"/>
			</linearGradient>
			<rect x="200.9" y="91.7" class="st33" width="31.8" height="28.9"/>
		</g>
	</g>
</g>
<g>
	<g>
		<defs>
			<path id="SVGID_49_" d="M283,105.9c0.9-2.6,1.4-5.3,3-7.6c0.3-0.4,0.9-0.4,1.3-0.2c0.8,0.5,1.4,1.2,1.8,2
				c0.4,0.7,0.5,1.6,0.3,2.4c-1.7,2.1-4,3.2-6,4.6h-0.1C282.7,107,283.1,106.2,283,105.9 M289.5,94.3c-4.2,1.5-8.9,2.8-11.7,6.9
				c-2.6,4.7-3.9,10-4,15.4c0.3,2,2.5,3.2,4.1,4.2c2.3,0.3,4.2-0.8,6.2-1.5c5.5-2.5,9.4-9.1,15.3-10.5c1.2-0.4,2.5-0.6,3.8-0.4
				c1.5,0.1,3,0.2,4.2-0.7c0.6-0.5,0.8-1.3,0.5-2c-0.8-1.3-2.4-1.2-3.8-1.3c-7.2,0.5-11.9,7.1-18.1,10.2c-1.3,0.4-2.9,1.5-4.3,0.6
				c-0.4-0.4-0.5-1-0.4-1.6c-0.1-1.4,0.2-2.7,0.9-3.9c4.7-3.1,9.9-5,14.1-9c0.7-1,0.8-2.2,0.2-3.3c-1.1-2-3.1-3.3-5.4-3.4
				C290.7,94,290.1,94.1,289.5,94.3"/>
		</defs>
		<clipPath id="SVGID_50_">
			<use xlink:href="#SVGID_49_"  style="overflow:visible;"/>
		</clipPath>
		<g class="st34">
			
				<linearGradient id="SVGID_51_" gradientUnits="userSpaceOnUse" x1="-415.6569" y1="625.5907" x2="-414.6569" y2="625.5907" gradientTransform="matrix(6.723311e-16 10.98 -10.98 6.723311e-16 7159.8975 4666.333)">
				<stop  offset="0" style="stop-color:#FFE766"/>
				<stop  offset="1" style="stop-color:#FCB131"/>
			</linearGradient>
			<rect x="273.8" y="94" class="st35" width="34.3" height="27.1"/>
		</g>
	</g>
</g>
<path class="st36" d="M132.6,53.3c2.2-0.9,3.7,0,4.3,1.6s0.1,3.2-2.2,4.2l-1.5,0.6l1.7,4.3l-1.4,0.6l-4-10L132.6,53.3z M132.6,58.4
	l1.6-0.7c0.9-0.2,1.4-1.1,1.2-2c0-0.1-0.1-0.2-0.1-0.3c-0.3-0.8-1.2-1.3-2-1c-0.1,0-0.2,0.1-0.3,0.1l-1.7,0.7L132.6,58.4z"/>
<path class="st36" d="M147.8,48.4c2.1-0.5,3.7,0.3,4.2,2.1c0.3,1.1-0.1,2.3-1.1,3c1.2,0.5,2.2,1.3,3.1,2.3c0.6,0.6,1,0.9,1.9,1.7
	l-1.8,0.5l-1.9-1.8c-1.9-1.8-2.6-1.9-3.4-1.7l-0.6,0.2l1.2,4.5l-1.5,0.4l-2.8-10.5L147.8,48.4z M147.8,53.3l1-0.2
	c1.6-0.4,1.9-1.3,1.6-2.2s-1-1.4-2.4-1.1l-1,0.2L147.8,53.3z"/>
<polygon class="st36" points="168.8,46.2 164.3,46.7 164.7,49.9 169,49.4 169.2,50.8 164.8,51.3 165.2,54.6 169.9,54.1 170.1,55.5 
	163.8,56.2 162.6,45.5 168.6,44.8 "/>
<polygon class="st36" points="188.6,55.2 187.1,55.2 187.3,46.8 187.3,46.8 183.8,50.9 183.6,50.9 180.4,46.6 180.3,46.6 180.1,55 
	178.6,54.9 178.9,44.2 180.3,44.2 183.8,48.7 187.5,44.4 188.9,44.4 "/>
<rect x="194" y="50.5" transform="matrix(0.1673 -0.9859 0.9859 0.1673 115.5189 239.2894)" class="st36" width="10.8" height="1.5"/>
<path class="st36" d="M218.4,57.1c-0.7,2.5-2.7,3.8-5.8,2.9c-2.2-0.6-4-2.5-3.1-5.3l1.9-6.4l1.5,0.4l-1.8,6.1
	c-0.3,1.2-0.3,1.7,0,2.3c0.4,0.8,1.1,1.3,2,1.5c0.9,0.3,1.8,0.3,2.7-0.1c0.7-0.5,1.2-1.2,1.3-2.1l1.8-6l1.5,0.4L218.4,57.1z"/>
<polygon class="st36" points="235,68.2 233.6,67.6 236.9,59.9 236.9,59.9 232.2,62.4 232,62.3 230.6,57.1 230.6,57.1 227.2,64.8 
	225.8,64.2 230.1,54.3 231.4,54.9 232.9,60.4 238,57.8 239.3,58.3 "/>
<linearGradient id="SVGID_52_" gradientUnits="userSpaceOnUse" x1="140.4492" y1="198.5468" x2="140.4492" y2="220.3768" gradientTransform="matrix(1.17 0 0 1.17 6.3903 -148.1211)">
	<stop  offset="0" style="stop-color:#ED1B2E"/>
	<stop  offset="0.3" style="stop-color:#D81430"/>
	<stop  offset="1" style="stop-color:#A90533"/>
</linearGradient>
<path class="st37" d="M78.7,59.3c1.8,0.1,13-10.1,18.5-13.3c34.7-24.3,72.3-25.1,81.5-25.1c14.6-0.2,44.1,2.2,70.1,16.5
	c11.5,6.4,22.5,13.5,33.2,21.1c5.4,0.5,10.7,0.6,16.1,0.3h34c3.2,0.1,7.7,1.3,8.9,6.4c0.9,2.3,0.3,4.9-0.1,7.2
	c0,0-14.1,56.3-18,72.6c-1.6,4.2-3.9,4.3-6.1,4.6l-25,0.1c-0.8,1.4-3.8,13.1-5.2,18c-1.4,4-6.6,6.3-10.5,6.4H34.8
	c-2.2-0.3-4.6-1.2-5.4-3.4c-2-2-0.8-6.8-0.6-8.2c1.4-5.8,1.3-6.2,2.5-12.2l-25.4-0.1c-2-0.1-3.7-1.3-4.6-3.1
	c-2.2-3.5-1-7.2-0.3-10.9c0,0,15.6-61,18.1-69.4c1-2.1,3.3-5.5,5.6-6.2c0,0,3-1.4,4.4-1.4L78.7,59.3L78.7,59.3z"/>
<path class="st38" d="M82.3,44.4c0.7-0.5,0.8-0.7,0.4-1.2L83,43l0.6,0.9c0.2,0.3,0.4,0.5,0.7,0.8L84,44.9c-0.4-0.5-0.6-0.5-1.2-0.1
	l-0.9,0.6c0.3,0.4,0.6,0.8,1,1.3s0.7,0.7,1.3,0.3l0.2,0.3c-0.4,0.3-0.8,0.5-1.1,0.8s-0.8,0.6-1.2,0.9l-0.2-0.3
	c0.5-0.3,0.5-0.5,0.2-1c-0.1-0.1-1.3-1.8-1.5-2.1s-1.1-1.5-1.3-1.7c-0.3-0.4-0.6-0.2-1,0c-0.1-0.1-0.2-0.2-0.2-0.3
	c0.7-0.4,0.8-0.5,2.3-1.6c0.7-0.5,0.8-0.6,1.4-1.1c0.5,0.5,0.6,0.7,1.2,1.3l-0.3,0.3c-0.9-0.9-1.2-0.8-2.2,0
	c-0.4,0.3-0.4,0.4-0.2,0.7s0.4,0.5,0.5,0.8l0.8,1.1L82.3,44.4z"/>
<path class="st38" d="M85,38.2l0.6,0.5l4.4,3c0.6,0.4,0.8,0.4,1.2,0.1l0.2,0.3c-0.4,0.3-0.8,0.5-1.1,0.8s-0.8,0.6-1.1,0.9L89,43.5
	c0.3-0.3,0.5-0.5,0.3-0.8c0-0.1-0.1-0.1-0.2-0.2l-1.3-0.9l-1.5,1.2l0.4,1.3c0,0.2,0.1,0.3,0.2,0.4c0.3,0.3,0.6,0.1,0.8-0.1l0.2,0.3
	l-1,0.7c-0.3,0.2-0.6,0.5-0.9,0.7l-0.2-0.3c0.4-0.4,0.3-0.5,0.2-1.2c-0.2-1.2-0.3-1.3-0.6-2.7c-0.1-0.6-0.3-1.1-0.4-1.7l-0.2-0.5
	L84.6,39C84.7,38.7,84.9,38.5,85,38.2z M85.5,39.9c0.2,0.8,0.4,1.5,0.6,2.3l1.2-0.9L85.5,39.9z"/>
<path class="st38" d="M88.6,35.8c0.3-0.2,0.6-0.3,0.8-0.5s0.5-0.3,0.8-0.5c0.9,0.7,1.1,0.8,2.4,1.6c0.7,0.5,1.4,0.9,2.1,1.4
	c0-0.2,0-0.5,0-0.8c-0.1-0.7-0.2-1.3-0.2-2c-0.1-1.4-0.2-1.6-0.3-2.6c0.3-0.1,0.5-0.3,0.7-0.4l0.9-0.5l0.2,0.4
	c-0.7,0.4-0.7,0.6-0.1,1.5l1.5,2.3c0.9,1.4,1,1.5,1.7,1.1l0.2,0.3l-1.2,0.7c-0.4,0.2-0.8,0.5-1.3,0.8l-0.2-0.3
	c0.6-0.4,0.6-0.5,0-1.4l-1.7-2.8c0.2,2.8,0.3,3.3,0.6,5.4l-0.3,0.2c-1.7-1.2-2.2-1.5-4.5-3l1.4,2.5l0.3,0.6c0.4,0.6,0.5,0.8,1.2,0.4
	l0.2,0.3l-1,0.5l-1,0.6l-0.2-0.4c0.4-0.3,0.5-0.4,0.3-0.8s-1.8-3.6-2.2-4.1s-0.6-0.5-1-0.2L88.6,35.8z"/>
<path class="st38" d="M97.2,30.5c0.4-0.2,0.8-0.5,1.3-0.7l1.1-0.7l0.2,0.4c-0.5,0.3-0.6,0.5-0.3,1c0.1,0.3,0.4,0.7,0.6,1
	c0.3,0.5,0.7,1.1,1,1.7s0.5,0.8,0.7,1.1c0.4,0.6,0.6,0.6,1.1,0.3l0.2,0.4c-0.5,0.2-0.8,0.4-1.3,0.7s-0.7,0.4-1.2,0.7l-0.2-0.3
	c0.4-0.3,0.6-0.5,0.3-0.9c-0.1-0.2-0.2-0.3-0.6-1l-1.2-2.1c-0.9-1.5-1-1.5-1.6-1.1L97.2,30.5z"/>
<path class="st38" d="M101.2,28.2c0.4-0.2,0.9-0.4,1.3-0.6l1.2-0.7c0.1,0.1,0.1,0.2,0.2,0.4c-0.7,0.4-0.6,0.5,0,1.8
	c0.4,0.8,0.9,1.7,1.4,2.5c0.5,0.8,0.5,0.9,0.7,1s0.3,0.1,1-0.3c0.8-0.3,1.2-1.2,1-2l0.4-0.1l0.4,1.7c-1.2,0.7-2,1-3.1,1.7l-1.2,0.7
	c-0.1-0.1-0.1-0.2-0.2-0.4c0.7-0.4,0.6-0.5,0-1.7l-1.3-2.4c-0.2-0.3-0.4-0.7-0.6-1c-0.3-0.3-0.6-0.2-0.9,0L101.2,28.2z"/>
<path class="st38" d="M105.8,25.7c0.4-0.2,0.9-0.4,1.3-0.6s0.9-0.4,1.3-0.7c0.1,0.1,0.1,0.2,0.2,0.4c-0.2,0.1-0.5,0.2-0.3,0.6
	c0.1,0.1,0.2,0.3,0.4,0.4l1.9,1.3c0-0.8,0.1-1.8,0-2.4c0-0.1,0-0.3-0.1-0.4c-0.2-0.3-0.4-0.2-0.7-0.1l-0.2-0.4
	c0.4-0.2,0.7-0.3,1.1-0.5s0.7-0.3,1-0.5l0.2,0.3c-0.5,0.2-0.6,0.4-0.7,1.2c0,1-0.1,2.1-0.1,3.1l0.6,1.2c0.4,0.8,0.5,0.8,1.2,0.6
	l0.2,0.4l-1.3,0.6l-1.3,0.7l-0.2-0.3c0.7-0.4,0.6-0.6,0.2-1.4c-0.2-0.4-0.4-0.8-0.6-1.2l-2.6-1.7c-0.8-0.5-1-0.5-1.4-0.3
	C105.9,25.9,105.8,25.8,105.8,25.7z"/>
<path class="st38" d="M123.6,21.5c0.8,1.8,0,3.8-1.8,4.6c-0.1,0-0.2,0.1-0.3,0.1c-1.7,0.8-3.8,0-4.6-1.7c0-0.1-0.1-0.2-0.1-0.2
	c-0.8-1.8,0-3.8,1.8-4.6c0.1,0,0.1-0.1,0.2-0.1c1.7-0.9,3.8-0.2,4.6,1.5C123.5,21.2,123.6,21.4,123.6,21.5z M118.1,23.7
	c0.7,1.6,2.1,2.5,3.3,2s1.7-1.8,1-3.6s-2.1-2.4-3.3-2S117.5,22.2,118.1,23.7z"/>
<path class="st38" d="M123.3,18c0.4-0.1,0.9-0.2,1.3-0.4s0.8-0.3,1.2-0.4c0,0.1,0.1,0.3,0.1,0.4c-0.2,0.1-0.4,0.1-0.3,0.4
	c0.1,0.2,0.2,0.4,0.4,0.5l2.6,3c0.1-0.6,0.2-1.3,0.3-1.9l-1.8-1.9c-0.3-0.3-0.5-0.4-0.8-0.3c0-0.1-0.1-0.3-0.1-0.4
	c0.4-0.1,0.8-0.2,1.1-0.3s0.7-0.3,1.1-0.4c0,0.1,0.1,0.3,0.1,0.4c-0.2,0-0.4,0.1-0.3,0.4c0.1,0.1,0.1,0.2,0.2,0.3l0.7,0.8l0.1-1
	c0-0.1,0-0.3,0-0.4c-0.1-0.3-0.3-0.2-0.4-0.2c-0.1-0.1-0.1-0.3-0.1-0.4c0.3-0.1,0.6-0.2,1-0.3l0.9-0.3c0,0.1,0.1,0.3,0.1,0.4
	c-0.5,0.2-0.6,0.3-0.7,1l-0.3,1.8l1.7,1.8c0.1-1.8,0.2-2.5,0.3-4.1c0-0.2,0-0.3,0-0.5c-0.1-0.3-0.3-0.2-0.6-0.1
	c0-0.1-0.1-0.3-0.1-0.4c0.4-0.1,0.7-0.2,1.1-0.3s0.6-0.2,0.9-0.4c0,0.1,0.1,0.3,0.1,0.4c-0.5,0.2-0.6,0.3-0.7,1.2
	c-0.2,1.8-0.4,4-0.5,6l-0.3,0.1c-0.7-0.8-1.4-1.5-2.1-2.3c-0.2,1-0.3,2.1-0.5,3.1l-0.3,0.1c-2.5-2.9-4.2-4.8-4.3-4.8
	c-0.2-0.3-0.6-0.4-0.9-0.2L123.3,18z"/>
<path class="st38" d="M133.9,14.6l0.9-0.2l0.9-0.3l5.2,3.5c-0.2-0.7-0.7-2.7-0.9-3.2c-0.2-0.8-0.4-0.9-1-0.7c0-0.1-0.1-0.3-0.1-0.4
	L140,13l1-0.3c0,0.1,0.1,0.3,0.1,0.4c-0.7,0.2-0.7,0.4-0.4,1.2c0.4,1.7,0.8,3.4,1.3,5.1l-0.4,0.1l-6-4.1l0.9,3.1
	c0.2,0.7,0.3,0.9,0.3,1.1c0.2,0.5,0.4,0.5,0.9,0.4c0,0.1,0.1,0.3,0.1,0.4l-1,0.2l-1.1,0.3c0-0.1-0.1-0.2-0.1-0.4
	c0.4-0.1,0.6-0.3,0.6-0.6s-0.8-3.6-1-4.2c-0.2-0.9-0.3-1.1-1.1-0.9L133.9,14.6z"/>
<path class="st38" d="M142.9,12.3c0.4-0.1,1-0.2,2.8-0.6c0.9-0.2,1.1-0.2,2-0.4c0.1,0.5,0.3,1.1,0.5,1.6l-0.4,0.1
	c-0.3-0.9-0.5-1.1-2.1-0.8c-0.5,0.1-0.6,0.2-0.5,0.4s0.1,0.7,0.2,1.3c0.1,0.3,0.1,0.6,0.2,0.9l0.7-0.1c1.3-0.3,1.3-0.4,1.2-1.1
	l0.4-0.1c0.1,0.4,0.1,0.8,0.2,1.1s0.1,0.6,0.2,0.9l-0.4,0.1c-0.2-0.8-0.4-0.8-1.4-0.6l-0.8,0.2c0.1,0.4,0.4,1.8,0.5,2.1
	c0.2,0.5,0.4,0.5,1.3,0.3c1.2-0.3,1.5-0.6,1.6-1.7h0.4c-0.1,0.9-0.1,1.1,0,1.8c-0.7,0.1-0.9,0.1-1.7,0.3l-1.5,0.3
	c-0.8,0.2-1,0.2-1.8,0.4c0-0.1-0.1-0.3-0.1-0.4c0.7-0.2,0.7-0.3,0.6-1.1l-0.1-0.8l-0.5-2.2c-0.1-0.4-0.2-0.8-0.2-0.9
	c-0.2-0.8-0.4-0.8-0.9-0.7L142.9,12.3z"/>
<path class="st38" d="M150,10.9c0.6-0.1,0.9-0.1,1.3-0.2l2.1-0.4c1.2-0.3,2.5,0,3.3,0.9c0.4,0.5,0.6,1.1,0.7,1.7
	c0.1,0.8,0,1.7-0.4,2.4c-0.6,0.9-1.6,1.5-2.8,1.6l-1.6,0.2c-0.6,0.1-1,0.2-1.6,0.3l-0.1-0.4c0.3,0,0.6-0.1,0.6-0.5
	c0-0.5-0.1-1-0.2-1.5c-0.1-0.9-0.3-1.8-0.4-2.7s-0.2-1.1-1-1L150,10.9z M152.8,15.7c0.1,0.7,0.2,0.9,1.2,0.8
	c0.6-0.1,1.1-0.3,1.5-0.8c0.6-0.7,0.8-1.7,0.6-2.6c-0.1-1.4-1.2-2.4-2.6-2.4c-0.2,0-0.4,0-0.6,0.1c-0.3,0-0.5,0.1-0.8,0.2
	c0.1,0.6,0.1,0.7,0.2,1.3c0.1,0.9,0.3,1.8,0.4,2.6L152.8,15.7z"/>
<path class="st38" d="M168.4,14.5c-0.4,0.5-0.7,1-1.2,1.1s-1-0.3-1.7-1c-0.3,0.7-1,1.2-1.8,1.3c-0.9,0.1-1.6-0.5-1.8-1.3l0,0
	c0-0.8,0.5-1.6,1.2-1.9c-0.4-0.3-0.7-0.7-0.7-1.2c-0.1-0.8,0.5-1.4,1.3-1.5c0,0,0,0,0.1,0c0.7-0.2,1.3,0.3,1.5,0.9V11
	c0.1,0.7-0.5,1.1-0.9,1.4c0.5,0.3,0.9,0.7,1.3,1.1c0.2-0.2,0.6-0.9,0.6-1.2S166,12,165.7,12v-0.4l1.1-0.1c0.4,0,0.7-0.1,1.1-0.1
	c0,0.1,0,0.2,0,0.4c-0.4,0.1-0.7,0.1-1.3,1c-0.2,0.2-0.4,0.7-0.6,0.9c0.3,0.2,0.4,0.4,0.7,0.6c0.2,0.2,0.5,0.4,0.8,0.4
	c0.2-0.1,0.4-0.2,0.6-0.4L168.4,14.5z M162.8,14c0.1,0.5,0.6,0.9,1.1,0.9l0,0c0.4-0.1,0.8-0.3,1.1-0.7c-0.7-0.6-0.9-0.8-1.6-1.4
	C163.2,13.1,162.7,13.4,162.8,14L162.8,14z M164.4,10.9c0-0.4-0.3-0.7-0.6-0.7s-0.5,0.3-0.5,0.6c0,0,0,0,0,0.1
	c0.1,0.4,0.4,0.8,0.8,1C164.3,11.7,164.5,11.3,164.4,10.9L164.4,10.9z"/>
<path class="st38" d="M179.6,11.5c0.1,1.9-1.4,3.6-3.3,3.7c-0.1,0-0.2,0-0.3,0c-1.9,0.1-3.5-1.3-3.7-3.2c0-0.1,0-0.2,0-0.3
	c-0.1-1.9,1.4-3.5,3.3-3.6c0.1,0,0.1,0,0.2,0c1.9-0.2,3.6,1.2,3.8,3C179.6,11.3,179.6,11.4,179.6,11.5z M173.6,11.6
	c0,1.8,1.1,3,2.4,3s2.2-1.1,2.2-3s-1.1-3-2.4-3S173.6,10.1,173.6,11.6L173.6,11.6z"/>
<path class="st38" d="M181.3,8.2c0.4,0,0.6,0,0.9,0h0.4c0.2,0,1.4,0,1.7,0c0.6,0,1.1,0.2,1.6,0.6c0.3,0.4,0.4,0.8,0.4,1.2
	c0,0.5-0.2,1-0.5,1.4c-0.5,0.6-1.2,0.8-2,0.8c0-0.1,0-0.3,0-0.4c0.5,0,0.9-0.3,1.1-0.7c0.1-0.3,0.2-0.6,0.2-0.9
	c0-0.4-0.1-0.9-0.4-1.2c-0.4-0.3-0.9-0.4-1.3-0.3c0,0.6,0,0.9-0.1,1.6l-0.1,2.6c0,0.6,0,0.8,0,0.9c0,0.6,0.3,0.7,0.8,0.7
	c0,0.1,0,0.3,0,0.4c-0.5,0-0.9-0.1-1.4-0.1s-0.9,0-1.4,0v-0.4c0.7,0,0.7-0.3,0.8-0.9c0-0.2,0-0.5,0-0.7l0.1-2.6c0-0.5,0-0.8,0-1.1
	c0-0.6-0.2-0.6-0.7-0.7C181.3,8.4,181.3,8.3,181.3,8.2z"/>
<path class="st38" d="M187.4,8.3c0.5,0.1,1,0.1,2.9,0.2c0.9,0.1,1.1,0.1,2,0.1c0,0.5,0,1.1,0,1.6h-0.4c-0.1-0.9-0.2-1.2-1.8-1.3
	c-0.5,0-0.6,0-0.6,0.2s-0.1,0.7-0.1,1.3l-0.1,0.9h0.7c1.3,0.1,1.4,0,1.4-0.7h0.4c0,0.4-0.1,0.8-0.1,1.2s0,0.6,0,1h-0.4
	c0-0.8-0.2-0.8-1.2-0.9h-0.8c0,0.4-0.1,1.8-0.1,2.2c0,0.6,0.3,0.6,1.1,0.7c1.3,0.1,1.6-0.2,2-1.2l0.4,0.1c-0.3,0.8-0.3,1-0.5,1.7
	c-0.7-0.1-0.9-0.1-1.7-0.1l-1.6-0.1c-0.8,0-1.1,0-1.9-0.1v-0.4c0.7,0,0.8-0.1,0.8-1l0.1-0.8c0.1-0.8,0.1-1.5,0.1-2.3
	c0-0.4,0-0.8,0-1c0-0.8-0.1-0.9-0.7-0.9L187.4,8.3z"/>
<path class="st38" d="M194.6,8.8c0.4,0.1,0.7,0.1,1.1,0.1s1.6,0.2,1.9,0.2c0.5,0,1.1,0.2,1.5,0.6c0.3,0.3,0.5,0.8,0.4,1.3
	c0,0.3-0.2,0.6-0.4,0.9c-0.3,0.3-0.6,0.6-1,0.7c0.7,1.4,0.8,1.6,1.3,2.4c0.3,0.5,0.5,0.7,0.9,0.8c0,0.1,0,0.3,0,0.4
	c-1.6-0.2-1.7-0.2-2-0.8l-1.3-2.7h-0.6c-0.1,0.5-0.1,1-0.2,1.6c-0.1,0.9-0.1,1.1,0.7,1.2c0,0.1,0,0.3,0,0.4
	c-0.5-0.1-0.9-0.1-1.4-0.2s-1-0.1-1.5-0.1c0-0.1,0-0.3,0-0.4c0.4,0,0.7,0,0.8-0.4s0.2-1.7,0.3-2.2s0.2-2.5,0.2-2.7
	c0-0.6-0.3-0.6-0.7-0.7C194.6,9.1,194.6,8.9,194.6,8.8z M196.4,11.1c0,0.4-0.1,0.7-0.1,1.1c0.6,0,1.7,0.1,1.9-1.3
	c0.1-0.4,0-0.7-0.3-1c-0.4-0.3-0.8-0.4-1.3-0.4C196.5,10.2,196.5,10.6,196.4,11.1L196.4,11.1z"/>
<path class="st38" d="M205.4,9.9l0.1,0.8c0.3,1.7,0.6,3.5,1,5.2c0.1,0.7,0.3,0.8,0.8,0.9l-0.1,0.4c-0.5-0.1-0.9-0.2-1.3-0.2
	s-1-0.1-1.4-0.2c0-0.1,0-0.3,0.1-0.4c0.4,0,0.7,0,0.8-0.3c0-0.1,0-0.2,0-0.2l-0.2-1.6l-1.9-0.3c-0.2,0.4-0.4,0.8-0.6,1.2
	c-0.1,0.1-0.1,0.3-0.2,0.4c-0.1,0.4,0.4,0.5,0.6,0.5l-0.1,0.4c-0.4-0.1-0.8-0.1-1.2-0.2l-1.2-0.1l0.1-0.4c0.5,0,0.6-0.1,1-0.7
	c0.7-1,0.8-1.1,1.5-2.4c0.3-0.5,0.6-1,0.9-1.5c0.1-0.2,0.2-0.3,0.3-0.5l0.3-0.6L205.4,9.9z M204.5,11.4l-1.1,2.1l1.5,0.2
	C204.8,12.9,204.7,12.2,204.5,11.4L204.5,11.4z"/>
<path class="st38" d="M209.1,10.5l0.1,0.1c0.5,0.2,1.1,0.4,1.6,0.4l2.1,0.4c0.1,0,0.3,0,0.4,0.1c0.4,0.1,0.5,0,0.7-0.1l0.3,0.1
	c-0.3,0.5-0.5,1.1-0.8,1.6l-0.4-0.1c0.1-0.1,0.1-0.3,0.1-0.4c0.1-0.7-0.4-0.8-1.6-0.9l-0.8,4.7c-0.2,0.9-0.2,1.1,0.6,1.2
	c0,0.1-0.1,0.3-0.1,0.4l-1.4-0.3c-0.5-0.1-1-0.1-1.5-0.2c0-0.1,0.1-0.3,0.1-0.4c0.8,0.1,0.9,0,1.1-1.5s0.5-2.8,0.8-4.1
	c-1.1-0.2-1.5-0.3-2.1,0.8l-0.4-0.1c0.4-0.8,0.5-1,0.8-1.6L209.1,10.5z"/>
<path class="st38" d="M215.4,11.8c0.4,0.1,0.9,0.2,2.8,0.7c0.9,0.2,1.1,0.2,2,0.4c-0.1,0.5-0.2,1.1-0.2,1.6h-0.4
	c0.1-0.9,0-1.2-1.6-1.6c-0.5-0.1-0.6-0.1-0.6,0.1s-0.2,0.7-0.3,1.3l-0.2,0.9l0.7,0.1c1.3,0.3,1.3,0.2,1.5-0.5l0.4,0.1
	c-0.1,0.4-0.2,0.8-0.3,1.1c-0.1,0.4-0.1,0.6-0.2,1l-0.4-0.1c0.2-0.8-0.1-0.9-1-1.1l-0.8-0.2c-0.1,0.4-0.4,1.8-0.5,2.1
	c-0.1,0.6,0.2,0.7,1,0.9c1.2,0.3,1.6,0.1,2.2-0.9l0.4,0.2c-0.4,0.8-0.5,1-0.8,1.6c-0.7-0.2-0.9-0.2-1.7-0.4l-1.5-0.3
	c-0.8-0.2-1-0.2-1.8-0.4l0.1-0.4c0.7,0.1,0.8,0,1-0.8c0.1-0.3,0.1-0.5,0.2-0.8c0.2-0.7,0.3-1.5,0.5-2.2c0.1-0.4,0.2-0.8,0.2-0.9
	c0.1-0.8,0-0.9-0.6-1L215.4,11.8z"/>
<path class="st38" d="M222.5,13.4c0.5,0.2,0.8,0.3,1.3,0.4l2,0.5c1.2,0.2,2.2,1.1,2.6,2.2c0.2,0.6,0.2,1.2,0,1.8
	c-0.2,0.8-0.7,1.5-1.4,2c-1,0.6-2.1,0.7-3.2,0.4c-0.2-0.1-1.4-0.4-1.6-0.5c-0.5-0.1-1-0.3-1.5-0.4c0-0.1,0.1-0.3,0.1-0.4
	c0.3,0.1,0.6,0.1,0.8-0.2s0.3-0.9,0.5-1.5c0.2-0.9,0.5-1.8,0.7-2.6s0.3-1.1-0.4-1.4C222.4,13.7,222.4,13.6,222.5,13.4z M223,19.1
	c-0.2,0.7-0.2,0.9,0.7,1.2c0.6,0.2,1.2,0.2,1.7,0c0.8-0.4,1.4-1.2,1.6-2.1c0.5-1.3-0.1-2.7-1.4-3.2c-0.2-0.1-0.4-0.1-0.6-0.2
	c-0.2-0.1-0.5-0.1-0.8-0.2c-0.2,0.6-0.2,0.7-0.4,1.2l-0.7,2.6C223.2,18.6,223.1,18.8,223,19.1L223,19.1z"/>
<path class="st38" d="M232.5,21.4c-0.2,0.8,0.2,1.7,0.9,2c0.6,0.3,1.2,0,1.5-0.6l0,0c0.2-0.5-0.1-1-0.5-1.4
	c-0.9-1.2-1.4-1.9-1.1-2.8c0.4-1.1,1.7-1.6,2.7-1.1c0,0,0.1,0,0.1,0.1c0.5,0.2,0.9,0.4,1.2,0.7c-0.1,0.6-0.2,0.7-0.3,1.4l-0.5-0.1
	c0-0.5,0.1-1.3-0.8-1.6c-0.5-0.2-1.1,0-1.3,0.5c0,0,0,0,0,0.1c-0.1,0.4,0,0.9,0.3,1.2c0.2,0.3,0.5,0.6,0.8,1c0.8,0.8,0.8,2.2-0.1,3
	c-0.7,0.6-1.6,0.8-2.4,0.3c-0.6-0.2-1.1-0.5-1.5-0.9c0.1-0.5,0.2-1.1,0.2-1.6L232.5,21.4z"/>
<path class="st38" d="M239.6,18.9c0.4,0.2,0.9,0.4,1.3,0.6l1.3,0.5l-0.1,0.4c-0.6-0.2-0.7-0.1-1,0.4c-0.1,0.3-0.3,0.8-0.5,1.1
	l-0.7,1.8c-0.3,0.6-0.4,0.9-0.4,1.1c-0.2,0.7-0.1,0.8,0.4,1l-0.2,0.4c-0.5-0.2-0.9-0.4-1.3-0.6s-0.8-0.3-1.3-0.5l0.1-0.4
	c0.5,0.2,0.7,0.2,0.9-0.3c0.2-0.3,0.3-0.7,0.4-1c0.3-0.8,0.6-1.5,0.9-2.2c0.6-1.6,0.6-1.6-0.1-2C239.5,19.1,239.5,19,239.6,18.9z"/>
<path class="st38" d="M243.9,20.6l0.9,0.4l0.9,0.4c0.6,2,1.2,4,1.8,6c0.3-0.7,1.2-2.5,1.4-3.1c0.3-0.7,0.3-0.9-0.3-1.2
	c0-0.1,0.1-0.2,0.2-0.4l1,0.5l1,0.4l-0.2,0.4c-0.6-0.3-0.8-0.1-1.1,0.7c-0.8,1.6-1.5,3.2-2.3,4.8l-0.4-0.2c-0.7-2.3-1.3-4.7-2-7
	l-1.4,3c-0.3,0.7-0.4,0.9-0.4,1c-0.2,0.5,0,0.6,0.4,0.8c0,0.1-0.1,0.2-0.2,0.4c-0.3-0.2-0.6-0.3-1-0.5l-1.1-0.5
	c0.1-0.1,0.1-0.2,0.2-0.4c0.4,0.2,0.6,0.2,0.8-0.1s1.6-3.3,1.9-3.9c0.4-0.9,0.5-1.1-0.2-1.4L243.9,20.6z"/>
<path class="st38" d="M254.7,33c-0.9,0-1.7-0.3-2.5-0.7c-1.7-0.7-2.5-2.7-1.8-4.4c0.1-0.1,0.1-0.2,0.2-0.4c1-1.8,3.2-2.4,5-1.5
	l0.1,0.1c0.7,0.4,1.3,0.9,1.9,1.5l-0.6,1.6l-0.4-0.1c0.1-0.4,0.1-0.9,0-1.3c-0.2-0.5-0.6-1-1.1-1.2c-0.6-0.3-1.4-0.4-2-0.1
	c-0.7,0.3-1.3,0.8-1.6,1.5c-0.8,1.5-0.6,3.1,0.7,3.8c1,0.5,2.2,0.3,2.9-0.6l0.3,0.2L254.7,33z"/>
<path class="st38" d="M259.5,28.4c0.4,0.2,0.8,0.5,2.5,1.5c0.8,0.5,1,0.5,1.8,0.9c-0.3,0.5-0.5,1-0.7,1.5l-0.4-0.2
	c0.3-0.9,0.3-1.2-1.1-2c-0.5-0.3-0.5-0.3-0.7-0.1s-0.4,0.6-0.7,1.1l-0.5,0.8l0.6,0.3c1.2,0.7,1.2,0.6,1.6,0l0.4,0.2
	c-0.2,0.3-0.4,0.7-0.6,1s-0.3,0.5-0.4,0.9l-0.4-0.2c0.4-0.7,0.2-0.8-0.7-1.4l-0.7-0.4c-0.2,0.4-0.9,1.6-1.1,1.9
	c-0.2,0.5,0,0.7,0.7,1.1c0.7,0.6,1.7,0.5,2.3-0.1c0,0,0,0,0.1-0.1l0.3,0.3c-0.4,0.4-0.8,0.9-1.2,1.3c-0.6-0.4-0.8-0.5-1.5-0.9
	l-1.4-0.8c-0.7-0.4-0.9-0.5-1.6-0.9l0.2-0.4c0.6,0.3,0.7,0.2,1.2-0.5l0.4-0.7l1.1-2c0.2-0.4,0.4-0.7,0.5-0.9
	c0.4-0.7,0.2-0.8-0.2-1.1L259.5,28.4z"/>
<path class="st38" d="M270,34.6l0.1,0.3c-0.3,0.5-0.4,0.6-0.7,1.2l-1.9,3.1c-0.5,0.8-0.5,1,0.2,1.4c-0.1,0.1-0.1,0.2-0.2,0.3
	c-0.4-0.3-0.9-0.6-1.3-0.8s-0.9-0.5-1.3-0.7c0.1-0.1,0.1-0.2,0.2-0.3c0.5,0.3,0.7,0.4,1,0c0.1-0.2,0.5-0.7,0.6-0.9
	c0.5-0.8,0.9-1.5,1.4-2.3c0.2-0.4,0.3-0.5,0.5-0.8l-0.8-0.1c0-0.1,0-0.3,0-0.4H270z"/>
<path class="st38" d="M269.3,41.9c0.6,0,1.2,0,1.8-0.2c0.6-0.3,1.2-0.6,1.7-1.1c-0.4,0.1-0.9,0-1.3-0.3c-0.8-0.5-1-1.5-0.5-2.3
	c0,0,0-0.1,0.1-0.1c0.6-1,1.8-1.4,2.9-0.8l0.1,0.1c1,0.6,1.3,1.8,0.5,3.2c-0.5,0.8-1.2,1.3-2,1.7c-1,0.4-2.1,0.5-3.2,0.3
	C269.3,42.1,269.3,42,269.3,41.9z M273.5,39.5c0.1-0.2,1-1.6,0.2-2.1c-0.3-0.2-0.9-0.2-1.4,0.7s-0.5,1.7,0,1.9
	c0.2,0.1,0.5,0.2,0.8,0.1C273.3,39.9,273.4,39.7,273.5,39.5L273.5,39.5z"/>
<path class="st38" d="M279.2,40.2c0,0.1,0.1,0.2,0.1,0.3c-0.3,0.5-0.4,0.6-0.8,1.1c-0.7,1-1.3,2.1-2,3.1c-0.5,0.8-0.5,0.9,0.2,1.4
	l-0.2,0.3c-0.4-0.3-0.8-0.6-1.2-0.9s-0.9-0.5-1.3-0.7l0.2-0.3c0.4,0.3,0.7,0.4,1,0c0.1-0.1,0.5-0.7,0.6-0.8l1.5-2.3l0.5-0.8
	l-0.8-0.1c0-0.1,0-0.3,0-0.4L279.2,40.2z"/>
<path class="st38" d="M284.3,43.4c-0.8,1.2-1.5,2.3-2.3,3.5l0.6,0.4l-0.5,0.7l-0.6-0.4c-0.3,0.5-0.6,1-1,1.5l-0.9-0.6l1-1.5l-2-1.3
	l0.6-0.7l3.8-1.8L284.3,43.4z M282.8,43.7l-3.2,1.5l1.5,1L282.8,43.7z"/>
<linearGradient id="SVGID_53_" gradientUnits="userSpaceOnUse" x1="120.9783" y1="240.2368" x2="120.9783" y2="361.6168" gradientTransform="matrix(1.17 0 0 1.17 29.0403 -254.5711)">
	<stop  offset="0" style="stop-color:#FFE766"/>
	<stop  offset="0.5" style="stop-color:#FCB131"/>
	<stop  offset="0.83" style="stop-color:#FED857"/>
	<stop  offset="1" style="stop-color:#FFE766"/>
</linearGradient>
<path class="st39" d="M39.8,168.6c-1.8,0-3.8,0.1-4.8-1.8s-0.4-4.3,0.2-6.2c1.3-5.3,2.4-10.5,3.6-15.8l-0.2-0.1l-28.4-0.1
	c-1.4-0.3-3.1-0.6-3.8-2.1c-0.7-1.1-0.3-2.4-0.3-3.6l7.2-26.7l5.5-20.6l6.1-22.5c0.8-2.3,2.6-4,4.9-4.7c5.5-0.4,49.3-0.1,49.3-0.1
	c4.9,0,8.2-5,12.1-7.4c28.6-21.8,61.9-32.8,99.7-30.3c32.1,2.9,60.4,14.5,84.9,35.5c3.5,2.7,8.5,1.5,12.9,1.8h40.7
	c2.2-0.1,4.2,1,5.2,2.9c0.7,1.7,0.8,3.5,0.5,5.2l-7,28.3l-10.2,40.6c-0.6,1.6-2.1,2.8-3.8,3.1l-27.2,0.1l-0.5,0.8
	c-1.4,6.3-3.2,12.1-4.8,18.3c-0.9,2.8-3.2,4.8-6.1,5.4H39.8z"/>
<linearGradient id="SVGID_54_" gradientUnits="userSpaceOnUse" x1="121.2046" y1="332.2568" x2="121.2046" y2="310.2468" gradientTransform="matrix(1.17 0 0 1.17 29.0403 -254.5711)">
	<stop  offset="0" style="stop-color:#009DDD"/>
	<stop  offset="0.17" style="stop-color:#0093D2"/>
	<stop  offset="0.48" style="stop-color:#0077B6"/>
	<stop  offset="0.87" style="stop-color:#004A87"/>
	<stop  offset="1" style="stop-color:#003976"/>
</linearGradient>
<path class="st40" d="M273.4,68.2c1.8,1.1,3.8,1.8,5.9,1.9l15.2,0.1h30.7c0.9,0,1.8,0.5,2.4,1.2c0.6,0.8,0.8,1.8,0.6,2.8l-4,16
	l-10.3,40.3h-0.1c-0.8,2.6-0.6,6-3.7,7.3l-1.9,0.4c-7.5-0.1-12.4,0.1-20.4,0c0.8-5.1,3.7-10-0.2-11.2l-1.7-0.3H46.6
	c-5.2,1.3-4.2,8.3-6.1,12l-24.1,0.1c-1.3-0.2-2.4-1.1-2.9-2.3l0.1-2.1l3.8-14.4l11.7-43.9c0.7-1.8,1.2-5.1,4-5.2l46.8-0.1
	c8.3-0.4,12.9-8.9,19.8-12.7c23.2-16.2,50.7-25,79-25.5C215.3,32.6,246.9,44.7,273.4,68.2z"/>
<linearGradient id="SVGID_55_" gradientUnits="userSpaceOnUse" x1="123.9208" y1="218.8668" x2="123.9208" y2="231.2868" gradientTransform="matrix(1.17 0 0 1.17 6.8203 -148.1211)">
	<stop  offset="0" style="stop-color:#ED1B2E"/>
	<stop  offset="0.3" style="stop-color:#D81430"/>
	<stop  offset="1" style="stop-color:#A90533"/>
</linearGradient>
<path class="st41" d="M167.4,83.8c5.9,1.4,12.1,2.8,18.7,2.2c4-0.2,7.8-1,11.8-1.3c-0.5,2.8-1.7,5.3-2.1,8.2l0.1,0.1l7.1,0.1
	c-0.3,1.9-1,3.6-1.5,5.4c-2.4,0.4-5,0.2-7.4,0.4l-0.3,0.6c-1.3,4.8-2.7,9.6-4,14.4c0,0.4,0.3,0.7,0.7,0.8c2.7-1,5-3,7.2-5.2
	c0.4,0,0.7,0.5,1,0.8c-2.7,3.9-6.4,8.3-10.7,10.2c-1.5,0.7-3.2,0.7-4.7,0c-0.8-0.4-1.5-1.1-1.9-1.9l0.1-1.4
	c1.7-5.9,3.5-11.9,5.2-17.7c-1.8-0.5-3.8,0-5.8-0.2c-0.1-1.5,0.8-2.7,0.8-4.2l0.4-0.4c2.1-0.5,4.2-0.8,6.4-1.1
	c0.8-1.6,1.3-3.3,1.6-5l-0.1-0.1c-12.1,3-24.7,2.5-36.5-1.4c-8.9-3.2-18.4-5.8-28.8-4.8c-8.7,0.4-16.5,3.7-23.9,7.1
	c-0.2-0.4-0.1-0.9,0.1-1.3l0.7-0.6c13.3-6.6,28.4-12.1,44.5-8.9C153.5,79.6,160.4,81.7,167.4,83.8z"/>
<linearGradient id="SVGID_56_" gradientUnits="userSpaceOnUse" x1="48.5759" y1="218.8668" x2="48.5759" y2="231.2868" gradientTransform="matrix(1.17 0 0 1.17 6.8203 -148.1211)">
	<stop  offset="0" style="stop-color:#ED1B2E"/>
	<stop  offset="0.3" style="stop-color:#D81430"/>
	<stop  offset="1" style="stop-color:#A90533"/>
</linearGradient>
<path class="st42" d="M98,78.3c0,0.5-0.2,1.5-0.8,1.7c-2.8,0.4-5.8,1.1-7.6,3.6c-1.2,1.9-1.9,4-2.3,6.2c-1.3,8.2-2.9,16.3-3.2,24.9
	c0,1.5,0.8,3,2.2,3.6c1.4,0.6,2.9,1,4.4,1.3c0,0.5-0.1,1-0.3,1.5c-7.7-0.1-15.2,0.1-22.8,0.3c-0.4-0.5,0-1.1,0.1-1.6
	c2.2-0.8,4.8-1,6.3-3.4c1.3-2.2,1.4-4.9,1.8-7.5c0.6-6,2.2-11.7,2.8-17.7L78.4,91c-3,4.7-5.8,9.5-8.6,14.4c-3.3,5.2-6.2,10.8-9.6,16
	c-1.5-0.4-3-1-4.3-1.8c-0.3-1.5-0.5-2.9-0.6-4.4L52.7,90l-0.2-0.3c-3.3,8.3-6.2,16.7-9.2,25.1c-0.2,0.9-0.2,1.7,0.1,2.6
	c1.3,1.9,3.5,1.8,5.3,2.4c0.1,0.5,0,1.1-0.3,1.5c-6.3-0.1-12.6,0-19,0c-0.1-0.6,0.3-1,0.3-1.5c7.5-0.7,10.2-9,12.3-14.8
	c2.5-6.1,4.7-12.4,7.2-18.6c0.2-0.8,0-1.6-0.6-2.2c-1.8-1.3-4-1.6-6.1-2.2c-0.3-0.5,0.2-0.9,0.2-1.4c5.7-0.2,11.5-0.4,17.2-0.3
	l0.2,0.3c1.3,8.7,2.1,17.5,3.6,26.1l0.2-0.1c5.7-9.3,11.1-18.7,16.5-28.1l0.3-0.2C86.6,78.3,92.4,78.2,98,78.3z"/>
<linearGradient id="SVGID_57_" gradientUnits="userSpaceOnUse" x1="197.76" y1="218.8668" x2="197.76" y2="231.2868" gradientTransform="matrix(1.17 0 0 1.17 6.8203 -148.1211)">
	<stop  offset="0" style="stop-color:#ED1B2E"/>
	<stop  offset="0.3" style="stop-color:#D81430"/>
	<stop  offset="1" style="stop-color:#A90533"/>
</linearGradient>
<path class="st43" d="M247.5,83.3c0.9,1.6,0.7,3.6-0.3,5.1c-1.1,1.5-3,2.1-4.8,1.6c-1.5-0.4-2.6-1.5-3.2-2.9c-0.4-1.7,0-3.6,1.2-4.9
	c1.2-1,2.7-1.3,4.2-1C245.9,81.5,246.9,82.3,247.5,83.3z M238,95.5c-4,2.1-7.2,6.2-9.6,9.8c0.3,0.4,0.7,0.7,1.1,0.8
	c1.6-1.7,3.4-3.2,5.3-4.4c0.5-0.3,1.1-0.7,1.4,0.1c-1.9,5.2-4.3,10.1-6.1,15.3c-0.1,1-0.6,2.2,0,3.1c0.8,1.5,2.6,1.5,4.2,1.3
	c5.2-1.5,9.8-6.2,13.2-10.7c-0.4-0.3-0.6-0.9-1.2-0.9c-2.4,2.1-4.7,4.3-7.2,5.6c-0.3-0.2-0.6-0.3-0.6-0.7l4.3-11.1
	c0.7-2.5,2.9-5.7,0.6-8.1C242.2,94.3,239.5,94.8,238,95.5L238,95.5z"/>
<linearGradient id="SVGID_58_" gradientUnits="userSpaceOnUse" x1="134.7366" y1="218.8668" x2="134.7366" y2="231.2868" gradientTransform="matrix(1.17 0 0 1.17 6.8203 -148.1211)">
	<stop  offset="0" style="stop-color:#ED1B2E"/>
	<stop  offset="0.3" style="stop-color:#D81430"/>
	<stop  offset="1" style="stop-color:#A90533"/>
</linearGradient>
<path class="st44" d="M177.1,96.2c1.5,2.9,0,6.2-0.9,8.9l-3.7,9c0,0.4,0.3,0.7,0.7,0.8c2.7-1.6,5.1-3.5,7.3-5.7
	c0.4,0.2,0.8,0.5,1.1,0.9c-3.5,4.9-8.4,10.3-14.4,11.2c-1,0.2-1.9-0.1-2.7-0.7c-0.7-1-0.9-2.2-0.5-3.4c2.1-5.9,4.6-11.6,6.8-17.5
	c-0.1-0.2-0.2-0.4-0.4-0.6c-2,0.8-3.7,2.1-4.9,3.8c-3.7,4.8-5.8,10.3-9,15.4c-1,1.4-2.5,3.2-4.4,3.1c-1.1,0.1-2.1-0.6-2.5-1.6
	c-0.9-3.8,1.4-6.8,2.3-10.3c1.2-3.2,2.5-6,3.6-9.2c-1.9-0.5-3.4,1.2-4.7,2.5l-2.1,2.8c-0.5,0.2-1-0.2-1.3-0.5
	c1.7-4.3,5.3-10.3,10.8-10.5c1.6,0,3.6,0,4.5,1.6c0.3,0.8,0.4,1.6,0.2,2.4l-4,8.6c0,0.4,0.5,0.5,0.7,0.7l0.5-0.1
	c3.1-5,6.6-11.8,13.1-13.2C174.8,94.2,176.3,94.9,177.1,96.2z"/>
<linearGradient id="SVGID_59_" gradientUnits="userSpaceOnUse" x1="216.5217" y1="218.8668" x2="216.5217" y2="231.2868" gradientTransform="matrix(1.17 0 0 1.17 6.8203 -148.1211)">
	<stop  offset="0" style="stop-color:#ED1B2E"/>
	<stop  offset="0.3" style="stop-color:#D81430"/>
	<stop  offset="1" style="stop-color:#A90533"/>
</linearGradient>
<path class="st45" d="M260.6,96.8c0.5,1-0.1,1.9-0.4,2.8c-1.4,3.9-2.8,7.7-4.1,11.6c0.3,0.3,0.8,0.7,1.2,0.4
	c2.7-4.8,4.8-9.9,8.8-14.2c1.6-1.4,3.6-2.7,6-1.9c1.3,0.5,2.2,1.7,2.5,3.1c0.4,2.8-0.8,4.9-2.6,6.7c-1.6,1.1-3.2,2.3-5.2,2.4
	l-0.3-0.2c0.1-1.5,1-2.8,0.5-4.3c-0.3-0.5-0.9-0.7-1.5-0.6c-2.7,2-4,5.1-5.5,7.8c-2,3.6-3.4,7.3-6,10.6c-0.9,0.8-2.1,1.1-3.3,0.8
	c-1.1-0.4-2-1.3-2.2-2.5l-0.1-1.7h0.1c1.4-5.5,3.3-10.9,4.8-16.3c-0.4-0.3-0.9-0.1-1.3,0.1c-2.2,1.1-3.7,3.3-5.1,5.3
	c-0.5-0.1-0.9-0.4-1.2-0.7c1.8-4.5,5.2-9.9,10.5-10.6C257.9,95.2,259.7,95.2,260.6,96.8z"/>
<linearGradient id="SVGID_60_" gradientUnits="userSpaceOnUse" x1="107.1725" y1="218.8668" x2="107.1725" y2="231.2868" gradientTransform="matrix(1.17 0 0 1.17 6.8203 -148.1211)">
	<stop  offset="0" style="stop-color:#ED1B2E"/>
	<stop  offset="0.3" style="stop-color:#D81430"/>
	<stop  offset="1" style="stop-color:#A90533"/>
</linearGradient>
<path class="st46" d="M145.7,96.1c0.9,3.4-1.2,6.3-2,9.4c-1.4,3.3-2.4,6.7-3.6,10c0.1,0.2,0.4,0.3,0.6,0.2c2.7-1.7,5.2-3.7,7.5-6
	c0.4,0.2,0.9,0.4,1,0.9c-3.8,5-9,11.5-15.9,10.6c-0.5-0.3-1-0.3-1.3-0.9c1.6-4.2,3.5-8.2,5-12.4l-0.6-0.6c-2.3,3-4.3,6.2-7.1,8.9
	c-2.7,2.6-5.7,5.1-9.4,5.2c-1.1-0.5-2-1.2-2.8-2.1c1.5-4.9,3.2-9.7,5.2-14.4c0.5-1.2,1-2.5,1.4-3.8c-0.5-0.8-1.1,0.1-1.7,0.2
	c-2,1.4-3.9,3-5.6,4.7c-0.5,0-0.8-0.4-1.1-0.8c2.8-4.2,6.6-9,11.6-10.5c1.6-0.4,3.3,0.2,4.2,1.5c0.8,2.2-0.3,4.6-0.9,6.7l-4.9,12.8
	c0,0.3,0.2,0.5,0.4,0.6c4.4-2.7,7.2-7.3,9.6-11.5c1.9-3.3,2.8-7.2,6.2-9.8C142.8,94.3,144.9,94.6,145.7,96.1z"/>
<linearGradient id="SVGID_61_" gradientUnits="userSpaceOnUse" x1="81.7392" y1="218.8668" x2="81.7392" y2="231.2868" gradientTransform="matrix(1.17 0 0 1.17 6.8203 -148.1211)">
	<stop  offset="0" style="stop-color:#ED1B2E"/>
	<stop  offset="0.3" style="stop-color:#D81430"/>
	<stop  offset="1" style="stop-color:#A90533"/>
</linearGradient>
<path class="st47" d="M113.6,98.4c2,4.8,0,10.2-1.8,14.5c-1.9,4-5.8,8.1-10.3,8.7c-3,0.4-6.6,0.6-9-1.5c-3.1-3.6-1.9-9.6-0.5-13.7
	c1.6-4.7,5.6-9.6,10.6-10.9C106.3,94.7,111.5,94.3,113.6,98.4z M105.3,97.4c-0.9,0.3-1.6,0.8-2.1,1.6c-2.4,3.3-3.6,7.2-4.7,11.2
	c-0.4,2.7-1.3,5.5-0.5,8.3c0.3,0.6,0.9,1,1.6,0.9s1.3-0.4,1.8-0.9c2.6-3.3,3.7-7.4,4.8-11.4c0.4-2.8,1.6-5.9,0.6-8.8
	C106.6,97.6,105.9,97.2,105.3,97.4L105.3,97.4z"/>
<linearGradient id="SVGID_62_" gradientUnits="userSpaceOnUse" x1="177.4716" y1="218.8668" x2="177.4716" y2="231.2868" gradientTransform="matrix(1.17 0 0 1.17 6.8203 -148.1211)">
	<stop  offset="0" style="stop-color:#ED1B2E"/>
	<stop  offset="0.3" style="stop-color:#D81430"/>
	<stop  offset="1" style="stop-color:#A90533"/>
</linearGradient>
<path class="st48" d="M226.8,94.7c0.6,0.6,0.8,1.5,0.5,2.2c-1.9,6.3-4.3,12.3-6.4,18.5c0,0.2,0.2,0.4,0.4,0.5
	c2.9-1.4,5.4-3.8,7.9-6.3c0.5,0.1,0.9,0.4,1.2,0.8c-2.2,3-4.7,5.7-7.5,8.1c-2.4,1.8-5.1,3.7-8.3,2.7c-0.7-0.2-1.3-0.7-1.7-1.3
	c1.5-3.8,3.2-7.5,4.8-11.2c-0.1-0.3-0.4-0.6-0.7-0.7l-0.4,0.1c-3.9,4.8-8.2,10.5-13.9,13.3c-1.7,0-2.9-1.3-4.1-2.5
	c1.7-9.2,3.8-20.4,14.3-23.7c3.2-2,6.1,0.6,8.6,2.2C222.8,96.3,224.3,92.8,226.8,94.7z M212.3,98.4c-2.4,5.1-4.4,10.4-5.8,15.8
	c0,0.3,0.4,0.5,0.7,0.5c2.2-1.8,4.2-3.7,6.1-5.9c1.8-2,3.4-4.2,4.8-6.4C216.4,100.8,214.4,99.4,212.3,98.4z"/>
<linearGradient id="SVGID_63_" gradientUnits="userSpaceOnUse" x1="241.0698" y1="218.8668" x2="241.0698" y2="231.2868" gradientTransform="matrix(1.17 0 0 1.17 6.8203 -148.1211)">
	<stop  offset="0" style="stop-color:#ED1B2E"/>
	<stop  offset="0.3" style="stop-color:#D81430"/>
	<stop  offset="1" style="stop-color:#A90533"/>
</linearGradient>
<path class="st49" d="M294.4,98.9c0.6,1.1,0.5,2.3-0.2,3.3c-4.3,3.9-9.4,5.9-14.1,9c-0.6,1.2-1,2.6-0.9,4c-0.1,0.6,0.1,1.1,0.5,1.6
	c1.4,0.9,3-0.2,4.3-0.6c6.2-3,10.9-9.7,18.1-10.2c1.4,0.1,3,0,3.8,1.3c0.3,0.7,0,1.5-0.5,2c-2.2,1.6-5.5-0.1-7.9,1.1
	c-6,1.5-9.9,8-15.4,10.6c-2,0.7-3.9,1.8-6.2,1.5c-1.6-0.9-3.8-2.2-4.1-4.2c0-5.4,1.4-10.7,4-15.4c2.7-4.1,7.4-5.4,11.7-6.9
	C290.2,94.8,292.9,96.5,294.4,98.9z M285,99.6c-0.4-0.2-0.9-0.2-1.3,0.2c-1.6,2.3-2.1,5.1-3,7.6c0,0.3-0.4,1.2,0.3,1.1
	c2.1-1.4,4.4-2.5,6-4.6c0.2-0.8,0.1-1.6-0.3-2.4C286.5,100.8,285.8,100.1,285,99.6z"/>
<rect x="118.1" y="63.5" transform="matrix(0.8875 -0.4608 0.4608 0.8875 -16.4618 62.3537)" class="st36" width="2.8" height="2.8"/>
<rect x="246.9" y="68.2" transform="matrix(0.5335 -0.8458 0.8458 0.5335 56.9464 242.5352)" class="st36" width="2.8" height="2.8"/>
<path class="st19" d="M109.9,58.1c0,0,29.2-20,70.2-19.8c48.5,0.2,79.1,25.9,79.1,25.9"/>
<path class="st19" d="M131.4,70.3c0,0,18-11.2,49.7-11.2c19.4,0.1,38.3,5.3,55.1,14.9"/>
<linearGradient id="SVGID_64_" gradientUnits="userSpaceOnUse" x1="115.7669" y1="118.5768" x2="115.7669" y2="127.9868" gradientTransform="matrix(1.17 0 0 1.17 18.5103 -36.4011)">
	<stop  offset="0" style="stop-color:#FFE766"/>
	<stop  offset="1" style="stop-color:#FCB131"/>
</linearGradient>
<path class="st50" d="M169.6,81.8c5.9,1.4,12.1,2.8,18.7,2.2c4-0.2,7.8-1,11.8-1.3c-0.5,2.8-1.7,5.3-2.1,8.2l0.1,0.1l7.1,0.1
	c-0.4,1.9-1,3.6-1.5,5.4c-2.4,0.4-5,0.2-7.4,0.4l-0.3,0.6c-1.3,4.8-2.7,9.6-4,14.4c0,0.4,0.3,0.7,0.7,0.8c2.7-1,5-3,7.2-5.2
	c0.4,0,0.7,0.5,1,0.8c-2.7,3.9-6.4,8.3-10.7,10.2c-1.5,0.7-3.2,0.7-4.7,0c-0.8-0.4-1.5-1.1-1.9-1.9l0.1-1.4
	c1.7-5.9,3.5-11.9,5.2-17.7c-1.8-0.5-3.8,0-5.8-0.2c-0.1-1.5,0.8-2.7,0.8-4.2l0.4-0.4c2.1-0.5,4.2-0.8,6.3-1.1
	c0.8-1.6,1.4-3.3,1.6-5l-0.1-0.1c-12.1,3-24.7,2.5-36.5-1.4c-9-3.1-18.4-5.7-28.8-4.7c-8.7,0.4-16.5,3.7-23.9,7.1
	c-0.2-0.4-0.1-0.9,0.1-1.3l0.7-0.6c13.3-6.6,28.4-12.1,44.5-8.9C155.7,77.6,162.6,79.8,169.6,81.8z"/>
<linearGradient id="SVGID_65_" gradientUnits="userSpaceOnUse" x1="40.4648" y1="118.5768" x2="40.4648" y2="127.9768" gradientTransform="matrix(1.17 0 0 1.17 18.5103 -36.4011)">
	<stop  offset="0" style="stop-color:#FFE766"/>
	<stop  offset="1" style="stop-color:#FCB131"/>
</linearGradient>
<path class="st51" d="M100.2,76.4c0,0.5-0.1,1.5-0.8,1.7c-2.8,0.4-5.8,1.1-7.6,3.6c-1.2,1.9-1.9,4-2.2,6.2
	c-1.3,8.2-2.9,16.3-3.2,24.9c0,1.5,0.8,2.9,2.2,3.6c1.4,0.6,2.9,1,4.4,1.3c0,0.5-0.1,1-0.3,1.5c-7.7-0.1-15.2,0.1-22.8,0.3
	c-0.4-0.5,0-1.1,0.1-1.6c2.3-0.8,4.8-1,6.3-3.4c1.3-2.2,1.4-4.9,1.8-7.5c0.6-6,2.2-11.7,2.8-17.7l-0.2-0.2c-3,4.7-5.8,9.5-8.6,14.4
	c-3.3,5.3-6.2,10.8-9.6,16c-1.5-0.4-3-1-4.3-1.8c-0.3-1.5-0.5-2.9-0.6-4.4l-2.7-25.2l-0.2-0.3c-3.3,8.3-6.2,16.7-9.2,25.1
	c-0.2,0.9-0.2,1.7,0.1,2.6c1.3,1.9,3.5,1.8,5.3,2.4c0.1,0.5,0,1.1-0.3,1.5c-6.3-0.1-12.6,0-19,0c-0.1-0.6,0.3-1.1,0.4-1.5
	c7.5-0.7,10.2-9,12.3-14.8c2.5-6.1,4.7-12.4,7.2-18.6c0.2-0.8,0-1.6-0.6-2.2c-1.8-1.3-4-1.6-6.1-2.2c-0.3-0.5,0.1-0.9,0.2-1.4
	c5.7-0.2,11.5-0.4,17.2-0.3l0.2,0.3c1.3,8.7,2.1,17.5,3.6,26.1l0.2-0.1c5.7-9.3,11.1-18.7,16.5-28.1l0.3-0.2
	C88.8,76.3,94.6,76.3,100.2,76.4z"/>
<linearGradient id="SVGID_66_" gradientUnits="userSpaceOnUse" x1="189.6489" y1="118.5768" x2="189.6489" y2="127.9868" gradientTransform="matrix(1.17 0 0 1.17 18.5103 -36.4011)">
	<stop  offset="0" style="stop-color:#FFE766"/>
	<stop  offset="1" style="stop-color:#FCB131"/>
</linearGradient>
<path class="st52" d="M249.7,81.3c0.9,1.6,0.7,3.6-0.3,5.1c-1.1,1.5-3,2.1-4.8,1.6c-1.5-0.4-2.6-1.5-3.1-2.9c-0.4-1.7,0-3.6,1.2-4.9
	c1.2-1,2.7-1.3,4.2-1C248.1,79.6,249.1,80.3,249.7,81.3z M240.2,93.6c-4,2.1-7.3,6.2-9.6,9.8c0.3,0.3,0.6,0.7,1.1,0.8
	c1.6-1.7,3.4-3.2,5.3-4.4c0.5-0.3,1.1-0.7,1.4,0.1c-1.9,5.2-4.3,10.1-6.1,15.3c-0.1,1-0.6,2.2,0,3.1c0.8,1.5,2.6,1.5,4.2,1.3
	c5.2-1.5,9.8-6.2,13.2-10.7c-0.4-0.3-0.6-0.9-1.2-0.9c-2.4,2.1-4.7,4.3-7.2,5.6c-0.3-0.2-0.6-0.3-0.6-0.7l4.3-11.1
	c0.7-2.5,2.9-5.7,0.6-8.1C244.4,92.3,241.7,92.8,240.2,93.6z"/>
<linearGradient id="SVGID_67_" gradientUnits="userSpaceOnUse" x1="126.6255" y1="118.5768" x2="126.6255" y2="127.9768" gradientTransform="matrix(1.17 0 0 1.17 18.5103 -36.4011)">
	<stop  offset="0" style="stop-color:#FFE766"/>
	<stop  offset="1" style="stop-color:#FCB131"/>
</linearGradient>
<path class="st53" d="M179.3,94.2c1.5,2.9,0,6.2-0.9,8.9l-3.7,9c0,0.4,0.3,0.7,0.7,0.8c2.6-1.4,5-3.6,7.3-5.7
	c0.4,0.2,0.8,0.5,1.1,0.9c-3.5,4.9-8.4,10.3-14.4,11.2c-1,0.2-1.9-0.1-2.7-0.7c-0.7-1-0.9-2.2-0.5-3.4c2.1-5.9,4.6-11.6,6.8-17.5
	c-0.1-0.2-0.2-0.4-0.4-0.6c-2,0.8-3.7,2.1-4.9,3.8c-3.7,4.8-5.8,10.3-9,15.4c-1,1.4-2.5,3.2-4.4,3.1c-1.1,0.1-2.1-0.5-2.5-1.5
	c-0.9-3.8,1.4-6.9,2.3-10.3c1.2-3.2,2.5-6.1,3.6-9.2c-1.9-0.5-3.4,1.2-4.7,2.5l-2.1,2.8c-0.5,0.2-1-0.2-1.3-0.6
	c1.7-4.3,5.3-10.3,10.8-10.5c1.6,0,3.6,0,4.5,1.6c0.3,0.8,0.4,1.6,0.2,2.4l-4,8.6c0,0.4,0.5,0.5,0.7,0.7l0.5-0.1
	c3.1-5,6.6-11.8,13.1-13.2C177,92.1,178.5,92.9,179.3,94.2z"/>
<linearGradient id="SVGID_68_" gradientUnits="userSpaceOnUse" x1="208.4533" y1="118.5768" x2="208.4533" y2="127.9868" gradientTransform="matrix(1.17 0 0 1.17 18.5103 -36.4011)">
	<stop  offset="0" style="stop-color:#FFE766"/>
	<stop  offset="1" style="stop-color:#FCB131"/>
</linearGradient>
<path class="st54" d="M262.8,94.8c0.5,1-0.1,1.9-0.4,2.8c-1.4,3.9-2.8,7.7-4.1,11.6c0.3,0.3,0.8,0.7,1.2,0.4
	c2.7-4.8,4.8-9.9,8.8-14.2c1.6-1.4,3.6-2.7,6-1.9c1.3,0.5,2.2,1.7,2.5,3c0.4,2.8-0.8,4.9-2.6,6.7c-1.6,1.1-3.2,2.3-5.2,2.4l-0.3-0.2
	c0.1-1.5,1-2.8,0.5-4.4c-0.3-0.5-0.9-0.7-1.5-0.5c-2.7,2-4,5.1-5.5,7.8c-1.9,3.6-3.4,7.3-6,10.6c-0.9,0.8-2.1,1.1-3.3,0.8
	c-1.1-0.4-2-1.3-2.1-2.5l-0.1-1.7h0.1c1.4-5.5,3.3-10.9,4.8-16.3c-0.4-0.3-0.9-0.1-1.3,0.1c-2.3,1.1-3.7,3.3-5.1,5.3
	c-0.5-0.1-0.9-0.3-1.2-0.7c1.8-4.5,5.2-9.9,10.5-10.5C260.1,93.2,261.9,93.2,262.8,94.8z"/>
<linearGradient id="SVGID_69_" gradientUnits="userSpaceOnUse" x1="99.0614" y1="118.5768" x2="99.0614" y2="127.9768" gradientTransform="matrix(1.17 0 0 1.17 18.5103 -36.4011)">
	<stop  offset="0" style="stop-color:#FFE766"/>
	<stop  offset="1" style="stop-color:#FCB131"/>
</linearGradient>
<path class="st55" d="M147.9,94.2c0.9,3.4-1.2,6.3-2,9.4c-1.4,3.3-2.4,6.7-3.6,10c0.2,0.2,0.4,0.3,0.7,0.2c2.7-1.7,5.2-3.7,7.4-6
	c0.4,0.2,0.9,0.4,1,0.9c-3.8,5.1-9,11.5-15.9,10.6c-0.5-0.3-1.1-0.3-1.3-0.9c1.6-4.2,3.5-8.2,5-12.4l-0.6-0.6
	c-2.3,2.9-4.3,6.2-7.1,8.9c-2.7,2.6-5.7,5.1-9.4,5.2c-1.1-0.5-2-1.2-2.8-2.1c1.5-4.9,3.2-9.7,5.2-14.4c0.5-1.3,1-2.5,1.4-3.8
	c-0.5-0.8-1.1,0.1-1.7,0.2c-2,1.4-3.9,3-5.6,4.7c-0.5,0-0.8-0.4-1.1-0.8c2.8-4.2,6.6-9,11.6-10.5c1.6-0.4,3.3,0.2,4.2,1.5
	c0.8,2.2-0.3,4.6-0.9,6.7l-4.9,12.8c0,0.3,0.2,0.5,0.5,0.6c4.4-2.7,7.2-7.3,9.6-11.5c1.9-3.3,2.8-7.2,6.2-9.8
	C145,92.3,147.1,92.6,147.9,94.2z"/>
<linearGradient id="SVGID_70_" gradientUnits="userSpaceOnUse" x1="73.6238" y1="118.5768" x2="73.6238" y2="127.9768" gradientTransform="matrix(1.17 0 0 1.17 18.5103 -36.4011)">
	<stop  offset="0" style="stop-color:#FFE766"/>
	<stop  offset="1" style="stop-color:#FCB131"/>
</linearGradient>
<path class="st56" d="M115.8,96.4c2,4.8,0,10.2-1.8,14.5c-1.9,3.9-5.8,8.1-10.3,8.7c-3,0.4-6.6,0.6-9-1.5c-3.1-3.6-1.9-9.6-0.6-13.7
	c1.6-4.7,5.6-9.6,10.6-10.9C108.5,92.7,113.7,92.3,115.8,96.4z M107.5,95.4c-0.9,0.3-1.6,0.8-2.1,1.6c-2.4,3.3-3.6,7.2-4.7,11.2
	c-0.4,2.7-1.3,5.5-0.5,8.3c0.3,0.6,0.9,1,1.6,0.9s1.3-0.4,1.8-0.9c2.6-3.3,3.7-7.4,4.8-11.4c0.4-2.8,1.6-5.9,0.6-8.8
	C108.8,95.6,108.1,95.3,107.5,95.4z"/>
<linearGradient id="SVGID_71_" gradientUnits="userSpaceOnUse" x1="169.3605" y1="118.5768" x2="169.3605" y2="127.9868" gradientTransform="matrix(1.17 0 0 1.17 18.5103 -36.4011)">
	<stop  offset="0" style="stop-color:#FFE766"/>
	<stop  offset="1" style="stop-color:#FCB131"/>
</linearGradient>
<path class="st57" d="M229,92.7c0.6,0.6,0.8,1.5,0.5,2.2c-1.9,6.3-4.3,12.3-6.4,18.5c0,0.2,0.2,0.4,0.4,0.5c2.9-1.4,5.4-3.8,7.9-6.3
	c0.5,0.1,0.9,0.4,1.2,0.8c-2.2,3-4.7,5.7-7.5,8c-2.4,1.8-5.1,3.7-8.3,2.7c-0.7-0.2-1.3-0.7-1.7-1.3c1.5-3.8,3.2-7.5,4.8-11.2
	c-0.1-0.3-0.4-0.6-0.7-0.7l-0.4,0.1c-3.9,4.8-8.2,10.5-13.9,13.3c-1.7,0-2.9-1.3-4.1-2.5c1.7-9.2,3.8-20.4,14.3-23.7
	c3.2-2,6.1,0.6,8.6,2.2C225,94.3,226.5,90.8,229,92.7z M214.5,96.4c-2.4,5.1-4.4,10.4-5.8,15.8c0,0.3,0.4,0.5,0.7,0.5
	c2.2-1.8,4.2-3.7,6.1-5.9c1.8-2,3.4-4.2,4.8-6.4C218.6,98.8,216.7,97.4,214.5,96.4L214.5,96.4z"/>
<linearGradient id="SVGID_72_" gradientUnits="userSpaceOnUse" x1="232.9586" y1="118.5768" x2="232.9586" y2="127.9868" gradientTransform="matrix(1.17 0 0 1.17 18.5103 -36.4011)">
	<stop  offset="0" style="stop-color:#FFE766"/>
	<stop  offset="1" style="stop-color:#FCB131"/>
</linearGradient>
<path class="st58" d="M296.6,96.9c0.6,1.1,0.5,2.3-0.2,3.3c-4.3,3.9-9.4,5.9-14.1,9c-0.7,1.2-1,2.6-0.9,4c-0.1,0.6,0.1,1.2,0.5,1.6
	c1.4,0.9,3-0.2,4.3-0.6c6.2-3.1,10.9-9.7,18.1-10.2c1.4,0.1,3,0,3.8,1.3c0.3,0.7,0,1.5-0.5,2c-2.2,1.6-5.5-0.1-7.9,1.1
	c-6,1.5-9.8,8-15.4,10.6c-2,0.7-3.9,1.8-6.2,1.5c-1.6-0.9-3.8-2.2-4.1-4.2c0-5.4,1.4-10.7,4-15.4c2.7-4.1,7.4-5.4,11.7-6.9
	C292.4,92.8,295.1,94.5,296.6,96.9z M287.2,97.6c-0.4-0.2-0.9-0.2-1.2,0.2c-1.6,2.3-2.2,5.1-3,7.6c0,0.3-0.4,1.2,0.3,1.1
	c2.1-1.4,4.4-2.5,6-4.6c0.2-0.8,0.1-1.6-0.3-2.4C288.6,98.8,288,98.1,287.2,97.6z"/>
<path class="st36" d="M132.1,52.8c2.2-0.9,3.7,0,4.3,1.6s0.1,3.2-2.3,4.2l-1.5,0.6l1.7,4.3l-1.4,0.6l-4-10L132.1,52.8z M132.2,57.9
	l1.6-0.7c0.9-0.2,1.4-1.1,1.2-2c0-0.1-0.1-0.2-0.1-0.3c-0.3-0.8-1.2-1.3-2-1c-0.1,0-0.2,0.1-0.3,0.1l-1.7,0.7L132.2,57.9z"/>
<path class="st36" d="M147.4,47.8c2.1-0.5,3.7,0.3,4.2,2.1c0.3,1.1-0.1,2.4-1.1,3c1.2,0.5,2.2,1.3,3.1,2.3c0.6,0.6,1,0.9,1.9,1.7
	l-1.8,0.5l-1.9-1.8c-1.9-1.8-2.6-1.9-3.4-1.7l-0.6,0.2l1.1,4.5l-1.5,0.4l-2.6-10.5L147.4,47.8z M147.4,52.7l1-0.2
	c1.6-0.4,1.9-1.3,1.6-2.2s-1-1.4-2.5-1.1l-1,0.2L147.4,52.7z"/>
<path class="st36" d="M168.4,45.6l-4.5,0.5l0.4,3.2l4.4-0.5l0.2,1.4l-4.4,0.5l0.4,3.3l4.7-0.5l0.2,1.4l-6.2,0.7l-1.3-10.7l6.1-0.7
	L168.4,45.6z"/>
<path class="st36" d="M188.3,54.6h-1.6l0.2-8.4l0,0l-3.4,4.1h-0.2l-3.2-4.3l0,0l-0.2,8.4h-1.6l0.3-10.8h1.4l3.4,4.5l3.7-4.3h1.4
	L188.3,54.6z"/>
<path class="st36" d="M199.1,56.1l-1.5-0.3l1.8-10.7l1.5,0.3L199.1,56.1z"/>
<path class="st36" d="M218.2,56.5c-0.7,2.5-2.7,3.8-5.8,2.9c-2.2-0.6-4-2.5-3.1-5.3l1.9-6.5l1.5,0.4l-1.8,6.1
	c-0.4,0.7-0.4,1.6,0,2.3c0.4,0.8,1.2,1.3,2,1.5c0.9,0.3,1.8,0.3,2.7-0.1c0.7-0.5,1.2-1.2,1.3-2.1l1.8-6l1.5,0.4L218.2,56.5z"/>
<path class="st36" d="M234.8,67.7l-1.4-0.6l3.4-7.7l0,0l-4.7,2.5l-0.2-0.1l-1.4-5.2l0,0l-3.4,7.7l-1.4-0.6l4.3-9.9l1.3,0.6l1.5,5.5
	l5.1-2.6l1.3,0.6L234.8,67.7z"/>
<linearGradient id="SVGID_73_" gradientUnits="userSpaceOnUse" x1="130.8477" y1="242.0568" x2="130.8477" y2="265.3968" gradientTransform="matrix(1.17 0 0 1.17 8.6203 -148.7511)">
	<stop  offset="0" style="stop-color:#ED1B2E"/>
	<stop  offset="0.3" style="stop-color:#D81430"/>
	<stop  offset="1" style="stop-color:#A90533"/>
</linearGradient>
<path class="st59" d="M42.9,163.5c-0.8-0.1-2-0.9-2.2-1.7l-0.2-0.8c1.8-8.2,4.2-16.1,6.4-24.1c0.1-1.3,0.3-2.6,1.5-3.2l1.7-0.9
	c0,0,226.4-0.1,231.9,0.1c0.5,0.2,0.9,0.6,1,1.1l-0.3,2.1l-6.4,24.5c-0.3,0.8-0.9,1.5-1.7,2l-2.5,1L42.9,163.5z"/>
<path class="st38" d="M53.8,151.7c-0.3,0.8-0.5,1.7-0.6,2.6c0,0.3,0.1,0.6,1.2,0.6c0.5,0,0.7,0,0.7,0.4s-0.4,0.4-0.5,0.4
	c-1.1-0.1-2.3-0.2-3.4-0.2c-1,0-1.9,0.1-2.9,0.2c-0.3,0-0.4-0.1-0.4-0.3c0-0.4,0.4-0.5,0.9-0.5c1.1-0.1,1.2-0.1,1.5-1.2l3.4-11.4
	c0.2-0.5,0.3-0.9,0.3-1.4s-0.4-0.6-1-0.6s-0.8,0-0.8-0.4s0.4-0.4,0.7-0.4H54c0.6,0.1,1.5,0.1,3.1,0.1h0.7c2,0,3.4,0,4.2-0.1h1.4
	c0.2,0,0.5,0,0.5,0.2s-0.2,0.6-0.8,2.5c-0.3,1-0.4,1.2-0.7,1.2S62,143,62,142.7c-0.1-2.2-1.2-2.4-2.7-2.4h-0.5c-0.6,0-1.1,0-1.7,0.1
	c-0.2,0.1-0.2,0.2-0.5,1.3l-1.5,5h0.7c3.1,0,4.1-0.3,4.7-1.8c0.2-0.4,0.3-0.6,0.6-0.6c0.2,0,0.3,0.1,0.3,0.2c0,0.1,0,0.3-0.1,0.4
	c-0.6,1.4-1.1,2.9-1.4,4.4c-0.1,0.7-0.3,0.9-0.5,0.9s-0.4-0.1-0.4-0.3v-0.1c0-0.2,0.2-1.2,0.2-1.4c0-0.9-0.3-1-3.6-1h-0.7
	L53.8,151.7z"/>
<path class="st38" d="M66.1,151.1c0.2-0.4,0.4-0.8,0.5-1.1l0.7-1.5c0.2-0.3,2.3-4.7,4.4-4.7c0.7,0,1.3,0.5,1.3,1.3
	c0,0.1,0,0.1,0,0.2c0,0.7-0.4,2-1.4,2c-0.5,0.1-0.9-0.3-1-0.7v-0.1v-0.4c0-0.3-0.2-0.4-0.3-0.4c-1.6,0-5.3,9.4-5.6,9.8
	c-0.1,0.2-0.5,0.2-1.1,0.2c-1,0-1.1,0-1.1-0.4s2.7-8.2,2.7-9.4c0-0.1,0-0.4-0.3-0.4s-1.3,1-1.8,1.9c-0.2,0.3-0.5,0.8-0.7,0.8
	c-0.1,0-0.3-0.1-0.2-0.3c0-0.6,2.5-4,4.4-4c0.6,0,0.9,0.3,0.9,1.4C67.2,147.2,66.7,149.2,66.1,151.1L66.1,151.1z"/>
<path class="st38" d="M75.8,150.9c0,0.3,0,0.5,0,0.8c0,2.5,1.7,2.8,2.2,2.8c1.3-0.1,2.5-0.7,3.3-1.6c0.6-0.6,0.6-0.6,0.7-0.6
	s0.2,0.1,0.2,0.2c0,0.4-2.6,3.5-5.4,3.5c-2.2,0-3.9-1.8-3.9-3.9c0-0.1,0-0.2,0-0.3c0-5.1,4.9-7.9,7.6-7.9c1.4,0,3.2,0.9,3.2,2.7
	c0,2.8-3.9,3.6-4.9,3.8L75.8,150.9z M81.4,145.9c0-0.2,0-1.4-1.2-1.4c-1.9,0-3.7,2.9-4.3,5.8C77.7,150,81.4,149.3,81.4,145.9
	L81.4,145.9z"/>
<path class="st38" d="M83.4,153.6c0-0.4,0.3-1.4,0.9-1.4s0.9,0.4,1.7,1.5c1,1.3,1.6,1.5,2,1.5c0.9,0,1.5-1,1.5-1.7s-0.5-1.4-1.8-2.7
	s-2.1-2.4-2.1-3.2c0-1.4,1.7-3.7,4.8-3.7c1.8,0,3.1,0.5,3.1,1.5c0,0.4-0.2,1.6-0.8,1.6s-1-0.5-1.3-0.9c-0.6-0.7-1.5-1.2-2.4-1.3
	c-0.2,0-1.2,0.1-1.2,1s0.8,1.8,2.8,3.9c0.8,0.6,1.4,1.6,1.5,2.6c0,1.9-2.2,3.6-4.8,3.6C86.6,155.9,83.4,155.9,83.4,153.6z"/>
<path class="st38" d="M105,142.9c1.1,0,1.9,0.6,1.9,1.5c-0.1,1.3-0.5,2.5-1,3.6l-1.1,3c-0.3,0.8-0.6,1.6-0.7,2.5
	c0,0.2,0.1,0.4,0.3,0.4l0,0c0.8,0,2.2-2,2.5-2.4c0.1-0.1,0.2-0.2,0.3-0.2c0.2,0,0.3,0.2,0.3,0.3c0,1.2-3.2,4.2-5.1,4.2
	c-0.7,0-1.2-0.4-1.3-1.1c0-0.1,0-0.1,0-0.2c0-2.7,3.1-7.4,3.1-9.8c0-0.4-0.3-0.7-0.6-0.7l0,0c-2.6,0-7,7.9-7.9,10.4
	c-0.3,0.9-0.4,1-1.6,1c-1,0-1.2-0.1-1.2-0.5c0.1-0.6,0.2-1.1,0.5-1.6l1.8-5.7c0.5-1.6,2.3-6.5,2.3-7.9c0-0.3-0.3-0.6-0.6-0.6l0,0
	h-0.5c-0.4,0-0.6-0.1-0.6-0.3s0.2-0.5,0.6-0.5h1.2c0.9,0,1.7-0.2,2.5-0.5c0.2-0.1,0.4-0.2,0.7-0.3c0.2,0,0.3,0.1,0.3,0.2
	c-0.1,0.8-0.4,1.5-0.7,2.2l-0.9,2.8l-1,3.4l-1,2.9C99.4,146.6,101.6,142.9,105,142.9z"/>
<path class="st38" d="M211.3,142.9c1.1,0,1.9,0.6,1.9,1.5c-0.1,1.3-0.5,2.5-1,3.6l-1.1,3c-0.3,0.8-0.6,1.6-0.7,2.5
	c0,0.2,0.1,0.4,0.3,0.4l0,0c0.8,0,2.2-2,2.5-2.4c0.1-0.1,0.2-0.2,0.3-0.2c0.2,0,0.3,0.2,0.3,0.3c0,1.2-3.2,4.2-5.1,4.2
	c-0.7,0-1.2-0.4-1.3-1.1c0-0.1,0-0.1,0-0.2c0-2.7,3.1-7.4,3.1-9.8c0-0.4-0.3-0.7-0.6-0.7l0,0c-2.6,0-7,7.9-7.9,10.4
	c-0.3,0.9-0.4,1-1.6,1c-1,0-1.2-0.1-1.2-0.5c0.1-0.6,0.2-1.1,0.5-1.6l1.9-5.7c0.5-1.6,2.3-6.5,2.3-7.9c0-0.3-0.3-0.6-0.6-0.6l0,0
	h-0.5c-0.4,0-0.6-0.1-0.6-0.3s0.2-0.5,0.6-0.5h1.2c0.9,0,1.7-0.2,2.5-0.5c0.2-0.1,0.4-0.2,0.7-0.3c0.2,0,0.3,0.1,0.3,0.2
	c-0.1,0.8-0.4,1.5-0.7,2.2l-0.9,2.8l-1,3.4L204,149C205.7,146.6,207.9,142.9,211.3,142.9z"/>
<path class="st38" d="M117.4,148.4l-2.6-6.9c-0.3-0.7-0.4-1.1-1.2-1.2c-0.1,0-1,0-1-0.4c0-0.2,0.2-0.4,0.5-0.4
	c0.7,0,1.3,0.2,3.7,0.2c1,0,2-0.1,3-0.2c0.1,0,0.4,0,0.4,0.3s-0.4,0.4-0.9,0.5c-0.8,0-1.4,0.1-1.4,0.6c0,0.4,0.2,0.9,0.4,1.3l2,5.3
	c0.1-0.1,5.8-5.9,5.8-6.5s-0.1-0.6-1-0.7c-0.8-0.1-0.9-0.1-0.9-0.4c0-0.1,0.1-0.4,0.5-0.4c0.6,0,1,0.2,2.7,0.2
	c0.8,0,1.7-0.1,2.5-0.2c0.2,0,0.4,0.1,0.4,0.3c0,0.4-0.6,0.5-1,0.5c-0.8,0.1-1.2,0.3-2.2,1.4c-4.5,4.7-4.7,4.9-6.5,6.8l-1.4,4.8
	c-0.1,0.4-0.2,0.9-0.3,1.3c0,0.4,0.7,0.4,0.7,0.4l0.9,0.1c0.3,0,0.4,0.1,0.4,0.3c0,0.4-0.4,0.4-0.6,0.4c-0.4,0-1.9-0.2-3.9-0.2
	c-1.2,0-2.3,0.2-2.7,0.2c-0.2,0-0.4-0.1-0.4-0.4s0.4-0.5,1.4-0.5s1.1-0.4,1.4-1.6L117.4,148.4z"/>
<path class="st38" d="M129.3,155.9c-2.6-0.1-4.6-2.3-4.5-4.9c0,0,0,0,0-0.1c0-3.8,3.8-7.1,7.6-7.1c2.6,0.1,4.7,2.3,4.7,4.9
	C137.1,153.2,132.5,155.9,129.3,155.9z M132.4,144.4c-3.4,0-5.2,5.2-5.2,8.2c0,1.1,0.4,2.8,2.2,2.8c1,0,2-0.5,2.6-1.3
	c1.6-1.9,2.5-4.4,2.6-6.9C134.7,146,134.2,144.4,132.4,144.4L132.4,144.4z"/>
<path class="st38" d="M147.7,149.7c0,0.1-4,6.2-7.7,6.2c-0.7,0-1.2-0.5-1.3-1.2c0-0.1,0-0.1,0-0.2c0.2-1.4,0.5-2.7,1-4
	c0.3-0.8,2-4.9,2-5.1c0-0.1-0.1-0.3-0.2-0.3l0,0c-1,0.4-1.9,1.2-2.4,2.1c-0.1,0.1-0.2,0.2-0.3,0.2s-0.2-0.1-0.2-0.3l0,0
	c0-0.8,2.5-3.5,5-3.5c0.6,0,0.9,0.2,0.9,0.8c0,1.1-3.1,8.3-3.1,9.3c0,0.2,0.2,0.4,0.4,0.5h0.1c1.1,0,3.4-2.1,5.4-4.9
	c1-1.4,1.7-3,2.2-4.7c0.2-0.5,0.3-0.9,0.8-0.9l1.5-0.1c0.2,0,0.4,0,0.4,0.3c0,0.5-3.1,8.2-3.1,9.8c0,0.1,0.1,0.3,0.3,0.3
	s1.3-0.4,2.6-2.3c0.1-0.2,0.2-0.2,0.3-0.2s0.2,0.1,0.3,0.2c0,1.1-3.1,4-5.2,4c-0.6,0-1-0.4-1-1C146.7,153.2,147.2,151.5,147.7,149.7
	L147.7,149.7z"/>
<path class="st38" d="M157.9,150.3c1.7-2.8,4-6.6,7.2-6.6c0.9-0.1,1.7,0.5,1.8,1.4c0,0.1,0,0.2,0,0.2c-0.1,1.3-0.5,2.5-1.1,3.7
	c-0.7,1.5-1.2,3.1-1.5,4.7c0,0.2,0.1,0.5,0.3,0.5c0.4,0,1.4-0.9,2.1-1.9c0.4-0.5,0.4-0.6,0.6-0.6c0.2,0,0.3,0.2,0.3,0.3
	c0,0.5-2.5,4-4.8,4c-1,0-1.2-0.6-1.2-1.2c0-1.5,2.8-8.2,2.8-9c0-0.6-0.4-0.7-0.6-0.7c-1.9,0-5.5,4.7-7.3,9.6c-0.3,1-0.5,1-2.1,1
	c-0.2,0-0.6,0-0.6-0.3s3-8,3-9.5c0-0.3-0.2-0.4-0.2-0.4c-0.6,0-2.4,2.4-2.6,2.4c-0.1,0-0.3-0.2-0.3-0.3c0-0.4,2.4-3.6,4.7-3.6
	c0.4,0,0.9,0.1,0.9,1.3c-0.2,1.5-0.6,2.9-1.1,4.2L157.9,150.3L157.9,150.3z"/>
<path class="st38" d="M178.4,145.5c0.5,0.7,0.7,1.4,0.8,2.2c0,2.2-2.2,4.4-5.1,4.4c-0.7,0-1.5-0.1-2.1-0.5c-0.1,0-0.1-0.1-0.2-0.1
	c-0.4,0.1-0.5,0.2-0.5,0.6c0,0.8,1.4,1.4,2.9,1.9c2.5,1.1,4.3,1.9,4.3,3.8c0,1.1-1.2,3.8-5.9,3.8c-4.3,0-6.1-1.8-6.1-3.4
	c0-1.8,1.9-2.4,3.6-2.9c0.3-0.1,0.7-0.3,0.9-0.3c-0.7-0.3-1.1-1-1.1-1.8c0-1,0.6-1.8,1.5-2.2c-1-0.7-1.5-1.8-1.5-3
	c0-2.8,2.8-4.3,5.1-4.3c0.9,0,1.7,0.2,2.5,0.5c0.3,0.1,0.5,0.2,0.8,0.1c0.3,0,1.9-0.1,2.1-0.1s0.8,0,0.8,0.2
	c-0.1,0.2-0.2,0.5-0.3,0.7s-0.3,0.2-0.9,0.2L178.4,145.5z M175.3,144.3c-2.2,0-3.5,3.2-3.5,4.9c0,0.6,0.1,2.2,1.7,2.2
	c2,0,3.5-2.7,3.5-4.9C177,145.9,176.8,144.3,175.3,144.3z M168.7,157.8c0,1.7,2.2,3.2,4.5,3.2c1.3,0,3.2-0.6,3.2-2s-1-2-4.8-3.5
	C170.6,155.6,168.6,156,168.7,157.8L168.7,157.8z"/>
<path class="st38" d="M198.8,139.1c0.6,0,2.3,0,2.3,0.6c0,0.4-0.6,2.3-0.8,2.8c-0.2,0.9-0.3,1-0.6,1s-0.4-0.2-0.4-0.5s0.2-1.7,0.2-2
	s0-1.1-1.2-1.1c-4.3,0-10,4-10,10c0,2.6,1.3,5.4,4.2,5.4s4.4-2.7,4.9-3.9c0.2-0.3,0.3-0.5,0.5-0.5s0.3,0.2,0.3,0.3
	c-0.1,0.5-0.2,0.9-0.4,1.3c-0.2,0.7-0.4,1.4-0.5,2.1c-0.1,0.7-2.8,1.3-5.1,1.3c-5.8,0-7.2-4.3-7.2-6.5
	C185.2,144.1,192.2,139.1,198.8,139.1z"/>
<path class="st38" d="M217.4,153.9c0,0.1,0.1,0.3,0.2,0.3c0.6,0,2.2-1.8,2.4-2.2c0.1-0.1,0.2-0.2,0.3-0.2c0.2,0,0.3,0.1,0.3,0.3
	c0,0.6-2.9,3.9-4.8,3.9c-0.9,0-1.1-0.4-1.1-1.2c0-1.6,1.8-5.9,2.6-7.9c0.2-0.4,0.3-0.8,0.4-1.2c0-0.1,0-0.3-0.2-0.3
	c-0.5,0-2.6,2.1-2.7,2.1c-0.1,0-0.3-0.1-0.3-0.3c0-0.5,2.6-3.4,5-3.4c0.8,0,0.8,0.6,0.8,1C220.4,146.2,217.4,152.6,217.4,153.9z
	 M220.2,142.7c-0.6,0-1.1-0.6-1.1-1.2v-0.1c0-0.9,0.7-2,1.6-2s1.1,1.1,1.1,1.3C221.9,141.7,221.2,142.6,220.2,142.7z"/>
<path class="st38" d="M229.7,143.8c2.5,0,2.8,1.3,2.8,1.7c0,0.6-0.6,1.1-1.2,1.1l0,0c-0.9,0-1.4-1-1.6-1.4c-0.2-0.5-0.4-0.8-0.9-0.8
	c-2.2,0-4.2,4.6-4.2,7.4c-0.1,1.3,0.8,2.4,2,2.6c0.1,0,0.1,0,0.2,0c1.8,0,3.4-1.7,3.9-2.4c0.1-0.1,0.1-0.2,0.2-0.2
	c0.1,0,0.2,0.1,0.3,0.2c0,0.5-2.6,3.8-5.5,3.8c-2.2,0-3.9-1.8-3.9-3.9c0-0.1,0-0.2,0-0.2C221.9,147.4,225.4,143.9,229.7,143.8z"/>
<path class="st38" d="M236.7,152c-0.2-0.5-0.6-0.9-1.1-1.1l-1.3,3.9c-0.2,0.5-0.2,0.7-0.4,0.8s-0.3,0.1-1.2,0.1s-1-0.1-1-0.3
	c0.1-0.4,0.2-0.7,0.3-1.1l3.6-11c0-0.1,0.7-2.2,0.7-2.4c0-0.6-0.8-0.6-1.3-0.6c-0.3,0-0.5,0-0.5-0.3s0.5-0.4,0.7-0.4h0.5
	c1.1,0,2.2-0.2,3.2-0.6c0.1-0.1,0.2-0.1,0.4-0.1c0.1,0,0.2,0.1,0.3,0.3c0,0.2-0.1,0.4-0.2,0.5l-3.3,9.2h0.1c0.9-1.3,3.5-5,6.5-5
	c1.4-0.1,2.5,1,2.6,2.4c0,1-1,3.2-4.4,4c-0.4,0.1-2,0.3-2.3,0.4c0.9,0.8,1.7,1.9,2.1,3.1c0.6,1.1,1,1.3,1.6,1.3
	c0.5,0,0.9-0.4,0.9-0.9c0-0.3-0.2-0.5-0.6-0.7c0,0-0.4-0.3-0.4-0.6c0-0.4,0.3-0.6,0.7-0.6c0.7,0,1.2,0.6,1.2,1.3
	c-0.1,1.5-1.4,2.6-2.9,2.4h-0.1c-1,0-2.3-0.2-3.4-2.4L236.7,152z M242.4,146.2c0-0.6-0.4-1-0.9-1.1h-0.1c-1.5,0-4.2,2.8-5.4,5.2
	C240.9,150.3,242.4,147.4,242.4,146.2L242.4,146.2z"/>
<path class="st38" d="M248.8,150.9c0,0.3-0.1,0.5-0.1,0.8c0,2.5,1.7,2.8,2.2,2.8c1.3-0.1,2.5-0.7,3.4-1.6c0.6-0.6,0.6-0.6,0.7-0.6
	s0.2,0.1,0.2,0.2c0,0.4-2.6,3.5-5.4,3.5c-2.2,0-3.9-1.8-3.9-3.9c0-0.1,0-0.2,0-0.3c0-5.1,4.9-7.9,7.6-7.9c1.4,0,3.2,0.9,3.2,2.7
	c0,2.8-3.9,3.6-4.9,3.8L248.8,150.9z M254.4,145.9c0-0.2,0-1.4-1.2-1.4c-1.9,0-3.7,2.9-4.3,5.8C250.7,150,254.4,149.3,254.4,145.9
	L254.4,145.9z"/>
<path class="st38" d="M261.7,150.3c1.7-2.8,4-6.6,7.2-6.6c0.9-0.1,1.7,0.5,1.8,1.3c0,0.1,0,0.2,0,0.3c-0.2,1.3-0.5,2.5-1.1,3.7
	c-0.7,1.5-1.2,3.1-1.5,4.7c0,0.2,0.1,0.5,0.3,0.5c0.4,0,1.4-0.9,2.1-1.9c0.4-0.5,0.4-0.6,0.6-0.6s0.3,0.2,0.3,0.3c0,0.5-2.5,4-4.8,4
	c-1,0-1.2-0.6-1.2-1.2c0-1.5,2.8-8.2,2.8-9c0-0.3-0.2-0.6-0.5-0.7h-0.1c-1.9,0-5.5,4.7-7.3,9.6c-0.3,1-0.5,1-2.1,1
	c-0.2,0-0.6,0-0.6-0.3s3-8,3-9.5c0-0.3-0.2-0.4-0.3-0.4c-0.6,0-2.4,2.4-2.6,2.4c-0.1,0-0.2-0.2-0.3-0.3c0-0.4,2.4-3.6,4.7-3.6
	c0.4,0,0.9,0.1,0.9,1.3c-0.2,1.5-0.6,2.9-1.1,4.2L261.7,150.3L261.7,150.3z"/>
<g>
	<g>
		<defs>
			
				<rect id="SVGID_74_" x="74.2" y="47.9" transform="matrix(0.7755 -0.6314 0.6314 0.7755 -14.147 58.8256)" width="2.8" height="2.8"/>
		</defs>
		<clipPath id="SVGID_75_">
			<use xlink:href="#SVGID_74_"  style="overflow:visible;"/>
		</clipPath>
		<g class="st60">
			
				<linearGradient id="SVGID_76_" gradientUnits="userSpaceOnUse" x1="-418.1064" y1="606.6291" x2="-417.1064" y2="606.6291" gradientTransform="matrix(1.4475 7.0019 -7.0019 1.4475 4927.7393 2095.5925)">
				<stop  offset="0" style="stop-color:#ED1B2E"/>
				<stop  offset="0.3" style="stop-color:#D81430"/>
				<stop  offset="1" style="stop-color:#A90533"/>
			</linearGradient>
			<polygon class="st61" points="72.9,47.5 77.5,46.6 78.4,51.2 73.9,52.1 			"/>
		</g>
	</g>
</g>
<g>
	<g>
		<defs>
			
				<rect id="SVGID_77_" x="286.6" y="48.8" transform="matrix(0.5959 -0.803 0.803 0.5959 76.0359 251.541)" width="2.8" height="2.8"/>
		</defs>
		<clipPath id="SVGID_78_">
			<use xlink:href="#SVGID_77_"  style="overflow:visible;"/>
		</clipPath>
		<g class="st62">
			
				<linearGradient id="SVGID_79_" gradientUnits="userSpaceOnUse" x1="-429.2798" y1="615.0078" x2="-428.2798" y2="615.0078" gradientTransform="matrix(-0.5529 7.2189 -7.2189 -0.5529 4490.6118 3485.4763)">
				<stop  offset="0" style="stop-color:#ED1B2E"/>
				<stop  offset="0.3" style="stop-color:#D81430"/>
				<stop  offset="1" style="stop-color:#A90533"/>
			</linearGradient>
			<polygon class="st63" points="285.8,52.1 286.1,47.9 290.3,48.2 289.9,52.4 			"/>
		</g>
	</g>
</g>
</svg>
