<?xml version="1.0" encoding="UTF-8"?>
<svg id="Layer_1" data-name="Layer 1" xmlns="http://www.w3.org/2000/svg" viewBox="0 0 550.86 188.51">
  <defs>
    <style>
      .cls-1 {
        fill: #8a2066;
      }

      .cls-1, .cls-2, .cls-3, .cls-4 {
        stroke-width: 0px;
      }

      .cls-2 {
        fill: #bdcc2a;
      }

      .cls-3 {
        fill: #00355e;
      }

      .cls-4 {
        fill: #0079c1;
      }
    </style>
  </defs>
  <g id="TAGLINE">
    <g>
      <path class="cls-4" d="M177.15,155.05v-13.03h8.41v1.92h-6.03v3.65h4.87v1.88h-4.87v5.58h-2.38,0Z"/>
      <path class="cls-4" d="M188.33,155.05v-13.03h2.38v13.03h-2.38Z"/>
      <path class="cls-4" d="M194.17,155.05v-13.03h2.38l6.12,9.17v-9.17h2.38v13.03h-2.38l-6.12-9.16v9.16h-2.38Z"/>
      <path class="cls-4" d="M208.52,155.05v-13.03h4.44c1.53,0,2.78.27,3.77.81.98.54,1.72,1.29,2.2,2.27.48.97.72,2.12.72,3.43s-.24,2.46-.72,3.43c-.48.97-1.21,1.73-2.2,2.27-.98.54-2.24.81-3.77.81h-4.44ZM210.91,153.01h1.95c1.09,0,1.96-.18,2.59-.53s1.09-.87,1.36-1.53.41-1.46.41-2.41-.14-1.73-.41-2.4-.73-1.19-1.36-1.55c-.63-.36-1.5-.54-2.59-.54h-1.95v8.95h0Z"/>
      <path class="cls-4" d="M233.94,155.27c-1.31,0-2.44-.28-3.38-.85s-1.67-1.35-2.18-2.36-.76-2.18-.76-3.51.25-2.5.76-3.52,1.24-1.81,2.18-2.38c.94-.57,2.07-.86,3.38-.86,1.56,0,2.84.39,3.84,1.16s1.62,1.86,1.87,3.26h-2.62c-.16-.71-.51-1.26-1.04-1.67-.53-.4-1.22-.61-2.09-.61-1.21,0-2.15.41-2.83,1.23-.68.82-1.02,1.94-1.02,3.37s.34,2.54,1.02,3.36c.68.81,1.62,1.22,2.83,1.22.87,0,1.57-.19,2.09-.57.53-.38.87-.9,1.04-1.57h2.62c-.25,1.34-.87,2.39-1.87,3.14s-2.28,1.14-3.84,1.14h0Z"/>
      <path class="cls-4" d="M247.71,155.27c-.95,0-1.82-.19-2.59-.57-.77-.38-1.38-.95-1.83-1.72s-.68-1.74-.68-2.92v-8.04h2.38v8.06c0,1.02.25,1.77.73,2.27.49.5,1.17.75,2.04.75s1.53-.25,2.03-.75c.5-.5.75-1.25.75-2.27v-8.06h2.38v8.04c0,1.18-.23,2.15-.71,2.92s-1.1,1.34-1.89,1.72c-.79.38-1.66.57-2.61.57h0Z"/>
      <path class="cls-4" d="M256.28,155.05v-13.03h4.78c1.04,0,1.9.18,2.58.53.68.35,1.18.83,1.52,1.43s.51,1.27.51,2c0,.8-.21,1.52-.63,2.18-.42.66-1.06,1.14-1.94,1.43l2.7,5.45h-2.73l-2.42-5.13h-1.97v5.13h-2.38ZM258.67,148.17h2.25c.8,0,1.38-.19,1.75-.57s.56-.89.56-1.53-.18-1.12-.55-1.49c-.37-.37-.96-.56-1.78-.56h-2.24v4.15h0Z"/>
      <path class="cls-4" d="M268.81,155.05v-13.03h8.5v1.92h-6.12v3.57h5.56v1.86h-5.56v3.76h6.12v1.92h-8.5Z"/>
      <path class="cls-4" d="M284.94,155.27c-.95,0-1.8-.16-2.53-.49-.73-.33-1.31-.8-1.73-1.41-.42-.61-.64-1.36-.65-2.24h2.51c.03.61.25,1.12.66,1.53.42.42.99.63,1.72.63.63,0,1.14-.15,1.51-.45.37-.3.56-.71.56-1.22s-.16-.95-.49-1.24-.76-.54-1.31-.73c-.54-.18-1.13-.39-1.75-.59-1-.35-1.77-.8-2.3-1.34-.53-.54-.79-1.27-.79-2.18-.01-.77.17-1.43.55-1.98.38-.55.9-.98,1.55-1.28.66-.3,1.41-.45,2.27-.45s1.64.16,2.3.47c.66.31,1.19.75,1.57,1.3.38.56.58,1.22.61,1.99h-2.55c-.01-.46-.19-.87-.53-1.22s-.81-.53-1.42-.53c-.52-.01-.96.11-1.31.38s-.53.66-.53,1.16c0,.44.14.78.41,1.04.27.25.64.47,1.12.64s1.01.36,1.62.56c.64.22,1.24.49,1.77.78s.96.69,1.28,1.18c.32.49.49,1.12.49,1.89,0,.68-.18,1.31-.52,1.9s-.87,1.05-1.55,1.4c-.68.35-1.52.53-2.51.53h0Z"/>
      <path class="cls-4" d="M293.5,155.18c-.44,0-.79-.14-1.07-.41-.28-.27-.42-.6-.42-.98s.14-.73.42-1,.64-.41,1.07-.41.79.14,1.07.41.42.61.42,1-.14.71-.42.98c-.28.27-.64.41-1.07.41Z"/>
      <path class="cls-4" d="M307.74,155.27c-.95,0-1.8-.16-2.53-.49s-1.31-.8-1.73-1.41c-.42-.61-.64-1.36-.65-2.24h2.51c.03.61.25,1.12.66,1.53.42.42.99.63,1.72.63.63,0,1.14-.15,1.51-.45.37-.3.56-.71.56-1.22s-.16-.95-.49-1.24c-.33-.3-.76-.54-1.31-.73-.54-.18-1.13-.39-1.75-.59-1-.35-1.77-.8-2.3-1.34-.53-.54-.79-1.27-.79-2.18-.01-.77.17-1.43.55-1.98.38-.55.9-.98,1.55-1.28.66-.3,1.41-.45,2.27-.45s1.64.16,2.3.47c.66.31,1.19.75,1.57,1.3.38.56.58,1.22.61,1.99h-2.55c-.01-.46-.19-.87-.53-1.22s-.81-.53-1.42-.53c-.52-.01-.96.11-1.31.38-.35.27-.53.66-.53,1.16,0,.44.14.78.41,1.04.27.25.64.47,1.12.64s1.01.36,1.62.56c.64.22,1.24.49,1.77.78.53.3.96.69,1.28,1.18.32.49.49,1.12.49,1.89,0,.68-.18,1.31-.52,1.9-.35.59-.87,1.05-1.55,1.4-.68.35-1.52.53-2.51.53h0Z"/>
      <path class="cls-4" d="M314.49,155.05l4.76-13.03h2.68l4.76,13.03h-2.53l-1.04-3.01h-5.08l-1.06,3.01h-2.49,0ZM318.69,150.18h3.78l-1.9-5.42-1.88,5.42h0Z"/>
      <path class="cls-4" d="M331.42,155.05l-4.77-13.03h2.55l3.69,10.59,3.7-10.59h2.51l-4.77,13.03h-2.92,0Z"/>
      <path class="cls-4" d="M341.58,155.05v-13.03h8.5v1.92h-6.12v3.57h5.56v1.86h-5.56v3.76h6.12v1.92h-8.5Z"/>
      <path class="cls-4" d="M358.63,155.05v-13.03h2.38v11.16h5.76v1.86h-8.15,0Z"/>
      <path class="cls-4" d="M369.81,155.05v-13.03h2.38v13.03h-2.38Z"/>
      <path class="cls-4" d="M379.42,155.05l-4.77-13.03h2.55l3.69,10.59,3.7-10.59h2.51l-4.77,13.03h-2.92,0Z"/>
      <path class="cls-4" d="M389.58,155.05v-13.03h8.5v1.92h-6.12v3.57h5.56v1.86h-5.56v3.76h6.12v1.92h-8.5Z"/>
      <path class="cls-4" d="M405.72,155.27c-.95,0-1.8-.16-2.53-.49-.73-.33-1.31-.8-1.73-1.41s-.64-1.36-.65-2.24h2.51c.03.61.25,1.12.66,1.53.42.42.99.63,1.72.63.63,0,1.14-.15,1.51-.45s.56-.71.56-1.22-.16-.95-.49-1.24c-.33-.3-.76-.54-1.31-.73s-1.13-.39-1.75-.59c-1-.35-1.77-.8-2.3-1.34s-.79-1.27-.79-2.18c-.01-.77.17-1.43.55-1.98.38-.55.9-.98,1.55-1.28.66-.3,1.41-.45,2.27-.45s1.64.16,2.3.47,1.19.75,1.57,1.3c.38.56.58,1.22.61,1.99h-2.55c-.01-.46-.19-.87-.53-1.22-.34-.35-.81-.53-1.42-.53-.52-.01-.96.11-1.31.38-.35.27-.53.66-.53,1.16,0,.44.14.78.41,1.04.27.25.64.47,1.12.64s1.01.36,1.62.56c.64.22,1.24.49,1.77.78.53.3.96.69,1.28,1.18.32.49.49,1.12.49,1.89,0,.68-.18,1.31-.52,1.9-.35.58-.87,1.05-1.55,1.4-.68.35-1.52.53-2.51.53h0Z"/>
      <path class="cls-4" d="M414.28,155.18c-.44,0-.79-.14-1.07-.41s-.42-.6-.42-.98.14-.73.42-1,.64-.41,1.07-.41.79.14,1.07.41.42.61.42,1-.14.71-.42.98-.64.41-1.07.41Z"/>
    </g>
  </g>
  <g id="SYMBOL_NMDP" data-name="SYMBOL NMDP">
    <path class="cls-3" d="M212.27,61.75c-6.71,0-12.12,2.41-16.17,6.59-1.47,1.58-2.65,1.29-2.65-.88v-2.12c0-1.53-.82-2.41-2.41-2.41h-12c-1.58,0-2.41.88-2.41,2.41v57.45c0,1.58.82,2.41,2.41,2.41h12c1.58,0,2.41-.82,2.41-2.41v-32.93c.06-9.53,5.23-14.05,12.35-14.05,6.47,0,11.11,2.88,11.11,12.82v34.16c0,1.58.82,2.41,2.41,2.41h12.05c1.58,0,2.41-.82,2.41-2.41v-37.16c0-15.58-8.23-23.87-21.52-23.87h0Z"/>
    <path class="cls-3" d="M317.79,61.75c-7.12,0-12.88,2.94-17.11,7.82-1.06,1.35-2,1.24-2.94-.18-3.41-5.29-9.17-7.65-16.23-7.65-6.29,0-11.47,2.47-15.35,6.71-1.53,1.58-2.65,1.29-2.65-.88v-2.24c0-1.53-.88-2.41-2.41-2.41h-11.94c-1.58,0-2.41.88-2.41,2.41v57.45c0,1.58.82,2.41,2.41,2.41h11.94c1.53,0,2.41-.82,2.41-2.41v-34.99c0-7.35,3.94-12.17,10.7-12.17,5.94,0,10.11,3.76,10.11,11.35v35.81c0,1.58.82,2.41,2.36,2.41h12.05c1.58,0,2.41-.82,2.41-2.41v-34.99c0-7.35,3.94-12.17,10.7-12.17,5.88,0,10.11,3.76,10.11,11.35v35.81c0,1.58.82,2.41,2.41,2.41h11.94c1.53,0,2.41-.82,2.41-2.41v-40.34c0-13.06-8.35-20.7-20.94-20.7h0Z"/>
    <path class="cls-3" d="M465.87,61.75c-7.41,0-13.4,2.47-17.7,6.35-1.65,1.35-2.77.94-2.77-1.17v-1.58c0-1.53-.88-2.41-2.41-2.41h-11.94c-1.58,0-2.41.88-2.41,2.41v56.46c-.03.3-.05.61-.05.92v28.34c0,4.64,3.76,8.4,8.4,8.4s8.4-3.76,8.4-8.4v-8.91c0-.06.01-.11.01-.17v-20.72c0-2.06,1.12-2.47,2.77-1.06,4.53,4,10.65,6.18,17.7,6.18,16.64,0,30.4-13.4,30.4-32.23s-13.82-32.4-30.4-32.4h0ZM461.57,112.44c-10.06,0-17.93-7.41-17.93-18.29s7.88-18.23,17.93-18.23,17.93,7.41,17.93,18.23-7.94,18.29-17.93,18.29h0Z"/>
    <path class="cls-3" d="M406.98,28.79c-4.64,0-8.4,3.76-8.4,8.4v8.92c0,.06-.01.11-.01.16v20.72c0,2.06-1.12,2.47-2.77,1.06-4.53-4-10.65-6.18-17.7-6.18-16.64,0-30.4,13.4-30.4,32.23s13.82,32.4,30.4,32.4c7.41,0,13.4-2.47,17.7-6.35,1.65-1.35,2.77-.94,2.77,1.17v1.58c0,1.53.88,2.41,2.41,2.41h11.94c1.58,0,2.41-.88,2.41-2.41v-56.46c.03-.3.05-.61.05-.91v-28.34c0-4.64-3.76-8.4-8.4-8.4h0ZM382.4,112.33c-9.99,0-17.93-7.41-17.93-18.23s7.94-18.29,17.93-18.29,17.93,7.41,17.93,18.29-7.88,18.23-17.93,18.23Z"/>
    <path class="cls-4" d="M85.24,26.78c0-4.65-3.76-8.41-8.41-8.41s-8.41,3.76-8.41,8.41v59.45h16.82V26.78Z"/>
    <path class="cls-1" d="M53.08,59.33c0-4.65-3.76-8.41-8.41-8.41s-8.41,3.76-8.41,8.41v26.91h16.82v-26.91Z"/>
    <path class="cls-2" d="M149.57,70.16c0-4.65-3.76-8.41-8.41-8.41s-8.41,3.76-8.41,8.41v16.08h16.82v-16.08h0Z"/>
    <path class="cls-4" d="M85.24,160.07c0,4.65-3.76,8.41-8.41,8.41s-8.41-3.76-8.41-8.41v-59.45h16.82v59.45Z"/>
    <path class="cls-3" d="M117.4,138.36c0,4.65-3.76,8.41-8.41,8.41s-8.41-3.76-8.41-8.41v-37.74h16.82v37.74Z"/>
    <path class="cls-1" d="M53.08,127.52c0,4.65-3.76,8.41-8.41,8.41s-8.41-3.76-8.41-8.41v-26.91h16.82v26.91Z"/>
    <path class="cls-2" d="M149.57,116.69c0,4.65-3.76,8.41-8.41,8.41s-8.41-3.76-8.41-8.41v-16.08h16.82v16.08h0Z"/>
    <path class="cls-3" d="M117.4,48.49c0-4.65-3.76-8.41-8.41-8.41s-8.41,3.76-8.41,8.41v37.74h16.82v-37.74Z"/>
  </g>
  <g id="SM">
    <g>
      <path class="cls-3" d="M501.41,68.02c-1.12,0-2.12-.19-2.98-.58-.87-.39-1.54-.95-2.04-1.66-.49-.72-.75-1.6-.77-2.64h2.96c.03.72.29,1.32.78,1.81.49.49,1.17.73,2.02.73.74,0,1.33-.18,1.78-.54.44-.35.65-.84.65-1.43s-.19-1.11-.58-1.47-.9-.64-1.55-.86-1.33-.45-2.06-.7c-1.18-.41-2.09-.94-2.7-1.58s-.93-1.49-.93-2.56c-.02-.9.2-1.69.65-2.33.44-.65,1.05-1.16,1.83-1.51s1.66-.54,2.68-.54,1.93.19,2.7.55,1.4.87,1.84,1.54c.44.65.68,1.44.72,2.34h-3c-.02-.54-.22-1.02-.63-1.43-.4-.42-.96-.63-1.68-.63-.61-.02-1.13.13-1.55.45s-.63.77-.63,1.37c0,.51.16.92.49,1.22.32.3.76.55,1.32.76.56.2,1.19.42,1.91.65.76.27,1.45.57,2.09.92.63.35,1.13.81,1.51,1.39s.57,1.32.57,2.23c0,.8-.2,1.55-.61,2.24s-1.02,1.24-1.82,1.65-1.79.63-2.96.63h0Z"/>
      <path class="cls-3" d="M509.25,67.76v-15.34h3.33l4.89,9.73,4.82-9.73h3.33v15.34h-2.8v-10.59l-4.28,8.39h-2.21l-4.28-8.39v10.59h-2.81Z"/>
    </g>
  </g>
</svg>