<?xml version="1.0" encoding="utf-8"?>
<!-- Generator: Adobe Illustrator 26.0.2, SVG Export Plug-In . SVG Version: 6.00 Build 0)  -->
<svg version="1.1" id="Layer_1" xmlns="http://www.w3.org/2000/svg" xmlns:xlink="http://www.w3.org/1999/xlink" x="0px" y="0px"
	 viewBox="0 0 272.2 79.2" style="enable-background:new 0 0 272.2 79.2;" xml:space="preserve">
<style type="text/css">
	.st0{fill:#003865;}
</style>
<path class="st0" d="M227,48.5c-0.4,0-0.7,0.3-0.8,0.7v0c-0.6,1.4-1.3,1.8-3.1,1.8c-1.3,0.1-2.6-0.6-3.1-1.8l0,0
	c-0.1-0.4-0.4-0.6-0.8-0.6h-37.5c2.9-0.4,6-1.1,9.3-1.8c12-2.5,25.6-5.3,31.7,2.4l0.2,0.3h0.9l0.2-0.3c6.1-7.8,19.7-4.9,31.7-2.3
	c3,0.6,5.8,1.2,8.5,1.7L227,48.5z M197.7,13.8c2.4-0.4,4.7-1.1,7-2c3.5-1.2,7.5-2.6,10.9-2.6c3.1-0.2,6,1.6,7.1,4.4v26.1
	c-2.6-2.6-6.4-3.9-11.4-3.9c-5.2,0-11.1,1.4-16.2,2.6c-3.3,0.9-6.7,1.6-10.1,1.9L197.7,13.8z M231.5,9c3.3,0,7.2,1.4,10.6,2.6
	c2.3,1,4.7,1.7,7.2,2.1l12.6,26.7c-3.7-0.4-7.3-1-10.8-2c-5.3-1.3-10.8-2.6-15.9-2.6c-4.9,0-8.5,1.3-11.2,3.9v-26
	C225.3,10.7,228.3,8.9,231.5,9 M271.8,49.9c0.1-0.1,0.1-0.1,0.2-0.2c0.2-0.2,0.2-0.5,0-0.8l-14-29.2c-0.1-0.3-0.4-0.4-0.7-0.5H256
	v-0.1l-0.4-0.2h-0.5l-0.5-1l-0.3-0.2h-0.4l-0.5-1l-0.4-0.2h-0.4l-0.5-1l-0.3-0.2h-0.4l-0.5-1l-0.2-0.1l-0.6-1.4h-0.3
	c-2.5-0.4-4.9-1.2-7.2-2.2c-3.5-1.3-7.5-2.7-11-2.7c-3.4-0.2-6.6,1.7-8.1,4.6c-1.5-2.9-4.6-4.7-7.9-4.4c-3.6,0-7.6,1.4-11.2,2.7
	c-2.3,0.9-4.7,1.6-7.1,2h-0.3l-0.6,1.1h-0.1l-0.3,0.2l-0.5,1H195l-0.4,0.2l-0.5,1h-0.4l-0.3,0.2l-0.5,1h-0.4l-0.4,0.2l-0.5,1h-0.5
	l-0.3,0.2v0.1h-1.2c-0.3,0-0.6,0.2-0.7,0.5l-14.3,29.2c-0.1,0.2-0.1,0.5,0,0.8c0,0.1,0.1,0.1,0.2,0.2c-0.2,0.1-0.4,0.4-0.4,0.7
	c0,0.4,0.4,0.8,0.8,0.8l0,0h43c2.1,2.8,6,3.3,8.8,1.2c0.5-0.4,0.9-0.8,1.2-1.2h43.2c0.4,0,0.8-0.4,0.8-0.8c0,0,0,0,0,0
	c0-0.3-0.1-0.5-0.4-0.7"/>
<path class="st0" d="M14.2,0.5h6.1l7.9,14h0.1v-14h5.6v22.8h-6.1L19.9,9h-0.1v14.2h-5.6V0.5z"/>
<path class="st0" d="M44.5,0.5h6L59,23.2h-6.1l-1.4-4.1h-8l-1.4,4.1H36L44.5,0.5z M44.9,14.7h5.2l-2.5-8h-0.1L44.9,14.7z"/>
<path class="st0" d="M76.4,5.6h-6.8v17.6h-5.9V5.6h-6.8V0.5h19.5V5.6z"/>
<path class="st0" d="M79.5,0.5h5.9v22.8h-5.9V0.5z"/>
<path class="st0" d="M100.4,0c7.2,0,11.2,5.3,11.2,11.9s-4.1,11.9-11.2,11.9s-11.2-5.3-11.2-11.9S93.2,0,100.4,0z M100.4,18.6
	c3.8,0,5.3-3.4,5.3-6.8s-1.5-6.8-5.3-6.8s-5.3,3.4-5.3,6.8S96.6,18.6,100.4,18.6z"/>
<path class="st0" d="M115.2,0.5h6.1l7.9,14h0.1v-14h5.6v22.8h-6.1L120.9,9h-0.1v14.2h-5.6L115.2,0.5z"/>
<path class="st0" d="M145.6,0.5h6l8.5,22.8h-6.2l-1.4-4.1h-7.9l-1.4,4.1h-6.1L145.6,0.5z M146,14.7h5.2l-2.5-8h-0.1L146,14.7z"/>
<path class="st0" d="M162.3,0.5h5.9v17.7h10.6v5.1h-16.5V0.5z"/>
<path class="st0" d="M0,28.2h5.9v8.3h7.8v-8.3h5.9V51h-5.9v-9.4H5.9V51H0V28.2z"/>
<path class="st0" d="M23.8,28.2h18.1V33H29.7v4h11.2v4.6H29.7v4.3h12.5V51H23.8V28.2z"/>
<path class="st0" d="M45.7,28.2h11.6c4,0,8,1.8,8,6.4c0.1,2.5-1.3,4.7-3.6,5.7v0.1c2.4,0.6,3.1,3.3,3.3,5.5c0.1,1,0.2,4.3,1,5.1
	h-5.9c-0.5-0.8-0.6-3-0.7-3.6c-0.2-2.3-0.6-4.7-3.3-4.7h-4.5V51h-5.9V28.2z M51.6,38.1h5c1.3,0.2,2.6-0.8,2.7-2.1c0-0.2,0-0.4,0-0.6
	c0-1.7-1.3-2.5-3-2.5h-4.7V38.1z"/>
<path class="st0" d="M68.8,28.2h5.9V51h-5.9V28.2z"/>
<path class="st0" d="M96.9,33.3h-6.8V51h-5.9V33.3h-6.8v-5.1h19.5V33.3z"/>
<path class="st0" d="M102.9,28.2h6l8.5,22.8h-6.2l-1.4-4.1h-7.9l-1.4,4.1h-6.1L102.9,28.2z M103.2,42.5h5.2l-2.5-8h-0.1L103.2,42.5z
	"/>
<path class="st0" d="M140.2,51h-3.8l-0.4-2.5c-1.5,2-3.9,3.1-6.3,3c-6.9,0-11.3-5.3-11.3-11.8s4.5-11.9,11.3-11.9
	c4.7,0,9.8,2.5,10.3,8.2H134c-0.2-1.9-2.1-3.1-4.5-3.1c-3.8,0-5.3,3.4-5.3,6.8s1.5,6.8,5.3,6.8c2.9,0,4.9-1.4,5.2-3.4h-4.1v-4.4h9.6
	L140.2,51z"/>
<path class="st0" d="M144.1,28.2h18.1V33H150v4h11.1v4.6H150v4.3h12.5V51h-18.4V28.2z"/>
<path class="st0" d="M27,56h6l8.5,22.7h-6.2l-1.4-4h-7.9l-1.4,4h-6.1L27,56z M27.4,70.3h5.2l-2.5-8H30L27.4,70.3z"/>
<path class="st0" d="M58.5,64.1c-0.3-2.3-2.1-3.5-4.6-3.5c-3.8,0-5.3,3.4-5.3,6.8s1.5,6.8,5.3,6.8c2.3,0.2,4.4-1.5,4.6-3.8
	c0-0.1,0-0.2,0-0.4h5.9c-0.3,5.9-4.6,9.3-10.4,9.3c-6.9,0-11.3-5.3-11.3-11.8S47.1,55.5,54,55.5c4.9,0,10.2,3.1,10.4,8.6H58.5z"/>
<path class="st0" d="M73.8,56h6l8.5,22.7h-6.2l-1.4-4h-7.9l-1.4,4h-6.1L73.8,56z M74.2,70.3h5.2l-2.5-8h-0.1L74.2,70.3z"/>
<path class="st0" d="M90.1,56h9.8c7,0,11.2,4.2,11.2,11.3c0,7.4-4.2,11.4-11.2,11.4h-9.8V56z M96,73.7h2.8c4.5-0.1,6.3-1.8,6.3-6.4
	c0-4.1-2.2-6.2-6.3-6.2H96V73.7z"/>
<path class="st0" d="M114.4,56h18.1v4.7h-12.2v4h11.2v4.6h-11.2v4.3h12.5v5.1h-18.4V56z"/>
<path class="st0" d="M136.3,56h8.7l3.9,15.2h0.1L153,56h8.7v22.7h-5.6V61.5h-0.1l-4.8,17.2h-4.5L142,61.4h-0.1v17.3h-5.6L136.3,56z"
	/>
<path class="st0" d="M165.9,56h5.9v22.7h-5.9V56z"/>
<path class="st0" d="M176,56h18.1v4.7H182v4h11.1v4.6H182v4.3h12.6v5.1H176V56z"/>
<path class="st0" d="M202.6,71.1c0.1,2.7,1.8,3.5,4.3,3.5c1.8,0,3.6-0.6,3.6-2.3c0-2-3.2-2.4-6.5-3.3s-6.7-2.4-6.7-6.6
	c0-5,5-6.9,9.3-6.9c4.5,0,9.1,2.2,9.1,7.3h-5.9c0.1-2.1-1.9-2.7-3.7-2.7c-1.3,0-2.9,0.4-2.9,2c0,1.8,3.3,2.1,6.6,3s6.6,2.4,6.6,6.6
	c0,5.8-4.9,7.6-9.9,7.6c-5.2,0-9.8-2.3-9.9-8.1L202.6,71.1z"/>
<path class="st0" d="M220.2,56.6c1.5,0,2.8,1.3,2.8,2.8c0,1.5-1.3,2.8-2.8,2.8c-1.5,0-2.8-1.3-2.8-2.8
	C217.4,57.8,218.7,56.5,220.2,56.6C220.2,56.5,220.2,56.5,220.2,56.6z M220.2,61.7c1.3,0,2.4-1,2.4-2.3c0-1.3-1-2.4-2.3-2.4
	c-1.3,0-2.4,1-2.4,2.3c0,0,0,0,0,0.1c-0.1,1.3,0.9,2.3,2.2,2.4C220.1,61.7,220.2,61.7,220.2,61.7L220.2,61.7z M219.1,57.7h1.3
	c0.8,0,1.1,0.3,1.1,0.9c0,0.5-0.3,0.9-0.8,0.9c0,0,0,0-0.1,0l0.9,1.4h-0.5l-0.9-1.4h-0.5v1.4h-0.5V57.7z M219.6,59.1h0.5
	c0.4,0,0.9,0,0.9-0.5s-0.4-0.5-0.7-0.5h-0.7V59.1z"/>
</svg>
