<?xml version="1.0" encoding="utf-8"?>
<svg version="1.1" id="Layer_1" xmlns="http://www.w3.org/2000/svg" xmlns:xlink="http://www.w3.org/1999/xlink" x="0px" y="0px"
	 viewBox="0 0 213 40.2" style="enable-background:new 0 0 213 40.2;" xml:space="preserve">
<g>
	<path fill="#00843D" d="M39.9,0v40.2H0V0H39.9z M20,2.1L18.5,10l1.2-1.2v6l-6.1-8.4H7v27.2h6.2V15.5h0.1l6.4,8.8
		v6.2l-1.2,1.3V38l1.5-1.6l1.6,1.6v-6.2l-1.2-1.3v-5.2l6.1,8.4H33V6.5h-6.2v18.3h-0.1l-6.4-8.9v-7l1.2,1.2L20,2.1z M179.4,15.4
		c3.2,0,5,1.8,5,4.8v7.6h-2.8v-1c0-0.5,0-0.9,0-0.9l0,0c0,0-0.9,2.1-3.7,2.1c-2.2,0-4.1-1.4-4.1-3.8c0-3.8,5.2-4.1,7.2-4.1h0.4V20
		c0-1.6-1-2.1-2.3-2.1c-1.7,0-3.3,1.2-3.3,1.2l-1.1-2.2C174.6,16.9,176.5,15.4,179.4,15.4z M76.2,15.4c3.7,0,6.7,2.6,6.7,6.3
		s-3,6.3-6.6,6.3c-3.7,0-6.7-2.6-6.7-6.3S72.6,15.4,76.2,15.4z M123.3,15.4c3.5,0,5.4,2.5,5.4,5.7c0,0.4-0.1,1.2-0.1,1.2h-8.3
		c0.2,2.1,1.8,3.2,3.6,3.2c1.9,0,3.5-1.3,3.5-1.3l1.2,2.2c0,0-1.8,1.7-4.9,1.7c-4,0-6.5-2.9-6.5-6.3
		C117.2,18,119.7,15.4,123.3,15.4z M98.8,12.4v3.5h2.7v2.4h-2.7V23c0,2,1.6,2.3,2.4,2.3c0.3,0,0.5,0,0.5,0v2.6c0,0-0.4,0.1-0.9,0.1
		c-1.7,0-5-0.5-5-4.6v-5.1h-1.6v-2.4h1.6v-3.5H98.8z M204.8,10.9v9h1.5l2.9-4.3h3.3l-3.8,5.4l0,0l4.3,6.6h-3.5l-3.2-5.3h-1.6v5.3
		h-3V10.9H204.8z M91.9,15.5c0.3,0,0.5,0,0.5,0v3c0,0-0.3,0-0.7,0c-1.3,0-2.7,0.7-3.3,2.5c-0.2,0.6-0.3,1.3-0.3,2v4.8h-3V15.7H88
		v2.1c0,0.5,0,0.9,0,0.9l0,0C88.6,16.9,90.1,15.5,91.9,15.5z M146.9,15.4c2.7,0,4.2,1.4,4.2,4.6v7.8h-3v-7.2c0-1.5-0.4-2.5-1.9-2.5
		c-1.6,0-2.8,1-3.2,2.5c-0.2,0.5-0.2,1-0.2,1.6v5.5h-3v-12h2.9v1.4c0,0.4,0,0.8,0,0.8l0,0C143.2,16.9,144.5,15.4,146.9,15.4z
		 M56.6,10.9l6.4,9.7c0.6,1,1.4,2.6,1.4,2.6l0,0c0,0-0.2-1.6-0.2-2.6v-9.7h3v16.8h-3L57.8,18c-0.6-1-1.4-2.6-1.4-2.6l0,0
		c0,0,0.2,1.6,0.2,2.6v9.7h-3.1V10.9H56.6z M194.6,15.4c2.7,0,4.2,1.4,4.2,4.6v7.8h-3v-7.2c0-1.5-0.4-2.5-1.9-2.5
		c-1.6,0-2.8,1-3.2,2.5c-0.2,0.5-0.2,1-0.2,1.6v5.5h-3v-12h2.9v1.4c0,0.4,0,0.8,0,0.8l0,0C190.8,16.9,192.1,15.4,194.6,15.4z
		 M107.1,10.9v5.8c0,0.6,0,1,0,1l0,0c0.6-1.2,2.1-2.4,4.2-2.4c2.7,0,4.2,1.4,4.2,4.6v7.8h-3v-7.2c0-1.5-0.4-2.5-1.9-2.5
		c-1.6,0-2.8,1-3.3,2.5c-0.1,0.5-0.2,1-0.2,1.6v5.5h-3V10.9H107.1z M137.3,15.5c0.3,0,0.5,0,0.5,0v3c0,0-0.3,0-0.7,0
		c-1.3,0-2.7,0.7-3.3,2.5c-0.2,0.6-0.3,1.3-0.3,2v4.8h-3V15.7h2.9v2.1c0,0.5,0,0.9,0,0.9l0,0C134,16.9,135.4,15.5,137.3,15.5z
		 M166.3,10.9c3,0,5.2,1.6,5.2,4.3c0,1.6-0.8,2.9-2,3.6l0,0c1.8,0.5,2.7,2.3,2.7,4c0,3.4-2.7,4.9-5.8,4.9h-6.1V10.9H166.3z
		 M181.4,22.2h-0.5c-1.5,0-4,0.2-4,1.9c0,0.8,0.6,1.6,1.8,1.6c1.6,0,2.7-1.7,2.7-3.2V22.2z M76.2,17.9c-2,0-3.6,1.5-3.6,3.8
		s1.6,3.8,3.6,3.8c1.9,0,3.6-1.5,3.6-3.8C79.8,19.5,78.2,17.9,76.2,17.9z M166.6,20.3h-3.3v4.9h3.3c1.6,0,2.4-1,2.4-2.4
		C169,21.3,168.1,20.3,166.6,20.3z M123.2,17.7c-1.5,0-2.6,0.9-2.9,2.5h5.3C125.6,18.6,124.6,17.7,123.2,17.7z M166.2,13.6h-2.9
		v4.2h3c1.3,0,2.1-0.9,2.1-2.2C168.4,14.4,167.6,13.6,166.2,13.6z"/>
</g>
</svg>
