<?xml version="1.0" encoding="utf-8"?>
<!-- Generator: Adobe Illustrator 27.3.0, SVG Export Plug-In . SVG Version: 6.00 Build 0)  -->
<svg version="1.1" id="Logo" xmlns="http://www.w3.org/2000/svg" xmlns:xlink="http://www.w3.org/1999/xlink" x="0px" y="0px"
	 width="704.51" height="195.69"
	 viewBox="0 0 704.51 195.69" style="enable-background:new 0 0 704.51 195.69;" xml:space="preserve">
<style type="text/css">
	.st0{fill:none;}
	.st1{fill:#007580;}
	.st2{fill:#EEB500;}
</style>
<rect class="st0" width="704.51" height="195.69"/>
<g>
	<path class="st1" d="M184.83,80.78c-5.02,0-9.79-1.05-14.12-2.94v89.62h28.27V77.83C194.64,79.72,189.86,80.78,184.83,80.78z"/>
	<circle class="st2" cx="184.83" cy="45.42" r="17.64"/>
	<g>
		<g>
			<path class="st1" d="M348.69,58.08c23.17,0,37.01,13.16,37.01,32.9v1.29c0,19.43-14.19,33-36.97,33h-23.75v1.75
				c0,9.23,4.34,17.73,19.29,17.73h33.32v22.73h-35.77c-27.37,0-44.38-15.6-44.38-40.91V58.08L348.69,58.08z M345.53,102.52
				c9.48,0,12.63-7.1,12.63-10.12v-1.56c0-3.54-3.15-10.07-12.63-10.07l-20.56,0v21.75H345.53z"/>
			<path class="st1" d="M617.98,167.46c-23.17,0-37.01-13.16-37.01-32.9v-1.29c0-19.43,14.19-33,36.97-33h23.75v-1.75
				c0-9.23-4.34-17.73-19.29-17.73h-33.32V58.07h35.77c27.37,0,44.38,15.6,44.38,40.91v68.48L617.98,167.46z M621.14,123.02
				c-9.48,0-12.63,7.1-12.63,10.12v1.56c0,3.54,3.15,10.07,12.63,10.07l20.56,0v-21.75H621.14z"/>
			<path class="st1" d="M275.71,80.77V58.08h-23.33v-22.8h-27.54v91.14c0,25.31,17.01,41.04,44.38,41.04h6.45v-22.72h-4
				c-14.95,0-19.29-8.63-19.29-17.86V80.77H275.71z"/>
			<path class="st1" d="M35.28,35.28h29.93l51.02,81.27V35.28h28.06v132.18h-27.9L63.33,83.54v83.92H35.28V35.28z"/>
			<path class="st1" d="M435.54,167.46H408V58.07h35.95c34.88,0,40.09,28.81,40.09,44.42h-27.54c0-19.83-9.08-21.72-14.37-21.72
				h-6.6V167.46z"/>
			<path class="st1" d="M525.99,167.46h-27.54V58.07h35.95c34.88,0,40.09,28.81,40.09,44.42h-27.54c0-19.83-9.08-21.72-14.37-21.72
				h-6.6V167.46z"/>
		</g>
	</g>
</g>
</svg>
