<svg width="395" height="24" viewBox="0 0 395 24" fill="none" xmlns="http://www.w3.org/2000/svg">
<g clip-path="url(#clip0_1403_35069)">
<path d="M19.14 15.38L18.9 14.92L12.73 4.49996L10.39 8.38996L13.92 14.3L14.06 14.61C14.69 15.5 14.29 16.1 13.35 16H9.88003H9.65003H6.18003C5.35003 16.1 5.05003 15.39 5.46003 14.61L5.60003 14.3L12.6 2.53996C12.7633 2.54653 12.9244 2.501 13.06 2.40996C13.17 2.21996 12.36 1.68996 11.31 1.04996C10.26 0.409963 9.26003 -0.130037 9.14003 0.0499633C9.12849 0.206526 9.16327 0.363023 9.24003 0.499962L0.580033 15.05L0.420033 15.37C0.179707 15.7563 0.0441142 16.1985 0.0266005 16.6531C0.0090869 17.1077 0.110257 17.5591 0.320151 17.9627C0.530045 18.3663 0.841429 18.7084 1.22365 18.9551C1.60588 19.2019 2.04577 19.3448 2.50003 19.37H17.03C17.357 19.3713 17.6811 19.3082 17.9837 19.1843C18.2863 19.0603 18.5615 18.878 18.7937 18.6477C19.0258 18.4174 19.2103 18.1437 19.3367 17.8421C19.463 17.5405 19.5287 17.217 19.53 16.89C19.5153 16.3637 19.3819 15.8476 19.14 15.38Z" fill="#FC1921"/>
<path d="M7.58 13.3401C7.55568 13.6226 7.59174 13.9071 7.68578 14.1747C7.77982 14.4423 7.9297 14.6868 8.12547 14.892C8.32123 15.0973 8.55841 15.2585 8.82125 15.365C9.08409 15.4716 9.36659 15.521 9.65 15.5101C9.92658 15.5337 10.205 15.4994 10.4677 15.4095C10.7303 15.3196 10.9713 15.1761 11.1754 14.9879C11.3796 14.7998 11.5423 14.5713 11.6532 14.3168C11.7642 14.0624 11.821 13.7876 11.82 13.5101C11.8178 13.1248 11.7181 12.7463 11.53 12.4101L11.31 12.0101L9.7 9.31006L7.94 12.1201C7.7077 12.4848 7.58292 12.9076 7.58 13.3401Z" fill="#FC1921"/>
<path d="M28.14 1.73999H31.98L39.55 13.94V1.73999H42.45V18.03H38.82L31.09 5.44999H31.04V18.03H28.14V1.73999Z" fill="black"/>
<path d="M56.36 12.65V13.02C56.37 13.1398 56.37 13.2602 56.36 13.38H47.95C47.9672 13.7631 48.0661 14.1382 48.24 14.48C48.4132 14.8079 48.6514 15.0972 48.94 15.33C49.2396 15.5714 49.5776 15.7607 49.94 15.89C50.3073 16.0298 50.6971 16.101 51.09 16.1C51.6955 16.1169 52.2961 15.9865 52.84 15.72C53.3021 15.4817 53.7027 15.1394 54.01 14.72L55.86 16.18C55.313 16.9102 54.5941 17.494 53.7672 17.8795C52.9403 18.2651 52.031 18.4404 51.12 18.39C50.3124 18.4006 49.5095 18.2651 48.75 17.99C48.0581 17.7361 47.4227 17.3487 46.88 16.85C46.3378 16.3459 45.9143 15.7277 45.64 15.04C45.341 14.2557 45.2049 13.4187 45.24 12.58C45.2172 11.7617 45.353 10.9467 45.64 10.18C45.911 9.4785 46.3306 8.84397 46.87 8.32C47.4007 7.80092 48.0297 7.39296 48.72 7.12C49.4565 6.8351 50.2404 6.69258 51.03 6.7C51.7577 6.69001 52.4807 6.81899 53.16 7.08C53.796 7.32065 54.3725 7.69588 54.85 8.18C55.3451 8.72009 55.723 9.35677 55.96 10.05C56.2431 10.8869 56.3784 11.7667 56.36 12.65ZM53.6 11.4C53.5982 11.0619 53.5511 10.7256 53.46 10.4C53.3624 10.0857 53.1987 9.79591 52.98 9.55C52.7577 9.29754 52.4807 9.09917 52.17 8.97C51.8035 8.81476 51.408 8.73974 51.01 8.75C50.24 8.73127 49.4897 8.99443 48.9 9.49C48.6208 9.72983 48.3928 10.0234 48.2296 10.3533C48.0664 10.6832 47.9713 11.0426 47.95 11.41L53.6 11.4Z" fill="black"/>
<path d="M57.35 6.98999H60.35L62.65 14.9L65.02 6.98999H67.96L70.35 14.9L72.7 6.98999H75.57L71.75 17.99H69.04L66.53 10.26H66.48L64 17.99H61.24L57.35 6.98999Z" fill="black"/>
<path d="M86.45 10.97L80.33 1.73999H83.87L87.97 8.59999L92.11 1.73999H95.46L89.35 10.97V18.03H86.45V10.97Z" fill="black"/>
<path d="M93.79 12.46C93.7702 11.6438 93.9236 10.8327 94.24 10.08C94.5382 9.39203 94.9699 8.77003 95.51 8.25001C96.0658 7.74122 96.7143 7.34402 97.42 7.08001C98.173 6.80573 98.9686 6.66692 99.77 6.67001C100.568 6.66598 101.361 6.80483 102.11 7.08001C102.818 7.33936 103.467 7.73709 104.02 8.25001C104.566 8.76679 105.002 9.38944 105.3 10.08C105.617 10.8331 105.777 11.6429 105.77 12.46C105.78 13.2838 105.62 14.1008 105.3 14.86C105.002 15.5566 104.567 16.1859 104.02 16.71C103.469 17.2324 102.82 17.6403 102.11 17.91C101.367 18.2092 100.571 18.3587 99.77 18.35C98.9655 18.3577 98.1672 18.2082 97.42 17.91C96.7132 17.6344 96.0651 17.2272 95.51 16.71C94.9693 16.1827 94.5378 15.5541 94.24 14.86C93.9237 14.1003 93.7704 13.2827 93.79 12.46ZM96.59 12.46C96.5929 12.8975 96.6603 13.3322 96.79 13.75C96.9118 14.1654 97.1084 14.5551 97.37 14.9C97.6407 15.2444 97.9816 15.5274 98.37 15.73C98.8129 15.9532 99.3042 16.0632 99.8 16.05C100.292 16.0615 100.78 15.9516 101.22 15.73C101.608 15.5274 101.949 15.2444 102.22 14.9C102.485 14.5556 102.685 14.166 102.81 13.75C102.94 13.3322 103.007 12.8975 103.01 12.46C103.008 12.029 102.941 11.6008 102.81 11.19C102.682 10.7781 102.483 10.3921 102.22 10.05C101.952 9.70584 101.61 9.42573 101.22 9.23C100.778 9.0156 100.291 8.90935 99.8 8.92001C99.3057 8.91041 98.816 9.01657 98.37 9.23C97.98 9.42573 97.6384 9.70584 97.37 10.05C97.1104 10.3925 96.914 10.7785 96.79 11.19C96.6595 11.6008 96.5921 12.029 96.59 12.46Z" fill="black"/>
<path d="M108.34 6.99001H110.99V8.83001C111.273 8.20722 111.715 7.66939 112.27 7.27C112.836 6.86729 113.516 6.65695 114.21 6.67001H114.55C114.659 6.67749 114.766 6.69763 114.87 6.73V9.26001C114.716 9.21728 114.559 9.18389 114.4 9.16H114.02C113.491 9.14061 112.967 9.26136 112.5 9.51001C112.146 9.71304 111.841 9.99331 111.61 10.33C111.405 10.6345 111.256 10.9731 111.17 11.33C111.101 11.5948 111.06 11.8664 111.05 12.14V18.05H108.34V6.99001Z" fill="black"/>
<path d="M116.65 0.639893H119.41V11.6399H119.48L123.66 6.98989H127.24L122.46 11.9899L127.54 18.0399H123.89L119.52 12.3799H119.45V18.0399H116.69L116.65 0.639893Z" fill="black"/>
<path d="M135.71 1.73999H142.06C142.673 1.74334 143.284 1.81716 143.88 1.95999C144.453 2.09878 144.996 2.34292 145.48 2.67999C145.947 3.01639 146.336 3.44958 146.62 3.94999C146.923 4.5327 147.071 5.18354 147.05 5.83999C147.081 6.67029 146.803 7.48257 146.27 8.11999C145.726 8.72815 145.023 9.17162 144.24 9.39999V9.44999C145.194 9.55424 146.085 9.97698 146.77 10.65C147.107 10.9989 147.37 11.413 147.542 11.8669C147.714 12.3209 147.792 12.8051 147.77 13.29C147.8 14.0709 147.617 14.8454 147.24 15.53C146.907 16.1258 146.429 16.6279 145.85 16.99C145.239 17.3784 144.56 17.6496 143.85 17.79C143.107 17.9504 142.35 18.0309 141.59 18.03H135.72L135.71 1.73999ZM138.61 8.36999H141.24C142.02 8.4225 142.796 8.21885 143.45 7.78999C143.698 7.59991 143.896 7.35206 144.027 7.06799C144.158 6.78392 144.217 6.47222 144.2 6.15999C144.227 5.8532 144.169 5.5448 144.031 5.2693C143.894 4.99379 143.682 4.76205 143.42 4.59999C142.659 4.24057 141.819 4.08219 140.98 4.13999H138.66L138.61 8.36999ZM138.61 15.59H141.24C141.641 15.5913 142.042 15.5645 142.44 15.51C142.849 15.4654 143.247 15.3539 143.62 15.18C143.976 15.0113 144.286 14.7571 144.52 14.44C144.757 14.0644 144.869 13.6233 144.84 13.18C144.876 12.8302 144.813 12.4774 144.66 12.1612C144.506 11.845 144.267 11.5779 143.97 11.39C143.148 10.9984 142.239 10.8229 141.33 10.88H138.61V15.59Z" fill="black"/>
<path d="M149.93 0.639893H152.69V18.0299H149.93V0.639893Z" fill="black"/>
<path d="M154.83 12.46C154.816 11.6424 154.977 10.8312 155.3 10.08C155.598 9.39203 156.03 8.77003 156.57 8.25001C157.126 7.74122 157.774 7.34402 158.48 7.08001C159.233 6.80573 160.028 6.66692 160.83 6.67001C161.628 6.66598 162.421 6.80483 163.17 7.08001C163.878 7.33936 164.527 7.73709 165.08 8.25001C165.626 8.76679 166.062 9.38944 166.36 10.08C166.677 10.8331 166.837 11.6429 166.83 12.46C166.84 13.2838 166.68 14.1008 166.36 14.86C166.062 15.5566 165.627 16.1859 165.08 16.71C164.529 17.2324 163.88 17.6403 163.17 17.91C162.426 18.2092 161.631 18.3587 160.83 18.35C160.025 18.3577 159.227 18.2082 158.48 17.91C157.773 17.6344 157.125 17.2272 156.57 16.71C156.029 16.1827 155.598 15.5541 155.3 14.86C154.977 14.1018 154.817 13.2841 154.83 12.46ZM157.63 12.46C157.633 12.8975 157.7 13.3322 157.83 13.75C157.952 14.1654 158.148 14.5551 158.41 14.9C158.681 15.2444 159.021 15.5274 159.41 15.73C159.853 15.9532 160.344 16.0632 160.84 16.05C161.332 16.0615 161.82 15.9516 162.26 15.73C162.648 15.5274 162.989 15.2444 163.26 14.9C163.525 14.5556 163.725 14.166 163.85 13.75C163.98 13.3322 164.047 12.8975 164.05 12.46C164.048 12.029 163.98 11.6008 163.85 11.19C163.722 10.7781 163.523 10.3921 163.26 10.05C162.992 9.70584 162.65 9.42573 162.26 9.23C161.818 9.0156 161.331 8.90935 160.84 8.92001C160.346 8.91041 159.856 9.01657 159.41 9.23C159.02 9.42573 158.678 9.70584 158.41 10.05C158.15 10.3925 157.954 10.7785 157.83 11.19C157.699 11.6008 157.632 12.029 157.63 12.46Z" fill="black"/>
<path d="M168.24 12.46C168.233 11.6429 168.393 10.833 168.71 10.08C169.007 9.38751 169.443 8.76368 169.992 8.2475C170.541 7.73133 171.191 7.33388 171.9 7.07999C173.415 6.53323 175.074 6.53323 176.59 7.07999C177.297 7.34172 177.946 7.73918 178.5 8.24999C179.043 8.76717 179.476 9.38989 179.77 10.08C180.097 10.8304 180.26 11.6416 180.25 12.46C180.26 13.2848 180.097 14.1025 179.77 14.86C179.476 15.556 179.044 16.1853 178.5 16.71C177.947 17.2301 177.298 17.6377 176.59 17.91C175.082 18.4966 173.408 18.4966 171.9 17.91C171.194 17.6494 170.548 17.2495 170 16.7341C169.452 16.2187 169.013 15.5984 168.71 14.91C168.383 14.1353 168.223 13.3006 168.24 12.46ZM171.05 12.46C171.049 12.897 171.113 13.3317 171.24 13.75C171.365 14.1659 171.565 14.5556 171.83 14.9C172.101 15.2444 172.442 15.5273 172.83 15.73C173.275 15.9409 173.762 16.0503 174.255 16.0503C174.748 16.0503 175.235 15.9409 175.68 15.73C176.068 15.5273 176.409 15.2444 176.68 14.9C176.941 14.5533 177.141 14.1643 177.27 13.75C177.397 13.3317 177.461 12.897 177.46 12.46C177.461 12.0295 177.397 11.6013 177.27 11.19C177.138 10.7797 176.939 10.3944 176.68 10.05C176.412 9.70582 176.07 9.42572 175.68 9.22999C175.233 9.0257 174.747 8.91997 174.255 8.91997C173.763 8.91997 173.277 9.0257 172.83 9.22999C172.44 9.42572 172.098 9.70582 171.83 10.05C171.568 10.389 171.369 10.7716 171.24 11.18C171.125 11.5966 171.075 12.0282 171.09 12.46H171.05Z" fill="black"/>
<path d="M193.6 18.0299H190.98V16.3699C190.602 17.0085 190.046 17.5229 189.38 17.8499C188.694 18.182 187.942 18.353 187.18 18.3499C186.398 18.3607 185.623 18.2003 184.91 17.8799C184.262 17.5772 183.684 17.1449 183.21 16.6099C182.737 16.0628 182.371 15.4319 182.13 14.7499C181.874 14.0138 181.745 13.2393 181.75 12.4599C181.743 11.686 181.875 10.9172 182.14 10.1899C182.38 9.50944 182.754 8.88387 183.24 8.34989C183.71 7.82099 184.291 7.40121 184.94 7.11989C185.619 6.81591 186.356 6.66241 187.1 6.6699C187.559 6.66023 188.017 6.7175 188.46 6.83989C188.826 6.93935 189.179 7.08378 189.51 7.26989C189.787 7.42282 190.045 7.60739 190.28 7.81989C190.47 7.99408 190.644 8.18483 190.8 8.38989H190.87V0.639893H193.63L193.6 18.0299ZM184.52 12.4599C184.519 12.8969 184.583 13.3316 184.71 13.7499C184.835 14.1658 185.035 14.5555 185.3 14.8999C185.571 15.2443 185.912 15.5272 186.3 15.7299C186.734 15.9483 187.214 16.0581 187.7 16.0499C188.172 16.06 188.639 15.9535 189.06 15.7399C189.445 15.5359 189.785 15.2571 190.06 14.9199C190.347 14.5881 190.567 14.2045 190.71 13.7899C190.851 13.3776 190.925 12.9455 190.93 12.5099C190.925 12.071 190.851 11.6356 190.71 11.2199C190.568 10.7991 190.347 10.4089 190.06 10.0699C189.782 9.73238 189.443 9.45072 189.06 9.23989C188.64 9.02283 188.173 8.91291 187.7 8.9199C187.216 8.9124 186.736 9.01857 186.3 9.22989C185.91 9.42562 185.568 9.70573 185.3 10.0499C185.037 10.3919 184.838 10.7779 184.71 11.1899C184.583 11.6012 184.519 12.0294 184.52 12.4599Z" fill="black"/>
<path d="M213.71 5.56001C213.284 4.98409 212.7 4.54318 212.03 4.29001C211.394 4.03129 210.716 3.89229 210.03 3.88001C209.24 3.87282 208.457 4.02944 207.73 4.34001C207.056 4.63777 206.451 5.06993 205.95 5.61001C205.449 6.15651 205.058 6.79495 204.8 7.49001C204.528 8.24319 204.392 9.03908 204.4 9.84001C204.39 10.6696 204.522 11.4947 204.79 12.28C205.029 12.9815 205.406 13.6278 205.9 14.18C206.387 14.708 206.98 15.1271 207.64 15.41C208.363 15.7076 209.139 15.8539 209.92 15.84C210.723 15.8557 211.518 15.681 212.24 15.33C212.884 15.0084 213.442 14.5389 213.87 13.96L216.2 15.59C215.49 16.4875 214.584 17.2095 213.55 17.7C212.4 18.2146 211.15 18.4673 209.89 18.44C208.694 18.4539 207.506 18.2401 206.39 17.81C205.361 17.4172 204.424 16.8144 203.64 16.04C202.861 15.2695 202.248 14.3471 201.84 13.33C201.401 12.2196 201.184 11.034 201.2 9.84001C201.184 8.62931 201.415 7.42809 201.88 6.31001C202.306 5.29643 202.939 4.38344 203.74 3.63001C204.552 2.88403 205.504 2.30625 206.54 1.93001C207.658 1.52231 208.84 1.31907 210.03 1.33001C210.577 1.33216 211.122 1.38235 211.66 1.48001C212.221 1.57542 212.771 1.72961 213.3 1.94001C213.816 2.14443 214.308 2.40251 214.77 2.71001C215.22 3.01077 215.616 3.38615 215.94 3.82001L213.71 5.56001Z" fill="black"/>
<path d="M227.97 12.6501V13.0201C227.98 13.1399 227.98 13.2603 227.97 13.3801H219.58C219.603 13.7647 219.709 14.1399 219.89 14.4801C220.066 14.806 220.304 15.0946 220.59 15.3301C220.889 15.5715 221.228 15.7608 221.59 15.8901C221.957 16.0299 222.347 16.1011 222.74 16.1001C223.345 16.117 223.946 15.9866 224.49 15.7201C224.952 15.4818 225.353 15.1395 225.66 14.7201L227.46 16.1801C226.913 16.9103 226.194 17.4941 225.367 17.8796C224.54 18.2652 223.631 18.4405 222.72 18.3901C221.912 18.4007 221.109 18.2652 220.35 17.9901C219.658 17.7362 219.023 17.3489 218.48 16.8501C217.935 16.3328 217.511 15.7009 217.24 15.0001C216.929 14.2318 216.776 13.4088 216.79 12.5801C216.783 11.7585 216.936 10.9434 217.24 10.1801C217.518 9.48249 217.937 8.84944 218.47 8.32011C219.002 7.8031 219.631 7.39542 220.32 7.12011C221.056 6.8352 221.84 6.69268 222.63 6.70011C223.358 6.68913 224.081 6.81814 224.76 7.08011C225.396 7.32076 225.972 7.69599 226.45 8.18011C226.948 8.7177 227.327 9.35513 227.56 10.0501C227.847 10.8864 227.985 11.7662 227.97 12.6501ZM225.24 11.4001C225.24 11.0612 225.189 10.7242 225.09 10.4001C224.992 10.0858 224.829 9.79601 224.61 9.55011C224.388 9.29764 224.111 9.09927 223.8 8.97011C223.433 8.81486 223.038 8.73985 222.64 8.75011C221.87 8.73138 221.12 8.99453 220.53 9.49011C220.251 9.72993 220.023 10.0235 219.859 10.3534C219.696 10.6833 219.601 11.0427 219.58 11.4101L225.24 11.4001Z" fill="black"/>
<path d="M230.52 6.98994H233.14V8.75994C233.42 8.16506 233.86 7.65961 234.41 7.29994C235.044 6.8728 235.795 6.65271 236.56 6.66994C237.201 6.65009 237.838 6.78021 238.42 7.04994C238.911 7.28277 239.342 7.62484 239.68 8.04994C240.013 8.4717 240.261 8.95391 240.41 9.46994C240.562 10.0102 240.639 10.5687 240.64 11.1299V18.0299H237.87V11.9099C237.869 11.5758 237.848 11.2419 237.81 10.9099C237.769 10.5616 237.668 10.2232 237.51 9.90994C237.352 9.63167 237.133 9.39246 236.87 9.20994C236.552 9.01515 236.182 8.92104 235.81 8.93994C235.425 8.91884 235.04 8.99368 234.691 9.15775C234.342 9.32181 234.039 9.56996 233.81 9.87994C233.597 10.1839 233.438 10.5222 233.34 10.8799C233.233 11.2368 233.179 11.6074 233.18 11.9799V18.0499H230.42L230.52 6.98994Z" fill="black"/>
<path d="M242.24 9.18004V6.99004H244.17V3.79004H246.89V6.99004H249.65V9.18004H246.89V14.31C246.877 14.7317 246.966 15.1502 247.15 15.53C247.33 15.85 247.72 16.01 248.34 16.01C248.541 16.008 248.742 15.9879 248.94 15.95C249.135 15.9128 249.326 15.8558 249.51 15.78L249.6 17.94C249.317 18.0393 249.026 18.1129 248.73 18.16C248.399 18.2118 248.065 18.2385 247.73 18.24C247.118 18.2635 246.508 18.1579 245.94 17.93C245.509 17.7469 245.133 17.4538 244.85 17.08C244.576 16.7119 244.385 16.2889 244.29 15.84C244.187 15.3434 244.137 14.8372 244.14 14.33V9.18004H242.24Z" fill="black"/>
<path d="M262.03 12.6501V13.0201C262.03 13.1401 262.03 13.2601 262.03 13.3801H253.63C253.653 13.7566 253.754 14.1242 253.926 14.4599C254.098 14.7955 254.338 15.0918 254.63 15.3301C254.93 15.5716 255.268 15.7609 255.63 15.8901C255.997 16.0299 256.387 16.1011 256.78 16.1001C257.385 16.117 257.986 15.9866 258.53 15.7201C258.996 15.4869 259.397 15.1437 259.7 14.7201L261.52 16.1801C260.975 16.9095 260.257 17.4929 259.432 17.8784C258.607 18.264 257.699 18.4398 256.79 18.3901C255.982 18.4007 255.179 18.2652 254.42 17.9901C253.725 17.7364 253.086 17.3491 252.54 16.8501C252 16.3443 251.577 15.7266 251.3 15.0401C250.989 14.2718 250.836 13.4488 250.85 12.6201C250.839 11.7884 250.992 10.9628 251.3 10.1901C251.578 9.4925 251.997 8.85945 252.53 8.33012C253.062 7.81311 253.691 7.40543 254.38 7.13012C255.117 6.84615 255.9 6.70366 256.69 6.71012C257.418 6.69914 258.141 6.82815 258.82 7.09012C259.456 7.32525 260.033 7.69736 260.51 8.18012C261.012 8.71696 261.394 9.3544 261.63 10.0501C261.908 10.8882 262.043 11.7672 262.03 12.6501ZM259.24 11.4001C259.24 11.0612 259.189 10.7242 259.09 10.4001C258.992 10.0882 258.832 9.79909 258.62 9.55012C258.392 9.29971 258.112 9.10182 257.8 8.97012C257.433 8.81488 257.038 8.73986 256.64 8.75012C255.873 8.72917 255.125 8.99274 254.54 9.49012C254.25 9.72425 254.012 10.0156 253.84 10.3459C253.668 10.6763 253.566 11.0385 253.54 11.4101L259.24 11.4001Z" fill="black"/>
<path d="M264.58 6.99H267.24V8.83C267.529 8.208 267.973 7.6708 268.53 7.27C269.092 6.86741 269.769 6.65697 270.46 6.67H270.81C270.919 6.67749 271.026 6.69762 271.13 6.73V9.26C270.976 9.21728 270.819 9.18389 270.66 9.16H270.28C269.751 9.13668 269.226 9.25767 268.76 9.51C268.405 9.71557 268.098 9.99524 267.86 10.33C267.657 10.6343 267.511 10.9732 267.43 11.33C267.361 11.5948 267.32 11.8664 267.31 12.14V18.05H264.55L264.58 6.99Z" fill="black"/>
<path d="M278.61 1.73999H289.4V4.27999H281.51V8.41999H288.99V10.85H281.51V15.45H289.81V18.03H278.61V1.73999Z" fill="black"/>
<path d="M292.39 6.99003H295.01V8.76004H295.06C295.34 8.16515 295.78 7.65971 296.33 7.30003C296.964 6.87289 297.715 6.6528 298.48 6.67004C299.118 6.64722 299.752 6.77751 300.33 7.05003C300.825 7.28002 301.26 7.62243 301.6 8.05003C301.933 8.47034 302.177 8.95324 302.32 9.47003C302.477 10.0093 302.554 10.5685 302.55 11.13V18.03H299.79V11.91C299.788 11.5758 299.768 11.242 299.73 10.91C299.689 10.5617 299.588 10.2233 299.43 9.91003C299.272 9.63177 299.053 9.39256 298.79 9.21003C298.469 9.01386 298.096 8.91972 297.72 8.94003C297.344 8.9263 296.971 9.0048 296.633 9.16867C296.295 9.33254 296.002 9.57678 295.78 9.88003C295.563 10.1814 295.403 10.5205 295.31 10.88C295.203 11.2369 295.149 11.6075 295.15 11.98V18.05H292.39V6.99003Z" fill="black"/>
<path d="M304.07 9.18004V6.99004H306V3.79004H308.72V6.99004H311.48V9.18004H308.72V14.31C308.707 14.7317 308.796 15.1502 308.98 15.53C309.16 15.85 309.55 16.01 310.17 16.01C310.368 16.0084 310.566 15.9883 310.76 15.95C310.959 15.9142 311.153 15.8572 311.34 15.78L311.43 17.94C311.147 18.0393 310.856 18.1129 310.56 18.16C310.229 18.2118 309.895 18.2385 309.56 18.24C308.948 18.2635 308.338 18.1579 307.77 17.93C307.339 17.7469 306.963 17.4538 306.68 17.08C306.406 16.7119 306.215 16.2889 306.12 15.84C306.017 15.3434 305.967 14.8372 305.97 14.33V9.18004H304.07Z" fill="black"/>
<path d="M323.9 12.6501V13.0201C323.9 13.1401 323.9 13.2601 323.9 13.3801H315.5C315.523 13.7566 315.624 14.1242 315.796 14.4599C315.968 14.7955 316.208 15.0918 316.5 15.3301C316.8 15.5716 317.138 15.7609 317.5 15.8901C317.867 16.0299 318.257 16.1011 318.65 16.1001C319.256 16.117 319.856 15.9866 320.4 15.7201C320.866 15.4869 321.267 15.1437 321.57 14.7201L323.39 16.1801C322.845 16.9095 322.127 17.4929 321.302 17.8784C320.477 18.264 319.57 18.4398 318.66 18.3901C317.852 18.4007 317.05 18.2652 316.29 17.9901C315.595 17.7364 314.956 17.3491 314.41 16.8501C313.87 16.3443 313.447 15.7266 313.17 15.0401C312.859 14.2718 312.706 13.4488 312.72 12.6201C312.709 11.7884 312.862 10.9628 313.17 10.1901C313.449 9.4925 313.867 8.85945 314.4 8.33012C314.932 7.81311 315.561 7.40543 316.25 7.13012C316.987 6.84615 317.771 6.70366 318.56 6.71012C319.288 6.69914 320.011 6.82815 320.69 7.09012C321.326 7.32525 321.903 7.69736 322.38 8.18012C322.882 8.71696 323.264 9.3544 323.5 10.0501C323.778 10.8882 323.914 11.7672 323.9 12.6501ZM321.14 11.4001C321.14 11.0612 321.089 10.7242 320.99 10.4001C320.892 10.0882 320.732 9.79909 320.52 9.55012C320.292 9.29971 320.012 9.10182 319.7 8.97012C319.334 8.81488 318.938 8.73986 318.54 8.75012C317.773 8.72917 317.025 8.99274 316.44 9.49012C316.15 9.72425 315.912 10.0156 315.74 10.3459C315.568 10.6763 315.466 11.0385 315.44 11.4101L321.14 11.4001Z" fill="black"/>
<path d="M326.45 6.99H329.1V8.83C329.389 8.208 329.833 7.6708 330.39 7.27C330.952 6.86741 331.629 6.65697 332.32 6.67H332.67C332.779 6.67749 332.886 6.69762 332.99 6.73V9.26C332.835 9.21728 332.678 9.18389 332.52 9.16H332.14C331.611 9.13668 331.085 9.25767 330.62 9.51C330.265 9.71557 329.958 9.99524 329.72 10.33C329.517 10.6343 329.371 10.9732 329.29 11.33C329.22 11.5948 329.18 11.8664 329.17 12.14V18.05H326.41L326.45 6.99Z" fill="black"/>
<path d="M337.35 6.98989V8.52989H337.42C337.581 8.29465 337.761 8.07381 337.96 7.86989C338.205 7.63637 338.481 7.43782 338.78 7.27989C339.533 6.86565 340.381 6.65537 341.24 6.66989C341.984 6.66241 342.721 6.81591 343.4 7.11989C344.049 7.40121 344.63 7.82099 345.1 8.34989C345.599 8.87739 345.986 9.4997 346.24 10.1799C346.505 10.9072 346.637 11.676 346.63 12.4499C346.635 13.2293 346.506 14.0038 346.25 14.7399C346.017 15.4255 345.65 16.0578 345.17 16.5999C344.696 17.1349 344.118 17.5672 343.47 17.8699C342.757 18.1903 341.982 18.3507 341.2 18.3399C340.456 18.3484 339.72 18.1841 339.05 17.8599C338.437 17.5688 337.915 17.1158 337.54 16.5499V23.5499H334.78V6.98989H337.35ZM343.79 12.4599C343.791 12.0294 343.727 11.6012 343.6 11.1899C343.472 10.7779 343.273 10.3919 343.01 10.0499C342.742 9.70573 342.4 9.42562 342.01 9.22989C341.574 9.0175 341.095 8.91127 340.61 8.91989C340.137 8.9129 339.67 9.02283 339.25 9.23989C338.867 9.45071 338.528 9.73237 338.25 10.0699C337.966 10.4094 337.749 10.7996 337.61 11.2199C337.464 11.6344 337.39 12.0706 337.39 12.5099C337.39 12.946 337.464 13.3789 337.61 13.7899C337.749 14.2041 337.966 14.5877 338.25 14.9199C338.525 15.2571 338.865 15.5359 339.25 15.7399C339.671 15.9535 340.138 16.06 340.61 16.0499C341.096 16.0581 341.576 15.9483 342.01 15.7299C342.398 15.5272 342.739 15.2443 343.01 14.8999C343.275 14.5555 343.475 14.1658 343.6 13.7499C343.727 13.3316 343.791 12.8969 343.79 12.4599Z" fill="black"/>
<path d="M349.15 6.99H351.8V8.83C352.089 8.208 352.533 7.6708 353.09 7.27C353.652 6.86741 354.329 6.65697 355.02 6.67H355.37C355.479 6.67749 355.586 6.69762 355.69 6.73V9.26C355.542 9.22478 355.391 9.19807 355.24 9.18H354.86C354.331 9.15668 353.805 9.27767 353.34 9.53C352.984 9.73557 352.678 10.0152 352.44 10.35C352.237 10.6543 352.091 10.9932 352.01 11.35C351.94 11.6148 351.9 11.8864 351.89 12.16V18.07H349.13L349.15 6.99Z" fill="black"/>
<path d="M357.06 3.23997C357.06 3.02281 357.105 2.80797 357.191 2.60854C357.277 2.40912 357.402 2.22927 357.56 2.07997C357.723 1.91591 357.919 1.78694 358.133 1.70096C358.348 1.61498 358.579 1.57381 358.81 1.57997C359.283 1.56757 359.742 1.73972 360.09 2.05997C360.254 2.20987 360.384 2.39219 360.474 2.59534C360.563 2.79848 360.61 3.01801 360.61 3.23997C360.61 3.46193 360.563 3.68146 360.474 3.88461C360.384 4.08776 360.254 4.27007 360.09 4.41997C359.742 4.74022 359.283 4.91238 358.81 4.89997C358.579 4.90613 358.348 4.86496 358.133 4.77899C357.919 4.69301 357.723 4.56403 357.56 4.39997C357.401 4.25141 357.275 4.07171 357.189 3.87211C357.103 3.67252 357.059 3.45732 357.06 3.23997ZM357.46 6.98997H360.24V17.99H357.48L357.46 6.98997Z" fill="black"/>
<path d="M369.51 9.92992C369.234 9.58793 368.894 9.30267 368.51 9.08992C368.076 8.85949 367.591 8.73931 367.1 8.73992C366.678 8.73547 366.261 8.82784 365.88 9.00992C365.71 9.09527 365.569 9.22709 365.471 9.39001C365.374 9.55292 365.325 9.74018 365.33 9.92992C365.321 10.127 365.375 10.3218 365.485 10.4856C365.595 10.6495 365.754 10.7737 365.94 10.8399C366.516 11.072 367.112 11.2527 367.72 11.3799C368.147 11.4769 368.568 11.6004 368.98 11.7499C369.39 11.8988 369.777 12.1041 370.13 12.3599C370.47 12.6137 370.756 12.9333 370.97 13.2999C371.192 13.7216 371.302 14.1934 371.29 14.6699C371.309 15.2628 371.178 15.8508 370.91 16.3799C370.673 16.835 370.33 17.2261 369.91 17.5199C369.465 17.8248 368.966 18.042 368.44 18.1599C367.869 18.2894 367.285 18.3532 366.7 18.3499C365.842 18.3485 364.991 18.1892 364.19 17.8799C363.426 17.595 362.74 17.1322 362.19 16.5299L364 14.8299C364.323 15.2457 364.733 15.5868 365.2 15.8299C365.703 16.0923 366.263 16.2263 366.83 16.2199C367.035 16.2213 367.24 16.1978 367.44 16.1499C367.645 16.1128 367.842 16.0382 368.02 15.9299C368.192 15.8347 368.336 15.6969 368.44 15.5299C368.554 15.3437 368.609 15.1279 368.6 14.9099C368.615 14.6979 368.562 14.4867 368.448 14.3069C368.335 14.1271 368.168 13.988 367.97 13.9099C367.361 13.6484 366.728 13.4474 366.08 13.3099C365.669 13.2205 365.265 13.1035 364.87 12.9599C364.511 12.8148 364.174 12.6195 363.87 12.3799C363.562 12.1445 363.309 11.8441 363.13 11.4999C362.939 11.0904 362.846 10.6417 362.86 10.1899C362.845 9.63581 362.976 9.08758 363.24 8.59992C363.48 8.16075 363.823 7.78663 364.24 7.50992C364.665 7.21543 365.139 6.99873 365.64 6.86992C366.166 6.73769 366.707 6.67053 367.25 6.66992C368.048 6.67227 368.839 6.81093 369.59 7.07992C370.297 7.32643 370.921 7.76645 371.39 8.34992L369.51 9.92992Z" fill="black"/>
<path d="M384.09 12.6501V13.0201C384.09 13.1401 384.09 13.2601 384.09 13.3801H375.69C375.713 13.7566 375.814 14.1242 375.986 14.4599C376.158 14.7955 376.398 15.0918 376.69 15.3301C376.99 15.5716 377.328 15.7609 377.69 15.8901C378.057 16.0299 378.447 16.1011 378.84 16.1001C379.446 16.117 380.046 15.9866 380.59 15.7201C381.056 15.4869 381.457 15.1437 381.76 14.7201L383.58 16.1801C383.035 16.9102 382.318 17.4941 381.493 17.8797C380.667 18.2653 379.76 18.4406 378.85 18.3901C378.042 18.4007 377.239 18.2652 376.48 17.9901C375.785 17.7364 375.146 17.3491 374.6 16.8501C374.06 16.3443 373.637 15.7266 373.36 15.0401C373.049 14.2718 372.896 13.4488 372.91 12.6201C372.899 11.7884 373.052 10.9628 373.36 10.1901C373.638 9.4925 374.057 8.85945 374.59 8.33012C375.122 7.81311 375.751 7.40543 376.44 7.13012C377.177 6.84707 377.961 6.70461 378.75 6.71012C379.478 6.69914 380.201 6.82815 380.88 7.09012C381.516 7.32525 382.093 7.69736 382.57 8.18012C383.072 8.71696 383.454 9.3544 383.69 10.0501C383.973 10.887 384.108 11.7668 384.09 12.6501ZM381.33 11.4001C381.33 11.0612 381.279 10.7242 381.18 10.4001C381.082 10.0882 380.922 9.79909 380.71 9.55012C380.482 9.29971 380.202 9.10182 379.89 8.97012C379.523 8.81488 379.128 8.73986 378.73 8.75012C377.963 8.72917 377.215 8.99274 376.63 9.49012C376.34 9.72425 376.102 10.0156 375.93 10.3459C375.758 10.6763 375.656 11.0385 375.63 11.4101L381.33 11.4001Z" fill="black"/>
<path d="M392.69 9.92994C392.418 9.58357 392.078 9.2975 391.69 9.08994C391.26 8.85878 390.778 8.73849 390.29 8.73994C389.868 8.73442 389.45 8.82684 389.07 9.00995C388.898 9.09387 388.755 9.22509 388.655 9.38811C388.556 9.55113 388.506 9.73914 388.51 9.92994C388.501 10.1282 388.557 10.3239 388.669 10.4879C388.78 10.6519 388.942 10.7754 389.13 10.8399C389.706 11.0735 390.301 11.2543 390.91 11.3799C391.334 11.4769 391.751 11.6005 392.16 11.7499C392.571 11.8966 392.958 12.1021 393.31 12.3599C393.655 12.6081 393.942 12.929 394.15 13.2999C394.372 13.7216 394.482 14.1934 394.47 14.6699C394.493 15.2632 394.362 15.8524 394.09 16.3799C393.853 16.835 393.51 17.2261 393.09 17.5199C392.647 17.8284 392.147 18.0459 391.62 18.1599C391.049 18.2895 390.465 18.3532 389.88 18.3499C389.025 18.3489 388.177 18.1895 387.38 17.8799C386.616 17.594 385.931 17.1314 385.38 16.5299L387.2 14.8299C387.52 15.2453 387.926 15.5864 388.39 15.8299C388.896 16.0936 389.459 16.2276 390.03 16.2199C390.235 16.2208 390.44 16.1973 390.64 16.1499C390.842 16.1127 391.035 16.0381 391.21 15.9299C391.392 15.8358 391.545 15.692 391.649 15.515C391.753 15.3381 391.806 15.1353 391.8 14.9299C391.815 14.7179 391.762 14.5067 391.648 14.3269C391.535 14.1471 391.368 14.0081 391.17 13.9299C390.557 13.6702 389.921 13.4693 389.27 13.3299C388.859 13.2405 388.455 13.1236 388.06 12.9799C387.701 12.8348 387.364 12.6395 387.06 12.3999C386.754 12.1642 386.505 11.8636 386.33 11.5199C386.13 11.1129 386.034 10.663 386.05 10.2099C386.033 9.68272 386.151 9.15988 386.392 8.69091C386.634 8.22194 386.991 7.82234 387.43 7.52994C387.859 7.2353 388.336 7.01865 388.84 6.88994C389.366 6.75702 389.907 6.68984 390.45 6.68994C391.244 6.69205 392.032 6.83073 392.78 7.09994C393.491 7.3448 394.118 7.78495 394.59 8.36994L392.69 9.92994Z" fill="black"/>
</g>
<defs>
<clipPath id="clip0_1403_35069">
<rect width="394.48" height="23.55" fill="white"/>
</clipPath>
</defs>
</svg>
