<svg id="Layer_1" data-name="Layer 1" xmlns="http://www.w3.org/2000/svg" viewBox="0 0 1483.11 314.06"><defs><style>.cls-1,.cls-4{fill:#fff;}.cls-2{fill:#121c45;}.cls-3{fill:#f5822a;}.cls-4{fill-rule:evenodd;}.cls-5{fill:#929497;}</style></defs><path class="cls-1" d="M4.59,38.1a32,32,0,0,1,32-32l85.45,0a32,32,0,0,1,32,32l0,85.43a32,32,0,0,1-32,32l-85.45,0a32,32,0,0,1-32-32l0-85.43Z"/><path class="cls-2" d="M122.08,160.15h0l-85.45,0A36.64,36.64,0,0,1,0,123.54L0,38.11A36.57,36.57,0,0,1,36.55,1.54h0l85.45,0a36.64,36.64,0,0,1,36.59,36.58l0,85.43a36.55,36.55,0,0,1-36.56,36.56ZM9.18,38.1l0,85.43a27.45,27.45,0,0,0,27.4,27.41l85.46,0h0a27.36,27.36,0,0,0,27.37-27.38l0-85.43A27.45,27.45,0,0,0,122,10.76l-85.45,0h0A27.36,27.36,0,0,0,9.18,38.1Z"/><path class="cls-3" d="M17.26,44.6A26.72,26.72,0,0,1,44,17.87l71.47,0a26.78,26.78,0,0,1,26.76,26.76l0,71.45a26.72,26.72,0,0,1-26.74,26.74l-71.47,0a26.78,26.78,0,0,1-26.76-26.77l0-71.45Z"/><path class="cls-1" d="M158,38.16a32,32,0,0,1,32-32l85.45,0a32,32,0,0,1,32,32l0,85.43a32,32,0,0,1-32,32l-85.46,0a32,32,0,0,1-32-32l0-85.43Z"/><path class="cls-2" d="M275.45,160.22h0l-85.45,0A36.65,36.65,0,0,1,153.4,123.6l0-85.44A36.55,36.55,0,0,1,189.94,1.6h0l85.45,0A36.64,36.64,0,0,1,312,38.22l0,85.43a36.57,36.57,0,0,1-36.57,36.57ZM162.56,38.16l0,85.43A27.45,27.45,0,0,0,190,151l85.45,0h0a27.35,27.35,0,0,0,27.38-27.38l0-85.43a27.45,27.45,0,0,0-27.41-27.4l-85.45,0h0a27.38,27.38,0,0,0-27.38,27.38Z"/><path class="cls-3" d="M170.64,44.66a26.73,26.73,0,0,1,26.74-26.74l71.47,0a26.78,26.78,0,0,1,26.76,26.76l0,71.45a26.72,26.72,0,0,1-26.74,26.74l-71.47,0a26.76,26.76,0,0,1-26.76-26.75l0-71.46Z"/><path class="cls-1" d="M4.64,189.59a31.94,31.94,0,0,1,32-32l85.46,0a32,32,0,0,1,32,32l0,85.43a32,32,0,0,1-32,32l-85.45,0a32,32,0,0,1-32-32l0-85.43Z"/><path class="cls-2" d="M122.13,311.64h0l-85.45,0A36.65,36.65,0,0,1,.07,275l0-85.43A36.55,36.55,0,0,1,36.6,153h0l85.45,0a36.66,36.66,0,0,1,36.59,36.58l0,85.44a36.55,36.55,0,0,1-36.55,36.56Zm-112.9-122,0,85.43a27.44,27.44,0,0,0,27.41,27.4l85.45,0h0a27.36,27.36,0,0,0,27.37-27.37l0-85.44a27.44,27.44,0,0,0-27.41-27.4l-85.45,0h0A27.35,27.35,0,0,0,9.23,189.59Z"/><path class="cls-3" d="M17.3,196.09a26.74,26.74,0,0,1,26.75-26.74l71.46,0a26.79,26.79,0,0,1,26.77,26.76l0,71.45a26.73,26.73,0,0,1-26.75,26.74l-71.46,0a26.77,26.77,0,0,1-26.77-26.75l0-71.46Z"/><path class="cls-1" d="M158,189.65a32,32,0,0,1,32-32l85.46,0a32,32,0,0,1,32,32l0,85.43a32,32,0,0,1-32,32l-85.45,0a32,32,0,0,1-32-32l0-85.43Z"/><path class="cls-2" d="M275.49,311.71l-85.45,0a36.64,36.64,0,0,1-36.59-36.58l0-85.44A36.55,36.55,0,0,1,190,153.09h0l85.46,0A36.63,36.63,0,0,1,312,189.71l0,85.43a36.58,36.58,0,0,1-36.57,36.57ZM162.61,189.65l0,85.43A27.46,27.46,0,0,0,190,302.49l85.45,0a27.38,27.38,0,0,0,27.39-27.38l0-85.43a27.45,27.45,0,0,0-27.41-27.4l-85.45,0h0a27.36,27.36,0,0,0-27.38,27.38Z"/><path class="cls-3" d="M170.68,196.15a26.74,26.74,0,0,1,26.75-26.74l71.47,0a26.78,26.78,0,0,1,26.76,26.76l0,71.45a26.73,26.73,0,0,1-26.75,26.74l-71.47,0A26.78,26.78,0,0,1,170.7,267.6l0-71.45Z"/><path class="cls-4" d="M107.75,80.52c0,16.36-8.17,34.31-27.18,34.31S53.4,96.88,53.4,80.52s8.18-34.3,27.17-34.3,27.18,17.94,27.18,34.3Zm-83.38,0c0,33.65,22.83,48.82,56.21,48.82,30,0,56.2-17.81,56.2-48.82,0-33.64-22.82-48.81-56.21-48.81-29.95,0-56.2,17.81-56.2,48.81Z"/><path class="cls-1" d="M264.92,60.79l7.52.66c.93-7.65,3-16,4.88-23.88-13.19-4.36-22-5.54-35.23-5.54C213.86,32,183,48.13,183,81.9c0,26.78,17.41,47.76,51.58,47.76,18.48,0,32.86-5.14,47.64-19l-8-9.89C263.73,108.68,254,111.45,247,111.46c-20.45,0-35-13.59-35-34.31,0-17.68,10.69-29.82,29.16-29.82a40,40,0,0,1,22.43,6.6l1.32,6.86Z"/><path class="cls-1" d="M79.36,244A97,97,0,0,0,92.29,245C118,245,132,226.94,132,211.24c0-12.93-9.63-26.65-30.87-26.65q-10.09,0-20.19.4c-6.73.26-13.46.39-20.32.39-8.57,0-14.9-.26-22.29-.39v6.86L47,194c.65,3,1.31,13.86,1.31,22.3v31.39c0,8.45-.65,19.27-1.31,22.3l-8.71,2.12v6.86c8.18-.13,16.22-.39,24.41-.39,8.84,0,17.68.26,26.52.39v-6.86L76.86,270c-.67-3-1.33-13.85-1.33-22.3V216.26c0-3.3.66-13.73.93-17.15a47.17,47.17,0,0,1,11.74-1.59c9.76,0,14.78,6.73,14.78,16.23,0,7-3,17.55-14,17.55a31.07,31.07,0,0,1-5.54-.53L79.36,244Z"/><path class="cls-1" d="M259.51,210.85l6.6,1.31a159.31,159.31,0,0,1,8.31-23.22,136.9,136.9,0,0,0-38-5.8c-32.59,0-43.93,17.54-43.93,29.29,0,12.53,9.89,21.24,26.65,26l19.26,5.41c5.68,1.59,10.82,5.4,10.82,11.08,0,7.39-7.39,11.35-14.78,11.35-7.91,0-19-2.9-28.5-9v-8l-7.65-1.45a175.46,175.46,0,0,1-9.76,24.27c10.42,4.88,24.67,8.71,42.88,8.71,20.71,0,46-9.9,46-32.85,0-13.19-9.24-22.56-25.86-27.17l-21.78-6.08c-7.38-2.11-9.1-4-9.1-7.91,0-5.95,5.94-9.11,14.12-9.11a45.85,45.85,0,0,1,24.67,7v6.21Z"/><rect class="cls-5" x="353.84" width="3.32" height="311.71"/><path class="cls-2" d="M457.92,1.21c32.2,0,54.22,19.46,54.22,62.59,0,39.74-25.32,62.58-54.22,62.58-32.2,0-54.23-19.45-54.23-62.58C403.69,24.05,429,1.21,457.92,1.21Zm0,18.61c-18.33,0-26.22,23-26.22,44s7.89,44,26.22,44,26.22-23,26.22-44S476.25,19.82,457.92,19.82Z"/><path class="cls-2" d="M518,115.21l7.63-2.7c.26-3.73.77-9.48.77-14.89V67.85c0-8.62-.64-17.58-1-23.17-2.8-.84-8.28-2.7-9-2.7v-8.8c1.66,0,15.66-1.86,23.55-5.41h9c-.64,5.24-1.4,14.38-1.78,21.65h.25c4.84-12.86,12.86-21.65,24.31-21.65,3.69,0,6.24,1.18,9,2.54a242.09,242.09,0,0,0-6.49,27.06l-6-.85-.64-6.42a5.67,5.67,0,0,0-2.8-.68c-8.53,0-14.77,13-14.77,32.3v15.9c0,5.41.51,11.16.77,14.89l9.16,2.7V124c-8.27-.17-15.15-.51-22.15-.51-6.36,0-13.36.34-19.85.51Z"/><path class="cls-2" d="M598,57.71l-6.62,2.53c-2.41-8.12-5.09-16.23-8.14-24.18,11.71-5.92,26.22-8.29,35.13-8.29,33.35,0,34.12,22,34.12,34.17,0,4.73-.39,14.54-.39,19.61,0,16.58.26,20.3,2.55,31l6.11,2.7V124c-2.29-.17-11.46-.51-13.62-.51-2.42,0-3.7,0-14.39.51a44.52,44.52,0,0,1-1.14-11.5c0-2,.13-3.89.25-5.41l-.25-.35c-4.46,12.69-16,19.29-26.1,19.29-23.42,0-25.45-20-25.45-26.22C580,72.25,605.6,64,628.39,64c0-13.7-.9-19.62-14.13-19.62a30,30,0,0,0-15.91,5.07Zm16.81,46.68c11.2,0,13.24-16.07,13.62-26.89-17.19.67-22.15,11.84-22.15,17.08C606.24,100.67,609.29,104.39,614.77,104.39Z"/><path class="cls-2" d="M663.78,115.21l7.64-2.7c.25-3.73.76-9.48.76-14.89V67.85c0-8.62-.63-17.58-1-23.17-2.79-.84-8.27-2.7-9-2.7v-8.8c1.65,0,15.65-1.86,23.55-5.41h11c-.13,4.57-.64,9.3-.77,14.38,6.75-8.8,15.53-14.38,24.82-14.38,15.79,0,23.93,11.67,23.93,29.6V97.62c0,5.41.51,11.16.77,14.89l7.63,2.7V124c-7-.17-13.88-.51-20.88-.51-2.41,0-6.74.34-12.09.51.39-11.67.9-34,.9-49.39,0-23.17-6.12-25.2-11.2-25.2-10.31,0-13.88,11.84-13.88,27.74V97.62c0,5.41.51,11.16.77,14.89l7.64,2.7V124c-6.76-.17-13.62-.51-20.63-.51-6.37,0-13.37.34-19.86.51Z"/><path class="cls-2" d="M774.8,144.64c1.78,5.75,10.31,11.16,21.51,11.16,11.45,0,15.15-4.4,15.15-9.47,0-9.64-13.87-10.48-20.5-10.48-3.19,0-12,1.86-15,2.53a161.9,161.9,0,0,0-12.22-17.08c5.35-11,6.75-17.25,8.78-27.23-9-5.92-14.64-15-14.64-29.43,0-22.83,15.15-36.87,35.39-36.87A73.13,73.13,0,0,1,813,30.31c5.47,1.35,11.2,2,20.87,2,1.14,0,2.3-.17,3.31-.17v9.64a44.69,44.69,0,0,1-12.73,2c4.58,5.92,6.63,13.53,6.63,21.14,0,26.55-21,35.18-37.43,35.18a30.75,30.75,0,0,1-8.91-1.52c-.77,4.39-1.78,8.62-2.93,12.85,5.86-2.71,12.1-2.71,18.2-2.71,29.16,0,36.16,17.09,36.16,28.76,0,27.4-28.14,35.86-43.91,35.86-20.25,0-36.16-10.66-36.16-26.06a17,17,0,0,1,5.47-12.68ZM794.39,44.35c-6.74,0-11.83,7.27-11.83,19.27,0,11.34,3.81,20,12.21,20,8.16,0,11.59-9.13,11.59-18.43C806.36,55.34,803.94,44.35,794.39,44.35Z"/><path class="cls-2" d="M921.56,102.7C909.6,120,897.9,126,881.6,126c-27.37,0-39.08-23.17-39.08-45.16,0-33.32,19.74-53.11,43.92-53.11,18.83,0,33.35,11.67,33.35,40.59a52,52,0,0,1-.38,6.09c-6.63-.17-15.16-1-27.88-1-2.55,0-20.49.84-22.78,1,0,23,11.2,29.94,21.63,29.94,7.77,0,15.53-2.71,22.66-12.52ZM895.1,58.89c0-9-2.55-16.57-10.82-16.57-5.47,0-13.24,5.41-14.65,18.6Z"/><path class="cls-2" d="M1049.39,29.29c-6.88-5.92-14-8.45-21.64-8.45-17.82,0-28.13,15.55-28.13,38.22,0,26.55,14,44,33.73,44,6.75,0,16.16-3.55,26.22-13.69l7.77,12.68c-14.26,17.76-28.14,24.36-45.95,24.36-33,0-49.77-26.9-49.77-61.23,0-43.3,29.78-63.94,57-63.94,12.73,0,21.26,1.53,34,7.11-1.79,10.15-3.82,20.8-4.72,30.61l-7.25-.84Z"/><path class="cls-2" d="M1114.31,126c-34.36,0-42.64-30.45-42.64-49.22,0-28.25,13.87-49,41.88-49,34.37,0,42.64,30.44,42.64,49.22C1156.19,105.23,1142.31,126,1114.31,126Zm-.37-82.71c-8.66,0-16,13.7-16,33.66,0,18.94,5,33.49,16,33.49,8.27,0,16-13.87,16-33.49C1130,57.71,1124.63,43.33,1113.94,43.33Z"/><path class="cls-2" d="M1160.54,33.18c1.65,0,15.65-1.86,23.54-5.41h11c-.25,10.32-.76,20-.76,40.08V84.6c0,12,3.31,19.79,12.22,19.79s12.85-11.16,12.85-25.2V67.85c0-8.62-.63-17.58-1-23.17-2.79-.84-8.26-2.7-9-2.7v-8.8c1.66,0,15.67-1.86,23.56-5.41h10.94c-.25,10.32-.76,20-.76,40.08V97.62c0,5.41.51,11.16.76,14.89l7.64,2.7V124c-7-.17-13.87-.51-20.88-.51-3.31,0-6.74.34-10.06.51a86.41,86.41,0,0,1,.65-13.2l-.25-.33c-6,10.15-15.53,15.56-25.85,15.56-15.79,0-24.94-11.5-24.94-32.65,0-5.91.5-15.39.5-25.54,0-8.62-.64-17.58-1-23.17-2.82-.84-8.29-2.7-9-2.7Z"/><path class="cls-2" d="M1255.12,115.21l7.64-2.7c.25-3.73.76-9.48.76-14.89V67.85c0-8.62-.64-17.58-1-23.17-2.8-.84-8.27-2.7-9-2.7v-8.8c1.65,0,15.65-1.86,23.54-5.41h11c-.13,4.57-.64,9.3-.76,14.38,6.75-8.8,15.53-14.38,24.81-14.38,15.79,0,23.93,11.67,23.93,29.6V97.62c0,5.41.51,11.16.77,14.89l7.63,2.7V124c-7-.17-13.87-.51-20.87-.51-2.42,0-6.75.34-12.09.51.38-11.67.89-34,.89-49.39,0-23.17-6.11-25.2-11.2-25.2-10.31,0-13.87,11.84-13.87,27.74V97.62c0,5.41.51,11.16.76,14.89l7.64,2.7V124c-6.75-.17-13.62-.51-20.62-.51-6.37,0-13.36.34-19.86.51Z"/><path class="cls-2" d="M1357.47,29l-.38-15.89,24.57-6.26c-.77,4.39-.89,9.47-1.14,22.15,7.12,0,13.36,0,19.6-.5l-4.47,16.06c-3.56-.67-7.24-.84-15.13-1v42c0,15.22,2.92,18.94,8.14,18.94,2.42,0,4.71-.85,7.64-4.06l6.61,10.65c-6.23,9.3-14.9,15.06-24.18,15.06-19.35,0-21.9-17.26-21.9-32,0-20.46.64-36,.64-50.57h-9V34.71Z"/><path class="cls-2" d="M1454.34,29.8c4.46.17,9,.51,13.5.51,5.09,0,10.06-.34,15.27-.51v8.79L1479,41.3c-13.24,33-24.56,83.21-33.35,104.86-8.27,20.3-21.64,27.24-38.57,27.24a34,34,0,0,1-11.59-2.71,207.07,207.07,0,0,0,5.73-29.43l6.88.51,1.14,8.79c2.42,1,4.33,1.18,7.64,1.18,9,0,17.44-3.71,24.06-28.24h-10.31c-2.42-10.32-23.55-80.17-25.21-82.2l-5.09-2.71V29.8c6,.17,11.85.51,17.83.51,7.12,0,14.25-.34,21.39-.51v8.79l-6.5,2.71c2,9.13,9.55,39.92,14.51,60h.25c4.58-20.12,9-40.08,12.85-60l-6.36-2.71Z"/><path class="cls-2" d="M446.85,250a23,23,0,0,0,5.34.68c10.57,0,13.49-13.53,13.49-22.5,0-12.18-4.83-20.8-14.25-20.8a35.6,35.6,0,0,0-11.33,2c-.26,4.39-.89,17.75-.89,22v40.26c0,10.83.63,24.69,1.27,28.58l12,2.71v8.79c-8.53-.17-17.06-.5-25.59-.5-7.89,0-15.66.33-23.55.5V302.9l8.41-2.71c.63-3.89,1.27-17.75,1.27-28.58V231.35c0-10.82-.64-24.69-1.27-28.58l-8.41-2.7v-8.8c7.13.17,13.24.51,21.51.51,6.62,0,13.12-.17,19.61-.51s13-.5,19.47-.5c20.5,0,29.79,17.59,29.79,34.16,0,20.12-13.5,43.3-38.32,43.3a72.41,72.41,0,0,1-12.47-1.35Z"/><path class="cls-2" d="M495.1,220.87c1.65,0,15.66-1.86,23.55-5.41h10.94c-.25,10.32-.76,19.95-.76,40.08v16.75c0,12,3.31,19.78,12.22,19.78s12.86-11.16,12.86-25.19V255.54c0-8.63-.64-17.59-1-23.17-2.8-.85-8.27-2.71-9-2.71v-8.79c1.66,0,15.66-1.86,23.55-5.41h11c-.26,10.32-.77,19.95-.77,40.08v29.77c0,5.41.51,11.16.77,14.88L586,302.9v8.79c-7-.17-13.87-.5-20.87-.5-3.31,0-6.75.33-10.06.5a87.67,87.67,0,0,1,.64-13.19l-.25-.34c-6,10.15-15.53,15.56-25.85,15.56-15.78,0-24.94-11.5-24.94-32.64,0-5.92.5-15.39.5-25.54,0-8.63-.63-17.59-1-23.17-2.8-.85-8.28-2.71-9-2.71Z"/><path class="cls-2" d="M597.71,216.64c0-8.62-.64-17.59-1-23.17-2.8-.84-8.27-2.7-9-2.7V182c1.65,0,15.65-1.86,23.54-5.42h10.95c-.25,10.32-.76,20-.76,40.09v9.47c6.1-7.61,14.25-10.65,20.36-10.65,20.12,0,31.7,20.63,31.7,43.47,0,26-13.24,54.79-41.63,54.79a86.08,86.08,0,0,1-12.34-1.35,113.58,113.58,0,0,0-17.19-1.18c-3.18,0-6.49.17-10,.5l4.45-10.82a140.76,140.76,0,0,0,1-15.56Zm34.75,20.47c-8.15,0-11.07,8.62-11.07,24.35,0,11,.25,18.78.51,32.14A15.66,15.66,0,0,0,632,297.14c12.35,0,15.28-18.6,15.28-33.65C647.23,255.89,644.55,237.11,632.46,237.11Z"/><path class="cls-2" d="M685.94,216.64c0-8.62-.64-17.59-1-23.17-2.79-.84-8.27-2.7-9-2.7V182c1.66,0,15.65-1.86,23.55-5.42h11c-.26,10.32-.76,20-.76,40.09v68.67c0,5.41.5,11.16.76,14.88L718,302.9v8.79c-6.76-.17-13.62-.5-20.63-.5-6.37,0-13.36.33-19.85.5V302.9l7.64-2.71c.25-3.72.76-9.47.76-14.88Z"/><path class="cls-2" d="M720.94,302.9l7.64-2.71c.26-3.72.77-9.47.77-14.88V255.54c0-8.63-.64-17.59-1-23.17-2.8-.85-8.27-2.71-9-2.71v-8.79c1.65,0,15.65-1.86,23.54-5.41h10.95c-.26,10.32-.76,19.95-.76,40.08v29.77c0,5.41.5,11.16.76,14.88l7.64,2.71v8.79c-6.74-.17-13.62-.5-20.62-.5-6.36,0-13.37.33-19.86.5Zm20.24-129.22c7.26,0,13.1,7.78,13.1,17.42s-5.84,17.42-13.1,17.42-13.12-7.78-13.12-17.42S733.93,173.68,741.18,173.68Z"/><path class="cls-2" d="M841.36,294.27c-9.93,13-21.76,19.45-35.76,19.45-26.35,0-38.57-22.66-38.57-46.5,0-34.85,23.16-51.76,48.37-51.76,6.23,0,16,1.69,23.54,5.92-2.92,7.94-4.45,16.4-5.73,25.2l-7-1.35-.77-7.79c-3.82-4.39-10.31-5.4-13.75-5.4-12,0-18.45,13.19-18.45,29.08,0,18.27,8.27,30.95,23.15,30.95,6.76,0,11.09-2.87,17.71-9Z"/><path class="cls-2" d="M957.09,216.47c-7.76-6.25-15.4-9-23.8-9-7.9,0-13.62,4.07-13.62,11.67,0,5.08,1.65,7.45,8.78,10.15l21,7.79C965.49,243,974.4,255,974.4,272c0,29.42-24.44,42.11-44.42,42.11-17.57,0-31.32-4.9-41.38-11.16A274.45,274.45,0,0,0,898,271.78l7.38,1.85V284c9.16,7.79,19.85,11.51,27.49,11.51,7.13,0,14.26-5.08,14.26-14.55,0-7.28-5-12.17-10.44-14.21l-18.59-6.93c-16.17-6.08-25.71-17.26-25.71-33.32,0-15,11-37.55,42.38-37.55,8.67,0,21.52,1.53,36.67,7.44a251.4,251.4,0,0,0-8,29.77l-6.36-1.69Z"/><path class="cls-2" d="M1054.09,294.27c-9.93,13-21.77,19.45-35.77,19.45-26.34,0-38.57-22.66-38.57-46.5,0-34.85,23.17-51.76,48.37-51.76,6.24,0,16,1.69,23.55,5.92-2.92,7.94-4.46,16.4-5.73,25.2l-7-1.35-.77-7.79c-3.82-4.39-10.31-5.4-13.75-5.4-12,0-18.46,13.19-18.46,29.08,0,18.27,8.28,30.95,23.16,30.95,6.75,0,11.08-2.87,17.71-9Z"/><path class="cls-2" d="M1056.27,302.9l7.63-2.71c.26-3.72.77-9.47.77-14.88V216.64c0-8.62-.65-17.59-1-23.17-2.81-.84-8.28-2.7-9-2.7V182c1.65,0,15.65-1.86,23.54-5.42h10.95c-.25,10.32-.77,20-.77,40.09v13.19c6.75-8.8,15.53-14.37,24.83-14.37,15.77,0,23.92,11.66,23.92,29.59v40.26c0,5.41.52,11.16.77,14.88l7.63,2.71v8.79c-7-.17-13.87-.5-20.87-.5-2.42,0-6.75.33-12.09.5.37-11.66.89-34,.89-49.39,0-23.16-6.11-25.19-11.2-25.19-10.31,0-13.88,11.83-13.88,27.73v20.47c0,5.41.52,11.16.77,14.88l7.63,2.71v8.79c-6.74-.17-13.62-.5-20.61-.5-6.38,0-13.37.33-19.86.5Z"/><path class="cls-2" d="M1194.13,313.72c-34.36,0-42.64-30.44-42.64-49.22,0-28.24,13.87-49,41.87-49,34.37,0,42.64,30.44,42.64,49.22C1236,292.91,1222.13,313.72,1194.13,313.72Zm-.39-82.7c-8.65,0-16,13.69-16,33.66,0,18.93,5,33.48,16,33.48,8.27,0,16-13.87,16-33.48C1209.78,245.39,1204.43,231,1193.74,231Z"/><path class="cls-2" d="M1286.93,313.72c-34.36,0-42.64-30.44-42.64-49.22,0-28.24,13.87-49,41.88-49,34.37,0,42.64,30.44,42.64,49.22C1328.81,292.91,1314.93,313.72,1286.93,313.72Zm-.37-82.7c-8.66,0-16,13.69-16,33.66,0,18.93,5,33.48,16,33.48,8.27,0,16-13.87,16-33.48C1302.6,245.39,1297.25,231,1286.56,231Z"/><path class="cls-2" d="M1342.83,216.64c0-8.62-.63-17.59-1-23.17-2.8-.84-8.27-2.7-9-2.7V182c1.66,0,15.66-1.86,23.55-5.42h11c-.26,10.32-.77,20-.77,40.09v68.67c0,5.41.51,11.16.77,14.88l7.63,2.71v8.79c-6.75-.17-13.61-.5-20.62-.5-6.36,0-13.36.33-19.85.5V302.9l7.63-2.71c.26-3.72.77-9.47.77-14.88Z"/><path class="cls-2" d="M1432.06,238.8c-4.21-3.55-11.45-5.75-17.69-5.75-5.86,0-9.68,2.2-9.68,6.26,0,2.53,1,5.4,6,7.27l21.9,8.12c9.93,3.72,16.29,13,16.29,25.54,0,26.38-22.27,33.48-37.93,33.48-11,0-24.19-2.2-34.88-10,4.2-7.61,8.15-15.56,12.1-23.67l6.23,3.71-.38,7.45c3.31,4.4,12.47,6.93,18.07,6.93,4,0,13.12-1.86,13.12-9.47a8.31,8.31,0,0,0-5.35-7.44l-18.34-7.44c-13.87-5.58-20.48-13-20.48-26.38,0-21.65,18.71-32,37.29-32,7.89,0,17.94,2.53,27.25,6.26-2.3,8.11-5.23,18.6-6.38,24.86l-6.74-2Z"/></svg>