<svg width="111" height="37" fill="none" xmlns="http://www.w3.org/2000/svg"><path d="M29.45 24.568c0 .26-.18.26-.538.26h-4.844v3.907h4.306c.269 0 .359.087.359.348v.607c0 .26-.09.348-.36.348h-4.395v5.469c0 .347-.09.347-.359.347h-.986c-.27 0-.36-.087-.36-.434V23.874c0-.26.09-.347.36-.347h6.458c.18 0 .27.086.27.26v.087l.09.694zM31.603 25.957c-.538 0-.897-.347-.897-.868 0-.52.449-.868.897-.868.538 0 .987.347.987.868s-.449.868-.987.868zm.449 9.897h-.808c-.269 0-.358-.087-.358-.347v-7.9c0-.26.09-.347.358-.347h.808c.269 0 .358.086.358.347v7.9c0 .174-.09.347-.358.347zM42.189 35.854h-.897c-.27 0-.36-.087-.36-.347v-5.035c0-1.303-.358-2.17-1.793-2.17-.808 0-1.884.433-2.512 1.041v6.164c0 .26-.09.347-.359.347h-.897c-.18 0-.359-.087-.359-.347v-7.9c0-.26.09-.347.359-.347h.807c.18 0 .36.086.36.347v.52c.806-.694 1.973-1.041 3.05-1.041 2.152 0 2.96 1.215 2.96 3.212v5.209c0 .174-.09.347-.36.347zM52.864 35.854h-.807c-.808 0-1.167-.608-1.167-1.302-.448.781-1.614 1.476-2.78 1.476-2.512 0-3.679-2.084-3.679-4.34 0-2.953 1.795-4.689 3.948-4.689.897 0 1.883.347 2.511 1.129v-.608c0-.174.18-.26.36-.26h.807c.179 0 .358.086.358.347v6.25c0 .434 0 .695.09.782.09.087.18.173.359.173h.09c.18 0 .269 0 .269.26v.609c-.09.086-.18.173-.36.173zM50.8 29.517a2.657 2.657 0 00-2.243-1.302c-1.435 0-2.512 1.215-2.512 3.299 0 1.996.897 3.212 2.243 3.212 1.166 0 2.153-.868 2.422-1.823v-3.386h.09zM62.104 35.854h-.897c-.27 0-.36-.087-.36-.347v-5.035c0-1.303-.358-2.17-1.793-2.17-.808 0-1.884.433-2.512 1.041v6.164c0 .26-.09.347-.359.347h-.897c-.18 0-.359-.087-.359-.347v-7.9c0-.26.09-.347.359-.347h.807c.18 0 .36.086.36.347v.52c.807-.694 1.973-1.041 3.05-1.041 2.152 0 2.96 1.215 2.96 3.212v5.209c0 .174-.09.347-.36.347zM71.164 35.507a6.19 6.19 0 01-2.511.52c-2.871 0-4.306-1.822-4.306-4.514 0-2.604 1.614-4.514 4.395-4.514.808 0 1.705.174 2.333.521.09.087.179.087.179.26v.174l-.18.608c0 .087-.09.173-.179.173 0 0-.09 0-.18-.086a4.284 4.284 0 00-1.883-.434c-1.794 0-2.87 1.302-2.87 3.299 0 1.823.807 3.385 2.78 3.385.808 0 1.435-.173 2.063-.434h.18c.09 0 .18.087.18.174l.179.52v.174c0 .087 0 .087-.18.174zM73.856 25.957c-.539 0-.897-.347-.897-.868 0-.52.448-.868.897-.868.538 0 .986.347.986.868-.09.521-.538.868-.986.868zm.448 9.897h-.807c-.27 0-.359-.087-.359-.347v-7.9c0-.26.09-.347.359-.347h.807c.27 0 .359.086.359.347v7.9c-.09.174-.18.347-.359.347zM85.159 35.854h-.808c-.807 0-1.166-.608-1.166-1.302-.448.781-1.615 1.476-2.78 1.476-2.513 0-3.679-2.084-3.679-4.34 0-2.953 1.794-4.689 3.947-4.689.897 0 1.884.347 2.512 1.129v-.608c0-.174.18-.26.359-.26h.807c.18 0 .36.086.36.347v6.25c0 .434 0 .695.089.782.09.087.18.173.27.173h.089c.18 0 .269 0 .269.26v.609c0 .086-.09.173-.27.173zm-2.153-6.337a2.657 2.657 0 00-2.243-1.302c-1.435 0-2.512 1.215-2.512 3.299 0 1.996.897 3.212 2.243 3.212 1.166 0 2.153-.868 2.422-1.823v-3.386h.09zM88.388 35.854h-.897c-.18 0-.359-.087-.359-.347V23.613c0-.26.09-.347.27-.347l.897-.087h.09c.179 0 .268.087.268.26V35.42c.09.26 0 .434-.269.434zM9.356 19.012C3.883 19.012.833 15.28.833 9.55.833 3.907 4.153 0 9.535 0c5.652 0 8.522 4.08 8.522 9.463 0 5.903-3.588 9.55-8.701 9.55zm.09-15.453c-2.333 0-3.948 1.997-3.948 5.904 0 4.167 1.435 5.99 4.037 5.99 2.422 0 3.947-1.91 3.947-5.99 0-4.167-1.435-5.904-4.037-5.904zM32.141 18.665H29.63c-.539 0-.808-.26-.808-.781v-7.032c0-1.129-.269-1.823-1.525-1.823-.897 0-1.973.434-2.78 1.041v7.814c0 .52-.18.781-.718.781h-2.512c-.449 0-.718-.26-.718-.694V6.685c0-.521.18-.782.807-.782h2.243c.449 0 .718.087.718.521l.09.521a6.984 6.984 0 014.216-1.389c2.96 0 4.306 1.823 4.306 4.688v7.727c0 .434-.18.694-.808.694zM47.302 13.37h-7.625c.359 1.649 1.884 2.604 3.498 2.604 1.167 0 2.333-.26 3.41-.695.089-.086.179-.086.358-.086.27 0 .359.173.449.347.09.434.538 1.65.538 2.083 0 .348-.27.434-.538.608-1.436.608-3.32.868-4.934.868-4.306 0-7.087-2.604-7.087-6.771 0-4.08 2.87-6.772 7.087-6.772 1.704 0 3.23.608 4.216 1.65 1.346 1.389 1.615 3.212 1.615 5.035v.347c0 .608-.27.781-.987.781zm-5.113-4.862c-1.346 0-2.243 1.042-2.422 2.257h4.575c0-1.042-.718-2.257-2.153-2.257zM70.895 18.665h-2.691c-.718 0-.897-.347-.897-1.042l-.27-9.028h-.089l-4.126 9.55c-.18.52-.539.607-.898.607h-.986c-.539 0-.808-.087-1.077-.608l-4.665-9.463h-.09l-.179 9.29c0 .694-.359.78-.897.78h-2.242c-.628 0-.898-.173-.898-.78v-.087l.718-16.582c0-.607.359-.868.807-.868h1.974c.628 0 .897.174 1.076.695l6.01 11.893h.09L67.039 1.13c.18-.434.538-.695 1.076-.695h1.884c.538 0 .718.174.718.695l.897 16.755v.087c0 .52-.27.694-.718.694zM87.312 18.665h-1.436c-1.614 0-2.242-.434-2.601-1.215h-.09c-.717.78-2.511 1.562-3.767 1.562-3.948 0-5.742-3.038-5.742-6.51 0-4.689 2.96-7.033 6.01-7.033 1.526 0 2.782.695 3.32 1.476l.09-.608c0-.26.269-.52.627-.52h2.423c.358 0 .628.173.628.607v9.116c0 .26.09.434.448.434h.18c.358 0 .538.173.538.52v1.563c.09.434-.18.608-.628.608zm-4.575-9.029c-.449-.434-1.346-.868-2.243-.868-1.346 0-2.602 1.042-2.602 3.473 0 1.65.45 3.56 2.512 3.56.987 0 1.974-.695 2.243-1.13V9.637h.09zM92.335 4.34c-1.076 0-2.242-.694-2.242-1.996S91.169.347 92.335.347c1.077 0 2.153.695 2.153 1.997.09 1.302-1.076 1.997-2.153 1.997zm1.346 14.325h-2.422c-.538 0-.808-.174-.808-.781V6.598c0-.521.36-.695.808-.695h2.422c.538 0 .807.174.807.695V17.97c0 .52-.269.694-.807.694zM109.47 18.665h-2.512c-.538 0-.808-.26-.808-.781v-7.032c0-1.129-.269-1.823-1.525-1.823-.897 0-1.973.434-2.781 1.041v7.814c0 .52-.179.781-.717.781h-2.602c-.448 0-.717-.26-.717-.694V6.685c0-.521.179-.782.807-.782h2.243c.448 0 .717.087.717.521l.09.521a7.221 7.221 0 014.396-1.476c2.96 0 4.306 1.823 4.306 4.688v7.727c-.09.52-.269.781-.897.781zM91.17 35.854c-.718 0-1.346-.608-1.346-1.302 0-.694.628-1.302 1.345-1.302.718 0 1.346.52 1.346 1.302 0 .781-.628 1.302-1.346 1.302zm0-2.344c-.629 0-1.077.434-1.077 1.042 0 .608.448 1.042 1.076 1.042.628 0 1.077-.434 1.077-1.042 0-.52-.449-1.042-1.077-1.042zm.448 1.736h-.18-.09l-.268-.434h-.18v.521h-.09v-1.302h.27c.269 0 .448.087.448.347 0 .174-.09.26-.269.348l.359.52c0-.086 0-.086 0 0zm-.538-1.128h-.09v.434h.09c.179 0 .269-.087.269-.26 0-.087-.09-.174-.27-.174z" fill="#004C75"/></svg>
