<?xml version="1.0" encoding="utf-8"?>
<!-- Generator: Adobe Illustrator 26.3.1, SVG Export Plug-In . SVG Version: 6.00 Build 0)  -->
<svg version="1.1" id="Layer_1" xmlns="http://www.w3.org/2000/svg" xmlns:xlink="http://www.w3.org/1999/xlink" x="0px" y="0px"
	 viewBox="0 0 219.5 39.2" style="enable-background:new 0 0 219.5 39.2;" xml:space="preserve">
<style type="text/css">
	.st0{fill-rule:evenodd;clip-rule:evenodd;fill:#231F20;}
	.st1{fill:#EA0029;}
	.st2{fill:#231F20;}
</style>
<g>
	<g>
		<g>
			<path class="st0" d="M65.3,10.4L65.3,10.4c0,2.7-2.1,4.9-4.8,4.9l-8.5,0l2.3-3.9l4.5,0c1.6,0,2.5-0.9,2.5-2.5V7
				c0-1.6-0.9-2.5-2.5-2.5l-6.9,0l0,20.4l-4.2,0V0.5l12.7,0c2.7,0,4.8,2.2,4.8,4.9V10.4L65.3,10.4z"/>
			<polygon class="st0" points="76,20.4 68.4,20.4 70.6,16.7 74.7,16.7 72.2,9.5 66.8,24.8 62.2,24.8 70,4.4 74.3,4.4 82.2,24.8 
				77.5,24.8 76,20.4 			"/>
			<path class="st0" d="M96.8,21.1l-2.2,3.7h-6.3c-3.4,0-6.2-2.7-6.2-6.2v-8c0-3.4,2.7-6.3,6.4-6.3l7.6,0v3.8l-6.4,0
				c-2.3,0-3.3,1.3-3.3,3.9v4.9c0,2.6,1,3.9,3.3,3.9H96.8L96.8,21.1z"/>
			<polygon class="st0" points="99.4,24.8 99.4,4.4 103.5,4.4 103.5,24.8 99.4,24.8 			"/>
			<path class="st0" d="M111,24.8h-4.1V4.4l4.1,0l9.6,0v3.8l-9.6,0V24.8L111,24.8z M113.3,13l-2.2,3.8l8.8,0V13L113.3,13L113.3,13z"
				/>
			<polygon class="st0" points="123.9,24.8 123.9,4.4 128,4.4 128,24.8 123.9,24.8 			"/>
			<path class="st0" d="M145.5,24.8l-7.8,0c-3.4,0-6.3-2.7-6.3-6.2V6.8c0-3.4,2.8-6.3,6.3-6.3l9.3,0v3.9l-8.1,0
				c-2.3,0-3.3,1.3-3.3,3.9v8.7c0,2.6,1,3.9,3.3,3.9l8.9,0L145.5,24.8L145.5,24.8z"/>
			<path class="st0" d="M154.8,25c-3.3,0-6.2-2.8-6.2-6.3v-8.3c0-3.4,2.8-6.2,6.2-6.2l5.7,0c3.4,0,6.2,2.7,6.2,6.2v8.3
				c0,3.4-2.7,6.3-6.2,6.3L154.8,25L154.8,25z M159.1,21.2c2.3,0,3.3-1.2,3.3-3.9V12c0-2.6-1-3.8-3.3-3.8h-3c-2.3,0-3.3,1.2-3.3,3.8
				v5.3c0,2.7,1,3.9,3.3,3.9H159.1L159.1,21.2z"/>
			<path class="st0" d="M182.3,18.1l4.3,6.8l-5,0l-4.3-6.8h-3.9l2.2-3.8l4.2,0c1.6,0,2.5-0.9,2.5-2.5v-0.8c0-1.6-0.9-2.5-2.5-2.5
				l-6.5,0v16.5h-4.2l0-20.4l12.3,0c2.6,0,4.8,2.2,4.8,4.9v3.8C186.3,15.7,184.6,17.6,182.3,18.1L182.3,18.1z"/>
			<path class="st0" d="M205,13.2L205,13.2c0,2.7-2.1,4.8-4.8,4.8l-7,0l2.2-3.8l3.1,0c1.6,0,2.5-0.9,2.5-2.5v-0.8
				c0-1.6-0.9-2.5-2.5-2.5l-5.4,0v16.5l-4.2,0V4.4l11.2,0c2.7,0,4.8,2.2,4.8,4.9V13.2L205,13.2z"/>
		</g>
		<g>
			<polygon class="st1" points="43.6,14.9 36.6,20.1 35.7,20.1 43.6,13.1 43.6,11.6 32.7,20.1 31.7,20.1 43.6,9.2 43.6,8.1 
				28.7,20.1 27.7,20.1 43.6,4.9 43.6,4.3 24.7,20.2 43.6,39 43.6,17.9 40.6,20.1 39.6,20.1 43.6,16.7 			"/>
			<polygon class="st1" points="24.2,19.7 43.6,0.3 43.6,0.3 4.8,0.3 			"/>
		</g>
	</g>
	<g>
		<path class="st2" d="M206,22.8h0.3l0.6,1.1h0.6l-0.7-1.1c0.3,0,0.6-0.2,0.6-0.7c0-0.6-0.4-0.8-1-0.8h-0.9v2.5l0.5,0V22.8z
			 M206,22.4v-0.6h0.4c0.2,0,0.5,0,0.5,0.3c0,0.3-0.1,0.3-0.4,0.3H206z"/>
		<path class="st2" d="M206.5,25c-1.3,0-2.3-1-2.3-2.3c0-1.3,1.1-2.3,2.3-2.3c1.3,0,2.3,1.1,2.3,2.3C208.8,24,207.7,25,206.5,25z
			 M206.5,20.7c-1.1,0-1.9,0.9-1.9,1.9s0.9,1.9,1.9,1.9c1.1,0,1.9-0.9,1.9-1.9C208.4,21.6,207.5,20.7,206.5,20.7z"/>
	</g>
</g>
</svg>
