<?xml version="1.0" encoding="utf-8"?>
<!-- Generator: Adobe Illustrator 23.0.1, SVG Export Plug-In . SVG Version: 6.00 Build 0)  -->
<svg version="1.1" id="Layer_1" xmlns="http://www.w3.org/2000/svg" xmlns:xlink="http://www.w3.org/1999/xlink" x="0px" y="0px"
	 width="224px" height="40.9px" viewBox="0 0 224 40.9" style="enable-background:new 0 0 224 40.9;" xml:space="preserve">
<style type="text/css">
	.st0{fill:#004785;}
	.st1{fill:#0082C4;}
</style>
<path class="st0" d="M114.8,30.7l-0.2-0.1c-1-0.5-1.4-2-1.9-3.2l-5.2-13.8l-4.9,0V14l0.3,0.1c0,0,0.2,0.1,0.4,0.2
	c0.3,0.2,0.5,0.5,0.2,1.4c-0.1,0.4-0.2,0.7-0.2,0.7s-4.1,11-4.1,11c-0.4,1.2-0.8,2.7-1.8,3.2L97,30.7v0.4h5.5v-0.4l-0.4-0.2
	c-0.5-0.2-0.6-0.7-0.1-2.2l0.6-2h5.9c0.1,0.4,0.3,1,0.6,1.9c0.3,0.8,0.7,2,0.1,2.3l-0.4,0.1v0.4h5.9L114.8,30.7z M107.6,23.7h-4
	l1.9-5.4L107.6,23.7z"/>
<path class="st0" d="M150.7,13.6V14c0,0,0.4,0.2,0.4,0.2c0.6,0.3,0.6,1.9,0.6,2.9c0,0,0,10.7,0,10.7c0,0.9,0,2.6-0.6,2.9l-0.4,0.2
	v0.4h5.7v-0.4c0,0-0.4-0.2-0.4-0.2c-0.6-0.3-0.6-2-0.6-2.9c0,0,0-10.6,0-10.6c0-1.5,0.2-2.7,0.6-2.9l0.4-0.2v-0.4H150.7z"/>
<path class="st0" d="M129.6,13.6V14l0.4,0.2c0.6,0.3,0.6,1.9,0.6,2.9c0,0,0,10.7,0,10.7c0,0.9,0,2.6-0.6,2.9l-0.4,0.2v0.4h5.7v-0.4
	c0,0-0.4-0.2-0.4-0.2c-0.6-0.3-0.6-2-0.6-2.9c0,0,0-10.6,0-10.6c0-1.5,0.2-2.7,0.6-2.9l0.4-0.2v-0.4H129.6z"/>
<g>
	<path class="st0" d="M191.7,17L191.7,17C191.7,17,191.7,17,191.7,17c0-1,0-2.6-0.6-2.9l-0.4-0.2v-0.4h5.7V14l-0.4,0.2
		c-0.4,0.2-0.6,1.4-0.6,2.9c0,0,0,10.6,0,10.6c0,0.9,0,2.6,0.6,2.9l0.4,0.2v0.4h-5.7v-0.4l0.4-0.2c0.6-0.2,0.6-2,0.6-2.9
		C191.7,27.7,191.7,17,191.7,17z"/>
</g>
<path class="st0" d="M98,12.1c-1.3-1.3-3.2-2-5.4-2h-7.2l0,0v0.5l0.4,0.1c0.9,0.4,0.9,2.7,0.9,4.4c0,1.9,0,11,0,11.1
	c0,0,0,0.4,0,0.4c0,1.2,0,3.6-0.9,3.9l-0.4,0.2v0.4H92v-0.4l-0.3-0.1c-1.2-0.8-1.2-2.5-1.2-4.3v-3.7l0.7,0.3c0,0,1.1,0.4,2.1,0.4
	c3.1,0,6.4-2.1,6.4-6.8C99.7,14.7,99.1,13.2,98,12.1z M91.5,21.6l-0.6,0l-0.4,0v-7.9c0.4,0,1-0.1,1.6-0.1c1.4,0,2.4,0.3,3.1,1
	c0.6,0.6,0.9,1.4,0.9,2.4C96.1,19.8,93.7,21.4,91.5,21.6z"/>
<path class="st0" d="M127.8,26.4l-0.1,0.1c-0.2,0.1-0.4,0.3-0.4,0.3c-1.1,0.7-2.7,1.5-4.5,1.5c-1.4,0-2.5-0.4-3.4-1.3
	c-1.1-1.1-1.7-2.9-1.7-5c0-3.2,1.9-5.5,4.6-5.5c1.3,0,2.6,0.4,3.8,1.3l0.4,0.2l0.7,0.5v-0.8v-3.5v-0.3l-0.5-0.1
	c-1.7-0.4-3-0.6-4.3-0.6c-2.4,0-4.4,0.8-6,2.4c-1.7,1.7-2.6,4.1-2.6,6.8c0,2.8,0.9,5.1,2.5,6.7c1.6,1.6,4,2.5,6.8,2.5
	c1.4,0,2.6-0.3,3.7-0.8l0.1,0l0.1-0.1l0.1-0.1l1.2-4.1H127.8z"/>
<path class="st0" d="M171.2,26.4c0,0-0.5,0.3-0.5,0.3c-1.1,0.7-2.7,1.5-4.5,1.5c-1.4,0-2.5-0.4-3.4-1.3c-1.1-1.1-1.7-2.9-1.7-5
	c0-3.2,1.9-5.5,4.6-5.5c1.3,0,2.6,0.4,3.8,1.3l1,0.7v-4.3v-0.3l-0.5-0.1c-1.7-0.4-3-0.6-4.3-0.6c-2.4,0-4.4,0.8-6,2.4
	c-1.7,1.7-2.6,4.1-2.6,6.8c0,2.8,0.9,5.1,2.5,6.7c1.6,1.6,4,2.5,6.8,2.5c1.4,0,2.6-0.3,3.7-0.8l0.2-0.1l1.3-4.2H171.2z"/>
<path class="st0" d="M147.8,13.6l-4.6,0h-5.7V14l0.4,0.2c0.6,0.3,0.6,1.9,0.6,2.9c0,0,0,10.7,0,10.7c0,0.9,0,2.6-0.6,2.9l-0.4,0.2
	v0.4h5.7v-0.4l-0.4-0.2c-0.6-0.3-0.6-2-0.6-2.9v-3.5h3.1c0,0,0,0,0,0l0,0c0,0,1.4-0.1,1.6,0.5l0.1,0.2l0.4,0.1l0.2-4.7l-0.5,0
	l-0.1,0.3c-0.1,0.4-1.4,0.5-1.7,0.5l0,0h-3.1c0-1.5,0-3.5,0-4.3h4.2c0.9,0,1.4,0.2,1.6,0.7l0.1,0.3h0.4l1-4.2
	C149.4,13.4,148.1,13.6,147.8,13.6z"/>
<path class="st0" d="M208.7,13.6l-4.6,0h-5.7V14l0.4,0.2c0.6,0.3,0.6,1.9,0.6,2.9c0,0,0,10.7,0,10.7c0,0.9,0,2.6-0.6,2.9l-0.4,0.2
	v0.4h5.7v-0.4l-0.4-0.2c-0.6-0.3-0.6-2-0.6-2.9v-3.5h3.1c0,0,0,0,0,0l0,0c0,0,1.4-0.1,1.6,0.5l0.1,0.2l0.4,0.1l0.2-4.7l-0.5,0
	l-0.1,0.3c-0.1,0.4-1.4,0.5-1.7,0.5l0,0h-3.1c0-1.5,0-3.5,0-4.3h4.2c0.9,0,1.4,0.2,1.6,0.7l0.1,0.3h0.4l1-4.2
	C210.4,13.4,209.1,13.6,208.7,13.6z"/>
<path class="st0" d="M223.3,26.9c-1.1,0.9-2.8,1.4-4.6,1.4s-2.6-0.2-2.6-0.2c0-0.1,0-0.2,0-0.3v-4.2l2.6,0c0,0,1.4,0,1.6,0.5
	l0.1,0.2l0.4,0.1l0.2-4.3l-0.5,0l-0.1,0.3c-0.1,0.4-1.3,0.4-1.6,0.4h-2.7c0-1.4,0-3.2,0-4h3.3c0.9,0,1.8,0,2.1,0.7l0.1,0.3h0.4
	l0.8-4.2c0,0-1.3,0.1-1.7,0.1h-9.7V14l0.4,0.2c0.6,0.3,0.6,1.9,0.6,2.9c0,0,0,10.7,0,10.7c0,0.8,0,2.5-0.5,2.9
	c-0.2,0.1-0.5,0.2-0.5,0.2v0.4h11.3l1.1-4.3H223.3z"/>
<path class="st0" d="M189.5,25.9c0,0-0.2,0.2-0.2,0.2c-1.4,1.3-3.2,2-5.1,2c-1.9,0-2.7-0.1-2.7-0.1s0-13,0-13.7c0-1.2,0-3.3,1.1-3.6
	l0.4-0.1v-0.5h-6.6v0.5l0.4,0.1c0.9,0.4,0.8,2.4,0.8,3.6c0,0,0,12.8,0,12.8c0,1.2,0,3.2-0.8,3.5l-0.4,0.2v0.4h11.7l1.9-5.3H189.5z"
	/>
<path class="st1" d="M80,39.6c0-0.4,0-0.7,0-1.1c-0.2,0-10.4,0.7-15.5,0.7c-6.6,0-16.2-0.1-16.2-0.1L4.2,38.7c0-0.1,0-0.8,0-0.9
	l44-0.1c0,0,9.6,0.1,16.2,0.1c5,0,15.3,0,15.5,0c0-0.6-0.1-1.3-0.1-1.9c-0.2,0-10.4,0.8-15.3,0.8c-6.6,0-16.2-0.4-16.2-0.4l-11.3,0
	l-14.9-0.4L4.4,35.6c0-0.1,0.1-0.9,0.1-1c0.6,0.1,1.2,0.3,3.3,0.3c2.8,0,4.2-0.7,4.2-0.7s2,0.6,4.8,0.6c1.3,0,4.1-1.3,5.9-0.8
	c2.8,0.8,3.9-0.4,3.9-0.4s0.7,0.9,1.9,1.1c1,0.2,2.2-0.5,2.2-0.5s1.6,1.2,6.1,1.1c5.6,0,7.1-2.9,7.1-2.9h0.2c0,0-0.2,0.8,0.1,1.5
	c0.6,1.3,2.3,1.4,2.3,1.4c-0.2-3.5,1.3-5.8,1.3-5.8h0.2c0,0,0,0-0.2,0.7c-0.6,2.5,0.5,4.8,0.5,4.8l0.5-0.3c0,0-0.5-1.6,0-3.8
	c0.5-2.2,1.3-3.3,1.3-3.3h0.3c0,0-0.6,1.7-0.5,3.1c0,1.1,0.6,3.8,2.8,4.5c1.7,0.6,2.8-0.7,2.8-0.7s3.5,0.9,6.4,0.9
	c6.8,0,8.4-1.1,8.4-1.1s0.5,0.8,4,0.8c2,0,3.6-0.1,4.5-0.3c0.3,0,0.5-0.1,0.7-0.1c-0.1-0.6-0.2-1.2-0.3-1.7
	c-1.9-10.7-8.1-19.9-16.8-25.8l-0.5,1.4c8.4,5.6,14.6,14.3,16.4,24.7c-1,0.3-2.4,0.7-4.1,0.7c-2.7,0-3.3-0.9-3.3-0.9s-1,0.7-2.7,0.7
	c-1.5,0-2.8-1.1-2.8-1.1s-1.7,1.5-4.4,1.5c-3.4,0-5.1-2.1-5.7-3c-0.6-0.9-0.9-1.7-0.9-1.7h-0.3c0.1,0.4,0.1,0.8,0.3,1.3
	c0.5,1.2,0.7,1.6,0.9,2c0.1,0.2,0.3,0.6-0.2,0.8c-0.3,0.1-0.5-0.1-0.6-0.3c-0.2-0.2-0.8-1.1-1.2-2.4c-0.4-1.4-0.5-2.4-0.6-3.2h-0.2
	c-0.1,0.7-0.2,1.7-0.1,3c0.1,1.4,0.5,2.4,0.6,2.7c0,0,0.1,0.2,0.1,0.3c0.1,0.4-0.3,0.7-0.7,0.6c-0.3-0.1-0.6-0.4-0.7-0.7
	c-1.5-2.4,0.3-7.1,0.9-8.7c0.8-2.1,1-4.1,1-4.1s1-1.6,1.5-2.7c0.7-1.4,1.2-2.7,1.6-3.1c0.7-0.7,1.7-2.3,2.8-4.3
	c0.2-0.4,1.2-2.5,1.3-3c0.1-0.4,0.3-0.8,0.4-1.2c0.5-2,0.9-4.1,0.9-4.4c0-0.5-0.8-0.8-0.8-0.8S60.8,1,60.3,1c-0.3,0-0.7,0.3-1,0.4
	c-0.4,0.2-0.6,0.1-0.6,0.1s-0.6-0.3-1-0.2c-0.3,0.1-0.6,0.4-0.9,0.6C56.3,2.1,56.2,2,56.2,2s-0.5-0.2-0.9,0
	c-0.4,0.1-0.7,0.3-1.3,0.8C49.6,1.2,45,0.3,40.1,0.3C18.3,0.3,0.6,17.8,0.3,39.5c0,0.2,0,1.1,0,1.1H80C80,40.6,80,39.8,80,39.6z
	 M29.1,31.6c-0.1-0.1,0-0.1-0.1-0.2c1.1-3.5,3.6-10.6,7.7-16.1c0.4,0.2,0.8,0.5,1.2,0.7C35.1,19.4,31.2,25.9,29.1,31.6z M31.7,32.7
	c0.8-3.2,2.8-9.9,7.3-16.2c0.4,0.3,0.8,0.5,1.2,0.8c-3,4-6.6,10.3-8.3,15.6C31.7,32.8,31.8,32.8,31.7,32.7z M34.8,33.6
	c-0.1,0-0.1,0-0.2,0c0.6-2.6,2.3-9.2,6.5-15.7c0.4,0.3,0.8,0.5,1.2,0.8C39.4,22.8,36.1,28.7,34.8,33.6z M37.8,33.5
	c-0.1,0-0.1,0-0.2,0c0.6-2.4,2-8.2,5.6-14.2c0.5,0.4,0.9,0.7,1.2,0.9C41.7,24.2,39,29.2,37.8,33.5z M48.3,22.9
	c-0.8,0-1.9-0.3-2.2-0.9c0.1,1.1,1.4,2,2.6,2.1v0.1c-0.3,0.1-0.5,0.1-0.8,0.1c-1.5,0-2.7-1.2-2.7-2.7c0-0.2,0-0.4,0.1-0.6
	c1.1,0.9,3.6,2.2,4.9,0.3l0,0.1C49.8,22.1,49.2,22.9,48.3,22.9z M52.7,16.7c-0.1,0.5-0.4,0.7-0.6,0.8c-0.2,0.1-0.6,0.4-0.7,0.5
	c0,0.1-0.1,0-0.1,0c0,0-0.2-0.1-0.3-0.2c0,0-0.1-0.1-0.1-0.1c0-0.1,0-0.2,0-0.2l0-0.2c0,0,0-0.3,0-0.3s-0.1-0.4,0-0.7
	c0.1-0.4,0.5-0.7,0.5-0.7l0.2,0.1c0,0-0.2,0.2-0.3,0.6c-0.1,0.2-0.1,0.7,0,0.9c0,0,0,0.2,0,0.2l0.1,0.1c0,0,0.1-0.1,0.2-0.1
	c0.2-0.2,0.4-0.3,0.4-0.3s-0.4-0.3-0.2-0.6c0.2-0.4,0.6-0.2,0.6-0.2c0.1-0.4,0.1-0.9,0.1-0.9l0.3,0.1C52.6,15.6,52.8,16.1,52.7,16.7
	z M54.8,3.2c0.4-0.2,0.7-0.5,1.1-0.6c0.4-0.1,0.8,0,1.2,0c0.3,0,0.9-0.5,1.1-0.5c0.3,0,0.6,0.1,0.8,0.2c0.2,0.1,1.1-0.5,1.3-0.5
	c0.2,0,0.7,0,0.6,0.6c-0.1,0.5-0.4,2-1.2,3.8c-0.2,0.6-0.5,1.1-0.8,1.7c-0.3,0.7-0.7,1.4-1.2,2.1C56,13,54.4,12.3,51,13.9
	c-2.6,1.2-3.7,2.1-4.2,2.5c-0.2-0.1-0.4-0.3-0.7-0.4c0.5-0.5,1.5-1.2,3.8-2.4c2.4-1.2,6.4-2.9,7.2-4.3c0.1-0.1,0-0.2-0.1-0.3
	c-0.9,0.6-1.7,1-2.1,1.2c-3.9,2-5.2,2.5-6.9,3.3c-0.8,0.4-2,1.2-2.9,1.8c-0.2-0.1-0.4-0.3-0.7-0.5c0.8-0.6,1.8-1.3,3-1.9
	c1.7-0.9,3.2-1.6,7.3-4c0.4-0.2,2.5-1.5,4-2.6c0-0.1,0.1-0.3,0.1-0.4c-1.4,0.8-6,3.3-7,3.8c-3.9,2-3.7,1.8-5.4,2.7
	c-1.2,0.6-2.2,1.3-2.9,1.9c-0.2-0.2-0.4-0.3-0.6-0.5c0.9-0.6,1.8-1.2,3-1.9c1.7-0.9,2-1.1,5.8-3.1c2-1,5.4-3.3,7.3-4.5
	c0-0.2,0-0.2,0.1-0.3c-1.9,1.1-7.4,3.9-8.3,4.4c-3.9,2-4.3,2.1-6,3c-1,0.5-2,1.1-2.6,1.6c-0.2-0.1-0.3-0.3-0.5-0.4
	c0.6-0.5,1.7-1.2,3.2-2.1c1.7-1,2-1.1,5.9-3.1c0.3-0.2,2.2-1.2,4.1-2.3c0.5-0.3,1.1-0.7,1.6-1c0.3-0.2,0.7-0.5,1-0.7l-0.2-0.1
	c-0.8,0.3-1.9,0.9-2.1,1.1c-2,1.2-4.6,2.3-5.4,2.7c-3.9,2-4.3,2.1-6,3c-0.9,0.5-2,1.2-2.7,1.7c-0.2-0.2-0.3-0.3-0.5-0.5
	c0.8-0.7,1.9-1.4,3.2-2.1c1.7-0.9,2.1-1,6-3c0.7-0.4,1.3-0.7,1.8-1C51.5,5.2,53.2,4.3,54.8,3.2z M41.8,2.2c3.7,0,7.3,0.6,10.7,1.6
	c-0.7,0.5-1.6,1-2.8,1.6c-4.4,2.2-5,2.4-6.9,3.4c-1.2,0.6-2.2,1.2-3,1.8c0,0,0,0,0,0s-0.8-1.1-1.3-1.4c-0.5-0.4-1.5-0.6-1.9-0.8
	c-0.7-0.4-0.8-0.6-1.8-0.9c-0.9-0.3-1.4-0.1-1.9-0.2c-0.4-0.1-1-0.3-1.8-0.3c-0.4,0-1.1,0.3-1.5,0.4c-0.6,0.1-1.2-0.2-1.6-0.1
	c-0.5,0.1-1.1,0.6-1.8,0.7c-0.5,0.1-1.1,0-1.4,0.1c-0.4,0.1-1.1,0.8-1.5,0.9S22,9.2,22.1,9.9c0.1,0.7,1.5,0.8,1.5,0.8
	s6.2,0.9,12.2,4c-0.9,1.1-1.7,2.3-2.5,3.5c-0.5-0.1-1.1-0.3-1.5-0.4c-0.6-0.1-1.3,0.2-1.7,0.2c-0.9,0-1-0.2-2-0.1
	c-0.8,0.1-0.8,0.4-1.5,0.5c-0.4,0.1-1-0.1-1.8,0.2c-0.4,0.1-1,0.8-1.4,1c-0.3,0.2-0.9,0.2-1.4,0.5c-0.4,0.3-0.3,0.6-1,1
	c-0.5,0.3-0.8,0.2-1.3,0.6c-0.3,0.2-0.3,0.7-1.1,1.3c-1,0.8-0.9,1.4-0.8,1.7c0.3,0.7,1.8,0,1.8,0s5-1.7,11.2-2
	c-1.6,3.2-2.9,6.3-3.7,8.2c-0.2,0.5-0.3,0.9-0.4,1.3c-0.1,0-0.1,0-0.1,0c-0.4-0.2-0.4-0.8-0.2-1.9c0.2-1.1,1.1-3.3,1.4-3.8l-0.3,0
	c-0.3,0.5-1.2,2.2-1.4,2.6c-0.3,0.6-0.4,0.8-1.1,2.2c-0.1,0.2-0.5,0.9-0.9,0.9c-0.3,0-0.6-0.2-0.6-0.5c0-0.1,0.2-0.4,0.3-0.5
	c0.9-1.3,1.4-2.6,1.5-3.1h-0.3c0,0-2.3,5.1-7,5.1c-1.7,0-3.3-0.8-3.3-0.8s-2.3,1-5.3,1c-2.4,0-3.9-0.5-4.4-0.7
	C8.1,15.6,22.9,2.2,41.8,2.2z"/>
</svg>
