<?xml version="1.0" encoding="utf-8"?>
<!-- Generator: Adobe Illustrator 22.0.0, SVG Export Plug-In . SVG Version: 6.00 Build 0)  -->
<svg version="1.1" id="Layer_1" xmlns="http://www.w3.org/2000/svg" xmlns:xlink="http://www.w3.org/1999/xlink" x="0px" y="0px"
	 viewBox="0 0 253.5 42.2" style="enable-background:new 0 0 253.5 42.2;" xml:space="preserve">
<style type="text/css">
	.st0{fill:#FFFFFF;}
</style>
<path class="st0" d="M250,36.6c-2,2.1-4.3,3.4-7.2,4c-2,0.4-3.7,0.5-5.6,0.3c-2.6-0.3-4.8-1.1-6.9-2.7c-1.7-1.3-3-2.7-4-4.5
	c-0.8-1.4-1.3-2.8-1.6-4.4c-0.4-2.3-0.3-4.3,0.3-6.5c1.4-5.1,5.2-8.7,10.3-9.7c2.9-0.6,5.6-0.5,8.5,0.2c2.1,0.5,3.7,1.4,5.3,2.9
	c1,0.9,1.7,1.8,2.3,3c0.7,1.4,1,2.8,0.9,4.4h-9.2c-0.2-1.2-0.8-2.2-1.8-3c-1.3-1-2.9-1.1-4.3-0.2c-0.9,0.6-1.6,1.4-1.9,2.4
	c-0.8,2.5-0.8,4.8-0.1,7.4c0.3,1.1,0.8,1.9,1.6,2.7c0.9,0.9,2.1,1.2,3.3,1.1c0.8-0.1,1.4-0.5,1.9-1c0.5-0.6,0.9-1.3,1-2.1
	c0.1-0.6,0.2-1,0.2-1.6h9.7C252.9,31.9,252,34.5,250,36.6"/>
<rect x="213" y="2.5" class="st0" width="10" height="7.1"/>
<rect x="213" y="13.2" class="st0" width="10" height="26.9"/>
<path class="st0" d="M192.1,16.1c1.3-1.2,2.6-2,4.2-2.7c2.6-1.2,5.2-1.4,7.9-0.6c2.9,0.9,5.1,2.9,6,5.9c0.4,1.4,0.6,2.7,0.6,4.1
	v17.3h-10.7V24.5c0-0.5-0.1-1-0.2-1.5c-0.3-0.9-0.9-1.6-1.7-1.9c-1.9-0.8-4-0.1-5.1,1.7c-0.4,0.7-0.6,1.5-0.6,2.3v15h-10.3V13.2h9.7
	L192.1,16.1z"/>
<path class="st0" d="M73.3,16.1c1.3-1.2,2.6-2,4.2-2.7c2.6-1.2,5.2-1.4,7.9-0.6c2.9,0.9,5.1,2.9,6,5.9c0.4,1.4,0.6,2.7,0.6,4.1v17.3
	H81.4V24.5c0-0.5-0.1-1-0.2-1.5c-0.3-0.9-0.9-1.6-1.7-1.9c-1.9-0.8-4-0.1-5.1,1.7c-0.4,0.7-0.6,1.5-0.6,2.3v15H63.4V13.2h9.7
	L73.3,16.1z"/>
<path class="st0" d="M136.7,30.2c0.8,0.1,1.4,0.3,2.2,0.5c0.6,0.2,1,0.7,1.2,1.3c0.1,0.7,0,1.3-0.5,1.8c-0.5,0.5-1.1,0.8-1.8,0.9
	c-0.9,0.2-1.8,0.1-2.7-0.3c-0.4-0.2-0.8-0.4-1.1-0.7c-0.5-0.4-0.8-0.8-0.9-1.4c-0.1-0.5-0.2-0.9-0.2-1.4h-9.8v0.6
	c0,0.9,0.1,1.7,0.5,2.6c0.5,1.3,1.2,2.3,2.2,3.3c1.3,1.2,2.7,2,4.5,2.5c3.6,1,6.9,1.2,10.7,0.7c1.8-0.3,3.2-0.7,4.8-1.6
	c0.7-0.4,1.3-0.7,1.9-1.2c2.7-2.2,3.6-5.6,2.6-8.9c-0.4-1.2-1-2.2-2-3.1c-1.4-1.2-2.7-1.9-4.5-2.4c-0.4-0.1-0.7-0.2-1.1-0.3
	c-2.1-0.6-3.9-1-6.1-1.3c-0.6-0.1-1.1-0.2-1.6-0.3c-0.3-0.1-0.5-0.1-0.7-0.2c-0.6-0.3-0.9-1-0.6-1.6c0,0,0-0.1,0-0.1
	c0.3-0.6,0.8-1,1.4-1.1c1.1-0.3,2.2-0.3,3.3,0.1c1.1,0.4,1.7,1.3,1.7,2.4h9.5c0-1.2-0.2-2.1-0.6-3.2c-0.4-1.1-1-2-1.9-2.7
	c-0.8-0.6-1.6-1.1-2.5-1.4c-0.9-0.4-1.8-0.6-2.8-0.8c-2.3-0.4-4.4-0.5-6.7-0.4c-1.4,0.1-2.5,0.2-3.8,0.6c-1.8,0.4-3.2,1.1-4.7,2.2
	c-1.2,1-2,2.1-2.5,3.6c-0.2,0.7-0.3,1.3-0.4,2c-0.1,1.2,0.1,2.2,0.6,3.3c0.8,2,2.2,3.4,4.1,4.1c1,0.4,1.9,0.7,2.9,0.9
	C132.8,29.5,134.6,29.9,136.7,30.2"/>
<path class="st0" d="M19.1,28.5h-6.9v-8.8h4.5c0.9,0,1.6,0,2.4-0.1c1.2-0.1,2.2-0.6,2.9-1.5c0.4-0.5,0.6-1,0.7-1.6
	c0.1-0.5,0.1-1,0-1.5c-0.2-2-1.8-3.4-3.8-3.4h-6.7v28.6H0.8V2.5h18.7c0.7,0,1.4,0,2.1,0.1c4.9,0.3,9,3,11.1,7.5
	c1.1,2.3,1.5,4.6,1.2,7.1c-0.6,5.4-4.4,9.6-9.7,10.8C22.4,28.4,20.9,28.5,19.1,28.5"/>
<path class="st0" d="M168.9,12.7c-1.1-0.2-2-0.2-3-0.2c-1.1,0-2,0.1-3,0.2c-3.1,0.5-5.6,1.7-7.8,3.9c-2.4,2.3-3.7,5.1-4,8.4
	c-0.2,2,0,3.8,0.5,5.8c0.8,3,2.4,5.4,4.9,7.3c1.6,1.3,3.3,2,5.3,2.5c1.4,0.3,2.7,0.4,4.2,0.4s2.7-0.1,4.2-0.4c2-0.4,3.7-1.2,5.3-2.5
	l-5.8-6.3c-0.9,2-3.3,2.9-5.3,2c-0.9-0.4-1.6-1.1-2-2c-0.4-0.9-0.6-1.6-0.8-2.6c-0.3-1.9-0.2-3.5,0.1-5.4c0.2-1,0.5-1.8,1.1-2.6
	c1.2-1.8,3.6-2.3,5.4-1.1c0.5,0.3,0.8,0.7,1.1,1.1c0.5,0.8,0.9,1.6,1.1,2.6c0.4,1.9,0.4,3.5,0.1,5.4c-0.1,0.9-0.4,1.7-0.8,2.6
	l5.8,6.3c2.5-1.9,4.1-4.3,4.9-7.3c0.6-2,0.7-3.7,0.5-5.8c-0.3-3.3-1.6-6.1-4-8.4C174.5,14.4,172,13.2,168.9,12.7"/>
<path class="st0" d="M121.7,38c-0.2-2.2-0.2-4.1-0.3-6.3c-0.1-2.9-0.1-5.4-0.1-8.3c0-1.6-0.2-2.9-0.6-4.4c-0.5-2-1.7-3.5-3.5-4.5
	c-1.1-0.6-2.1-1-3.3-1.2c-3.9-0.8-7.3-0.9-11.2-0.2c-1.1,0.2-2,0.5-3,0.9c-2.4,1-4,2.8-4.8,5.2c-0.3,0.9-0.4,1.8-0.3,2.8
	c0,0.2,0.1,0.3,0.1,0.5l9,0.2c0-0.6,0.1-1.1,0.2-1.6c0.3-0.8,0.9-1.4,1.7-1.7c1.2-0.4,2.4-0.5,3.6-0.1c0.8,0.3,1.4,0.8,1.6,1.7
	c0.2,0.5,0.1,1-0.2,1.4c-0.3,0.4-0.6,0.6-1,0.8c-0.3,0.1-0.5,0.2-0.8,0.3c-1.3,0.3-2.3,0.6-3.6,0.8c-1,0.2-1.9,0.3-2.9,0.5
	c-1.4,0.3-2.5,0.6-3.8,1c-1.2,0.4-2.2,0.9-3.1,1.8c-1.2,1.1-1.9,2.4-2.2,4.1c-0.2,1.1-0.1,2,0.1,3.1c0.6,2.8,2.6,4.9,5.3,5.7
	c3.1,0.9,5.9,0.7,8.9-0.4c1.4-0.6,2.5-1.4,3.5-2.6l-0.6-4.6c-0.5,0.7-1,1.2-1.8,1.5c-0.7,0.3-1.4,0.5-2.1,0.6
	c-0.7,0.1-1.2,0-1.8-0.2c-0.5-0.1-0.9-0.4-1.3-0.8c-0.3-0.3-0.5-0.7-0.6-1.1c-0.1-0.7,0.1-1.3,0.6-1.8c0.4-0.3,0.7-0.5,1.1-0.7
	c1-0.4,1.9-0.7,3-1c1.3-0.4,2.4-0.8,3.6-1.3c0.1,1,0.1,1.8,0,2.8c-0.1,0.7-0.3,1.3-0.7,1.9l0.6,4.6c0.2,0.7,0.4,1.2,0.6,1.8
	c0.1,0.4,0.3,0.6,0.5,0.9h10C122,39.4,121.8,38.8,121.7,38"/>
<path class="st0" d="M61.4,38c-0.2-2.2-0.2-4.1-0.3-6.3c-0.1-2.9-0.1-5.4-0.1-8.3c0-1.6-0.2-2.9-0.6-4.4c-0.5-2-1.7-3.5-3.5-4.5
	c-1.1-0.6-2.1-1-3.3-1.2c-3.9-0.8-7.3-0.9-11.2-0.2c-1.1,0.2-2,0.5-3,0.9c-2.4,1-4,2.8-4.8,5.2c-0.3,0.9-0.4,1.8-0.3,2.8
	c0,0.2,0.1,0.3,0.1,0.5l9,0.2c0-0.6,0.1-1.1,0.2-1.6c0.3-0.8,0.9-1.4,1.7-1.7c1.2-0.4,2.4-0.5,3.6-0.1c0.8,0.3,1.4,0.8,1.6,1.7
	c0.2,0.5,0.1,1-0.2,1.4c-0.3,0.4-0.6,0.6-1,0.8c-0.3,0.1-0.5,0.2-0.8,0.3c-1.3,0.3-2.3,0.6-3.6,0.8c-1,0.2-1.9,0.3-2.9,0.5
	c-1.4,0.3-2.5,0.6-3.8,1c-1.2,0.4-2.2,0.9-3.1,1.8c-1.2,1.1-1.9,2.4-2.1,4.1c-0.2,1.1-0.1,2,0.1,3.1c0.6,2.8,2.6,4.9,5.3,5.7
	c3.1,0.9,5.9,0.7,8.9-0.4c1.4-0.6,2.5-1.4,3.5-2.6l-0.6-4.6c-0.5,0.7-1,1.2-1.8,1.5c-0.7,0.3-1.4,0.5-2.1,0.6
	c-0.7,0.1-1.2,0-1.8-0.2c-0.5-0.1-0.9-0.4-1.3-0.8c-0.3-0.3-0.5-0.7-0.6-1.1c-0.1-0.7,0.1-1.3,0.6-1.8c0.4-0.3,0.7-0.5,1.1-0.7
	c1-0.4,1.9-0.7,3-1c1.3-0.4,2.4-0.8,3.6-1.3c0.1,1,0.1,1.8,0,2.8c-0.1,0.7-0.3,1.3-0.7,1.9l0.6,4.6c0.2,0.7,0.4,1.2,0.6,1.8
	c0.1,0.4,0.3,0.6,0.5,0.9h10C61.7,39.4,61.5,38.8,61.4,38"/>
</svg>
