<?xml version="1.0" encoding="UTF-8"?> <svg xmlns="http://www.w3.org/2000/svg" xmlns:xlink="http://www.w3.org/1999/xlink" width="125px" height="19px" viewBox="0 0 125 19"><!-- Generator: Sketch 52.6 (67491) - http://www.bohemiancoding.com/sketch --><title>PanasonicAvionics_Logo</title><desc>Created with Sketch.</desc><g id="Navigation" stroke="none" stroke-width="1" fill="none" fill-rule="evenodd"><g id="Nav-Our-Offerings" transform="translate(-32.000000, -27.000000)" fill="#000000"><g id="Group-2"><g id="PanasonicAvionics_Logo" transform="translate(32.000000, 27.000000)"><path d="M24.7976824,13.4550993 C24.7498662,13.7938257 24.6414916,14.0732908 24.4381414,14.3730162 C24.2148241,14.7043983 23.938042,14.9311867 23.5627375,15.0909896 C23.2121293,15.2402825 22.8929168,15.3199306 22.5126206,15.3563991 C22.1806659,15.3879292 21.905066,15.36425 21.5968881,15.2823225 C21.3467727,15.2168565 21.1492025,15.1014996 20.9733073,14.9187773 C20.8211888,14.7640395 20.73265,14.5968922 20.6866729,14.3871984 C20.6178387,14.0537903 20.7263446,13.747607 20.9847359,13.5346209 C21.1589234,13.3930522 21.3269369,13.2973225 21.5407961,13.2218529 C22.0537691,13.0409034 22.5056583,12.9025004 23.0328186,12.7596655 C23.6701925,12.5859337 24.1959078,12.3985262 24.8102932,12.1328634 C24.868093,12.5960638 24.8648089,12.9941781 24.7976824,13.4550993 Z M29.7503354,13.8681556 C29.7210414,12.4903305 29.7052778,11.3149816 29.6937179,9.93804287 C29.6899084,9.18322115 29.6039969,8.55616576 29.4103676,7.8381924 C29.1586758,6.88076796 28.5712199,6.16570701 27.6902987,5.68971727 C27.1577525,5.38999188 26.6560767,5.21322102 26.0602135,5.09039312 C24.1491425,4.69709061 22.4759702,4.66518068 20.5507121,4.98503971 C20.0043728,5.07481804 19.555505,5.19840569 19.05199,5.39936226 C17.8871931,5.87636502 17.0718221,6.7229911 16.6984881,7.89568092 C16.5554336,8.33976073 16.5153678,8.74167386 16.5726422,9.20297491 C16.5818376,9.28844793 16.6045634,9.35961213 16.6429215,9.43672779 L21.0956064,9.5401818 C21.0844405,9.26970718 21.1210908,9.03823358 21.2161977,8.78320742 C21.3608286,8.39484335 21.646412,8.11841727 22.0502223,7.97596224 C22.6583023,7.76715482 23.2288124,7.75740457 23.8307183,7.94785111 C24.2255959,8.07270504 24.5127557,8.34773822 24.6451697,8.73217686 C24.7213604,8.97061493 24.6820828,9.20525419 24.5265488,9.41051606 C24.3888803,9.59083248 24.2255959,9.71252073 24.0126562,9.79153579 C23.8814245,9.84332611 23.7695031,9.88827858 23.6335422,9.92398731 C23.0179746,10.0817642 22.4927847,10.1925625 21.8517326,10.2936106 C21.3543918,10.3724991 20.9358688,10.4468289 20.4411552,10.5425587 C19.7576728,10.6719712 19.1989854,10.8130333 18.5487379,11.0158893 C17.955896,11.2010175 17.4741874,11.4638945 17.0133655,11.8709994 C16.4172396,12.4120752 16.076615,13.036978 15.9612781,13.8100339 C15.885613,14.3399667 15.9051861,14.7887317 16.0236756,15.297771 C16.3314594,16.6341891 17.284499,17.6116206 18.6489679,17.990361 C20.161089,18.4074693 21.5665432,18.3412436 23.0262504,17.7786412 C23.7283864,17.5041145 24.2652676,17.126767 24.7632652,16.5637847 C24.8599485,16.8731337 24.9486186,17.1322119 25.059095,17.4364958 C25.120967,17.6049094 25.2018867,17.736981 25.3236604,17.8706988 L30.2274463,17.8706988 C30.0187103,17.5546386 29.9140139,17.2438966 29.8870844,16.8713609 C29.8127329,15.8123819 29.7727985,14.9292873 29.7503354,13.8681556 Z" id="Fill-1"></path><path d="M54.4994134,13.4550993 C54.4505463,13.7938257 54.3429599,14.0732908 54.150907,14.3730162 C53.9298228,14.7043983 53.6416121,14.9311867 53.2642058,15.0909896 C52.912284,15.2402825 52.5949106,15.3199306 52.2136948,15.3563991 C51.8940883,15.3879292 51.6178316,15.36425 51.2962546,15.2823225 C51.0466647,15.2168565 50.8513277,15.1014996 50.6738561,14.9187773 C50.5217376,14.7640395 50.432542,14.5968922 50.3874844,14.3871984 C50.3181247,14.0537903 50.4261052,13.747607 50.6862042,13.5346209 C50.8596036,13.3930522 51.0278797,13.2973225 51.2414762,13.2218529 C51.7679797,13.0409034 52.2080462,12.9025004 52.7341555,12.7596655 C53.3703472,12.5859337 53.9101183,12.3985262 54.5103165,12.1328634 C54.5695613,12.5960638 54.5658831,12.9941781 54.4994134,13.4550993 Z M59.4510155,13.8681556 C59.4229038,12.4903305 59.4053012,11.3149816 59.3954489,9.93804287 C59.390063,9.18322115 59.3052024,8.55616576 59.1130182,7.8381924 C58.859356,6.88076796 58.2818836,6.16570701 57.3912415,5.68971727 C56.8596149,5.38999188 56.3705499,5.21322102 55.7612877,5.09039312 C53.8634844,4.69709061 52.1758622,4.66518068 50.2517863,4.98503971 C49.7146424,5.07481804 49.2640669,5.19840569 48.7529329,5.39936226 C47.5868223,5.87636502 46.7721081,6.7229911 46.3992996,7.89568092 C46.255851,8.33976073 46.2165734,8.74167386 46.27214,9.20297491 C46.2833059,9.28844793 46.3051122,9.35961213 46.3442584,9.43672779 L50.796812,9.5401818 C50.785252,9.26970718 50.8220337,9.03823358 50.9168779,8.78320742 C51.0633478,8.39484335 51.3487999,8.11841727 51.7641701,7.97596224 C52.3585883,7.76715482 52.9296239,7.75740457 53.530873,7.94785111 C53.9400691,8.07270504 54.2210549,8.34773822 54.3451931,8.73217686 C54.421515,8.97061493 54.3843393,9.20525419 54.2340598,9.41051606 C54.1012517,9.59083248 53.9403319,9.71252073 53.72043,9.79153579 C53.5819732,9.84332611 53.4701832,9.88827858 53.3336969,9.92398731 C52.7194429,10.0817642 52.1935962,10.1925625 51.5627904,10.2936106 C51.0538896,10.3724991 50.636943,10.4468289 50.1410472,10.5425587 C49.4730656,10.6719712 48.8992714,10.8130333 48.2502062,11.0158893 C47.655788,11.2010175 47.1883979,11.4638945 46.7153593,11.8709994 C46.1189706,12.4120752 45.7772951,13.036978 45.6631405,13.8100339 C45.585899,14.3399667 45.6044212,14.7887317 45.7233048,15.297771 C46.0329278,16.6341891 46.99201,17.6116206 48.3508303,17.990361 C49.8615064,18.4074693 51.2665666,18.3412436 52.7266678,17.7786412 C53.4299861,17.5041145 53.979084,17.126767 54.4639453,16.5637847 C54.5606286,16.8731337 54.6494301,17.1322119 54.760826,17.4364958 C54.8203335,17.6049094 54.9025669,17.736981 55.02526,17.8706988 L59.9295714,17.8706988 C59.7196531,17.5546386 59.6142999,17.2438966 59.5885527,16.8713609 C59.5147266,15.8123819 59.4747923,14.9292873 59.4510155,13.8681556 Z" id="Fill-2"></path><path d="M80.4792326,14.8797763 C80.0201185,14.6799593 79.6930242,14.3649121 79.4875723,13.9089294 C79.2942058,13.4984056 79.1825471,13.1306817 79.1133187,12.6868552 C78.9755188,11.7821074 78.9916764,11.0071521 79.1704617,10.1239309 C79.264255,9.65237305 79.4205771,9.27717815 79.6868502,8.88577504 C80.2682634,8.03066497 81.4714184,7.79222691 82.3575941,8.35280328 C82.5894501,8.49893049 82.7611417,8.66227893 82.9157561,8.88577504 C83.1914873,9.27717815 83.3485977,9.65237305 83.4408146,10.1239309 C83.6211762,11.0071521 83.6387788,11.7821074 83.4987457,12.6868552 C83.4295173,13.1306817 83.316151,13.4984056 83.1230471,13.9089294 C82.6640643,14.8824354 81.4916483,15.3118265 80.4792326,14.8797763 Z M86.6597369,6.71552012 C85.5574688,5.69490896 84.3209476,5.09697771 82.7989743,4.86854315 C82.2769372,4.78990798 81.832667,4.75647853 81.3057695,4.75647853 C80.776376,4.75647853 80.3219909,4.78990798 79.8015302,4.86854315 C78.2795569,5.09697771 77.0539388,5.69490896 75.9382717,6.71552012 C74.7588934,7.82033803 74.1128495,9.11471611 73.9596801,10.6984362 C73.8665436,11.6623186 73.9457556,12.5059056 74.222275,13.4391444 C74.6355434,14.8824354 75.4094037,15.9876332 76.6451367,16.9031442 C77.4519691,17.4995559 78.2526274,17.8558835 79.2580809,18.065324 C79.9625814,18.2137305 80.5747336,18.2760308 81.3057695,18.2760308 C82.0268218,18.2760308 82.6363467,18.2137305 83.3547717,18.065324 C84.3448557,17.8558835 85.1516881,17.4995559 85.9654827,16.9031442 C87.1888676,15.9876332 87.977966,14.8824354 88.390709,13.4391444 C88.6593466,12.5059056 88.7363254,11.6623186 88.6455535,10.6984362 C88.4984268,9.11471611 87.8533024,7.82033803 86.6597369,6.71552012 Z" id="Fill-3"></path><path d="M10.7499711,6.64752159 C10.7059644,6.94091564 10.6037639,7.18099985 10.4206437,7.41956454 C10.0773918,7.88035909 9.59620862,8.12905391 9.02070671,8.16020408 C8.58944153,8.18147737 8.23725695,8.19072111 7.82004763,8.19072111 L5.61538008,8.19072111 L5.61538008,4.30935967 L8.9120694,4.30935967 C9.87548665,4.30935967 10.6708905,5.00403372 10.7656033,5.94208427 C10.7902995,6.18925958 10.7863587,6.40148592 10.7499711,6.64752159 Z M15.7048573,3.61063357 C14.6652494,1.47925305 12.6549993,0.168920011 10.2196581,0.0427998228 C9.85722718,0.0230460584 9.5499688,0.0160815902 9.18740653,0.0160815902 L0,0.0160815902 L0,17.8706988 L5.61538008,17.8706988 L5.61538008,12.3775061 L9.01637173,12.3775061 C9.89794975,12.3775061 10.6443551,12.2995041 11.5187081,12.1175415 C14.1312582,11.5551924 15.9939875,9.56031544 16.2843001,6.99751777 C16.4205237,5.78734645 16.2395053,4.71304557 15.7048573,3.61063357 Z" id="Fill-5"></path><path d="M72.4275918,11.1244084 C71.7576398,10.5681373 71.0795433,10.2163683 70.2348783,9.97919655 C70.0501817,9.92879912 69.8938596,9.88447978 69.7074553,9.82167294 C68.6619361,9.54423385 67.7758917,9.36239792 66.7033117,9.21107902 C66.4200927,9.1706851 66.1808805,9.12649239 65.9005515,9.06267253 C65.771947,9.03367502 65.6655429,8.99961244 65.5446888,8.94579609 C65.2483335,8.81739663 65.1143431,8.48234239 65.2505667,8.19641932 C65.2568722,8.18147737 65.2644912,8.16830819 65.2722416,8.15298636 C65.4323733,7.88035909 65.6671192,7.69573737 65.9796321,7.60013421 C66.5271537,7.44678928 67.0352663,7.45894545 67.587911,7.63596957 C68.1053504,7.81932502 68.431131,8.27682727 68.4087993,8.8044807 L73.0750807,8.8044807 C73.0698262,8.25530073 72.9850969,7.79096064 72.7908109,7.26204094 C72.5931093,6.73767979 72.2972796,6.33918559 71.842369,5.99463435 C71.4344865,5.69199655 71.0601015,5.47255249 70.5898215,5.2975544 C70.1301819,5.12597522 69.728342,5.01884904 69.230213,4.93730145 C68.0814424,4.74546201 67.0790102,4.6908859 65.9119801,4.75647853 C65.2450495,4.79497305 64.6732257,4.87284846 64.0211391,5.01998868 C63.1457352,5.21917247 62.4266533,5.55853201 61.7170297,6.09416293 C61.1149924,6.54913265 60.720903,7.08096476 60.4614608,7.79032751 C60.3433653,8.10398183 60.2862224,8.38509309 60.2708529,8.71748816 C60.2458939,9.27185983 60.3311486,9.74708982 60.5506564,10.276516 C60.9380463,11.2022838 61.6194269,11.8594763 62.5808737,12.2407493 C63.0811045,12.4276503 63.5082974,12.5513646 64.0204823,12.6535523 C65.0436698,12.854129 65.9059374,13.0113994 66.925184,13.179433 C67.3116544,13.2405937 67.6295532,13.316823 67.993035,13.4331929 C68.2939879,13.5301889 68.5027239,13.7540649 68.5687996,14.0537903 C68.6403925,14.39277 68.5451542,14.7013592 68.3022638,14.9366316 C68.0545129,15.1787419 67.7752349,15.316765 67.4279107,15.3684287 C66.9505371,15.440226 66.54029,15.4019847 66.0958885,15.2495262 C65.8826861,15.175323 65.7124395,15.0814926 65.5385147,14.9408103 C65.310731,14.7592276 65.1659689,14.5478877 65.0766419,14.2750072 C64.9996631,14.0320105 64.9687928,13.8280149 64.9719455,13.5876775 L60.1235948,13.5876775 L60.1235948,13.8584053 C60.1235948,14.3071703 60.1940054,14.6769203 60.3575525,15.0851648 C60.6054348,15.7003172 60.9389658,16.1766869 61.4384084,16.637608 C62.0914146,17.2246494 62.7784438,17.5938928 63.641631,17.8290386 C65.4353947,18.317691 67.0405208,18.4146871 68.883677,18.1453521 C69.756191,18.016826 70.4627933,17.7944695 71.2349459,17.4091445 C71.5792486,17.2389582 71.8595776,17.0644666 72.1542251,16.8261552 C73.4569533,15.7609714 73.9457556,14.140403 73.4191208,12.5804887 C73.2219447,11.9819244 72.9110081,11.5270813 72.4275918,11.1244084" id="Fill-7"></path><path d="M41.707271,4.89678091 C40.3627693,4.51854697 39.0788259,4.60921168 37.7956708,5.17586614 C37.015111,5.53194041 36.3987552,5.92271039 35.7439099,6.46568565 L35.6273908,5.11381906 L30.8560189,5.11381906 L30.8560189,17.8706988 L35.9544851,17.8706988 L35.9544851,10.7669412 C35.9544851,10.3626222 36.0512997,10.0193372 36.2635825,9.65693161 C36.7718265,8.81967591 37.8239139,8.48386191 38.7646053,8.86285561 C39.1873319,9.03633418 39.4775131,9.34669621 39.6108467,9.77076901 C39.685855,10.0193372 39.7184331,10.2271316 39.7184331,10.4720276 L39.7184331,17.8706988 L44.9813658,17.8706988 L44.9813658,9.63527845 C44.9813658,8.94022452 44.8869157,8.35027075 44.6575557,7.68003566 C44.2005433,6.2951195 43.1626432,5.3037591 41.707271,4.89678091" id="Fill-8"></path><path d="M100.225477,4.89678091 C98.880581,4.51854697 97.59782,4.60921168 96.318343,5.17586614 C95.5344992,5.53194041 94.9191942,5.92271039 94.2656626,6.46568565 L94.152559,5.11381906 L89.3743562,5.11381906 L89.3743562,17.8706988 L94.4726909,17.8706988 L94.4726909,10.7669412 C94.4726909,10.3626222 94.5713447,10.0193372 94.7828393,9.65693161 C95.2917401,8.81967591 96.3482938,8.48386191 97.2829426,8.86285561 C97.706326,9.03633418 97.9974267,9.34669621 98.1304975,9.77076901 C98.204455,10.0193372 98.2391348,10.2271316 98.2391348,10.4720276 L98.2391348,17.8706988 L103.501279,17.8706988 L103.501279,9.63527845 C103.501279,8.94022452 103.405122,8.35027075 103.181016,7.68003566 C102.721639,6.2951195 101.681243,5.3037591 100.225477,4.89678091" id="Fill-9"></path><polygon id="Fill-10" points="104.510017 17.8706988 109.456496 17.8706988 109.456496 5.11381906 104.510017 5.11381906"></polygon><polygon id="Fill-12" points="104.510017 3.39131614 109.456496 3.39131614 109.456496 0.0160815902 104.510017 0.0160815902"></polygon><path d="M124.117542,12.606194 L119.322656,12.606194 C119.306498,12.8783147 119.280226,13.106496 119.229519,13.3741849 C119.161999,13.7548247 119.005545,14.0635406 118.736119,14.3640257 C118.47891,14.6415914 118.171652,14.8027872 117.788334,14.8572367 C117.173818,14.9438494 116.613422,14.7723968 116.161271,14.3614932 C115.763372,13.988451 115.508002,13.5938822 115.359299,13.0899079 C115.011186,11.8820159 115.02984,10.7811234 115.416836,9.58437452 C115.584192,9.08559197 115.89907,8.71128346 116.357658,8.4363769 C117.029975,8.03446377 117.840617,8.07270504 118.468927,8.53387946 C118.954708,8.89084011 119.243312,9.35454706 119.343411,9.94728662 L123.89186,9.94728662 C123.933633,9.18550043 123.786638,8.53831139 123.427754,7.87390112 C123.12286,7.29711653 122.778689,6.8634201 122.266766,6.42997693 C121.475304,5.74302711 120.668603,5.30464549 119.654479,5.05265837 C118.230897,4.6984835 116.950632,4.66720671 115.497887,4.95692859 C112.964154,5.46153597 111.080013,7.17479514 110.408222,9.58437452 C110.110159,10.6506979 110.059321,11.5986253 110.249404,12.6895143 C110.382737,13.4673821 110.61906,14.104441 111.026942,14.8002547 C111.556073,15.680057 112.169802,16.336743 113.021035,16.9593665 C114.055782,17.703045 115.123764,18.1030588 116.42715,18.2285458 C117.397266,18.3264283 118.23024,18.2873006 119.184199,18.1024256 C120.597666,17.8261262 121.723317,17.2273085 122.770413,16.206824 C123.758001,15.206853 124.211466,13.9843989 124.117542,12.606194" id="Fill-13"></path></g></g></g></g></svg> 