<svg xmlns="http://www.w3.org/2000/svg" xmlns:xlink="http://www.w3.org/1999/xlink" viewBox="0 0 189.75 129.8"><defs><style>.cls-1{fill:#002a3a;}.cls-2{fill:url(#linear-gradient);}.cls-3{fill:none;stroke:#012a3a;stroke-miterlimit:10;stroke-width:0.75px;}</style><linearGradient id="linear-gradient" x1="65.37" y1="6.94" x2="65.37" y2="97.64" gradientUnits="userSpaceOnUse"><stop offset="0" stop-color="#fff"/><stop offset="0.2" stop-color="#bcd1dd"/><stop offset="0.41" stop-color="#7aa3bc"/><stop offset="0.61" stop-color="#4580a2"/><stop offset="0.78" stop-color="#20668f"/><stop offset="0.91" stop-color="#085683"/><stop offset="1" stop-color="#00507f"/></linearGradient></defs><title>Asset 15</title><g id="Layer_2" data-name="Layer 2"><g id="Layer_1-2" data-name="Layer 1"><path class="cls-1" d="M.38,114.51H12.82v3.21H5v2.39h7.23v3.06H5v3h8v3.4H.38Z"/><path class="cls-1" d="M18,114.51h4.33L28,122.83v-8.32h4.38v15H28l-5.63-8.25v8.25H18Z"/><path class="cls-1" d="M45.39,124.1V121h7.18v6.41a15,15,0,0,1-3.65,1.91,12.3,12.3,0,0,1-3.76.51,9.22,9.22,0,0,1-4.36-.91,6.24,6.24,0,0,1-2.61-2.72,8.92,8.92,0,0,1-.93-4.14,8.71,8.71,0,0,1,1-4.28,6.57,6.57,0,0,1,3-2.77,9.73,9.73,0,0,1,4.11-.73,11.63,11.63,0,0,1,3.73.45,5,5,0,0,1,2,1.4,6.3,6.3,0,0,1,1.22,2.41l-4.48.8a2.39,2.39,0,0,0-.94-1.3,2.92,2.92,0,0,0-1.68-.45,3,3,0,0,0-2.44,1.06,5.1,5.1,0,0,0-.91,3.35,5.29,5.29,0,0,0,.92,3.49,3.21,3.21,0,0,0,2.56,1.05,4.94,4.94,0,0,0,1.49-.23,8.23,8.23,0,0,0,1.62-.77V124.1Z"/><path class="cls-1" d="M57.9,114.51h4.66v15H57.9Z"/><path class="cls-1" d="M68.32,114.51h4.33l5.66,8.32v-8.32h4.38v15H78.31l-5.62-8.25v8.25H68.32Z"/><path class="cls-1" d="M88.16,114.51h12.45v3.21H92.82v2.39h7.23v3.06H92.82v3h8v3.4H88.16Z"/><path class="cls-1" d="M105.72,114.51h12.45v3.21h-7.79v2.39h7.23v3.06h-7.23v3h8v3.4H105.72Z"/><path class="cls-1" d="M123.35,129.54v-15h7.75a11.13,11.13,0,0,1,3.29.37,3.42,3.42,0,0,1,1.83,1.37,4.1,4.1,0,0,1,.7,2.43,4.22,4.22,0,0,1-.53,2.16,4.14,4.14,0,0,1-1.47,1.47,5.71,5.71,0,0,1-1.63.6,4.82,4.82,0,0,1,1.21.55,4.57,4.57,0,0,1,.74.79,6.53,6.53,0,0,1,.65.94l2.25,4.35h-5.25L130.41,125a3.65,3.65,0,0,0-.84-1.16,2,2,0,0,0-1.14-.35H128v6.1ZM128,120.6h2a7.58,7.58,0,0,0,1.23-.2,1.22,1.22,0,0,0,.75-.48,1.34,1.34,0,0,0,.29-.87,1.39,1.39,0,0,0-.46-1.12,2.78,2.78,0,0,0-1.73-.39h-2Z"/><path class="cls-1" d="M142.21,114.51h4.65v15h-4.65Z"/><path class="cls-1" d="M152.62,114.51H157l5.66,8.32v-8.32H167v15h-4.37L157,121.29v8.25h-4.37Z"/><path class="cls-1" d="M180,124.1V121h7.18v6.41a15,15,0,0,1-3.65,1.91,12.28,12.28,0,0,1-3.75.51,9.27,9.27,0,0,1-4.37-.91,6.3,6.3,0,0,1-2.61-2.72,8.92,8.92,0,0,1-.93-4.14,8.6,8.6,0,0,1,1-4.28,6.5,6.5,0,0,1,3-2.77,9.76,9.76,0,0,1,4.11-.73,11.63,11.63,0,0,1,3.73.45,4.94,4.94,0,0,1,2.05,1.4,6.3,6.3,0,0,1,1.22,2.41l-4.48.8a2.34,2.34,0,0,0-.94-1.3,2.92,2.92,0,0,0-1.68-.45,3,3,0,0,0-2.44,1.06,5.1,5.1,0,0,0-.9,3.35,5.29,5.29,0,0,0,.91,3.49,3.22,3.22,0,0,0,2.56,1.05,4.89,4.89,0,0,0,1.49-.23,8.23,8.23,0,0,0,1.62-.77V124.1Z"/><rect class="cls-2" x="57.1" y="6.94" width="16.54" height="90.7"/><path class="cls-1" d="M94.75,7.13H79.35V97.74H95.13V59h16.35V97.74h17V64.84c0-14.17-2.19-19.77-11.89-22.44L137,7H122.41L100.64,41.17H94.75Z"/><path class="cls-1" d="M146.56,45.45h36.89V58.57H147.23s-.38,9.88,13.31,20,23.67,5.7,23.67,5.7V97.16S156.16,104.58,137.53,74c0,0-12.65-20.06,0-42.6,7.1-12.65,19.84-23,34.69-24.45a73.79,73.79,0,0,1,11.42-.07V20.44C173.75,17.87,151.51,24.53,146.56,45.45Z"/><path class="cls-1" d="M52.11,32.25a30.35,30.35,0,0,0-6-12.36,31.47,31.47,0,0,0-13.77-9.21C24.55,7.89,16.05,7.34,7.83,7.62L6,7.7V97.83H20.4v-26S26.61,70.41,27,70.3a46.4,46.4,0,0,0,13.54-6.37,29.32,29.32,0,0,0,11-14.12A31.32,31.32,0,0,0,52.11,32.25ZM20.75,57.53V21.33s18,3,18,16.42C38.73,55.49,20.75,57.53,20.75,57.53Z"/><rect class="cls-1" x="57.1" y="6.94" width="16.54" height="90.7"/><path class="cls-3" d="M26.14,28.88V50.33s7-3.83,7-11.5C33.09,32.12,26.14,28.88,26.14,28.88Z"/><path class="cls-3" d="M.38,2.63V103.55H26.14V76.34A42.58,42.58,0,0,0,51.67,60l-.12,43.39h49.38V64.72h5.27v38.71H134V78.14s19.05,34.4,55.36,23.49V77.9s-20.85,7.43-34-13.18H188.9V39.91L154.62,40s11.5-19.9,34.64-12.71V1.2s-46-10.07-61.49,40.27l-2.22-2,21.4-38H119.38L100.45,30.92V1.44H51.31v15S34.05-3.48.38,2.63Z"/></g></g></svg>