<svg width="138" height="35" viewBox="0 0 138 35" fill="none" xmlns="http://www.w3.org/2000/svg">
<mask id="mask0_1797_14825" style="mask-type:alpha" maskUnits="userSpaceOnUse" x="0" y="0" width="138" height="35">
<path fill-rule="evenodd" clip-rule="evenodd" d="M0 0H137.475V34.7826H0L0 0Z" fill="white"/>
</mask>
<g mask="url(#mask0_1797_14825)">
<path fill-rule="evenodd" clip-rule="evenodd" d="M134.953 14.2674C134.817 14.4 134.707 14.558 134.631 14.7326V14.7347C134.553 14.9155 134.513 15.1107 134.513 15.3079C134.511 15.5117 134.551 15.7137 134.631 15.9009C134.708 16.0772 134.817 16.2373 134.953 16.3725C135.088 16.5076 135.248 16.6145 135.424 16.6868C135.607 16.7609 135.802 16.7983 135.998 16.7968C136.287 16.7992 136.57 16.7157 136.811 16.5569C137.053 16.398 137.242 16.1708 137.355 15.9041C137.436 15.717 137.476 15.5149 137.473 15.311C137.475 15.1109 137.435 14.9127 137.355 14.7295C137.282 14.5551 137.176 14.397 137.042 14.2642C136.763 13.9905 136.388 13.8381 135.998 13.8399C135.802 13.8394 135.607 13.8779 135.424 13.953C135.249 14.0273 135.089 14.1339 134.953 14.2674ZM134.873 15.8213C134.932 15.9708 135.018 16.1074 135.128 16.2237C135.239 16.3367 135.371 16.4277 135.515 16.4919C135.668 16.5563 135.833 16.5891 135.998 16.5883C136.163 16.5888 136.325 16.5561 136.476 16.4919C136.622 16.4281 136.753 16.336 136.863 16.2209C136.973 16.1058 137.059 15.97 137.116 15.8213C137.179 15.6607 137.21 15.4897 137.209 15.3173C137.21 15.1476 137.179 14.9792 137.116 14.8217C137.057 14.6739 136.97 14.539 136.86 14.4245C136.751 14.3113 136.621 14.2212 136.476 14.1594C136.325 14.0953 136.163 14.0625 135.998 14.063C135.833 14.0623 135.668 14.0951 135.515 14.1594C135.37 14.221 135.238 14.3114 135.127 14.4252C135.017 14.5389 134.931 14.6738 134.873 14.8217C134.811 14.9793 134.779 15.1476 134.78 15.3173C134.779 15.4901 134.811 15.6615 134.873 15.8223V15.8213ZM136.545 14.5838C136.412 14.4906 136.251 14.4465 136.089 14.4591L135.424 14.4602V16.1901H135.694V15.4462H135.977L136.446 16.1901H136.734L136.241 15.4273C136.359 15.417 136.471 15.3718 136.564 15.2974C136.61 15.254 136.645 15.2007 136.668 15.1415C136.69 15.0823 136.699 15.0188 136.693 14.9558C136.698 14.8866 136.688 14.8171 136.662 14.7527C136.636 14.6883 136.596 14.6305 136.545 14.5838ZM136.141 15.2198C136.089 15.2261 136.032 15.2261 135.971 15.2261H135.695V14.675H136.049C136.094 14.6758 136.14 14.6793 136.185 14.6855C136.228 14.6914 136.27 14.7045 136.309 14.7242C136.343 14.7442 136.372 14.7714 136.394 14.8039C136.418 14.8457 136.43 14.8938 136.427 14.9422C136.43 14.9979 136.417 15.0532 136.389 15.1014C136.363 15.1394 136.326 15.1691 136.284 15.1874C136.239 15.2075 136.191 15.2186 136.141 15.2198Z" fill="#4D4D4D"/>
<path d="M61.1506 7.09688H52.3537C52.204 7.09413 52.0588 7.14835 51.9473 7.24864C51.8358 7.34894 51.7663 7.48786 51.7526 7.63756C51.7485 7.71516 51.7601 7.79276 51.7869 7.86576C51.8136 7.93866 51.8548 8.00546 51.908 8.06186C51.9612 8.11836 52.0252 8.16336 52.0963 8.19416C52.1673 8.22496 52.2439 8.24096 52.3213 8.24106H53.7102C53.7933 8.24106 53.8729 8.27426 53.9316 8.33316C53.9903 8.39216 54.0233 8.47206 54.0233 8.55546V26.1894C54.0233 26.2727 53.9903 26.3527 53.9316 26.4116C53.8729 26.4706 53.7933 26.5037 53.7102 26.5037H52.3297C52.197 26.5017 52.0676 26.5455 51.9632 26.6277C51.8588 26.7099 51.7855 26.8255 51.7557 26.9553C51.738 27.0387 51.739 27.125 51.7588 27.208C51.7786 27.2909 51.8166 27.3683 51.87 27.4346C51.9234 27.5009 51.9909 27.5544 52.0675 27.5911C52.1442 27.6278 52.228 27.6469 52.313 27.6469H58.2172C58.3498 27.6487 58.4791 27.6048 58.5835 27.5227C58.6879 27.4405 58.7612 27.325 58.7912 27.1953C58.8089 27.1119 58.8078 27.0256 58.7881 26.9426C58.7683 26.8597 58.7303 26.7823 58.6769 26.716C58.6235 26.6497 58.556 26.5962 58.4793 26.5595C58.4027 26.5228 58.3188 26.5037 58.2339 26.5037H56.8387C56.7557 26.5037 56.6761 26.4706 56.6174 26.4116C56.5586 26.3527 56.5257 26.2727 56.5257 26.1894V8.55546C56.5257 8.47206 56.5586 8.39216 56.6174 8.33316C56.6761 8.27426 56.7557 8.24106 56.8387 8.24106H60.5151C62.8724 8.24106 64.063 10.2142 64.063 12.8023C64.063 15.5445 63.1844 17.593 60.5151 17.593C60.3992 17.593 58.4614 17.5982 58.3456 17.6014C58.1988 17.607 58.0598 17.6693 57.9576 17.7753C57.8555 17.8814 57.7981 18.0229 57.7974 18.1705C57.7968 18.318 57.8529 18.4601 57.954 18.567C58.0552 18.674 58.1936 18.7376 58.3404 18.7446H61.1506C61.909 18.7674 62.6638 18.6301 63.366 18.3415C64.0683 18.0529 64.7023 17.6194 65.2271 17.0691C65.7519 16.5188 66.1558 15.864 66.4126 15.1471C66.6694 14.4301 66.7733 13.667 66.7178 12.9071C66.7727 12.1487 66.668 11.3872 66.4106 10.672C66.1533 9.95676 65.7489 9.30406 65.2238 8.75606C64.6988 8.20806 64.0648 7.77716 63.363 7.49126C62.6612 7.20545 61.9074 7.07106 61.1506 7.09688Z" fill="#4D4D4D"/>
<path d="M85.7424 25.1003C85.0486 25.4499 84.337 25.7626 83.6105 26.0371C82.1997 26.4457 81.4055 25.5498 81.4055 23.9844L81.3951 14.8788C81.3951 14.712 81.3291 14.5521 81.2117 14.4342C81.0943 14.3163 80.9351 14.2501 80.769 14.2501H77.221C77.0708 14.2474 76.9253 14.3021 76.8137 14.403C76.7021 14.5039 76.6329 14.6437 76.6199 14.7939C76.6158 14.8714 76.6275 14.9489 76.6542 15.0216C76.681 15.0944 76.7222 15.1609 76.7755 15.2171C76.8287 15.2733 76.8928 15.318 76.9639 15.3485C77.0349 15.379 77.1114 15.3946 77.1887 15.3943H78.5849C78.6679 15.3943 78.7476 15.4274 78.8063 15.4864C78.865 15.5453 78.898 15.6253 78.898 15.7087V23.3211C78.898 25.9407 78.9094 27.2431 80.7617 27.8027H80.768C81.3806 27.9825 82.0244 28.0288 82.6563 27.9385C83.2882 27.8481 83.8935 27.6232 84.4318 27.2788C85.4012 26.7004 86.3289 26.0832 86.3289 26.0832C86.3992 26.0432 86.4601 25.9886 86.5075 25.9228C86.5548 25.8571 86.5876 25.782 86.6034 25.7024C86.6193 25.6229 86.6178 25.5408 86.5993 25.4619C86.5807 25.383 86.5455 25.309 86.4959 25.2449C86.4569 25.1845 86.4061 25.1327 86.3467 25.0925C86.2872 25.0524 86.2203 25.0247 86.1499 25.0112C86.0795 24.9977 86.0071 24.9986 85.9371 25.0139C85.8671 25.0292 85.8008 25.0586 85.7424 25.1003Z" fill="#4D4D4D"/>
<path d="M91.204 26.5034H90.6823C90.5993 26.5034 90.5196 26.4703 90.4609 26.4113C90.4022 26.3524 90.3692 26.2724 90.3692 26.189V14.8788C90.3692 14.7121 90.3033 14.5521 90.1858 14.4342C90.0684 14.3163 89.9092 14.2501 89.7431 14.2501H86.1878C86.0376 14.2472 85.8919 14.3017 85.7802 14.4027C85.6686 14.5037 85.5994 14.6436 85.5867 14.7939C85.5826 14.8713 85.5943 14.9487 85.621 15.0214C85.6476 15.0941 85.6888 15.1606 85.7419 15.2168C85.795 15.273 85.859 15.3177 85.93 15.3482C86.0009 15.3787 86.0773 15.3944 86.1544 15.3943H87.5517C87.6347 15.3943 87.7144 15.4274 87.7731 15.4864C87.8318 15.5453 87.8648 15.6253 87.8648 15.7087V27.0189C87.8648 27.1857 87.9307 27.3456 88.0481 27.4635C88.1656 27.5814 88.3248 27.6476 88.4909 27.6476H91.2322C91.3097 27.6476 91.3863 27.6317 91.4574 27.6009C91.5286 27.5702 91.5927 27.5252 91.6459 27.4687C91.6991 27.4122 91.7403 27.3454 91.767 27.2724C91.7936 27.1994 91.8052 27.1217 91.8009 27.0441C91.7873 26.8951 91.7183 26.7568 91.6077 26.6566C91.4971 26.5564 91.353 26.5017 91.204 26.5034Z" fill="#4D4D4D"/>
<path d="M74.9303 26.5037H73.5362C73.4532 26.5037 73.3735 26.4706 73.3148 26.4116C73.2561 26.3526 73.2231 26.2727 73.2231 26.1893V7.72555C73.2231 7.55875 73.1572 7.39885 73.0398 7.28096C72.9223 7.16305 72.7631 7.09682 72.597 7.09682H69.0407C68.904 7.09378 68.7706 7.13868 68.6634 7.22379C68.5561 7.3089 68.4818 7.42885 68.4532 7.56315C68.4375 7.64575 68.4402 7.73075 68.4611 7.81225C68.4819 7.89375 68.5205 7.96955 68.5739 8.03425C68.6273 8.09905 68.6944 8.15115 68.7702 8.18695C68.846 8.22265 68.9288 8.24115 69.0125 8.24105H70.4077C70.4907 8.24105 70.5704 8.27415 70.6291 8.33315C70.6878 8.39205 70.7208 8.47205 70.7208 8.55535V26.1893C70.7208 26.2727 70.6878 26.3526 70.6291 26.4116C70.5704 26.4706 70.4907 26.5037 70.4077 26.5037H69.024C68.9473 26.4997 68.8706 26.5113 68.7984 26.5379C68.7263 26.5644 68.6603 26.6053 68.6043 26.6582C68.5483 26.711 68.5036 26.7747 68.4727 26.8453C68.4419 26.9159 68.4256 26.9921 68.4248 27.0693C68.4241 27.1464 68.4388 27.2229 68.4682 27.2941C68.4977 27.3654 68.5411 27.4299 68.596 27.4839C68.6509 27.5378 68.7161 27.5801 68.7877 27.6081C68.8593 27.6361 68.9357 27.6493 69.0125 27.6468H74.9032C75.0397 27.6499 75.173 27.6052 75.2803 27.5203C75.3875 27.4354 75.4619 27.3156 75.4907 27.1816C75.5062 27.0989 75.5034 27.0138 75.4824 26.9324C75.4614 26.8509 75.4227 26.7751 75.3692 26.7104C75.3157 26.6457 75.2486 26.5936 75.1728 26.5578C75.0969 26.5221 75.0141 26.5036 74.9303 26.5037Z" fill="#4D4D4D"/>
<path d="M127.855 18.7459H123.449C123.31 18.7431 123.175 18.7893 123.067 18.8764C122.958 18.9635 122.884 19.086 122.856 19.2226C122.842 19.3047 122.847 19.3887 122.868 19.469C122.89 19.5492 122.929 19.6237 122.983 19.6872C123.037 19.7507 123.103 19.8016 123.179 19.8365C123.254 19.8713 123.336 19.8893 123.419 19.889H130.05C130.132 19.889 130.214 19.8728 130.29 19.8412C130.366 19.8096 130.435 19.7633 130.493 19.7049C130.551 19.6465 130.597 19.5772 130.629 19.5009C130.66 19.4247 130.676 19.3429 130.676 19.2603V18.6819C130.67 15.6579 128.299 13.9248 125.239 13.9248C122.178 13.9248 119.112 16.5203 119.112 20.8205C119.112 21.0301 119.112 21.3246 119.131 21.5289C119.178 22.6217 119.501 23.6846 120.068 24.6185C120.635 25.5524 121.429 26.3268 122.375 26.8694C123.321 27.4121 124.388 27.7054 125.477 27.7219C126.566 27.7385 127.642 27.4777 128.604 26.964C129.171 26.6678 129.706 26.312 130.198 25.9025C130.264 25.8627 130.322 25.81 130.367 25.7477C130.412 25.6854 130.445 25.6146 130.463 25.5395C130.481 25.4644 130.484 25.3865 130.471 25.3103C130.459 25.2341 130.431 25.1611 130.39 25.0957C130.347 25.0287 130.29 24.9715 130.224 24.9277C130.157 24.884 130.082 24.8547 130.003 24.8417C129.925 24.8287 129.844 24.8322 129.767 24.8521C129.69 24.8721 129.618 24.9079 129.556 24.9574C128.6 25.5224 127.523 25.8504 126.416 25.914C123.27 25.914 121.615 23.8959 121.615 20.4653V19.8869C121.612 19.3406 121.677 18.7961 121.808 18.2659C122.316 16.3474 123.639 15.069 125.236 15.069C127.029 15.069 128.083 16.2761 128.158 18.4221C128.161 18.4636 128.154 18.5052 128.14 18.5442C128.126 18.5833 128.104 18.619 128.076 18.6493C128.047 18.6796 128.013 18.7038 127.975 18.7204C127.937 18.737 127.896 18.7456 127.855 18.7459Z" fill="#4D4D4D"/>
<path d="M100.167 27.4526C100.258 27.3595 100.312 27.2361 100.318 27.1058C100.323 27.0284 100.311 26.9508 100.285 26.878C100.258 26.8052 100.217 26.7386 100.164 26.6823C100.11 26.626 100.046 26.5811 99.9753 26.5506C99.9043 26.52 99.8283 26.5042 99.7513 26.5044H98.3533C98.2703 26.5044 98.1911 26.4712 98.1324 26.4123C98.0737 26.3533 98.0407 26.2734 98.0407 26.19V14.8787C98.0407 14.712 97.9747 14.5521 97.8573 14.4342C97.7399 14.3163 97.5806 14.25 97.4145 14.25H94.6753C94.6037 14.2502 94.5328 14.2645 94.4666 14.2919C94.4618 14.2935 94.4567 14.2935 94.452 14.2919C94.393 14.3183 94.3385 14.3536 94.2902 14.3967L94.2746 14.4114C94.2293 14.4561 94.1919 14.5082 94.164 14.5654C94.164 14.5738 94.1556 14.579 94.1535 14.5874C94.1277 14.6469 94.1118 14.7103 94.1066 14.775V14.7886V14.8054V14.8494C94.1196 14.9924 94.184 15.1257 94.2876 15.2246C94.3913 15.3235 94.5272 15.3812 94.6701 15.3869H94.6784H95.219C95.302 15.3869 95.3816 15.42 95.4403 15.479C95.499 15.5379 95.532 15.6179 95.532 15.7013V26.1795C95.532 26.2629 95.499 26.3429 95.4403 26.4018C95.3816 26.4608 95.302 26.4939 95.219 26.4939H94.6753C94.5239 26.4939 94.3787 26.5543 94.2717 26.6618C94.1646 26.7692 94.1045 26.915 94.1045 27.067C94.1045 27.2191 94.1646 27.3648 94.2717 27.4723C94.3787 27.5798 94.5239 27.6402 94.6753 27.6402H99.7423C99.8813 27.64 100.015 27.5881 100.118 27.4946C100.126 27.4885 100.133 27.4819 100.14 27.4747C100.15 27.4681 100.159 27.4607 100.167 27.4526Z" fill="#4D4D4D"/>
<path d="M107.861 26.504H107.32C107.237 26.504 107.157 26.4709 107.099 26.4119C107.04 26.353 107.007 26.273 107.007 26.1897V18.6044C107.007 15.9849 106.903 14.8071 105.143 14.1229C104.53 13.9442 103.886 13.899 103.254 13.9902C102.622 14.0815 102.017 14.3071 101.478 14.652C100.51 15.2315 99.5823 15.8487 99.5823 15.8487C99.5123 15.8886 99.4513 15.9433 99.4043 16.009C99.3563 16.0747 99.3243 16.1498 99.3083 16.2293C99.2923 16.3088 99.2933 16.3908 99.3113 16.4697C99.3303 16.5487 99.3653 16.6228 99.4143 16.6869C99.4523 16.7466 99.5023 16.798 99.5603 16.8379C99.6193 16.8777 99.6843 16.9053 99.7543 16.9189C99.8233 16.9326 99.8943 16.9319 99.9633 16.9171C100.032 16.9022 100.097 16.8735 100.155 16.8326C100.849 16.471 101.566 16.1559 102.302 15.8895C103.724 15.5259 104.507 16.3768 104.507 17.9433V26.2965C104.507 26.3241 104.501 26.3513 104.491 26.3767C104.48 26.4022 104.465 26.4253 104.445 26.4447C104.426 26.4642 104.403 26.4796 104.378 26.4901C104.352 26.5007 104.325 26.5061 104.298 26.5061H103.65C103.498 26.5061 103.353 26.5665 103.246 26.674C103.139 26.7815 103.079 26.9272 103.079 27.0793C103.079 27.2313 103.139 27.3771 103.246 27.4845C103.353 27.592 103.498 27.6524 103.65 27.6524H107.861C107.972 27.6524 108.081 27.6188 108.174 27.556L108.182 27.5476C108.209 27.5303 108.233 27.5103 108.256 27.4879L108.27 27.4711C108.289 27.4504 108.308 27.4283 108.325 27.4051L108.342 27.38C108.356 27.3584 108.368 27.3352 108.377 27.3108C108.382 27.2995 108.386 27.2875 108.389 27.2752C108.396 27.2532 108.404 27.2281 108.41 27.206C108.411 27.1924 108.411 27.1788 108.41 27.1652L108.419 27.1128V27.1013V27.0824C108.421 26.9314 108.363 26.7857 108.259 26.6772C108.154 26.5688 108.011 26.5065 107.861 26.504Z" fill="#4D4D4D"/>
<path d="M116.822 26.5038H116.282C116.199 26.5038 116.119 26.4707 116.06 26.4117C116.002 26.3528 115.969 26.2728 115.969 26.1894V18.6042C115.969 15.9847 115.864 14.8069 114.105 14.1227C113.492 13.9441 112.848 13.899 112.216 13.9902C111.584 14.0815 110.979 14.307 110.441 14.6518C109.472 15.2313 108.544 15.8484 108.544 15.8484C108.474 15.8884 108.413 15.9431 108.366 16.0088C108.318 16.0744 108.285 16.1496 108.27 16.2291C108.254 16.3086 108.255 16.3906 108.273 16.4695C108.292 16.5485 108.327 16.6225 108.376 16.6867C108.416 16.7462 108.468 16.7971 108.528 16.8364C108.588 16.8756 108.655 16.9024 108.725 16.9152C108.795 16.928 108.868 16.9265 108.938 16.9108C109.007 16.8952 109.073 16.8656 109.132 16.824C109.826 16.4743 110.538 16.1616 111.265 15.8872C112.675 15.4796 113.469 16.3745 113.469 17.941V26.1894C113.469 26.2307 113.46 26.2716 113.445 26.3097C113.429 26.3479 113.406 26.3825 113.377 26.4117C113.348 26.4409 113.313 26.4641 113.275 26.4799C113.237 26.4957 113.197 26.5038 113.155 26.5038H112.612C112.505 26.504 112.401 26.5344 112.31 26.5915C112.22 26.6486 112.148 26.73 112.101 26.8265V26.837C112.089 26.8628 112.08 26.8899 112.073 26.9177L112.065 26.9418C112.065 26.9669 112.058 26.9921 112.055 27.0162C112.054 27.0265 112.052 27.0367 112.049 27.0466V27.0581V27.077V27.1105C112.048 27.116 112.048 27.1217 112.049 27.1272C112.061 27.2694 112.126 27.4019 112.23 27.4989C112.334 27.5958 112.471 27.6501 112.613 27.6512H116.821C116.967 27.6511 117.107 27.595 117.212 27.4944C117.318 27.3938 117.381 27.2564 117.389 27.1105C117.39 27.0753 117.388 27.0402 117.381 27.0057C117.366 26.8677 117.3 26.7401 117.197 26.6475C117.094 26.5549 116.961 26.5037 116.822 26.5038Z" fill="#4D4D4D"/>
<path d="M30.243 20.5226C30.4093 20.8144 30.4964 21.1449 30.4955 21.481C30.4945 21.8172 30.4057 22.1472 30.2378 22.438L25.3927 30.8636C24.9865 31.5699 24.4024 32.1564 23.699 32.5644C22.9956 32.9723 22.1978 33.1873 21.3855 33.1877H10.4797C10.286 33.1837 10.0971 33.248 9.94571 33.3694C9.79431 33.4907 9.69011 33.6615 9.65111 33.852C9.63151 33.9668 9.63711 34.0844 9.66751 34.1968C9.69791 34.3092 9.75241 34.4135 9.82711 34.5025C9.90181 34.5915 9.99501 34.6631 10.1002 34.7122C10.2053 34.7612 10.3199 34.7867 10.4358 34.7867H21.3824C22.4745 34.7867 23.5474 34.4982 24.4933 33.9501C25.4392 33.402 26.2248 32.6136 26.7712 31.6642L31.6194 23.2344C31.9247 22.7001 32.0853 22.0948 32.0853 21.4788C32.0853 20.8627 31.9247 20.2575 31.6194 19.7231L27.5903 12.7111C27.5404 12.6231 27.4681 12.55 27.3808 12.4992C27.2936 12.4484 27.1945 12.4217 27.0936 12.4219H25.831C25.806 12.422 25.7815 12.4288 25.7599 12.4414C25.7384 12.454 25.7205 12.4721 25.708 12.4938C25.6956 12.5155 25.689 12.5401 25.689 12.5652C25.6889 12.5903 25.6954 12.6149 25.7078 12.6367L30.243 20.5226Z" fill="#4D4D4D"/>
<path d="M22.3078 28.0608C22.1395 28.3498 21.8993 28.5899 21.6107 28.7576C21.319 28.9256 20.989 29.0151 20.6528 29.0175H10.9657C10.1534 29.0176 9.3553 28.8028 8.6518 28.3948C7.9484 27.9869 7.36439 27.4 6.95858 26.6934L1.50929 17.2095C1.41164 17.0309 1.25203 16.8945 1.06078 16.8263C0.869545 16.7581 0.660015 16.7628 0.472035 16.8396C0.370115 16.8853 0.278865 16.9519 0.204165 17.0352C0.129475 17.1184 0.0730047 17.2165 0.0383847 17.323C0.00377471 17.4296 -0.00820529 17.5422 0.00321471 17.6537C0.0146447 17.7652 0.0492147 17.873 0.104705 17.9702L5.5759 27.4929C6.12232 28.4423 6.90769 29.2309 7.85331 29.7795C8.7989 30.3281 9.8715 30.6174 10.9636 30.6185H20.6621C21.2748 30.6157 21.8761 30.4525 22.4068 30.1451C22.9375 29.8377 23.3792 29.3967 23.6884 28.8655L27.7205 21.8566C27.7703 21.7688 27.7965 21.6695 27.7965 21.5685C27.7965 21.4674 27.7703 21.3681 27.7205 21.2803L27.0892 20.1832C27.0769 20.1612 27.0589 20.1429 27.0372 20.1301C27.0154 20.1174 26.9907 20.1107 26.9656 20.1107C26.9404 20.1107 26.9157 20.1174 26.8939 20.1301C26.8722 20.1429 26.8542 20.1612 26.8419 20.1832L22.3078 28.0608Z" fill="#4D4D4D"/>
<path d="M11.8416 24.9316C11.5069 24.9309 11.1783 24.8416 10.8889 24.6728C10.5977 24.5026 10.3556 24.2592 10.1866 23.9666L5.34465 15.5441C4.93855 14.8377 4.72477 14.0363 4.72477 13.2206C4.72477 12.4049 4.93855 11.6035 5.34465 10.897L10.8012 1.41631C10.9023 1.25021 10.9419 1.05374 10.9133 0.861244C10.8847 0.668754 10.7896 0.492484 10.6447 0.363244C10.5554 0.288874 10.451 0.234954 10.3388 0.205234C10.2266 0.175504 10.1093 0.170704 9.99511 0.191154C9.88081 0.211604 9.77241 0.256804 9.67731 0.323624C9.58231 0.390444 9.50291 0.477264 9.44461 0.578044L3.96615 10.0975C3.4196 11.0472 3.13184 12.1248 3.13184 13.2216C3.13184 14.3185 3.4196 15.396 3.96615 16.3457L8.81021 24.7692C9.11791 25.3023 9.55901 25.7453 10.0899 26.0542C10.6207 26.3632 11.2228 26.5274 11.8364 26.5306H19.8987C19.9993 26.5307 20.0981 26.5042 20.1853 26.4538C20.2725 26.4034 20.3449 26.3309 20.3954 26.2435L21.0319 25.1475C21.0444 25.1256 21.0509 25.1009 21.0508 25.0758C21.0507 25.0506 21.0441 25.0259 21.0315 25.0042C21.0189 24.9824 21.0009 24.9643 20.9791 24.9518C20.9574 24.9393 20.9328 24.9327 20.9078 24.9327L11.8416 24.9316Z" fill="#4D4D4D"/>
<path d="M9.3051 14.2631C9.1388 13.9713 9.0517 13.6408 9.0526 13.3046C9.0535 12.9685 9.1424 12.6385 9.3103 12.3476L14.1544 3.92202C14.5608 3.21573 15.1451 2.6292 15.8487 2.22127C16.5522 1.81335 17.3502 1.59838 18.1625 1.59794H29.0674C29.2596 1.6014 29.4471 1.53813 29.5983 1.41881C29.7494 1.29949 29.855 1.13144 29.897 0.94305C29.9169 0.82826 29.9116 0.7105 29.8815 0.59798C29.8513 0.48546 29.7971 0.3809 29.7226 0.2916C29.6481 0.2023 29.555 0.13041 29.45 0.08095C29.3449 0.03149 29.2304 0.00565 29.1143 0.00524L18.1625 0C17.0705 -3e-05 15.9976 0.28849 15.0517 0.83659C14.1058 1.38469 13.3202 2.17306 12.7738 3.12253L7.93078 11.5481C7.6261 12.0827 7.46582 12.6879 7.46582 13.3038C7.46582 13.9197 7.6261 14.5249 7.93078 15.0594L11.9598 22.0704C12.0098 22.1584 12.0821 22.2316 12.1693 22.2826C12.2565 22.3336 12.3556 22.3605 12.4565 22.3607H13.7192C13.7443 22.3605 13.7689 22.3537 13.7906 22.341C13.8122 22.3283 13.8302 22.3102 13.8428 22.2884C13.8553 22.2666 13.862 22.2419 13.8621 22.2167C13.8622 22.1915 13.8558 22.1667 13.8434 22.1448L9.3051 14.2631Z" fill="#4D4D4D"/>
<path d="M17.2374 6.72488C17.406 6.43511 17.6469 6.19453 17.9364 6.02693C18.226 5.85933 18.5541 5.77051 18.8883 5.76926H28.5753C29.3876 5.76894 30.1856 5.98348 30.8891 6.39129C31.5925 6.7991 32.1766 7.38578 32.5824 8.09226L38.0317 17.5741C38.1295 17.7526 38.2892 17.8887 38.4804 17.9567C38.6717 18.0247 38.8811 18.0198 39.069 17.943C39.1707 17.8972 39.2617 17.8305 39.3362 17.7473C39.4106 17.664 39.4669 17.566 39.5013 17.4596C39.5357 17.3532 39.5475 17.2407 39.536 17.1294C39.5244 17.018 39.4898 16.9104 39.4342 16.8134L33.9672 7.29071C33.4209 6.3411 32.6356 5.55243 31.6899 5.00381C30.7443 4.4552 29.6716 4.16594 28.5795 4.16504H18.8883C18.2755 4.16726 17.6739 4.33017 17.1431 4.63765C16.6123 4.94512 16.1707 5.3865 15.862 5.91806L11.8299 12.9385C11.7801 13.0262 11.7539 13.1253 11.7539 13.2262C11.7539 13.327 11.7801 13.4262 11.8299 13.5138L12.4612 14.6109C12.4735 14.6329 12.4915 14.6512 12.5132 14.664C12.535 14.6767 12.5597 14.6834 12.5848 14.6834C12.61 14.6834 12.6347 14.6767 12.6565 14.664C12.6782 14.6512 12.6962 14.6329 12.7085 14.6109L17.2374 6.72488Z" fill="#4D4D4D"/>
<path d="M27.7072 9.85571C28.042 9.85681 28.3706 9.94641 28.66 10.1156C28.9511 10.2853 29.1932 10.5284 29.3622 10.8207L34.2073 19.2463C34.6134 19.9528 34.8272 20.7542 34.8272 21.5699C34.8272 22.3856 34.6134 23.1869 34.2073 23.8934L28.7507 33.3752C28.6514 33.541 28.6128 33.7365 28.6418 33.9279C28.6707 34.1192 28.7654 34.2944 28.9094 34.423C28.9988 34.4972 29.1033 34.5509 29.2155 34.5804C29.3277 34.61 29.445 34.6146 29.5592 34.5941C29.6733 34.5736 29.7817 34.5283 29.8767 34.4615C29.9717 34.3947 30.0511 34.3079 30.1094 34.2072L35.5848 24.6929C36.1313 23.7432 36.4191 22.6657 36.4191 21.5688C36.4191 20.472 36.1313 19.3944 35.5848 18.4447L30.7376 10.0192C30.4299 9.48611 29.9888 9.04311 29.4579 8.73411C28.9271 8.42521 28.325 8.26091 27.7114 8.25781H19.6491C19.5486 8.25781 19.4498 8.28441 19.3626 8.33471C19.2754 8.38511 19.203 8.45761 19.1524 8.54491L18.5169 9.63981C18.5045 9.66171 18.498 9.68641 18.498 9.71161C18.4981 9.73671 18.5048 9.76141 18.5174 9.78321C18.5299 9.80491 18.548 9.82301 18.5697 9.83551C18.5914 9.84811 18.616 9.85471 18.6411 9.85461L27.7072 9.85571Z" fill="#4D4D4D"/>
</g>
</svg>
