<svg id="Layer_1" data-name="Layer 1" xmlns="http://www.w3.org/2000/svg" width="155" height="34.77" viewBox="0 0 155 34.77"><rect x="39.31" width="37.6" height="34.77" style="fill:#ce202f"/><rect x="78.06" width="37.69" height="34.77" style="fill:#ce202f"/><rect width="38.22" height="34.77" style="fill:#ce202f"/><rect x="116.85" width="38.15" height="34.77" style="fill:#ce202f"/><path d="M3.65,5.91h19.6q6.41,0,9.6,2A6.4,6.4,0,0,1,36,13.63a6.67,6.67,0,0,1-3.48,6Q29.08,21.74,22,21.74H15.49v9.35H3.65ZM15.49,16.64h2.89a10.52,10.52,0,0,0,4.8-.78,2.28,2.28,0,0,0,1.38-2,2.4,2.4,0,0,0-1.2-2c-.8-.55-2.3-.82-4.51-.82H15.49Z" transform="translate(0 -0.61)" style="fill:#fff"/><path d="M41,18.78a11.48,11.48,0,0,1,4.44-9.61q4.45-3.44,12.38-3.43c5.43,0,9.6,1.12,12.54,3.37a11.27,11.27,0,0,1,4.4,9.47,12.62,12.62,0,0,1-1.92,7.24,12.58,12.58,0,0,1-5.56,4.41,23,23,0,0,1-9.06,1.57,26.09,26.09,0,0,1-9.12-1.36,12.9,12.9,0,0,1-5.86-4.3A11.81,11.81,0,0,1,41,18.78Zm10.06.06q0,3.81,1.84,5.48a7.09,7.09,0,0,0,5,1.67,7.18,7.18,0,0,0,5-1.63c1.18-1.09,1.78-3.05,1.78-5.87,0-2.37-.62-4.11-1.86-5.2a7.32,7.32,0,0,0-5-1.65,7,7,0,0,0-4.89,1.67Q51.1,15,51.09,18.84Z" transform="translate(0 -0.61)" style="fill:#fff"/><path d="M80.78,6.18H96.92a26.63,26.63,0,0,1,7.72.92,12.92,12.92,0,0,1,4.86,2.67,10.34,10.34,0,0,1,2.78,4,13.92,13.92,0,0,1,.86,4.88,12.68,12.68,0,0,1-1.28,6.26,11.11,11.11,0,0,1-3.56,3.73,13.4,13.4,0,0,1-4.9,2,34.43,34.43,0,0,1-6.48.69H80.78Zm10.87,5.7V25.65h2.67a15.22,15.22,0,0,0,4.84-.54,4.34,4.34,0,0,0,2.25-1.89,8.74,8.74,0,0,0,.82-4.37c0-2.68-.61-4.5-1.82-5.49s-3.23-1.48-6-1.48Z" transform="translate(0 -0.61)" style="fill:#fff"/><path d="M119.11,23l10.34-.46a4.73,4.73,0,0,0,1.36,2.74,6.89,6.89,0,0,0,4.78,1.52,6.72,6.72,0,0,0,3.58-.79,2.17,2.17,0,0,0,1.25-1.81,2.15,2.15,0,0,0-1.18-1.75c-.8-.52-2.65-1-5.56-1.46-4.77-.77-8.16-1.79-10.2-3.06s-3.07-2.89-3.07-4.86A5.38,5.38,0,0,1,122,9.44a10.46,10.46,0,0,1,4.72-2.72,30.46,30.46,0,0,1,8.65-1q6.75,0,10.29,1.79a7.51,7.51,0,0,1,4.21,5.71l-10.24.43a3.71,3.71,0,0,0-1.72-2.47,7.13,7.13,0,0,0-3.6-.77,5.66,5.66,0,0,0-2.85.57,1.67,1.67,0,0,0-1,1.41,1.33,1.33,0,0,0,.78,1.08,11,11,0,0,0,3.63.92,60,60,0,0,1,10.21,2.23,10.35,10.35,0,0,1,4.49,2.8,5.66,5.66,0,0,1,1.4,3.73,6.51,6.51,0,0,1-1.87,4.47,11.64,11.64,0,0,1-5.23,3.1,28.46,28.46,0,0,1-8.46,1.06q-9,0-12.43-2.47A8.82,8.82,0,0,1,119.11,23Z" transform="translate(0 -0.61)" style="fill:#fff"/><path d="M150.06,2.07a2.7,2.7,0,0,1,1.29.34,2.51,2.51,0,0,1,1,1,2.61,2.61,0,0,1,.35,1.32A2.67,2.67,0,0,1,152.33,6a2.51,2.51,0,0,1-1,1,2.61,2.61,0,0,1-1.3.35,2.64,2.64,0,0,1-1.3-.35,2.49,2.49,0,0,1-1-1,2.68,2.68,0,0,1-.35-1.31,2.72,2.72,0,0,1,.35-1.32,2.51,2.51,0,0,1,1-1A2.73,2.73,0,0,1,150.06,2.07Zm0,.52a2.15,2.15,0,0,0-1,.27,2,2,0,0,0-.77.78A2.14,2.14,0,0,0,148,4.7a2.07,2.07,0,0,0,.28,1,1.87,1.87,0,0,0,.77.78,2.1,2.1,0,0,0,1,.29,2.07,2.07,0,0,0,1-.29,2,2,0,0,0,.78-.78,2.16,2.16,0,0,0,.27-1,2.13,2.13,0,0,0-.28-1.06,2,2,0,0,0-.78-.78A2.11,2.11,0,0,0,150.07,2.59Zm-1.18,3.52V3.32h1.44a1.16,1.16,0,0,1,.44.12.57.57,0,0,1,.25.26.8.8,0,0,1,.11.4.75.75,0,0,1-.2.52.93.93,0,0,1-.55.27.62.62,0,0,1,.2.1,1.52,1.52,0,0,1,.18.21s.09.15.21.34l.33.57h-.7l-.23-.46a2,2,0,0,0-.39-.57A.6.6,0,0,0,149.6,5h-.15V6.11Zm.56-1.59h.23a2.41,2.41,0,0,0,.6,0,.3.3,0,0,0,.18-.13.31.31,0,0,0,.07-.21.37.37,0,0,0-.06-.21.43.43,0,0,0-.19-.13,2.41,2.41,0,0,0-.6,0h-.23Z" transform="translate(0 -0.61)" style="fill:#fff"/></svg>