<svg id="Layer_1" data-name="Layer 1" xmlns="http://www.w3.org/2000/svg" xmlns:xlink="http://www.w3.org/1999/xlink" viewBox="0 0 221 47"><defs><style>.cls-1{fill:none;}.cls-2{fill:#fff;}.cls-3{clip-path:url(#clip-path);}.cls-4{clip-path:url(#clip-path-2);}.cls-5{clip-path:url(#clip-path-3);}</style><clipPath id="clip-path"><path class="cls-1" d="M63.21,439a9.45,9.45,0,0,1,5.94-2.19c3.37,0,6.4,1.93,8.5,5v2H73.9v-2h-.09a8.71,8.71,0,0,0-5.42-2,8.39,8.39,0,0,0-4,1v9.94H60.65V440a14.47,14.47,0,0,0-18,0v8.86H38.9v-8a8.5,8.5,0,0,0-4-1,8.78,8.78,0,0,0-5.48,2h0v7H25.65v-7c2.09-3.07,5.13-5,8.5-5a9.47,9.47,0,0,1,6,2.19,15.46,15.46,0,0,1,23.11,0ZM52.15,427.85c1.94,0,3.5-2.47,3.5-5.5s-1.56-5.5-3.5-5.5-3.5,2.46-3.5,5.5S50.22,427.85,52.15,427.85Zm0,3c-3.59,0-6.5-3.81-6.5-8.5s2.91-8.5,6.5-8.5,6.5,3.8,6.5,8.5S55.74,430.85,52.15,430.85Zm16,1c1.94,0,3.5-2.47,3.5-5.5s-1.56-5.5-3.5-5.5-3.5,2.46-3.5,5.5S66.22,431.85,68.15,431.85Zm0,3c-3.59,0-6.5-3.81-6.5-8.5s2.91-8.5,6.5-8.5,6.5,3.8,6.5,8.5S71.74,434.85,68.15,434.85Zm-33-3c1.94,0,3.5-2.47,3.5-5.5s-1.56-5.5-3.5-5.5-3.5,2.46-3.5,5.5S33.22,431.85,35.15,431.85Zm0,3c-3.59,0-6.5-3.81-6.5-8.5s2.91-8.5,6.5-8.5,6.5,3.8,6.5,8.5S38.74,434.85,35.15,434.85Zm-25.5,31,16,16,4-4-16-16Zm20.6,7.6,2.4-1.6h23.8a6,6,0,0,0,3.88-1.42l9-7.62a20.16,20.16,0,0,0,4-4.53l4-6.32a1.39,1.39,0,0,0,.22-.74,1.37,1.37,0,0,0-1.38-1.37,6.06,6.06,0,0,0-4.27,1.76L68.8,454.7a10,10,0,0,1-2.6,1.87L61.36,459a6,6,0,0,1-5.71,7.86h-16v-4h16a2,2,0,0,0,0-4h-6.8a9.16,9.16,0,0,1-5.7-2,9.1,9.1,0,0,0-5.7-2h-3.3a15.68,15.68,0,0,0-11.09,4.59l-3.41,3.41Zm2.4,2.4,2,2-9,9-21-21,9-9,3,3,4.8-4.32a18.27,18.27,0,0,1,12.2-4.68h3.8a9.1,9.1,0,0,1,5.7,2,9.16,9.16,0,0,0,5.7,2h6.8a6,6,0,0,1,3.93,1.46l4.91-2.8a10,10,0,0,0,2.11-1.61L70,448.49a6.82,6.82,0,0,1,8.14-1.14l1.71.94.16.1a3,3,0,0,1,.9,4.15l-5.68,8.84a19.89,19.89,0,0,1-3.81,4.37L61.34,474.4a6,6,0,0,1-3.91,1.45Z"/></clipPath><clipPath id="clip-path-2"><path class="cls-1" d="M144.26,454l-3.2,3.13,10.39,10.26,23.11-22.87-3.19-3.13-19.92,19.74Zm0-5,7.19,7.13,19.92-19.74,8.19,8.13-28.11,27.87-15.39-15.26Zm-22.2-31.61h4v13h-13v-4h9Zm44,19h-4v-21h-42l-9,9v61h51v-18h4v22h-59v-67l11-11h48Z"/></clipPath><clipPath id="clip-path-3"><path class="cls-1" d="M240.88,435.85h14v11h-14Zm17,0h14v11h-14Zm-51,16h14v11h-14Zm17,0h14v11h-14Zm17,0h14v11h-14Zm17,0h14v11h-14Zm-51,16h14v11h-14Zm17,0h14v11h-14Zm17,0h14v11h-14Zm17,0h14v11h-14Zm-36-54h6v16h-6Zm29,0h6v16h-6Zm-3,7v4h-17v-4Zm12,0h20v66h-81v-66h20v4h-16v58h73v-58h-16Z"/></clipPath></defs><title>PCU</title><path class="cls-2" d="M23.25,46.25a2.79,2.79,0,1,1,0-5.58h.53a17.25,17.25,0,0,0,17.46-17,17.25,17.25,0,0,0-17.46-17,17.25,17.25,0,0,0-17.47,17,16.65,16.65,0,0,0,1.31,6.47h0a2.78,2.78,0,0,1,.22,1.08,2.68,2.68,0,0,1-2.68,2.68,2.57,2.57,0,0,1-2.46-1.63A22.41,22.41,0,0,1,1,23.65,22.78,22.78,0,1,1,23.78,46.26h-.53"/><path class="cls-2" d="M23.14,36.49h-.09a2.71,2.71,0,0,1,.09-5.42h.15l.49,0a7.9,7.9,0,1,0-7.9-7.9V42.72a2.88,2.88,0,0,1-5.75,0V23.2A13.48,13.48,0,0,1,23.78,9.89,13.48,13.48,0,0,1,37.43,23.2,13.47,13.47,0,0,1,23.78,36.5a4.35,4.35,0,0,1-.51,0Z"/><path class="cls-2" d="M60.89,14.4c3.74,0,5.25-1.76,5.25-4.64S64.6,5.13,60.89,5.13h-1.7V14.4ZM56.23,2.54H61c5.25,0,8.15,2.81,8.15,7.22S66.22,17,61,17H59.19v4.52h-3Z"/><path class="cls-2" d="M80.17,15.65a3.43,3.43,0,1,0-6.84,0,3.43,3.43,0,1,0,6.84,0m-9.74,0a6.32,6.32,0,1,1,6.34,6.11,6.13,6.13,0,0,1-6.34-6.11"/><path class="cls-2" d="M84.75,9.79h2.84V21.51H84.75ZM84.3,5.24a1.87,1.87,0,1,1,1.87,1.87A1.85,1.85,0,0,1,84.3,5.24"/><path class="cls-2" d="M90.25,9.79h2.81L93,12a4.22,4.22,0,0,1,4-2.43c2.6,0,4.38,1.84,4.38,5v7H98.53V14.79c0-1.68-.78-2.65-2.42-2.65a2.81,2.81,0,0,0-3,3v6.36H90.25Z"/><path class="cls-2" d="M104.75,17.55V12.16H103V9.79h1.76V3.68h2.82V9.79h3.12v2.37h-3.12v5.45c0,1.34.44,1.73,1.17,1.73a2.11,2.11,0,0,0,1.4-.56l1.33,1.9a4.16,4.16,0,0,1-3,1.11c-2.2,0-3.71-1.11-3.71-4.24"/><path class="cls-2" d="M117.36,12a9.54,9.54,0,0,1,9.74-9.71,8.48,8.48,0,0,1,7.59,3.77L132.43,7.7A6,6,0,0,0,127.1,5c-3.93,0-6.72,3-6.72,7.06s2.79,7.09,6.72,7.09a6.38,6.38,0,0,0,5.61-3L135,17.72a9,9,0,0,1-7.87,4A9.56,9.56,0,0,1,117.36,12"/><path class="cls-2" d="M146.32,15.65a3.43,3.43,0,1,0-6.84,0,3.43,3.43,0,1,0,6.84,0m-9.74,0a6.32,6.32,0,1,1,6.33,6.11,6.12,6.12,0,0,1-6.33-6.11"/><path class="cls-2" d="M151.18,9.79H154l-.05,2a3.82,3.82,0,0,1,3.49-2.26,3.46,3.46,0,0,1,3.43,2.23,4.72,4.72,0,0,1,4-2.23c2.76,0,4.41,1.84,4.41,4.83v7.14h-2.82V14.65c0-1.62-.59-2.51-2.21-2.51s-2.62,1-2.62,2.95v6.42h-2.82V14.65c0-1.62-.56-2.51-2.17-2.51s-2.66,1-2.66,2.95v6.42h-2.81Z"/><path class="cls-2" d="M172.55,12.16h-1.92V9.79h1.92V5.16c0-2.82,1.37-4.16,3.77-4.16a4,4,0,0,1,3.32,1.45L178,4.24a1.67,1.67,0,0,0-1.37-.7c-.73,0-1.23.42-1.23,1.59V9.79h3.16v2.37h-3.16v9.35h-2.82Z"/><path class="cls-2" d="M189,15.65a3.43,3.43,0,1,0-6.84,0,3.43,3.43,0,1,0,6.84,0m-9.74,0a6.32,6.32,0,1,1,6.33,6.11,6.12,6.12,0,0,1-6.33-6.11"/><path class="cls-2" d="M193.6,9.79h2.81l0,2.21a3.54,3.54,0,0,1,3.4-2.43,3.51,3.51,0,0,1,1.93.5l-.95,2.54a3.24,3.24,0,0,0-1.54-.39c-1.67,0-2.82,1-2.82,3.6v5.69H193.6Z"/><path class="cls-2" d="M204.7,17.55V12.16h-1.76V9.79h1.76V3.68h2.82V9.79h3.12v2.37h-3.12v5.45c0,1.34.45,1.73,1.17,1.73a2.11,2.11,0,0,0,1.4-.56l1.34,1.9a4.2,4.2,0,0,1-3,1.11c-2.2,0-3.71-1.11-3.71-4.24"/><path class="cls-2" d="M56.13,39.1V26.72h3V38.93c0,3.09,1.51,4.47,4.29,4.47s4.32-1.38,4.32-4.47V26.72h3V39.1c0,4.63-3.14,7-7.27,7s-7.27-2.33-7.27-7"/><path class="cls-2" d="M73.17,34H76L76,36.21a4.28,4.28,0,0,1,4-2.44c2.61,0,4.4,1.85,4.4,5v7H81.51V39.05c0-1.69-.79-2.67-2.44-2.67a2.82,2.82,0,0,0-3.06,3v6.4H73.17Z"/><path class="cls-2" d="M96.3,39.89a3.32,3.32,0,0,0-3.43-3.6,3.27,3.27,0,0,0-3.34,3.6c0,2.22,1.29,3.68,3.34,3.68a3.35,3.35,0,0,0,3.43-3.68m-9.69,0c0-3.57,2.47-6.12,5.48-6.12a4.4,4.4,0,0,1,4.1,2.3V25.54h2.86V45.81H96.19l.08-2.13a4.41,4.41,0,0,1-4.13,2.38c-3.06,0-5.53-2.61-5.53-6.17"/><path class="cls-2" d="M110.92,38.91a3,3,0,0,0-3.2-2.78,3.25,3.25,0,0,0-3.43,2.78ZM108,43.68a4.75,4.75,0,0,0,3.34-1.27L113,44.16a6.63,6.63,0,0,1-5,1.9c-4,0-6.66-2.61-6.66-6.14a6.11,6.11,0,0,1,6.29-6.15c4,0,6.29,3,6.09,7.1h-9.49A3.42,3.42,0,0,0,108,43.68"/><path class="cls-2" d="M116,34h2.83l0,2.22a3.72,3.72,0,0,1,5.36-1.94l-1,2.56a3.16,3.16,0,0,0-1.54-.4c-1.69,0-2.84,1-2.84,3.62v5.73H116Z"/><path class="cls-2" d="M125.23,34h3.14l1.88,4.83c.34.9.71,2.22.71,2.22a13.55,13.55,0,0,1,.81-2.22l2.53-5.05h.28l2.61,5.27a18.62,18.62,0,0,1,.84,2.22s.37-1.35.7-2.22l1.94-5h2.84l-5.17,12.07H138l-2.92-5.72a10.54,10.54,0,0,1-.67-2,13,13,0,0,1-.73,2l-3,5.72h-.31Z"/><path class="cls-2" d="M145.15,34H148l0,2.22a3.59,3.59,0,0,1,3.43-2.44,3.54,3.54,0,0,1,1.94.5l-1,2.56a3.16,3.16,0,0,0-1.54-.4c-1.69,0-2.84,1-2.84,3.62v5.73h-2.83Z"/><path class="cls-2" d="M155,34h2.86V45.81H155Zm-.45-4.58a1.88,1.88,0,1,1,1.88,1.89,1.86,1.86,0,0,1-1.88-1.89"/><path class="cls-2" d="M161.48,41.83V36.41h-1.77V34h1.77V27.87h2.83V34h3.15v2.39h-3.15v5.47c0,1.35.45,1.74,1.18,1.74a2.09,2.09,0,0,0,1.4-.56L168.24,45a4.17,4.17,0,0,1-3,1.12c-2.22,0-3.73-1.12-3.73-4.26"/><path class="cls-2" d="M178.31,38.91a3,3,0,0,0-3.2-2.78,3.23,3.23,0,0,0-3.42,2.78Zm-2.89,4.77a4.75,4.75,0,0,0,3.34-1.27l1.66,1.75a6.63,6.63,0,0,1-5,1.9c-4,0-6.66-2.61-6.66-6.14a6.12,6.12,0,0,1,6.29-6.15c4,0,6.29,3,6.1,7.1h-9.49c.33,1.71,1.57,2.81,3.73,2.81"/><path class="cls-2" d="M183.43,34h2.84l0,2.22a3.72,3.72,0,0,1,5.36-1.94l-1,2.56a3.1,3.1,0,0,0-1.54-.4c-1.68,0-2.83,1-2.83,3.62v5.73h-2.84Z"/><path class="cls-2" d="M191.93,43.62l1.93-1.35A3.66,3.66,0,0,0,197,43.79c1.43,0,2.07-.48,2.07-1.26,0-1-.87-1.1-2.86-1.66-1.74-.48-3.48-1.29-3.48-3.62s1.88-3.48,4.21-3.48a5.33,5.33,0,0,1,4.1,1.77l-1.66,1.63A3.16,3.16,0,0,0,197,36c-1.07,0-1.66.4-1.66,1.1,0,.9.73,1.09,2.59,1.57s3.87,1.21,3.87,3.71c0,2-1.23,3.67-4.58,3.67a6,6,0,0,1-5.27-2.44"/><path class="cls-2" d="M216.35,1.45a3.69,3.69,0,0,1,1.87.5,3.75,3.75,0,0,1,1.37,1.37,3.72,3.72,0,0,1,0,3.76,3.75,3.75,0,0,1-1.37,1.37,3.77,3.77,0,0,1-3.75,0,3.91,3.91,0,0,1-1.37-1.37,3.72,3.72,0,0,1,0-3.76A3.91,3.91,0,0,1,214.47,2,3.73,3.73,0,0,1,216.35,1.45Zm0,6.78a3,3,0,0,0,1.51-.41A3,3,0,0,0,219,6.71a2.92,2.92,0,0,0,.4-1.51,2.94,2.94,0,0,0-.4-1.51,3,3,0,0,0-1.11-1.11,3,3,0,0,0-1.51-.41,3,3,0,0,0-2.62,1.52,3,3,0,0,0,0,3,3,3,0,0,0,2.62,1.52ZM218,7a.15.15,0,0,1,0,.18.18.18,0,0,1-.16.09h-.65a.16.16,0,0,1-.15-.09l-.73-1.36h-.48V7.08a.18.18,0,0,1-.06.13.17.17,0,0,1-.12,0h-.59a.27.27,0,0,1-.13,0,.18.18,0,0,1-.06-.13V3.32a.18.18,0,0,1,.06-.13.27.27,0,0,1,.13,0h1.19a1.76,1.76,0,0,1,1.17.33,1.23,1.23,0,0,1,.38,1,1.35,1.35,0,0,1-.17.66,1.16,1.16,0,0,1-.44.44l.38.67Zm-1.65-2a.48.48,0,0,0,.37-.13.53.53,0,0,0,.12-.37.49.49,0,0,0-.12-.36.75.75,0,0,0-.47-.11h-.41V5Z"/></svg>