<?xml version="1.0" encoding="utf-8"?>
<!-- Generator: Adobe Illustrator 24.0.1, SVG Export Plug-In . SVG Version: 6.00 Build 0)  -->
<svg version="1.1" id="Layer_1" xmlns="http://www.w3.org/2000/svg" xmlns:xlink="http://www.w3.org/1999/xlink" x="0px" y="0px"
	 viewBox="0 0 683 101" style="enable-background:new 0 0 683 101;" xml:space="preserve">
<style type="text/css">
	.st0{fill:#FFFFFF;}
</style>
<g>
	<path class="st0" d="M328.2,39.1L324,60.7c-4.9,25.7-14.8,30.6-36.6,30.6c-22.3,0-29.7-4.3-24.6-30.6l4.1-21.6
		c4.8-24.9,13.2-29.3,36.1-29.3C323.8,9.9,333.1,13.4,328.2,39.1z M280.8,39.1l-4.1,21.6c-3,15.9-0.5,17.4,13.3,17.4
		c12.6,0,17.3-1.9,20.2-17.4l4.1-21.6c3.2-15.1-1.5-16.1-13.8-16.1C285.6,23,283.5,26.4,280.8,39.1z"/>
	<path class="st0" d="M344.8,77.5h33.7l-2.5,13.1h-47.5l15.3-80.1h13.8L344.8,77.5z"/>
	<path class="st0" d="M435.7,37.3l0.8-4.4c1.8-9.3-1.4-9.9-13.5-9.9c-13.9,0-16.8,2.6-19.8,18.3L399.9,59c-3,16-1.8,19.1,12.7,19.1
		c11.2,0,16.2-0.4,18.4-11.9l0.8-4.4h13.8l-1,5.2c-4.3,24.2-16.6,23.3-34.6,24.2c-25.6,1.1-28.3-8.2-24.1-31.6l3.5-18.4
		c4.9-25.6,14.9-31.4,36.2-31.4c18,0,28.3,0.1,24.8,23.1l-0.8,4.4H435.7z"/>
	<path class="st0" d="M518.2,39.1l-4.1,21.6c-4.9,25.7-14.8,30.6-36.6,30.6c-22.3,0-29.7-4.3-24.6-30.6l4.1-21.6
		c4.7-24.9,13.2-29.3,36.1-29.3C513.8,9.9,523.1,13.4,518.2,39.1z M470.8,39.1l-4.1,21.6c-3,15.9-0.5,17.4,13.3,17.4
		c12.6,0,17.3-1.9,20.2-17.4l4.1-21.6c3.2-15.1-1.5-16.1-13.9-16.1C475.6,23,473.5,26.4,470.8,39.1z"/>
	<path class="st0" d="M536.9,64.1l-5.1,26.5h-13.9l15.3-80.1h36.8c15.7,0.4,20.7,5.9,17.2,24c-2.3,11.9-4.5,20.5-17.1,22.5l-0.1,0.4
		c9.6,1,10.9,6.8,8.7,18.2l-2.9,15h-13.8l2.9-15c1.3-6.7-0.3-11.4-6.9-11.5H536.9z M557.6,51c10.2,0,13.1-2.2,15.4-14
		c2.2-11.3,0.7-13.4-9.2-13.4h-19.3L539.4,51H557.6z"/>
	<path class="st0" d="M602.2,10.5h31.9c19.3,0,24.7,5.1,20.4,27.6c-4.3,22.6-11.9,26.6-30.8,26.6h-18.1l-5,26h-13.8L602.2,10.5z
		 M626.3,51.5c9.9-0.2,12.3-2.2,14.4-13.5c2.2-11.3,1.3-14.5-9.1-14.4h-18.1l-5.3,27.9H626.3z"/>
	<path class="st0" d="M139.3,10.5h31.9c19.3,0,24.7,5.1,20.4,27.6c-4.3,22.6-11.9,26.6-30.8,26.6h-18.1l-5,26H124L139.3,10.5z
		 M163.4,51.5c9.9-0.2,12.3-2.2,14.4-13.5c2.2-11.3,1.3-14.5-9.1-14.4h-18.1l-5.3,27.9H163.4z"/>
	<path class="st0" d="M259.4,39.1l-4.1,21.6c-4.9,25.7-14.8,30.6-36.6,30.6c-22.3,0-29.7-4.3-24.6-30.6l4.1-21.6
		c4.8-24.9,13.2-29.3,36.1-29.3C255,9.9,264.3,13.4,259.4,39.1z M212,39.1l-4.1,21.6c-3,15.9-0.5,17.4,13.3,17.4
		c12.6,0,17.3-1.9,20.3-17.4l4.1-21.6C248.7,24.1,244,23,231.7,23C216.8,23,214.7,26.4,212,39.1z"/>
	<path class="st0" d="M124,10.7H22.8L18.3,33c2.8-0.4,5.6-0.5,8.6-0.3C44.2,34,53.8,48.8,72.3,47c16.6-1.8,29.4-12.5,46.4-12.5"/>
	<path class="st0" d="M113.6,63.1c-9.4,3.3-18.4,8-28.9,9.1c-18.4,1.8-28.1-12.9-45.3-14.1c-10-0.7-18.4,2.2-26.6,6.6L8,91h100.5"/>
	<path class="st0" d="M117,42.1c-14.4,2-26.3,11.8-41.1,13.6c-18.4,2-27.7-14.7-44.9-16c-5.2-0.4-10,0.3-14.5,1.7l-2.8,14.4
		c8.4-5.1,17.2-6.7,26.6-4.4C59.1,56,67.1,66.3,85.5,64.3c10.6-1.3,19.7-6.6,29.2-10.4L117,42.1z"/>
	<g>
		<path class="st0" d="M661.2,16.5c0-3.8,3.1-6.9,6.9-6.9c3.8,0,6.9,3.1,6.9,6.9c0,3.8-3.1,6.9-6.9,6.9
			C664.3,23.4,661.2,20.3,661.2,16.5z M673.4,16.5c0-2.9-2.4-5.3-5.3-5.3c-3,0-5.3,2.4-5.3,5.3c0,2.9,2.3,5.3,5.3,5.3
			C671,21.8,673.4,19.4,673.4,16.5z M671.5,20.3h-1.8l-1.7-3h-1.4v3h-1.6v-7.4h3.7c1.7,0,2.9,0.3,2.9,2.3c0,1.4-0.7,1.9-2,2
			L671.5,20.3z M668.9,16c0.8,0,1.3-0.2,1.3-1.1c0-0.9-0.9-0.9-1.7-0.9h-1.8v2H668.9z"/>
	</g>
</g>
</svg>
