<?xml version="1.0" encoding="UTF-8"?>
<svg width="200px" height="80px" viewBox="0 0 200 80" version="1.1" xmlns="http://www.w3.org/2000/svg" xmlns:xlink="http://www.w3.org/1999/xlink">
    <!-- Generator: Sketch 57.1 (83088) - https://sketch.com -->
    <title>Atoms / Logos / Wordmark</title>
    <desc>Created with Sketch.</desc>
    <g id="Atoms-/-Logos-/-Wordmark" stroke="none" stroke-width="1" fill="none" fill-rule="evenodd">
        <polygon id="Outline-Color" fill="#FFFF00" points="86.6876538 0.557318182 86.6876538 4.81413636 194.871708 4.81413636 194.871708 75.3332273 5.8771754 75.3332273 5.8771754 60.7773182 1.61384966 60.7773182 1.61384966 74.5036818 1.61384966 74.7645909 1.61384966 79.5900455 199.100866 79.5900455 199.100866 5.77959091 199.100866 0.579590909 194.267608 0.557318182"></polygon>
        <path d="M79.0838724,39.4494091 L79.0838724,49.4889545 C79.0838724,54.0344091 75.8105239,55.3803182 72.050615,55.3803182 C70.9011845,55.3803182 69.7731663,55.2921364 68.9768109,55.1153182 L68.9768109,50.9453182 C69.4633713,51.0116818 69.994123,51.0553182 70.481139,51.0553182 C72.050615,51.0553182 73.4442369,50.5921364 73.4442369,48.4080455 L73.4442369,39.4494091 L79.0838724,39.4494091 Z M6.86013667,39.4495 L13.295672,46.7531364 C13.8268793,47.4367727 14.2911162,48.0104091 14.622779,48.6949545 L14.7334852,48.6949545 L14.7334852,39.4495 L19.8414579,39.4495 L19.8414579,55.1154091 L14.3134396,55.1154091 L7.5904328,47.8122273 C7.21457859,47.3490455 6.46241458,46.3781364 6.24100228,45.8263182 L6.13075171,45.8263182 L6.13075171,55.1154091 L1,55.1154091 L1,39.4495 L6.86013667,39.4495 Z M54.0283371,39.4495 L60.4638724,46.7531364 C60.9946241,47.4367727 61.4593166,48.0104091 61.7909795,48.6949545 L61.9016856,48.6949545 L61.9016856,39.4495 L67.0096583,39.4495 L67.0096583,55.1154091 L61.4816401,55.1154091 L54.7586333,47.8122273 C54.382779,47.3490455 53.630615,46.3781364 53.4092027,45.8263182 L53.2989522,45.8263182 L53.2989522,55.1154091 L48.1682005,55.1154091 L48.1682005,39.4495 L54.0283371,39.4495 Z M27.5589066,39.4494545 L31.2299772,45.1644545 C31.6500228,45.7380909 31.7384055,45.9367273 31.8044647,46.1130909 L31.8491116,46.1130909 C31.9156264,45.9367273 32.0040091,45.7380909 32.4240547,45.1644545 L36.2942141,39.4494545 L42.1989977,39.4494545 L34.569385,49.9521818 L34.569385,55.1153636 L28.9078815,55.1153636 L28.9078815,49.9521818 L21.2782688,39.4494545 L27.5589066,39.4494545 Z M95.0897494,19.3026818 C101.591344,19.3026818 105.727107,22.5463182 105.727107,27.6876818 C105.727107,32.8290455 101.591344,36.0722273 95.0897494,36.0722273 C88.5658314,36.0722273 84.4300683,32.8290455 84.4300683,27.6876818 C84.4300683,22.5463182 88.5658314,19.3026818 95.0897494,19.3026818 Z M27.7308884,19.8543182 L27.7308884,27.9302273 C27.7308884,30.2693182 28.9919362,31.7252273 31.5349886,31.7252273 C33.9231435,31.7252273 35.3163098,30.2470455 35.3163098,27.9302273 L35.3163098,19.8543182 L40.9778132,19.8543182 L40.9778132,28.6138636 C40.9778132,33.1593182 37.6384055,36.0720455 31.5349886,36.0720455 C25.4311162,36.0720455 22.069385,33.1156818 22.069385,28.5479545 L22.069385,19.8543182 L27.7308884,19.8543182 Z M153.824009,19.8544545 L153.824009,24.1571818 L147.764328,24.1571818 L147.764328,35.5203636 L142.125148,35.5203636 L142.125148,24.1571818 L136.08779,24.1571818 L136.08779,19.8544545 L153.824009,19.8544545 Z M61.123508,19.8544545 L61.123508,24.1571818 L55.0638269,24.1571818 L55.0638269,35.5203636 L49.4246469,35.5203636 L49.4246469,24.1571818 L43.3872893,24.1571818 L43.3872893,19.8544545 L61.123508,19.8544545 Z M69.1502506,19.8544545 L69.1502506,25.7458182 L76.7133485,25.7458182 L76.7133485,19.8544545 L82.3525285,19.8544545 L82.3525285,35.5203636 L76.7133485,35.5203636 L76.7133485,29.4967273 L69.1502506,29.4967273 L69.1502506,35.5203636 L63.4892027,35.5203636 L63.4892027,19.8544545 L69.1502506,19.8544545 Z M134.142369,19.8545455 L134.142369,35.5204545 L128.480866,35.5204545 L128.480866,19.8545455 L134.142369,19.8545455 Z M160.877449,19.8545455 L164.548519,25.5690909 C164.968565,26.1431818 165.056948,26.3418182 165.123462,26.5181818 L165.167654,26.5181818 C165.234624,26.3418182 165.322551,26.1431818 165.743052,25.5690909 L169.612756,19.8545455 L175.51754,19.8545455 L167.887927,30.3572727 L167.887927,35.5204545 L162.226424,35.5204545 L162.226424,30.3572727 L154.596811,19.8545455 L160.877449,19.8545455 Z M14.6400911,19.8543182 L21.9375854,35.5202273 L15.8788155,35.5202273 L14.6624146,32.5420455 L7.29840547,32.5420455 L6.08154897,35.5202273 L4.29878355e-13,35.5202273 L7.29840547,19.8543182 L14.6400911,19.8543182 Z M118.795353,19.8542727 C124.213576,19.8542727 125.783508,22.4583636 125.783508,24.9956364 C125.783508,26.7606364 124.965285,28.7688182 122.511071,29.7392727 L126.314715,35.5201818 L120.078724,35.5201818 L116.760729,30.4015455 L113.465968,30.4015455 L113.465968,35.5201818 L107.804465,35.5201818 L107.804465,19.8542727 L118.795353,19.8542727 Z M95.0897494,23.3849545 C92.2587699,23.3849545 90.4013667,25.1058636 90.4013667,27.6876818 C90.4013667,30.2690455 92.2587699,31.9681364 95.0897494,31.9681364 C97.9207289,31.9681364 99.7562642,30.2690455 99.7562642,27.6876818 C99.7562642,25.1058636 97.9207289,23.3849545 95.0897494,23.3849545 Z M11.0132118,23.0538636 L10.946697,23.0538636 C10.7480638,24.0688636 10.3940774,24.9511364 9.77448747,26.4297727 L8.66879271,29.1438636 L13.2911162,29.1438636 L12.1854214,26.4297727 C11.5439636,24.9511364 11.1904328,24.0688636 11.0132118,23.0538636 Z M117.468702,23.4510909 L113.465968,23.4510909 L113.465968,27.0256364 L117.446378,27.0256364 C119.260046,27.0256364 119.812665,26.187 119.812665,25.1942727 C119.812665,24.2456364 119.238178,23.4510909 117.468702,23.4510909 Z M31.6447836,0.000272727273 C38.1463781,0.000272727273 42.2821412,3.24345455 42.2821412,8.38481818 C42.2821412,13.5261818 38.1463781,16.7693636 31.6447836,16.7693636 C25.1213212,16.7693636 20.9855581,13.5261818 20.9855581,8.38481818 C20.9855581,3.24345455 25.1213212,0.000272727273 31.6447836,0.000272727273 Z M12.6275626,0.5515 C17.0066059,0.5515 19.5933941,2.53740909 19.5933941,5.91331818 C19.5933941,9.42195455 16.9177677,11.6501364 12.7387244,11.6501364 L7.27585421,11.6501364 L7.27585421,16.2178636 L1.61480638,16.2178636 L1.61480638,0.5515 L12.6275626,0.5515 Z M55.3507973,0.551863636 C60.7690205,0.551863636 62.3389522,3.1555 62.3389522,5.69277273 C62.3389522,7.45777273 61.5207289,9.46595455 59.0660592,10.4368636 L62.8697039,16.2177727 L56.633713,16.2177727 L53.3157175,11.0986818 L50.0209567,11.0986818 L50.0209567,16.2177727 L44.3594533,16.2177727 L44.3594533,0.551863636 L55.3507973,0.551863636 Z M81.0476082,0.551590909 L81.0476082,4.85431818 L74.9879271,4.85431818 L74.9879271,16.2179545 L69.3487472,16.2179545 L69.3487472,4.85431818 L63.3109339,4.85431818 L63.3109339,0.551590909 L81.0476082,0.551590909 Z M31.6447836,4.08209091 C28.8142597,4.08209091 26.9568565,5.80345455 26.9568565,8.38481818 C26.9568565,10.9666364 28.8142597,12.6652727 31.6447836,12.6652727 C34.4757631,12.6652727 36.3112984,10.9666364 36.3112984,8.38481818 C36.3112984,5.80345455 34.4757631,4.08209091 31.6447836,4.08209091 Z M11.190205,4.14877273 L7.27585421,4.14877273 L7.27585421,8.05377273 L11.1678815,8.05377273 C12.7387244,8.05377273 13.6225513,7.36968182 13.6225513,6.09013636 C13.6225513,4.81013636 12.7820046,4.14877273 11.190205,4.14877273 Z M54.0236902,4.14868182 L50.0209567,4.14868182 L50.0209567,7.72277273 L54.0018223,7.72277273 C55.8150342,7.72277273 56.3681093,6.88459091 56.3681093,5.89186364 C56.3681093,4.94277273 55.7931663,4.14868182 54.0236902,4.14868182 Z" id="Wordmark-Color" fill="#FFFFFF"></path>
    </g>
</svg>