<svg width="160" height="39" viewBox="0 0 160 39" fill="none" xmlns="http://www.w3.org/2000/svg">
<g clip-path="url(#clip0)">
<path d="M51.8711 32.644H49.7754V31.9418H54.7474V32.644H52.6457V38.8679H51.8711V32.644Z" fill="#023D74"/>
<path d="M59.1367 31.9418H59.9174V34.9427H63.4542V31.9418H64.2289V38.8679H63.4542V35.6629H59.9174V38.8679H59.1367V31.9418Z" fill="#023D74"/>
<path d="M69.3086 31.9418H73.2118V32.644H70.0772V34.9667H73.1217V35.6629H70.0772V38.1717H73.2118V38.8679H69.3086V31.9418Z" fill="#023D74"/>
<path d="M79.9792 35.903H78.6281V38.8679H77.8535V31.9418H79.9973C81.8468 31.9418 82.3992 32.9261 82.3992 33.8323C82.4218 34.2999 82.2743 34.7599 81.984 35.1272C81.6937 35.4946 81.2802 35.7446 80.8199 35.831L82.6634 38.8679H81.7147L79.9792 35.903ZM80.0093 35.2008C80.922 35.2008 81.5405 34.7746 81.5405 33.9404C81.5405 32.9201 80.7659 32.644 79.9612 32.644H78.6281V35.2008H80.0093Z" fill="#023D74"/>
<path d="M89.2799 31.9418H90.0726L92.6787 38.8679H91.802L91.1114 36.9173H88.2411L87.5445 38.8679H86.6738L89.2799 31.9418ZM89.6823 32.9201L88.5113 36.2151H90.8712L89.6823 32.9201Z" fill="#023D74"/>
<path d="M97.0688 31.9418H99.2726C100.69 31.9418 101.542 32.746 101.542 34.0784C101.542 35.4108 100.546 36.2031 99.1405 36.2031H97.8254V38.8679H97.0508L97.0688 31.9418ZM99.0444 35.4949C99.9271 35.4949 100.708 35.1227 100.708 34.0724C100.708 33.0221 100.047 32.644 99.1044 32.644H97.8434V35.5009L99.0444 35.4949Z" fill="#023D74"/>
<path d="M106.082 31.9418H109.985V32.644H106.851V34.9667H109.895V35.6629H106.851V38.1717H109.985V38.8679H106.082V31.9418Z" fill="#023D74"/>
<path d="M114.561 31.9418H115.347V36.4552C115.314 36.6986 115.337 36.9462 115.414 37.1797C115.49 37.4132 115.618 37.6264 115.788 37.8035C115.959 37.9806 116.167 38.117 116.397 38.2026C116.627 38.2882 116.874 38.3207 117.119 38.2977C118.079 38.2977 118.884 37.6975 118.884 36.2991V31.9418H119.659V36.3111C119.659 38.1117 118.524 38.9999 117.119 38.9999C115.425 38.9999 114.579 38.0156 114.579 36.5992L114.561 31.9418Z" fill="#023D74"/>
<path d="M126.157 32.644H124.049V31.9418H129.027V32.644H126.925V38.8679H126.157V32.644Z" fill="#023D74"/>
<path d="M133.453 31.9418H134.228V38.8679H133.453V31.9418Z" fill="#023D74"/>
<path d="M144.921 34.1926C144.804 33.6842 144.508 33.2351 144.087 32.9275C143.665 32.6199 143.147 32.4745 142.627 32.518C140.7 32.518 139.937 34.0065 139.937 35.4049C139.937 36.8033 140.604 38.2978 142.627 38.2978C143.184 38.3208 143.729 38.1384 144.16 37.7853C144.591 37.4323 144.877 36.9332 144.963 36.3832L145.75 36.4732C145.621 37.2155 145.222 37.884 144.631 38.3504C144.039 38.8167 143.295 39.0481 142.543 39C140.532 39 139.102 37.6256 139.102 35.3989C139.083 34.9276 139.161 34.4573 139.331 34.017C139.5 33.5768 139.758 33.1757 140.088 32.8385C140.418 32.5013 140.813 32.2351 141.25 32.0561C141.687 31.8772 142.155 31.7893 142.627 31.7978C144.837 31.7978 145.51 33.1662 145.702 34.1265L144.921 34.1926Z" fill="#023D74"/>
<path d="M154.265 33.7484C154.229 33.1842 153.803 32.518 152.692 32.518C151.581 32.518 151.131 33.1182 151.131 33.8024C151.131 34.2646 151.407 34.6967 152.68 34.9428C154.422 35.2849 155.196 35.711 155.196 36.9174C155.196 37.9557 154.464 39 152.668 39C151.101 39 150.266 38.2258 150.164 36.9534H150.945C151.089 37.8657 151.701 38.2978 152.71 38.2978C153.911 38.2978 154.373 37.6076 154.373 36.9954C154.373 36.2332 153.947 35.9991 152.722 35.741C151.131 35.4049 150.356 34.9668 150.356 33.8024C150.356 32.6381 151.287 31.8098 152.686 31.8098C154.391 31.8098 154.914 32.7461 155.058 33.7484H154.265Z" fill="#023D74"/>
<path d="M51.0954 10.5032C51.0954 6.34395 51.0954 5.59371 51.0413 4.73545C50.9873 3.87719 50.7771 3.40304 49.8884 3.21698C49.5893 3.16267 49.2857 3.13655 48.9817 3.13896C48.8796 3.13896 48.7715 3.08494 48.7715 2.98291C48.7715 2.88088 48.9036 2.76685 49.1978 2.76685C50.3988 2.76685 52.0021 2.84486 52.2003 2.84486C52.8008 2.84486 54.332 2.76685 55.563 2.76685C58.9017 2.76685 60.1027 3.88319 60.529 4.28531C61.3682 5.13154 61.8479 6.269 61.8681 7.46029C61.8681 11.2535 59.0879 13.8102 55.2628 13.8102C55.0768 13.8222 54.8903 13.8222 54.7043 13.8102C54.5722 13.8102 54.4101 13.7562 54.4101 13.6242C54.4101 13.4921 54.5722 13.3841 55.1307 13.3841C55.7216 13.409 56.3115 13.3155 56.8657 13.1089C57.4199 12.9024 57.9271 12.5871 58.3574 12.1816C58.7878 11.776 59.1326 11.2885 59.3715 10.7477C59.6103 10.207 59.7385 9.62383 59.7484 9.03277C59.795 8.28096 59.6911 7.52742 59.4426 6.8163C59.1941 6.10518 58.806 5.45079 58.3012 4.8915C57.825 4.41918 57.252 4.05553 56.6218 3.82553C55.9916 3.59553 55.319 3.50463 54.6503 3.55908C54.2599 3.54519 53.87 3.59796 53.4973 3.71513C53.3352 3.76915 53.2812 3.96121 53.2812 4.22529V15.1967C53.2812 17.7595 53.2812 19.8661 53.4193 20.9885C53.4973 21.7627 53.6595 22.3509 54.4581 22.4589C54.8304 22.5069 55.4189 22.5609 55.6591 22.5609C55.8993 22.5609 55.8753 22.645 55.8753 22.723C55.8753 22.801 55.7431 22.933 55.4429 22.933C53.9777 22.933 52.2963 22.855 52.1642 22.855C52.0321 22.855 50.3988 22.933 49.6002 22.933C49.3059 22.933 49.1738 22.879 49.1738 22.723C49.1738 22.5669 49.2279 22.5609 49.384 22.5609C49.6547 22.5506 49.9239 22.5165 50.1886 22.4589C50.7171 22.3509 50.8552 21.7627 50.9633 20.9885C51.0954 19.8661 51.0954 17.7595 51.0954 15.1967V10.5032Z" fill="#023D74"/>
<path d="M71.8179 10.5032C71.8179 6.34395 71.8179 5.59371 71.7638 4.73545C71.7098 3.87719 71.4996 3.40304 70.6169 3.21698C70.3177 3.16292 70.0142 3.13679 69.7102 3.13896C69.6021 3.13896 69.5 3.08494 69.5 2.98291C69.5 2.88088 69.6321 2.76685 69.9264 2.76685C71.1273 2.76685 72.8027 2.84486 72.9288 2.84486C73.223 2.84486 75.2527 2.76685 76.0814 2.76685C77.7627 2.76685 79.5522 2.92289 80.9633 3.9372C81.5257 4.36341 81.9838 4.91171 82.3031 5.54073C82.6225 6.16975 82.7947 6.86306 82.8068 7.56832C82.8068 9.54293 81.9781 11.5235 79.5762 13.7322C81.768 16.5351 83.5814 18.9118 85.1307 20.5623C86.5719 22.0868 87.7188 22.3629 88.3914 22.4889C88.735 22.5424 89.0824 22.5685 89.4302 22.5669C89.5623 22.5669 89.6704 22.651 89.6704 22.729C89.6704 22.807 89.5143 22.9391 89.0279 22.9391H87.1243C85.6291 22.9391 84.9626 22.807 84.266 22.4349C83.1191 21.8347 82.1823 20.5143 80.6631 18.5157C79.5402 17.0452 78.2611 15.2567 77.7507 14.5605C77.7088 14.5092 77.6555 14.4684 77.595 14.4413C77.5346 14.4142 77.4686 14.4016 77.4024 14.4044L74.1178 14.3444C73.9856 14.3444 73.9316 14.4284 73.9316 14.5605V15.2027C73.9316 17.7655 73.9316 19.8721 74.0637 20.9945C74.1478 21.7687 74.3039 22.3569 75.1026 22.4649C75.4809 22.5129 76.0693 22.5669 76.3035 22.5669C76.5377 22.5669 76.5197 22.651 76.5197 22.729C76.5197 22.807 76.3876 22.9391 76.0934 22.9391C74.6222 22.9391 72.9408 22.861 72.8087 22.861C72.8087 22.861 71.0973 22.9391 70.2987 22.9391C70.0044 22.9391 69.8723 22.885 69.8723 22.729C69.8723 22.5729 69.9263 22.5669 70.0825 22.5669C70.3532 22.557 70.6225 22.5228 70.8871 22.4649C71.4216 22.3569 71.5537 21.7687 71.6618 20.9945C71.7939 19.8721 71.7939 17.7655 71.7939 15.2027L71.8179 10.5032ZM73.9556 12.8259C73.9538 12.8911 73.9702 12.9554 74.0031 13.0116C74.036 13.0679 74.0841 13.1137 74.1418 13.144C75.0395 13.4689 75.9921 13.6157 76.9461 13.5762C77.649 13.6138 78.3468 13.4358 78.9457 13.066C79.8824 12.4238 80.579 10.9834 80.579 8.95475C80.579 5.62372 78.8136 3.61911 75.9613 3.61911C75.3569 3.60476 74.7527 3.65708 74.1598 3.77515C74.0935 3.79846 74.0365 3.84267 73.9976 3.90112C73.9586 3.95958 73.9396 4.02911 73.9436 4.09925L73.9556 12.8259Z" fill="#023D74"/>
<path d="M99.9328 15.2027C99.9328 17.7655 99.9328 19.8721 100.071 20.9945C100.143 21.7687 100.305 22.3569 101.11 22.4649C101.482 22.5129 102.071 22.5669 102.311 22.5669C102.551 22.5669 102.527 22.651 102.527 22.729C102.527 22.807 102.395 22.9391 102.101 22.9391C100.629 22.9391 98.954 22.861 98.8159 22.861C98.6778 22.861 97.0144 22.9391 96.1978 22.9391C95.9095 22.9391 95.7714 22.885 95.7714 22.729C95.7714 22.5729 95.8255 22.5669 95.9876 22.5669C96.2563 22.5566 96.5236 22.5225 96.7862 22.4649C97.3207 22.3569 97.4528 21.7687 97.5609 20.9945C97.693 19.8721 97.693 17.7655 97.693 15.2027V10.5032C97.693 6.34395 97.693 5.59371 97.6389 4.73545C97.5849 3.87719 97.3207 3.37903 96.7322 3.24699C96.4636 3.17643 96.1872 3.14013 95.9095 3.13896C95.8014 3.13896 95.6934 3.08494 95.6934 2.98291C95.6934 2.88088 95.8255 2.76685 96.1257 2.76685C97.0024 2.76685 98.6838 2.84486 98.8159 2.84486C98.948 2.84486 100.617 2.76685 101.434 2.76685C101.728 2.76685 101.86 2.82086 101.86 2.98291C101.86 3.14496 101.752 3.13896 101.644 3.13896C101.42 3.14576 101.197 3.17187 100.978 3.21698C100.257 3.35503 100.041 3.81717 99.9928 4.73545C99.9448 5.65373 99.9388 6.34395 99.9388 10.5032L99.9328 15.2027Z" fill="#023D74"/>
<path d="M133.866 19.5C133.974 20.4603 134.16 21.9487 135.313 22.3268C135.876 22.4949 136.462 22.5758 137.049 22.5669C137.181 22.5669 137.259 22.5669 137.259 22.699C137.259 22.831 137.019 22.939 136.701 22.939C136.1 22.939 133.23 22.861 132.239 22.777C131.638 22.729 131.494 22.6509 131.494 22.5129C131.494 22.3749 131.542 22.3569 131.674 22.3268C131.807 22.2968 131.837 21.8467 131.783 21.3665L130.504 7.59232H130.425L123.886 21.4686C123.322 22.6689 123.238 22.885 123.003 22.885C122.769 22.885 122.679 22.6209 122.175 21.6846C121.478 20.3762 119.172 15.7608 119.046 15.4907C118.812 15.0106 115.816 8.60663 115.527 7.88641H115.413L114.35 20.2742C114.35 20.6943 114.35 21.1805 114.35 21.6306C114.351 21.8274 114.421 22.0177 114.547 22.1689C114.673 22.3201 114.847 22.4226 115.041 22.4589C115.376 22.5393 115.718 22.5836 116.062 22.5909C116.164 22.5909 116.272 22.6449 116.272 22.723C116.272 22.909 116.11 22.963 115.792 22.963C114.801 22.963 113.516 22.885 113.306 22.885C113.095 22.885 111.78 22.963 111.066 22.963C110.802 22.963 110.609 22.909 110.609 22.723C110.609 22.6449 110.741 22.5909 110.874 22.5909C111.144 22.5957 111.414 22.5695 111.678 22.5129C112.555 22.3509 112.639 21.3125 112.747 20.2982L114.669 2.89287C114.669 2.59878 114.801 2.41272 114.963 2.41272C115.125 2.41272 115.233 2.52075 115.359 2.81484L123.532 19.62L131.38 2.86286C131.494 2.61678 131.596 2.43072 131.783 2.43072C131.969 2.43072 132.053 2.64679 132.107 3.15695L133.866 19.5Z" fill="#023D74"/>
<path d="M145.252 10.5032C145.252 6.34395 145.252 5.59372 145.192 4.73545C145.132 3.87719 144.928 3.40304 144.045 3.21699C143.746 3.16268 143.442 3.13655 143.138 3.13896C143.036 3.13896 142.922 3.08495 142.922 2.98291C142.922 2.88088 143.06 2.76685 143.354 2.76685C143.955 2.76685 144.687 2.76685 145.27 2.76685L146.375 2.82086C146.549 2.82086 151.875 2.82086 152.488 2.82086C152.873 2.80487 153.256 2.75872 153.635 2.68282C153.773 2.68282 153.875 2.55078 154.007 2.55078C154.139 2.55078 154.115 2.65881 154.115 2.79085C154.115 2.92289 153.983 3.295 153.899 4.04524C153.899 4.31532 153.821 5.48568 153.773 5.80378C153.737 5.94182 153.689 6.10387 153.581 6.10387C153.472 6.10387 153.37 5.96582 153.37 5.74976C153.371 5.42478 153.316 5.10209 153.208 4.79547C153.016 4.36934 152.752 4.04524 151.317 3.88319C150.854 3.83518 147.948 3.80517 147.654 3.80517C147.54 3.80517 147.492 3.88319 147.492 4.07525V11.4395C147.492 11.6256 147.492 11.7036 147.654 11.7036C148.002 11.7036 151.287 11.7036 151.905 11.6556C152.524 11.6076 152.914 11.5475 153.154 11.2775C153.394 11.0074 153.448 10.9294 153.557 10.9294C153.665 10.9294 153.689 10.9834 153.689 11.1454C153.689 11.3075 153.556 11.7456 153.472 12.6399C153.418 13.174 153.37 14.1583 153.37 14.3444C153.37 14.5305 153.37 14.8546 153.178 14.8546C152.986 14.8546 152.992 14.7465 152.992 14.6145C153.005 14.3164 152.969 14.0183 152.884 13.7322C152.782 13.3601 152.542 12.904 151.497 12.8019C150.782 12.7239 148.134 12.6699 147.678 12.6699C147.653 12.666 147.628 12.6679 147.604 12.6755C147.58 12.683 147.558 12.6961 147.54 12.7135C147.522 12.731 147.508 12.7524 147.5 12.7761C147.491 12.7997 147.488 12.825 147.492 12.8499V15.2027C147.492 16.1089 147.492 19.2059 147.492 19.7701C147.57 21.6066 147.972 21.9487 150.59 21.9487C151.455 21.9955 152.321 21.8982 153.154 21.6607C153.851 21.3666 154.169 20.8324 154.355 19.7341C154.409 19.446 154.469 19.3379 154.595 19.3379C154.721 19.3379 154.757 19.554 154.757 19.7341C154.757 19.9141 154.541 21.7687 154.409 22.3269C154.217 23.0231 154.007 23.0231 152.968 23.0231C150.968 23.0231 149.497 22.9691 148.458 22.9391C147.42 22.909 146.777 22.861 146.375 22.861C146.315 22.861 145.864 22.861 145.3 22.861C144.735 22.861 144.159 22.915 143.757 22.915C143.462 22.915 143.324 22.861 143.324 22.705C143.324 22.5489 143.384 22.5429 143.534 22.5429C143.807 22.5326 144.078 22.4985 144.345 22.4409C144.879 22.3329 145.012 21.7447 145.12 20.9704C145.252 19.8481 145.252 17.7415 145.252 15.1787V10.5032Z" fill="#023D74"/>
<path d="M20.0503 4.12883C20.9675 4.12564 21.8485 4.48608 22.5003 5.13114C25.9094 4.05947 29.4116 3.30996 32.9608 2.89245C28.9756 0.930383 24.5824 -0.0609409 20.1404 -0.000439803C9.01332 -0.000439803 0 5.66531 0 12.6695C0 15.9525 1.98761 18.9474 5.25427 21.1981C5.03169 20.6955 4.91909 20.1512 4.924 19.6016C4.924 16.0665 8.9893 11.151 16.5735 7.47786C16.6061 6.57823 16.9868 5.72638 17.6353 5.10169C18.2839 4.47701 19.1496 4.12824 20.0503 4.12883Z" fill="#023D74"/>
<path d="M34.6181 3.85913C30.7749 4.33138 27.0123 5.31645 23.431 6.78803C23.4984 7.05912 23.5346 7.33699 23.5391 7.61628C23.5391 8.31201 23.3305 8.99177 22.9403 9.56787C22.55 10.144 21.996 10.59 21.3497 10.8484C20.7035 11.1068 19.9945 11.1657 19.3144 11.0175C18.6343 10.8693 18.0143 10.5208 17.5342 10.017C9.43363 15.7788 8.62897 23.4672 15.8348 25.0216C17.2531 25.2978 18.6955 25.4305 20.1403 25.4178C31.2794 25.4058 40.2867 19.662 40.2867 12.6938C40.2867 9.24279 38.1189 6.13983 34.6181 3.85913Z" fill="#023D74"/>
<path d="M158.415 31.1016C158.728 31.1016 159.033 31.1941 159.293 31.3676C159.552 31.541 159.755 31.7876 159.874 32.076C159.994 32.3644 160.025 32.6818 159.964 32.988C159.903 33.2942 159.753 33.5755 159.532 33.7962C159.311 34.017 159.03 34.1673 158.723 34.2282C158.417 34.2891 158.099 34.2579 157.811 34.1384C157.522 34.0189 157.276 33.8166 157.102 33.557C156.929 33.2974 156.836 32.9922 156.836 32.6801C156.836 32.2614 157.002 31.8599 157.299 31.5639C157.595 31.2679 157.996 31.1016 158.415 31.1016ZM158.415 31.3116C158.144 31.3116 157.88 31.3919 157.655 31.5423C157.429 31.6926 157.254 31.9063 157.15 32.1564C157.047 32.4064 157.02 32.6816 157.072 32.947C157.125 33.2125 157.256 33.4563 157.447 33.6477C157.639 33.839 157.883 33.9694 158.148 34.0222C158.414 34.075 158.689 34.0479 158.939 33.9443C159.189 33.8407 159.403 33.6653 159.554 33.4403C159.704 33.2153 159.784 32.9507 159.784 32.6801C159.792 32.4978 159.762 32.3159 159.696 32.1458C159.63 31.9757 159.529 31.8211 159.401 31.6915C159.272 31.562 159.119 31.4603 158.949 31.3929C158.779 31.3254 158.598 31.2937 158.415 31.2996V31.3116ZM158.415 32.8121H158.031V33.6103H157.791V31.7438H158.529C158.968 31.7438 159.172 31.9178 159.172 32.2659C159.175 32.3337 159.165 32.4015 159.142 32.4654C159.119 32.5292 159.083 32.5879 159.038 32.6381C158.992 32.6883 158.937 32.7289 158.875 32.7578C158.814 32.7866 158.747 32.803 158.679 32.8061L159.208 33.6103H158.926L158.415 32.8121ZM158.415 32.602C158.733 32.602 158.914 32.548 158.914 32.2839C158.914 32.0198 158.751 31.9478 158.493 31.9478H158.007V32.602H158.415Z" fill="#023D74"/>
</g>
<defs>
<clipPath id="clip0">
<rect width="160" height="39" fill="white"/>
</clipPath>
</defs>
</svg>
