<svg width="260" height="32" viewBox="0 0 260 32" fill="none" xmlns="http://www.w3.org/2000/svg">
<path d="M252.633 6.47811H255.667V7.09091H254.497V10.1549H253.76V7.09091H252.633V6.47811ZM259.913 6.47811H259.307L258.18 8.66667L257.053 6.47811H256.273V10.1549H256.923V7.52862L257.877 9.367H258.397L259.35 7.52862V10.1987H260V6.52189H259.913V6.47811ZM95.8533 6.47811H99.3633V25.3872H96.0267V22.7609C95.2467 24.2929 93.6867 25.3872 91.13 25.3872H88.92C84.89 25.3872 83.2867 23.1549 83.2867 19.8721V6.47811H86.7967V19.4781C86.7967 21.229 87.49 22.1919 89.57 22.1919H92.43C94.5967 22.1919 95.8533 21.229 95.8533 18.9529V6.47811ZM147.81 11.9933V17.2896H134.81V19.4781C134.81 21.229 135.46 22.1919 137.583 22.1919H141.57C143.65 22.1919 144.343 21.229 144.343 19.4781V19.2155H147.767V19.8721C147.767 23.1549 145.687 25.3872 141.96 25.3872H137.193C133.467 25.3872 131.343 23.1549 131.343 19.8721V11.9933C131.343 8.71044 133.423 6.47811 137.193 6.47811H141.96C145.73 6.47811 147.81 8.71044 147.81 11.9933ZM144.387 12.3872C144.387 10.6364 143.737 9.6734 141.613 9.6734H137.627C135.547 9.6734 134.853 10.6364 134.853 12.3872V14.4444H144.387V12.3872ZM229.493 11.9933V25.3872H225.983V12.3872C225.983 10.6364 225.333 9.6734 223.21 9.6734H220.35C218.183 9.6734 216.927 10.6364 216.927 12.9125V25.3872H213.417V1.3569H216.927V9.14815C217.707 7.61616 219.267 6.52189 221.823 6.52189H223.86C227.89 6.47811 229.493 8.71044 229.493 11.9933ZM184.167 7.04714V19.697C184.167 23.3737 181.697 25.3872 177.797 25.3872H167.267C163.367 25.3872 160.897 23.33 160.897 19.697V7.04714C160.897 3.37037 163.367 1.3569 167.267 1.3569H177.84C181.697 1.3569 184.167 3.37037 184.167 7.04714ZM180.57 7.79125C180.57 5.69024 179.573 4.6835 177.45 4.6835H167.7C165.577 4.6835 164.58 5.64646 164.58 7.79125V18.9091C164.58 21.0101 165.577 22.0168 167.7 22.0168H177.45C179.573 22.0168 180.57 21.0539 180.57 18.9091C180.57 18.9091 180.57 7.83502 180.57 7.79125ZM123.847 1.3569H127.357V25.3872H124.323V22.0168C123.717 23.899 122.07 25.3872 119.123 25.3872H116.523C112.493 25.3872 110.89 23.1549 110.89 19.8721V11.9933C110.89 8.71044 112.493 6.47811 116.523 6.47811H118.907C121.463 6.47811 123.023 7.57239 123.803 9.10438L123.847 1.3569ZM123.847 12.9125C123.847 10.5926 122.59 9.6734 120.423 9.6734H117.173C115.093 9.6734 114.4 10.6364 114.4 12.3872V19.4781C114.4 21.229 115.05 22.1919 117.173 22.1919H120.423C122.59 22.1919 123.847 21.229 123.847 18.9529V12.9125ZM196.603 6.47811H197.47V9.62963H195.173C193.007 9.62963 191.75 10.5926 191.75 12.8687V25.3872H188.24V6.47811H191.533V9.45455C192.27 7.74748 193.873 6.47811 196.603 6.47811ZM205.357 6.47811H209.907V9.62963H205.443V19.4343C205.443 21.1852 206.093 22.1481 208.217 22.1481H209.907V25.3872H207.567C203.537 25.3872 201.933 23.1549 201.933 19.8721V9.6734H199.68V6.52189H200.46C201.803 6.52189 202.063 5.82155 202.063 4.72727V1.3569H205.357V6.47811ZM249.947 11.9933V19.8721C249.947 23.1549 247.953 25.3872 244.227 25.3872H239.373C235.647 25.3872 233.523 23.1549 233.523 19.8721V11.9933C233.523 8.71044 235.603 6.47811 239.373 6.47811H244.227C247.953 6.47811 249.947 8.71044 249.947 11.9933ZM246.437 12.3872C246.437 10.6364 245.787 9.6734 243.663 9.6734H239.807C237.727 9.6734 237.033 10.6364 237.033 12.3872V19.4781C237.033 21.229 237.683 22.1919 239.807 22.1919H243.663C245.743 22.1919 246.437 21.229 246.437 19.4781V12.3872ZM103.307 1.3569H106.99V4.63973H103.307V1.3569ZM103.393 6.47811H106.903V25.3872H103.393V6.47811ZM157.083 22.1919H158.123V25.3872H156.607C153.313 25.3872 151.84 23.7677 151.84 21.0976V1.3569H155.35V20.7475C155.35 21.9293 156.173 22.2357 157.083 22.1919ZM79.1267 7.04714V19.8283C79.1267 23.1111 76.7867 25.2559 73.5367 25.3434V26.3939C73.5367 27.5758 74.1433 28.1886 75.4867 28.1886H78.8667V31.5152H75.4C71.76 31.5152 69.8533 29.6768 69.8533 26.7003V25.3872H62.1833C58.2833 25.3872 55.8133 23.33 55.8133 19.697V7.04714C55.8133 3.37037 58.2833 1.3569 62.1833 1.3569H72.8C76.6567 1.3569 79.1267 3.37037 79.1267 7.04714ZM75.53 7.83502C75.53 5.73401 74.5333 4.72727 72.41 4.72727H62.7033C60.58 4.72727 59.5833 5.69024 59.5833 7.83502V18.9529C59.5833 21.0539 60.58 22.0606 62.7033 22.0606H72.3667C74.49 22.0606 75.4867 21.0976 75.4867 18.9529V7.83502H75.53ZM37.4833 18.1212H24.1367C22.88 18.1212 21.84 17.0707 21.84 15.8013V2.31987C21.84 1.05051 22.88 0 24.1367 0H37.4833C38.74 0 39.78 1.05051 39.78 2.31987V15.8013C39.78 17.0707 38.74 18.1212 37.4833 18.1212ZM25.22 21.9731H19.8467C18.8067 21.9731 17.94 21.0976 17.94 20.0471V7.04714C17.94 5.82155 16.9867 4.85859 15.7733 4.85859H2.16667C0.953333 4.85859 0 5.82155 0 7.04714V20.7912C0 22.0168 0.953333 22.9798 2.16667 22.9798H15.1667C16.2067 22.9798 17.0733 23.8552 17.0733 24.9057V30.202C17.0733 30.8586 17.5933 31.4276 18.2867 31.4276H25.2633C25.9133 31.4276 26.4767 30.9024 26.4767 30.202V23.1549C26.39 22.4983 25.87 21.9731 25.22 21.9731Z" fill="#774DEF"/>
</svg>
