<?xml version="1.0" encoding="UTF-8"?>
<svg xmlns="http://www.w3.org/2000/svg" width="241" height="57" viewBox="0 0 241 57" fill="none">
  <g clip-path="url(#clip0_500_1230)">
    <path d="M144.542 0H143.879V56.8338H144.542V0Z" fill="#A5AEB7"></path>
    <path d="M82.6411 0.765869C85.6902 3.53023 87.5315 6.90343 88.0618 10.4976H104.314V55.8321H115.077V10.4976H132.036V0.765869H82.6362H82.6411Z" fill="#495B6C"></path>
    <path d="M0 55.7928V0.765869H23.961C35.7599 0.765869 43.4048 7.90017 43.4048 18.447C43.4048 25.4634 39.6045 31.218 33.2852 33.9775L45.5653 55.8321H33.7222L22.6402 35.7991H10.8414V55.7879H0V55.7928ZM10.8414 26.3129H23.2835C29.2443 26.3129 32.3229 22.6254 32.3229 18.447C32.3229 13.8659 29.2443 10.257 23.2835 10.257H10.8414V26.3129Z" fill="#495B6C"></path>
    <path d="M99.9588 55.8322C88.6411 44.431 75.8406 31.5127 65.2153 19.6893C63.3986 17.6663 61.4689 15.1475 62.1318 12.5108C62.6031 10.6401 64.3708 9.27998 66.2611 8.88717C69.7767 8.15557 73.636 10.7628 74.2694 14.298C77.186 13.3897 80.1075 12.4862 83.024 11.5779C83.1664 11.5337 81.6198 8.54838 81.4577 8.29306C80.7949 7.2423 80.0093 6.27502 79.1206 5.41086C77.3578 3.69725 75.0403 2.4992 72.7179 1.71359C69.6687 0.682477 66.3348 0.456614 63.2022 1.24222C58.5916 2.39608 54.5359 5.79384 52.8763 10.2473C51.2167 14.7007 52.1398 20.0821 55.405 23.5339C48.9237 25.7876 44.0481 32.0872 43.4932 38.9318C43.4932 38.9661 43.4883 38.9956 43.4834 39.03C43.2526 42.084 43.8468 45.2265 45.3689 47.8779C48.4769 53.2838 55.2528 55.9795 61.4346 55.1595C67.6163 54.3395 73.1106 50.4458 76.8717 45.4769C79.7048 48.3542 84.173 52.8665 87.1043 55.8371H99.9539L99.9588 55.8322ZM70.1892 39.2215C68.6867 40.8663 67.0762 42.4081 65.343 43.7976C63.8159 45.0251 62.1121 46.1741 60.1727 46.4491C58.3805 46.7044 56.4901 46.1495 55.1153 44.9711C53.7405 43.7927 52.9107 42.0104 52.8862 40.1986C52.8567 37.8368 54.0695 35.5242 55.8813 34.007C58.0368 32.2001 61.8519 30.2459 61.8519 30.2459C61.8519 30.2459 70.469 38.9121 70.4445 38.9367C70.361 39.03 70.2776 39.1233 70.1892 39.2166V39.2215Z" fill="#F68B36"></path>
    <path d="M76.7637 24.6189H90.3056V38.3965L76.7637 24.6189Z" fill="#F68B36"></path>
    <path d="M137.594 6.1818C137.157 6.1818 136.755 6.10815 136.386 5.96575C136.018 5.81845 135.704 5.62205 135.439 5.36673C135.174 5.11141 134.967 4.80698 134.82 4.46328C134.668 4.11467 134.594 3.73659 134.594 3.32415C134.594 2.9117 134.668 2.54345 134.82 2.19484C134.972 1.84622 135.179 1.54671 135.439 1.29139C135.704 1.03606 136.018 0.839662 136.386 0.692361C136.755 0.545059 137.157 0.476318 137.594 0.476318C138.031 0.476318 138.429 0.549969 138.802 0.692361C139.175 0.839662 139.495 1.03606 139.769 1.29139C140.04 1.54671 140.251 1.84622 140.408 2.19484C140.56 2.54345 140.639 2.92152 140.639 3.32415C140.639 3.72677 140.56 4.11467 140.408 4.46328C140.256 4.81189 140.044 5.11141 139.769 5.36673C139.499 5.62205 139.175 5.82336 138.802 5.96575C138.429 6.11306 138.026 6.1818 137.594 6.1818ZM137.604 5.7448C137.958 5.7448 138.287 5.68588 138.591 5.56313C138.895 5.44038 139.166 5.27344 139.391 5.06231C139.617 4.85117 139.794 4.59585 139.927 4.30125C140.054 4.00664 140.123 3.68258 140.123 3.33397C140.123 2.98535 140.059 2.68093 139.932 2.38633C139.804 2.09173 139.632 1.8364 139.406 1.62036C139.18 1.40432 138.915 1.23247 138.611 1.1048C138.306 0.977144 137.972 0.913313 137.604 0.913313C137.236 0.913313 136.907 0.977144 136.598 1.1048C136.293 1.23247 136.028 1.40432 135.807 1.62036C135.586 1.8364 135.414 2.09172 135.287 2.38142C135.164 2.67602 135.1 2.99026 135.1 3.32906C135.1 3.66785 135.164 3.98209 135.287 4.2767C135.409 4.5713 135.581 4.82662 135.807 5.04267C136.028 5.26362 136.293 5.43547 136.598 5.56313C136.902 5.69079 137.236 5.75462 137.604 5.75462V5.7448Z" fill="#495B6C"></path>
    <path d="M136.514 1.78735H137.54C137.766 1.78735 137.953 1.8119 138.1 1.86591C138.247 1.91992 138.365 1.98867 138.449 2.07214C138.532 2.15561 138.591 2.25381 138.625 2.35692C138.66 2.46003 138.675 2.56314 138.675 2.66134C138.675 2.84792 138.64 3.00505 138.571 3.13271C138.503 3.26037 138.39 3.36839 138.233 3.45186L138.822 4.67937H138.169L137.683 3.59425H137.113V4.67937H136.519V1.78735H136.514ZM137.58 3.09343C137.673 3.09343 137.751 3.08361 137.815 3.06397C137.879 3.04433 137.928 3.01487 137.963 2.9805C137.997 2.94613 138.026 2.90194 138.036 2.84792C138.051 2.79882 138.056 2.7399 138.056 2.67607C138.056 2.62697 138.046 2.57296 138.031 2.52877C138.017 2.47967 137.987 2.44039 137.948 2.40111C137.909 2.36183 137.855 2.33728 137.786 2.31764C137.717 2.298 137.629 2.28818 137.526 2.28818H137.108V3.09343H137.58Z" fill="#495B6C"></path>
    <path d="M161.177 36.7714C160.819 36.5553 160.426 36.3786 159.999 36.2509C159.567 36.1233 159.14 36.0103 158.708 35.9121C158.275 35.8139 157.883 35.7157 157.529 35.6175C157.171 35.5193 156.886 35.3868 156.67 35.2247C156.454 35.0627 156.341 34.8466 156.341 34.5815C156.341 34.3556 156.405 34.1543 156.532 33.9825C156.66 33.8106 156.871 33.6682 157.171 33.5602C157.47 33.4522 157.848 33.3982 158.315 33.3982C158.781 33.3982 159.253 33.4669 159.739 33.5995C160.225 33.7321 160.706 33.9383 161.192 34.2133L161.933 32.3867C161.447 32.0823 160.888 31.8515 160.259 31.6944C159.626 31.5422 158.983 31.4636 158.329 31.4636C157.352 31.4636 156.537 31.6109 155.889 31.9006C155.241 32.1903 154.755 32.5831 154.436 33.0741C154.117 33.5651 153.955 34.1052 153.955 34.6993C153.955 35.2542 154.068 35.7059 154.289 36.0643C154.509 36.4228 154.799 36.7076 155.158 36.9236C155.516 37.1396 155.909 37.3213 156.336 37.4588C156.768 37.5963 157.195 37.7141 157.627 37.8074C158.059 37.9007 158.452 37.9989 158.806 38.102C159.159 38.2051 159.449 38.3377 159.665 38.5046C159.881 38.6667 159.994 38.8876 159.994 39.1626C159.994 39.3786 159.925 39.575 159.788 39.742C159.65 39.9089 159.434 40.0415 159.145 40.1348C158.855 40.2281 158.467 40.2772 157.996 40.2772C157.372 40.2772 156.758 40.1741 156.149 39.9727C155.541 39.7714 155.015 39.5112 154.568 39.192L153.753 41.0039C154.22 41.3623 154.834 41.6471 155.595 41.8729C156.356 42.0939 157.151 42.2068 157.986 42.2068C158.973 42.2068 159.793 42.0595 160.441 41.76C161.089 41.4605 161.575 41.0726 161.904 40.5865C162.233 40.1004 162.395 39.5701 162.395 38.9858C162.395 38.4408 162.282 37.994 162.061 37.6356C161.84 37.2771 161.55 36.9923 161.192 36.7763L161.177 36.7714Z" fill="#495B6C"></path>
    <path d="M172.785 32.9907C172.274 32.5046 171.675 32.1314 170.988 31.8614C170.3 31.5962 169.544 31.4587 168.724 31.4587C167.904 31.4587 167.163 31.5913 166.47 31.8614C165.778 32.1265 165.174 32.5046 164.659 32.9907C164.143 33.4768 163.745 34.0463 163.465 34.6994C163.186 35.3524 163.043 36.0644 163.043 36.8352C163.043 37.6061 163.186 38.3181 163.465 38.9711C163.745 39.6242 164.143 40.1937 164.654 40.6798C165.164 41.1659 165.768 41.5391 166.465 41.8091C167.163 42.0743 167.924 42.2118 168.744 42.2118C169.564 42.2118 170.305 42.0792 170.993 41.8091C171.68 41.544 172.279 41.1708 172.79 40.6896C173.3 40.2085 173.698 39.6438 173.983 38.9809C174.268 38.323 174.415 37.611 174.415 36.8352C174.415 36.0595 174.272 35.3377 173.983 34.6896C173.698 34.0414 173.295 33.4768 172.79 32.9907H172.785ZM171.729 38.1855C171.567 38.593 171.336 38.9417 171.037 39.2412C170.742 39.5358 170.398 39.7665 170.006 39.9237C169.613 40.0808 169.186 40.1594 168.724 40.1594C168.263 40.1594 167.83 40.0808 167.433 39.9237C167.035 39.7665 166.691 39.5358 166.402 39.2412C166.112 38.9466 165.881 38.593 165.719 38.1806C165.557 37.7682 165.474 37.3213 165.474 36.8402C165.474 36.359 165.557 35.8974 165.719 35.4899C165.881 35.0824 166.112 34.7337 166.411 34.4342C166.711 34.1347 167.05 33.9089 167.443 33.7517C167.835 33.5946 168.263 33.5161 168.724 33.5161C169.186 33.5161 169.618 33.5946 170.015 33.7517C170.413 33.9089 170.757 34.1396 171.047 34.4342C171.336 34.7288 171.567 35.0824 171.729 35.4899C171.891 35.8974 171.975 36.3442 171.975 36.8402C171.975 37.3361 171.891 37.7829 171.729 38.1904V38.1855Z" fill="#495B6C"></path>
    <path d="M178.299 31.6404H175.893V42.0251H183.508V40.066H178.299V31.6404Z" fill="#495B6C"></path>
    <path d="M191.443 37.3655C191.443 38.3524 191.242 39.0644 190.834 39.5014C190.426 39.9384 189.862 40.1544 189.13 40.1544C188.399 40.1544 187.829 39.9384 187.422 39.5014C187.014 39.0644 186.813 38.3524 186.813 37.3655V31.6404H184.412V37.4588C184.412 38.9809 184.829 40.1544 185.659 40.9744C186.489 41.7944 187.642 42.2068 189.116 42.2068C190.589 42.2068 191.742 41.7944 192.572 40.9744C193.402 40.1544 193.819 38.9809 193.819 37.4588V31.6404H191.448V37.3655H191.443Z" fill="#495B6C"></path>
    <path d="M194.767 33.5995H198.091V42.0251H200.497V33.5995H203.816V31.6404H194.767V33.5995Z" fill="#495B6C"></path>
    <path d="M207.189 31.6404H204.783V42.0251H207.189V31.6404Z" fill="#495B6C"></path>
    <path d="M218.409 32.9907C217.898 32.5046 217.299 32.1314 216.612 31.8614C215.924 31.5962 215.168 31.4587 214.348 31.4587C213.528 31.4587 212.787 31.5913 212.095 31.8614C211.402 32.1265 210.798 32.5046 210.283 32.9907C209.767 33.4768 209.369 34.0463 209.09 34.6994C208.81 35.3524 208.667 36.0644 208.667 36.8352C208.667 37.6061 208.81 38.3181 209.09 38.9711C209.369 39.6242 209.767 40.1937 210.278 40.6798C210.788 41.1659 211.392 41.5391 212.09 41.8091C212.787 42.0743 213.548 42.2118 214.368 42.2118C215.188 42.2118 215.929 42.0792 216.617 41.8091C217.304 41.544 217.903 41.1708 218.414 40.6896C218.924 40.2085 219.322 39.6438 219.607 38.9809C219.892 38.323 220.039 37.611 220.039 36.8352C220.039 36.0595 219.897 35.3377 219.607 34.6896C219.322 34.0414 218.92 33.4768 218.414 32.9907H218.409ZM217.353 38.1855C217.191 38.593 216.96 38.9417 216.661 39.2412C216.366 39.5358 216.023 39.7665 215.63 39.9237C215.237 40.0808 214.81 40.1594 214.348 40.1594C213.887 40.1594 213.455 40.0808 213.057 39.9237C212.659 39.7665 212.315 39.5358 212.026 39.2412C211.736 38.9466 211.505 38.593 211.343 38.1806C211.181 37.7682 211.098 37.3213 211.098 36.8402C211.098 36.359 211.181 35.8974 211.343 35.4899C211.505 35.0824 211.736 34.7337 212.036 34.4342C212.335 34.1347 212.674 33.9089 213.067 33.7517C213.46 33.5946 213.887 33.5161 214.348 33.5161C214.81 33.5161 215.242 33.5946 215.64 33.7517C216.037 33.9089 216.381 34.1396 216.671 34.4342C216.96 34.7288 217.191 35.0824 217.353 35.4899C217.515 35.8974 217.599 36.3442 217.599 36.8402C217.599 37.3361 217.515 37.7829 217.353 38.1904V38.1855Z" fill="#495B6C"></path>
    <path d="M228.671 37.94L223.506 31.6404H221.517V42.0251H223.893V35.7206L229.069 42.0251H231.042V31.6404H228.671V37.94Z" fill="#495B6C"></path>
    <path d="M240.666 37.6355C240.445 37.2771 240.155 36.9923 239.797 36.7763C239.439 36.5602 239.046 36.3835 238.619 36.2558C238.187 36.1281 237.759 36.0152 237.327 35.917C236.895 35.8188 236.502 35.7206 236.149 35.6224C235.79 35.5242 235.506 35.3916 235.29 35.2296C235.074 35.0676 234.961 34.8515 234.961 34.5864C234.961 34.3605 235.024 34.1592 235.152 33.9874C235.28 33.8155 235.491 33.6731 235.79 33.5651C236.09 33.4571 236.468 33.4031 236.934 33.4031C237.401 33.4031 237.872 33.4718 238.358 33.6044C238.845 33.737 239.326 33.9432 239.812 34.2181L240.553 32.3916C240.067 32.0872 239.507 31.8564 238.879 31.6993C238.245 31.5471 237.602 31.4685 236.949 31.4685C235.972 31.4685 235.157 31.6158 234.509 31.9055C233.861 32.1952 233.375 32.588 233.056 33.079C232.736 33.57 232.574 34.1101 232.574 34.7042C232.574 35.2591 232.687 35.7108 232.908 36.0692C233.129 36.4277 233.419 36.7124 233.777 36.9285C234.136 37.1445 234.529 37.3262 234.956 37.4637C235.388 37.6012 235.815 37.719 236.247 37.8123C236.679 37.9056 237.072 38.0038 237.425 38.1069C237.779 38.21 238.069 38.3426 238.285 38.5095C238.501 38.6716 238.614 38.8925 238.614 39.1675C238.614 39.3835 238.545 39.5799 238.408 39.7469C238.27 39.9138 238.054 40.0464 237.764 40.1397C237.475 40.2329 237.087 40.282 236.615 40.282C235.992 40.282 235.378 40.1789 234.769 39.9776C234.16 39.7763 233.635 39.5161 233.188 39.1969L232.373 41.0087C232.84 41.3672 233.453 41.652 234.214 41.8778C234.975 42.0988 235.771 42.2117 236.606 42.2117C237.592 42.2117 238.412 42.0644 239.061 41.7649C239.709 41.4654 240.195 41.0775 240.524 40.5914C240.853 40.1053 241.015 39.575 241.015 38.9907C241.015 38.4457 240.902 37.9989 240.681 37.6404L240.666 37.6355Z" fill="#495B6C"></path>
    <path d="M161.767 24.1966C162.626 23.7645 163.298 23.1655 163.785 22.3848C164.271 21.6041 164.511 20.6958 164.511 19.645C164.511 18.5942 164.271 17.6712 163.785 16.9003C163.298 16.1294 162.626 15.5255 161.767 15.0983C160.907 14.6662 159.911 14.4551 158.786 14.4551H154.068V24.8398H158.786C159.915 24.8398 160.907 24.6238 161.767 24.1966ZM156.469 22.8709V16.4338H158.663C159.356 16.4338 159.955 16.5664 160.465 16.8266C160.976 17.0869 161.369 17.46 161.654 17.9412C161.938 18.4224 162.076 18.992 162.076 19.6548C162.076 20.3177 161.933 20.8774 161.654 21.3635C161.374 21.8496 160.976 22.2228 160.465 22.483C159.955 22.7432 159.356 22.8758 158.663 22.8758H156.469V22.8709Z" fill="#495B6C"></path>
    <path d="M168.385 20.5092H173.207V18.6384H168.385V16.3847H173.845V14.4551H165.999V24.8398H174.037V22.9102H168.385V20.5092Z" fill="#495B6C"></path>
    <path d="M184.633 18.2211C184.633 17.4404 184.451 16.7677 184.083 16.2031C183.714 15.6384 183.199 15.2063 182.526 14.9068C181.854 14.6073 181.053 14.4551 180.12 14.4551H175.623V24.8398H178.029V21.9773H180.12C181.048 21.9773 181.854 21.8251 182.526 21.5256C183.199 21.226 183.719 20.789 184.083 20.2293C184.451 19.6646 184.633 18.9969 184.633 18.226V18.2211ZM181.652 19.5419C181.284 19.861 180.734 20.0182 179.993 20.0182H178.034V16.4142H179.993C180.734 16.4142 181.289 16.5713 181.652 16.8905C182.02 17.2096 182.202 17.6515 182.202 18.226C182.202 18.8005 182.02 19.2276 181.652 19.5468V19.5419Z" fill="#495B6C"></path>
    <path d="M196.441 21.7908C196.726 21.1328 196.873 20.4208 196.873 19.6451C196.873 18.8693 196.731 18.1475 196.441 17.4994C196.157 16.8512 195.754 16.2866 195.248 15.8005C194.738 15.3144 194.138 14.9412 193.451 14.6712C192.764 14.406 192.008 14.2686 191.188 14.2686C190.368 14.2686 189.626 14.4011 188.934 14.6712C188.242 14.9363 187.638 15.3144 187.122 15.8005C186.606 16.2866 186.209 16.8562 185.929 17.5092C185.649 18.1622 185.507 18.8742 185.507 19.6451C185.507 20.4159 185.649 21.1279 185.929 21.7809C186.209 22.434 186.606 23.0035 187.117 23.4896C187.628 23.9757 188.232 24.3489 188.929 24.6189C189.626 24.8841 190.387 25.0216 191.207 25.0216C192.027 25.0216 192.769 24.889 193.456 24.6189C194.143 24.3538 194.742 23.9806 195.253 23.4995C195.764 23.0183 196.161 22.4536 196.446 21.7908H196.441ZM194.193 20.9953C194.03 21.4029 193.8 21.7515 193.5 22.051C193.206 22.3456 192.862 22.5764 192.469 22.7335C192.076 22.8906 191.649 22.9692 191.188 22.9692C190.726 22.9692 190.294 22.8906 189.896 22.7335C189.498 22.5764 189.155 22.3456 188.865 22.051C188.575 21.7564 188.345 21.4029 188.183 20.9904C188.021 20.578 187.937 20.1312 187.937 19.65C187.937 19.1688 188.021 18.7072 188.183 18.2997C188.345 17.8922 188.575 17.5436 188.875 17.244C189.174 16.9445 189.513 16.7187 189.906 16.5615C190.299 16.4044 190.726 16.3259 191.188 16.3259C191.649 16.3259 192.081 16.4044 192.479 16.5615C192.877 16.7187 193.22 16.9494 193.51 17.244C193.8 17.5386 194.03 17.8922 194.193 18.2997C194.355 18.7072 194.438 19.1541 194.438 19.65C194.438 20.1459 194.355 20.5927 194.193 21.0002V20.9953Z" fill="#495B6C"></path>
    <path d="M203.114 22.9497C202.824 23.043 202.436 23.0921 201.965 23.0921C201.342 23.0921 200.728 22.989 200.119 22.7877C199.51 22.5863 198.985 22.3261 198.538 22.007L197.723 23.8188C198.189 24.1772 198.803 24.462 199.564 24.6878C200.325 24.9088 201.121 25.0217 201.955 25.0217C202.942 25.0217 203.762 24.8744 204.41 24.5749C205.058 24.2754 205.545 23.8875 205.874 23.4014C206.202 22.9153 206.365 22.385 206.365 21.8007C206.365 21.2557 206.252 20.8089 206.031 20.4505C205.81 20.092 205.52 19.8073 205.162 19.5912C204.803 19.3752 204.41 19.1984 203.983 19.0707C203.551 18.9431 203.124 18.8302 202.692 18.732C202.26 18.6338 201.867 18.5356 201.513 18.4373C201.155 18.3391 200.87 18.2066 200.654 18.0445C200.438 17.8825 200.325 17.6665 200.325 17.4013C200.325 17.1755 200.389 16.9742 200.517 16.8023C200.644 16.6305 200.855 16.4881 201.155 16.38C201.454 16.272 201.833 16.218 202.299 16.218C202.765 16.218 203.237 16.2867 203.723 16.4193C204.209 16.5519 204.69 16.7581 205.176 17.0331L205.918 15.2065C205.432 14.9021 204.872 14.6713 204.243 14.5142C203.61 14.362 202.967 14.2834 202.314 14.2834C201.337 14.2834 200.522 14.4307 199.873 14.7204C199.225 15.0101 198.739 15.4029 198.42 15.8939C198.101 16.3849 197.939 16.9251 197.939 17.5192C197.939 18.074 198.052 18.5257 198.273 18.8842C198.494 19.2426 198.783 19.5274 199.142 19.7434C199.5 19.9595 199.893 20.1411 200.32 20.2786C200.752 20.4161 201.179 20.5339 201.612 20.6272C202.044 20.7205 202.436 20.8187 202.79 20.9218C203.144 21.0249 203.433 21.1575 203.649 21.3245C203.865 21.4865 203.978 21.7074 203.978 21.9824C203.978 22.1984 203.909 22.3949 203.772 22.5618C203.635 22.7287 203.418 22.8613 203.129 22.9546L203.114 22.9497Z" fill="#495B6C"></path>
    <path d="M210.081 14.4551H207.675V24.8398H210.081V14.4551Z" fill="#495B6C"></path>
    <path d="M211.221 16.4142H214.545V24.8398H216.946V16.4142H220.27V14.4551H211.221V16.4142Z" fill="#495B6C"></path>
  </g>
  <defs>
    <clipPath id="clip0_500_1230">
      <rect width="241" height="56.8338" fill="white"></rect>
    </clipPath>
  </defs>
</svg>
