<?xml version="1.0" encoding="UTF-8"?> <svg xmlns="http://www.w3.org/2000/svg" xmlns:xlink="http://www.w3.org/1999/xlink" width="288" height="53"><defs><path id="path-1" d="M.166.347H15.05v15.32H.166z"></path><path id="path-3" d="M.528.594h29.236v27.569H.528z"></path></defs><g id="Designs" stroke="none" stroke-width="1" fill="none" fill-rule="evenodd"><g id="Homepage" transform="translate(-290 -92)"><g id="Group-29" transform="translate(290 92)"><path d="M70.052 23.197h1.27c.342 0 .754.083 1.121.33.246.163.398.313.549.574l3.43 5.498c.125.22.246.357.452.52.231.178.436.275.723.342h2.68a4.84 4.84 0 01-1.093-.492c-.493-.287-1.804-2.202-2.598-3.694-1.3-2.407-2.815-3.543-2.87-3.611.164-.028 3.184-.848 3.102-3.789-.068-2.764-2.761-3.763-4.606-3.763h-4.88c.041.015.438.3.588.575.11.205.177.356.177.601l-.013 13.023c0 .248-.082.412-.204.602-.152.26-.548.52-.59.548h3.623c-.014 0-.383-.246-.547-.452-.164-.218-.314-.41-.314-.71v-6.102zm1.982-.93c-.206.082-1.927.041-1.982.027l.014-6.375h1.34c2.802 0 6.261 4.077.628 6.349z" id="Fill-1" fill="#686A6C"></path><path d="M104.523 21.487c.218 0 .422-.095.587-.218a.916.916 0 00.396-.507v2.38a.747.747 0 00-.34-.491c-.18-.137-.357-.165-.59-.165h-3.76v6.786h4.868c.519 0 .86-.11 1.272-.41.423-.288.655-.603.818-1.095l-.45 2.694h-9.459c.054-.028.465-.26.67-.478a1.09 1.09 0 00.287-.78v-12.45c0-.397-.11-.74-.33-.985-.26-.301-.763-.629-.819-.642h9.048l-.011 1.887c-.165-.287-.328-.438-.616-.615-.288-.165-.506-.26-.848-.26h-4.416v5.348h3.693z" id="Fill-3" fill="#686A6C"></path><path d="M128.124 29.311c0 .288.11.48.274.699.164.22.533.45.548.45h-3.625c.042-.027.439-.287.59-.547.12-.19.203-.354.203-.602V16.248c0-.248-.054-.397-.178-.601-.15-.275-.546-.521-.588-.535h3.598c-.015 0-.384.22-.548.438-.164.219-.274.41-.274.698v13.063z" id="Fill-5" fill="#686A6C"></path><path d="M148.322 17.328v12.217c0 .204.096.356.22.52.164.205.327.329.573.395h-2.529c.245-.039.37-.19.547-.369.124-.122.137-.3.137-.492V16.356c0-.41-.179-.52-.397-.751-.26-.274-.807-.479-.847-.479h3.118l9.185 11.286v-10.37c0-.205-.095-.341-.206-.505a1.03 1.03 0 00-.49-.41h2.665a1.206 1.206 0 00-.48.382c-.136.164-.286.301-.286.52l-.015 14.87-11.195-13.57z" id="Fill-7" fill="#686A6C"></path><path d="M190.269 25.168c0-.26-.193-.398-.357-.562-.188-.191-.312-.289-.533-.383h3.391a.98.98 0 00-.505.41.994.994 0 00-.206.562v2.586c0 .177.043.287.096.436.067.178.152.288.274.426-.943.738-4.115 1.969-6.52 1.942-4.826-.07-8.315-3.393-8.297-7.811.01-4.2 3.976-7.853 8.417-7.772 2.08.042 4.471.89 5.13 1.273l.245 3.325c-.943-2.41-2.748-3.64-5.51-3.763-3.484-.136-5.876 3.051-5.876 6.799 0 3.625 2.008 7.046 6.179 7.019 1.666-.014 3.048-.466 4.072-1.423v-3.064z" id="Fill-9" fill="#686A6C"></path><path d="M218.587 15.003c-4.388-.11-8.27 3.351-8.285 7.756-.011 4.364 3.72 7.852 8.08 7.84 4.142 0 8.064-3.653 8.079-8.085.013-4.392-3.653-7.415-7.874-7.511m.04.944c3.323.164 5.318 3.324 5.374 6.648.067 3.462-1.627 7.004-5.577 6.976-3.541-.026-5.73-3.31-5.77-6.77-.042-3.79 2.161-7.06 5.973-6.854" id="Fill-11" fill="#686A6C"></path><path d="M244.213 30.46c.04-.027.438-.287.587-.547.11-.19.188-.354.188-.602l-.01-13.063c0-.248-.082-.411-.192-.602-.15-.26-.546-.52-.588-.534h3.624c-.015 0-.386.219-.534.439-.165.218-.26.41-.26.697v13.024h4.963c.464 0 .749-.137 1.133-.383a2 2 0 00.78-.835l-.317 2.407h-9.374z" id="Fill-13" fill="#686A6C"></path><g id="Group-17" transform="translate(271.625 14.793)"><mask id="mask-2" fill="#fff"><use xlink:href="#path-1"></use></mask><path d="M6.249 15.667c5.004 0 9.023-3.568 8.791-8.084C14.833 3.301 11.662.347 7.644.347H.316c.043.013.508.287.669.56.139.219.221.384.221.642v12.916c0 .231-.082.397-.192.602-.207.327-.795.573-.848.589l6.083.011zm.886-14.321c3.324 0 5.787 3.077 5.745 6.333-.068 5.514-3.051 6.881-6.809 6.881-1.064 0-1.737 0-2.748-.329V1.346h3.812z" id="Fill-15" fill="#686A6C" mask="url(#mask-2)"></path></g><g id="Group-20" transform="translate(8.542 .26)"><mask id="mask-4" fill="#fff"><use xlink:href="#path-3"></use></mask><path d="M29.764 16.94C29.764 7.913 19.76.594 7.416.594a29.92 29.92 0 00-6.888.799A29.677 29.677 0 015.512.96C17.577.96 27.36 8.115 27.36 16.94c0 4.009-2.034 7.663-5.366 10.468.549.245 1.096.495 1.641.755 3.79-2.929 6.129-6.872 6.129-11.223" id="Fill-18" fill="#686A6C" mask="url(#mask-4)"></path></g><path d="M14.054 33.181a29.49 29.49 0 01-4.997-.436 29.91 29.91 0 006.901.803c5.665 0 10.82-1.552 14.76-4.094-.552-.226-1.1-.45-1.652-.663-3.915 2.715-9.19 4.39-15.012 4.39" id="Fill-21" fill="#686A6C"></path><path d="M0 20.609v2.35c9.612.572 19.434 2.132 29.066 5.832.513-.356 1.004-.73 1.47-1.122C20.472 23.199 10.13 21.386 0 20.609" id="Fill-23" fill="#DF393E"></path><path d="M64.634 52.406c-8.374-9.275-18.897-17.25-31.266-23.412-.397-.197-.793-.38-1.191-.57-.464.36-.952.702-1.46 1.03a75.18 75.18 0 014.95 2.24c11.159 5.558 21.03 12.558 28.967 20.712" id="Fill-25" fill="#DF393E"></path><path d="M30.49 27.646c-.433.317-.911.67-1.424 1.145.56.235 1.212.507 1.746.702.508-.436 1.18-.468 1.644-.946-.393-.185-1.048-.485-1.966-.9z" id="Fill-27" fill="#DF393E"></path></g></g></g></svg> 