<svg id="Layer_1" data-name="Layer 1" xmlns="http://www.w3.org/2000/svg" viewBox="0 0 48.16 25"><defs><style>.cls-1{fill:#06c;}</style></defs><title>Artboard 1</title><path class="cls-1" d="M32.58,9.6a2.07,2.07,0,0,0-1.24-.36A2.23,2.23,0,0,0,30,9.67V6.52H28.47V16.81H30V11.44a.86.86,0,0,1,.9-.81,1,1,0,0,1,.8.37,2,2,0,0,1,.18,1.09v4.72h1.56V12C33.47,10.62,33.29,10.12,32.58,9.6Z"/><path class="cls-1" d="M18.89,9.24c-1.45,0-2.34.93-2.5,2.67,0,.14,0,.4,0,1.22,0,.6,0,1.09,0,1.22a2.5,2.5,0,1,0,5,0c0-.11,0-.61,0-1.21,0-.27,0-1,0-1.21C21.17,9.71,19.92,9.24,18.89,9.24Zm.95,5.27c-.06.56-.3,1.15-.95,1.15S18,15,18,14.48c0,0,0-.34,0-1.35s0-1.43,0-1.43c0-.57.3-1.14.94-1.14s.94.57.95,1.13c0,0,0,.43,0,1.44S19.84,14.42,19.84,14.51Z"/><path class="cls-1" d="M39.55,12.67c0-.12,0-.33,0-.76a3.45,3.45,0,0,0-.68-1.84,2.2,2.2,0,0,0-1.78-.83c-1.41,0-2.29.92-2.46,2.67a8.6,8.6,0,0,0-.05,1.22c0,.6,0,1.1,0,1.22A2.49,2.49,0,0,0,37.05,17c1.41,0,2.36-1,2.46-2.71H38a2,2,0,0,1,0,.25c0,.37-.18,1.14-.94,1.14s-.9-.59-.94-1.17c0-.17,0-.36,0-1h3.48S39.56,13,39.55,12.67Zm-3.47-.47c0-.34,0-.41,0-.51,0-.61.32-1.12.95-1.13s.92.73,1,1.14c0,.21,0,.35,0,.5Z"/><path class="cls-1" d="M37.41,0H10.8L0,12.54,10.8,25H37.41L48.16,12.58Zm-.62,23.82H11.41L1.67,12.58,11.41,1.26H36.79L46.5,12.62Z"/><path class="cls-1" d="M15.26,13.65c-.07-1.13-.36-1.8-.95-2.14a2.36,2.36,0,0,0,1-2.2A2.46,2.46,0,0,0,12.57,6.6H10.18V16.81h1.54V12.14h.86c.5,0,1.06.43,1.14,1.65l.16,2.39a3.44,3.44,0,0,0,.08.63H15.5a4.6,4.6,0,0,1-.08-.63ZM13.72,9.58a1.18,1.18,0,0,1-1.18,1.24h-.82V7.91h.74A1.12,1.12,0,0,1,13.72,9.1c0,.06,0,.12,0,.24A1.29,1.29,0,0,1,13.72,9.58Z"/><path class="cls-1" d="M25,10.56c.66,0,.93.57.94,1.13,0,0,0,.14,0,.44H27.5a2.37,2.37,0,0,1,0-.24C27.31,9.76,26,9.24,25,9.24c-1.45,0-2.33.93-2.49,2.67a10.86,10.86,0,0,0,0,1.22c0,.6,0,1.09,0,1.22A2.48,2.48,0,0,0,25,17c1.52,0,2.36-.92,2.51-2.64a.65.65,0,0,0,0-.14H26c0,.11,0,.21,0,.28,0,.57-.25,1.18-.94,1.18s-.91-.66-1-1.14c0-.3,0-.52,0-1.39s0-1.27,0-1.43C24.1,11.06,24.35,10.57,25,10.56Z"/></svg>