<?xml version="1.0" encoding="utf-8"?>
<!-- Generator: Adobe Illustrator 22.1.0, SVG Export Plug-In . SVG Version: 6.00 Build 0)  -->
<svg version="1.1" id="Layer_1" xmlns="http://www.w3.org/2000/svg" xmlns:xlink="http://www.w3.org/1999/xlink" x="0px" y="0px"
	 viewBox="0 0 103.8 108" style="enable-background:new 0 0 103.8 108;" xml:space="preserve">
<style type="text/css">
	.st0{fill:#00649D;}
	.st1{fill:#FFFFFF;}
</style>
<g>
	<rect class="st0" width="103.8" height="108"/>
	<g>
		<path class="st1" d="M46.6,47.7c-3.7-2.6-8.1-4.3-12.8-4.9V47c3.4,0.5,6.6,1.7,9.5,3.5C44.3,49.5,45.5,48.6,46.6,47.7z M33.8,48.3
			v16.9c1.8-5.2,4.7-9.9,8.5-13.7C39.8,49.9,36.9,48.8,33.8,48.3z M40.6,60.4c-1.4,1.4-2.7,3-3.9,4.6c8.9-6.3,19.7-9.9,31.4-9.9
			c1.3,0,2.7,0.1,4,0.1v-6c-1.3-0.1-2.6-0.2-4-0.2C57.3,49,47.6,53.3,40.6,60.4z M35.2,67.7h36.9V56.5c-1.3-0.1-2.7-0.1-4-0.1
			C55.7,56.3,44.3,60.6,35.2,67.7z M33.8,29.3v6.7c2.5,0.3,5,0.8,7.3,1.6c2.8-3.4,7-5.6,11.8-5.6c6.1,0,11.3,3.6,13.7,8.7
			c0.5,0,0.9,0,1.4,0c1.4,0,2.7,0.1,4,0.2V29.3H33.8z M43.4,52.2c-3.4,3.4-6,7.4-7.8,11.9c7.3-10,19.1-16.5,32.5-16.5
			c1.3,0,2.7,0.1,4,0.2v-5.6c-1.3-0.1-2.6-0.2-4-0.2C58.4,42,49.7,45.9,43.4,52.2z M51.6,44.7c-5-4-11.1-6.6-17.7-7.3v4.2
			c5.1,0.6,9.9,2.6,13.9,5.4C48.9,46.1,50.2,45.4,51.6,44.7z"/>
		<g>
			<path class="st1" d="M17.7,72.8h11.7c4.6,0,7.2,1.7,7.2,5c0,2.4-2,4.1-4.8,4.6v0.1c1.6,0.1,3.1,0.5,3.8,1.7
				c0.9,1.7,1,5.8,1.8,7.7h-5.9c-0.6-1.9-0.5-4.6-1.1-5.9c-0.3-0.9-1.2-1.3-3.4-1.3h-3.7v7.2h-5.6V72.8z M23.2,81h4.4
				c2.5,0,3.4-0.8,3.4-2.2c0-1.8-1.5-2.2-4.1-2.2h-3.6V81z"/>
			<path class="st1" d="M53.7,79.1c-0.3-2.1-2-2.8-4.1-2.8c-3.6,0-5.3,2.5-5.3,6c0,3.3,1.4,6.2,5.1,6.2c2.1,0,4-0.7,4.2-3h5.8
				c-0.2,5.6-4.8,6.9-10.5,6.9c-5.6,0-10.2-2.9-10.2-9.9c0-7.1,4.4-10,11.1-10c4.8,0,9.5,1.7,9.5,6.7H53.7z"/>
			<path class="st1" d="M61.8,72.8h5.5v19.1h-5.5V72.8z"/>
			<path class="st1" d="M75.3,85.7c0.1,2.4,1.2,3,3.7,3c3.2,0,3.7-1.1,3.7-2c0-1.3-1.3-1.7-3.5-2.1L76.6,84
				c-3.1-0.6-6.4-1.8-6.4-5.4c0-4.6,4.3-6.2,8.6-6.2c6.9,0,8.9,2.1,9,5.9h-5.3c-0.2-1.9-1.7-2.2-3.4-2.2c-2.4,0-3.4,0.8-3.4,1.9
				c0,1.3,1.7,1.6,3.7,2l2.5,0.5c3.4,0.7,6.3,1.8,6.3,5.6c0,5.3-5.3,6.2-9.5,6.2c-7.6,0-8.9-3.3-8.9-6.6H75.3z"/>
			<g>
				<path class="st1" d="M90.5,72.8c0.9,0,1.6,0.7,1.6,1.6c0,0.9-0.7,1.6-1.6,1.6c-0.9,0-1.6-0.7-1.6-1.6
					C88.9,73.5,89.6,72.8,90.5,72.8z M90.5,75.6c0.7,0,1.2-0.5,1.2-1.2c0-0.7-0.5-1.2-1.2-1.2c-0.7,0-1.2,0.5-1.2,1.2
					C89.3,75.1,89.9,75.6,90.5,75.6z M89.9,73.5h0.5c0.4,0,0.8,0.1,0.8,0.5c0,0.3-0.2,0.5-0.4,0.5l0.4,0.7h-0.5l-0.4-0.6h-0.1v0.6
					h-0.4V73.5z M90.3,74.2h0.2c0.1,0,0.3,0,0.3-0.2c0-0.2-0.2-0.2-0.3-0.2h-0.2V74.2z"/>
			</g>
		</g>
	</g>
</g>
</svg>
