<?xml version="1.0" encoding="UTF-8"?>
<svg width="171px" height="38px" viewBox="0 0 171 38" version="1.1" xmlns="http://www.w3.org/2000/svg" xmlns:xlink="http://www.w3.org/1999/xlink">
    <!-- Generator: sketchtool 53.2 (72643) - https://sketchapp.com -->
    <title>33C0EB28-FCF7-4F2E-9D8B-3EB9E23E6E5E</title>
    <desc>Created with sketchtool.</desc>
    <defs>
        <polygon id="path-1" points="0 0.9893 35.6891429 0.9893 35.6891429 38.922 0 38.922"></polygon>
    </defs>
    <g id="Page-1" stroke="none" stroke-width="1" fill="none" fill-rule="evenodd">
        <g id="Homepage-(excellence,-quality-care)" transform="translate(-136.000000, -55.000000)">
            <g id="Rush-(Header)">
                <g id="MasterBrandRush-(3)" transform="translate(136.000000, 54.000000)">
                    <path d="M77.0644986,23.2683086 L77.0644986,7.31994302 C77.0644986,5.28011082 73,5.06077402 73,3.49316103 C73,3.15254389 73.8544309,3.00674943 74.1057341,3.00674943 C75.4085428,3.00674943 76.6650587,3.2002819 78.0168054,3.2002819 C79.6251459,3.2002819 81.2281958,3.00674943 82.7836303,3.00674943 C83.0362561,3.00674943 84.3880028,2.90482233 84.3880028,3.49316103 C84.3880028,4.86208069 81.0297985,5.07754683 81.0297985,7.56508415 L81.0297985,23.288952 C81.0297985,31.8495382 85.7556213,35.9937134 91.8239322,35.9937134 C101.221349,35.9937134 101.880028,28.4691711 101.880028,24.1482362 L101.880028,8.83852779 C101.880028,5.00916536 97.2124018,5.35236294 97.2124018,3.49316103 C97.2124018,3.24801991 97.5668715,3.00674943 97.7176535,3.00674943 C99.6764958,3.00674943 101.632693,3.2002819 103.587567,3.2002819 C104.541197,3.2002819 105.440598,3.00674943 106.346612,3.00674943 C106.59527,3.00674943 107,3.24801991 107,3.54218926 C107,4.91497956 104.037268,5.41816398 104.037268,8.88626579 L104.037268,23.5108693 C104.037268,23.5108693 105.4816,38 91.5342722,38 C78.334241,38 77.0644986,30.8031726 77.0644986,23.2683086 Z" id="Fill-1" fill="#231F20"></path>
                    <path d="M109.069664,28.850568 C108.868602,27.8569764 109.118287,27.6905039 109.618971,27.6905039 C110.090744,27.6905039 110.216901,27.8412467 110.387738,28.46388 C111.276091,31.6098165 115.924174,36.1321002 121.557856,36.0416545 C124.527794,35.9931547 126.201997,35.332508 128.221818,33.2129333 C129.145652,32.244247 129.897335,30.4969415 129.838199,28.816487 C129.781692,27.1583163 128.454419,24.9417419 126.976021,23.9651908 C121.848279,20.5780658 110.165649,21.2793475 110.165649,10.9868919 C110.165649,4.6701136 115.501024,2 121.231952,2 C127.266444,2 128.911737,3.79056219 129.606912,3.79056219 C130.056345,3.79056219 130.156219,3.24264492 130.656903,3.24264492 C130.952583,3.24264492 131.20621,3.38945529 131.254833,3.93868337 L131.999946,10.6998252 C132.051197,11.0996213 131.951323,11.4469851 131.453267,11.4469851 C130.90396,11.4469851 130.651647,10.3563938 130.405904,9.95528692 C127.874887,5.80265074 123.757713,3.92819691 120.398792,3.92819691 C117.264588,3.92819691 114.410294,5.10661229 113.440465,7.87503641 C113.188152,8.58680454 112.967378,9.50699097 113.134273,10.4376639 C113.278827,11.2857559 113.347162,11.9411593 114.065992,12.7866298 C114.541708,13.3515875 115.24214,14.2049228 115.966226,14.6387999 C121.222753,17.8293038 133,17.2328867 133,27.9185843 C133,32.0935042 130.056345,38 118.740358,38 C115.048962,38 110.513894,36.1596271 110.316775,35.2643461 L109.069664,28.850568" id="Fill-2" fill="#231F20"></path>
                    <path d="M140.308917,7.28573226 C140.255399,3.67939583 136,3.62728114 136,2.54068989 C136,2.09380644 136.398128,2 136.788424,2 C138.626338,2 140.408123,2.19282435 142.2369,2.19282435 C143.775892,2.19282435 144.94678,2 146.487077,2 C147.327714,2 147.42692,2.29184225 147.42692,2.49118094 C147.42692,3.48005715 143.86335,3.57777219 143.86335,7.28573226 L143.86335,15.8169067 C143.86335,16.5074263 143.962555,17.8128993 145.051207,17.8128993 L162.143289,17.8128993 C163.042666,17.8128993 163.124902,16.6715876 163.124902,15.2710054 L163.124902,7.28573226 C163.124902,3.87352304 159.404692,3.67939583 159.404692,2.54068989 C159.404692,2.24363617 159.506508,2 160.253161,2 C161.884832,2 164.101294,2.19282435 165.041137,2.19282435 C166.877746,2.19282435 167.437735,2 168.429792,2 C169.716854,2 169.817365,2.49118094 169.817365,2.78823466 C169.817365,3.67939583 166.497893,3.87352304 166.497893,7.28573226 L166.497893,31.4721591 C166.497893,35.0863127 171,35.1579704 171,36.3956942 C171,36.5442211 170.802894,36.9884988 170.45959,36.9884988 C169.122925,36.9884988 167.589155,36.7930687 165.806064,36.7930687 C162.63279,36.7930687 161.785626,36.9884988 160.848394,36.9884988 C160.399359,36.9884988 159.654011,37.1396314 159.654011,36.3461853 C159.654011,35.1579704 163.124902,34.8843683 163.124902,31.7705157 L163.124902,21.6368145 C163.124902,20.847277 163.152314,19.640822 162.106739,19.640822 L144.903703,19.640822 C144.066982,19.640822 143.86335,20.6961444 143.86335,21.2420458 L143.86335,31.8213275 C143.86335,35.1827249 148.561258,35.0628611 148.561258,36.5950329 C148.561258,36.8412748 148.215343,36.9884988 147.771529,36.9884988 C147.129303,36.9884988 143.873793,36.7930687 141.250065,36.7930687 C137.733487,36.7930687 137.189162,36.9884988 136.992056,36.9884988 C136.596539,36.9884988 136.441204,36.7422569 136.441204,36.2471674 C136.441204,34.8166192 140.308917,35.4784757 140.308917,30.5823008 L140.308917,7.28573226" id="Fill-3" fill="#231F20"></path>
                    <g id="Group-7">
                        <mask id="mask-2" fill="white">
                            <use xlink:href="#path-1"></use>
                        </mask>
                        <g id="Clip-5"></g>
                        <path d="M29.3938571,17.1288 C28.48075,9.0402 23.6350714,2.2945 17.8472143,2.2945 C12.0382143,2.2945 7.21367857,8.8348 6.29925,17.1288 L0.00132142857,17.1288 C1.29367857,7.9729 8.79278571,0.9893 17.8472143,0.9893 C26.8857857,0.9893 34.3703571,7.995 35.6838571,17.1288 L29.3938571,17.1288" id="Fill-4" fill="#006937" mask="url(#mask-2)"></path>
                        <path d="M29.3938571,22.8475 C28.6868929,29.185 25.5551071,34.684 21.45075,36.7796 C21.13625,36.8563 20.7305714,36.816 20.6578929,36.1075 C19.7130714,24.6649 21.0133571,9.36 21.0133571,9.36 L14.6956071,9.36 C14.6956071,9.36 15.9919286,24.6649 15.04975,36.1075 C14.9612143,36.9733 14.3784643,36.8498 14.0718929,36.7185 C13.9714643,36.6665 13.8710357,36.6249 13.7758929,36.5703 C13.75475,36.5599 13.71775,36.5391 13.6952857,36.5248 C9.85521429,34.2836 6.98110714,29.0563 6.29925,22.8475 L0,22.8475 C1.28971429,32.0073 8.7875,39 17.8472143,39 C26.8871071,39 34.3769643,31.9852 35.6891429,22.8475 L29.3938571,22.8475" id="Fill-6" fill="#006937" mask="url(#mask-2)"></path>
                    </g>
                    <path d="M70.0425463,31.6095811 C74.126988,37.094788 76,35.2119819 76,36.3975491 C76,36.9916384 73.2418955,36.9916384 72.7993492,36.9916384 C69.2069148,36.9916384 68.3231239,36.0659036 66.4514135,33.2508344 L59.9524914,23.0142189 C58.1770999,20.2513772 58.9151108,20.3976146 53.4041082,20.3976146 C51.8291641,20.3976146 52.1259304,21.2854843 52.1259304,21.7803411 L52.1259304,31.441147 C52.1259304,36.3296532 57.2438479,34.9195072 57.2438479,36.5960141 C57.2438479,37.0921766 56.8,36.9916384 56.4082164,36.9916384 C55.9643685,36.9916384 54.8345739,36.790562 50.747529,36.790562 C48.8758186,36.790562 47.001505,36.9916384 45.1363026,36.9916384 C44.8395363,36.9916384 44.6429937,36.7461685 44.6429937,36.448471 C44.6429937,35.2119819 48.2341265,35.6376371 48.2341265,31.3889194 L48.2341265,7.01689572 C48.2341265,2.27723828 44,4.29975326 44,2.62063494 C44,2.32293745 44.3956884,2.02915703 44.9879195,2.02915703 C45.8756152,2.02915703 45.6244051,2.22762203 48.136506,2.22762203 C50.9896278,2.22762203 53.7971934,2.02915703 56.3587553,2.02915703 C57.1449258,2.02915703 68.0224527,1.04074913 68.0224527,10.5735973 C68.0224527,14.4227737 65.268253,17.7353111 61.8215985,19.1154263 L70.0425463,31.6095811 Z M52.1259304,18.0277859 C52.1259304,18.9665775 55.1768965,18.7211076 57.4898515,18.7211076 C59.6088672,18.7211076 64.3323978,17.8293209 64.3323978,11.7095483 C64.3323978,5.68247977 59.7546471,3.6586591 54.933496,3.6586591 C53.1555013,3.6586591 52.1259304,3.5594266 52.1259304,5.48662615 L52.1259304,18.0277859 L52.1259304,18.0277859 Z" id="Fill-8" fill="#231F20"></path>
                </g>
            </g>
        </g>
    </g>
</svg>