<svg xmlns="http://www.w3.org/2000/svg" width="143" height="120"><g fill="none" fill-rule="evenodd"><path fill="#222" d="M64.427 22.281c.956-.197 3.267-1.553 4.473-.326.852.869-.132 5.63-.161 5.92-.018.15-.016.227.011.25.026.02.074 0 .15-.046 4.537-2.763 4.472-7.15 2.14-8.886-1.747-1.301-4.766-1.115-8.074 2.352.292.488.869.86 1.46.736zM58.349 77.05c2.68-6.61 6.842-12.577 10.508-18.11.062 9.703 1.82 20.713 5.182 26.183 1.248 2.03 3.271 1.69 4.034 1.371-1.742-4.48-3.686-16.695-3.452-27.992.124-5.969.799-10.213 1.266-13.083 1.95 3.906 3.967 7.734 6.963 11.14 1.056 1.2 2.496 1.208 3.17 1.072.177-.035.25-.117.182-.215-5.112-7.457-8.916-19.882-9.044-21.047-.438-3.794-2.551-6.693-7.315-7.531-.416-.073-.737.2-.866.522 2.689 1.39 5.747 3.285 5.85 6.915.16 5.536-6.646 12.608-12.558 21.915-9.52 14.983-12.124 25.603-10.474 30.135.79 2.17 2.334 2.162 3.745 2.162 0-4.774 1.105-9.236 2.81-13.437zm.442-57.667c-1.255-4.025-1.551-9.528 1.061-18.86-1.622.09-3.187 1.172-4.115 4.75-1.557 5.993-1.404 10.548-.576 14.241 1.456 6.5 5.005 10.33 5.02 14.63.016 4.721 5.897 6.233 4.484 9.136-1.063 2.184-3.866 2.544-6.074 5.392-3.233 4.169-1.926 8.574-1.248 9.153.049.04.11.072.138.062.02-.007.023-.043.015-.128-.066-.751-.96-4.622 3.303-7.896 2.856-2.19 6.343-3.729 7.466-6.288 1.707-3.893-3.753-5.92-3.927-9.85-.268-6.066-3.816-8.801-5.547-14.343zm71.997 93.216l-1.073-3.202c-.518-1.483-.829-2.942-.853-3.021h-.054c-.026.08-.388 1.563-.88 3.021l-1.02 3.202h3.88zm1.114 3.329h-6.056l-1.047 3.284h-4.222s5.629-15.374 5.672-15.496c.5-1.366.962-1.936 2.774-1.936.923 0 1.515.041 2.006.087l6.53 17.345h-4.558l-1.1-3.284zm-65.069-3.33l-1.071-3.2c-.518-1.484-.83-2.943-.854-3.022h-.053c-.026.08-.388 1.563-.88 3.021l-1.021 3.202h3.88zm1.115 3.33h-6.056l-1.047 3.284h-4.222l5.673-15.496c.5-1.366.961-1.936 2.774-1.936.922 0 1.514.041 2.006.087l6.531 17.345h-4.559l-1.1-3.284zm-44.136-3.33l-1.072-3.2c-.517-1.484-.83-2.943-.853-3.022h-.054c-.026.08-.387 1.563-.88 3.021l-1.02 3.202h3.88zm1.115 3.33H18.87l-1.047 3.284H13.6s5.63-15.374 5.673-15.496c.5-1.366.962-1.936 2.774-1.936.923 0 1.515.041 2.006.087l6.532 17.345h-4.56l-1.1-3.284zm62.226-10.625v-3.436H75.56v17.345h4.194v-6.421h5.248c.655 0 1.061-.066 1.305-.284.25-.222.331-.601.334-1.227v-1.917h-6.887v-4.06h7.4zm-47.506 4.067v1.782c.003.59.081.966.279 1.2.244.29.671.361 1.36.361h1.484v2.88c-.377.228-1.316.546-2.483.546-3.365 0-4.658-2.756-4.658-5.568 0-2.885 1.55-5.546 4.97-5.546 1.888 0 3.109.597 4.012 1.196l1.104-1.911c.29-.51.404-.844.336-1.106-.072-.275-.346-.473-.827-.71-1.098-.51-2.517-.933-4.55-.933-6.136 0-9.475 4.243-9.475 8.955s3.027 9.008 9.115 9.008c3.424 0 5.393-1.008 6.445-1.614v-8.54h-7.112zm13.281-1.05a2.218 2.218 0 00-2.212 2.223c0 1.228.991 2.223 2.212 2.223a2.217 2.217 0 002.212-2.223c0-1.228-.99-2.224-2.212-2.224zm64.393 11.052c-1.788 0-2.719-.944-3.375-2.088-.304-.531-1.752-3.019-1.752-3.019-1.028-1.781-1.397-1.82-2.097-1.82h-.605v6.767h-4.193v-17.339h6.507c4.197 0 6.658 1.77 6.658 5.104 0 2.836-1.865 4.289-3.785 4.756v.067c.52.364 1.195 1.034 2.128 2.517l3.32 4.895c-.611.1-1.89.16-2.806.16zm-3.053-12.137c0-1.458-.83-2.21-2.719-2.21h-2.057v4.424h2.051c1.737 0 2.725-.808 2.725-2.214zm-11.28-2.302c.2-.24.272-.618.273-1.206l.002-1.86H88.831v3.436h4.808v13.91h4.234v-13.91h3.75c.703 0 1.125-.084 1.364-.37zm-90.722 9.28c-.015 3.105-2.621 5.311-6.609 5.311-2.016 0-3.322-.404-4.348-.885-.81-.38-1.225-.691-1.298-1.103-.049-.284.064-.615.322-1.052l1.012-1.728c.983.658 2.54 1.41 4.023 1.41 1.834 0 2.885-.534 2.885-1.641 0-1.354-1.256-1.587-4.46-2.807-2.359-.9-3.742-2.747-3.742-5.21 0-3.021 2.829-4.947 6.066-4.947 1.885 0 3.676.448 4.56.899.439.223.696.45.769.744.065.262-.018.576-.249.989l-1.028 1.848c-.812-.517-2.12-1.123-3.396-1.123-1.36 0-2.76.385-2.76 1.484 0 1.624 2.223 2.05 3.898 2.616 2.524.853 4.371 2.045 4.355 5.195z"/><path fill="#000" d="M141.427 116.516h-.23v.53h.175c.189 0 .36-.044.36-.266 0-.159-.08-.264-.305-.264zm.408 1.548l-.387-.604c-.083-.134-.13-.171-.25-.171v.775h-.335v-1.817h.614c.396 0 .605.227.605.525 0 .273-.18.432-.447.475a1 1 0 01.213.255l.372.562h-.385zm-.392-2.177c-.722 0-1.26.528-1.26 1.287 0 .765.538 1.289 1.26 1.289.727 0 1.261-.524 1.261-1.289 0-.759-.534-1.287-1.261-1.287zm0 2.853a1.56 1.56 0 01-1.552-1.566 1.56 1.56 0 011.552-1.565c.86 0 1.557.7 1.557 1.565a1.56 1.56 0 01-1.557 1.566z"/></g></svg>