<svg width="320" height="25" viewBox="0 0 320 25" fill="none" xmlns="http://www.w3.org/2000/svg">
<path d="M6.4943 18.7728C4.99036 18.7728 3.72188 18.4915 2.68887 17.9288C1.65586 17.351 0.759567 16.6363 0 15.7847L2.82559 13.5493C3.25095 14.2792 3.77505 14.8418 4.39789 15.2372C5.02074 15.6174 5.71195 15.8075 6.47151 15.8075C7.29184 15.8075 7.91469 15.5794 8.34005 15.1232C8.7806 14.667 9.00087 14.1499 9.00087 13.5721C9.00087 13.2223 8.90213 12.9258 8.70464 12.6825C8.50715 12.4392 8.2489 12.2339 7.92988 12.0666C7.61086 11.8841 7.23867 11.7245 6.81332 11.5876C6.40315 11.4507 5.97779 11.3139 5.53724 11.177C4.97516 10.9945 4.41308 10.7968 3.85101 10.5839C3.28893 10.371 2.78002 10.0897 2.32428 9.73996C1.88373 9.375 1.51913 8.934 1.2305 8.41697C0.957055 7.88473 0.820333 7.22324 0.820333 6.43248C0.820333 5.76338 0.957055 5.1399 1.2305 4.56204C1.50394 3.98418 1.88373 3.48236 2.36985 3.05657C2.87116 2.61557 3.45603 2.27342 4.12445 2.03011C4.80806 1.7868 5.54484 1.66515 6.33479 1.66515C7.00321 1.66515 7.60327 1.72597 8.13496 1.84763C8.68185 1.96928 9.17557 2.13656 9.61612 2.34945C10.0719 2.56235 10.482 2.82086 10.8466 3.125C11.2264 3.41393 11.5834 3.73327 11.9176 4.08303L9.36546 6.0219C8.65147 4.95742 7.64884 4.42518 6.35758 4.42518C5.59801 4.42518 5.02074 4.60766 4.62576 4.97263C4.23079 5.33759 4.0333 5.78619 4.0333 6.31843C4.0333 6.65298 4.12445 6.93431 4.30675 7.16241C4.48904 7.39051 4.7321 7.5958 5.03593 7.77828C5.35495 7.94556 5.71954 8.09763 6.12971 8.23449C6.53987 8.37135 6.97283 8.51582 7.42857 8.66788C7.99065 8.85036 8.55273 9.06326 9.11481 9.30657C9.69208 9.53467 10.2086 9.83881 10.6643 10.219C11.1353 10.5839 11.515 11.0401 11.8037 11.5876C12.0923 12.1198 12.2366 12.7889 12.2366 13.5949C12.2366 14.2488 12.1075 14.8875 11.8492 15.5109C11.591 16.1344 11.2188 16.6895 10.7327 17.1761C10.2466 17.6475 9.6465 18.0353 8.93251 18.3394C8.21852 18.6283 7.40578 18.7728 6.4943 18.7728Z" fill="black"/>
<path d="M20.1238 18.8184C19.3186 18.8184 18.5211 18.6664 17.7311 18.3622C16.9564 18.0429 16.2576 17.5867 15.6347 16.9936C15.0119 16.4005 14.5106 15.6782 14.1308 14.8266C13.751 13.9599 13.5611 12.979 13.5611 11.8841C13.5611 10.774 13.7434 9.79319 14.108 8.94161C14.4878 8.07482 14.9815 7.34489 15.5892 6.75182C16.212 6.15876 16.9184 5.71016 17.7084 5.40602C18.5135 5.08668 19.3338 4.92701 20.1694 4.92701C21.0505 4.92701 21.8632 5.09428 22.6076 5.42883C23.3519 5.76338 23.9672 6.21959 24.4533 6.79744V5.20073H27.5296V18.5447H24.4533V16.8111C23.9672 17.4346 23.3443 17.9288 22.5848 18.2938C21.8252 18.6436 21.0049 18.8184 20.1238 18.8184ZM20.6251 15.99C21.2024 15.99 21.7341 15.8835 22.2202 15.6706C22.7063 15.4577 23.1241 15.1612 23.4735 14.781C23.8229 14.4009 24.0963 13.9599 24.2938 13.458C24.5065 12.9562 24.6128 12.4164 24.6128 11.8385C24.6128 11.2759 24.5065 10.7436 24.2938 10.2418C24.0963 9.73996 23.8229 9.30657 23.4735 8.94161C23.1241 8.56144 22.7063 8.2649 22.2202 8.05201C21.7341 7.83911 21.2024 7.73266 20.6251 7.73266C20.063 7.73266 19.5313 7.83911 19.03 8.05201C18.5439 8.2649 18.1185 8.55383 17.7539 8.9188C17.3893 9.28376 17.1007 9.71715 16.888 10.219C16.6905 10.7208 16.5918 11.2606 16.5918 11.8385C16.5918 12.4164 16.6905 12.9638 16.888 13.4808C17.1007 13.9827 17.3893 14.4237 17.7539 14.8038C18.1185 15.1688 18.5439 15.4577 19.03 15.6706C19.5313 15.8835 20.063 15.99 20.6251 15.99Z" fill="black"/>
<path d="M29.3931 5.20073H32.4466V6.75182C32.8719 6.18917 33.4036 5.74818 34.0417 5.42883C34.6949 5.09428 35.4317 4.92701 36.252 4.92701C37.3002 4.92701 38.1813 5.1323 38.8953 5.54288C39.6245 5.93826 40.1866 6.50091 40.5815 7.23084C41.0373 6.53133 41.6373 5.97628 42.3817 5.56569C43.1413 5.1399 43.9996 4.92701 44.9566 4.92701C46.7492 4.92701 48.1012 5.42883 49.0127 6.43248C49.9242 7.42092 50.38 8.78193 50.38 10.5155V18.5447H47.2353V10.7664C47.2353 9.79319 46.9923 9.02524 46.5062 8.46259C46.02 7.88473 45.2984 7.5958 44.3414 7.5958C43.5059 7.5958 42.8071 7.88473 42.245 8.46259C41.6829 9.04045 41.4019 9.91484 41.4019 11.0858V18.5447H38.28V10.6752C38.28 9.71715 38.0446 8.96442 37.5737 8.41697C37.1027 7.86953 36.4039 7.5958 35.4772 7.5958C34.6113 7.5958 33.8897 7.89234 33.3125 8.4854C32.7504 9.07847 32.4694 9.96807 32.4694 11.1542V18.5447H29.3931V5.20073Z" fill="black"/>
<path d="M57.1488 18.8184C55.6752 18.8184 54.4523 18.5447 53.4801 17.9973C52.5078 17.4346 51.7558 16.6286 51.2241 15.5794L54.0725 14.2108C54.3915 14.8342 54.8245 15.3133 55.3714 15.6478C55.9183 15.9824 56.5563 16.1496 57.2855 16.1496C58.045 16.1496 58.6147 15.99 58.9945 15.6706C59.3743 15.3513 59.5642 14.9711 59.5642 14.5301C59.5642 14.2868 59.473 14.0891 59.2907 13.937C59.1236 13.785 58.8958 13.6557 58.6071 13.5493C58.3337 13.4276 58.0071 13.3288 57.6273 13.2527C57.2475 13.1767 56.8525 13.0931 56.4424 13.0018C55.8651 12.8802 55.2954 12.7357 54.7333 12.5684C54.1865 12.4012 53.6927 12.1731 53.2522 11.8841C52.8116 11.58 52.4546 11.1998 52.1812 10.7436C51.9078 10.2722 51.771 9.68674 51.771 8.98723C51.771 8.45499 51.8926 7.94556 52.1356 7.45894C52.3939 6.95712 52.7509 6.51612 53.2066 6.13595C53.6623 5.75578 54.2092 5.45925 54.8473 5.24635C55.5005 5.01825 56.2221 4.9042 57.012 4.9042C58.3489 4.9042 59.4578 5.15511 60.3389 5.65694C61.2352 6.14355 61.9416 6.81265 62.4581 7.66423L59.8376 8.98723C59.5642 8.51581 59.1844 8.14325 58.6983 7.86953C58.2122 7.5958 57.6501 7.45894 57.012 7.45894C56.2829 7.45894 55.7436 7.60341 55.3942 7.89234C55.0448 8.18127 54.8701 8.51582 54.8701 8.89599C54.8701 9.33698 55.1283 9.65633 55.6448 9.85402C56.1613 10.0365 56.9209 10.2342 57.9235 10.4471C58.4704 10.5535 59.0173 10.698 59.5642 10.8805C60.1263 11.0477 60.6352 11.2835 61.0909 11.5876C61.5467 11.8765 61.9112 12.2567 62.1847 12.7281C62.4733 13.1843 62.6176 13.7622 62.6176 14.4617C62.6176 14.9331 62.5113 15.4273 62.2986 15.9443C62.0859 16.4462 61.7517 16.9176 61.296 17.3586C60.8554 17.7844 60.2934 18.1341 59.6098 18.4078C58.9261 18.6816 58.1058 18.8184 57.1488 18.8184Z" fill="black"/>
<path d="M75.8272 18.5447H72.7737V17.0164C72.3484 17.5791 71.8167 18.0201 71.1786 18.3394C70.5406 18.6588 69.7962 18.8184 68.9455 18.8184C67.3656 18.8184 66.1123 18.3166 65.1856 17.313C64.2741 16.3093 63.8184 14.9103 63.8184 13.1159V5.20073H66.9402V12.7965C66.9402 13.8306 67.1681 14.6518 67.6238 15.26C68.0948 15.8531 68.8164 16.1496 69.7886 16.1496C70.6393 16.1496 71.3457 15.8379 71.9078 15.2144C72.4699 14.5909 72.7509 13.6937 72.7509 12.5228V5.20073H75.8272V18.5447Z" fill="black"/>
<path d="M77.7265 5.20073H80.78V6.84307C81.2205 6.26521 81.775 5.8014 82.4434 5.45164C83.127 5.10189 83.9018 4.92701 84.7677 4.92701C86.4235 4.92701 87.7148 5.42883 88.6415 6.43248C89.5833 7.43613 90.0543 8.83516 90.0543 10.6296V18.5447H86.9324V10.9489C86.9324 9.91484 86.6818 9.10128 86.1805 8.50821C85.6792 7.89994 84.9272 7.5958 83.9246 7.5958C83.0435 7.5958 82.2991 7.90754 81.6914 8.53102C81.099 9.1545 80.8027 10.0517 80.8027 11.2226V18.5447H77.7265V5.20073Z" fill="black"/>
<path d="M102.317 16.7655C101.831 17.4042 101.208 17.906 100.448 18.271C99.6888 18.636 98.8609 18.8184 97.9646 18.8184C97.1594 18.8184 96.3619 18.6664 95.5719 18.3622C94.7972 18.0429 94.0984 17.5867 93.4755 16.9936C92.8527 16.4005 92.3514 15.6782 91.9716 14.8266C91.5918 13.9599 91.4019 12.979 91.4019 11.8841C91.4019 10.774 91.5842 9.79319 91.9488 8.94161C92.3286 8.07482 92.8223 7.34489 93.43 6.75182C94.0528 6.15876 94.7592 5.71016 95.5491 5.40602C96.3543 5.08668 97.1746 4.92701 98.0101 4.92701C98.8912 4.92701 99.704 5.10949 100.448 5.47445C101.193 5.82421 101.808 6.30322 102.294 6.9115V5.20073H105.37V18.2026C105.37 19.1454 105.218 20.0274 104.915 20.8485C104.626 21.6697 104.193 22.3844 103.616 22.9927C103.038 23.6162 102.317 24.1028 101.451 24.4526C100.6 24.8175 99.6128 25 98.4887 25C97.6228 25 96.8328 24.9012 96.1188 24.7035C95.42 24.521 94.7896 24.2549 94.2275 23.9051C93.6654 23.5706 93.1717 23.1676 92.7463 22.6962C92.321 22.24 91.9564 21.7305 91.6526 21.1679L94.387 19.5027C94.8731 20.3999 95.42 21.069 96.0277 21.51C96.6353 21.951 97.4709 22.1715 98.5342 22.1715C99.1115 22.1715 99.6356 22.0651 100.107 21.8522C100.577 21.6393 100.972 21.358 101.291 21.0082C101.626 20.6585 101.876 20.2479 102.043 19.7765C102.226 19.305 102.317 18.8184 102.317 18.3166V16.7655ZM98.4659 15.99C99.0432 15.99 99.5749 15.8835 100.061 15.6706C100.547 15.4577 100.965 15.1612 101.314 14.781C101.664 14.4009 101.937 13.9599 102.135 13.458C102.347 12.9562 102.454 12.4164 102.454 11.8385C102.454 11.2759 102.347 10.7436 102.135 10.2418C101.937 9.73996 101.664 9.30657 101.314 8.94161C100.965 8.56144 100.547 8.2649 100.061 8.05201C99.5749 7.83911 99.0432 7.73266 98.4659 7.73266C97.9038 7.73266 97.3721 7.83911 96.8708 8.05201C96.3847 8.2649 95.9593 8.55383 95.5947 8.9188C95.2301 9.28376 94.9415 9.71715 94.7288 10.219C94.5313 10.7208 94.4326 11.2606 94.4326 11.8385C94.4326 12.4164 94.5313 12.9638 94.7288 13.4808C94.9415 13.9827 95.2301 14.4237 95.5947 14.8038C95.9593 15.1688 96.3847 15.4577 96.8708 15.6706C97.3721 15.8835 97.9038 15.99 98.4659 15.99Z" fill="black"/>
<path d="M112.821 18.5447V1.89325H118.153C119.141 1.89325 120.014 2.03771 120.774 2.32664C121.548 2.60036 122.202 2.99574 122.733 3.51277C123.265 4.0146 123.668 4.62287 123.941 5.33759C124.23 6.0371 124.374 6.82025 124.374 7.68704C124.374 8.69069 124.131 9.63352 123.645 10.5155C123.174 11.3823 122.483 12.059 121.571 12.5456L124.898 18.5447H121.366L118.7 13.458H115.92V18.5447H112.821ZM117.88 10.6068C118.518 10.6068 119.049 10.5307 119.475 10.3786C119.915 10.2114 120.265 9.99088 120.523 9.71715C120.796 9.42822 120.986 9.10128 121.093 8.73631C121.214 8.37135 121.275 7.98358 121.275 7.57299C121.275 6.72141 121.002 6.04471 120.455 5.54288C119.923 5.04106 119.065 4.79015 117.88 4.79015H115.92V10.6068H117.88Z" fill="black"/>
<path d="M131.644 18.8184C130.596 18.8184 129.639 18.6436 128.773 18.2938C127.907 17.9288 127.163 17.4346 126.54 16.8111C125.933 16.1877 125.454 15.4577 125.105 14.6214C124.77 13.7698 124.603 12.865 124.603 11.9069C124.603 10.9337 124.778 10.0213 125.127 9.16971C125.492 8.31813 125.986 7.5806 126.609 6.95712C127.231 6.33364 127.961 5.83942 128.796 5.47445C129.647 5.10949 130.558 4.92701 131.531 4.92701C132.518 4.92701 133.429 5.10189 134.265 5.45164C135.116 5.78619 135.845 6.26521 136.453 6.88869C137.06 7.49696 137.531 8.21928 137.865 9.05566C138.215 9.89203 138.389 10.8044 138.389 11.7929V12.9562H127.543C127.756 13.899 128.219 14.6594 128.933 15.2372C129.647 15.8151 130.551 16.104 131.644 16.104C132.51 16.104 133.262 15.8911 133.9 15.4653C134.538 15.0395 135.017 14.4693 135.336 13.7546L137.865 15.2144C137.288 16.2941 136.475 17.1685 135.427 17.8376C134.394 18.4915 133.133 18.8184 131.644 18.8184ZM131.531 7.64142C130.604 7.64142 129.799 7.89234 129.115 8.39416C128.447 8.89599 127.976 9.55748 127.702 10.3786H135.268C135.04 9.48145 134.599 8.80474 133.946 8.34854C133.293 7.87713 132.488 7.64142 131.531 7.64142Z" fill="black"/>
<path d="M144.781 18.8184C143.307 18.8184 142.084 18.5447 141.112 17.9973C140.14 17.4346 139.388 16.6286 138.856 15.5794L141.705 14.2108C142.024 14.8342 142.457 15.3133 143.003 15.6478C143.55 15.9824 144.188 16.1496 144.918 16.1496C145.677 16.1496 146.247 15.99 146.627 15.6706C147.006 15.3513 147.196 14.9711 147.196 14.5301C147.196 14.2868 147.105 14.0891 146.923 13.937C146.756 13.785 146.528 13.6557 146.239 13.5493C145.966 13.4276 145.639 13.3288 145.259 13.2527C144.88 13.1767 144.485 13.0931 144.074 13.0018C143.497 12.8802 142.928 12.7357 142.365 12.5684C141.819 12.4012 141.325 12.1731 140.884 11.8841C140.444 11.58 140.087 11.1998 139.813 10.7436C139.54 10.2722 139.403 9.68674 139.403 8.98723C139.403 8.45499 139.525 7.94556 139.768 7.45894C140.026 6.95712 140.383 6.51612 140.839 6.13595C141.294 5.75578 141.841 5.45925 142.479 5.24635C143.133 5.01825 143.854 4.9042 144.644 4.9042C145.981 4.9042 147.09 5.15511 147.971 5.65694C148.867 6.14355 149.574 6.81265 150.09 7.66423L147.47 8.98723C147.196 8.51581 146.816 8.14325 146.33 7.86953C145.844 7.5958 145.282 7.45894 144.644 7.45894C143.915 7.45894 143.376 7.60341 143.026 7.89234C142.677 8.18127 142.502 8.51582 142.502 8.89599C142.502 9.33698 142.76 9.65633 143.277 9.85402C143.793 10.0365 144.553 10.2342 145.556 10.4471C146.102 10.5535 146.649 10.698 147.196 10.8805C147.758 11.0477 148.267 11.2835 148.723 11.5876C149.179 11.8765 149.543 12.2567 149.817 12.7281C150.105 13.1843 150.25 13.7622 150.25 14.4617C150.25 14.9331 150.143 15.4273 149.931 15.9443C149.718 16.4462 149.384 16.9176 148.928 17.3586C148.488 17.7844 147.925 18.1341 147.242 18.4078C146.558 18.6816 145.738 18.8184 144.781 18.8184Z" fill="black"/>
<path d="M158.17 18.8184C157.122 18.8184 156.165 18.6436 155.299 18.2938C154.433 17.9288 153.689 17.4346 153.066 16.8111C152.458 16.1877 151.98 15.4577 151.63 14.6214C151.296 13.7698 151.129 12.865 151.129 11.9069C151.129 10.9337 151.304 10.0213 151.653 9.16971C152.018 8.31813 152.511 7.5806 153.134 6.95712C153.757 6.33364 154.486 5.83942 155.322 5.47445C156.172 5.10949 157.084 4.92701 158.056 4.92701C159.044 4.92701 159.955 5.10189 160.791 5.45164C161.641 5.78619 162.37 6.26521 162.978 6.88869C163.586 7.49696 164.057 8.21928 164.391 9.05566C164.74 9.89203 164.915 10.8044 164.915 11.7929V12.9562H154.068C154.281 13.899 154.744 14.6594 155.458 15.2372C156.172 15.8151 157.076 16.104 158.17 16.104C159.036 16.104 159.788 15.8911 160.426 15.4653C161.064 15.0395 161.542 14.4693 161.861 13.7546L164.391 15.2144C163.814 16.2941 163.001 17.1685 161.953 17.8376C160.92 18.4915 159.659 18.8184 158.17 18.8184ZM158.056 7.64142C157.129 7.64142 156.324 7.89234 155.641 8.39416C154.972 8.89599 154.501 9.55748 154.228 10.3786H161.793C161.565 9.48145 161.125 8.80474 160.471 8.34854C159.818 7.87713 159.013 7.64142 158.056 7.64142Z" fill="black"/>
<path d="M172.423 18.8184C171.618 18.8184 170.82 18.6664 170.03 18.3622C169.256 18.0429 168.557 17.5867 167.934 16.9936C167.311 16.4005 166.81 15.6782 166.43 14.8266C166.05 13.9599 165.86 12.979 165.86 11.8841C165.86 10.774 166.043 9.79319 166.407 8.94161C166.787 8.07482 167.281 7.34489 167.888 6.75182C168.511 6.15876 169.218 5.71016 170.007 5.40602C170.813 5.08668 171.633 4.92701 172.468 4.92701C173.35 4.92701 174.162 5.09428 174.907 5.42883C175.651 5.76338 176.266 6.21959 176.752 6.79744V5.20073H179.829V18.5447H176.752V16.8111C176.266 17.4346 175.643 17.9288 174.884 18.2938C174.124 18.6436 173.304 18.8184 172.423 18.8184ZM172.924 15.99C173.502 15.99 174.033 15.8835 174.519 15.6706C175.005 15.4577 175.423 15.1612 175.773 14.781C176.122 14.4009 176.395 13.9599 176.593 13.458C176.806 12.9562 176.912 12.4164 176.912 11.8385C176.912 11.2759 176.806 10.7436 176.593 10.2418C176.395 9.73996 176.122 9.30657 175.773 8.94161C175.423 8.56144 175.005 8.2649 174.519 8.05201C174.033 7.83911 173.502 7.73266 172.924 7.73266C172.362 7.73266 171.83 7.83911 171.329 8.05201C170.843 8.2649 170.418 8.55383 170.053 8.9188C169.688 9.28376 169.4 9.71715 169.187 10.219C168.99 10.7208 168.891 11.2606 168.891 11.8385C168.891 12.4164 168.99 12.9638 169.187 13.4808C169.4 13.9827 169.688 14.4237 170.053 14.8038C170.418 15.1688 170.843 15.4577 171.329 15.6706C171.83 15.8835 172.362 15.99 172.924 15.99Z" fill="black"/>
<path d="M181.692 5.20073H184.746V7.18522C185.369 5.86223 186.508 5.20073 188.164 5.20073C188.65 5.20073 189.083 5.25395 189.463 5.3604C189.858 5.46685 190.207 5.60371 190.511 5.77099L189.349 8.69069C189.121 8.53862 188.863 8.41697 188.574 8.32573C188.3 8.21928 187.943 8.16606 187.503 8.16606C186.607 8.16606 185.923 8.42457 185.452 8.94161C184.996 9.44343 184.768 10.2722 184.768 11.4279V18.5447H181.692V5.20073Z" fill="black"/>
<path d="M197.555 18.8184C196.583 18.8184 195.671 18.636 194.821 18.271C193.985 17.906 193.256 17.4118 192.633 16.7883C192.01 16.1648 191.516 15.4349 191.152 14.5985C190.802 13.747 190.628 12.8422 190.628 11.8841C190.628 10.9109 190.802 10.0061 191.152 9.16971C191.516 8.31813 192.01 7.5806 192.633 6.95712C193.256 6.31843 193.985 5.82421 194.821 5.47445C195.671 5.10949 196.583 4.92701 197.555 4.92701C198.299 4.92701 198.998 5.03346 199.651 5.24635C200.32 5.44404 200.928 5.72536 201.474 6.09033C202.021 6.45529 202.5 6.88869 202.91 7.39051C203.32 7.89234 203.654 8.44738 203.913 9.05566L201.155 10.219C200.852 9.48905 200.381 8.91119 199.743 8.4854C199.12 8.0444 198.398 7.8239 197.578 7.8239C197.016 7.8239 196.492 7.93035 196.006 8.14325C195.535 8.35614 195.117 8.64507 194.752 9.01004C194.403 9.375 194.129 9.80839 193.932 10.3102C193.734 10.7968 193.636 11.3215 193.636 11.8841C193.636 12.4316 193.734 12.9562 193.932 13.458C194.129 13.9446 194.403 14.3704 194.752 14.7354C195.117 15.1004 195.542 15.3893 196.028 15.6022C196.514 15.8151 197.039 15.9215 197.601 15.9215C198.467 15.9215 199.203 15.6934 199.811 15.2372C200.434 14.7658 200.897 14.1651 201.201 13.4352L203.958 14.6214C203.7 15.2296 203.366 15.7923 202.956 16.3093C202.545 16.8263 202.067 17.2749 201.52 17.6551C200.988 18.0201 200.388 18.309 199.72 18.5219C199.051 18.7196 198.33 18.8184 197.555 18.8184Z" fill="black"/>
<path d="M205.125 1.66515H208.201V6.79744C208.657 6.21959 209.219 5.76338 209.887 5.42883C210.571 5.09428 211.338 4.92701 212.189 4.92701C213.844 4.92701 215.136 5.42883 216.062 6.43248C217.004 7.43613 217.475 8.83516 217.475 10.6296V18.5447H214.331V10.9717C214.331 9.92245 214.08 9.10128 213.579 8.50821C213.077 7.89994 212.325 7.5958 211.323 7.5958C210.897 7.5958 210.495 7.67944 210.115 7.84672C209.735 7.99878 209.401 8.22689 209.112 8.53102C208.839 8.83516 208.619 9.21533 208.452 9.67153C208.3 10.1277 208.224 10.6448 208.224 11.2226V18.5447H205.125V1.66515Z" fill="black"/>
<path d="M230.196 1.89325H233.318L239.243 18.5447H236.007L234.981 15.5794H228.533L227.507 18.5447H224.272L230.196 1.89325ZM229.581 12.6141H233.956L231.768 6.29562L229.581 12.6141Z" fill="black"/>
<path d="M240.351 5.20073H243.404V6.75182C243.83 6.18917 244.362 5.74818 245 5.42883C245.653 5.09428 246.39 4.92701 247.21 4.92701C248.258 4.92701 249.139 5.1323 249.853 5.54288C250.582 5.93826 251.144 6.50091 251.539 7.23084C251.995 6.53133 252.595 5.97628 253.34 5.56569C254.099 5.1399 254.957 4.92701 255.915 4.92701C257.707 4.92701 259.059 5.42883 259.971 6.43248C260.882 7.42092 261.338 8.78193 261.338 10.5155V18.5447H258.193V10.7664C258.193 9.79319 257.95 9.02524 257.464 8.46259C256.978 7.88473 256.256 7.5958 255.299 7.5958C254.464 7.5958 253.765 7.88473 253.203 8.46259C252.641 9.04045 252.36 9.91484 252.36 11.0858V18.5447H249.238V10.6752C249.238 9.71715 249.002 8.96442 248.532 8.41697C248.061 7.86953 247.362 7.5958 246.435 7.5958C245.569 7.5958 244.848 7.89234 244.27 8.4854C243.708 9.07847 243.427 9.96807 243.427 11.1542V18.5447H240.351V5.20073Z" fill="black"/>
<path d="M269.702 18.8184C268.654 18.8184 267.697 18.6436 266.831 18.2938C265.965 17.9288 265.22 17.4346 264.597 16.8111C263.99 16.1877 263.511 15.4577 263.162 14.6214C262.828 13.7698 262.661 12.865 262.661 11.9069C262.661 10.9337 262.835 10.0213 263.185 9.16971C263.549 8.31813 264.043 7.5806 264.666 6.95712C265.289 6.33364 266.018 5.83942 266.853 5.47445C267.704 5.10949 268.616 4.92701 269.588 4.92701C270.575 4.92701 271.487 5.10189 272.322 5.45164C273.173 5.78619 273.902 6.26521 274.51 6.88869C275.117 7.49696 275.588 8.21928 275.923 9.05566C276.272 9.89203 276.447 10.8044 276.447 11.7929V12.9562H265.6C265.813 13.899 266.276 14.6594 266.99 15.2372C267.704 15.8151 268.608 16.104 269.702 16.104C270.568 16.104 271.32 15.8911 271.958 15.4653C272.596 15.0395 273.074 14.4693 273.393 13.7546L275.923 15.2144C275.345 16.2941 274.533 17.1685 273.484 17.8376C272.451 18.4915 271.19 18.8184 269.702 18.8184ZM269.588 7.64142C268.661 7.64142 267.856 7.89234 267.172 8.39416C266.504 8.89599 266.033 9.55748 265.76 10.3786H273.325C273.097 9.48145 272.656 8.80474 272.003 8.34854C271.35 7.87713 270.545 7.64142 269.588 7.64142Z" fill="black"/>
<path d="M277.825 5.20073H280.878V7.18522C281.501 5.86223 282.641 5.20073 284.296 5.20073C284.783 5.20073 285.216 5.25395 285.595 5.3604C285.99 5.46685 286.34 5.60371 286.644 5.77099L285.481 8.69069C285.254 8.53862 284.995 8.41697 284.707 8.32573C284.433 8.21928 284.076 8.16606 283.636 8.16606C282.739 8.16606 282.056 8.42457 281.585 8.94161C281.129 9.44343 280.901 10.2722 280.901 11.4279V18.5447H277.825V5.20073Z" fill="black"/>
<path d="M287.639 5.20073H290.738V18.5447H287.639V5.20073ZM287.251 1.93887C287.251 1.36101 287.426 0.897202 287.775 0.547445C288.125 0.182482 288.596 0 289.188 0C289.796 0 290.267 0.182482 290.601 0.547445C290.95 0.897202 291.125 1.36101 291.125 1.93887C291.125 2.51673 290.95 2.98053 290.601 3.33029C290.267 3.68005 289.796 3.85493 289.188 3.85493C288.565 3.85493 288.087 3.68005 287.752 3.33029C287.418 2.98053 287.251 2.51673 287.251 1.93887Z" fill="black"/>
<path d="M299.006 18.8184C298.034 18.8184 297.122 18.636 296.272 18.271C295.436 17.906 294.707 17.4118 294.084 16.7883C293.461 16.1648 292.968 15.4349 292.603 14.5985C292.254 13.747 292.079 12.8422 292.079 11.8841C292.079 10.9109 292.254 10.0061 292.603 9.16971C292.968 8.31813 293.461 7.5806 294.084 6.95712C294.707 6.31843 295.436 5.82421 296.272 5.47445C297.122 5.10949 298.034 4.92701 299.006 4.92701C299.751 4.92701 300.449 5.03346 301.103 5.24635C301.771 5.44404 302.379 5.72536 302.926 6.09033C303.472 6.45529 303.951 6.88869 304.361 7.39051C304.771 7.89234 305.106 8.44738 305.364 9.05566L302.607 10.219C302.303 9.48905 301.832 8.91119 301.194 8.4854C300.571 8.0444 299.849 7.8239 299.029 7.8239C298.467 7.8239 297.943 7.93035 297.457 8.14325C296.986 8.35614 296.568 8.64507 296.203 9.01004C295.854 9.375 295.581 9.80839 295.383 10.3102C295.186 10.7968 295.087 11.3215 295.087 11.8841C295.087 12.4316 295.186 12.9562 295.383 13.458C295.581 13.9446 295.854 14.3704 296.203 14.7354C296.568 15.1004 296.993 15.3893 297.479 15.6022C297.966 15.8151 298.49 15.9215 299.052 15.9215C299.918 15.9215 300.654 15.6934 301.262 15.2372C301.885 14.7658 302.348 14.1651 302.652 13.4352L305.409 14.6214C305.151 15.2296 304.817 15.7923 304.407 16.3093C303.997 16.8263 303.518 17.2749 302.971 17.6551C302.439 18.0201 301.839 18.309 301.171 18.5219C300.503 18.7196 299.781 18.8184 299.006 18.8184Z" fill="black"/>
<path d="M312.594 18.8184C311.789 18.8184 310.992 18.6664 310.202 18.3622C309.427 18.0429 308.728 17.5867 308.105 16.9936C307.482 16.4005 306.981 15.6782 306.601 14.8266C306.221 13.9599 306.032 12.979 306.032 11.8841C306.032 10.774 306.214 9.79319 306.578 8.94161C306.958 8.07482 307.452 7.34489 308.06 6.75182C308.682 6.15876 309.389 5.71016 310.179 5.40602C310.984 5.08668 311.804 4.92701 312.64 4.92701C313.521 4.92701 314.334 5.09428 315.078 5.42883C315.822 5.76338 316.438 6.21959 316.924 6.79744V5.20073H320V18.5447H316.924V16.8111C316.438 17.4346 315.815 17.9288 315.055 18.2938C314.296 18.6436 313.475 18.8184 312.594 18.8184ZM313.096 15.99C313.673 15.99 314.204 15.8835 314.691 15.6706C315.177 15.4577 315.594 15.1612 315.944 14.781C316.293 14.4009 316.567 13.9599 316.764 13.458C316.977 12.9562 317.083 12.4164 317.083 11.8385C317.083 11.2759 316.977 10.7436 316.764 10.2418C316.567 9.73996 316.293 9.30657 315.944 8.94161C315.594 8.56144 315.177 8.2649 314.691 8.05201C314.204 7.83911 313.673 7.73266 313.096 7.73266C312.533 7.73266 312.002 7.83911 311.5 8.05201C311.014 8.2649 310.589 8.55383 310.224 8.9188C309.86 9.28376 309.571 9.71715 309.358 10.219C309.161 10.7208 309.062 11.2606 309.062 11.8385C309.062 12.4164 309.161 12.9638 309.358 13.4808C309.571 13.9827 309.86 14.4237 310.224 14.8038C310.589 15.1688 311.014 15.4577 311.5 15.6706C312.002 15.8835 312.533 15.99 313.096 15.99Z" fill="black"/>
</svg>
