<?xml version="1.0" encoding="UTF-8"?>
<svg xmlns="http://www.w3.org/2000/svg" xmlns:xlink="http://www.w3.org/1999/xlink" version="1.1" id="Layer_1" x="0px" y="0px" viewBox="0 0 434 188" style="enable-background:new 0 0 434 188;" xml:space="preserve">
<style type="text/css">
	.st0{fill:url(#SVGID_1_);}
	.st1{fill:url(#SVGID_2_);}
	.st2{fill:url(#SVGID_3_);}
	.st3{fill:#FFFFFF;}
	.st4{fill:#343533;}
</style>
<g>
	<g>
		<g>
			<linearGradient id="SVGID_1_" gradientUnits="userSpaceOnUse" x1="20.6084" y1="14.7304" x2="80.8103" y2="68.7351">
				<stop offset="0" style="stop-color:#EB008B"></stop>
				<stop offset="1" style="stop-color:#FFE600"></stop>
			</linearGradient>
			<path class="st0" d="M114.91,51.59L45.36,3.16c-4.76-3.32-12.03-2.68-16.14,1.43L4.04,29.76C-0.07,33.88,0,40.52,4.19,44.55     L55.75,94l42.88-41.13C102.82,48.85,110.15,48.28,114.91,51.59z"></path>
			<linearGradient id="SVGID_2_" gradientUnits="userSpaceOnUse" x1="15.1954" y1="171.8572" x2="81.8533" y2="118.0182">
				<stop offset="0" style="stop-color:#2E3191"></stop>
				<stop offset="0.0769" style="stop-color:#343F9A"></stop>
				<stop offset="0.5235" style="stop-color:#528CCB"></stop>
				<stop offset="0.8421" style="stop-color:#66BCE9"></stop>
				<stop offset="1" style="stop-color:#6DCEF5"></stop>
			</linearGradient>
			<path class="st1" d="M114.91,136.41l-69.56,48.43c-4.76,3.32-12.03,2.68-16.14-1.43L4.04,158.24     c-4.11-4.11-4.04-10.76,0.15-14.78L55.75,94l42.88,41.13C102.82,139.15,110.15,139.72,114.91,136.41z"></path>
			<linearGradient id="SVGID_3_" gradientUnits="userSpaceOnUse" x1="55.7512" y1="94" x2="170.7255" y2="94">
				<stop offset="0" style="stop-color:#37AA4A"></stop>
				<stop offset="0.3705" style="stop-color:#75C12E"></stop>
				<stop offset="1" style="stop-color:#DCE600"></stop>
			</linearGradient>
			<path class="st2" d="M114.92,136.41l52.23-36.37c2.39-1.66,3.57-3.85,3.57-6.04c0-0.55-0.07-1.09-0.22-1.63     c-0.15-0.54-0.37-1.07-0.67-1.59c-0.6-1.03-1.49-1.99-2.69-2.82l-52.24-36.38c-4.77-3.31-12.09-2.73-16.28,1.29L55.75,94     l42.88,41.13C102.82,139.15,110.16,139.72,114.92,136.41z"></path>
		</g>
		<g>
			<path class="st3" d="M115.27,72.13c-1.91-1.33-3.47-0.51-3.47,1.81v40.12c0,2.32,1.56,3.14,3.47,1.81l27.94-19.46     c1.91-1.33,1.91-3.5,0-4.82L115.27,72.13z"></path>
		</g>
	</g>
</g>
<g>
	<g>
		<path class="st4" d="M206.43,81.76c-3.07,0-4.93,1.5-4.93,4.14c0,2.36,1.43,3.71,3.78,4.21s3.36,0.71,6.14,1.21    c7.21,1.36,10.21,4,10.21,9.79v0.93c0,5.5-4.71,9.21-10.64,9.21h-13.78c-0.5,0-0.79-0.28-0.79-0.78v-3.43    c0-0.5,0.28-0.86,0.79-0.86h13.64c3.21,0,5.21-1.85,5.21-4.64c0-3.28-2.36-4.36-6.28-5c-2.14-0.36-3.86-0.71-6.07-1.21    c-5.07-1.14-7.78-4.14-7.78-9v-1.21c0-5.43,4.5-8.43,10.14-8.43h13.28c0.5,0,0.78,0.28,0.78,0.79v3.43c0,0.5-0.28,0.86-0.78,0.86    H206.43z"></path>
		<path class="st4" d="M257.13,110.46c0,0.43-0.36,0.78-0.79,0.78h-4c-0.43,0-0.78-0.36-0.78-0.78v-7.78l-2.93,3.43    c-2.14,2.5-4.64,5.57-9.5,5.57h-1.43c-6.21,0-10-3.85-10-11V88.47c0-8.35,6.28-12.21,13.07-12.21c4.36,0,8.07,1.14,10.79,2.64    v-1.43c0-0.43,0.35-0.79,0.78-0.79h4c0.43,0,0.79,0.36,0.79,0.79V110.46z M251.56,83.9c-2.5-1.57-5.79-2.57-9.79-2.57    c-4.64,0-8.5,2.07-8.5,7.14v12.5c0,3.43,1.78,5.64,4.92,5.64h0.57c3.36,0,5.14-2,7.57-4.64l5.22-5.86V83.9z"></path>
		<path class="st4" d="M294.4,110.46c0,0.5-0.28,0.78-0.78,0.78h-4c-0.5,0-0.79-0.28-0.79-0.78V86.69c0-3.36-2.07-5.36-5.07-5.36    h-0.65c-3.21,0-5.43,1.64-8.14,4.79l-4.29,4.93v19.42c0,0.43-0.36,0.78-0.79,0.78h-4c-0.43,0-0.79-0.36-0.79-0.78V77.48    c0-0.5,0.28-0.79,0.79-0.79h4c0.5,0,0.79,0.28,0.79,0.79v6.93l2.21-2.64c2.35-2.86,5.14-5.5,9.64-5.5h1.64    c6.14,0,10.21,3.43,10.21,10.42V110.46z"></path>
		<path class="st4" d="M302.26,65.64c0-0.43,0.35-0.78,0.78-0.78h4c0.43,0,0.79,0.36,0.79,0.78V84.4l2.21-2.64    c2.36-2.86,5.14-5.5,9.64-5.5h2c6.21,0,10,3.86,10,11v11.78c0,8.35-6.36,12.21-13.07,12.21h-15.57c-0.43,0-0.78-0.36-0.78-0.78    V65.64z M307.83,106.18h9.14c5.07,0,9.14-1.57,9.14-7.14V86.97c0-3.43-1.79-5.64-4.93-5.64h-0.93c-3.21,0-5.42,1.64-8.14,4.79    l-4.28,4.93V106.18z"></path>
		<path class="st4" d="M368.02,99.47c0,8.36-6.35,12.21-13.07,12.21h-3.29c-6.71,0-13.07-3.85-13.07-12.21v-11    c0-8.35,6.36-12.21,13.07-12.21h3.29c6.71,0,13.07,3.86,13.07,12.21V99.47z M362.45,88.47c0-5.57-4.07-7.14-9.14-7.14    s-9.14,1.57-9.14,7.14v11c0,5.57,4.07,7.14,9.14,7.14s9.14-1.57,9.14-7.14V88.47z"></path>
		<path class="st4" d="M396.65,83.26c-0.14,0.14-0.35,0.28-0.64,0.28c-0.14,0-0.36-0.07-0.5-0.22c-1.15-1.14-2.22-2-3.57-2h-0.57    c-1.85,0-3.5,1.36-5.28,3.71l-5.21,6.86v18.57c0,0.43-0.36,0.78-0.78,0.78h-4c-0.43,0-0.79-0.36-0.79-0.78V77.48    c0-0.43,0.36-0.79,0.79-0.79h3.93c0.57,0,0.86,0.28,0.86,0.79v7.28l3.21-4.21c2-2.57,4-4.28,6.92-4.28h1.07    c3.14,0,5.71,1.14,7.5,3.5c0.14,0.22,0.22,0.43,0.22,0.57c0,0.22-0.14,0.43-0.29,0.57L396.65,83.26z"></path>
		<path class="st4" d="M433,110.46c0,0.5-0.28,0.78-0.78,0.78h-4c-0.5,0-0.79-0.28-0.79-0.78V86.69c0-3.36-2.07-5.36-5.07-5.36    h-0.65c-3.21,0-5.42,1.64-8.14,4.79l-4.28,4.93v19.42c0,0.43-0.36,0.78-0.79,0.78h-4c-0.43,0-0.78-0.36-0.78-0.78V77.48    c0-0.5,0.28-0.79,0.78-0.79h4c0.5,0,0.79,0.28,0.79,0.79v6.93l2.21-2.64c2.36-2.86,5.14-5.5,9.64-5.5h1.64    c6.14,0,10.21,3.43,10.21,10.42V110.46z"></path>
	</g>
</g>
<g>
	<g>
		<path class="st4" d="M314.89,141.68c0,3.43-2.45,5.43-6.1,5.43h-5.58c-0.21,0-0.34-0.15-0.34-0.37v-1.47    c0-0.21,0.12-0.34,0.34-0.34h4.94c2.48,0,4.35-0.77,4.35-3.25v-3.74l-1.26,1.47c-0.92,1.07-1.99,2.39-4.08,2.39h-0.61    c-2.67,0-4.29-1.66-4.29-4.72v-5.24c0-3.59,2.7-5.24,5.61-5.24c1.87,0,3.47,0.49,4.63,1.14v-0.61c0-0.18,0.15-0.34,0.34-0.34h1.72    c0.18,0,0.34,0.15,0.34,0.34V141.68z M312.5,129.87c-1.07-0.67-2.48-1.1-4.2-1.1c-1.99,0-3.65,0.89-3.65,3.07v5.37    c0,1.47,0.77,2.42,2.12,2.42h0.25c1.44,0,2.21-0.86,3.25-1.99l2.24-2.51V129.87z"></path>
		<path class="st4" d="M323.93,141.62c-2.88,0-5.61-1.66-5.61-5.24v-4.54c0-3.59,2.73-5.24,5.61-5.24h1.41    c2.88,0,5.61,1.66,5.61,5.24v1.47c0,0.25-0.12,0.4-0.31,0.55l-1.56,1.32c-0.18,0.15-0.37,0.18-0.61,0.18h-7.76v1.01    c0,2.39,1.75,3.07,3.93,3.07h5.4c0.21,0,0.34,0.12,0.34,0.34v1.47c0,0.21-0.12,0.37-0.34,0.37H323.93z M328.56,131.83    c0-2.39-1.75-3.07-3.93-3.07c-2.18,0-3.93,0.67-3.93,3.04v1.38h7.85V131.83z"></path>
		<path class="st4" d="M346.65,136.56c0,3.59-2.73,5.24-5.61,5.24h-1.41c-2.88,0-5.61-1.66-5.61-5.24v-4.72    c0-3.59,2.73-5.24,5.61-5.24h1.41c2.88,0,5.61,1.66,5.61,5.24V136.56z M344.26,131.83c0-2.39-1.75-3.07-3.93-3.07    c-2.18,0-3.93,0.67-3.93,3.07v4.72c0,2.39,1.75,3.07,3.93,3.07c2.18,0,3.93-0.67,3.93-3.07V131.83z"></path>
		<path class="st4" d="M354.08,128.95c-1.32,0-2.12,0.64-2.12,1.78c0,1.01,0.61,1.59,1.62,1.81c1.01,0.21,1.44,0.31,2.64,0.52    c3.1,0.58,4.39,1.72,4.39,4.2v0.4c0,2.36-2.02,3.96-4.57,3.96h-5.92c-0.21,0-0.34-0.12-0.34-0.34v-1.47    c0-0.21,0.12-0.37,0.34-0.37h5.86c1.38,0,2.24-0.8,2.24-1.99c0-1.41-1.01-1.87-2.7-2.15c-0.92-0.15-1.66-0.31-2.61-0.52    c-2.18-0.49-3.34-1.78-3.34-3.86v-0.52c0-2.33,1.93-3.62,4.35-3.62h5.7c0.21,0,0.34,0.12,0.34,0.34v1.47    c0,0.21-0.12,0.37-0.34,0.37H354.08z"></path>
		<path class="st4" d="M370.55,141.62h-4.51v5.15c0,0.18-0.15,0.34-0.34,0.34h-1.72c-0.18,0-0.34-0.15-0.34-0.34v-19.66    c0-0.18,0.15-0.34,0.34-0.34h1.72c0.18,0,0.34,0.15,0.34,0.34v3.1l1.14-1.35c1.1-1.29,2.27-2.27,3.96-2.27h0.83    c2.51,0,4.02,1.29,4.02,3.86v6.23C375.98,139.62,373.8,141.62,370.55,141.62z M373.59,130.76c0-1.38-0.61-1.99-1.93-1.99h-0.34    c-1.23,0-1.87,0.74-2.82,1.78l-2.45,2.73v6.16h3.77c2.33,0,3.77-1.04,3.77-3.04V130.76z"></path>
		<path class="st4" d="M392.14,141.28c0,0.18-0.15,0.34-0.34,0.34h-1.72c-0.18,0-0.34-0.15-0.34-0.34v-3.34l-1.26,1.47    c-0.92,1.07-1.99,2.39-4.08,2.39h-0.61c-2.67,0-4.29-1.66-4.29-4.72v-5.24c0-3.59,2.7-5.24,5.61-5.24c1.87,0,3.47,0.49,4.63,1.14    v-0.61c0-0.18,0.15-0.34,0.34-0.34h1.72c0.18,0,0.34,0.15,0.34,0.34V141.28z M389.75,129.87c-1.07-0.67-2.48-1.1-4.2-1.1    c-1.99,0-3.65,0.89-3.65,3.07v5.37c0,1.47,0.77,2.42,2.12,2.42h0.25c1.44,0,2.21-0.86,3.25-1.99l2.24-2.51V129.87z"></path>
		<path class="st4" d="M403.52,141.28c0,0.21-0.15,0.34-0.37,0.34h-1.81c-2.39,0-3.86-1.44-3.86-3.86v-8.68l-2.42-0.46    c-0.18-0.03-0.37-0.12-0.37-0.34v-1.17c0-0.21,0.15-0.34,0.37-0.34h2.42v-1.44c0-0.25,0.03-0.4,0.25-0.58l1.53-1.26    c0.06-0.06,0.15-0.09,0.25-0.09c0.18,0,0.37,0.12,0.37,0.34v3.04h3.31c0.21,0,0.34,0.12,0.34,0.34v1.62    c0,0.21-0.12,0.34-0.34,0.34h-3.31v8.46c0,1.1,0.55,1.9,1.78,1.9h1.5c0.21,0,0.37,0.15,0.37,0.37V141.28z"></path>
		<path class="st4" d="M410.61,141.28c0,0.21-0.12,0.34-0.34,0.34h-1.69c-0.21,0-0.37-0.12-0.37-0.34v-12.21l-2.45-0.46    c-0.18-0.03-0.34-0.15-0.34-0.37v-1.13c0-0.21,0.12-0.34,0.34-0.34h4.51c0.21,0,0.34,0.12,0.34,0.34V141.28z M410.61,122.57    c0,0.2-0.12,0.35-0.32,0.35h-2.26c-0.2,0-0.35-0.14-0.35-0.35v-2.23c0-0.2,0.15-0.35,0.35-0.35h2.26c0.2,0,0.32,0.14,0.32,0.35    V122.57z"></path>
		<path class="st4" d="M426.83,141.28c0,0.18-0.15,0.34-0.34,0.34h-1.72c-0.18,0-0.34-0.15-0.34-0.34v-3.34l-1.26,1.47    c-0.92,1.07-1.99,2.39-4.08,2.39h-0.61c-2.67,0-4.29-1.66-4.29-4.72v-5.24c0-3.59,2.7-5.24,5.61-5.24c1.87,0,3.47,0.49,4.63,1.14    v-0.61c0-0.18,0.15-0.34,0.34-0.34h1.72c0.18,0,0.34,0.15,0.34,0.34V141.28z M424.44,129.87c-1.07-0.67-2.48-1.1-4.2-1.1    c-1.99,0-3.65,0.89-3.65,3.07v5.37c0,1.47,0.77,2.42,2.12,2.42h0.25c1.44,0,2.21-0.86,3.25-1.99l2.24-2.51V129.87z"></path>
		<path class="st4" d="M430.61,120.36c0-0.21,0.15-0.37,0.37-0.37h1.66c0.21,0,0.37,0.15,0.37,0.37v20.88    c0,0.21-0.15,0.37-0.37,0.37h-1.66c-0.21,0-0.37-0.15-0.37-0.37V120.36z"></path>
	</g>
</g>
</svg>
