<svg width="215" height="69" viewBox="0 0 215 69" fill="none" xmlns="http://www.w3.org/2000/svg">
<path d="M207.209 56.8528C207.209 62.6446 202.928 67.3348 197.659 67.3348H10.993C5.72364 67.3348 1.44226 62.6446 1.44226 56.8528V12.5854C1.44226 6.78231 5.72364 2.0921 10.993 2.0921H197.659C202.928 2.0921 207.209 6.78231 207.209 12.5741V56.8528Z" fill="white"/>
<path fill-rule="evenodd" clip-rule="evenodd" d="M10.993 68.7884H197.659C203.723 68.7884 208.652 63.4282 208.652 56.8528V12.5855C208.652 5.99872 203.723 0.649841 197.659 0.649841H10.993C4.92869 0.649841 0 5.99872 0 12.5855V56.8528C0 63.4396 4.92869 68.7884 10.993 68.7884ZM2.89589 12.5855C2.89589 7.59998 6.52995 3.54573 10.993 3.54573H197.659C202.133 3.54573 205.767 7.59998 205.767 12.5855V56.8528C205.767 61.8383 202.133 65.8926 197.659 65.8926H10.993C6.52995 65.8926 2.89589 61.8383 2.89589 56.8528V12.5855Z" fill="#004B8E"/>
<path d="M200.543 51.9923C200.543 56.955 196.387 60.9752 191.254 60.9752H152.006C146.873 60.9752 142.716 56.955 142.716 51.9923V17.5255C142.716 12.5627 146.873 8.54257 152.006 8.54257H191.254C196.387 8.54257 200.543 12.5741 200.543 17.5255V51.9923Z" fill="#1FB25A"/>
<path d="M45.9822 21.716L42.3481 28.8819L41.7235 28.5185C41.7349 28.3709 41.7462 28.246 41.7462 28.1665C41.7462 27.6554 41.3147 27.1217 40.4516 26.5425C37.8056 24.7028 34.7053 23.7829 31.1393 23.7829C29.5608 23.7829 28.1753 23.976 26.9715 24.3621C26.0971 24.6573 25.3816 25.1002 24.8479 25.7021C24.3028 26.2927 24.0302 26.94 24.0302 27.6441C24.0302 28.7911 24.723 29.5633 26.0971 29.9835C26.8125 30.1993 28.3457 30.4151 30.6851 30.6535L34.1829 31.0169C36.2611 31.2441 37.9418 31.5393 39.2251 31.9255C40.5084 32.3116 41.6554 32.8567 42.6434 33.5494C43.6541 34.2762 44.4491 35.2415 45.0396 36.4226C45.6301 37.6037 45.9141 38.8756 45.9141 40.227C45.9141 42.362 45.2213 44.2585 43.8358 45.9279C42.5866 47.4383 40.6447 48.5626 38.0213 49.2894C36.0567 49.8346 33.9557 50.1071 31.7185 50.1071C27.687 50.1071 23.7236 49.1418 19.7943 47.2112C18.9652 46.8251 18.4656 46.632 18.3066 46.632C18.1135 46.632 17.8069 46.8024 17.3867 47.1204L16.7394 46.791L20.0327 39.3299L20.6801 39.6478V39.9317C20.6801 40.6018 20.998 41.215 21.634 41.7828C22.5993 42.6459 24.0983 43.3841 26.1084 44.0087C28.1299 44.6333 30.0491 44.9399 31.8548 44.9399C33.8308 44.9399 35.5229 44.6106 36.9198 43.9406C37.692 43.5658 38.3052 43.0775 38.7709 42.4642C39.2365 41.851 39.4636 41.215 39.4636 40.545C39.4636 39.5343 38.9185 38.8188 37.8396 38.3873C37.0788 38.092 35.557 37.8194 33.2516 37.5583L29.822 37.2062C27.5166 36.9677 25.8927 36.7406 24.9387 36.5248C23.9848 36.309 23.0308 35.9683 22.0883 35.4914C20.7368 34.8214 19.6807 33.822 18.8971 32.4819C18.2044 31.2781 17.8523 29.8927 17.8523 28.3368C17.8523 25.7589 18.7381 23.6353 20.5097 21.9545C22.8264 19.74 26.3015 18.6271 30.9349 18.6271C32.8769 18.6271 34.6939 18.8201 36.3747 19.2176C38.0554 19.6151 40.145 20.3419 42.6548 21.398C43.5178 21.7387 44.0402 21.9091 44.2333 21.9091C44.5513 21.9091 44.9147 21.7387 45.3235 21.398L45.9481 21.7387L45.9822 21.716Z" fill="#004B8E"/>
<path fill-rule="evenodd" clip-rule="evenodd" d="M82.2092 33.6176C85.6275 34.9122 87.331 37.2971 87.331 40.7948C87.331 43.5658 86.3316 45.7462 84.3443 47.3248C83.3335 48.1084 82.1638 48.6762 80.8351 49.0283C79.5064 49.3803 77.8597 49.5507 75.9064 49.5507H55.1128V48.8352C55.6465 48.6876 56.0213 48.4945 56.2257 48.256C56.4301 48.0175 56.5323 47.6655 56.5323 47.2112V21.4775C56.5323 21.0119 56.4301 20.6712 56.2257 20.4328C56.0213 20.1943 55.6465 20.0012 55.1128 19.8536V19.1381H75.702C77.678 19.1381 79.2679 19.2858 80.4717 19.581C81.6755 19.8763 82.7316 20.3873 83.6402 21.0914C85.4345 22.4996 86.343 24.5438 86.343 27.2012C86.343 30.1652 84.9689 32.3116 82.2206 33.6176H82.2092ZM63.1872 31.2327H74.8389C76.6105 31.2327 77.837 30.9715 78.5411 30.4491C79.3247 29.8586 79.7222 28.9387 79.7222 27.6895C79.7222 26.4403 79.3474 25.4977 78.6093 24.964C77.8597 24.4189 76.6105 24.1463 74.8389 24.1463H63.1872V31.2327ZM74.4642 44.5311H63.1872V36.2409H74.4642C76.5765 36.2409 78.0755 36.5362 78.984 37.1154C80.0288 37.7967 80.5626 38.8756 80.5626 40.386C80.5626 41.8964 80.0402 42.9866 78.984 43.6567C78.0641 44.2358 76.5651 44.5311 74.4642 44.5311Z" fill="#004B8E"/>
<path fill-rule="evenodd" clip-rule="evenodd" d="M103.945 41.7942H117.766V41.8056L119.856 46.0869C120.151 46.6888 120.299 47.1431 120.299 47.4611C120.299 48.2106 119.81 48.6762 118.822 48.8352V49.5507H130.02V48.8352C129.395 48.7103 128.907 48.4718 128.532 48.1084C128.157 47.745 127.726 47.0636 127.237 46.0756L115.654 22.6359C115.381 22.0908 115.234 21.6025 115.234 21.1709C115.234 20.5463 115.677 20.1034 116.551 19.8536V19.1381H105.762V19.8536C106.626 20.1488 107.057 20.6372 107.057 21.3186C107.057 21.7615 106.887 22.3633 106.523 23.1015L95.3373 46.4731C94.9398 47.3361 94.5764 47.9153 94.2698 48.2106C93.9518 48.5059 93.4975 48.7216 92.907 48.8352V49.5507H102.969V48.8352C101.981 48.5854 101.481 48.1425 101.481 47.4838C101.481 47.1317 101.617 46.6661 101.901 46.0756L103.945 41.7942ZM110.93 26.7924L115.858 37.6264H105.921L110.93 26.7924Z" fill="#004B8E"/>
<path d="M159.91 42.4188C159.399 42.4188 158.899 42.203 158.547 41.7828C157.911 41.0333 158.013 39.8977 158.763 39.2731C159.955 38.2737 160.648 36.8314 160.648 35.3097C160.648 33.7879 159.967 32.357 158.763 31.3463C158.013 30.7103 157.911 29.5974 158.547 28.8365C159.183 28.087 160.296 27.9961 161.057 28.6207C163.056 30.3015 164.203 32.7431 164.203 35.2983C164.203 37.8535 163.056 40.3065 161.046 41.9872C160.716 42.2712 160.307 42.4074 159.91 42.4074V42.4188Z" fill="white"/>
<path d="M167.405 49.7437C166.94 49.7437 166.463 49.5506 166.111 49.1872C165.429 48.4718 165.463 47.3475 166.179 46.6775C169.359 43.668 171.107 39.6365 171.107 35.321C171.107 31.0056 169.359 26.9854 166.179 23.976C165.463 23.2946 165.429 22.1703 166.111 21.4662C166.792 20.7507 167.916 20.7167 168.62 21.398C172.516 25.0775 174.662 30.0289 174.662 35.3324C174.662 40.6358 172.516 45.5872 168.62 49.2781C168.28 49.5961 167.837 49.7664 167.394 49.7664L167.405 49.7437Z" fill="white"/>
<path d="M174.912 57.0686C174.446 57.0686 173.981 56.8982 173.64 56.5348C172.947 55.8307 172.97 54.7065 173.674 54.0137C178.773 49.0509 181.578 42.4074 181.578 35.3097C181.578 28.2119 178.762 21.5797 173.674 16.6056C172.97 15.9242 172.947 14.7886 173.64 14.0845C174.321 13.3804 175.446 13.369 176.15 14.0504C181.941 19.6946 185.144 27.2466 185.144 35.2983C185.144 43.35 181.953 50.9134 176.15 56.5576C175.809 56.8869 175.355 57.0572 174.912 57.0572V57.0686Z" fill="white"/>
<path fill-rule="evenodd" clip-rule="evenodd" d="M214.08 63.2124C213.455 62.5878 212.717 62.2812 211.854 62.2812C210.98 62.2812 210.23 62.5992 209.617 63.2124C208.992 63.8371 208.686 64.5752 208.686 65.4497C208.686 66.3241 209.004 67.0736 209.617 67.6869C210.23 68.3115 210.98 68.6181 211.854 68.6181C212.729 68.6181 213.467 68.3001 214.08 67.6869C214.693 67.0623 215 66.3241 215 65.4497C215 64.5752 214.693 63.8257 214.08 63.2124ZM209.89 63.4396C210.435 62.8831 211.093 62.6106 211.854 62.6106C212.615 62.6106 213.274 62.8831 213.808 63.4396C214.341 63.9847 214.614 64.6547 214.614 65.4383C214.614 66.2219 214.353 66.8919 213.808 67.4484C213.274 68.0049 212.626 68.2774 211.854 68.2774C211.082 68.2774 210.435 68.0049 209.89 67.4484C209.344 66.8919 209.072 66.2219 209.072 65.4383C209.072 64.6547 209.344 63.996 209.89 63.4396ZM210.435 67.1758V63.644H212.172C212.888 63.644 213.251 63.9847 213.251 64.6774C213.251 65.1771 213.092 65.4837 212.763 65.5973C213.058 65.6995 213.194 65.9266 213.194 66.2787V67.1872H212.729V66.3695C212.729 65.9948 212.558 65.8017 212.206 65.8017H210.878V67.1758H210.435ZM212.047 65.3815H210.9V65.3702V64.0528H212.184C212.445 64.0528 212.604 64.0982 212.683 64.1891C212.763 64.28 212.797 64.473 212.797 64.7683C212.797 65.1771 212.547 65.3815 212.047 65.3815Z" fill="#004B8E"/>
</svg>
