<svg width="231" height="29" viewBox="0 0 231 29" fill="none" xmlns="http://www.w3.org/2000/svg">
<path d="M45.4275 0.0642474C45.3774 0.0648279 40.4117 0.0811767 37.953 0.0525685C32.4742 -0.0174878 28.631 1.24179 25.4823 4.11473C22.9217 6.45115 21.4174 9.52959 19.9626 12.507C18.1317 16.2539 16.4021 19.793 12.7507 21.8165C10.2771 23.1879 2.73519 22.9695 2.65975 22.9678L2.40461 22.9596L2.32456 23.206C2.32456 23.206 1.34317 26.229 0.64053 28.4807L0.5 28.932H0.967085C2.76458 28.932 4.26546 28.9419 5.55383 28.9507C6.50873 28.9571 7.34901 28.9624 8.11041 28.9624C11.5747 28.9624 13.3889 28.8462 16.7943 28.1585C23.0559 26.8933 25.7772 21.5661 28.4092 16.4139C29.1424 14.9795 29.9003 13.496 30.7228 12.1276C32.6464 8.92476 34.5861 7.27783 37.0114 6.78859C37.8954 6.60994 38.8181 6.54515 39.7102 6.48267C40.9727 6.39394 42.2783 6.30169 43.4999 5.8866C45.4874 5.20995 45.7472 0.915432 45.7708 0.427949L45.7881 0.0630691L45.4275 0.0642474Z" fill="#D92931"/>
<path d="M47.2507 10.2141C46.4675 10.2141 45.6537 10.1849 44.8675 10.1569C41.4874 10.036 37.9926 9.9105 35.1216 11.92C31.8733 14.1939 29.7354 19.5271 30.4525 23.5665C30.9017 26.0949 32.3761 27.7489 34.7161 28.3508C36.8027 28.8861 38.4464 29 40.8366 29C41.6043 29 42.4492 28.9877 43.4098 28.9749C44.9217 28.9539 46.8044 28.9276 49.1214 28.9393C49.3811 28.9469 49.5608 28.9416 51.4153 23.0959L51.5593 22.6429H51.0899C47.6758 22.6429 44.3999 22.6429 40.7513 22.6516H40.7502C40.396 22.6516 39.8851 22.1793 39.7901 21.7648C39.4503 20.2778 39.6789 18.6811 40.3873 17.5976C40.8463 16.8958 41.4874 16.4545 42.2407 16.3208C43.9322 16.0213 45.482 16.047 47.1246 16.0767C48.6353 16.1018 50.1984 16.1293 51.9147 15.8876C53.7559 15.6284 54.1844 13.8419 54.5628 12.2656C54.6993 11.6964 54.8289 11.1587 55.0138 10.6905L55.2015 10.2147L47.2507 10.2141Z" fill="#D92931"/>
<path d="M81.5498 11.9151C81.4732 11.7394 81.1374 11.1918 80.789 10.9185C80.6738 10.8286 80.4717 10.6453 80.2229 10.5309C79.5623 10.2273 76.3439 10.0352 69.6113 10.1053C68.8136 10.1135 68.0804 10.1211 67.4648 10.124C67.7568 9.2757 68.066 8.4064 68.3782 7.52951C69.2168 5.17266 70.0835 2.73583 70.6946 0.502743L70.815 0.0631284H70.3652C69.9966 0.0631284 69.6838 0.0701375 69.3809 0.0771379C69.1091 0.0835579 68.8458 0.0893973 68.5567 0.0893973H68.5274C67.8028 0.0893973 66.7765 0.0672091 65.7537 0.04561C61.8408 -0.0384558 61.8385 -0.032625 61.6991 0.292566C61.6363 0.480555 55.3747 19.2209 52.4283 28.4779L52.2837 28.9315H52.7536C53.8813 28.9315 55.468 28.9268 56.9223 28.9221C58.6668 28.9163 60.4706 28.9111 60.5535 28.9105C60.8645 28.9817 60.8651 28.9829 61.577 26.9903C61.9462 25.9558 62.4415 24.5558 62.9575 23.0969C63.9504 20.2893 65.1627 16.8617 65.4847 16.0298C66.5237 16.0286 70.9319 16.0281 71.126 16.031C71.756 16.0392 71.983 16.8074 71.9904 17.1583C71.9985 17.5191 71.4226 19.1742 70.8657 20.775C70.3934 22.1318 69.8583 23.6707 69.4206 25.1128C69.2145 25.7952 69.1108 26.8735 69.4995 27.6675C70.0484 28.7914 71.9749 28.9554 74.2228 28.9554C74.6807 28.9554 75.1523 28.9484 75.6275 28.9414C76.2218 28.9332 76.8082 28.9245 77.3593 28.9315L77.6133 28.935L77.6893 28.6892C78.6235 25.6849 79.3786 23.3263 79.9781 21.4523C82.2962 14.2089 82.4742 14.0367 81.5498 11.9151L81.5498 11.9151Z" fill="#D92931"/>
<path d="M109.342 11.6142C108.861 10.9773 107.992 10.2183 106.581 10.2183H106.576C105.812 10.2207 104.794 10.2166 103.555 10.2143L99.2553 10.2067C97.4117 10.2049 95.9765 10.2073 94.2095 10.2096C92.3429 10.2125 90.1077 10.2154 86.6331 10.2154H86.3912L86.3106 10.4466C85.2457 13.504 84.3553 16.346 83.4948 19.0946C82.5647 22.0639 81.6029 25.1342 80.4222 28.4671L80.2581 28.9313H80.7441C83.5438 28.9313 89.2415 28.9237 89.2415 28.9237H89.4863L89.5652 28.6884C89.5946 28.5985 92.514 19.8682 93.9118 16.0927C94.7025 16.0676 97.5332 16.0156 99.2092 16.0787C99.5415 16.0909 99.9873 16.3174 100.163 16.5638C100.252 16.6882 100.231 16.7606 100.224 16.7845L99.7506 18.4349C97.4854 26.3339 97.194 27.3492 98.2059 28.4572C98.6356 28.9272 99.1395 28.9319 99.3065 28.933C100.836 28.9383 102.023 28.9424 102.946 28.9424C106.16 28.9424 106.172 28.891 106.228 28.6586C107.823 22.3126 109.874 14.4417 110.078 13.6903C110.184 13.2986 109.913 12.3709 109.342 11.6143L109.342 11.6142Z" fill="#D92931"/>
<path d="M139.538 10.2158C136.738 10.2158 131.909 10.2246 131.909 10.2246L131.676 10.2252L126.886 22.6504C126.049 22.6487 123.148 22.6423 121.166 22.6411C120.562 22.6405 120.297 22.0322 120.274 21.8226C120.176 20.9393 120.969 18.231 123.536 10.6759L123.692 10.2158L114.549 10.2193L114.479 10.4704C114.453 10.5603 111.905 19.537 110.328 24.8269C110.113 25.5497 110.402 26.5999 111.064 27.5025C111.733 28.4138 112.596 28.9363 113.434 28.9363H113.435L130.793 28.9323C132.391 28.9317 133.161 28.9317 133.532 28.8832C133.532 28.8832 133.643 28.8745 133.731 28.8406C133.813 28.7571 133.877 28.561 133.877 28.561C134.067 28.1126 134.39 27.1219 135.102 24.932C136.442 20.8114 138.469 14.5833 139.86 10.6806L140.026 10.2158L139.538 10.2158Z" fill="#D92931"/>
<path d="M225.586 0.29475L225.495 0.0676434L225.254 0.0769831C223.485 0.147039 221.841 0.116681 220.254 0.0869119C214.853 -0.0094133 210.189 -0.0975687 205.057 4.13624C201.621 6.97006 199.809 10.5658 197.89 14.3722C197.004 16.1318 196.087 17.9504 194.988 19.7112C194.446 20.5799 193.175 22.6156 187.953 22.6262C187.608 22.6256 186.734 22.6227 185.822 22.6191C184.424 22.6133 183.726 22.611 183.364 22.6244C183.064 22.1743 182.057 20.6348 181.288 19.4537C182.08 18.8664 184.541 17.0414 187.001 15.2141C188.495 14.1037 189.988 12.9921 191.107 12.1567C193.171 10.6154 193.171 10.6154 193.091 10.3649L193.013 10.1256H192.765C191.017 10.1256 189.525 10.1104 188.263 10.0976C184.883 10.0637 183.186 10.0468 182.469 10.3801C181.377 10.8892 180.171 11.6592 178.172 12.9355C177.32 13.479 176.322 14.1159 175.128 14.8638C176.688 10.4677 177.959 6.08969 179.547 0.506687L179.674 0.0635714H179.219C178.637 0.0635714 172.061 0.0729111 171.139 0.0746612L171.084 0.0361328L170.92 0.0927601C170.7 0.169236 170.566 0.215364 161.829 28.4812L161.689 28.9319H162.155C162.978 28.9319 164.046 28.9372 165.127 28.943C166.348 28.9494 167.278 28.9547 167.989 28.9547C170.275 28.9547 170.292 28.9039 170.357 28.6896C170.406 28.5536 171.825 24.9048 172.739 22.5579L177.229 28.9383H177.406C177.406 28.9383 189.247 28.9319 194.188 28.9232L194.275 28.9255C195.977 28.9821 197.477 28.5869 198.751 27.7526C200.273 26.7561 202.496 25.1605 204.211 22.8153C205.57 20.957 206.706 18.7771 207.908 16.4699C208.919 14.5275 209.965 12.5192 211.165 10.7018C212.191 9.14478 213.718 7.95146 215.701 7.15397C216.74 6.73654 217.943 6.71552 219.107 6.69509C220.837 6.66532 222.627 6.6338 224.038 5.35174C225.148 4.34291 225.711 0.608262 225.586 0.294759L225.586 0.29475Z" fill="#D92931"/>
<path d="M161.992 10.2144L155.993 10.2138C155.209 10.2138 154.396 10.1846 153.61 10.1566C150.234 10.0364 146.736 9.91026 143.864 11.9197C140.685 14.1452 138.548 19.3861 139.198 23.3642C139.614 25.9096 141.123 27.6792 143.449 28.3476C145.323 28.8859 146.827 28.9998 149.205 28.9992C149.949 28.9992 150.779 28.9881 151.731 28.9752C153.333 28.9536 155.326 28.9256 157.865 28.939C158.11 28.939 158.303 28.939 160.158 23.0957L160.302 22.6426H159.832C156.419 22.6426 153.142 22.6426 149.494 22.6514H149.493C149.138 22.6514 148.628 22.1791 148.533 21.7646C148.192 20.2776 148.422 18.6809 149.13 17.5973C149.589 16.8956 150.23 16.4542 150.983 16.3205C152.675 16.0216 154.222 16.0461 155.866 16.0765C157.378 16.1016 158.941 16.129 160.658 15.8873C162.498 15.6281 162.927 13.8417 163.305 12.2659C163.442 11.6967 163.571 11.159 163.756 10.6902L163.944 10.2144H161.992Z" fill="#D92931"/>
<path fill-rule="evenodd" clip-rule="evenodd" d="M228.89 2.03362C229.125 2.03362 229.335 2.01611 229.335 1.72012C229.335 1.48193 229.129 1.43756 228.936 1.43756H228.557V2.03363L228.89 2.03362ZM228.557 3.11426H228.28V1.19118H228.978C229.411 1.19118 229.625 1.35873 229.625 1.73821C229.625 2.08207 229.419 2.23211 229.151 2.26714L229.672 3.11426H229.361L228.877 2.27999H228.557L228.557 3.11426ZM228.894 3.54161C229.613 3.54161 230.18 2.95079 230.18 2.14805C230.18 1.35873 229.613 0.763246 228.894 0.763246C228.167 0.763246 227.6 1.35873 227.6 2.14805C227.6 2.95079 228.167 3.54161 228.894 3.54161ZM227.28 2.14805C227.28 1.19118 228.02 0.485352 228.894 0.485352C229.76 0.485352 230.5 1.19118 230.5 2.14805C230.5 3.11426 229.76 3.81951 228.894 3.81951C228.02 3.81951 227.28 3.11426 227.28 2.14805Z" fill="#D92931"/>
</svg>
