<?xml version="1.0" encoding="utf-8"?>
<!-- Generator: Adobe Illustrator 26.1.0, SVG Export Plug-In . SVG Version: 6.00 Build 0)  -->
<svg version="1.1" id="a" xmlns="http://www.w3.org/2000/svg" xmlns:xlink="http://www.w3.org/1999/xlink" x="0px" y="0px"
	 viewBox="0 0 1882.7 1146.5" style="enable-background:new 0 0 1882.7 1146.5;" xml:space="preserve">
<style type="text/css">
	.st0{fill:url(#SVGID_1_);}
	.st1{fill:#00AFF0;}
	.st2{fill:url(#SVGID_00000045589649790749942140000012881990844961255081_);}
	.st3{fill:url(#SVGID_00000120543225178690835330000002919129708106582929_);}
	.st4{fill:url(#SVGID_00000063603133233613253120000002833463319460298408_);}
	.st5{fill:url(#SVGID_00000056417578103186557170000005328284553344528820_);}
</style>
<path d="M72.2,812.2c6.5,3.4,12.6,6.5,18.3,9.5c20,10.3,35.1,18.8,43.2,31.4c21.2-2.2,43.8-4.3,67.5-6.5c-1.3-9.4-3.9-17.6-7.8-24.9
	c-15.8-29.5-50.6-43.2-77-57.4C84,747.1,51.7,735,51.7,699.6c0-23.3,18.6-38,40.7-38c25.5,0,43,14.7,53.8,22.5l7,41.1l26.6,0.1
	v-70.5c-9.8-2.6-44.5-10-92.4-10c-52.3,0-87.2,37.7-87.2,80.8C0.2,779,43.8,797.1,72.2,812.2z"/>
<path d="M290.5,839.1c-0.3-5.5-0.5-11.2-0.6-17h136.6c0-64.3-37.8-95.2-100.8-95.2s-106.9,49-106.9,109.1c0,3,0,6,0.3,8.9
	C241.9,843,265.7,841,290.5,839.1L290.5,839.1z M326.1,743.5c25.3,0,32,32.5,33.4,62h-68.1C292.3,773.1,303.7,743.5,326.1,743.5z"/>
<path d="M499.5,791.3l5-39.2c11.9-1,14.7-4.3,39.1,0c21.5,3.8,25.8,18.1,26.3,38.9v31l-0.2,0c21.9-0.9,44.1-1.8,66.7-2.6v-38.9
	c0-29.5-23.3-56.2-67.5-55.7c-56.3,0.5-86.3,12.9-105.8,20l1.8,46.3L499.5,791.3L499.5,791.3z"/>
<path d="M913.7,815.3c9.6,0,19.2,0.1,28.8,0.2l53.1-148.7l0.2,0.1l27.1-6.9v-10.4H928v10.4l33,6.9L913.7,815.3L913.7,815.3z"/>
<path d="M803.4,756l-19.6,60c7.2-0.1,14.4-0.2,21.6-0.3l9.5-27.3l8.8,27.1c21.1-0.2,42.4-0.3,63.9-0.3l-48.3-148.5l27.1-6.9v-10.4
	H749.5v9.5l23.5,7.3L803.4,756L803.4,756z"/>
<path d="M638.2,666.7L689.6,818c21.3-0.6,42.8-1.1,64.5-1.5l-46.7-149.7l24.4-6.9v-10.4H613.5v10.4l24.4,6.9L638.2,666.7z"/>
<path d="M1046,816.9c3.5-41.8,19.9-75.1,49.6-75.1s46.8,34.7,49.8,77.8c24,0.8,47.6,1.7,70.9,2.7c0-0.2-0.1-0.4-0.1-0.6
	c-6.5-64.5-63.9-96.4-120.6-96.4S985,755.3,975.7,815.7C999.5,816,1022.9,816.4,1046,816.9L1046,816.9z"/>
<path d="M1255.3,824.2c22.7,1,44.9,2.2,66.5,3.5v-31.6c11.4-10.5,24.9-18.5,43.3-18.5c14.7,0,22.4,4.8,28.5,9.5l20.6-46.1
	c-5.3-6.1-16.7-15.7-38.7-15.7c-27.1,0-49.4,38.5-57.1,53.2l-5.2-53.2l-89.9,5.3v9.9l31.9,8.1L1255.3,824.2L1255.3,824.2z"/>
<path d="M1446.4,835.7c23,1.7,45.2,3.4,66.6,5.2V631.1l-98.4,6.2v10l31.8,7.6V835.7L1446.4,835.7z"/>
<path d="M1621.4,850.6c-0.3-4.3-0.3-8.9-0.3-13.6c0.1-5.2,0.3-10.3,0.7-15.2c3.5-39.2,18.8-68.8,49.2-69.2
	c22.9,0,35.2,6.6,42.8,10.9v96.7c24.8,2.8,47.1,5.4,66.5,7.7V631.1l-110.3,6.2v11.4l43.7,8.1v87.2c-15.3-8.6-39-18.6-70.4-18.6
	c-53.1,0-86.9,38.8-92.1,96.4c-0.4,5.2-0.8,10.7-0.8,16.2c0,2,0,4.2,0.2,6.1C1575.5,846.2,1599.1,848.4,1621.4,850.6L1621.4,850.6z"
	/>
<linearGradient id="SVGID_1_" gradientUnits="userSpaceOnUse" x1="906.59" y1="927.8856" x2="906.59" y2="750.1678">
	<stop  offset="0" style="stop-color:#000000"/>
	<stop  offset="9.000000e-02" style="stop-color:#00121B"/>
	<stop  offset="0.34" style="stop-color:#004260"/>
	<stop  offset="0.56" style="stop-color:#006897"/>
	<stop  offset="0.76" style="stop-color:#0084BF"/>
	<stop  offset="0.91" style="stop-color:#0094D8"/>
	<stop  offset="1" style="stop-color:#009BE1"/>
</linearGradient>
<path class="st0" d="M133.7,853.1c4.1,6.5,6.3,14,6.3,23.5c0,27.2-22,48.7-51.3,48.7c-25,0-38.8-14.2-47.9-20.2l-10.5-40.8
	c-0.4,0-0.8,0.1-1.1,0.1l-28.8,3.4c-0.2,0-0.3,0-0.4,0l3.2,64.8c13.8,3.5,38,11.2,91.9,11.2s106.8-35.4,106.8-86.3
	c0-3.8-0.2-7.5-0.7-10.9C177.4,848.8,154.9,850.9,133.7,853.1L133.7,853.1z M342.3,919.1c-37.6-5.1-49.3-37.7-51.8-80
	c-24.8,2-48.6,3.9-71.4,5.9c4.2,60.8,50.4,101.2,107.6,101.2c60.1,0,91.7-22.9,104.1-32.9l-10-15.9
	C411.6,903.2,375.3,923.8,342.3,919.1L342.3,919.1z M636.4,819.5c-22.6,0.8-44.8,1.7-66.7,2.6l-48.1,5c-40.5,2.8-75.2,23.6-75.2,62
	s28,54.2,59,54.2c34.3,0,54.9-14.8,64.9-22.9l3.3,22.9l93.7-4.7v-10.6l-31-7.6L636.4,819.5L636.4,819.5z M569.9,903.8
	c-8.6,6.1-19.2,11.8-31,12.2c-21,0-32.1-11.8-32.1-33.1c0-22.7,17.2-37.4,43-40.2l20.1-2.4V903.8z M783.8,816l-15.2,47.1L754,816.5
	c-21.7,0.4-43.2,0.9-64.5,1.5l41.5,121.9h31.3l43-124.2C798.2,815.8,791,815.9,783.8,816L783.8,816z M913.7,815.3l-13,40.4
	l-13.1-40.5c-21.5,0-42.7,0.1-63.9,0.3l40.7,124.3h33.8l44.3-124.5C932.9,815.4,923.3,815.3,913.7,815.3L913.7,815.3z M1145.5,819.7
	c0,0.6,0.1,1.4,0.1,2.1c0.3,4.1,0.4,8.2,0.4,12.5c0,49.5-16.7,93.3-50.3,93.3s-50.3-43.8-50.3-93.3c0-4.2,0.1-8.4,0.3-12.5
	c0.1-1.6,0.3-3.3,0.4-4.8c-23.1-0.6-46.6-0.9-70.3-1.2c-0.2,2-0.5,4-0.7,6c-0.5,4-0.7,8.2-0.7,12.5c0,70,61,109.9,121.3,109.9
	s121.3-39.9,121.3-109.9c0-4-0.2-8-0.5-11.8C1193.1,821.4,1169.5,820.5,1145.5,819.7L1145.5,819.7z M1321.9,827.7
	c-21.7-1.2-43.8-2.4-66.5-3.5v97.3l-31.9,7.6v10h146.1v-11.4l-47.6-7.6L1321.9,827.7L1321.9,827.7z M1513,840.9
	c-21.4-1.7-43.6-3.5-66.6-5.2v85.8l-31.8,7.6v10h129.8v-10l-31.4-7.6V840.9L1513,840.9z M1780.4,867.9c-19.4-2.3-41.7-5-66.5-7.7
	v42.3c-9,5.2-19.1,12.8-39.5,12.8c-34.4,0-50.5-23.6-52.9-64.6c-22.3-2.2-45.9-4.3-70.7-6.5c2.1,64.8,37.8,99.6,93.2,99.6
	c27.6,0,53.7-9.9,69.9-22.7l2.3,22.3l97-4.3v-9.1l-32.8-8.4L1780.4,867.9L1780.4,867.9z"/>
<path d="M1829.2,926.5L1829.2,926.5c0-14.8,11.8-27,26.9-27s26.6,12,26.6,26.6v0.3c0,14.5-11.7,26.6-26.9,26.6
	S1829.2,940.9,1829.2,926.5L1829.2,926.5z M1880.3,926.4v-0.3c0-13.5-10.5-24.4-24.2-24.4s-24.5,11.2-24.5,24.7v0.1
	c0,13.2,10.5,24.1,24.2,24.1S1880.3,939.6,1880.3,926.4L1880.3,926.4z M1845.5,911.8h12.2c3.6,0,6.4,1.1,8.2,3
	c1.4,1.1,2.4,3,2.4,5.3l0,0c0,4.5-3,7.4-7.3,8l8.7,11h-5.1l-7.8-10.3h-7.2V939h-4V911.8L1845.5,911.8z M1857.3,925.2
	c4,0,6.8-1.6,6.8-4.9v0c0-2.8-2.6-4.7-6.5-4.7h-8.1v9.6L1857.3,925.2L1857.3,925.2z"/>
<g>
	<path class="st1" d="M561.8,1093.6v-0.3c0-29.2,23.1-53.2,54.8-53.2s54.5,23.6,54.5,52.9v0.3c0,29.2-23,53.2-54.8,53.2
		S561.8,1122.8,561.8,1093.6z M647.4,1093.6v-0.3c0-17.6-12.9-32.3-31.1-32.3s-30.8,14.4-30.8,32v0.3c0,17.6,12.9,32.3,31.1,32.3
		S647.4,1111.2,647.4,1093.6L647.4,1093.6z"/>
	<path class="st1" d="M688.2,1041.9h47c13.1,0,23.2,3.7,30,10.4c5.7,5.7,8.8,13.8,8.8,23.5v0.3c0,16.6-9,27-22,31.9l25.1,36.7h-26.4
		l-22-32.9h-17.8v32.9h-22.6L688.2,1041.9L688.2,1041.9z M733.7,1091.9c11,0,17.3-5.9,17.3-14.5v-0.3c0-9.7-6.8-14.7-17.8-14.7
		h-22.5v29.5L733.7,1091.9L733.7,1091.9z"/>
	<path class="st1" d="M794.4,1041.9H817v82.2h51.2v20.6h-73.9V1041.9z"/>
	<path class="st1" d="M920.6,1041.2h20.8l44.1,103.5h-23.6l-9.4-23.1H909l-9.4,23.1h-23L920.6,1041.2L920.6,1041.2z M944.3,1101.7
		l-13.7-33.3l-13.7,33.3H944.3L944.3,1101.7z"/>
	<path class="st1" d="M1001.3,1041.9h20.8l48.2,63.3v-63.3h22.3v102.8h-19.2l-49.8-65.3v65.3h-22.3L1001.3,1041.9L1001.3,1041.9z"/>
	<path class="st1" d="M1117.4,1041.9h40.1c32.3,0,54.6,22.2,54.6,51.1v0.3c0,28.9-22.3,51.4-54.6,51.4h-40.1V1041.9z M1157.4,1124.3
		c18.5,0,31-12.5,31-30.7v-0.3c0-18.2-12.5-31-31-31H1140v62H1157.4z"/>
	<path class="st1" d="M1224.7,1093.6v-0.3c0-29.2,23.1-53.2,54.8-53.2s54.5,23.6,54.5,52.9v0.3c0,29.2-23.1,53.2-54.8,53.2
		S1224.7,1122.8,1224.7,1093.6z M1310.3,1093.6v-0.3c0-17.6-12.9-32.3-31.1-32.3s-30.8,14.4-30.8,32v0.3c0,17.6,12.9,32.3,31.1,32.3
		S1310.3,1111.2,1310.3,1093.6L1310.3,1093.6z"/>
</g>
<linearGradient id="SVGID_00000046325182969791941540000016605414054466615230_" gradientUnits="userSpaceOnUse" x1="-4154.1973" y1="2614.4653" x2="-4154.1973" y2="2327.9507" gradientTransform="matrix(0.492 0.1972 0.1972 -0.492 3118.9692 2417.7773)">
	<stop  offset="0" style="stop-color:#78C8D7"/>
	<stop  offset="0.25" style="stop-color:#00AFF0"/>
	<stop  offset="1" style="stop-color:#00000F"/>
</linearGradient>
<path style="fill:url(#SVGID_00000046325182969791941540000016605414054466615230_);" d="M1546.9,422.1L1546.9,422.1
	c0,0-0.1,0-0.1-0.1C1546.8,422.1,1546.9,422.1,1546.9,422.1z"/>
<linearGradient id="SVGID_00000165193705016077276190000016464872458593405610_" gradientUnits="userSpaceOnUse" x1="-9162.5381" y1="6446.8979" x2="-9162.5381" y2="6281.2358" gradientTransform="matrix(0.3063 0.1228 0.1228 -0.3063 3564.9304 3514.1631)">
	<stop  offset="0" style="stop-color:#FFE600"/>
	<stop  offset="0.4" style="stop-color:#F5AF13"/>
	<stop  offset="0.8" style="stop-color:#EE7F24"/>
	<stop  offset="1" style="stop-color:#EB6D2B"/>
</linearGradient>
<path style="fill:url(#SVGID_00000165193705016077276190000016464872458593405610_);" d="M1546.7,422
	C1546.7,422,1546.8,422.1,1546.7,422C1546.8,422.1,1546.8,422.1,1546.7,422C1546.8,422.1,1546.7,422.1,1546.7,422z"/>
<linearGradient id="SVGID_00000114785051800998737170000001009861666115358614_" gradientUnits="userSpaceOnUse" x1="-5314.1675" y1="2614.4653" x2="-5314.1675" y2="1484.4954" gradientTransform="matrix(0.492 0.1972 0.1972 -0.492 3118.9692 2417.7773)">
	<stop  offset="0" style="stop-color:#78C8D7"/>
	<stop  offset="0.25" style="stop-color:#00AFF0"/>
	<stop  offset="1" style="stop-color:#00000F"/>
</linearGradient>
<path style="fill:url(#SVGID_00000114785051800998737170000001009861666115358614_);" d="M776.2,347.2
	c145.8-88.6,59.4-117.6-5.4-156.7c-69.5-41.7,223.3-101.8,776,231.6C896.6-63.3,525.3-25.9,607.1,35
	c81.8,60.9,195.7,110.7-57.1,216.2C306.2,352.8,222.2,421.9,222.2,421.9c203.7-44.9,389.7-67,553.9-74.8
	c-10.4,6.4-22.2,13.1-35.2,20.1C554.1,468.2,492.2,530.1,492.2,530.1c622.7-205.5,1054.6-108,1054.6-108s0,0,0-0.1
	C1537.5,419,1247.3,324.8,776.2,347.2z"/>
<linearGradient id="SVGID_00000047775713048267826070000003527680784103382920_" gradientUnits="userSpaceOnUse" x1="-10405.9502" y1="6446.8979" x2="-10405.9502" y2="5694.1982" gradientTransform="matrix(0.3063 0.1228 0.1228 -0.3063 3564.9304 3514.1631)">
	<stop  offset="0" style="stop-color:#FFE600"/>
	<stop  offset="0.4" style="stop-color:#F5AF13"/>
	<stop  offset="0.8" style="stop-color:#EE7F24"/>
	<stop  offset="1" style="stop-color:#EB6D2B"/>
</linearGradient>
<path style="fill:url(#SVGID_00000047775713048267826070000003527680784103382920_);" d="M770.9,190.5c64.8,39,151.1,68.1,5.4,156.7
	c471-22.3,761.2,71.9,770.5,74.9c0,0,0,0,0,0c0,0,0,0,0,0c0,0,0.1,0,0.1,0C994.2,88.7,701.4,148.8,770.9,190.5z"/>
</svg>
