<svg xmlns="http://www.w3.org/2000/svg" viewBox="0 0 1106.5 276.9" xmlns:v="https://vecta.io/nano"><path d="M89.5 51.3c0-19.3-13.9-31.6-33.6-31.6S21.2 33.9 21.2 54.8s15 35.5 40.1 35.5h42.4c59.8 0 98.7 40.5 98.7 93.3 0 53.2-40.1 93.3-94.9 93.3-55.9 0-94.9-38.6-94.9-91.8 0-19.3 6.6-39.7 16.6-54.8H52c-11.6 15-17.7 33.9-17.7 53.2 0 42 30.5 73.3 73.3 73.3s73.3-31.2 73.3-73.3-30.5-73.3-77.1-73.3h-42C19.7 110.3 0 85.2 0 54.8 0 24.7 25.1 0 55.9 0c33.9 0 54.8 22.8 54.8 49.4 0 3.2-.4 7.5-1.4 10.4h-21c.7-2.3 1.2-6.2 1.2-8.5z" fill="#05dd4d"/><path d="M606.3 144c-1 0-1.6.8-1.6 1.8 1.2 18.6 14.4 32.8 32.6 32.8 14.8 0 23.8-6.2 28.4-16h14.8c-5.6 19.2-22.4 29.4-43.2 29.4-30 0-47.4-21.6-47.4-52.8 0-28.8 20-51.2 47.2-51.2 26.2 0 44.6 18.6 44.6 46 0 3 0 6.2-.4 10h-75zm229.4 31.6h12.4V189h-12.2c-23.4 0-31.2-10.2-31.2-29.4V106c0-1.4-.8-2-2.2-2h-14.6V90.6h14.6c1.4 0 2.2-.6 2.2-2V62h14.8v26.6c0 1.4.6 2 2 2h26.6V104h-26.6c-1.4 0-2 .6-2 2v55.2c0 11.8 2.4 14.4 16.2 14.4zm237.6-87.8c19.8 0 33.2 13.4 33.2 35.6V189h-15v-61.2c0-16.4-7.2-26.2-22.8-26.2-16 0-26 11.6-26 28.4v59h-14.8v-61.2c0-16.4-7.4-26.2-23-26.2-16 0-26 12.4-26 28.4v59h-14.8V90.6h14.2v13.6c0 1.6 1.6 1.8 2.4.6 8-13 17.2-17 29-17 12.4 0 23 6 29.4 18.8.6 1 2.2 1.2 2.8 0 7.2-13 17.8-18.8 31.4-18.8zM895.9 192c-20.2 0-33.8-14.2-33.8-36.4v-65h15v60.8c0 17.4 8.4 27.2 24.2 27.2 17.4 0 28.6-13.2 28.6-29.2V90.6h14.8V189h-14v-15.8c0-1.8-1.8-2.2-2.6-.8-8 14.8-18.6 19.6-32.2 19.6zM746.3 87.8c20.4 0 34 14 34 36.4V189h-15v-60.8c0-17.4-8.4-27.2-24.2-27.2-17.4 0-28.6 13.2-28.6 29.2V189h-15V90.6h14.2v16c0 1.6 1.8 1.8 2.4.6 8.2-14.8 18.8-19.4 32.2-19.4zm-141.2 42.4c0 1.4 1 1.8 2 1.8h57.2c1.4 0 2.2-.6 2.2-2.2-.4-16.8-12.8-28.6-29.4-28.6-16.8 0-29.8 12-32 29zm-62.8 40.4l30-80h15.2L549.3 189h-16.6l-38.2-98.4h15.6l30 80c.2.6.6.8 1 .8.6 0 1-.2 1.2-.8zM467.9 49v140h14.8V49h-14.8zm-64.4 143c-28.2 0-48-22-48.8-52.2s21.2-52 48.8-52c28.4 0 49 21.8 49 52s-21.2 52.2-49 52.2zm0-90.8c-19.8 0-34 15.4-34 38.6s14.2 38.6 34 38.6c20 0 34-15.4 34-38.6s-14-38.6-34-38.6zm-102.2-.6c-15.2 0-23.4 6.4-23.4 15.2 0 8 6.6 11.6 18 13.8l18.6 3.6c21 4 29.4 14.8 29.4 29.4 0 18-15 29.4-39.8 29.4-24 0-41.8-10-42.6-33.2h14.6c2 14.8 13.2 20.4 28.6 20.4 14.2 0 23.8-5.2 23.8-15.6 0-9.2-6.2-14.8-19-17l-18.6-3.2c-19-3.2-27.6-12.8-27.6-26.4 0-17.2 13.6-29.2 38-29.2 21 0 38 9.8 39.2 30.2h-14.4c-1.6-10-10.2-17.4-24.8-17.4z" fill="#01332b"/></svg>