<svg width="131" height="43" viewBox="0 0 131 43" fill="none" xmlns="http://www.w3.org/2000/svg">
<path d="M47.2616 10.6959V10.6554C47.2616 6.6303 50.2956 3.33335 54.6444 3.33335C57.3143 3.33335 58.9122 4.22333 60.2269 5.51783L58.2447 7.80345C57.1525 6.81234 56.04 6.20554 54.6241 6.20554C52.2374 6.20554 50.5181 8.18775 50.5181 10.615V10.6554C50.5181 13.0826 52.1969 15.1053 54.6241 15.1053C56.2423 15.1053 57.2334 14.458 58.3458 13.4467L60.3281 15.4491C58.8717 17.0066 57.2536 17.9775 54.523 17.9775C50.3563 17.9775 47.2616 14.7614 47.2616 10.6959V10.6959Z" fill="#002855"/>
<path d="M60.8742 12.3747V12.3342C60.8742 9.21931 63.3823 6.69098 66.7601 6.69098C70.138 6.69098 72.6056 9.17886 72.6056 12.2938V12.3342C72.6056 15.4491 70.0975 17.9775 66.7197 17.9775C63.3418 17.9775 60.8742 15.4896 60.8742 12.3747V12.3747ZM69.5716 12.3747V12.3342C69.5716 10.7363 68.4187 9.34067 66.7197 9.34067C65.0206 9.34067 63.9082 10.6959 63.9082 12.2938V12.3342C63.9082 13.9321 65.0611 15.3278 66.7601 15.3278C68.4592 15.3278 69.5716 13.9726 69.5716 12.3747Z" fill="#002855"/>
<path d="M74.1631 6.89325H77.2375V9.07773C77.8646 7.58095 78.8759 6.61007 80.6963 6.69098V9.90702H80.5345C78.4916 9.90702 77.2375 11.1408 77.2375 13.7299V17.7347H74.1631V6.89325Z" fill="#002855"/>
<path d="M81.2626 12.3747V12.3342C81.2626 9.23954 83.4673 6.69098 86.6227 6.69098C90.2433 6.69098 91.9019 9.50248 91.9019 12.5769C91.9019 12.8197 91.8816 13.1028 91.8614 13.386H84.3169C84.6203 14.7816 85.5911 15.5098 86.9665 15.5098C87.9981 15.5098 88.7465 15.1862 89.596 14.3973L91.3557 15.9548C90.3444 17.2088 88.8881 17.9775 86.9261 17.9775C83.6696 17.9775 81.2626 15.6918 81.2626 12.3747V12.3747ZM88.9083 11.4645C88.7263 10.0891 87.9172 9.15863 86.6227 9.15863C85.3282 9.15863 84.5191 10.0688 84.2764 11.4645H88.9083V11.4645Z" fill="#002855"/>
<path d="M92.1851 6.89325H95.3L97.0395 13.4669L99.0823 6.85279H101.732L103.795 13.4871L105.575 6.89325H108.629L105.251 17.8156H102.48L100.397 11.1611L98.2733 17.8156H95.5225L92.1851 6.89325V6.89325Z" fill="#002855"/>
<path d="M108.852 12.3747V12.3342C108.852 9.23954 111.057 6.69098 114.212 6.69098C117.832 6.69098 119.491 9.50248 119.491 12.5769C119.491 12.8197 119.471 13.1028 119.451 13.386H111.906C112.209 14.7816 113.18 15.5098 114.556 15.5098C115.587 15.5098 116.336 15.1862 117.185 14.3973L118.945 15.9548C117.934 17.2088 116.477 17.9775 114.515 17.9775C111.259 17.9775 108.852 15.6918 108.852 12.3747V12.3747ZM116.497 11.4645C116.315 10.0891 115.506 9.15863 114.212 9.15863C112.917 9.15863 112.108 10.0688 111.866 11.4645H116.497Z" fill="#002855"/>
<path d="M121.109 2.96927H124.184V17.7347H121.109V2.96927Z" fill="#002855"/>
<path d="M126.914 2.96927H129.989V17.7347H126.914V2.96927Z" fill="#002855"/>
<path d="M48.455 25.3602H51.5699V30.963H57.3143V25.3602H60.4292V39.5189H57.3143V33.8352H51.5699V39.5189H48.455V25.3602Z" fill="#002855"/>
<path d="M62.0271 34.1588V34.1183C62.0271 31.0237 64.2318 28.4751 67.3872 28.4751C71.0077 28.4751 72.6663 31.2866 72.6663 34.3611C72.6663 34.6038 72.6461 34.887 72.6259 35.1701H65.0813C65.3847 36.5658 66.3556 37.2939 67.731 37.2939C68.7626 37.2939 69.5109 36.9703 70.3605 36.1815L72.1202 37.7389C71.1089 38.993 69.6525 39.7616 67.6906 39.7616C64.4341 39.7616 62.0271 37.476 62.0271 34.1588V34.1588ZM69.6728 33.2486C69.4907 31.8732 68.6817 30.9427 67.3872 30.9427C66.0926 30.9427 65.2836 31.853 65.0409 33.2486H69.6728V33.2486Z" fill="#002855"/>
<path d="M73.6979 36.4039V36.3635C73.6979 33.997 75.4981 32.9047 78.0668 32.9047C79.1591 32.9047 79.9479 33.0868 80.7165 33.3497V33.1677C80.7165 31.8934 79.9277 31.1855 78.3905 31.1855C77.2173 31.1855 76.388 31.408 75.3969 31.772L74.6283 29.4257C75.8217 28.8999 76.9948 28.556 78.8355 28.556C80.5143 28.556 81.7279 29.001 82.4965 29.7696C83.3055 30.5787 83.6696 31.772 83.6696 33.2284V39.5189H80.6963V38.3457C79.9479 39.175 78.9164 39.7211 77.4196 39.7211C75.3767 39.7211 73.6979 38.548 73.6979 36.4039V36.4039ZM80.757 35.696V35.1499C80.2311 34.9072 79.5434 34.7454 78.795 34.7454C77.4803 34.7454 76.6712 35.2713 76.6712 36.2421V36.2826C76.6712 37.1119 77.3589 37.5973 78.35 37.5973C79.7861 37.5973 80.757 36.8085 80.757 35.696Z" fill="#002855"/>
<path d="M85.753 24.7534H88.8274V39.5189H85.753V24.7534Z" fill="#002855"/>
<path d="M91.6187 36.4444V31.3068H90.3242V28.6774H91.6187V25.9063H94.6931V28.6774H97.2417V31.3068H94.6931V35.9387C94.6931 36.6467 94.9965 36.9905 95.6843 36.9905C96.2506 36.9905 96.7563 36.8489 97.2013 36.6062V39.0739C96.554 39.4582 95.8056 39.7009 94.7741 39.7009C92.893 39.7009 91.6187 38.9525 91.6187 36.4444V36.4444Z" fill="#002855"/>
<path d="M98.9003 24.7534H101.975V30.2146C102.683 29.3044 103.593 28.4751 105.15 28.4751C107.476 28.4751 108.832 30.0123 108.832 32.5002V39.5189H105.757V33.4711C105.757 32.0148 105.069 31.2664 103.896 31.2664C102.723 31.2664 101.975 32.0148 101.975 33.4711V39.5189H98.9003V24.7534Z" fill="#002855"/>
<path d="M38.3902 11.691C34.2721 2.43125 22.0187 -1.41182 12.8722 2.58092C8.00976 4.53482 3.43448 8.84715 1.57768 14.3852C1.54127 14.4944 1.58577 14.5066 1.64645 14.4095C7.56477 4.53482 21.4362 4.4701 27.3181 13.0179C32.2453 20.0365 29.1062 29.1062 21.06 32.1523C27.9128 35.1054 35.8497 31.1693 38.5561 24.4864C40.3562 20.5462 40.2834 15.5786 38.3943 11.691H38.3902Z" fill="#67F48C"/>
<path d="M2.47979 30.6839C6.59794 39.9436 18.8512 43.7867 27.9977 39.7939C32.8602 37.84 37.4355 33.5277 39.2923 27.9856C39.3287 27.8764 39.2842 27.8643 39.2235 27.9613C33.3052 37.836 19.4338 37.9007 13.5519 29.3529C8.62465 22.3343 11.7638 13.2646 19.81 10.2185C12.9572 7.26542 5.02026 11.2015 2.31393 17.8844C0.513756 21.8246 0.586572 26.7922 2.47574 30.6798L2.47979 30.6839Z" fill="#0ED7E5"/>
<path d="M109.378 24.9435H108.662V24.7048H110.336V24.9435H109.62V26.8812H109.374V24.9435H109.378ZM110.834 24.7048H111.097L111.947 25.9994L112.796 24.7048H113.051V26.8853H112.804V25.1458L111.963 26.4039H111.926L111.085 25.1458V26.8853H110.838V24.7048H110.834Z" fill="#002855"/>
</svg>
