<?xml version="1.0" encoding="utf-8"?>
<!-- Generator: Adobe Illustrator 26.0.2, SVG Export Plug-In . SVG Version: 6.00 Build 0)  -->
<svg version="1.1" id="Layer_1" xmlns="http://www.w3.org/2000/svg" xmlns:xlink="http://www.w3.org/1999/xlink" x="0px" y="0px"
	 viewBox="0 0 357 97" style="enable-background:new 0 0 357 97;" xml:space="preserve">
<style type="text/css">
	.st0{fill:#E9A821;}
	.st1{fill:#061E3F;}
	.st2{fill:none;stroke:#242D4A;stroke-width:2;}
</style>
<path class="st0" d="M192.1,44l-2,5.6L192,52l2-2.4L192.1,44z"/>
<path class="st0" d="M183,50.1l5.2,3.5l3-0.9l-1.9-2.5L183,50.1z"/>
<path class="st0" d="M201,50.1l-5.2,3.5l-3-0.9l1.9-2.5L201,50.1z"/>
<path class="st0" d="M197.7,60l-5.2-3.5l0-3l3.1,0.9L197.7,60z"/>
<path class="st0" d="M186.4,60l5.2-3.5l0-3l-3.1,0.9L186.4,60z"/>
<path class="st1" d="M233.7,30.8c-1.5,0-3.2,0.6-4.1,1.4c-1.5,1.2-2.6,2.9-2.6,5.3c0,1.8,0.6,3.4,1.7,4.5c1.2,1.4,3.1,2.3,5.2,2.3
	c1.1,0,2.8-0.3,4-1.2c1.5-1.1,2.8-3,2.8-5.7C240.7,33.7,237.7,30.8,233.7,30.8z M233.3,31.5c0.9,0,2.1,0.4,2.9,1.1
	c1.5,1.2,2.4,3.4,2.4,5.4c0,2.3-0.9,4-1.7,4.7c-0.2,0.2-1,0.9-2.5,0.9c-3.1,0-5.2-3.4-5.2-6.4c0-2.4,0.7-3.9,1.5-4.7
	C231.3,32,232.4,31.5,233.3,31.5z M248.6,37.1c0.1,0,0.2,0.1,0.2,0.2c0,1.2,0,4.2,0,4.9c0,0.9-0.1,1.2-1,1.4
	c-0.2,0.1-0.4,0.2-0.4,0.3s0.2,0.2,0.5,0.2c0.5,0,1-0.1,1.7-0.1c0.6,0,1.7,0.1,2,0.1c0.3,0,0.5-0.1,0.5-0.2c0-0.1-0.1-0.2-0.4-0.3
	c-1.2-0.3-1.2-0.5-1.2-1.2c0-0.4,0-4.6,0-5c0-0.1,0.1-0.2,0.1-0.2c0.9,0,2.7,0,3.3,0c0.1,0,0.2,0.2,0.2,0.3c0,0.6,0,4.1-0.1,5.4
	c0,0.3-0.2,0.5-0.7,0.7c-0.3,0.1-0.4,0.2-0.4,0.3c0,0.2,0.2,0.3,0.4,0.3c0.5,0,1.1-0.1,1.7-0.1c0.5,0,1.1,0.1,1.6,0.1
	c0.2,0,0.5-0.1,0.5-0.2c0-0.1-0.1-0.2-0.4-0.3c-0.6-0.2-0.8-0.3-0.8-0.7c-0.1-0.8-0.1-1.7-0.1-5.3c0-1.1,0-1.7-0.1-1.7
	c-0.2,0-0.3,0.1-0.5,0.1c-0.4,0.1-0.8,0.2-2.5,0.2c-0.8,0-1.4,0-1.9,0c-0.1,0-0.2-0.1-0.2-0.2c0-2.7,0.5-4.1,0.9-4.6
	c0.4-0.4,0.7-0.6,1.2-0.6c0.6,0,1.2,0.3,1.7,0.8c0.4,0.3,0.6,0.6,0.8,0.6c0.3,0,1-0.5,1-1c0-0.2,0-0.3-0.2-0.5
	c-0.3-0.4-0.8-0.9-2.1-0.9c-1.1,0-2.3,0.6-3,1.3c0,0-0.1,0.1-0.2,0c-0.4-0.4-1.2-0.7-2.2-0.7c-0.9,0-1.9,0.4-2.4,0.8
	c-0.8,0.5-1.6,1.4-1.9,2.2c-0.3,0.7-0.6,1.7-0.6,2.6c0,0.2-0.1,0.2-0.2,0.3c-0.3,0.2-0.9,0.5-0.9,0.6c0,0.2,0,0.4,0.2,0.4l0.7,0
	c0.1,0,0.2,0.1,0.2,0.2c0,1.1,0,4.2,0,4.8c-0.1,0.8-0.1,1-0.9,1.3c-0.3,0.1-0.4,0.2-0.4,0.3c0,0.1,0.2,0.2,0.5,0.2
	c0.2,0,0.9-0.1,1.6-0.1c0.4,0,1.6,0.1,1.9,0.1s0.6-0.1,0.6-0.3s-0.2-0.3-0.5-0.4c-0.7-0.2-0.9-0.5-0.9-1.2c-0.1-0.5-0.1-4.4-0.1-4.7
	c0-0.2,0.1-0.4,0.2-0.4H248.6z M245.3,36.2c-0.2,0-0.2-0.2-0.2-0.2c0-2.1,0.4-3.3,0.8-3.9c0.4-0.6,0.9-0.9,1.5-0.9
	c1.1,0,1.9,0.5,2.3,1c0,0.1,0,0.2,0,0.2c-0.5,0.9-0.9,2.2-0.9,3.7c0,0.1-0.1,0.2-0.2,0.2H245.3z M262.6,36c-0.6,0-1.9,0.3-2.6,0.8
	c-1.2,0.8-2,2-2,3.5c0,0.8,0.3,1.8,0.6,2.3c0.6,0.9,1.7,1.6,3,1.6c1.1,0,2.2-0.5,2.9-1.3c0.2-0.2,0.3-0.4,0.3-0.6
	c0-0.1-0.2-0.2-0.4,0c-0.5,0.4-1.1,0.6-1.8,0.6c-1.1,0-2-0.5-2.4-1.3c-0.1-0.1-0.6-0.8-0.6-2c0-0.9,0.3-1.8,0.8-2.4
	c0.3-0.4,0.9-0.6,1.1-0.6c0.7,0,1,0.3,1.7,0.8c0.3,0.3,0.7,0.4,0.8,0.4c0.1,0,0.7-0.5,0.7-0.8c0-0.2-0.1-0.5-0.3-0.6
	C264.1,36.1,263.2,36,262.6,36z M268.1,44c0.4,0,1.4,0.1,1.6,0.1c0.2,0,0.5-0.1,0.5-0.2c0-0.1-0.1-0.2-0.4-0.3
	c-0.5-0.2-0.9-0.2-0.9-0.8c0-0.7,0-1.5,0-2.5c0-1.1,0.1-3.8,0.1-4.1c0,0-0.1-0.2-0.2-0.2c-0.3,0.1-1.3,0.5-2.1,0.7
	c-0.2,0.1-0.4,0.2-0.4,0.4c0,0.1,0.1,0.1,0.2,0.2c0.6,0.4,0.8,0.6,0.8,0.7c0,0.2,0,2.2,0,2.8c0,0.8,0,2-0.1,2.3
	c-0.1,0.2-0.3,0.4-0.8,0.6c-0.3,0.1-0.5,0.2-0.5,0.3c0,0.1,0.2,0.2,0.5,0.2C266.7,44.1,267.5,44,268.1,44z M268.1,31.8
	c-0.3,0-0.6,0.1-0.8,0.3c-0.2,0.2-0.3,0.5-0.3,0.7c0,0.4,0.2,0.6,0.3,0.8c0.2,0.2,0.5,0.3,0.7,0.3c0.4,0,1-0.5,1-1
	C269,32.5,268.7,31.8,268.1,31.8z M274.7,35.9c-0.4,0-1.3,0.3-1.9,0.8c-1,0.7-1.5,1.2-1.5,1.8c0,0.1,0.1,0.3,0.2,0.3
	c0.1,0,1.2-0.5,1.4-0.7c0,0,0.1-0.1,0.1-0.2c0-0.5,0-0.8,0.1-0.8c0.1-0.1,0.4-0.2,0.8-0.2c1,0,1.5,0.8,1.5,1.3c0,0.2,0,1.4,0,1.6
	c0,0.1-0.1,0.2-0.5,0.4c-0.4,0.1-2.1,0.6-2.4,0.7c-0.3,0.1-0.6,0.2-0.8,0.5c-0.2,0.3-0.4,0.7-0.4,1c0,1,0.7,1.9,1.4,1.9
	c0.1,0,0.6,0,0.8-0.1c0.2-0.1,1.1-0.4,1.8-0.9c0,0,0.1,0,0.1,0.1c0.2,0.7,0.8,1,1.3,1c1,0,1.9-0.9,1.9-1.3c0,0,0-0.2,0-0.2
	c0-0.1-0.1-0.1-0.1-0.1c-0.2,0.1-0.7,0.3-0.8,0.3c-0.2,0-0.8-0.1-0.8-1c0-0.2,0.1-2.7,0.1-3.5c0-0.9-0.1-1.3-0.4-1.7
	C276.2,36.4,275.7,35.9,274.7,35.9z M274.1,43.1c-0.4,0-1.2-0.3-1.2-1.2c0-0.5,0.2-0.6,0.4-0.8c0.5-0.3,1.5-0.6,2-0.6
	c0.1,0,0.1,0.1,0.1,0.2c0,0.5,0,1.2,0,1.6c0,0.1-0.1,0.4-0.2,0.5C274.8,43,274.4,43.1,274.1,43.1z M279.5,30.9
	c0,0.1,0.1,0.2,0.4,0.4c0.4,0.3,0.5,0.4,0.5,0.6c0.1,0.6,0.1,2.7,0.1,4c0,3.2-0.1,5.3-0.1,6.1c-0.1,1-0.1,1.3-1,1.5
	c-0.2,0-0.4,0.2-0.4,0.3s0.1,0.2,0.6,0.2c0.4,0,1.3-0.1,1.8-0.1c0.4,0,1.3,0.1,1.8,0.1c0.2,0,0.5-0.1,0.5-0.2c0-0.1-0.2-0.2-0.4-0.3
	c-0.9-0.2-0.9-0.5-1-0.9c-0.1-0.6-0.1-4.1-0.1-6.8c0-2.7,0.1-5.4,0.2-5.9c0-0.1-0.1-0.2-0.2-0.2c-0.6,0.4-1.3,0.5-2.2,0.8
	C279.6,30.6,279.5,30.8,279.5,30.9z M287.6,31.4c0,0.2,0.3,0.3,0.5,0.4c1,0.2,1.1,0.6,1.6,1.6c0.7,1.4,2.6,5.7,3.3,7.5
	c0.8,1.8,1,2.7,1.2,3.2c0.1,0.3,0.2,0.4,0.4,0.4c0.1,0,0.4-0.2,0.5-0.5c0.5-1.5,1.6-3.7,2.3-5.2c0-0.1,0.1,0,0.2,0
	c0.7,1.7,1.8,3.9,2.2,5.1c0.1,0.3,0.3,0.4,0.3,0.4c0.2,0,0.4-0.3,0.5-0.5c0.5-1.4,0.7-1.6,2-4.7c1.3-3,2.6-5.4,2.8-5.9
	c0.6-1.1,0.9-1.3,1.7-1.5c0.4-0.1,0.5-0.2,0.5-0.4c0-0.1-0.2-0.2-0.5-0.2c-0.6,0-1.3,0.1-1.9,0.1c-0.4,0-0.9,0-1.4,0
	c-0.3,0-0.5,0.1-0.5,0.2c0,0.1,0.2,0.3,0.5,0.3c0.9,0.3,1,0.6,0.6,1.5c-1.2,2.7-2.7,6.1-3.6,8c-0.1,0.2-0.2,0.1-0.2,0
	c-0.4-0.7-1.3-2.7-2-4.3c0-0.1-0.1-0.3,0-0.4c1.1-2.1,1.6-3.1,1.8-3.4c0.6-1,0.9-1.2,1.6-1.4c0.4-0.1,0.6-0.2,0.6-0.4
	c0-0.1-0.2-0.2-0.4-0.2c-0.3,0-1,0-1.6,0c-0.7,0-1,0-1.4,0c-0.5,0-0.6,0.1-0.6,0.3c0,0.1,0.2,0.2,0.4,0.3c0.8,0.2,1.1,0.4,0.6,1.5
	c-0.4,0.9-0.7,1.6-1.2,2.6c0,0.1-0.1,0.1-0.2,0c-0.7-1.6-1.2-2.6-1.4-3.1c-0.2-0.6-0.2-0.8,0.6-1c0.3-0.1,0.5-0.2,0.5-0.4
	s-0.2-0.2-0.5-0.2c-0.2,0-1,0.1-1.9,0.1c-0.6,0-1.4,0-1.7,0c-0.3,0-0.6,0.1-0.6,0.2c0,0.1,0.1,0.3,0.5,0.4c0.8,0.2,0.9,0.4,1.5,1.6
	c0.3,0.7,1.2,2.6,1.9,4.4c0.1,0.1,0,0.2,0,0.3c-0.6,1.4-1.5,3.1-1.6,3.4c-0.1,0.1-0.1,0-0.2,0c-1.4-3-3.5-7.8-3.9-8.8
	c-0.1-0.3-0.1-0.6,0.6-0.8c0.4-0.1,0.5-0.3,0.5-0.4c0-0.1-0.1-0.2-0.5-0.2c-0.2,0-1.2,0.1-1.7,0.1c-0.8,0-1.3-0.1-2.2-0.1
	C287.8,31.1,287.6,31.2,287.6,31.4z M309.7,35.9c-0.4,0-1,0.1-1.6,0.3c-1.6,0.7-2.4,2.3-2.4,3.9c0,2.3,1.4,4,3.6,4
	c1.3,0,2.3-0.5,3-1.5c0.1-0.1,0.2-0.3,0.2-0.5c0-0.1-0.1-0.2-0.2-0.2c-0.1,0-0.2,0.1-0.3,0.2c-0.3,0.5-0.9,0.7-1.8,0.7
	c-1,0-1.8-0.5-2.3-1.1c-0.4-0.6-0.7-1.5-0.7-2.2c0-0.2,0-0.5,0.1-0.7c0-0.1,0.1-0.2,0.2-0.2c0.9,0,4.3,0,4.5,0s0.4-0.3,0.4-0.4
	c0-0.7-0.3-1.3-0.7-1.7C311.2,36.2,310.4,35.9,309.7,35.9z M309.5,36.4c0.7,0,1.3,0.7,1.3,1.2c0,0.4-0.2,0.5-0.7,0.5c-1,0-2,0-2.5,0
	c-0.1,0-0.1-0.1-0.1-0.2C307.8,37.1,308.6,36.4,309.5,36.4z M322.1,39.8c0-1.2-0.4-2.3-1.3-3.1c-0.6-0.6-1.5-0.9-2.5-0.9
	c-0.6,0-1.6,0.2-2.2,0.7c0,0-0.1,0-0.1-0.1c0-0.3,0-1.2,0-1.7c0-1.6,0.1-3.4,0.2-4.8c0-0.1-0.1-0.3-0.2-0.3c-0.1,0-0.3,0.1-0.6,0.2
	c-0.4,0.3-1.2,0.4-1.7,0.6c-0.1,0-0.3,0.2-0.3,0.3c0,0.1,0.1,0.2,0.4,0.4c0.4,0.3,0.5,0.6,0.5,0.7c0,0.3,0.1,3.2,0.1,5.1
	c0,1.6,0,5.1-0.1,6.6c0,0.1,0.1,0.3,0.1,0.3c0,0,0.1,0,0.2-0.1c0.2-0.1,0.3-0.1,0.4-0.1c0.5,0.2,1.9,0.4,2.6,0.4
	c0.7,0,1.9-0.2,2.8-0.9C321.2,42.7,322.1,41.5,322.1,39.8z M320.3,40.2c0,0.9-0.3,2.1-0.9,2.7c-0.5,0.4-1,0.7-1.2,0.7
	c-0.3,0-1.2-0.2-1.7-0.8c-0.3-0.3-0.4-0.7-0.4-1c-0.1-1-0.1-2.1-0.1-3.3c0-0.4,0-0.9,0-1.1c0-0.1,0.1-0.3,0.2-0.3
	c0.2-0.1,0.5-0.3,1.1-0.3c0.9,0,1.7,0.4,2.1,0.9C320,38.4,320.3,39.5,320.3,40.2z M326.5,35.9c-0.7,0-1.3,0.2-1.7,0.4
	c-0.8,0.5-1.1,1.1-1.1,1.9c0,0.9,0.6,1.7,1.3,2.1c0.6,0.4,0.8,0.5,1.3,0.8c0.6,0.4,0.9,0.8,0.9,1.3c0,0.4-0.2,0.8-0.5,1.1
	c-0.2,0.2-0.5,0.3-0.8,0.3c-0.7,0-1.3-0.4-1.8-1.4c-0.1-0.2-0.3-0.5-0.4-0.5c-0.1,0-0.2,0.2-0.2,0.4c0,0.6,0.3,1.4,0.3,1.5
	c0.3,0.3,1.3,0.4,2,0.4c0.6,0,1.4-0.2,1.7-0.5c0.5-0.4,1.2-1,1.2-2c0-0.9-0.4-1.6-1.6-2.3c-1.3-0.7-1.9-1.2-1.9-1.9
	c0-0.4,0.4-1.2,1.1-1.2c0.7,0,1.2,0.4,1.6,1.3c0.1,0.2,0.2,0.4,0.3,0.4c0.1,0,0.2-0.2,0.2-0.4c0-0.1-0.1-0.9-0.1-1.2
	c0-0.1-0.1-0.3-0.2-0.3c0,0-0.4-0.2-0.6-0.2C327.3,36,326.9,35.9,326.5,35.9z M332.1,44c0.4,0,1.4,0.1,1.6,0.1
	c0.2,0,0.5-0.1,0.5-0.2c0-0.1-0.1-0.2-0.4-0.3c-0.5-0.2-0.9-0.2-0.9-0.8c0-0.7,0-1.5,0-2.5c0-1.1,0.1-3.8,0.1-4.1
	c0,0-0.1-0.2-0.2-0.2c-0.3,0.1-1.3,0.5-2.1,0.7c-0.2,0.1-0.4,0.2-0.4,0.4c0,0.1,0.1,0.1,0.2,0.2c0.6,0.4,0.8,0.6,0.8,0.7
	c0,0.2,0,2.2,0,2.8c0,0.8,0,2-0.1,2.3c-0.1,0.2-0.3,0.4-0.8,0.6c-0.3,0.1-0.5,0.2-0.5,0.3c0,0.1,0.2,0.2,0.5,0.2
	C330.7,44.1,331.4,44,332.1,44z M332.1,31.8c-0.3,0-0.6,0.1-0.8,0.3c-0.2,0.2-0.3,0.5-0.3,0.7c0,0.4,0.2,0.6,0.3,0.8
	c0.2,0.2,0.5,0.3,0.7,0.3c0.4,0,1-0.5,1-1C333,32.5,332.6,31.8,332.1,31.8z M337.8,36.2c-0.1,0-0.2-0.1-0.2-0.2c0-0.6,0-0.9,0-1
	c0-0.1-0.2-0.2-0.3-0.2c-0.1,0-0.2,0.2-0.5,0.4c-0.3,0.4-0.9,0.8-1.7,1.4c-0.1,0.1-0.1,0.1-0.1,0.2c0,0.1,0.1,0.2,0.3,0.3
	c0.4,0.1,0.8,0.2,0.8,0.4c0,0.7-0.1,3.7-0.1,4.4c0,0.6,0,1,0.3,1.3c0.3,0.4,1,0.9,1.8,0.9c0.9,0,1.6-0.4,2.2-0.9
	c0.1-0.1,0.3-0.3,0.3-0.5s-0.1-0.2-0.1-0.2c-0.1,0-0.1,0-0.3,0.1c-0.3,0.2-0.7,0.3-1,0.3c-0.4,0-0.8-0.1-1.2-0.4
	c-0.2-0.2-0.4-0.5-0.4-1c0-1,0-3.7,0.1-4.2c0,0,0.1-0.1,0.2-0.1c0.2,0,2.1,0,2.1,0c0.1,0,0.5,0,0.5-0.2c0-0.2-0.1-0.8-0.1-0.8
	c0-0.1-0.2-0.2-0.2-0.2C340.1,36.1,338.3,36.2,337.8,36.2z M345.4,35.9c-0.4,0-1,0.1-1.6,0.3c-1.6,0.7-2.4,2.3-2.4,3.9
	c0,2.3,1.4,4,3.6,4c1.3,0,2.3-0.5,3-1.5c0.1-0.1,0.2-0.3,0.2-0.5c0-0.1-0.1-0.2-0.2-0.2c-0.1,0-0.2,0.1-0.3,0.2
	c-0.3,0.5-0.9,0.7-1.8,0.7c-1,0-1.8-0.5-2.3-1.1c-0.4-0.6-0.7-1.5-0.7-2.2c0-0.2,0-0.5,0.1-0.7c0-0.1,0.1-0.2,0.2-0.2
	c0.9,0,4.3,0,4.5,0s0.4-0.3,0.4-0.4c0-0.7-0.3-1.3-0.7-1.7C346.9,36.2,346.1,35.9,345.4,35.9z M345.2,36.4c0.7,0,1.3,0.7,1.3,1.2
	c0,0.4-0.2,0.5-0.7,0.5c-1,0-2,0-2.5,0c-0.1,0-0.1-0.1-0.1-0.2C343.6,37.1,344.3,36.4,345.2,36.4z M231.8,57.9
	c-1.1,0-2.1,0.5-2.9,1.2c-1.5,1.4-2.4,3.7-2.4,4.8c0,1.7,1.2,2.4,2.2,2.4c0.6,0,1.4-0.2,1.9-0.4c1.8-0.8,3.5-3,3.5-5.6
	C234.2,59.3,233.4,57.9,231.8,57.9z M231.6,58.4c0.4,0,0.6,0.4,0.6,0.8c0,1.8-1.4,4.9-2.2,5.9c-0.4,0.4-0.6,0.6-0.9,0.6
	c-0.3,0-0.6-0.4-0.6-0.8c0-2.1,1-4.5,2-5.7C231,58.7,231.4,58.4,231.6,58.4z M239.7,58.1c0,0-0.1-0.1-0.1-0.2c0.4-1.4,1.1-3.3,1.5-4
	c0.6-1.2,1.1-1.4,1.4-1.4c0.5,0,0.7,0.5,0.7,1.4c0,0.1,0,0.3,0,0.4c0,0.1,0.1,0.3,0.2,0.3c0.5,0,1.2-0.5,1.3-1.4
	c0-0.6-0.4-1.3-1.7-1.3c-0.8,0-1.6,0.3-2.4,0.9c-1.2,0.8-2.4,3.1-3.1,5.2c0,0-0.1,0.1-0.1,0.1c-0.3,0-0.9,0-1.2,0
	c-0.2,0-0.4,0.3-0.4,0.5c0,0.1,0,0.2,0.2,0.2l1.1,0c0.1,0,0.2,0.1,0.2,0.1c-1.1,3.5-1.9,6.6-2.5,8.9c-0.5,2-1,2.6-1.4,2.6
	c-0.5,0-0.9-0.4-1.4-1.2c-0.1-0.1-0.3-0.1-0.5,0c-0.3,0.1-0.9,0.7-0.9,1.1c0,0.5,0.5,1.1,1.6,1.1c0.5,0,1.4-0.3,2.2-0.7
	c0.9-0.6,1.9-1.3,2.5-3.2c0.6-2.4,1.6-6,2.4-8.4c0.1-0.1,0.2-0.2,0.2-0.2c0.6,0,1.2,0,1.6-0.1c0.3,0,0.5-0.4,0.5-0.5
	c0-0.1-0.1-0.2-0.2-0.2L239.7,58.1z M249.1,53.3c0,0.2,0.2,0.3,0.3,0.3c0.3,0.1,0.5,0.1,0.9,0.2c0.8,0.2,0.9,1,0.9,1.2
	c0,1.6-0.5,7.1-0.7,8.5c-0.2,1.2-0.3,1.5-1.5,1.9c-0.3,0.1-0.4,0.2-0.4,0.3c0,0.2,0.2,0.3,0.5,0.3c0.5,0,1.1-0.1,1.6-0.1
	c0.5,0,1.3,0.1,2,0.1c0.3,0,0.5-0.1,0.5-0.2c0-0.2-0.1-0.3-0.5-0.4c-1-0.3-1.2-0.6-1.2-1.6c-0.1-1.9,0.1-6.6,0.3-7.6
	c0-0.2,0.1-0.2,0.1-0.1c0.7,1.5,2.3,4.8,3.4,7.4c0.4,0.9,0.6,1.6,0.7,2.1c0.1,0.2,0.2,0.4,0.3,0.4c0.1,0,0.3,0,0.5-0.6
	c0.3-0.7,0.7-1.8,1.2-2.9c0.7-1.6,2.9-5.8,3.2-6.4c0.1-0.2,0.2-0.1,0.2,0.1c0,1,0.1,6.7,0,7.6c-0.1,0.7-0.1,1.2-0.9,1.5
	c-0.3,0.1-0.5,0.2-0.5,0.4c0,0.2,0.3,0.3,0.6,0.3c0.5,0,1.2-0.1,1.6-0.1c0.7,0,2.4,0.1,2.6,0.1c0.3,0,0.6-0.1,0.6-0.3
	c0-0.1-0.2-0.3-0.5-0.4c-1-0.3-1.2-0.5-1.3-1.3c-0.1-0.7-0.3-3.5-0.3-8.6c0-1,0.3-1.4,0.6-1.5c0.3-0.1,0.6-0.2,0.9-0.3
	c0.3-0.1,0.5-0.2,0.5-0.3c0-0.2-0.3-0.2-0.5-0.2c-0.2,0-1.8,0.1-2.6,0.1c-0.1,0-0.2,0.2-0.2,0.3c-0.1,0.4-0.5,1.1-0.5,1.2
	c-0.4,1-3.8,7.5-4,8c0,0-0.2,0-0.2-0.1c-0.3-0.4-2.5-5-3.6-7.3c-0.4-0.8-0.5-1.1-0.7-1.8c0-0.1-0.2-0.3-0.2-0.3c-1.2,0-1.5,0-2.8,0
	C249.3,53.1,249.1,53.2,249.1,53.3z M268.6,66c0.4,0,1.4,0.1,1.6,0.1c0.2,0,0.5-0.1,0.5-0.2c0-0.1-0.1-0.2-0.4-0.3
	c-0.5-0.2-0.9-0.2-0.9-0.8c0-0.7,0-1.5,0-2.5c0-1.1,0.1-3.8,0.1-4.1c0,0-0.1-0.2-0.2-0.2c-0.3,0.1-1.3,0.5-2.1,0.7
	c-0.2,0.1-0.4,0.2-0.4,0.4c0,0.1,0.1,0.1,0.2,0.2c0.6,0.4,0.8,0.6,0.8,0.7c0,0.2,0,2.2,0,2.8c0,0.8,0,2-0.1,2.3
	c-0.1,0.2-0.3,0.4-0.8,0.6c-0.3,0.1-0.5,0.2-0.5,0.3c0,0.1,0.2,0.2,0.5,0.2C267.2,66.1,268,66,268.6,66z M268.6,53.8
	c-0.3,0-0.6,0.1-0.8,0.3c-0.2,0.2-0.3,0.5-0.3,0.7c0,0.4,0.2,0.6,0.3,0.8c0.2,0.2,0.5,0.3,0.7,0.3c0.4,0,1-0.5,1-1
	C269.5,54.5,269.2,53.8,268.6,53.8z M274.7,57.9c-0.7,0-1.3,0.2-1.7,0.4c-0.8,0.5-1.1,1.1-1.1,1.9c0,0.9,0.6,1.7,1.3,2.1
	c0.6,0.4,0.8,0.5,1.3,0.8c0.6,0.4,0.9,0.8,0.9,1.3c0,0.4-0.2,0.8-0.5,1.1c-0.2,0.2-0.5,0.3-0.8,0.3c-0.7,0-1.3-0.4-1.8-1.4
	c-0.1-0.2-0.3-0.5-0.4-0.5c-0.1,0-0.2,0.2-0.2,0.4c0,0.6,0.3,1.4,0.3,1.5c0.3,0.3,1.3,0.4,2,0.4c0.6,0,1.4-0.2,1.7-0.5
	c0.5-0.4,1.2-1,1.2-2c0-0.9-0.4-1.6-1.6-2.3c-1.3-0.7-1.9-1.2-1.9-1.9c0-0.4,0.4-1.2,1.1-1.2c0.7,0,1.2,0.4,1.6,1.3
	c0.1,0.2,0.2,0.4,0.3,0.4c0.1,0,0.2-0.2,0.2-0.4c0-0.1-0.1-0.9-0.1-1.2c0-0.1-0.1-0.3-0.2-0.3c0,0-0.4-0.2-0.6-0.2
	C275.5,58,275.1,57.9,274.7,57.9z M281.1,57.9c-0.7,0-1.3,0.2-1.7,0.4c-0.8,0.5-1.1,1.1-1.1,1.9c0,0.9,0.6,1.7,1.3,2.1
	c0.6,0.4,0.8,0.5,1.3,0.8c0.6,0.4,0.9,0.8,0.9,1.3c0,0.4-0.2,0.8-0.5,1.1c-0.2,0.2-0.5,0.3-0.8,0.3c-0.7,0-1.3-0.4-1.8-1.4
	c-0.1-0.2-0.3-0.5-0.4-0.5c-0.1,0-0.2,0.2-0.2,0.4c0,0.6,0.3,1.4,0.3,1.5c0.3,0.3,1.3,0.4,2,0.4c0.6,0,1.4-0.2,1.7-0.5
	c0.5-0.4,1.2-1,1.2-2c0-0.9-0.4-1.6-1.6-2.3c-1.3-0.7-1.9-1.2-1.9-1.9c0-0.4,0.4-1.2,1.1-1.2c0.7,0,1.2,0.4,1.6,1.3
	c0.1,0.2,0.2,0.4,0.3,0.4c0.1,0,0.2-0.2,0.2-0.4c0-0.1-0.1-0.9-0.1-1.2c0-0.1-0.1-0.3-0.2-0.3c0,0-0.4-0.2-0.6-0.2
	C281.9,58,281.5,57.9,281.1,57.9z M286.7,66c0.4,0,1.4,0.1,1.6,0.1c0.2,0,0.5-0.1,0.5-0.2c0-0.1-0.1-0.2-0.4-0.3
	c-0.5-0.2-0.9-0.2-0.9-0.8c0-0.7,0-1.5,0-2.5c0-1.1,0.1-3.8,0.1-4.1c0,0-0.1-0.2-0.2-0.2c-0.3,0.1-1.3,0.5-2.1,0.7
	c-0.2,0.1-0.4,0.2-0.4,0.4c0,0.1,0.1,0.1,0.2,0.2c0.6,0.4,0.8,0.6,0.8,0.7c0,0.2,0,2.2,0,2.8c0,0.8,0,2-0.1,2.3
	c-0.1,0.2-0.3,0.4-0.8,0.6c-0.3,0.1-0.5,0.2-0.5,0.3c0,0.1,0.2,0.2,0.5,0.2C285.3,66.1,286,66,286.7,66z M286.7,53.8
	c-0.3,0-0.6,0.1-0.8,0.3c-0.2,0.2-0.3,0.5-0.3,0.7c0,0.4,0.2,0.6,0.3,0.8c0.2,0.2,0.5,0.3,0.7,0.3c0.4,0,1-0.5,1-1
	C287.6,54.5,287.2,53.8,286.7,53.8z M292.8,57.9c-0.7,0-1.3,0.2-1.7,0.4c-0.8,0.5-1.1,1.1-1.1,1.9c0,0.9,0.6,1.7,1.3,2.1
	c0.6,0.4,0.8,0.5,1.3,0.8c0.6,0.4,0.9,0.8,0.9,1.3c0,0.4-0.2,0.8-0.5,1.1c-0.2,0.2-0.5,0.3-0.8,0.3c-0.7,0-1.3-0.4-1.8-1.4
	c-0.1-0.2-0.3-0.5-0.4-0.5c-0.1,0-0.2,0.2-0.2,0.4c0,0.6,0.3,1.4,0.3,1.5c0.3,0.3,1.3,0.4,2,0.4c0.6,0,1.4-0.2,1.7-0.5
	c0.5-0.4,1.2-1,1.2-2c0-0.9-0.4-1.6-1.6-2.3c-1.3-0.7-1.9-1.2-1.9-1.9c0-0.4,0.4-1.2,1.1-1.2c0.7,0,1.2,0.4,1.6,1.3
	c0.1,0.2,0.2,0.4,0.3,0.4c0.1,0,0.2-0.2,0.2-0.4c0-0.1-0.1-0.9-0.1-1.2c0-0.1-0.1-0.3-0.2-0.3c0,0-0.4-0.2-0.6-0.2
	C293.6,58,293.1,57.9,292.8,57.9z M299.1,57.9c-0.7,0-1.3,0.2-1.7,0.4c-0.8,0.5-1.1,1.1-1.1,1.9c0,0.9,0.6,1.7,1.3,2.1
	c0.6,0.4,0.8,0.5,1.3,0.8c0.6,0.4,0.9,0.8,0.9,1.3c0,0.4-0.2,0.8-0.5,1.1c-0.2,0.2-0.5,0.3-0.8,0.3c-0.7,0-1.3-0.4-1.8-1.4
	c-0.1-0.2-0.3-0.5-0.4-0.5c-0.1,0-0.2,0.2-0.2,0.4c0,0.6,0.3,1.4,0.3,1.5c0.3,0.3,1.3,0.4,2,0.4c0.6,0,1.4-0.2,1.7-0.5
	c0.5-0.4,1.2-1,1.2-2c0-0.9-0.4-1.6-1.6-2.3c-1.3-0.7-1.9-1.2-1.9-1.9c0-0.4,0.4-1.2,1.1-1.2c0.7,0,1.2,0.4,1.6,1.3
	c0.1,0.2,0.2,0.4,0.3,0.4c0.1,0,0.2-0.2,0.2-0.4c0-0.1-0.1-0.9-0.1-1.2c0-0.1-0.1-0.3-0.2-0.3c0,0-0.4-0.2-0.6-0.2
	C299.9,58,299.5,57.9,299.1,57.9z M304.7,66c0.4,0,1.4,0.1,1.6,0.1c0.2,0,0.5-0.1,0.5-0.2c0-0.1-0.1-0.2-0.4-0.3
	c-0.5-0.2-0.9-0.2-0.9-0.8c0-0.7,0-1.5,0-2.5c0-1.1,0.1-3.8,0.1-4.1c0,0-0.1-0.2-0.2-0.2c-0.3,0.1-1.3,0.5-2.1,0.7
	c-0.2,0.1-0.4,0.2-0.4,0.4c0,0.1,0.1,0.1,0.2,0.2c0.6,0.4,0.8,0.6,0.8,0.7c0,0.2,0,2.2,0,2.8c0,0.8,0,2-0.1,2.3
	c-0.1,0.2-0.3,0.4-0.8,0.6c-0.3,0.1-0.5,0.2-0.5,0.3c0,0.1,0.2,0.2,0.5,0.2C303.3,66.1,304.1,66,304.7,66z M304.7,53.8
	c-0.3,0-0.6,0.1-0.8,0.3c-0.2,0.2-0.3,0.5-0.3,0.7c0,0.4,0.2,0.6,0.3,0.8c0.2,0.2,0.5,0.3,0.7,0.3c0.4,0,1-0.5,1-1
	C305.6,54.5,305.3,53.8,304.7,53.8z M313.2,57.9c-0.6,0-1.1,0.1-1.5,0.3c-0.3,0.1-0.8,0.4-1.3,0.7c-0.1,0.1-0.2,0-0.2-0.1
	c0-0.3,0-0.7,0.1-1c0-0.1-0.2-0.2-0.2-0.2c0,0-0.2,0.1-0.4,0.2c-0.4,0.2-1.3,0.6-1.6,0.7c-0.1,0-0.3,0.3-0.3,0.4
	c0,0.1,0.3,0.3,0.7,0.7c0.1,0,0.1,0.2,0.2,0.9c0,1.1,0,2.7,0,4.1c0,2,0,3.7-0.1,4.3c-0.1,1.4-0.2,1.6-1.2,1.8
	c-0.3,0.1-0.5,0.2-0.5,0.3c0,0.2,0.3,0.3,0.6,0.3c0.7,0,0.9-0.1,1.4-0.1c0.8,0,2,0.1,2.4,0.1c0.3,0,0.5-0.1,0.5-0.3
	c0-0.1-0.2-0.2-0.6-0.4c-0.8-0.2-0.9-0.5-1-1c-0.1-0.5-0.1-1.5-0.1-3.3c0-0.1,0.1-0.3,0.1-0.3c0.2,0,0.7,0.1,1.1,0.1
	c0.9,0,2.1-0.2,3.2-1c1.2-0.9,1.7-2.4,1.7-3.5s-0.5-2.1-1-2.6C314.8,58.4,313.9,57.9,313.2,57.9z M312,59c0.4,0,1.2,0.3,1.7,0.8
	c0.8,0.9,0.8,2,0.8,2.4c0,0.6-0.3,2.1-1.3,3c-0.3,0.2-0.6,0.3-0.9,0.3c-0.5,0-1.4-0.3-1.9-1.1c-0.1-0.2-0.2-0.5-0.2-0.9
	c-0.1-0.9-0.1-2.9,0.1-3.6c0-0.3,0.2-0.5,0.2-0.6C310.8,59.2,311.3,59,312,59z M323.1,57.9c-0.6,0-1.1,0.1-1.5,0.3
	c-0.3,0.1-0.8,0.4-1.3,0.7c-0.1,0.1-0.2,0-0.2-0.1c0-0.3,0-0.7,0.1-1c0-0.1-0.2-0.2-0.2-0.2c0,0-0.2,0.1-0.4,0.2
	c-0.4,0.2-1.3,0.6-1.6,0.7c-0.1,0-0.3,0.3-0.3,0.4c0,0.1,0.3,0.3,0.7,0.7c0.1,0,0.1,0.2,0.2,0.9c0,1.1,0,2.7,0,4.1
	c0,2,0,3.7-0.1,4.3c-0.1,1.4-0.2,1.6-1.2,1.8c-0.3,0.1-0.5,0.2-0.5,0.3c0,0.2,0.3,0.3,0.6,0.3c0.7,0,0.9-0.1,1.4-0.1
	c0.8,0,2,0.1,2.4,0.1c0.3,0,0.5-0.1,0.5-0.3c0-0.1-0.2-0.2-0.6-0.4c-0.8-0.2-0.9-0.5-1-1c-0.1-0.5-0.1-1.5-0.1-3.3
	c0-0.1,0.1-0.3,0.1-0.3c0.2,0,0.7,0.1,1.1,0.1c0.9,0,2.1-0.2,3.2-1c1.2-0.9,1.7-2.4,1.7-3.5s-0.5-2.1-1-2.6
	C324.7,58.4,323.8,57.9,323.1,57.9z M322,59c0.4,0,1.2,0.3,1.7,0.8c0.8,0.9,0.8,2,0.8,2.4c0,0.6-0.3,2.1-1.3,3
	c-0.3,0.2-0.6,0.3-0.9,0.3c-0.5,0-1.4-0.3-1.9-1.1c-0.1-0.2-0.2-0.5-0.2-0.9c-0.1-0.9-0.1-2.9,0.1-3.6c0-0.3,0.2-0.5,0.2-0.6
	C320.7,59.2,321.2,59,322,59z M329.7,66c0.4,0,1.4,0.1,1.6,0.1c0.2,0,0.5-0.1,0.5-0.2c0-0.1-0.1-0.2-0.4-0.3
	c-0.5-0.2-0.9-0.2-0.9-0.8c0-0.7,0-1.5,0-2.5c0-1.1,0.1-3.8,0.1-4.1c0,0-0.1-0.2-0.2-0.2c-0.3,0.1-1.3,0.5-2.1,0.7
	c-0.2,0.1-0.4,0.2-0.4,0.4c0,0.1,0.1,0.1,0.2,0.2c0.6,0.4,0.8,0.6,0.8,0.7c0,0.2,0,2.2,0,2.8c0,0.8,0,2-0.1,2.3
	c-0.1,0.2-0.3,0.4-0.8,0.6c-0.3,0.1-0.5,0.2-0.5,0.3c0,0.1,0.2,0.2,0.5,0.2C328.3,66.1,329,66,329.7,66z M329.7,53.8
	c-0.3,0-0.6,0.1-0.8,0.3c-0.2,0.2-0.3,0.5-0.3,0.7c0,0.4,0.2,0.6,0.3,0.8c0.2,0.2,0.5,0.3,0.7,0.3c0.4,0,1-0.5,1-1
	C330.6,54.5,330.3,53.8,329.7,53.8z"/>
<path class="st1" d="M27.4,65l0-16l-7.8,13.1h-2.8L8.9,49.4V65H3.2V38.4h5.1l10,16.5L28,38.4h5.1L33.1,65H27.4z M48.2,65.5
	c-2.1,0-4.1-0.3-6.1-0.8c-2-0.6-3.5-1.3-4.7-2.2l2.1-4.6c1.1,0.8,2.5,1.5,4.1,2c1.6,0.5,3.1,0.8,4.7,0.8c1.7,0,3-0.3,3.9-0.8
	c0.8-0.5,1.3-1.2,1.3-2.1c0-0.6-0.3-1.2-0.8-1.6c-0.5-0.4-1.1-0.8-1.9-1c-0.8-0.3-1.8-0.5-3.1-0.8c-2-0.5-3.7-1-5-1.4
	c-1.3-0.5-2.4-1.3-3.3-2.3c-0.9-1.1-1.4-2.5-1.4-4.3c0-1.5,0.4-2.9,1.3-4.2c0.8-1.3,2.1-2.3,3.8-3c1.7-0.7,3.8-1.1,6.2-1.1
	c1.7,0,3.4,0.2,5,0.6c1.6,0.4,3,1,4.3,1.7L56.4,45c-2.5-1.4-4.9-2.1-7.4-2.1c-1.7,0-3,0.3-3.8,0.8C44.4,44.3,44,45,44,45.9
	s0.5,1.6,1.4,2.1c1,0.4,2.4,0.9,4.4,1.3c2,0.5,3.7,1,5,1.4c1.3,0.5,2.4,1.2,3.3,2.3c0.9,1,1.4,2.4,1.4,4.2c0,1.5-0.4,2.9-1.3,4.2
	c-0.8,1.2-2.1,2.2-3.8,3C52.7,65.1,50.6,65.5,48.2,65.5z M66.2,65.3c-1,0-1.9-0.4-2.6-1.1c-0.7-0.7-1.1-1.6-1.1-2.7
	c0-1.1,0.4-2,1.1-2.6c0.7-0.7,1.6-1,2.6-1c1,0,1.9,0.3,2.6,1c0.7,0.7,1.1,1.5,1.1,2.6c0,1.1-0.4,2-1.1,2.7
	C68.2,64.9,67.3,65.3,66.2,65.3z M91.6,51.3h5.6v10.8c-1.4,1.1-3.1,1.9-5,2.5c-1.9,0.6-3.8,0.9-5.7,0.9c-2.8,0-5.2-0.6-7.4-1.7
	c-2.2-1.2-3.9-2.8-5.2-4.9c-1.2-2.1-1.9-4.5-1.9-7.1s0.6-5,1.9-7.1c1.3-2.1,3-3.7,5.2-4.9c2.2-1.2,4.7-1.8,7.5-1.8
	c2.3,0,4.4,0.4,6.3,1.2c1.9,0.8,3.5,1.9,4.8,3.4l-4,3.6c-1.9-2-4.2-3-6.9-3c-1.7,0-3.2,0.4-4.5,1.1C81,45,80,46,79.3,47.3
	c-0.7,1.3-1.1,2.8-1.1,4.4c0,1.6,0.4,3.1,1.1,4.4c0.7,1.3,1.7,2.3,3,3c1.3,0.7,2.8,1.1,4.5,1.1c1.8,0,3.4-0.4,4.8-1.1V51.3z
	 M115.8,65.5c-2.8,0-5.3-0.6-7.5-1.8c-2.2-1.2-3.9-2.8-5.2-4.9c-1.2-2.1-1.9-4.5-1.9-7.1c0-2.6,0.6-5,1.9-7c1.3-2.1,3-3.7,5.2-4.9
	c2.2-1.2,4.7-1.8,7.5-1.8s5.2,0.6,7.4,1.8c2.2,1.2,3.9,2.8,5.2,4.9c1.3,2.1,1.9,4.4,1.9,7c0,2.6-0.6,5-1.9,7.1
	c-1.3,2.1-3,3.7-5.2,4.9C121.1,64.9,118.6,65.5,115.8,65.5z M115.8,60.2c1.6,0,3-0.4,4.3-1.1c1.3-0.7,2.3-1.7,3-3
	c0.7-1.3,1.1-2.8,1.1-4.4c0-1.6-0.4-3.1-1.1-4.4c-0.7-1.3-1.7-2.3-3-3c-1.3-0.7-2.7-1.1-4.3-1.1s-3,0.4-4.3,1.1
	c-1.3,0.7-2.3,1.7-3,3c-0.7,1.3-1.1,2.8-1.1,4.4c0,1.6,0.4,3.1,1.1,4.4c0.7,1.3,1.7,2.3,3,3C112.8,59.9,114.3,60.2,115.8,60.2z
	 M159.7,38.4L148.2,65h-6.1l-11.5-26.6h6.6l8.1,19l8.2-19H159.7z"/>
<line class="st2" x1="192" y1="63" x2="192" y2="97"/>
<line class="st2" x1="192" y1="0" x2="192" y2="40"/>
</svg>
