<?xml version="1.0" encoding="UTF-8"?>
<svg width="300px" height="100px" viewBox="0 0 300 100" version="1.1" xmlns="http://www.w3.org/2000/svg" xmlns:xlink="http://www.w3.org/1999/xlink">
    <!-- Generator: Sketch 63.1 (92452) - https://sketch.com -->
    <title>logo-sungard</title>
    <desc>Created with Sketch.</desc>
    <defs>
        <polygon id="path-1" points="0 0.129383886 211.922401 0.129383886 211.922401 99.971564 0 99.971564"></polygon>
        <polygon id="path-3" points="0 0.129383886 211.922401 0.129383886 211.922401 99.971564 0 99.971564"></polygon>
    </defs>
    <g id="Page-1" stroke="none" stroke-width="1" fill="none" fill-rule="evenodd">
        <g id="logo-sungard">
            <polygon id="Fill-1" fill="#DA291C" fill-rule="nonzero" points="76.4035316 100 95.4081633 66.5816327 57.3979592 66.5816327"></polygon>
            <g id="Group-5">
                <g id="Fill-2-Clipped">
                    <mask id="mask-2" fill="white">
                        <use xlink:href="#path-1"></use>
                    </mask>
                    <g id="path-1"></g>
                    <path d="M74.4926847,30.685308 C74.8973957,31.4691944 75.1267789,32.3616114 75.1267789,33.307583 C75.1267789,34.2516588 74.8983357,35.14218 74.4940949,35.9260664 L37.9958334,99.6630332 L0,99.6630332 L56.9942201,0.129383886 L74.4926847,30.685308" id="Fill-2" fill="#AB2328" fill-rule="nonzero" mask="url(#mask-2)"></path>
                </g>
                <g id="Fill-4-Clipped">
                    <mask id="mask-4" fill="white">
                        <use xlink:href="#path-3"></use>
                    </mask>
                    <g id="path-1"></g>
                    <path d="M194.35155,90.0829384 L194.35155,90.0270142 C194.35155,84.3407582 198.639795,80.0535546 204.325961,80.0535546 C207.470112,80.0535546 209.708478,80.9189574 211.786089,82.943128 L209.243131,85.8990522 C207.588093,84.414218 206.058557,83.750237 204.298698,83.750237 C201.017296,83.750237 198.542965,86.4246446 198.542965,89.971564 L198.542965,90.0270142 C198.542965,93.6056872 201.017296,96.3042654 204.298698,96.3042654 C206.470789,96.3042654 207.823116,95.4848342 209.388376,94.0658768 L211.922401,96.6464454 C209.679805,99.0274882 207.421695,100 204.160035,100 C198.567878,100 194.35155,95.7364928 194.35155,90.0829384 Z" id="Fill-4" fill="#0A0B09" fill-rule="nonzero" mask="url(#mask-4)"></path>
                </g>
            </g>
            <path d="M241.471541,100 C238.479326,100 235.624619,98.943019 233.418367,97.0219606 L235.775312,94.2081944 C237.711729,95.7748918 239.551136,96.5056732 241.555366,96.5056732 C243.366517,96.5056732 244.49107,95.7547098 244.49107,94.5475359 L244.49107,94.491683 C244.49107,93.2633885 243.628818,92.7067368 240.478375,91.9017979 C236.768479,90.9579306 234.142169,89.9896571 234.142169,86.1137471 L234.142169,86.0578941 C234.142169,82.6480506 236.820281,80.3571429 240.805663,80.3571429 C243.476711,80.3571429 245.842136,81.1489398 247.839299,82.7118826 L245.766318,85.7077573 C243.930678,84.4592806 242.289526,83.8514696 240.750565,83.8514696 C239.153211,83.8514696 238.120015,84.5658235 238.120015,85.671148 L238.120015,85.7260621 C238.120015,87.1078349 239.034539,87.5377614 242.410081,88.3990228 C246.150586,89.371051 248.469388,90.6598921 248.469388,94.0772451 L248.469388,94.1321592 C248.469388,97.7513339 245.787979,100 241.471541,100" id="Fill-6" fill="#0A0B09" fill-rule="nonzero"></path>
            <path d="M120.043441,100 C117.050755,100 114.196519,98.943019 111.989796,97.0219606 L114.346742,94.2081944 C116.283629,95.7748918 118.123036,96.5056732 120.127264,96.5056732 C121.937475,96.5056732 123.062498,95.7547098 123.062498,94.5475359 L123.062498,94.491683 C123.062498,93.2633885 122.200247,92.7067368 119.050274,91.9017979 C115.34038,90.9579306 112.714068,89.9896571 112.714068,86.1137471 L112.714068,86.0578941 C112.714068,82.6480506 115.392181,80.3571429 119.377563,80.3571429 C122.048611,80.3571429 124.413563,81.1489398 126.411199,82.7118826 L124.337745,85.7077573 C122.502576,84.4592806 120.860955,83.8514696 119.322465,83.8514696 C117.724639,83.8514696 116.691915,84.5658235 116.691915,85.671148 L116.691915,85.7260621 C116.691915,87.1078349 117.605968,87.5377614 120.98151,88.3990228 C124.722485,89.371051 127.040816,90.6598921 127.040816,94.0772451 L127.040816,94.1321592 C127.040816,97.7513339 124.359878,100 120.043441,100" id="Fill-7" fill="#0A0B09" fill-rule="nonzero"></path>
            <polygon id="Fill-8" fill="#0A0B09" fill-rule="nonzero" points="188.010204 100 192.602041 100 192.602041 80.3571429 188.010204 80.3571429"></polygon>
            <path d="M145.407767,97.5630551 L145.407278,96.3769401 L134.486971,96.3764572 L134.486971,91.9203156 L143.991882,91.9203156 L143.991882,88.295324 L134.486971,88.295324 L134.486971,83.9816514 L145.287984,83.9816514 L145.287984,80.3571429 L130.357143,80.3571429 L130.357143,100 L143.210114,100 C145.491859,100 145.407767,98.688319 145.407767,97.5630551" id="Fill-9" fill="#0A0B09" fill-rule="nonzero"></path>
            <path d="M231.632257,97.5630551 L231.631768,96.3769401 L220.711462,96.3764572 L220.711462,91.9203156 L230.216373,91.9203156 L230.216373,88.295324 L220.711462,88.295324 L220.711462,83.9816514 L231.512475,83.9816514 L231.512475,80.3571429 L216.581633,80.3571429 L216.581633,100 L229.434604,100 C231.716349,100 231.632257,98.688319 231.632257,97.5630551" id="Fill-10" fill="#0A0B09" fill-rule="nonzero"></path>
            <path d="M159.742384,99.1128284 L156.120911,93.6275294 L152.519438,93.6275294 L152.519438,100 L148.469388,100 L148.469388,80.3571429 L157.310925,80.3571429 C161.864315,80.3571429 164.581967,82.7631791 164.581967,86.7928794 L164.581967,86.8503499 C164.581967,89.749957 163.119092,91.8966512 160.462392,92.8953833 L160.300962,92.9567175 L165.05102,100 L161.431452,100 C160.733348,100 160.116198,99.6493813 159.742384,99.1128284 Z M152.519438,90.0310315 L157.029969,90.0310315 C159.15571,90.0310315 160.476202,88.8990064 160.476202,87.0778174 L160.476202,87.0208298 C160.476202,85.1252674 159.18952,84.038639 156.946635,84.038639 L152.519438,84.038639 L152.519438,90.0310315 Z" id="Fill-11" fill="#0A0B09" fill-rule="nonzero"></path>
            <path d="M120.967367,40.9962738 C124.075784,41.6345434 125.510204,42.7053437 125.510204,44.73307 C125.510204,47.0048124 123.517447,48.4693878 120.7486,48.4693878 C118.537584,48.4693878 116.72451,47.7751381 115.05102,46.3665428 L116.027603,45.2770826 C117.481819,46.5163019 118.87614,47.1368683 120.808495,47.1368683 C122.680956,47.1368683 123.915897,46.2163055 123.915897,44.8828291 C123.915897,43.6436098 123.21899,42.9493599 120.290764,42.3670704 C117.083369,41.7091837 115.60885,40.7326406 115.60885,38.5541985 C115.60885,36.451832 117.541205,34.9489796 120.191278,34.9489796 C122.223119,34.9489796 123.676827,35.4949059 125.091451,36.5637924 L124.17527,37.7097113 C122.879927,36.7145082 121.585092,36.2824561 120.150672,36.2824561 C118.338105,36.2824561 117.183362,37.221679 117.183362,38.4235781 C117.183362,39.6814575 117.900064,40.3766642 120.967367,40.9962738" id="Fill-12" fill="#0A0B09" fill-rule="nonzero"></path>
            <path d="M138.010204,42.5740132 C138.010204,46.4529062 135.911329,48.4693878 132.7717,48.4693878 C129.668636,48.4693878 127.55102,46.4529062 127.55102,42.6883548 L127.55102,34.9489796 L128.967944,34.9489796 L128.967944,42.5929086 C128.967944,45.4650142 130.403151,47.0813004 132.807351,47.0813004 C135.121051,47.0813004 136.592366,45.5972823 136.592366,42.6883548 L136.592366,34.9489796 L138.010204,34.9489796 L138.010204,42.5740132" id="Fill-13" fill="#0A0B09" fill-rule="nonzero"></path>
            <polyline id="Fill-14" fill="#0A0B09" fill-rule="nonzero" points="150.169815 34.9489796 151.530612 34.9489796 151.530612 48.4693878 150.417397 48.4693878 142.432225 37.3824956 142.432225 48.4693878 141.071429 48.4693878 141.071429 34.9489796 142.379108 34.9489796 150.169815 45.7839081 150.169815 34.9489796"></polyline>
            <path d="M161.292426,48.4693878 C157.151316,48.4693878 154.591837,45.4818229 154.591837,41.7272642 C154.591837,38.123535 157.246271,34.9489796 161.19795,34.9489796 C163.418851,34.9489796 164.792827,35.5837004 166.110692,36.6856593 L165.150588,37.8066505 C164.134853,36.9283187 163.005459,36.3121542 161.14184,36.3121542 C158.22412,36.3121542 156.135102,38.7592072 156.135102,41.6901517 C156.135102,44.8275944 158.148827,47.1433259 161.349015,47.1433259 C162.853915,47.1433259 164.247553,46.564274 165.150588,45.8367717 L165.150588,42.5870397 L161.14184,42.5870397 L161.14184,41.2609776 L166.581633,41.2609776 L166.581633,46.4705409 C165.357763,47.5539435 163.513327,48.4693878 161.292426,48.4693878" id="Fill-15" fill="#0A0B09" fill-rule="nonzero"></path>
            <path d="M200.145762,36.3588933 L196.948119,36.3588933 L196.948119,47.0584899 L200.145762,47.0584899 C203.596753,47.0584899 205.799385,44.7411135 205.799385,41.7278841 C205.799385,38.7156391 203.596753,36.3588933 200.145762,36.3588933 Z M200.145762,48.4693878 L195.408163,48.4693878 L195.408163,34.9489796 L200.145762,34.9489796 C204.435282,34.9489796 207.397959,37.865754 207.397959,41.6894991 C207.397959,45.5137362 204.435282,48.4693878 200.145762,48.4693878 Z" id="Fill-16" fill="#0A0B09" fill-rule="nonzero"></path>
            <path d="M175.825889,35.4091086 L181.632653,48.4693878 L180.018507,48.4693878 L178.46194,44.89613 L171.225863,44.89613 L169.649458,48.4693878 L168.112245,48.4693878 L174.126584,34.9489796 L175.103007,34.9489796 C175.450416,34.9489796 175.693796,35.1389367 175.825889,35.4091086 Z M174.852853,36.6300496 L171.814716,43.5241093 L177.872602,43.5241093 L174.852853,36.6300496 Z" id="Fill-17" fill="#0A0B09" fill-rule="nonzero"></path>
            <path d="M191.879145,48.1170325 L188.459026,43.2160443 L184.846063,43.2160443 L184.846063,48.4693878 L183.418367,48.4693878 L183.418367,34.9489796 L188.856222,34.9489796 C191.638434,34.9489796 193.426046,36.5522952 193.426046,38.9858112 C193.426046,41.24561 191.98086,42.559561 189.993961,42.9448883 L193.877551,48.4693878 L192.545587,48.4693878 C192.272199,48.4693878 192.029187,48.330119 191.879145,48.1170325 Z M188.747603,36.3588933 L184.846063,36.3588933 L184.846063,41.8440236 L188.730114,41.8440236 C190.626344,41.8440236 191.98086,40.8012288 191.98086,39.0433888 C191.98086,37.3633032 190.788813,36.3588933 188.747603,36.3588933 Z" id="Fill-18" fill="#0A0B09" fill-rule="nonzero"></path>
            <path d="M138.827243,72.7040816 C137.778391,72.7040816 137.198553,72.2897241 136.874002,71.5117176 L128.826531,53.0612245 L133.211428,53.0612245 L139.471892,68.048115 L145.730872,53.0612245 L150,53.0612245 L141.437997,72.7040816 L138.827243,72.7040816" id="Fill-19" fill="#0A0B09" fill-rule="nonzero"></path>
            <path d="M175.306574,100 C174.257697,100 173.677846,99.5861154 173.353287,98.8080897 L165.306122,80.3571429 L169.691122,80.3571429 L175.951238,95.3444019 L182.210859,80.3571429 L186.479592,80.3571429 L177.917883,100 L175.306574,100" id="Fill-20" fill="#0A0B09" fill-rule="nonzero"></path>
            <path d="M288.076469,72.7040816 L288.076469,64.9476788 L280.357143,53.0612245 L284.042311,53.0612245 C284.872276,53.0694345 285.620186,53.5272559 285.991914,54.2535885 L290.206501,61.1861059 L295.237705,53.0612245 L300,53.0612245 L292.281663,64.8617166 L292.281663,72.7040816 L288.076469,72.7040816" id="Fill-21" fill="#0A0B09" fill-rule="nonzero"></path>
            <polyline id="Fill-22" fill="#0A0B09" fill-rule="nonzero" points="269.039524 72.7040816 269.039524 56.8276267 263.520408 56.8276267 263.520408 53.0612245 278.571429 53.0612245 278.571429 56.8276267 273.053257 56.8276267 273.053257 72.7040816 269.039524 72.7040816"></polyline>
            <polygon id="Fill-23" fill="#0A0B09" fill-rule="nonzero" points="257.397959 72.7040816 261.989796 72.7040816 261.989796 53.0612245 257.397959 53.0612245"></polygon>
            <polygon id="Fill-24" fill="#0A0B09" fill-rule="nonzero" points="233.418367 72.7040816 238.010204 72.7040816 238.010204 53.0612245 233.418367 53.0612245"></polygon>
            <path d="M217.496327,61.1126999 L221.654477,61.1126999 C224.366794,61.1126999 224.936089,59.8937746 224.936089,58.8704375 L224.936089,58.8139342 C224.936089,57.4245331 223.843659,56.6286578 221.938161,56.6286578 L217.496327,56.6286578 L217.496327,61.1126999 Z M217.496327,69.1366481 L222.816142,69.1366481 C225.481341,69.1366481 226.040055,67.8858492 226.040055,66.8369165 L226.040055,66.7804133 C226.040055,65.7314807 225.456818,64.4806817 222.674299,64.4806817 L217.496327,64.4806817 L217.496327,69.1366481 Z M213.520408,72.7040816 L213.520408,53.0612245 L222.590157,53.0612245 C226.542515,53.0612245 228.997593,54.98137 228.997593,58.0745622 L228.997593,58.1310656 C228.997593,59.9816687 228.168174,61.3474059 226.460776,62.3074787 L226.207381,62.4509101 L226.479046,62.5547409 C229.018748,63.5312334 230.102041,64.9563716 230.102041,67.3208164 L230.102041,67.3773197 C230.102041,70.7626868 227.446461,72.7040816 222.816142,72.7040816 L213.520408,72.7040816 Z" id="Fill-25" fill="#0A0B09" fill-rule="nonzero"></path>
            <polygon id="Fill-26" fill="#0A0B09" fill-rule="nonzero" points="169.387755 72.7040816 173.979592 72.7040816 173.979592 53.0612245 169.387755 53.0612245"></polygon>
            <path d="M152.734914,65.3591385 L159.13878,65.3591385 L155.936353,57.6829028 L152.734914,65.3591385 Z M162.201886,72.7040816 L160.66144,69.0110854 L151.212254,69.0110854 L149.672303,72.7040816 L145.408163,72.7040816 L153.957686,53.0612245 L156.594921,53.0612245 C157.420971,53.0612245 158.167974,53.518563 158.543945,54.2545545 L166.581633,72.7040816 L162.201886,72.7040816 Z" id="Fill-27" fill="#0A0B09" fill-rule="nonzero"></path>
            <path d="M119.316376,65.3591385 L125.720093,65.3591385 L122.518234,57.6829028 L119.316376,65.3591385 Z M128.783621,72.7040816 L127.242717,69.0110854 L117.793751,69.0110854 L116.253836,72.7040816 L111.989796,72.7040816 L120.539613,53.0612245 L123.176786,53.0612245 C124.002818,53.0612245 124.749308,53.518563 125.125271,54.2545545 L133.163265,72.7040816 L128.783621,72.7040816 Z" id="Fill-28" fill="#0A0B09" fill-rule="nonzero"></path>
            <path d="M198.143077,65.3717575 L204.546945,65.3717575 L201.344517,57.7087099 L198.143077,65.3717575 Z M207.610049,72.7040816 L206.069603,69.0174301 L196.620417,69.0174301 L195.079972,72.7040816 L190.816327,72.7040816 L199.380671,53.0612245 L201.989745,53.0612245 C202.815795,53.0612245 203.562304,53.5177774 203.938276,54.252022 L211.989796,72.7040816 L207.610049,72.7040816 Z" id="Fill-29" fill="#0A0B09" fill-rule="nonzero"></path>
            <path d="M252.415639,72.7040816 L241.071429,72.7040816 L241.071429,53.0612245 L245.188279,53.0612245 L245.188279,68.9941828 L254.590961,68.9941828 C254.590961,68.9941828 254.590961,70.2667138 254.591444,70.2667138 C254.591444,71.3919499 254.674702,72.7040816 252.415639,72.7040816" id="Fill-30" fill="#0A0B09" fill-rule="nonzero"></path>
            <path d="M188.895307,72.7040816 L177.55102,72.7040816 L177.55102,53.0612245 L181.667723,53.0612245 L181.667723,68.9941828 L191.070552,68.9941828 L191.071036,70.2667138 C191.071036,71.3919499 191.15429,72.7040816 188.895307,72.7040816" id="Fill-31" fill="#0A0B09" fill-rule="nonzero"></path>
            <path d="M252.416065,83.2456079 L253.020419,83.2456079 C253.510071,83.2456079 253.967532,83.2209278 253.967532,82.6615164 C253.967532,82.1679179 253.550875,82.1103315 253.175476,82.1103315 L252.416065,82.1103315 L252.416065,83.2456079 Z M251.926413,81.6656358 L253.21628,81.6656358 C254.056848,81.6656358 254.457182,81.9782481 254.457182,82.6857393 C254.457182,83.3196476 254.04914,83.5911268 253.526392,83.6487133 L254.53879,85.212689 L254.008336,85.212689 L253.044903,83.6903034 L252.416065,83.6903034 L252.416065,85.212689 L251.926413,85.212689 L251.926413,81.6656358 Z M253.061226,86.0353532 C254.489826,86.0353532 255.632799,84.8996197 255.632799,83.401914 C255.632799,81.9288883 254.489826,80.8013813 253.061226,80.8013813 C251.632623,80.8013813 250.48965,81.9288883 250.48965,83.4348205 C250.48965,84.8996197 251.632623,86.0353532 253.061226,86.0353532 Z M253.061226,80.3571429 C254.72649,80.3571429 256.122449,81.6738623 256.122449,83.401914 C256.122449,85.1628722 254.72649,86.4795918 253.061226,86.4795918 C251.395959,86.4795918 250,85.1628722 250,83.4348205 C250,81.6738623 251.395959,80.3571429 253.061226,80.3571429 Z" id="Fill-32" fill="#0A0B09" fill-rule="nonzero"></path>
            <path d="M84.3038194,96.7658005 L84.9081754,96.7658005 C85.3978262,96.7658005 85.855287,96.7415794 85.855287,96.1817524 C85.855287,95.6881909 85.4386306,95.6306087 85.0632315,95.6306087 L84.3038194,95.6306087 L84.3038194,96.7658005 Z M83.8141684,95.1859461 L85.1035824,95.1859461 C85.944603,95.1859461 86.344938,95.4989922 86.344938,96.2064307 C86.344938,96.8402917 85.9364422,97.1112935 85.4141479,97.1688758 L86.4260929,98.7327349 L85.8960914,98.7327349 L84.9326579,97.2104628 L84.3038194,97.2104628 L84.3038194,98.7327349 L83.8141684,98.7327349 L83.8141684,95.1859461 Z M84.9489796,99.5553375 C86.3775813,99.5553375 87.5200999,98.4201459 87.5200999,96.922095 C87.5200999,95.4496361 86.3775813,94.3222134 84.9489796,94.3222134 C83.5199247,94.3222134 82.3774059,95.4496361 82.3774059,96.954999 C82.3774059,98.4201459 83.5199247,99.5553375 84.9489796,99.5553375 Z M84.9489796,93.877551 C86.6142459,93.877551 88.0102041,95.1941722 88.0102041,96.922095 C88.0102041,98.6833788 86.6142459,100 84.9489796,100 C83.2837133,100 81.8877551,98.6833788 81.8877551,96.954999 C81.8877551,95.1941722 83.2837133,93.877551 84.9489796,93.877551 Z" id="Fill-33" fill="#0A0B09" fill-rule="nonzero"></path>
        </g>
    </g>
</svg>