<svg xmlns="http://www.w3.org/2000/svg" viewBox="0 0 448.2 94.41"><defs><style>.a{fill:#001e36}</style></defs><path class="a" d="M0 49c.1-.47.22-.94.29-1.41a41.87 41.87.0 0134.25-36.25c2.36-.45 4.79-.56 7.18-.82l.12.26c-.33.57-.69 1.12-1 1.71-.58 1.17-1.1 2.38-1.71 3.54-.15.3-.57.67-.85.65-2.09-.09-3.32 1-4.39 2.66a63 63 0 00-5.29 9.93c-.08.18-.12.38-.22.7h8.23l.73 5.74H27.15c-.3.0-.81.21-.87.42a59.69 59.69.0 00-2.13 13.5H39v-8.12l.2-.09c2 5.15 5.71 9.24 8.36 14.13h-2.68v13.89h10.81a1.28 1.28.0 011.27.68c1 1.69 2.1 3.36 3.19 5a1.25 1.25.0 01.15 1.36c-1.3 2.76-2.53 5.52-3.79 8.2a5.78 5.78.0 00-.42 1A30.76 30.76.0 0064 81.21l3.23 5.06c-1.92 1.17-3.75 2.4-5.68 3.45a40.39 40.39.0 01-14.07 4.53 1.73 1.73.0 00-.37.16H36.94c-.48-.1-.95-.22-1.43-.29a42 42 0 01-35-35c-.18-.96-.35-1.88-.51-2.81zm24.17 6.65A58.75 58.75.0 0026.27 69c.06.23.53.48.81.49h11.29a4.37 4.37.0 00.63-.09V55.62zm-4-19.88H10.54a1.06 1.06.0 00-.8.56c-1 2.37-2 4.73-2.72 7.16A62 62 0 005.77 49.7H18.2zM6 55.62a35.06 35.06.0 003.81 13.43 1.22 1.22.0 00.92.42h9.46l-2-13.82zm33 33.05V75.28H28.43a.63.63.0 000 .23 51.76 51.76.0 006.94 12.35.9.9.0 00.46.37c1.02.17 2.04.29 3.17.44zm5.92-13.41v13.27c1.67.21 2.25.0 3.16-1.25a52.4 52.4.0 005.68-9.81c.31-.71.6-1.43.93-2.21zM13.8 30h7.47a1.08 1.08.0 001.2-.8c1.19-2.75 2.46-5.47 3.71-8.19.16-.35.34-.68.6-1.21A36.57 36.57.0 0013.8 30zm12.88 55.31a3.61 3.61.0 00-.14-.43c-1.4-3.06-2.79-6.14-4.22-9.19a1.15 1.15.0 00-.86-.46h-6.82a6 6 0 00-.68.07c1.88 3.12 8.69 8.5 12.72 10.01zM262.59 50.05V78.4c-.3.0-.56.06-.81.06h-11.73c-.74.0-.91-.22-.91-.93V35.24v-.85h14.71a1.42 1.42.0 011.24.6Q275 47.05 285 59.14c1 1.18 1.93 2.37 3.07 3.77v-28.5h13.39v44.4H287.1a1.53 1.53.0 01-1.33-.61q-6.42-7.91-12.87-15.78l-9.57-11.7c-.21-.14-.39-.31-.74-.67zM418.28 33.27c7.17.13 13.4 1.13 19.08 4.36 6.3 3.58 10.1 8.93 10.74 16.21.83 9.57-3.33 16.61-11.55 21.32-6.11 3.49-12.8 4.55-19.74 4.31a38.16 38.16.0 01-13-2.54c-5.08-2-9.3-5.09-12-10a21.25 21.25.0 014.91-26.49c4.93-4.13 10.73-6.12 17-6.87 1.79-.16 3.55-.22 4.56-.3zm1.08 37.18c.54.0 1.57-.08 2.57-.24 4.68-.72 8.41-2.86 10.51-7.29a15 15 0 001.18-8.87c-.73-4.86-3.25-8.44-7.85-10.33a19 19 0 00-12.93-.5A12 12 0 00405 49.85a14.8 14.8.0 00-1.3 7c.18 4.59 1.83 8.45 5.76 11.09 2.85 1.87 6.07 2.47 9.9 2.51zm-48.1-33.32-4.5 9.37-2.76-1.08a36.82 36.82.0 00-14.64-2.52A18.09 18.09.0 00339.21 46c-4.16 3-5.62 7.16-5.1 12.09.7 6.59 4.78 10.73 11.53 11.81a30.87 30.87.0 0012.83-.68 1 1 0 00.86-1.13c-.05-1.8.0-3.6.0-5.56h-12.97c-.67.0-.91-.16-.9-.87.05-2.65.0-5.3.0-8h26.86v20.78a1.2 1.2.0 01-.91 1.33A61.81 61.81.0 01343 79c-5.63-.8-10.93-2.46-15.45-6a19.68 19.68.0 01-7.66-14.64 21.63 21.63.0 012.62-12.54 22.27 22.27.0 0111-9.44 38.66 38.66.0 0113.94-3 58.07 58.07.0 0122.45 3.14c.4.17.82.37 1.36.61z"/><path d="M70.42 81.86l-3.24-5.06c-6.47-10.17-12.87-20.4-19.47-30.49a34.14 34.14.0 01-5.36-11.83 28.69 28.69.0 1151.41 11c-3.33 4.88-6.43 9.92-9.62 14.9L71 81.05c-.17.24-.34.47-.58.81zM93 28.74a22.5 22.5.0 10-22.57 22.5A22.6 22.6.0 0093 28.74z" fill="#c10000"/><path class="a" d="M176.7 78.39l1.94-4.3q7.52-16.59 15-33.18c.91-2 1.82-4 2.78-6a1.11 1.11.0 01.84-.52h16.63a1.23 1.23.0 01.89.57q6.22 13.81 12.39 27.66 3.3 7.38 6.58 14.76c.13.31.25.62.42 1-.37.0-.62.06-.87.06h-12.51a1.06 1.06.0 01-1.17-.76c-1.16-2.7-2.39-5.37-3.55-8.07a.83.83.0 00-.91-.59h-19.51a.89.89.0 00-1 .67c-1.15 2.71-2.33 5.4-3.48 8.11-.18.41-.36.65-.88.65h-13.13c-.06.01-.16-.02-.46-.06zm28.79-35.27C203 49 200.55 54.56 198.1 60.21h14.51zM147.61 78.41h-14.38v-34.6h-17.8V34.4h50v9.36h-17.82zM70 30A36.93 36.93.0 0055.77 19.28c.72-.88 1.36-1.73 2.06-2.52 2-2.21 2-2.22 4.5-.77a42 42 0 0119.8 24.65A1 1 0 0181.72 42c-1.44 1-2.87 1.95-4.45 3-.31-1.08-.49-1.9-.78-2.68q-1.15-3-2.41-6a1.1 1.1.0 00-.81-.58H62.95a2.12 2.12.0 00-.32.07L64.24 45a8.33 8.33.0 01-1.2-.48c-1.21-.75-2.44-1.49-3.6-2.3a4.4 4.4.0 01-2.16-3.49 6.41 6.41.0 00-.25-1.2c-.39-1.63-.4-1.62-2-1.78a.92.92.0 01-.64-.43 15.65 15.65.0 01-1.23-5.18l1.5-.14c-.37-.87-.77-1.64-1-2.45a4.5 4.5.0 01-.24-1.91 15.94 15.94.0 012.38-6.14 2.71 2.71.0 01.38.48c1.39 3.02 2.82 6.1 4.25 9.2a1.14 1.14.0 001.26.86h7.26z"/></svg>