<svg width="149" height="28" viewBox="0 0 149 28" fill="none" xmlns="http://www.w3.org/2000/svg">
<path d="M55.0927 2.6165L56.8126 1.90918V4.205H59.4124V5.3786H56.8126V10.3654C56.8126 11.2979 57.0778 11.7998 58.1467 11.7998C58.4641 11.7998 58.9704 11.7642 59.4647 11.697V12.8706C58.9021 12.9378 58.3436 12.9734 57.8172 12.9734C56.0772 12.9734 55.0967 12.4202 55.0967 10.4879V5.37465H52.7982V4.20105H55.0967V2.6165H55.0927Z" fill="black"/>
<path d="M62.6995 6.46523C62.9084 4.41045 65.1708 3.87305 67.0875 3.87305C69.5267 3.87305 71.3149 4.78979 71.3149 6.94731V11.211C71.3149 11.8669 71.335 12.4043 71.3872 12.8667H69.7718C69.7196 12.4715 69.7035 12.0566 69.7035 11.6575H69.6673C68.6668 12.9536 67.5416 13.1946 65.8218 13.1946C63.5956 13.1946 62.0686 11.9855 62.0686 10.3614C62.0686 8.53186 63.475 7.5835 66.5973 7.49657C67.8952 7.46496 68.7913 7.46496 69.599 7.46496V7.22392C69.599 5.56824 68.5462 5.05059 66.8424 5.05059C65.6329 5.05059 64.6162 5.51687 64.5238 6.46523H62.6995ZM69.595 8.63856C69.0164 8.63856 68.1725 8.63856 66.8545 8.68992C65.0663 8.76105 63.8889 9.05346 63.8889 10.314C63.8889 11.1754 64.6082 12.021 66.2758 12.021C68.4016 12.021 69.595 11.1241 69.595 9.03371V8.63856Z" fill="black"/>
<path d="M84.6076 4.205L78.2385 16.182H76.3097L78.134 12.8667L73.2718 4.20105H75.3051L79.0623 11.2426L82.7833 4.20105H84.6076V4.205Z" fill="black"/>
<path d="M86.7695 0.403687H88.4894V12.8667H86.7695V0.403687Z" fill="black"/>
<path d="M97.0807 13.1947C93.5003 13.1947 91.5715 11.5035 91.5715 8.53589C91.5715 5.72638 93.3958 3.87708 97.0807 3.87708C100.661 3.87708 102.59 5.56832 102.59 8.53589C102.59 11.5035 100.661 13.1947 97.0807 13.1947ZM93.3958 8.53589C93.3958 10.5037 94.6777 12.0251 97.0807 12.0251C99.4836 12.0251 100.766 10.5077 100.766 8.53589C100.766 6.56805 99.4877 5.05067 97.0807 5.05067C94.6777 5.05067 93.3958 6.5641 93.3958 8.53589Z" fill="black"/>
<path d="M105.519 6.17286C105.519 5.51691 105.483 4.89258 105.451 4.20502H107.062C107.098 4.72266 107.131 5.34305 107.131 5.93182H107.167C107.958 4.52904 108.73 4.08252 110.695 4.08252H111.278V5.5999C111.012 5.51691 110.771 5.49716 110.454 5.49716C108.384 5.49716 107.243 6.9355 107.243 8.67416V12.8707H105.523V6.17286H105.519Z" fill="black"/>
<path d="M53.4894 20.4299C53.4894 19.7739 53.4572 19.1535 53.4211 18.462H55.0365C55.0686 18.8967 55.1088 19.3906 55.1088 19.9991H55.1409C56.1415 18.6714 57.4073 18.134 58.8418 18.134C60.3166 18.134 61.5422 18.8374 62.0525 20.3074C62.6834 19.118 64.0537 18.134 65.6851 18.134C68.1966 18.134 69.7397 19.3392 69.7397 22.1527V27.1276H68.0198V22.7928C68.0198 20.6907 67.405 19.3076 65.5284 19.3076C64.0215 19.3076 62.4745 20.3232 62.4745 23.1722V27.1276H60.7546V22.6901C60.7546 20.3587 59.9509 19.3076 58.3677 19.3076C56.8608 19.3076 55.2093 20.3785 55.2093 22.9312V27.1276H53.4894V20.4299Z" fill="black"/>
<path d="M78.4033 27.4557C74.8229 27.4557 72.8901 25.7645 72.8901 22.7929C72.8901 19.9795 74.7184 18.1381 78.4033 18.1381C81.9796 18.1381 83.9125 19.8293 83.9125 22.7929C83.9125 25.7605 81.9796 27.4557 78.4033 27.4557ZM74.7144 22.7929C74.7144 24.7647 75.9963 26.2821 78.3993 26.2821C80.8022 26.2821 82.0841 24.7647 82.0841 22.7929C82.0841 20.829 80.8022 19.3077 78.3993 19.3077C75.9963 19.3077 74.7144 20.829 74.7144 22.7929Z" fill="black"/>
<path d="M87.2316 20.4299C87.2316 19.774 87.1955 19.1536 87.1633 18.4621H88.7787C88.8149 18.9797 88.8511 19.6001 88.8511 20.1889H88.8832C89.6748 18.7901 90.4463 18.3396 92.4113 18.3396H92.99V19.857C92.7248 19.774 92.4797 19.7542 92.1662 19.7542C90.0927 19.7542 88.9515 21.1847 88.9515 22.9273V27.1238H87.2316V20.4299Z" fill="black"/>
<path d="M95.7626 20.4299C95.7626 19.774 95.7304 19.1536 95.6943 18.4621H97.3097C97.3418 18.9797 97.378 19.6001 97.378 20.1889H97.4141C98.2017 18.7901 98.9773 18.3396 100.942 18.3396H101.517V19.857C101.256 19.774 101.011 19.7542 100.693 19.7542C98.6237 19.7542 97.4824 21.1847 97.4824 22.9273V27.1238H95.7626V20.4299Z" fill="black"/>
<path d="M104.193 14.6647H105.913V16.3915H104.193V14.6647ZM104.193 18.4621H105.913V27.1277H104.193V18.4621Z" fill="black"/>
<path d="M110.615 24.658C110.775 25.8672 111.896 26.2781 113.46 26.2781C115.388 26.2781 116.337 25.6933 116.337 24.7765C116.337 22.7573 109.212 24.2905 109.212 20.8409C109.212 18.9244 111.053 18.1301 113.492 18.1301C115.324 18.1301 117.671 18.5806 117.775 20.7026H116.108C115.862 19.6159 114.878 19.3037 113.564 19.3037C112.021 19.3037 110.932 19.8253 110.932 20.6156C110.932 21.2162 111.495 21.5956 112.813 21.8406L115.726 22.374C117.373 22.6862 118.165 23.358 118.165 24.6541C118.165 26.4994 116.602 27.4517 113.267 27.4517C110.912 27.4517 108.911 26.6772 108.79 24.6541H110.615V24.658Z" fill="black"/>
<path d="M125.736 27.4557C122.155 27.4557 120.222 25.7645 120.222 22.7929C120.222 19.9795 122.051 18.1381 125.736 18.1381C129.316 18.1381 131.245 19.8293 131.245 22.7929C131.245 25.7605 129.316 27.4557 125.736 27.4557ZM122.051 22.7929C122.051 24.7647 123.333 26.2821 125.736 26.2821C128.139 26.2821 129.42 24.7647 129.42 22.7929C129.42 20.829 128.139 19.3077 125.736 19.3077C123.329 19.3077 122.051 20.829 122.051 22.7929Z" fill="black"/>
<path d="M133.985 20.4299C133.985 19.7739 133.953 19.1535 133.921 18.462H135.532C135.569 18.8967 135.601 19.3906 135.601 19.9991H135.637C136.637 18.6714 137.899 18.134 139.474 18.134C141.95 18.134 143.742 19.4933 143.742 22.208V27.1276H142.022V22.291C142.022 20.3587 140.845 19.3076 139.197 19.3076C137.566 19.3076 135.705 20.2916 135.705 23.0339V27.1276H133.981V20.4299H133.985Z" fill="black"/>
<path d="M21.6277 5.55253C22.335 5.73825 23.1628 5.12972 23.4802 4.18926C23.7977 3.25275 23.4762 2.34391 22.7649 2.16214C22.0577 1.97642 21.2299 2.58495 20.9165 3.52146C20.6031 4.46191 20.9205 5.37076 21.6277 5.55253Z" fill="#D31245"/>
<path d="M43.5641 5.55253C44.2713 5.73825 45.0991 5.12972 45.4165 4.18926C45.73 3.25275 45.4165 2.34391 44.7053 2.16214C43.998 1.97642 43.1662 2.58495 42.8568 3.52146C42.5394 4.46191 42.8568 5.37076 43.5641 5.55253Z" fill="#D31245"/>
<path d="M32.5939 5.55253C33.3051 5.73825 34.1289 5.12972 34.4463 4.18926C34.7598 3.25275 34.4423 2.34391 33.7351 2.16214C33.0279 1.97642 32.196 2.58495 31.8826 3.52146C31.5692 4.46191 31.8866 5.37076 32.5939 5.55253Z" fill="#D31245"/>
<path d="M43.568 6.44553C42.3625 5.9516 41.6191 6.25191 40.719 7.02245L37.878 9.58303C37.1266 10.235 36.1381 11.0846 35.0772 11.9697C35.1576 10.7606 35.2862 7.548 32.6019 6.44553C31.3924 5.9516 30.649 6.25191 29.7529 7.02245L26.9119 9.58303C26.1966 10.2074 24.1232 11.9539 24.1111 11.9697C24.1955 10.7606 24.3201 7.548 21.6358 6.44553C20.4303 5.9516 19.6869 6.25191 18.7868 7.02245L15.9458 9.58303C15.2265 10.2113 13.145 11.9697 13.145 11.9697H13.141C13.2254 10.7606 13.3499 7.548 10.6616 6.44553C9.45613 5.9516 8.71273 6.25191 7.81261 7.02245L4.97163 9.58303C4.33673 10.1323 3.52904 10.8277 2.65303 11.5627L1.19437 12.843C1.114 12.9102 1.12605 13.0643 1.27473 13.0722H3.93489C4.04741 13.1433 4.13179 13.2619 4.13179 13.4674C4.13179 13.4674 4.17198 13.6965 3.90676 14.1786L3.90274 14.1826C3.77014 14.4473 3.59735 14.803 3.50493 15.0045C3.33616 15.3601 3.09505 15.8778 2.82984 16.4823L2.80975 16.5298C2.33156 17.6322 1.78105 19.0074 1.4435 20.2284C1.4435 20.2284 0.07726 25.0176 0.0732416 26.8511C0.0732416 26.8511 0.0370759 27.345 0.358545 27.3648C0.728235 27.4162 0.844767 26.9894 0.844767 26.9894C0.844767 26.9894 1.51985 24.7291 2.87404 22.6032C2.87404 22.6032 4.92743 19.2484 6.30171 17.9207L6.84419 20.094C6.92857 20.4457 7.12146 21.2321 6.8241 22.4136C6.8241 22.4136 6.25349 24.8398 5.43776 26.6733C5.43776 26.6733 5.26899 26.9894 5.5985 27.1395C5.69896 27.1909 5.94408 27.2265 6.27358 26.7721C6.27358 26.7721 7.97737 24.6066 9.1427 22.7692C9.1427 22.7692 10.2638 21.2123 10.2076 19.8925C10.2076 19.8925 10.1634 18.5332 9.88609 16.5614C9.88609 16.5614 9.82983 16.2295 9.82983 15.8066C9.82983 15.6683 9.84189 15.5221 9.84189 15.368C9.84189 13.8586 10.9188 13.2026 13.141 13.0129H13.145C13.5227 12.9813 13.9326 12.9616 14.3786 12.9537C14.5032 12.9497 15.114 12.8825 15.114 13.4357C15.114 13.4357 15.1381 13.6926 14.8769 14.1747L14.8729 14.1786C14.7403 14.4434 14.5635 14.799 14.471 15.0005C14.3023 15.3562 14.0612 15.8738 13.796 16.4784L13.7919 16.4823C13.3097 17.5927 12.7512 18.9876 12.4096 20.2244C12.4096 20.2244 11.0474 25.0136 11.0394 26.8471C11.0394 26.8471 11.0072 27.3411 11.3247 27.3608C11.6984 27.4122 11.8149 26.9854 11.8149 26.9854C11.8149 26.9854 12.5985 24.5987 13.9527 22.4728C13.9527 22.4728 15.9337 19.1338 17.2719 17.9167L17.8143 20.0901C17.8987 20.4418 18.0956 21.2281 17.7942 22.4096C17.7942 22.4096 17.2196 24.8358 16.4079 26.6693C16.4079 26.6693 16.2391 26.9854 16.5686 27.1356C16.6691 27.187 16.9142 27.2225 17.2437 26.7681C17.2437 26.7681 18.9475 24.6027 20.1128 22.7652C20.1128 22.7652 21.234 21.2083 21.1777 19.8885C21.1777 19.8885 21.1375 18.5292 20.8562 16.5574C20.8562 16.5574 20.8 16.2255 20.8 15.8027C20.8 15.8027 20.8 15.5142 20.812 15.3601C20.9326 13.8586 21.889 13.1947 24.1111 13.005C24.4888 12.9734 24.9027 12.9537 25.3447 12.9458C25.4693 12.9418 26.0801 12.8746 26.0841 13.4278C26.0841 13.4278 26.1123 13.6847 25.847 14.1668L25.843 14.1707C25.7104 14.4355 25.5376 14.7911 25.4452 14.9926C25.2764 15.3483 25.0313 15.8659 24.7701 16.4705L24.7661 16.4744C24.2839 17.5848 23.7253 18.9797 23.3838 20.2165C23.3838 20.2165 22.0216 25.0057 22.0095 26.8392C22.0095 26.8392 21.9774 27.3332 22.2948 27.3529C22.6685 27.4043 22.785 26.9775 22.785 26.9775C22.785 26.9775 23.5686 24.5711 24.9188 22.4412C24.9188 22.4412 26.8516 19.2444 28.238 17.9088L28.7805 20.0822C28.8648 20.4339 29.0617 21.2202 28.7604 22.4017C28.7604 22.4017 28.1857 24.8279 27.378 26.6614C27.378 26.6614 27.2053 26.9775 27.5388 27.1277C27.6392 27.1791 27.8803 27.2146 28.2139 26.7602C28.2139 26.7602 29.9177 24.5948 31.083 22.7573C31.083 22.7573 32.2001 21.2004 32.1478 19.8806C32.1478 19.8806 32.1077 18.5213 31.8224 16.5495C31.8224 16.5495 31.7661 16.2176 31.7661 15.7948C31.7621 15.6565 31.7661 15.5063 31.7782 15.3562C31.7782 13.8467 32.8551 13.1907 35.0772 13.0011C35.455 12.9695 35.8688 12.9497 36.3109 12.9418C36.4314 12.9418 37.0422 12.8707 37.0462 13.4278C37.0462 13.4278 37.0864 13.661 36.8212 14.1431L36.8172 14.147C36.6846 14.4118 36.5078 14.7674 36.4153 14.965L36.4113 14.9689C35.9291 15.9805 34.8763 18.2921 34.3419 20.2205C34.3419 20.2205 32.9796 25.0097 32.9676 26.8432C32.9676 26.8432 32.9314 27.3371 33.2529 27.3569C33.6266 27.4082 33.7391 26.9815 33.7391 26.9815C33.7391 26.9815 34.5106 24.5948 35.8689 22.4689C35.8689 22.4689 37.5807 19.608 39.1961 17.9128L39.7385 20.0861C39.8229 20.4378 40.0158 21.2241 39.7225 22.4056C39.7225 22.4056 39.1478 24.8319 38.3361 26.6654C38.3361 26.6654 38.1674 26.9815 38.4969 27.1316C38.5973 27.183 38.8384 27.2186 39.1679 26.7642C39.1679 26.7642 40.8717 24.5987 42.0411 22.7613C42.0411 22.7613 43.1582 21.2044 43.1059 19.8846C43.1059 19.8846 43.0617 18.5253 42.7845 16.5535C42.7845 16.5535 42.6961 16.0358 42.7403 15.4629C42.7885 14.2853 43.4716 13.8704 43.9659 13.7242C44.0583 13.6965 44.1427 13.6807 44.219 13.6649C44.219 13.6649 44.5083 13.6215 44.6771 13.5978C44.8539 13.5622 45.095 13.5069 45.2678 13.4515C45.3602 13.416 45.4567 13.3528 45.5451 13.2698C45.7701 13.0524 45.971 12.681 46.0233 12.1436L46.0273 12.0843C46.1117 10.9977 46.3488 7.58752 43.568 6.44553Z" fill="#D31245"/>
<path d="M10.6576 5.55253C11.3649 5.73825 12.1967 5.12972 12.5101 4.18926C12.8276 3.25275 12.5061 2.34391 11.7989 2.16214C11.0916 1.97642 10.2598 2.58495 9.9464 3.52146C9.63297 4.46191 9.9464 5.37076 10.6576 5.55253Z" fill="#D31245"/>
<path d="M147.684 25.7762C147.684 26.4203 147.154 26.9301 146.515 26.9301C145.888 26.9301 145.345 26.4203 145.345 25.7762C145.345 25.1321 145.892 24.6263 146.515 24.6263C147.162 24.6263 147.684 25.1361 147.684 25.7762ZM145.486 25.7762C145.486 26.3452 145.952 26.7957 146.515 26.7957C147.085 26.7957 147.543 26.3413 147.543 25.7762C147.543 25.2309 147.097 24.7607 146.515 24.7607C145.952 24.7607 145.486 25.2191 145.486 25.7762ZM146.089 25.1479H146.535C146.627 25.1479 146.965 25.1479 146.965 25.4601C146.965 25.4957 146.965 25.6932 146.732 25.7565C146.86 25.792 146.904 25.8434 146.92 25.9936C146.941 26.1477 146.953 26.2623 146.997 26.3848H146.816C146.792 26.3057 146.776 26.2544 146.756 26.0647C146.736 25.875 146.687 25.8236 146.482 25.8236H146.265V26.3848H146.093V25.1479H146.089ZM146.265 25.6774H146.535C146.623 25.6774 146.78 25.6774 146.78 25.4878C146.78 25.2941 146.627 25.2941 146.535 25.2941H146.265V25.6774Z" fill="black"/>
</svg>
