<?xml version="1.0" encoding="UTF-8"?>
<svg id="TD_Shield_TDS_Wordmark_Horizontal_" data-name="TD Shield + TDS Wordmark (Horizontal)" xmlns="http://www.w3.org/2000/svg" viewBox="0 0 365.72 54">
  <defs>
    <style>
      .cls-1 {
        fill: #1c1c1c;
      }

      .cls-1, .cls-2, .cls-3 {
        stroke-width: 0px;
      }

      .cls-2 {
        fill: #00b624;
      }

      .cls-3 {
        fill: #fff;
      }
    </style>
  </defs>
  <g>
    <rect class="cls-2" width="60.38" height="54"/>
    <path class="cls-3" d="M39.64,42.32h-14.06v-25.34h7.06v20.85h6.79c4.69,0,6.66-3.25,6.66-11.62s-2.24-10.86-7-10.86h-15.5v26.97h-7V15.35H6.34v-4.5h34.93c8.43,0,12.43,4.36,12.43,15.29,0,14.41-5.98,16.17-14.06,16.17"/>
  </g>
  <path id="EN" class="cls-1" d="M96.3,22.46h-4.64v-3.99h14.44v3.99h-4.64v13.94h-5.16v-13.94ZM108.61,18.48h6.52c6.37,0,9.6,3.18,9.6,8.75v.2c0,5.59-3.31,8.97-9.63,8.97h-6.49v-17.92ZM114.95,32.44c3.06,0,4.41-1.6,4.41-4.94v-.2c0-3.41-1.35-4.86-4.46-4.86h-1.13v10h1.18ZM131.83,30.71h4.86c.13,1.28.73,2.33,2.86,2.33,1.48,0,2.31-.73,2.31-1.78,0-.98-.68-1.43-2.83-1.73-4.79-.58-6.77-1.96-6.77-5.69,0-3.26,2.66-5.62,6.94-5.62s6.74,1.8,7.07,5.59h-4.74c-.18-1.28-.93-1.93-2.36-1.93-1.35,0-2.06.63-2.06,1.53,0,1,.55,1.45,2.78,1.73,4.29.55,6.87,1.63,6.87,5.59,0,3.28-2.61,5.97-7.22,5.97-5.01,0-7.57-2.11-7.72-5.99ZM148.95,30.01v-.2c0-4.21,3.13-6.87,7.09-6.87,3.58,0,6.67,2.06,6.67,6.77v1.2h-9.23c.18,1.73,1.13,2.71,2.73,2.71,1.48,0,2.11-.68,2.28-1.55h4.21c-.4,2.96-2.68,4.64-6.64,4.64s-7.12-2.41-7.12-6.69ZM158.35,28.35c-.08-1.55-.85-2.46-2.31-2.46-1.35,0-2.28.9-2.51,2.46h4.81ZM164.87,30.01v-.2c0-4.36,3.13-6.87,6.99-6.87,3.21,0,6.17,1.4,6.42,5.39h-4.21c-.2-1.23-.8-1.91-2.11-1.91-1.58,0-2.51,1.13-2.51,3.33v.2c0,2.28.88,3.46,2.58,3.46,1.25,0,2.13-.75,2.28-2.18h4.04c-.13,3.31-2.36,5.47-6.59,5.47-3.91,0-6.89-2.28-6.89-6.69ZM180.68,31.84v-8.55h4.49v7.82c0,1.48.58,2.21,1.86,2.21,1.35,0,2.23-.8,2.23-2.48v-7.55h4.49v13.11h-4.49v-2.03c-.7,1.35-1.98,2.33-4.16,2.33-2.53,0-4.41-1.55-4.41-4.86ZM196.78,23.29h4.49v2.61c.83-1.96,2.21-2.81,4.24-2.78v4.19c-2.73-.1-4.24.78-4.24,2.88v6.22h-4.49v-13.11ZM207.86,18h4.64v3.81h-4.64v-3.81ZM207.93,23.29h4.49v13.11h-4.49v-13.11ZM216.38,32.19v-5.84h-1.58v-3.06h1.58v-2.73h4.49v2.73h2.58v3.06h-2.58v5.41c0,.95.48,1.38,1.33,1.38.5,0,.88-.08,1.28-.23v3.41c-.58.15-1.43.38-2.48.38-2.96,0-4.61-1.43-4.61-4.51ZM225.81,18h4.64v3.81h-4.64v-3.81ZM225.88,23.29h4.49v13.11h-4.49v-13.11ZM232.8,30.01v-.2c0-4.21,3.13-6.87,7.09-6.87,3.58,0,6.67,2.06,6.67,6.77v1.2h-9.23c.18,1.73,1.13,2.71,2.73,2.71,1.48,0,2.11-.68,2.28-1.55h4.21c-.4,2.96-2.68,4.64-6.64,4.64s-7.12-2.41-7.12-6.69ZM242.2,28.35c-.08-1.55-.85-2.46-2.31-2.46-1.35,0-2.28.9-2.51,2.46h4.81ZM248.57,32.26h4.14c.15.95.58,1.58,1.85,1.58,1.1,0,1.6-.43,1.6-1.18s-.63-1.03-2.43-1.28c-3.51-.45-4.99-1.5-4.99-4.14,0-2.91,2.58-4.31,5.59-4.31,3.26,0,5.52,1.1,5.82,4.26h-4.06c-.2-.93-.65-1.45-1.68-1.45s-1.48.43-1.48,1.1.6,1,2.21,1.2c3.63.45,5.39,1.35,5.39,4.14,0,3.11-2.31,4.51-5.94,4.51s-5.92-1.58-6.02-4.44Z"/>
</svg>