<svg width="225" height="42" viewBox="0 0 225 42" xmlns="http://www.w3.org/2000/svg" xmlns:xlink="http://www.w3.org/1999/xlink" aria-label=" The World Bank Working for a World Free of Poverty" role="img">
    
    <defs>

        <radialGradient cx="95.796%" cy="21.633%" fx="95.796%" fy="21.633%" r="83.368%" gradientTransform="matrix(.99995 0 0 1 0 0)" id="b">
            <stop stop-color="#FFF" offset="0%"></stop>
            <stop stop-color="#EBF9FE" offset="6%"></stop>
            <stop stop-color="#B6E8FA" offset="18%"></stop>
            <stop stop-color="#60CDF5" offset="36%"></stop>
            <stop stop-color="#00AEEF" offset="54%"></stop>
            <stop stop-color="#002F54" offset="100%"></stop>
        </radialGradient>
        <path d="M20.72.56c6.65 0 12.02 2.395 15.125 6.74a.964.964 0 01-.122 1.358c-.316.264-.767.27-1.106.076-2.161-1.206-4.845-1.91-7.748-2.101 2.2 1.711 4.21 3.856 5.9 6.336.304.446.59.897.866 1.353.887-.851 1.453-1.851 1.655-2.943a.962.962 0 111.895.35c-.306 1.65-1.191 3.125-2.581 4.319 1.896 3.67 2.919 7.574 2.91 11.272 0 .336-.012.667-.028.994.69-.765 1.192-1.609 1.476-2.523.358-1.445.551-2.955.551-4.511 0-2.538-.496-4.999-1.476-7.314a.963.963 0 111.776-.75 20.58 20.58 0 011.628 8.064c0 1.442-.15 2.852-.43 4.212-.004.052-.008.104-.018.157a8.48 8.48 0 01-.173.663 20.773 20.773 0 01-7.814 11.64 9.449 9.449 0 01-.572.421c-.031.021-.064.039-.097.057a20.598 20.598 0 01-10.138 3.518h-2.957C10.594 41.335 3.395 35.39.922 27.392c-.01-.025-.02-.045-.028-.068-.036-.121-.065-.242-.095-.364a20.707 20.707 0 01-.747-4.22v-2.946C.818 9.06 9.797.56 20.722.56zm-9.265 30.98c-.558 3.649-.126 6.035.945 6.557.069.033.13.077.187.124a18.699 18.699 0 008.015 1.849c.044-.006.088-.014.136-.014.722 0 1.815-1.944 2.667-5.65a33.863 33.863 0 01-5.3-.706 33.201 33.201 0 01-6.65-2.16zm23.17 1.066c-.52.233-1.068.446-1.644.64-2.285.769-4.866 1.167-7.589 1.2-.476 2.209-1.097 4.086-1.868 5.418a18.716 18.716 0 008.316-3.447c1.215-.964 2.15-2.258 2.786-3.811zM2.34 24.51c.042.648.145 1.286.31 1.912a18.842 18.842 0 006.754 9.848c-.242-1.557-.134-3.487.246-5.619-1.865-.998-3.539-2.164-4.949-3.467A16.828 16.828 0 012.34 24.51zm30.67-7.353c-1.819 1.046-4.04 1.67-6.436 1.828.022.754.032 1.51.032 2.262 0 3.866-.276 7.842-.848 11.269 2.377-.061 4.62-.427 6.61-1.096a14.643 14.643 0 002.983-1.368c.152-.863.234-1.776.236-2.736.008-3.316-.896-6.829-2.578-10.159zm-16.406-.036c-.3.568-.594 1.146-.881 1.734-1.98 4.059-3.229 7.714-3.9 10.732a31.13 31.13 0 006.686 2.229c1.785.38 3.56.605 5.284.68.523-2.944.886-6.71.886-11.25 0-.767-.01-1.512-.031-2.236a20.232 20.232 0 01-3.575-.437 22.305 22.305 0 01-4.469-1.452zm-6.795-5.69c-1.752 1.257-3.279 2.72-4.506 4.346-1.295 1.714-2.175 3.503-2.629 5.286.573 1.592 1.7 3.193 3.336 4.706 1.167 1.079 2.535 2.057 4.055 2.914.82-3.41 2.216-7.17 3.926-10.674.29-.597.59-1.184.895-1.764a15.971 15.971 0 01-2.963-2.165c-.9-.846-1.608-1.737-2.114-2.65zM23.24 7.51c-1.94 2.034-3.907 4.77-5.705 7.915 1.22.537 2.546.964 3.941 1.262 1.033.221 2.072.35 3.093.391-.213-3.975-.723-7.182-1.329-9.567zm2.057.347c.625 2.663 1.019 5.864 1.197 9.189 2.101-.149 4.047-.682 5.588-1.57a28.715 28.715 0 00-.905-1.422c-1.68-2.461-3.688-4.565-5.88-6.197zM9.096 6.531A18.83 18.83 0 002.58 16.38c.355-.595.746-1.186 1.184-1.764 1.435-1.9 3.239-3.592 5.312-5.022a6.089 6.089 0 01-.056-2.765c.02-.102.049-.2.076-.298zm12.093.365c-1.277.195-2.56.479-3.826.858a26.074 26.074 0 00-5.933 2.613c.408.78 1.013 1.56 1.81 2.305a14.04 14.04 0 002.573 1.885c1.688-2.967 3.53-5.594 5.376-7.661zm-8.54-2.297c-.931.74-1.531 1.633-1.746 2.633a4.072 4.072 0 00-.064 1.247 28.116 28.116 0 015.97-2.57c1.142-.345 2.3-.61 3.457-.813-2.751-1.007-5.368-1.169-7.617-.497zm15.67-.75c-.51.12-1.118.415-1.78.843 1.605.079 3.156.3 4.614.664a14.568 14.568 0 00-2.834-1.508zm-5.026-1.22c.29.432.562.934.814 1.504a12.3 12.3 0 011.66-1.083c-.858-.2-1.691-.335-2.474-.421zm-2.6-.14c-.7 0-1.39.043-2.071.119a17.872 17.872 0 013.225 1.042c-.423-.763-.825-1.157-1.153-1.161z" id="a"></path>
    </defs>
    <g fill="none" fill-rule="evenodd">
    	<title>
        The World Bank Working for a World Free of Poverty
    </title>
        <mask id="c" fill="#fff">
            <use xlink:href="#a"></use>
        </mask>
        <use fill="url(#b)" xlink:href="#a"></use>
        <path mask="url(#c)" d="M.052 41.947h211.295V.561H.053z"></path>
        <path d="M63.745 15.107h3.045l-3.63 12.786h-3.04l-2.208-8.017-2.241 8.017h-3.04L49 15.107h3.135l2.124 9.331 2.549-9.33h2.264l2.464 9.33 2.209-9.33zm9.09 10.509c1.072 0 2.867-.532 2.867-4.098 0-3.567-1.795-4.099-2.866-4.099-1.86 0-2.883 1.457-2.883 4.099 0 2.642 1.023 4.098 2.883 4.098zm0-10.616c2.732 0 5.65 1.712 5.65 6.518 0 4.78-2.918 6.482-5.65 6.482-2.738 0-5.665-1.703-5.665-6.482 0-4.806 2.927-6.518 5.666-6.518zm9.88 6.087h1.505c1.494 0 2.423-.706 2.423-1.842 0-1.194-.813-1.878-2.229-1.878h-1.699v3.72zm5.574 2.93c.444.915.83 1.706 1.72 1.706h.639v2.104l-.094.025c-.019.006-.485.13-1.306.13-2.127 0-2.781-1.48-3.355-2.786-.473-1.07-.88-1.994-1.992-1.994h-1.186v4.69h-2.693V15.108h4.48c3.274 0 4.8 1.292 4.8 4.065 0 1.716-1.018 2.775-2.034 3.228.448.44.74 1.036 1.02 1.617zm6.323-8.91h-2.694v12.786h8.165v-2.259h-5.471V15.107zm9.418 10.527h1.574c1.939 0 3.098-1.48 3.098-3.955 0-2.862-1.228-4.312-3.647-4.312h-1.025v8.267zm1.06-10.527c3.937 0 6.286 2.47 6.286 6.608 0 3.927-2.096 6.178-5.754 6.178h-4.286V15.107h3.755zm13.792 10.527h2.106c1.376 0 2.016-.523 2.016-1.644 0-1.376-1.125-1.664-2.07-1.664h-2.052v3.308zm1.84-5.298c1.122 0 1.646-.478 1.646-1.503 0-.973-.668-1.466-1.982-1.466h-1.504v2.969h1.84zm3 .818c.972.282 2.242 1.183 2.242 3.103 0 2.31-1.62 3.636-4.445 3.636h-5.331V15.107h4.817c2.738 0 4.128 1.157 4.128 3.439 0 1.766-.796 2.39-1.411 2.608zm8.472-2.56l-1.365 4.033h2.763l-1.398-4.033zm1.374-3.404l4.612 12.703h-2.8l-1.08-3.132h-4.212l-1.045 3.132h-2.82l4.643-12.786h2.672l.03.083zm12.485 7.815l-4.422-7.898h-2.73v12.786h2.694v-7.626L146 27.893h2.746V15.107h-2.693v7.898zm15.23-7.898h-3.2l-4.185 5.756v-5.756h-2.729v12.786h2.729V22.01l4.29 5.882h3.24l-4.895-6.447 4.75-6.339zm8.066 8.113h2.78v.142c0 .829-.29 2.218-2.23 2.218-1.828 0-2.919-1.518-2.919-4.062 0-2.604 1.045-4.099 2.866-4.099 2.167 0 2.245 2.218 2.247 2.312l.004.145 2.513-.397v-.11c0-.922-.813-4.369-4.799-4.369-3.568 0-5.614 2.376-5.614 6.518 0 4.058 2.112 6.482 5.649 6.482 3.555 0 4.817-2.508 4.817-4.656v-2.22h-5.314v2.096zm9.863-2.133h1.503c1.496 0 2.425-.706 2.425-1.842 0-1.194-.812-1.878-2.23-1.878h-1.698v3.72zm5.573 2.93c.445.915.83 1.706 1.719 1.706h.639v2.104l-.091.025c-.02.006-.488.13-1.308.13-2.128 0-2.78-1.48-3.356-2.786-.471-1.07-.88-1.994-1.993-1.994h-1.183v4.69h-2.694V15.108h4.481c3.275 0 4.799 1.292 4.799 4.065 0 1.716-1.018 2.775-2.035 3.228.45.44.74 1.036 1.022 1.617zm8.445 1.599c1.072 0 2.868-.532 2.868-4.098 0-3.567-1.796-4.099-2.868-4.099-1.859 0-2.883 1.457-2.883 4.099 0 2.642 1.024 4.098 2.883 4.098zm0-10.616c2.732 0 5.65 1.712 5.65 6.518 0 4.78-2.918 6.482-5.65 6.482-2.738 0-5.666-1.703-5.666-6.482 0-4.806 2.928-6.518 5.666-6.518zm14.446 7.772c0 1.877-.713 2.791-2.177 2.791-1.48 0-2.229-.94-2.229-2.791v-7.665h-2.694v7.484c-.008 1.83.443 3.22 1.342 4.132.834.847 2.039 1.277 3.581 1.277 2.222 0 4.87-.938 4.87-5.408v-7.485h-2.693v7.665zm7.65-1.203h1.61c1.561 0 2.352-.691 2.352-2.056 0-1.384-.867-2.146-2.441-2.146h-1.522v4.202zm1.715-6.462c3.197 0 4.959 1.565 4.959 4.406 0 2.68-1.734 4.28-4.64 4.28h-2.035v4.1h-2.694V15.107h4.41z" fill="#002740"></path>
    </g>
</svg>