<svg xmlns="http://www.w3.org/2000/svg" width="149" height="43" viewBox="0 0 149 43">
  <g fill="#FFFFFF" fill-rule="evenodd">
    <polygon points="15.133 37.081 17.495 37.081 15.593 38.42 16.33 40.547 14.437 39.236 12.542 40.547 13.289 38.42 11.37 37.081 13.724 37.081 14.437 35.006"/>
    <polygon points="21.138 39.116 18.786 39.116 20.705 40.457 19.959 42.582 21.852 41.273 23.745 42.582 23.008 40.457 24.909 39.116 22.548 39.116 21.852 37.043"/>
    <polygon points="30.546 37.493 32.907 37.493 31.005 38.834 31.743 40.96 29.849 39.651 27.955 40.96 28.701 38.834 26.783 37.493 29.136 37.493 29.849 35.419"/>
    <polygon points="37.845 32.02 40.208 32.02 38.305 33.361 39.042 35.487 37.15 34.177 35.256 35.487 36.002 33.361 34.084 32.02 36.435 32.02 37.15 29.947"/>
    <polygon points="40.524 10.996 42.885 10.996 40.982 12.336 41.721 14.462 39.827 13.153 37.932 14.462 38.68 12.336 36.761 10.996 39.115 10.996 39.827 8.922"/>
    <polygon points="35.063 5.135 37.425 5.135 35.522 6.476 36.259 8.602 34.367 7.293 32.473 8.602 33.218 6.476 31.301 5.135 33.652 5.135 34.367 3.062"/>
    <polygon points="28.036 2.305 30.396 2.305 28.495 3.645 29.232 5.771 27.338 4.462 25.445 5.771 26.191 3.645 24.272 2.305 26.626 2.305 27.338 .231"/>
    <polygon points="18.426 0 17.712 2.073 15.359 2.073 17.277 3.413 16.531 5.54 18.426 4.23 20.319 5.54 19.581 3.413 21.483 2.073 19.122 2.073"/>
    <polygon points="11.618 4.987 13.98 4.987 12.078 6.326 12.816 8.454 10.923 7.144 9.028 8.454 9.774 6.326 7.856 4.987 10.209 4.987 10.923 2.914"/>
    <polygon points="6.351 10.251 8.713 10.251 6.811 11.591 7.549 13.718 5.656 12.407 3.761 13.718 4.508 11.591 2.589 10.251 4.942 10.251 5.656 8.178"/>
    <polygon points="2.581 17.734 .23 17.734 2.148 19.074 1.401 21.201 3.295 19.891 5.188 21.201 4.451 19.074 6.354 17.734 3.992 17.734 3.295 15.66"/>
    <polygon points="2.353 25.547 0 25.547 1.919 26.887 1.172 29.014 3.066 27.704 4.959 29.014 4.222 26.887 6.124 25.547 3.762 25.547 3.066 23.474"/>
    <polygon points="8.113 32.035 10.474 32.035 8.573 33.377 9.311 35.503 7.416 34.193 5.523 35.503 6.269 33.377 4.351 32.035 6.704 32.035 7.416 29.964"/>
    <path d="M19.3333449,21.237901 C19.8363203,20.9164116 20.0878042,20.2241826 20.0878042,19.1611933 C20.0878042,18.4352494 19.9659512,17.8493178 19.7222414,17.4033808 C19.4785317,16.9574438 19.0118605,16.7344787 18.3222138,16.7344787 C18.0059096,16.7344787 17.7790556,16.7720717 17.6416448,16.8472587 C17.504234,16.9224458 17.4355296,17.0689287 17.4355296,17.2867118 L17.4355296,21.5645741 C18.384442,21.5490182 19.0170407,21.4401282 19.3333449,21.237901 Z M13.531008,26.5424502 C14.0547247,26.506153 14.4060244,26.3959668 14.5849177,26.2118881 C14.763811,26.0278095 14.8532564,25.6531762 14.8532564,25.087977 L14.8532564,18.0489491 C14.8532564,17.4474527 14.7625147,17.0676342 14.5810288,16.9094822 C14.3995428,16.7513301 14.0495394,16.6437365 13.531008,16.586698 L13.531008,16.1822456 L18.6566648,16.1822456 C20.015217,16.1822456 21.0483752,16.4026181 21.7561705,16.8433697 C22.4639658,17.2841214 22.8178581,18.0411658 22.8178581,19.1145257 C22.8178581,19.6382424 22.6791531,20.1295435 22.4017388,20.5884437 C22.1243245,21.047344 21.6667275,21.416792 21.0289339,21.6967989 C20.5466997,21.8938409 20.0644728,22.0131013 19.5822387,22.0545838 C19.1000045,22.0960663 18.384442,22.1168072 17.4355296,22.1168072 L17.4355296,25.087977 C17.4355296,25.6739175 17.5340491,26.0576249 17.731091,26.2391109 C17.9281329,26.4205969 18.2962846,26.521709 18.8355572,26.5424502 L18.8355572,26.9469027 L13.531008,26.9469027 L13.531008,26.5424502 Z M23.2223106,26.5424502 C23.8289922,26.5372649 24.2230702,26.4296713 24.4045561,26.2196661 C24.5860421,26.0096609 24.6767837,25.6946578 24.6767837,25.2746474 L24.6767837,17.7144981 C24.6767837,17.2789317 24.573079,16.9924475 24.3656665,16.8550366 C24.1582539,16.7176258 23.7901022,16.6281805 23.2612002,16.586698 L23.2612002,16.1822456 L27.2746128,16.1822456 L30.4091192,23.5557246 L30.541344,23.5557246 L33.6602945,16.1822456 L37.6737071,16.1822456 L37.6737071,16.586698 C37.1344345,16.6281805 36.7662828,16.7279963 36.5692409,16.8861484 C36.372199,17.0443004 36.2736795,17.4318968 36.2736795,18.0489491 L36.2736795,25.087977 C36.2736795,25.6739175 36.372199,26.0576249 36.5692409,26.2391109 C36.7662828,26.4205969 37.1344345,26.521709 37.6737071,26.5424502 L37.6737071,26.9469027 L32.3847138,26.9469027 L32.3847138,26.5424502 C32.8565773,26.5268943 33.211766,26.4478194 33.4502904,26.3052233 C33.6888148,26.1626272 33.8080752,25.8502167 33.8080752,25.3679826 L33.8080752,17.5822732 L33.6914062,17.5822732 L29.7868847,26.9469027 L29.3590985,26.9469027 L25.4156872,17.7689436 L25.3456858,17.7689436 L25.3456858,24.979086 C25.3456858,25.507988 25.4442053,25.8942881 25.6412472,26.1379978 C25.8382891,26.3817075 26.273849,26.5165237 26.9479397,26.5424502 L26.9479397,26.9469027 L23.2223106,26.9469027 L23.2223106,26.5424502 Z M44.3005047,23.1901618 L42.7760301,19.5034223 L42.6438053,19.5034223 L41.204888,23.1901618 L44.3005047,23.1901618 Z M38.3270534,26.5424502 C38.7107666,26.5165237 39.0192881,26.3428183 39.2526272,26.0213288 C39.4030013,25.8191016 39.6181886,25.3731713 39.8981955,24.6835246 L43.4371543,15.9644635 L43.8804964,15.9644635 L47.4350111,24.3335177 C47.8342802,25.2720594 48.1324313,25.8774357 48.3294732,26.1496647 C48.5265151,26.4218936 48.8065178,26.5528208 49.1694898,26.5424502 L49.1694898,26.9469027 L44.0127212,26.9469027 L44.0127212,26.5424502 C44.5312526,26.521709 44.8721818,26.4776345 45.0355192,26.4102254 C45.1988566,26.3428163 45.2805241,26.1717035 45.2805241,25.8968819 C45.2805241,25.7724344 45.2390422,25.5831733 45.1560772,25.3290929 C45.104224,25.1787188 45.0342233,24.9972356 44.946073,24.7846377 L44.5416206,23.8201742 L40.9637721,23.8201742 C40.730433,24.4527825 40.5800612,24.8650087 40.5126521,25.0568653 C40.3726486,25.4665051 40.302648,25.7646561 40.302648,25.9513274 C40.302648,26.1794812 40.4556124,26.3454088 40.7615459,26.449115 C40.9430319,26.5061535 41.2152568,26.5372649 41.5782287,26.5424502 L41.5782287,26.9469027 L38.3270534,26.9469027 L38.3270534,26.5424502 Z M60.828609,16.3494711 C61.507885,16.5957735 61.8864072,16.7189228 61.9641869,16.7189228 C62.1664142,16.7189228 62.3284528,16.6411443 62.4503077,16.4855849 C62.5721625,16.3300255 62.6486448,16.1666906 62.6797566,15.9955752 L63.1230987,15.9955752 L63.1230987,19.7212044 L62.7186463,19.7212044 C62.3349331,18.9122955 61.9434478,18.2745115 61.5441787,17.8078332 C60.7974935,16.9470712 59.9523001,16.5166966 59.008573,16.5166966 C57.9403984,16.5166966 57.1820577,16.9768863 56.7335281,17.8972795 C56.2849984,18.8176726 56.060737,20.053055 56.060737,21.6034638 C56.060737,22.7442328 56.1929605,23.6827604 56.4574115,24.4190749 C56.9500163,25.7983683 57.8652104,26.4880047 59.2030213,26.4880047 C60.0223008,26.4880047 60.7845305,26.2598543 61.4897331,25.8035467 C61.8941876,25.5390957 62.3712293,25.116499 62.9208725,24.5357439 L63.3953263,24.9246405 C62.7730887,25.6194725 62.2260463,26.1224404 61.7541828,26.4335592 C60.914162,26.9883877 59.9808196,27.2657978 58.9541275,27.2657978 C57.3829775,27.2657978 56.0659276,26.7991266 55.0029383,25.8657702 C53.8258722,24.8338928 53.2373479,23.4442496 53.2373479,21.6967989 C53.2373479,19.9649042 53.799946,18.562298 54.925159,17.4889381 C55.982963,16.4829872 57.2792719,15.9800194 58.8141247,15.9800194 C59.4778449,15.9800194 60.1493329,16.1031687 60.828609,16.3494711 Z M72.7910675,24.6057453 C73.0295919,23.8383189 73.1488523,22.8375684 73.1488523,21.6034638 C73.1488523,19.9078662 72.8960721,18.6297056 72.390504,17.7689436 C71.8849359,16.9081815 71.1991885,16.477807 70.3332412,16.477807 C69.1302484,16.477807 68.3057959,17.1959621 67.859859,18.632294 C67.6265199,19.3945351 67.509852,20.3849151 67.509852,21.6034638 C67.509852,22.8427537 67.6291125,23.8435042 67.8676369,24.6057453 C68.3083885,26.0213359 69.1302484,26.7291206 70.3332412,26.7291206 C71.5258633,26.7291206 72.3451305,26.0213359 72.7910675,24.6057453 Z M74.3388758,17.496716 C75.432977,18.5597053 75.9800194,19.9286075 75.9800194,21.6034638 C75.9800194,23.27832 75.432977,24.6472223 74.3388758,25.7102116 C73.2707012,26.7472743 71.935503,27.2657978 70.3332412,27.2657978 C68.6324583,27.2657978 67.2454077,26.6980145 66.1720478,25.5624309 C65.1712823,24.4942563 64.6709071,23.2031326 64.6709071,21.689021 C64.6709071,20.0193501 65.1946159,18.6478552 66.2420492,17.5744953 C67.2998532,16.4855795 68.6635702,15.9411297 70.3332412,15.9411297 C71.9406883,15.9411297 73.2758866,16.4596533 74.3388758,17.496716 Z M76.7655904,26.5424502 C77.3722721,26.5372649 77.76635,26.4296713 77.947836,26.2196661 C78.129322,26.0096609 78.2200636,25.6946578 78.2200636,25.2746474 L78.2200636,17.7144981 C78.2200636,17.2789317 78.1163589,16.9924475 77.9089463,16.8550366 C77.7015338,16.7176258 77.3333821,16.6281805 76.8044801,16.586698 L76.8044801,16.1822456 L80.8178927,16.1822456 L83.9523991,23.5557246 L84.0846239,23.5557246 L87.2035744,16.1822456 L91.216987,16.1822456 L91.216987,16.586698 C90.6777144,16.6281805 90.3095627,16.7279963 90.1125207,16.8861484 C89.9154788,17.0443004 89.8169593,17.4318968 89.8169593,18.0489491 L89.8169593,25.087977 C89.8169593,25.6739175 89.9154788,26.0576249 90.1125207,26.2391109 C90.3095627,26.4205969 90.6777144,26.521709 91.216987,26.5424502 L91.216987,26.9469027 L85.9279936,26.9469027 L85.9279936,26.5424502 C86.3998572,26.5268943 86.7550458,26.4478194 86.9935702,26.3052233 C87.2320947,26.1626272 87.3513551,25.8502167 87.3513551,25.3679826 L87.3513551,17.5822732 L87.2346861,17.5822732 L83.3301645,26.9469027 L82.9023783,26.9469027 L78.9589671,17.7689436 L78.8889657,17.7689436 L78.8889657,24.979086 C78.8889657,25.507988 78.9874852,25.8942881 79.1845271,26.1379978 C79.381569,26.3817075 79.8171288,26.5165237 80.4912196,26.5424502 L80.4912196,26.9469027 L76.7655904,26.9469027 L76.7655904,26.5424502 Z M97.6415584,21.237901 C98.1445338,20.9164116 98.3960177,20.2241826 98.3960177,19.1611933 C98.3960177,18.4352494 98.2741647,17.8493178 98.0304549,17.4033808 C97.7867452,16.9574438 97.320074,16.7344787 96.6304273,16.7344787 C96.3141231,16.7344787 96.0872691,16.7720717 95.9498583,16.8472587 C95.8124475,16.9224458 95.7437431,17.0689287 95.7437431,17.2867118 L95.7437431,21.5645741 C96.6926555,21.5490182 97.3252542,21.4401282 97.6415584,21.237901 Z M91.8392215,26.5424502 C92.3629382,26.506153 92.7142379,26.3959668 92.8931312,26.2118881 C93.0720245,26.0278095 93.1614699,25.6531762 93.1614699,25.087977 L93.1614699,18.0489491 C93.1614699,17.4474527 93.0707282,17.0676342 92.8892423,16.9094822 C92.7077563,16.7513301 92.3577529,16.6437365 91.8392215,16.586698 L91.8392215,16.1822456 L96.9648783,16.1822456 C98.3234305,16.1822456 99.3565887,16.4026181 100.064384,16.8433697 C100.772179,17.2841214 101.126072,18.0411658 101.126072,19.1145257 C101.126072,19.6382424 100.987367,20.1295435 100.709952,20.5884437 C100.432538,21.047344 99.974941,21.416792 99.3371474,21.6967989 C98.8549132,21.8938409 98.3726863,22.0131013 97.8904522,22.0545838 C97.408218,22.0960663 96.6926555,22.1168072 95.7437431,22.1168072 L95.7437431,25.087977 C95.7437431,25.6739175 95.8422626,26.0576249 96.0393045,26.2391109 C96.2363464,26.4205969 96.6044981,26.521709 97.1437707,26.5424502 L97.1437707,26.9469027 L91.8392215,26.9469027 L91.8392215,26.5424502 Z M106.399509,23.1901618 L104.875035,19.5034223 L104.74281,19.5034223 L103.303892,23.1901618 L106.399509,23.1901618 Z M100.426058,26.5424502 C100.809771,26.5165237 101.118293,26.3428183 101.351632,26.0213288 C101.502006,25.8191016 101.717193,25.3731713 101.9972,24.6835246 L105.536159,15.9644635 L105.979501,15.9644635 L109.534015,24.3335177 C109.933285,25.2720594 110.231436,25.8774357 110.428478,26.1496647 C110.62552,26.4218936 110.905522,26.5528208 111.268494,26.5424502 L111.268494,26.9469027 L106.111726,26.9469027 L106.111726,26.5424502 C106.630257,26.521709 106.971186,26.4776345 107.134524,26.4102254 C107.297861,26.3428163 107.379528,26.1717035 107.379528,25.8968819 C107.379528,25.7724344 107.338047,25.5831733 107.255082,25.3290929 C107.203228,25.1787188 107.133228,24.9972356 107.045077,24.7846377 L106.640625,23.8201742 L103.062777,23.8201742 C102.829437,24.4527825 102.679066,24.8650087 102.611657,25.0568653 C102.471653,25.4665051 102.401652,25.7646561 102.401652,25.9513274 C102.401652,26.1794812 102.554617,26.3454088 102.86055,26.449115 C103.042036,26.5061535 103.314261,26.5372649 103.677233,26.5424502 L103.677233,26.9469027 L100.426058,26.9469027 L100.426058,26.5424502 Z M111.898507,26.5424502 C112.489632,26.5268943 112.870747,26.4141154 113.041863,26.2041102 C113.212978,25.994105 113.298534,25.6842872 113.298534,25.2746474 L113.298534,17.7300539 C112.811115,17.185596 112.510371,16.8654077 112.396294,16.7694794 C112.282217,16.6735511 112.12666,16.6126246 111.929618,16.586698 L111.929618,16.1822456 L115.305241,16.1822456 L120.780904,22.8946004 L120.858684,22.8946004 L120.858684,18.1578402 C120.858684,17.6185675 120.760164,17.2335638 120.563122,17.0028173 C120.36608,16.7720709 119.972002,16.6333658 119.380877,16.586698 L119.380877,16.1822456 L122.810944,16.1822456 L122.810944,16.586698 C122.313154,16.669663 121.980003,16.7811456 121.81148,16.9211491 C121.642958,17.0611525 121.558697,17.3748593 121.558697,17.8622788 L121.558697,27.242464 L121.115355,27.242464 L114.107439,18.7256291 L113.998548,18.7256291 L113.998548,24.979086 C113.998548,25.4665055 114.065956,25.8113237 114.200774,26.0135509 C114.413372,26.3402256 114.848932,26.5165237 115.507467,26.5424502 L115.507467,26.9469027 L111.898507,26.9469027 L111.898507,26.5424502 Z M123.402067,26.5424502 C123.853189,26.5320796 124.177267,26.4776346 124.374309,26.3791137 C124.695798,26.2131836 124.85654,25.8942916 124.85654,25.4224281 L124.85654,17.7144981 C124.85654,17.2426345 124.703576,16.9263352 124.397642,16.7655904 C124.210971,16.6670695 123.879116,16.6074393 123.402067,16.586698 L123.402067,16.1822456 L128.971066,16.1822456 L128.971066,16.586698 C128.473276,16.6074393 128.13105,16.6644769 127.944379,16.7578125 C127.63326,16.9185572 127.477703,17.2374492 127.477703,17.7144981 L127.477703,25.4224281 C127.477703,25.8683651 127.602149,26.1665161 127.851044,26.3168902 C128.099939,26.4672643 128.473276,26.5424502 128.971066,26.5424502 L128.971066,26.9469027 L123.402067,26.9469027 L123.402067,26.5424502 Z M129.601079,26.9469027 L129.601079,26.5424502 C130.057386,26.5268943 130.381463,26.4646715 130.57332,26.3557799 C130.868883,26.1898498 131.016662,25.8787357 131.016662,25.4224281 L131.016662,17.7144981 C131.016662,17.2478198 130.863698,16.9341131 130.557764,16.7733684 C130.381463,16.6748474 130.062571,16.6126246 129.601079,16.586698 L129.601079,16.1822456 L138.779038,16.1822456 L138.779038,19.3945313 L138.390141,19.3945313 C138.187914,18.3678392 137.844392,17.6652397 137.359565,17.2867118 C136.874738,16.9081839 135.991952,16.7189228 134.711179,16.7189228 C134.22376,16.7189228 133.913942,16.7694789 133.781717,16.8705925 C133.649491,16.9717061 133.583379,17.172634 133.583379,17.4733822 L133.583379,21.1601217 C134.490809,21.1704923 135.10526,21.0058611 135.426749,20.666223 C135.748239,20.326585 135.994537,19.705653 136.165653,18.8034085 L136.570105,18.8034085 L136.570105,24.185737 L136.165653,24.185737 C136.051576,23.2783071 135.819536,22.6392268 135.469528,22.2684769 C135.119519,21.897727 134.490809,21.7123548 133.583379,21.7123548 L133.583379,25.5702088 C133.583379,25.9072542 133.670232,26.1367009 133.84394,26.2585557 C134.017648,26.3804106 134.374133,26.4413371 134.913406,26.4413371 C135.929727,26.4413371 136.759365,26.2442982 137.402344,25.8502143 C138.045323,25.4561305 138.615699,24.7172344 139.113489,23.6335039 L139.556831,23.6335039 L138.911262,26.9469027 L129.601079,26.9469027 Z M140.521294,23.2290514 L140.980192,23.2290514 C141.239458,24.4164882 141.658166,25.27983 142.236328,25.8191026 C142.814491,26.3583752 143.476904,26.6280075 144.22359,26.6280075 C144.949533,26.6280075 145.465464,26.4426353 145.771398,26.0718854 C146.077331,25.7011355 146.230296,25.3109465 146.230296,24.9013067 C146.230296,24.4242578 146.069554,24.0353652 145.748064,23.734617 C145.535466,23.5375751 145.107684,23.2809059 144.464705,22.9646018 L143.430241,22.4512583 C142.403549,21.9430976 141.680208,21.4401297 141.260198,20.9423396 C140.840187,20.4445495 140.630185,19.8300991 140.630185,19.0989699 C140.630185,18.3211728 140.908892,17.5952398 141.466313,16.9211491 C142.023734,16.2470583 142.878002,15.910018 144.029141,15.910018 C144.615082,15.910018 145.181569,15.998167 145.728619,16.1744676 C146.27567,16.3507683 146.58808,16.4389173 146.66586,16.4389173 C146.842161,16.4389173 146.964014,16.3883613 147.031423,16.2872476 C147.098832,16.186134 147.153277,16.0526142 147.194759,15.8866842 L147.669213,15.8866842 L147.669213,19.3556416 L147.225871,19.3556416 C147.013273,18.551918 146.63864,17.859689 146.10196,17.2789339 C145.56528,16.6981788 144.913237,16.4078056 144.14581,16.4078056 C143.606538,16.4078056 143.180052,16.5542885 142.866341,16.8472587 C142.552629,17.1402289 142.395776,17.4967139 142.395776,17.9167243 C142.395776,18.4196997 142.543555,18.7956293 142.839118,19.0445243 C143.129495,19.2986047 143.775057,19.6719417 144.775823,20.1645465 L145.973624,20.7556692 C146.507711,21.0201202 146.932901,21.3130861 147.249205,21.6345755 C147.840331,22.2360719 148.135889,22.9671901 148.135889,23.8279522 C148.135889,24.6316758 147.818293,25.3900165 147.183093,26.1029971 C146.547892,26.8159777 145.530289,27.1724627 144.130254,27.1724627 C143.808765,27.1724627 143.483391,27.1426476 143.154124,27.0830165 C142.824857,27.0233853 142.499483,26.9313474 142.177994,26.8068999 L141.866876,26.6902309 C141.794282,26.6694897 141.724281,26.6526376 141.656872,26.6396744 C141.589463,26.6267111 141.532426,26.6202295 141.485758,26.6202295 C141.319828,26.6202295 141.205753,26.668193 141.143529,26.7641213 C141.081305,26.8600496 141.02686,26.996162 140.980192,27.1724627 L140.521294,27.1724627 L140.521294,23.2290514 Z"/>
    <polygon fill-rule="nonzero" points="40.234 31.005 148.61 31.005 148.61 30.342 40.234 30.342"/>
  </g>
</svg>
