<svg id="Layer_1" data-name="Layer 1" xmlns="http://www.w3.org/2000/svg" viewBox="0 0 288 70"><defs><style>.cls-1{fill:#27aae0;}.cls-2{fill:#353e48;}.cls-3{fill:#acdef3;}.cls-4{fill:#363f4a;}.cls-5{fill:#333c47;}.cls-6{fill:#5876b4;}.cls-7{fill:#5d5fa9;}.cls-8{fill:#343d48;}.cls-9{fill:#38404b;}</style></defs><path class="cls-1" d="M156.43,99.9c.55-1.91,1.93-2.92,3.66-2.66a3.24,3.24,0,0,1,2.83,3.55c0,10.34,0,20.69,0,31,0,2-1.11,3.1-2.85,3.74h-1.2c-1.11-.7-2.24-1.38-2.45-2.85q0-9.2,0-18.38C156.48,109.52,156.45,104.71,156.43,99.9Z" transform="translate(-156.24 -65.56)"/><path class="cls-2" d="M444.24,90.35a4.38,4.38,0,0,0-.78.7q-6.25,9-12.45,18a3.61,3.61,0,0,0-.55,1.87c0,3.94,0,7.87,0,11.88h-3.87V121.6c0-3.5,0-7,0-10.51a4.24,4.24,0,0,0-.67-2.19c-4-5.93-8.13-11.81-12.2-17.71-.23-.33-.44-.66-.78-1.16,1.49,0,2.84-.06,4.17,0,.33,0,.71.44.94.77q4.85,7.11,9.66,14.24l.9,1.29,4.9-7.16c1.91-2.79,3.84-5.58,5.72-8.4a1.62,1.62,0,0,1,1.56-.8c1.17,0,2.33-.08,3.5-.12Z" transform="translate(-156.24 -65.56)"/><path class="cls-3" d="M156.43,99.9c0,4.81,0,9.62,0,14.43q0,9.19,0,18.38a.41.41,0,0,1-.19,0V99.92A.25.25,0,0,1,156.43,99.9Z" transform="translate(-156.24 -65.56)"/><path class="cls-4" d="M338.44,116.17V90.1H342v32.76a14.81,14.81,0,0,1-2.41,0,2.26,2.26,0,0,1-1.18-.84Q328.68,109.71,319,97.4c-.27-.34-.54-.66-1-1.23v26.62H314.3V90a30.32,30.32,0,0,1,3.16,0c.34,0,.69.48,1,.81q9.54,12,19.07,24.13Z" transform="translate(-156.24 -65.56)"/><path class="cls-5" d="M269.65,109.52l10.06,13.33c-1.57,0-2.92.06-4.26,0-.36,0-.77-.48-1-.83q-4.16-5.49-8.25-11a1.83,1.83,0,0,0-1.69-.83c-2.71.05-5.43,0-8.28,0v12.62h-3.72V90.18c.08-.05.15-.12.21-.12,5.16,0,10.31,0,15.47.07a12.57,12.57,0,0,1,3.62.71c4.4,1.44,6.73,4.65,6.72,9.1s-2.41,7.52-6.74,9C271.12,109.13,270.46,109.29,269.65,109.52Zm-13.46-2.6c4.4-.18,8.74-.16,13-.59a5.91,5.91,0,0,0,5.14-4.29c1.32-4.08-1-7.74-5.61-8.28a89.31,89.31,0,0,0-9-.26c-1.18,0-2.37,0-3.6,0Z" transform="translate(-156.24 -65.56)"/><path class="cls-6" d="M170.46,100.13q0-10.47,0-20.93a3.83,3.83,0,0,1,1.11-3,3.25,3.25,0,0,1,5.35,1.56,6.55,6.55,0,0,1,.16,1.54v41.85c0,2.42-1.13,3.85-3.09,3.94-2.12.1-3.52-1.37-3.52-3.76,0-5.82,0-11.63,0-17.45Z" transform="translate(-156.24 -65.56)"/><path class="cls-7" d="M184.61,84.73c0-5.26,0-10.52,0-15.78a3.25,3.25,0,0,1,2.46-3.28,3.12,3.12,0,0,1,3.53,1.39,4.5,4.5,0,0,1,.55,2q0,15.54,0,31.09c0,2.2-1.33,3.61-3.29,3.61s-3.26-1.43-3.26-3.63Q184.61,92.45,184.61,84.73Z" transform="translate(-156.24 -65.56)"/><path class="cls-8" d="M224,93.53H213V90.09h25.78v3.39H227.89V122.8H224Z" transform="translate(-156.24 -65.56)"/><path class="cls-2" d="M401.76,90.1v3.36H390.82v29.31H387V93.53H376V90.1Z" transform="translate(-156.24 -65.56)"/><path class="cls-9" d="M362.94,122.8h-3.61V90.1h3.61Z" transform="translate(-156.24 -65.56)"/><path class="cls-4" d="M297.05,122.81h-3.66V90.11h3.66Z" transform="translate(-156.24 -65.56)"/></svg>