<svg width="200" height="44" viewBox="0 0 200 44" fill="none" xmlns="http://www.w3.org/2000/svg">
<g clip-path="url(#clip0_935_13217)">
<path d="M85.5681 7.7864L87.0856 0.666992L78.4487 0.690704L76.9326 7.81011L85.5681 7.7864Z" fill="#00B194"/>
<path d="M69.6025 42.4868H78.1787L84.4223 13.1719H75.8476L69.6025 42.4868Z" fill="#00B194"/>
<path d="M130.144 7.76394L131.662 0.644531L123.028 0.657869L121.512 7.77728L130.144 7.76394Z" fill="#00B194"/>
<path d="M114.182 42.4868H122.756L129 13.1719H120.425L114.182 42.4868Z" fill="#00B194"/>
<path d="M15.1713 0.714407L9.74139 26.2044C8.76625 30.7837 7.89337 36.5234 16.6415 36.5234C18.0894 36.5234 22.4478 36.4656 25.5333 32.8733C26.673 31.5973 27.4821 29.976 28.3832 25.7479L33.7183 0.718852H42.4619L36.8941 26.8431C34.2414 39.2991 23.4823 43.293 15.0232 43.293C10.8514 43.293 3.4015 42.3668 0.806562 36.0506C-0.542036 32.8644 0.0329684 29.6189 0.859911 25.739L6.19502 0.709961L15.1713 0.714407Z" fill="#00B194"/>
<path d="M42.9107 18.4432C42.9359 18.3277 43.6146 15.1399 43.8725 13.1081H52.0989L51.3935 17.5111C52.4887 16.1773 55.6083 12.4131 61.9808 12.4131C67.7175 12.4131 69.4099 15.8898 69.73 17.9171C69.9864 19.7133 69.8382 21.219 68.6778 26.6608L65.3137 42.4868H56.5701L60.4454 24.2956C60.7048 23.0774 60.9256 22.0356 60.6603 21.1078C60.2943 19.8333 59.2213 18.6166 57.0191 18.6166C56.0836 18.6292 55.161 18.8365 54.31 19.2254C53.4591 19.6142 52.6985 20.1761 52.0767 20.8752C51.395 21.6295 50.5651 23.0774 50.0835 25.3374L46.4274 42.4868H37.7949L42.9107 18.4432Z" fill="#00B194"/>
<path d="M91.8379 0.65918H118.838L117.334 7.77266H99.3145L97.1908 17.6856H113.993L112.511 24.639H95.7103L91.9105 42.4865H82.9238L91.8379 0.65918Z" fill="#00B194"/>
<path d="M132.035 20.4123C132.331 19.0207 133.001 14.7926 133.185 13.1121H141.238L140.215 18.7317C141.845 16.2405 144.513 12.7075 151.391 13.0528L149.749 20.7591C141.23 19.9484 139.759 24.4107 138.982 28.0608L135.91 42.4863H127.334L132.035 20.4123Z" fill="#00B194"/>
<path d="M156.503 34.0272C156.224 35.8812 156.927 38.0286 160.519 38.0286C163.589 38.0286 165.409 36.2917 165.778 34.5533C166.061 33.2196 165.589 32.1822 162.426 31.25L157.405 29.8021C155.182 29.1071 150.44 27.6592 151.716 21.6913C152.925 16.0138 158.88 12.5371 166.47 12.5371C172.496 12.5371 176.769 15.3173 175.755 21.1696H167.933C168.393 17.9256 165.836 17.6929 164.502 17.6929C162.185 17.6929 160.205 18.794 159.83 20.5902C159.41 22.5597 160.772 22.9613 163.173 23.6608L168.138 25.1117C173.159 26.561 175.07 29.2849 174.214 33.2818C173.139 38.3205 167.721 43.3592 158.625 43.3592C154.858 43.3592 151.439 42.5486 149.365 39.7669C147.884 37.7396 148.205 35.4218 148.444 34.0317L156.503 34.0272Z" fill="#00B194"/>
<path d="M193.718 42.0809C191.477 42.6641 189.174 42.9751 186.858 43.0072C178.226 43.0072 179.385 37.5609 179.903 35.129L183.322 19.0807H177.701L178.912 13.4047H184.532L185.754 7.66946L194.942 4.54102L193.048 13.4047H200L198.791 19.0836H191.839L189.023 32.2925C188.512 34.96 188.155 36.6376 191.979 36.6376C192.959 36.6438 193.94 36.5859 194.913 36.4642L193.718 42.0809Z" fill="#00B194"/>
</g>
<defs>
<clipPath id="clip0_935_13217">
<rect width="200" height="42.7105" fill="white" transform="translate(0 0.644531)"/>
</clipPath>
</defs>
</svg>
