<?xml version="1.0" encoding="utf-8"?>
<!-- Generator: Adobe Illustrator 24.1.3, SVG Export Plug-In . SVG Version: 6.00 Build 0)  -->
<svg version="1.1" id="Layer_1" xmlns="http://www.w3.org/2000/svg" xmlns:xlink="http://www.w3.org/1999/xlink" x="0px" y="0px"
	 viewBox="0 0 72 54" style="enable-background:new 0 0 72 54;" xml:space="preserve">
<style type="text/css">
	.st0{fill-rule:evenodd;clip-rule:evenodd;fill:#0070AB;}
	.st1{fill-rule:evenodd;clip-rule:evenodd;fill:#FFCF01;}
</style>
<g>
	<g>
		<path class="st0" d="M17.1,0.8H30l3,8c0,0,0,0,0,0l0.2,0.1l0.8,2c0,0,0,0,0,0c2.7,0.1,3.4,0.8,3.5,1.3c0.1,0.3,0.1,0.7-0.2,1.2
			c-0.4-0.4-1.3-0.8-3-0.8c0.5,1.5,1.1,3,1.1,3c-1.3,1.4-3,3.4-2.2,5.1c0.6,1.2,2.3,1.8,5,1.8c8.7,0,24.5-6.1,26.4-6.9
			c0.4-0.2,0.6-0.5,0.6-0.9c0.6,0.1,1,0.6,0.9,1.3c0,0.5-0.3,0.9-0.7,1.1C63.7,17.8,54,21.5,46,23.2l-3.4,8.4c0,0-8.7,0-9.9,0
			c-2,0-3-0.1-4.4-3.2c-0.7-1.6-3.1-7.8-5.6-13.9c-3.8,1.2-8.7,2.9-11.6,4.4c-0.2,0.1-0.4,0.2-0.6,0.2c-0.7,0-1.2-0.5-1.2-1.2
			c0-0.1,0-0.2,0.1-0.4c0.2,0.1,0.3,0.2,0.6,0.2h0c0.2,0,0.3,0,0.5-0.1c3.4-1.8,9.3-3.7,11.6-4.4l-0.7-1.8l0.1-0.1L17.1,0.8z
			 M17.1,0.8l4.2,10.4 M39.5,11.5c0.5,1.4,0,2.8-1.5,4.3c-0.3,0.3-3.1,2.9-2.7,4c0.2,0.5,1,0.8,2.4,0.8c2.2,0,5.8-0.6,10-1.6
			l7.3-18.2H42.1l-3.5,9.5C39,10.7,39.3,11,39.5,11.5z"/>
		<path class="st1" d="M22.1,13.3c-3.8,1.2-8.7,2.9-11.7,4.5c-0.2,0.1-0.4,0.2-0.6,0.2c-0.7,0-1.2-0.5-1.2-1.2c0-0.5,0.3-0.9,0.7-1
			c3.4-1.6,8.2-3.3,11.9-4.4C21.6,11.9,21.9,12.6,22.1,13.3z M64.4,13.4c-0.2,0-0.4,0-0.6,0.1c-11.4,4.9-27.6,8.4-28.4,6.2
			c-0.4-1,2.7-3.8,2.7-3.8c1.4-1.4,2.2-2.9,1.6-4.5C39,9.6,35.8,8.8,33,8.8c0.2,0.4,0.5,1.2,0.8,2.3c0.1,0,0.1,0,0.1,0
			c2.3,0.1,3.2,0.6,3.4,1.2c0.3,0.6-0.4,1.4-0.7,1.7c-0.2,0.2-1.3,1.5-1.3,1.5c-1.1,1.2-3.1,3.4-2.1,5.3c3,5.8,28.3-3.5,31.7-5
			c0.4-0.2,0.7-0.6,0.7-1.1C65.6,14,65.1,13.4,64.4,13.4z"/>
	</g>
	<path class="st0" d="M71.2,47.3c0,1.8-0.6,3.3-1.7,4.3c-1.2,1.1-2.8,1.6-4.9,1.6c-2.1,0-3.7-0.5-4.9-1.6c-1.2-1.1-1.8-2.5-1.8-4.3
		c0-1.9,0.6-3.3,1.8-4.4c1.2-1.1,2.8-1.6,4.9-1.6c2.1,0,3.8,0.5,4.9,1.6C70.6,44,71.2,45.4,71.2,47.3z M67.3,47.3
		c0-0.6-0.1-1.2-0.2-1.6c-0.1-0.4-0.3-0.8-0.6-1.1c-0.3-0.3-0.5-0.5-0.9-0.6c-0.3-0.1-0.7-0.2-1.1-0.2c-0.4,0-0.7,0-1.1,0.1
		c-0.3,0.1-0.6,0.3-0.9,0.5c-0.2,0.3-0.4,0.6-0.6,1.1c-0.1,0.4-0.2,1-0.2,1.7c0,0.7,0.1,1.2,0.2,1.6c0.1,0.4,0.3,0.7,0.5,1
		c0.2,0.3,0.5,0.4,0.9,0.6c0.4,0.1,0.7,0.2,1.2,0.2c0.3,0,0.7-0.1,1.1-0.2c0.4-0.1,0.7-0.3,0.9-0.5c0.3-0.3,0.5-0.6,0.6-1
		C67.2,48.5,67.3,48,67.3,47.3z M27,45.2v7.7h-4l0-0.5C21.2,53.5,18.3,53,18,53c-1.7-0.2-3-1.6-3-3.4c0-1.4,0.8-2.5,2-3.1
		c0.1-0.1,1.3-0.7,4.1-0.7h2.2c0-0.6-0.2-1.3-0.7-1.6c-1.2-0.8-5.9-0.1-5.9-0.1l0.9-2.5c1.1-0.2,2.3-0.3,3.2-0.3
		c2.2,0,3.8,0.3,4.9,1C26.5,43,27,43.9,27,45.2z M23.2,48c-2.3,0-3.2,0.2-3.2,0.2c-0.2,0.1-0.6,0.2-0.9,0.5
		c-0.2,0.2-0.4,0.6-0.3,0.9c0,0.6,0.5,1,1,1.1c0.2,0,3.4,0.5,3.4-1.3V48z M12.9,38.3L8.9,48.8L5.1,38.3H0.9l5,12.5
		c0.5,1.2,1.7,2.1,3.1,2.1h2.3L17,38.3H12.9z M29,40.5v12.4h1.6c1.2,0,2.2-1,2.2-2.2V38.3h-1.6C30,38.3,29,39.3,29,40.5z M47.3,46.7
		c0,0,0,0.9,0,1.3h-9c0,0.5,0.2,2.7,4.1,2.7c0.5,0,1.6,0.1,4.5-0.4l0,2.5c-2.4,0.4-4.3,0.4-4.9,0.4c-6.9,0-7.6-4-7.6-5.8
		c0-1.9,0.8-6,6.9-6c2,0,3.5,0.5,4.5,1.4C46.8,43.6,47.3,45,47.3,46.7z M44.2,45.8c0-0.8-0.2-1.9-2.9-1.9c-2.7,0-2.9,1.4-3,1.9H44.2
		z M53.6,41.4c-1.8,0.1-4.4,1-4.4,3.7l0,7.9H53v-6.7c0-1.7,1.3-2.4,4.2-1.7v-2.8c0,0-1.2-0.3-2.8-0.3C54.2,41.4,53.9,41.4,53.6,41.4
		z"/>
</g>
</svg>
