<svg width="146" height="57" viewBox="0 0 146 57" fill="none" xmlns="http://www.w3.org/2000/svg">
<path d="M5.50138 45.798L8.82714 54.3682H7.35613L6.46073 52.0018H3.13496L2.23957 54.3682H0.768555L4.09432 45.798C4.15828 45.798 5.50138 45.798 5.50138 45.798ZM3.64662 50.6587H6.01303L4.8618 47.4609L3.64662 50.6587Z" fill="#333333"/>
<path d="M13.3673 49.5714C13.1754 49.4434 12.8556 49.3795 12.5358 49.3795C11.9602 49.3795 11.4485 49.6993 11.2567 50.4028V54.4321H9.91357V48.2283H11.3206V48.8678C11.5765 48.4201 12.0881 48.1003 12.7277 48.1003C13.0475 48.1003 13.3033 48.1643 13.4312 48.2283L13.3673 49.5714Z" fill="#333333"/>
<path d="M16.9489 48.0363C18.4199 48.0363 19.3792 48.8678 19.5711 50.1469H18.164C18.0361 49.5713 17.5884 49.2515 16.9489 49.2515C15.9895 49.2515 15.4139 50.0829 15.4139 51.2981C15.4139 52.5133 15.9895 53.3448 16.9489 53.3448C17.5884 53.3448 18.0361 53.025 18.164 52.4494H19.5711C19.3792 53.7285 18.4199 54.5599 16.9489 54.5599C15.286 54.5599 14.0068 53.2168 14.0068 51.2981C14.0708 49.3155 15.286 48.0363 16.9489 48.0363Z" fill="#333333"/>
<path d="M20.8506 45.2861H22.2576V48.8038C22.5774 48.42 23.217 48.1002 23.9205 48.1002C25.3276 48.1002 26.159 49.0596 26.159 50.4027V54.432H24.752V50.5946C24.752 49.8271 24.3682 49.3154 23.6007 49.3154C23.0251 49.3154 22.4495 49.6992 22.3216 50.3387V54.368H20.9145L20.8506 45.2861Z" fill="#333333"/>
<path d="M28.3969 47.141C27.9492 47.141 27.5015 46.7573 27.5015 46.3096C27.5015 45.8619 27.8852 45.4781 28.3969 45.4781C28.9085 45.4781 29.2923 45.8619 29.2923 46.3096C29.2283 46.7573 28.8446 47.141 28.3969 47.141ZM29.0364 54.3682H27.6294V48.1643H29.0364V54.3682Z" fill="#333333"/>
<path d="M31.1478 49.3155H30.1885V48.1642H31.1478V46.5013H32.5549V48.1642H33.9619V49.3155H32.5549V52.5773C32.5549 53.0889 32.8107 53.2808 33.3224 53.2808C33.5782 53.2808 33.898 53.1529 34.1538 53.025V54.3041C33.898 54.432 33.5142 54.5599 33.1305 54.5599C32.0432 54.5599 31.2118 53.9843 31.2118 52.7052L31.1478 49.3155Z" fill="#333333"/>
<path d="M40.5501 52.3854C40.3582 53.6006 39.3989 54.496 37.9279 54.496C36.201 54.496 34.9858 53.1529 34.9858 51.2342C34.9858 49.3794 36.201 47.9724 37.9279 47.9724C39.7187 47.9724 40.6141 49.2515 40.6141 51.0423V51.5539H36.3929C36.4568 52.6412 37.0964 53.3447 37.9918 53.3447C38.6953 53.3447 39.143 53.025 39.3349 52.4493L40.5501 52.3854ZM36.4569 50.5306H39.271C39.271 49.7631 38.8233 49.1236 37.9918 49.1236C37.0964 49.1875 36.5848 49.6992 36.4569 50.5306Z" fill="#333333"/>
<path d="M44.3864 48.0363C45.8574 48.0363 46.8167 48.8678 47.0086 50.1469H45.6015C45.4736 49.5713 45.0259 49.2515 44.3864 49.2515C43.427 49.2515 42.8514 50.0829 42.8514 51.2981C42.8514 52.5133 43.427 53.3448 44.3864 53.3448C45.0259 53.3448 45.4736 53.025 45.6015 52.4494H47.0086C46.8167 53.7285 45.8574 54.5599 44.3864 54.5599C42.7235 54.5599 41.4443 53.2168 41.4443 51.2981C41.5083 49.3155 42.7235 48.0363 44.3864 48.0363Z" fill="#333333"/>
<path d="M48.6088 49.3155H47.6494V48.1642H48.6088V46.5013H50.0158V48.1642H51.4229V49.3155H50.0158V52.5773C50.0158 53.0889 50.2716 53.2808 50.7833 53.2808C51.0391 53.2808 51.3589 53.1529 51.6147 53.025V54.3041C51.3589 54.432 50.9752 54.5599 50.5914 54.5599C49.5042 54.5599 48.6727 53.9843 48.6727 52.7052L48.6088 49.3155Z" fill="#333333"/>
<path d="M53.8514 52.5774C53.9793 53.089 54.491 53.3449 55.0666 53.3449C55.7061 53.3449 56.1538 53.089 56.1538 52.5774C56.1538 52.2576 55.962 52.0657 55.4503 51.9378L54.1712 51.618C53.2758 51.4261 52.6362 50.9145 52.6362 49.8912C52.6362 48.7399 53.6595 47.9085 55.0026 47.9085C56.4736 47.9085 57.3051 48.612 57.4969 49.7633H56.0899C55.962 49.3795 55.5782 49.0597 54.9387 49.0597C54.427 49.0597 53.9153 49.3156 53.9153 49.7633C53.9153 50.0191 54.1072 50.211 54.5549 50.3389L55.898 50.6587C56.9853 50.9145 57.4969 51.4901 57.4969 52.4495C57.4969 53.6646 56.4736 54.4321 55.0666 54.4321C53.5956 54.4321 52.5722 53.7286 52.3804 52.5134L53.8514 52.5774Z" fill="#333333"/>
<path d="M64.4684 54.496C62.6776 54.496 61.5264 53.1529 61.5264 51.2342C61.5264 49.3154 62.7415 47.9724 64.4684 47.9724C66.1952 47.9724 67.4104 49.3154 67.4104 51.2342C67.4744 53.1529 66.2592 54.496 64.4684 54.496ZM64.4684 49.2515C63.4451 49.2515 62.9334 50.1469 62.9334 51.2981C62.9334 52.4493 63.509 53.3447 64.4684 53.3447C65.4917 53.3447 66.0034 52.4493 66.0034 51.2981C66.0034 50.1469 65.4917 49.2515 64.4684 49.2515Z" fill="#333333"/>
<path d="M72.144 46.5014C71.9522 46.3735 71.6963 46.3096 71.4405 46.3096C70.8649 46.3096 70.5451 46.6293 70.5451 47.2689V48.1643H71.8882V49.3155H70.5451V54.3042H69.138V49.3155H68.0508V48.1643H69.138V47.205C69.138 45.8619 70.0335 45.1583 71.1847 45.1583C71.5684 45.1583 71.8882 45.2223 72.144 45.3502V46.5014Z" fill="#333333"/>
<path d="M79.7554 45.606C81.7381 45.606 82.9532 46.7572 83.273 48.484H81.866C81.5462 47.5886 80.9066 46.9491 79.7554 46.9491C78.2204 46.9491 77.325 48.2922 77.325 50.0829C77.325 51.8737 78.2204 53.2168 79.7554 53.2168C80.9066 53.2168 81.4822 52.5773 81.866 51.6819H83.273C82.9532 53.4087 81.6741 54.5599 79.7554 54.5599C77.5169 54.5599 75.854 52.7691 75.854 50.1469C75.854 47.5247 77.5169 45.606 79.7554 45.606Z" fill="#333333"/>
<path d="M87.1095 54.496C85.3187 54.496 84.1675 53.1529 84.1675 51.2342C84.1675 49.3154 85.3827 47.9724 87.1095 47.9724C88.8363 47.9724 90.0515 49.3154 90.0515 51.2342C90.1155 53.1529 88.9003 54.496 87.1095 54.496ZM87.1095 49.2515C86.0862 49.2515 85.5745 50.1469 85.5745 51.2981C85.5745 52.4493 86.1502 53.3447 87.1095 53.3447C88.1328 53.3447 88.6445 52.4493 88.6445 51.2981C88.6445 50.1469 88.1328 49.2515 87.1095 49.2515Z" fill="#333333"/>
<path d="M91.396 48.1642H92.803V48.7398C93.1228 48.3561 93.7624 48.0363 94.4659 48.0363C95.873 48.0363 96.7044 48.9957 96.7044 50.3388V54.3681H95.2974V50.5306C95.2974 49.7632 94.9136 49.2515 94.1462 49.2515C93.5705 49.2515 92.9949 49.6352 92.867 50.2748V54.3041H91.46L91.396 48.1642Z" fill="#333333"/>
<path d="M98.622 49.3155H97.6626V48.1642H98.622V46.5013H100.029V48.1642H101.436V49.3155H100.029V52.5773C100.029 53.0889 100.285 53.2808 100.796 53.2808C101.052 53.2808 101.372 53.1529 101.628 53.025V54.3041C101.372 54.432 100.988 54.5599 100.605 54.5599C99.5174 54.5599 98.6859 53.9843 98.6859 52.7052L98.622 49.3155Z" fill="#333333"/>
<path d="M103.675 47.141C103.227 47.141 102.779 46.7573 102.779 46.3096C102.779 45.8619 103.163 45.4781 103.675 45.4781C104.186 45.4781 104.57 45.8619 104.57 46.3096C104.57 46.7573 104.122 47.141 103.675 47.141ZM104.378 54.3682H102.971V48.1643H104.378V54.3682Z" fill="#333333"/>
<path d="M106.105 48.1642H107.512V48.7398C107.832 48.3561 108.471 48.0363 109.175 48.0363C110.582 48.0363 111.413 48.9957 111.413 50.3388V54.3681H110.006V50.5306C110.006 49.7632 109.623 49.2515 108.855 49.2515C108.28 49.2515 107.704 49.6352 107.576 50.2748V54.3041H106.169L106.105 48.1642Z" fill="#333333"/>
<path d="M118.13 54.3681H116.723V53.7925C116.403 54.1763 115.764 54.496 115.06 54.496C113.653 54.496 112.886 53.5367 112.886 52.1936V48.1643H114.293V52.0017C114.293 52.7692 114.677 53.2809 115.444 53.2809C116.02 53.2809 116.595 52.8971 116.723 52.2576V48.2283H118.13V54.3681Z" fill="#333333"/>
<path d="M120.56 47.141C120.113 47.141 119.665 46.7573 119.665 46.3096C119.665 45.8619 120.049 45.4781 120.56 45.4781C121.072 45.4781 121.456 45.8619 121.456 46.3096C121.456 46.7573 121.072 47.141 120.56 47.141ZM121.264 54.3682H119.857V48.1643H121.264V54.3682Z" fill="#333333"/>
<path d="M123.374 49.3155H122.415V48.1642H123.374V46.5013H124.781V48.1642H126.188V49.3155H124.781V52.5773C124.781 53.0889 125.037 53.2808 125.548 53.2808C125.804 53.2808 126.124 53.1529 126.38 53.025V54.3041C126.124 54.432 125.74 54.5599 125.357 54.5599C124.269 54.5599 123.438 53.9843 123.438 52.7052L123.374 49.3155Z" fill="#333333"/>
<path d="M128.426 56.7345L129.321 54.496L126.891 48.1643H128.426L130.089 52.7053L131.688 48.1643H133.159L129.897 56.7345H128.426Z" fill="#333333"/>
<path d="M136.677 45.798H139.811V46.6294H138.724V49.3796H137.765V46.6294H136.677V45.798ZM141.922 49.3156L141.154 47.205V49.3156H140.259V45.734H141.41L142.242 47.9725L143.073 45.734H144.224V49.3156H143.329V47.205L142.561 49.3156H141.922Z" fill="#333333"/>
<path d="M19.0592 18.6162L26.4782 11.1972H36.0718C32.9379 4.99337 26.4782 0.708252 19.0592 0.708252C11.6402 0.708252 5.18052 4.99337 2.04663 11.1972H11.6402L19.0592 18.6162ZM0 19.7674C0 27.1865 4.28512 33.6461 10.489 36.78L19.0592 28.2098L2.04663 11.1972C0.767485 13.7555 0 16.6975 0 19.7674ZM36.0718 11.1972L19.0592 28.2098L27.6294 36.78C33.8333 33.6461 38.1184 27.1865 38.1184 19.7674C38.1184 16.6975 37.3509 13.7555 36.0718 11.1972ZM57.0497 22.6455L52.9564 11.1972H48.5434L55.003 28.2737H59.0323L65.492 11.1972H61.2069L57.0497 22.6455ZM68.3061 28.2737H80.9696V24.6921H72.2714V21.3024H79.4346V17.8487H72.2714V14.7788H80.9696V11.1332H68.3061V28.2737ZM98.6857 16.9533C98.6857 13.7555 96.1274 11.1972 92.9296 11.1972H85.0629V28.2737H89.0282V22.8374H90.819L94.5285 28.2737H99.1973L94.9762 22.3257C97.1507 21.5582 98.6857 19.3837 98.6857 16.9533ZM92.29 19.3837H89.0282V14.8428H92.29C93.5691 14.8428 94.5924 15.8661 94.5924 17.1452C94.5924 18.3604 93.5691 19.3837 92.29 19.3837ZM100.988 14.8428H106.233V28.2737H110.198V14.8428H115.442V11.1972H101.052L100.988 14.8428ZM137.955 11.1972L133.862 22.6455L129.769 11.1972H125.356L131.815 28.2737H135.845L142.304 11.1972H137.955ZM118.64 28.2737H122.606V11.1972H118.64V28.2737ZM140.13 25.6515H142.304V26.0352H141.473V28.2737H141.025V26.0352H140.13V25.6515ZM143.647 28.2737L142.944 26.4829V28.2737H142.496V25.6515H143.008L143.775 27.6342L144.543 25.6515H145.055V28.2737H144.607V26.419L143.903 28.2098L143.647 28.2737Z" fill="#333333"/>
</svg>
