<?xml version="1.0" encoding="UTF-8"?>
<svg xmlns="http://www.w3.org/2000/svg" id="Layer_2" viewBox="0 0 285.37 81.03">
  <defs>
    <style>.cls-1{fill:#036;}.cls-2{fill:#f93;}</style>
  </defs>
  <g id="Layer_1-2">
    <g>
      <path class="cls-1" d="m276.42,54.02h7.86L258.01,0l-26.27,54.02h7.6l7.02-14.43h23l7.06,14.43Zm-26.94-20.85l8.35-17.16,8.4,17.16h-16.74Z"></path>
      <path class="cls-1" d="m119.82,54.02h7.86L101.41,0l-26.27,54.02h7.6l7.02-14.43h23l7.06,14.43Zm-26.94-20.85l8.35-17.16,8.4,17.16h-16.74Z"></path>
      <polygon class="cls-2" points="157.39 1.14 131.62 53.8 138.21 53.8 163.98 1.14 157.39 1.14"></polygon>
      <polygon class="cls-1" points="172.07 1.14 146.3 53.8 152.9 53.8 178.66 1.14 172.07 1.14"></polygon>
      <polygon class="cls-2" points="186.75 1.14 160.98 53.8 167.58 53.8 193.34 1.14 186.75 1.14"></polygon>
      <polygon class="cls-1" points="207.45 47.32 207.45 1.17 200.36 1.17 200.36 53.8 223.89 53.8 227.04 47.32 207.45 47.32"></polygon>
      <polygon class="cls-1" points="72.68 1.13 46.91 53.8 54.53 53.8 80.3 1.13 72.68 1.13"></polygon>
      <polygon class="cls-1" points="26.46 39.16 7.86 1.15 0 1.15 26.27 55.18 52.54 1.15 44.94 1.15 26.46 39.16"></polygon>
      <g>
        <path class="cls-1" d="m25.47,70.28h2.56l2.92,8.11,2.91-8.11h2.56l-4.06,10.54h-2.81l-4.08-10.54Z"></path>
        <path class="cls-1" d="m40.85,70.28h2.25v10.54h-2.25v-10.54Z"></path>
        <path class="cls-1" d="m55.33,79.01h-4.71l-.66,1.82h-2.47l4.08-10.54h2.81l4.06,10.54h-2.45l-.66-1.82Zm-4.11-1.94h3.49l-1.74-4.84-1.75,4.84Z"></path>
        <path class="cls-1" d="m70.3,70.28h2.25v8.57h4.46v1.98h-6.7v-10.54Z"></path>
        <path class="cls-1" d="m81.7,70.28h2.25v10.54h-2.25v-10.54Z"></path>
        <path class="cls-1" d="m88.96,75.56c0-3.24,2.45-5.45,5.53-5.45,2.4,0,3.75,1.26,4.49,2.58l-1.93.95c-.44-.85-1.39-1.53-2.56-1.53-1.83,0-3.22,1.47-3.22,3.46s1.39,3.46,3.22,3.46c1.17,0,2.12-.66,2.56-1.53l1.93.93c-.76,1.31-2.09,2.59-4.49,2.59-3.08,0-5.53-2.21-5.53-5.45Z"></path>
        <path class="cls-1" d="m103.75,70.28h7.46v1.93h-5.22v2.29h5.11v1.93h-5.11v2.45h5.22v1.94h-7.46v-10.54Z"></path>
        <path class="cls-1" d="m118.81,73.74v7.08h-2.25v-10.54h2.31l4.88,6.83v-6.83h2.24v10.54h-2.17l-5.03-7.08Z"></path>
        <path class="cls-1" d="m132.08,77.63c.74.77,1.9,1.42,3.35,1.42,1.23,0,1.83-.58,1.83-1.19,0-.79-.92-1.06-2.13-1.34-1.72-.4-3.94-.87-3.94-3.22,0-1.75,1.52-3.18,4-3.18,1.68,0,3.07.51,4.11,1.47l-1.25,1.64c-.85-.79-1.99-1.15-3.02-1.15s-1.55.44-1.55,1.08c0,.71.89.93,2.1,1.22,1.74.4,3.95.92,3.95,3.26,0,1.93-1.38,3.38-4.22,3.38-2.02,0-3.48-.68-4.47-1.68l1.23-1.71Z"></path>
        <path class="cls-1" d="m144.56,70.28h2.25v10.54h-2.25v-10.54Z"></path>
        <path class="cls-1" d="m154.61,73.74v7.08h-2.25v-10.54h2.31l4.88,6.83v-6.83h2.24v10.54h-2.17l-5.03-7.08Z"></path>
        <path class="cls-1" d="m172.44,70.11c2.18,0,3.56,1.06,4.36,2.31l-1.87,1.01c-.49-.74-1.39-1.33-2.5-1.33-1.91,0-3.3,1.47-3.3,3.46s1.39,3.46,3.3,3.46c.96,0,1.82-.4,2.28-.81v-1.28h-2.81v-1.93h5.03v4.03c-1.08,1.2-2.58,1.99-4.49,1.99-3.08,0-5.61-2.15-5.61-5.47s2.53-5.45,5.61-5.45Z"></path>
        <path class="cls-1" d="m196.31,79.01h-4.71l-.66,1.82h-2.47l4.08-10.54h2.81l4.06,10.54h-2.45l-.66-1.82Zm-4.11-1.94h3.49l-1.74-4.84-1.75,4.84Z"></path>
        <path class="cls-1" d="m203.84,70.28h2.25v8.57h4.46v1.98h-6.7v-10.54Z"></path>
        <path class="cls-1" d="m215.25,70.28h2.25v8.57h4.46v1.98h-6.7v-10.54Z"></path>
        <path class="cls-1" d="m226.65,70.28h2.25v10.54h-2.25v-10.54Z"></path>
        <path class="cls-1" d="m241.13,79.01h-4.71l-.66,1.82h-2.47l4.08-10.54h2.81l4.06,10.54h-2.45l-.66-1.82Zm-4.11-1.94h3.49l-1.74-4.84-1.75,4.84Z"></path>
        <path class="cls-1" d="m250.91,73.74v7.08h-2.25v-10.54h2.31l4.88,6.83v-6.83h2.24v10.54h-2.17l-5.03-7.08Z"></path>
        <path class="cls-1" d="m263.12,75.56c0-3.24,2.45-5.45,5.53-5.45,2.4,0,3.75,1.26,4.49,2.58l-1.93.95c-.44-.85-1.39-1.53-2.56-1.53-1.83,0-3.22,1.47-3.22,3.46s1.39,3.46,3.22,3.46c1.17,0,2.12-.66,2.56-1.53l1.93.93c-.76,1.31-2.09,2.59-4.49,2.59-3.08,0-5.53-2.21-5.53-5.45Z"></path>
        <path class="cls-1" d="m277.91,70.28h7.46v1.93h-5.22v2.29h5.11v1.93h-5.11v2.45h5.22v1.94h-7.46v-10.54Z"></path>
      </g>
    </g>
  </g>
</svg>
