<?xml version="1.0" encoding="UTF-8"?> <svg xmlns="http://www.w3.org/2000/svg" width="194.022" height="61.763" viewBox="0 0 194.022 61.763"><g id="Logo" transform="translate(-6920 -5659.999)"><g id="Group_854" data-name="Group 854" transform="translate(6992.126 5671.037)"><path id="Path_1398" data-name="Path 1398" d="M7090.029,5702.846h-.1l-1.268-17.825h-5.168l3.483,30.03h5.985l3.483-30.03h-5.128Z" transform="translate(-7083.492 -5685.021)" fill="#00003c"></path><rect id="Rectangle_117" data-name="Rectangle 117" width="5.291" height="30.031" transform="translate(15.627)" fill="#00003c"></rect><path id="Path_1399" data-name="Path 1399" d="M7150.122,5700.955a3,3,0,0,0-.919-.827,4.1,4.1,0,0,0-1.195-.439v-.042a3.25,3.25,0,0,0,1.879-1.348,4.026,4.026,0,0,0,.541-1.267,7.172,7.172,0,0,0,.195-1.777v-5.373a8.345,8.345,0,0,0-.133-1.583,4.337,4.337,0,0,0-.429-1.236,3.053,3.053,0,0,0-.756-.93,4.143,4.143,0,0,0-1.1-.633,6.291,6.291,0,0,0-1.461-.368,13.714,13.714,0,0,0-1.839-.112h-6.169v30.03h6.354a10.686,10.686,0,0,0,2.655-.286,4.245,4.245,0,0,0,1.809-.918,3.71,3.71,0,0,0,1.032-1.614,7.265,7.265,0,0,0,.327-2.289v-5.72a8.349,8.349,0,0,0-.194-1.941A3.6,3.6,0,0,0,7150.122,5700.955Zm-6.471-11.644h.986a.867.867,0,0,1,.347.061.917.917,0,0,1,.255.164.448.448,0,0,1,.133.3,4.479,4.479,0,0,1,.02.46v6.354a3.991,3.991,0,0,1-.02.418.538.538,0,0,1-.133.317.762.762,0,0,1-.245.184.75.75,0,0,1-.316.062h-1.027Zm1.824,20.409a3.1,3.1,0,0,1-.031.49.69.69,0,0,1-.123.307.562.562,0,0,1-.255.184,1.123,1.123,0,0,1-.388.062h-1.027v-8.949h1.047a1.2,1.2,0,0,1,.377.051.491.491,0,0,1,.245.174.7.7,0,0,1,.123.317,3.13,3.13,0,0,1,.031.479Z" transform="translate(-7114.363 -5685.021)" fill="#00003c"></path><path id="Path_1400" data-name="Path 1400" d="M7183.35,5701.751a4.016,4.016,0,0,0,.827-1,4.872,4.872,0,0,0,.521-1.308,6.732,6.732,0,0,0,.184-1.633v-7.4a6.8,6.8,0,0,0-.378-2.37,4.318,4.318,0,0,0-1.1-1.7,4.506,4.506,0,0,0-1.88-1,9.969,9.969,0,0,0-2.706-.327h-6.108v30.03h5.014v-12.033h.628l1.937,12.033h5.25l-2.5-13.055A3.68,3.68,0,0,0,7183.35,5701.751Zm-5.63-12.421h.808a1.291,1.291,0,0,1,.4.052.616.616,0,0,1,.266.174.6.6,0,0,1,.144.326,3.44,3.44,0,0,1,.03.49v7.661a3.388,3.388,0,0,1-.03.5.6.6,0,0,1-.144.316.716.716,0,0,1-.266.184,1.08,1.08,0,0,1-.4.062h-.808Z" transform="translate(-7133.349 -5685.021)" fill="#00003c"></path><path id="Path_1401" data-name="Path 1401" d="M7280.574,5689.821h3.575v25.23h5.313v-25.23h3.554v-4.8h-12.441Z" transform="translate(-7193.629 -5685.021)" fill="#00003c"></path><path id="Path_1402" data-name="Path 1402" d="M7319.639,5710.25l5.242-20.429v-4.8h-10.705v4.8h5.073l-5.257,20.429v4.8h10.93v-4.8Z" transform="translate(-7212.304 -5685.021)" fill="#00003c"></path><path id="Path_1403" data-name="Path 1403" d="M7251.965,5691.5l.472,9.745h-.123l-3.623-16.221h-5.981v30.03h4.76V5708.6l-.458-9.772h.123l3.577,16.228h6.033v-30.03h-4.781Z" transform="translate(-7172.47 -5685.021)" fill="#00003c"></path><path id="Path_1404" data-name="Path 1404" d="M7209.334,5685.021l-3.237,30.03h5.725l.4-7.518h1.975l.4,7.518h5.7l-3.258-30.03Zm3.124,18.141.692-10.9h.123l.693,10.9Z" transform="translate(-7152.009 -5685.021)" fill="#00003c"></path></g><g id="Group_857" data-name="Group 857" transform="translate(6995.593 5706.713)"><g id="Group_855" data-name="Group 855"><path id="Path_1405" data-name="Path 1405" d="M7095.265,5767.134h-1.437v4.317h-1.049v-4.317h-1.429v-1h3.914Z" transform="translate(-7091.351 -5766.024)" fill="#00003c"></path><path id="Path_1406" data-name="Path 1406" d="M7115.939,5770.448v1h-3.292v-5.321h3.254v1h-2.2v1.132h2.015v.988H7113.7v1.193Z" transform="translate(-7103.252 -5766.024)" fill="#00003c"></path><path id="Path_1407" data-name="Path 1407" d="M7132.241,5768.656a2.7,2.7,0,0,1,2.767-2.767,2.648,2.648,0,0,1,2.288,1.254l-.9.524a1.538,1.538,0,0,0-1.384-.761,1.745,1.745,0,0,0,0,3.49,1.539,1.539,0,0,0,1.384-.752l.9.525a2.633,2.633,0,0,1-2.288,1.253A2.7,2.7,0,0,1,7132.241,5768.656Z" transform="translate(-7114.202 -5765.89)" fill="#00003c"></path><path id="Path_1408" data-name="Path 1408" d="M7160.33,5766.13v5.321h-1.042v-2.2h-1.977v2.2h-1.048v-5.321h1.048v2.113h1.977v-2.113Z" transform="translate(-7127.626 -5766.024)" fill="#00003c"></path><path id="Path_1409" data-name="Path 1409" d="M7182.947,5766.13v5.321h-.8l-2.281-3.253v3.253h-1.049v-5.321h.8l2.28,3.246v-3.246Z" transform="translate(-7140.231 -5766.024)" fill="#00003c"></path><path id="Path_1410" data-name="Path 1410" d="M7200.962,5768.656a2.763,2.763,0,1,1,2.76,2.766A2.736,2.736,0,0,1,7200.962,5768.656Zm4.478,0a1.718,1.718,0,1,0-1.718,1.74A1.687,1.687,0,0,0,7205.439,5768.656Z" transform="translate(-7152.605 -5765.89)" fill="#00003c"></path><path id="Path_1411" data-name="Path 1411" d="M7229.337,5770.448v1h-3.078v-5.321h1.049v4.317Z" transform="translate(-7166.742 -5766.024)" fill="#00003c"></path><path id="Path_1412" data-name="Path 1412" d="M7244.387,5768.656a2.763,2.763,0,1,1,2.759,2.766A2.736,2.736,0,0,1,7244.387,5768.656Zm4.477,0a1.718,1.718,0,1,0-1.718,1.74A1.687,1.687,0,0,0,7248.864,5768.656Z" transform="translate(-7176.873 -5765.89)" fill="#00003c"></path><path id="Path_1413" data-name="Path 1413" d="M7274.6,5768.869a2.462,2.462,0,0,1-2.615,2.553,2.767,2.767,0,1,1-.061-5.533,2.7,2.7,0,0,1,2.318,1.238l-.9.517a1.629,1.629,0,0,0-1.429-.738,1.746,1.746,0,1,0,.076,3.49,1.473,1.473,0,0,0,1.55-1.011h-1.612v-.927h2.668Z" transform="translate(-7190.701 -5765.89)" fill="#00003c"></path><path id="Path_1414" data-name="Path 1414" d="M7295.356,5766.13v5.321h-1.049v-5.321Z" transform="translate(-7204.771 -5766.024)" fill="#00003c"></path><path id="Path_1415" data-name="Path 1415" d="M7313.313,5770.448v1h-3.291v-5.321h3.254v1h-2.205v1.132h2.015v.988h-2.015v1.193Z" transform="translate(-7213.553 -5766.024)" fill="#00003c"></path><path id="Path_1416" data-name="Path 1416" d="M7329.633,5770.107l.9-.524a1.194,1.194,0,0,0,1.224.813c.63,0,.851-.266.851-.562,0-.4-.356-.548-1.147-.775-.812-.235-1.6-.577-1.6-1.588a1.62,1.62,0,0,1,1.749-1.581,2.022,2.022,0,0,1,1.9,1.193l-.882.509a1.048,1.048,0,0,0-1.019-.685c-.44,0-.7.229-.7.533,0,.327.205.5,1.011.745.844.266,1.741.548,1.741,1.634,0,1-.8,1.6-1.931,1.6A2.055,2.055,0,0,1,7329.633,5770.107Z" transform="translate(-7224.511 -5765.89)" fill="#00003c"></path></g><g id="Group_856" data-name="Group 856" transform="translate(113.277 0.11)"><path id="Path_1417" data-name="Path 1417" d="M7350.193,5766.634h-.762v2.181h-.535v-2.181h-.776v-.5h2.073Zm3.078-.5v2.676h-.535v-1.78l-.816,1.3h-.054l-.816-1.3v1.78h-.535v-2.676h.535l.843,1.338.843-1.338Z" transform="translate(-7348.12 -5766.139)" fill="#00003c"></path></g></g><g id="Group_858" data-name="Group 858" transform="translate(6920 5659.999)"><path id="Path_1418" data-name="Path 1418" d="M6922.291,5685.693h0c4.461-5.279,8.974-10.7,15.28-13.771,4.479-2.184,9.154-2.671,13.854-3.05h0a61.166,61.166,0,0,0,11.584-1.61,33.569,33.569,0,0,0,4.345-1.549c.249-.11.572-.273.926-.461a30.887,30.887,0,0,0-47.984,22.781Q6921.3,5686.875,6922.291,5685.693Zm13.954-21.068Z" transform="translate(-6920.165 -5659.999)" fill="#00aafa"></path><path id="Path_1419" data-name="Path 1419" d="M6962.843,5673.916a61.238,61.238,0,0,1-11.584,1.61h0c-4.7.379-9.375.866-13.854,3.05-6.306,3.075-10.819,8.491-15.28,13.771h0q-1,1.179-2,2.34-.13,1.407-.13,2.848a30.9,30.9,0,0,0,1.24,8.691,37.856,37.856,0,0,1,5.143-6.32c4.8-4.254,11.584-5.347,17.625-6.775,6.071-1.434,12.343-2.992,17.82-5.768.737-.375,1.464-.764,2.176-1.176a29.237,29.237,0,0,0,6.119-4.585,19.347,19.347,0,0,0,3.4-5.065,31.048,31.048,0,0,0-5.41-4.63c-.354.188-.677.351-.926.461A33.725,33.725,0,0,1,6962.843,5673.916Z" transform="translate(-6920 -5666.653)" fill="#0082f0"></path><path id="Path_1420" data-name="Path 1420" d="M6965.575,5692.052q-1.067.617-2.176,1.175c-5.477,2.776-11.75,4.334-17.82,5.769-6.041,1.428-12.824,2.521-17.625,6.775a37.892,37.892,0,0,0-5.143,6.319,30.758,30.758,0,0,0,3.63,7.962,48.58,48.58,0,0,1,16.122-6.835c7.481-1.829,15.324-3.067,22.069-6.961q.614-.354,1.216-.739a44.591,44.591,0,0,0,13.7-13.663s.378-.75.819-1.679a30.951,30.951,0,0,0-5.271-7.773,19.367,19.367,0,0,1-3.4,5.065A29.266,29.266,0,0,1,6965.575,5692.052Z" transform="translate(-6921.571 -5672.518)" fill="#005ad2"></path><path id="Path_1421" data-name="Path 1421" d="M6970.445,5715.363q-.6.385-1.216.739c-6.745,3.895-14.587,5.133-22.069,6.961a48.588,48.588,0,0,0-16.122,6.835,31.022,31.022,0,0,0,12.084,10.917c.413-.012.852-.028,1.315-.05a41.909,41.909,0,0,0,17.995-5.469h0q.593-.344,1.154-.7c6.706-4.216,11.612-10.151,16.479-16.288a26.589,26.589,0,0,1,7.039-6.193c.256-.157.519-.31.784-.459a30.718,30.718,0,0,0-2.928-11.638c-.44.93-.818,1.679-.818,1.679A44.587,44.587,0,0,1,6970.445,5715.363Z" transform="translate(-6926.169 -5682.365)" fill="#003cbe"></path><path id="Path_1422" data-name="Path 1422" d="M6995.377,5733.055c-4.867,6.136-9.773,12.072-16.479,16.288-.375.234-.758.465-1.155.695l0,0a41.9,41.9,0,0,1-17.994,5.468c-.464.023-.9.039-1.315.051a30.892,30.892,0,0,0,44.81-27.57q0-.8-.041-1.585c-.264.149-.527.3-.784.459A26.614,26.614,0,0,0,6995.377,5733.055Z" transform="translate(-6941.476 -5697.109)" fill="#002896"></path></g></g></svg> 