<svg xmlns="http://www.w3.org/2000/svg" width="205px" height="60px" viewBox="0 0 310.87 66.75">
  <linearGradient id="a" x1="191.13" x2="246.87" y1="30.62" y2="36.08" gradientUnits="userSpaceOnUse">
    <stop offset="0" stop-color="#00adee"/>
    <stop offset=".18" stop-color="#0098db"/>
    <stop offset=".39" stop-color="#0088cd"/>
    <stop offset=".62" stop-color="#007ec4"/>
    <stop offset=".92" stop-color="#007bc1"/>
  </linearGradient>
  <linearGradient id="b" x1="248.24" x2="370.71" y1="28.34" y2="46.32" gradientUnits="userSpaceOnUse">
    <stop offset="0" stop-color="#63ccf5"/>
    <stop offset=".54" stop-color="#2ba9e2"/>
    <stop offset="1" stop-color="#008ed3"/>
  </linearGradient>
  <linearGradient id="c" x1="225.77" x2="262.49" y1="10.7" y2="17.84" gradientUnits="userSpaceOnUse">
    <stop offset="0" stop-color="#d6de23"/>
    <stop offset=".1" stop-color="#b9d62a"/>
    <stop offset=".3" stop-color="#81c738"/>
    <stop offset=".48" stop-color="#59bc42"/>
    <stop offset=".61" stop-color="#40b548"/>
    <stop offset=".7" stop-color="#37b34a"/>
    <stop offset=".77" stop-color="#2fae49"/>
    <stop offset=".89" stop-color="#19a147"/>
    <stop offset="1" stop-color="#009345"/>
  </linearGradient>
  <linearGradient id="d" x1="250.87" x2="282.15" y1="3.9" y2="8.49" gradientUnits="userSpaceOnUse">
    <stop offset="0" stop-color="#d6de23"/>
    <stop offset=".21" stop-color="#bfd62b"/>
    <stop offset=".52" stop-color="#a3cd36"/>
    <stop offset=".8" stop-color="#91c73d"/>
    <stop offset="1" stop-color="#8bc53f"/>
  </linearGradient>
  <path fill="#2b3c73" d="M0 53c0-8.15 5.55-13.9 13.52-13.9 6.66 0 10 3.78 10 5.63A2.48 2.48 0 0 1 21.08 47a8.59 8.59 0 0 0-7.52-4.11c-5.38 0-9.16 4.07-9.16 10s3.9 10 9.24 10c3.57 0 6.57-1.77 7.68-4.64.08-.2 2.63.29 2.63 2.26s-3.49 6.2-10.56 6.2C5.51 66.75 0 61.08 0 53zm30.76-3.3a5 5 0 0 1 5-3.74c2.05 0 3.25 1 3.25 2.63a2 2 0 0 1-1.23 2.1 3.83 3.83 0 0 0-2.51-.86c-3.21 0-4.48 3.12-4.48 7.68v6.94c0 1.48-.78 1.93-1.81 1.93h-.45c-1.07 0-1.81-.45-1.81-1.93v-18.2h1.48c1.2 0 2.51.65 2.56 3.45zm8.85 6.74c0-6 4.27-10.48 10.11-10.48s9.49 4 9.49 9.94v.33c0 .86-.29 1.19-1.23 1.19H43.39a6.44 6.44 0 0 0 6.74 6.12c3.45 0 5.18-1.52 6.2-3.29.08-.08 2.14.29 2.14 2s-3 4.48-8.42 4.48c-6.25.02-10.44-4.13-10.44-10.29zm3.82-1.77h11.84C55.06 51.26 53 49 49.68 49a6.3 6.3 0 0 0-6.25 5.67zm17.41 1.68c0-6.24 3.9-10.39 9.37-10.39A8 8 0 0 1 77 49.2V38h1.48c1.27 0 2.59.66 2.59 3.49v23c0 1.48-.74 1.93-1.81 1.93h-.41c-1.07 0-1.81-.45-1.81-1.93v-1.56a7.9 7.9 0 0 1-6.94 3.82c-5.32 0-9.26-4.15-9.26-10.4zM77 57.59v-4.2a6.17 6.17 0 0 0-6.08-4.07c-3.7 0-6.16 2.79-6.16 7s2.55 7 6.08 7A6 6 0 0 0 77 57.59zM84.89 40a2.17 2.17 0 0 1 2.47-2.3 2.12 2.12 0 0 1 2.38 2.3c0 1.48-.86 2.26-2.42 2.26A2.14 2.14 0 0 1 84.89 40zm.37 24.49V48.22c0-1.48.78-2 1.85-2h.41c1.07 0 1.81.45 1.81 2v16.23c0 1.48-.74 1.93-1.81 1.93h-.41c-1.11 0-1.85-.45-1.85-1.93zm6.6-16.23V48c0-1 .49-1.52 1.77-1.52h1.44v-3c0-1.4.7-1.93 1.81-1.93h.41c1.07 0 1.77.41 1.77 1.93v3h4.48c1.27 0 1.73.49 1.73 1.48v.29c0 1-.49 1.56-1.77 1.56H99v10c0 2.47.7 3.66 2.63 3.66a3.35 3.35 0 0 0 2.79-1.4c.12-.12 1.15.45 1.15 1.73 0 1.52-1.68 3-4.6 3-4.07 0-5.92-2.26-5.92-6.53V49.78h-1.42c-1.28 0-1.77-.53-1.77-1.52zm23.03 7.15v-14a1.68 1.68 0 0 1 1.81-1.93h.57c1.23 0 1.85.66 1.85 1.93v13.88c0 5.05 2.22 7.68 6.61 7.68s6.61-2.55 6.61-7.72V41.4c0-1.32.62-1.93 1.81-1.93h.66c1.19 0 1.77.62 1.77 1.93v13.93c0 7.4-3.82 11.38-10.89 11.38s-10.8-3.91-10.8-11.3zm29.06-5.96a7.65 7.65 0 0 1 6.57-3.45c5.22 0 7.64 3.57 7.64 8.46v10c0 1.48-.78 1.93-1.81 1.93h-.45c-1.07 0-1.81-.45-1.81-1.93v-9.54c0-3.33-1.68-5.38-4.56-5.38A6 6 0 0 0 144 53v11.45c0 1.48-.78 1.93-1.81 1.93h-.45c-1.07 0-1.81-.45-1.81-1.93v-18.2h1.48c1.18 0 2.41.61 2.54 3.2zM161.8 40a2.17 2.17 0 0 1 2.47-2.3 2.12 2.12 0 0 1 2.38 2.3c0 1.48-.86 2.26-2.42 2.26A2.14 2.14 0 0 1 161.8 40zm.37 24.49V48.22c0-1.48.78-2 1.85-2h.41c1.07 0 1.81.45 1.81 2v16.23c0 1.48-.74 1.93-1.81 1.93H164c-1 0-1.83-.45-1.83-1.93zm7.13-8.18A10 10 0 0 1 179.7 46c6 0 10.31 4.35 10.31 10.44a10 10 0 0 1-10.35 10.35c-6.13-.04-10.36-4.36-10.36-10.48zm16.93.08c0-4.11-2.75-7.11-6.57-7.11s-6.61 3-6.61 7 2.84 7.11 6.61 7.11 6.57-2.97 6.57-7zm10.66-6.94a7.65 7.65 0 0 1 6.58-3.45c5.22 0 7.64 3.57 7.64 8.46v10c0 1.48-.78 1.93-1.81 1.93h-.45c-1.07 0-1.81-.45-1.81-1.93v-9.54c0-3.33-1.68-5.38-4.56-5.38a6 6 0 0 0-5.55 3.46v11.45c0 1.48-.78 1.93-1.81 1.93h-.45c-1.07 0-1.81-.45-1.81-1.93v-18.2h1.48c1.2 0 2.43.61 2.55 3.2zM214 63.49a2.81 2.81 0 0 1 2.84-2.91 2.75 2.75 0 0 1 2.83 2.88 2.81 2.81 0 0 1-2.84 2.91 2.75 2.75 0 0 1-2.83-2.88zm5.21 0a2.37 2.37 0 0 0-2.42-2.49 2.31 2.31 0 0 0-2.36 2.48 2.37 2.37 0 0 0 2.39 2.52 2.31 2.31 0 0 0 2.36-2.51zm-1.8 1.29l-.76-.95h-.37v.9a.21.21 0 0 1-.28.27h-.07c-.15 0-.22-.1-.22-.28v-2.45A.27.27 0 0 1 216 62h.92c.74 0 1.16.3 1.16.92a.87.87 0 0 1-.9.9l.84 1s-.1.22-.29.22a.46.46 0 0 1-.36-.26zm-1.14-1.38h.69c.41 0 .63-.19.63-.49s-.23-.49-.66-.49h-.66zM6.71 2.78l8.84 24.77L24.4 2.78A3 3 0 0 1 27.26.41h3.7L18.67 31.47c-.55 1.36-1.31 2-3.22 2s-2.56-.55-3.17-2L0 .41h3.7a3.08 3.08 0 0 1 3.01 2.37zM33.66 31V2.81c0-1.56.75-2.36 2.21-2.36h.7c1.51 0 2.26.8 2.26 2.36V31c0 1.56-.75 2.36-2.26 2.36h-.7c-1.46-.03-2.21-.83-2.21-2.36zm28.81.32l-8.88-10.89H50V31a2.11 2.11 0 0 1-2.26 2.36h-.7c-1.41 0-2.16-1-2.16-2.66V3.56A2.68 2.68 0 0 1 47.67.65h9.23c7.93 0 12.15 3.35 12.15 9.74 0 5.52-3.41 9-9.69 9.54l11.25 13.4h-4.77c-1.36 0-2.26-.55-3.37-2.01zM50 16.36h6.8c4.77 0 7-2.21 7-5.72 0-3.77-2.41-5.72-7.18-5.72H50zm48 12.8v-.6c-2 3.21-5.77 5.17-10.79 5.17-9.39 0-15.36-7.08-15.36-16.77C71.86 7 78.69 0 88.53 0c7.88 0 12.3 4.22 12.3 6.73A2.72 2.72 0 0 1 98 9.39a11.1 11.1 0 0 0-9.39-4.92C81.9 4.47 77.18 9.59 77.18 17c0 7.28 4.17 12.55 11 12.55 5.27 0 9.09-3 9.74-7.28v-2.04h-7.58c-1.76 0-2.61-.55-2.61-2V18c0-1.46.85-2 2.61-2h9.44c1.86 0 2.76 1.15 2.76 3v14.33h-1.71c-1.51 0-2.83-.75-2.83-4.17zM108 31V2.81c0-1.56.75-2.36 2.21-2.36h.7c1.51 0 2.26.8 2.26 2.36V31c0 1.56-.75 2.36-2.26 2.36h-.7c-1.45-.03-2.21-.83-2.21-2.36zm11.26 0V3.36c0-1.76.85-2.91 2.46-2.91h.85c1.56 0 2.16.65 3.11 2l16.06 22.75V2.81c0-1.56.65-2.36 2.16-2.36h.6c1.4 0 2.11.8 2.11 2.36v27.61c0 1.81-.9 2.91-2.41 2.91h-.4c-1.56 0-2-.45-2.76-1.56L124.13 7.83V31c0 1.56-.7 2.36-2.21 2.36h-.55c-1.46-.03-2.11-.83-2.11-2.36zm33.38 0V2.81c0-1.56.75-2.36 2.21-2.36h.7c1.5 0 2.26.8 2.26 2.36V31c0 1.56-.75 2.36-2.26 2.36h-.7c-1.46-.03-2.21-.83-2.21-2.36zm29.97-7.41h-13L166.75 31c-.65 1.81-1.66 2.31-2.77 2.31h-3.48L172.62 2c.38-1 1.21-1.65 3.57-1.65s3.16.6 3.56 1.66L192 33.33h-3.55c-1.15 0-2.28-.5-3-2.36zm-11.75-4.17h10.44l-5.22-13.75z"/>
  <path fill="url(#a)" d="M241.93 66.42l5-30.79S203.8 5 199.51 1.92c-1.36-1-2-1.51-2.74-1.57a2.67 2.67 0 0 0-2.92 2.41c-.08.88.64 1.95 1.41 3 6.54 8.63 43.44 58.59 43.44 58.59a6.56 6.56 0 0 0 3.22 2.12z"/>
  <path fill="url(#b)" d="M308.44 24.25a6.81 6.81 0 0 0-2 .22l-59.52 11.16-5 30.79a6.62 6.62 0 0 0 1.23.24 7.8 7.8 0 0 0 4.85-1.48S305.9 31.57 308.59 30c1.83-1.09 2.18-1.89 2.26-2.81a2.67 2.67 0 0 0-2.41-2.94z"/>
  <path fill="url(#c)" d="M252.16 4.46a2.63 2.63 0 0 0-1.48.06c-3.33 1.12-15 5.52-18.22 6.74-2.09.79-2.51 1.84-.5 3.34 1.15.85 15.91 11.37 16.69 11.93z"/>
  <path fill="url(#d)" d="M268.64 22.62c1.81-.4 2.17-1.64.51-3.13L253 4.91a2.12 2.12 0 0 0-.89-.45l-3.5 22.07s19.25-3.73 20.03-3.91z"/>
</svg>
