<?xml version="1.0" encoding="UTF-8"?> <svg xmlns="http://www.w3.org/2000/svg" id="Layer_1" data-name="Layer 1" viewBox="0 0 1980 537.37"><defs><style>.cls-1{fill:#f5a800;}.cls-2{fill:#003768;}.cls-3{fill:#ee9f22;}</style></defs><rect class="cls-1" x="1177.98" y="74.5" width="11.1" height="388.36"></rect><path class="cls-2" d="M175,369h41.66l84.45-195.59H242.8l-40,109.42c-.82,2.19-3.36,10.93-7,26.26q-5.5-23-6.77-26.26L148.78,173.39H90.51Zm140.46,0h49V234.12h-49Zm-2.53-177c0,13.93,11.82,26.51,27,26.51,14.64,0,27-11.75,27-26.51s-12.11-26.28-27-26.28-27,12-27,26.28m76,165.75c18.86,11.23,39.4,16.44,63.33,16.44,36.87,0,59.69-19.16,59.69-46.25,0-21.6-12.95-33.1-39.42-40.75-19.43-5.75-31.81-6.3-31.81-15.59,0-6.3,5.63-9.87,16.88-9.87,13,0,26.47,4.12,40,13.14l10.13-32.82c-19.14-8.21-37.14-12.32-55.45-12.32-36.32,0-56.3,18.61-56.3,43.24,0,20.52,13.22,32.82,41.95,40.21,18.29,4.64,29.56,4.64,29.56,15.87,0,7.11-6.48,11.2-18.87,11.2-16.88,0-35.18-6.55-49.55-18.86ZM545.69,369h48.13V267.76h20.83V234.12H593.82V193.91H545.69v40.21H524.86v33.64h20.83Zm235.62-58V308.8c0-49.51-29.28-79.07-74.32-79.07-46.16,0-77.41,32.56-77.41,73.33s29.56,71.13,80.23,71.13c32.94,0,55.73-12.05,64.47-32.28l-36.9-14.51C732,338.08,721.91,343.53,707,343.53c-19.71,0-31-11.49-31.24-32.55Zm-48.14-26.81h-56.3c2.82-16.95,12.68-25.43,28.43-25.43,14.64,0,26.18,9.83,27.87,25.43m119.77-27.08-13-23H786.5l46.73,62.64L778.61,369H833l20.54-33.91a60.17,60.17,0,0,0,6.76-16.14A57.88,57.88,0,0,0,867,335.07L887.84,369H943l-55.44-72.22,47.58-62.64H879.68l-13.24,23a57.22,57.22,0,0,0-6.75,16.14,61.83,61.83,0,0,0-6.75-16.14"></path><path class="cls-2" d="M978,243.16a14.09,14.09,0,1,0-14.08,13.69A13.79,13.79,0,0,0,978,243.16m-31.83,0a17.57,17.57,0,0,1,17.78-17.2c9.78,0,17.81,7.9,17.72,17.34a17.58,17.58,0,0,1-17.83,17.15c-9.76-.06-17.71-7.85-17.67-17.29"></path><path class="cls-2" d="M961,241.75c.8,0,1.52,0,2.23,0a4,4,0,0,0,.9-.13,1.86,1.86,0,0,0,1.61-2.07c0-1.29-.42-2.08-1.52-2.23a26.53,26.53,0,0,0-3.22,0Zm6.5,1.47a15.32,15.32,0,0,1,2.19,2.42c1.16,2,2.14,4,3.25,6.16-1.72,0-3.24,0-4.75,0-.24,0-.54-.33-.67-.56-.75-1.42-1.44-2.88-2.21-4.29-.95-1.76-2.19-2.25-4.36-1.8v6.62h-4.72V233.88s.07-.09.11-.09c3.38.08,6.77,0,10.12.31a4.09,4.09,0,0,1,4.08,4c.26,2.32-.67,3.93-3,5-.08,0-.13.1-.07,0"></path><path class="cls-3" d="M1367.89,243l-56.1-76.72V243h-12V146.82h12.26L1367.46,222V146.82h12V243Z"></path><path class="cls-3" d="M1397.45,208.11c0-20.19,13.27-36.49,34.47-36.49s34.47,16.3,34.47,36.49-13.27,36.63-34.47,36.63S1397.45,228.3,1397.45,208.11Zm57.54,0c0-14.13-8.22-26.82-23.07-26.82s-23.08,12.69-23.08,26.82,8.23,27,23.08,27S1455,222.39,1455,208.11Z"></path><path class="cls-3" d="M1544.26,243l-18.17-56-18.17,56H1497.1l-22.21-69.66h11.25l17,55.53,18.31-55.53h9.38L1549,228.88l17-55.53h11.39L1555.22,243Z"></path><path class="cls-3" d="M1625.3,156.19a7.38,7.38,0,0,1,7.36-7.35,7.26,7.26,0,0,1,7.21,7.35,7.14,7.14,0,0,1-7.21,7.21A7.26,7.26,0,0,1,1625.3,156.19Zm1.88,86.82V173.35H1638V243Z"></path><path class="cls-3" d="M1661.79,228.45V182.87h-11.54v-9.52h11.54v-19h11v19h14.13v9.52h-14.13v43.27c0,5.19,2.3,8.94,6.92,8.94a10.26,10.26,0,0,0,7.36-3l3.17,8.22c-2.74,2.6-6.64,4.47-12.84,4.47C1667,244.74,1661.79,238.83,1661.79,228.45Z"></path><path class="cls-3" d="M1789.85,243V232.63a29.35,29.35,0,0,1-23.51,12.11c-18.17,0-31-13.84-31-36.49,0-22.35,12.84-36.63,31-36.63a29.15,29.15,0,0,1,23.51,12.26V173.35h10.81V243Zm0-19V192.54c-3.75-6.06-12.26-11.25-20.77-11.25-14.13,0-22.5,11.53-22.5,27s8.37,26.83,22.5,26.83C1777.59,235.08,1786.1,230,1789.85,224Z"></path><path class="cls-3" d="M1822.29,228.45V146.82h10.82v79.32c0,5.19,2.3,8.94,7.06,8.94a9.89,9.89,0,0,0,7.22-3l3.31,8.22c-2.88,2.6-6.63,4.47-13,4.47C1827.48,244.74,1822.29,238.83,1822.29,228.45Z"></path><path class="cls-3" d="M1861.08,228.45V146.82h10.82v79.32c0,5.19,2.31,8.94,7.07,8.94a9.87,9.87,0,0,0,7.21-3l3.31,8.22c-2.88,2.6-6.63,4.47-13,4.47C1866.28,244.74,1861.08,238.83,1861.08,228.45Z"></path><path class="cls-3" d="M1345.83,376.13v-8.08c-5.77,6.64-12.84,9.81-20.63,9.81-17.16,0-30.71-13-30.71-36.63,0-22.79,13.26-36.49,30.71-36.49a25.41,25.41,0,0,1,20.48,9.95v-8.22h22.21v69.66Zm0-24.23V330.7c-2.89-3.75-8.66-6.2-13.42-6.2-8.79,0-15.28,6.35-15.28,16.73s6.49,17,15.28,17C1337.17,358.25,1342.94,355.65,1345.83,351.9Z"></path><path class="cls-3" d="M1431.05,376.13v-8.08c-5.76,6.64-12.83,9.81-20.62,9.81-17.16,0-30.72-13-30.72-36.63,0-22.79,13.27-36.49,30.72-36.49a25.68,25.68,0,0,1,20.62,9.95V279.94h22.07v96.19Zm0-24.23V330.56c-2.88-3.75-8.65-6.2-13.41-6.2-8.8,0-15.29,6.49-15.29,16.87s6.49,17,15.29,17C1422.4,358.25,1428.17,355.65,1431.05,351.9Z"></path><path class="cls-3" d="M1516.28,376.13v-8.08c-5.77,6.64-12.83,9.81-20.62,9.81-17.16,0-30.72-13-30.72-36.63,0-22.79,13.27-36.49,30.72-36.49a25.68,25.68,0,0,1,20.62,9.95V279.94h22.07v96.19Zm0-24.23V330.56c-2.88-3.75-8.65-6.2-13.41-6.2-8.8,0-15.29,6.49-15.29,16.87s6.49,17,15.29,17C1507.63,358.25,1513.4,355.65,1516.28,351.9Z"></path><path class="cls-3" d="M1548.73,367l9.23-15.86c5.19,4.62,16.29,9.37,24.51,9.37,6.64,0,9.38-1.87,9.38-4.9,0-8.65-40.53.29-40.53-28,0-12.26,10.67-22.93,29.85-22.93a48.74,48.74,0,0,1,29.14,9.23l-8.51,15.72c-4.18-4-12.12-7.64-20.48-7.64-5.19,0-8.65,2-8.65,4.76,0,7.64,40.38-.29,40.38,28.26,0,13.27-11.68,22.79-31.59,22.79C1568.92,377.86,1556.08,373.68,1548.73,367Z"></path><path class="cls-3" d="M1708.37,376.13v-8.36c-4.33,4.9-12.26,10.09-24.09,10.09-15.71,0-22.93-9.09-22.93-21.78V306.47h22.21v40.38c0,8.51,4.33,11.4,11.54,11.4a16.63,16.63,0,0,0,13.27-6.78v-45h22.21v69.66Z"></path><path class="cls-3" d="M1768.94,367.91v34.76h-22.21v-96.2h22.21v8.08a26,26,0,0,1,20.62-9.81c17.45,0,30.57,13,30.57,36.49s-13.12,36.63-30.57,36.63C1781.77,377.86,1774.7,374.83,1768.94,367.91Zm28.55-26.68c0-10.38-6.63-16.87-15.29-16.87-4.76,0-10.52,2.59-13.26,6.34v21.2c2.74,3.61,8.5,6.35,13.26,6.35C1790.86,358.25,1797.49,351.76,1797.49,341.23Z"></path><path class="cls-3" d="M1847.61,304.81a10.75,10.75,0,1,0-10.75,10.45,10.53,10.53,0,0,0,10.75-10.45m-24.29,0A13.55,13.55,0,1,1,1836.8,318a13.42,13.42,0,0,1-13.48-13.2"></path><path class="cls-3" d="M1834.62,303.74c.62,0,1.17,0,1.71,0a3.1,3.1,0,0,0,.68-.1,1.41,1.41,0,0,0,1.23-1.58c0-1-.32-1.59-1.16-1.7a20.09,20.09,0,0,0-2.46,0Zm5,1.12a12.36,12.36,0,0,1,1.67,1.84c.88,1.49,1.63,3.06,2.48,4.71-1.31,0-2.47,0-3.63,0-.18,0-.41-.25-.51-.43-.57-1.08-1.1-2.19-1.68-3.27-.73-1.34-1.67-1.72-3.33-1.37v5.05H1831V297.73s0-.07.08-.07c2.58.06,5.17,0,7.72.24a3.13,3.13,0,0,1,3.12,3.08,3.5,3.5,0,0,1-2.27,3.85c-.06,0-.1.07-.05,0"></path></svg> 