<?xml version="1.0" encoding="UTF-8"?>
<!DOCTYPE svg PUBLIC "-//W3C//DTD SVG 1.1//EN" "http://www.w3.org/Graphics/SVG/1.1/DTD/svg11.dtd">
<!-- Creator: CorelDRAW 2019 (64-Bit) -->
<svg xmlns="http://www.w3.org/2000/svg" xml:space="preserve" width="8.5in" height="2.02664in" version="1.1" style="shape-rendering:geometricPrecision; text-rendering:geometricPrecision; image-rendering:optimizeQuality; fill-rule:evenodd; clip-rule:evenodd"
viewBox="0 0 8500 2026.64"
 xmlns:xlink="http://www.w3.org/1999/xlink"
 xmlns:xodm="http://www.corel.com/coreldraw/odm/2003">
 <defs>
  <style type="text/css">
   <![CDATA[
    .fil0 {fill:black;fill-rule:nonzero}
   ]]>
  </style>
 </defs>
 <g id="Layer_x0020_1">
  <metadata id="CorelCorpID_0Corel-Layer"/>
  <g id="_2118954963872">
   <path class="fil0" d="M1679.58 757.09c-0.57,6.04 -7.13,30.94 -14.07,45.2l-468.26 812.99c-26.7,45.6 -92.61,75.06 -167.93,75.06 -75.32,0 -141.24,-29.46 -167.94,-75.08l-485.37 -827.15c-2.75,-6.38 -8.31,-25.18 -8.45,-30.59l0 -754.67 -367.56 0 0 725.9c0,102.64 49.04,203.46 90.23,270.02l480.18 802.22c83.22,139.17 258.52,225.63 457.49,225.63 92.34,0 181.83,-19.12 258.79,-55.3 83.66,-39.32 150.41,-98.27 192.97,-170.42l465.98 -785.27c51.98,-88.65 98.62,-177.31 98.62,-286.9l0 -725.9 -364.67 0 0 754.23z"/>
   <polygon class="fil0" points="2406.28,2009.73 2776.7,2009.73 2776.7,0.34 2406.28,0.34 "/>
   <path class="fil0" d="M3268.14 324.4l1629.46 0c-12.37,70.19 -40.68,132.48 -84.28,185.52 -45.13,54.88 -106,97.96 -176.18,124.61l-997.91 385.37c-113.92,43.8 -203.13,94.49 -272.8,154.95 -67.34,58.46 -117.14,126.73 -152.18,208.73 -31.62,73.93 -51.62,158.65 -62.98,266.59 -11.03,104.94 -12.54,221.83 -12.54,332.53l0 27.04 2136.28 0 0 -324.41 -1761.16 0c7.21,-92.55 25.05,-160.11 55.48,-211.13 32.61,-54.67 82.02,-93.44 155.38,-121.96l1009.58 -385.42c111.28,-42.92 201.31,-94.35 275.21,-157.24 70.7,-60.16 124.98,-129.45 165.99,-211.84 37.41,-75.2 63.35,-160.84 79.28,-261.81 13.8,-87.48 20.24,-185.64 20.24,-308.89l0 -27.02 -2006.86 0 0 324.41z"/>
   <polygon class="fil0" points="5637.03,2009.73 6007.44,2009.73 6007.44,0.34 5637.03,0.34 "/>
   <path class="fil0" d="M6737.02 590.72c0,-65.89 28.67,-133.33 78.68,-185.04 49.94,-51.65 115.19,-81.28 179.01,-81.28l880.05 0c64.86,0 130.48,29.6 180.03,81.2 49.36,51.41 77.67,118.87 77.67,185.11l0 828.28c0,66.24 -28.31,133.71 -77.67,185.11 -49.55,51.61 -115.17,81.21 -180.03,81.21l-880.05 0c-64.86,0 -130.46,-29.6 -180.02,-81.21 -49.37,-51.4 -77.67,-118.87 -77.67,-185.11l0 -828.28zm1579.24 -423.54c-116.31,-107.81 -273.11,-167.18 -441.51,-167.18l-880.05 0c-344.76,0 -625.24,265 -625.24,590.72l0 828.28c0,325.73 280.47,590.73 625.24,590.73l880.05 0c165.65,0 322.1,-60.66 440.47,-170.81 119.16,-110.87 184.78,-257.96 184.78,-414.17l0 -834.04c0,-163.31 -65.26,-313.72 -183.74,-423.54z"/>
  </g>
 </g>
</svg>
