<svg id="Layer_1" data-name="Layer 1" xmlns="http://www.w3.org/2000/svg" xmlns:xlink="http://www.w3.org/1999/xlink" viewBox="0 0 212.35 65.98"><defs><style>.cls-1{fill:none;}.cls-2{fill:#6d6e71;}.cls-3{fill:#f7941d;}.cls-4{fill:url(#linear-gradient);}.cls-5{fill:url(#linear-gradient-2);}.cls-6{fill:url(#linear-gradient-3);}.cls-7{fill:url(#linear-gradient-4);}</style><linearGradient id="linear-gradient" x1="-832.09" y1="562.09" x2="-831.09" y2="562.09" gradientTransform="matrix(39.59, 0, 0, -44.09, 33004.19, 24808.15)" gradientUnits="userSpaceOnUse"><stop offset="0.01" stop-color="#ef3b24"/><stop offset="0.25" stop-color="#f05123"/><stop offset="0.45" stop-color="#f37021"/><stop offset="1" stop-color="#f68b1f"/></linearGradient><linearGradient id="linear-gradient-2" x1="-821.41" y1="562.3" x2="-821.16" y2="563.23" gradientTransform="matrix(26.52, 0, 0, -46.85, 21824.05, 26387.84)" gradientUnits="userSpaceOnUse"><stop offset="0" stop-color="#f05123"/><stop offset="0.45" stop-color="#f37021"/><stop offset="1" stop-color="#f68b1f"/></linearGradient><linearGradient id="linear-gradient-3" x1="-821.41" y1="563.17" x2="-821.16" y2="562.23" gradientTransform="matrix(26.52, 0, 0, -46.77, 21966.71, 26342.11)" xlink:href="#linear-gradient-2"/><linearGradient id="linear-gradient-4" x1="-831.02" y1="565.15" x2="-830.75" y2="566.13" gradientTransform="matrix(38.3, 0, 0, -65.22, 31958.39, 36923.35)" xlink:href="#linear-gradient-2"/></defs><title>Artboard 1</title><path class="cls-1" d="M-23.59-23.23H236V89.12H-23.59Z"/><path class="cls-2" d="M138,65.25V56.19h6.27v1.4h-4.66v2.34h4.56v1.4h-4.56v3.92Zm8.73,0V56.19h1.6v9.06Zm10.91,0-4.77-6.48v6.48h-1.61V56.19h1.65l4.67,6.27V56.19h1.61v9.06Zm10.64,0-.67-1.76h-4.2l-.67,1.76H160.9l3.59-9.06h2l3.6,9.06Zm-2.77-7.47-1.65,4.32h3.29l-1.64-4.32Zm12.72,7.47-4.77-6.48v6.48h-1.61V56.19h1.65l4.68,6.27V56.19h1.6v9.06Zm3.6-4.52a4.59,4.59,0,0,1,4.8-4.69,4.1,4.1,0,0,1,3.66,2l-1.36.7a2.67,2.67,0,0,0-2.3-1.31,3.27,3.27,0,0,0,0,6.54,2.72,2.72,0,0,0,2.3-1.32l1.38.68a4.18,4.18,0,0,1-3.68,2,4.59,4.59,0,0,1-4.8-4.68Zm10.64,4.52V56.19h1.61v9.06Zm10.71,0-.67-1.76h-4.2l-.67,1.76H195.8l3.59-9.06h2l3.6,9.06Zm-2.77-7.47-1.65,4.32H202l-1.64-4.32Zm6.33,7.47V56.19h1.61v7.66h4v1.4Z"/><path class="cls-3" d="M77.38.14A23.94,23.94,0,0,0,53.32,24a24.06,24.06,0,0,0,48.12,0A23.94,23.94,0,0,0,77.38.14Zm0,39.61A15.52,15.52,0,0,1,61.85,24a15.53,15.53,0,1,1,31.06,0A15.52,15.52,0,0,1,77.38,39.75Z"/><path class="cls-4" d="M81.44,1.92c-11,0-19.59,9.87-19.59,22a15.53,15.53,0,1,1,31.06,0,15.53,15.53,0,1,1-31.06,0c0,12.18,8.55,22,19.59,22s20-9.87,20-22-9-22-20-22Z"/><path class="cls-5" d="M53,1.2c-2.21-1-8.77-1.44-10.89,3.26L26.51,39.17l1.91,4.23c1.62,3.62,3.38,4,3.64,4h0Z"/><path class="cls-3" d="M28.41,43.4C26.66,39.49,13,9.12,10.91,4.45S2.23.17,0,1.19l19,42.1c1.19,2.53,3.66,4.1,7.45,4.1h5.63S30.17,47.31,28.41,43.4Z"/><path class="cls-6" d="M179.07.66h0c-.24,0-2.1.24-3.66,3.75-.36.81-1.07,2.38-1.94,4.35q7.8,17.37,15.62,34.75c2.13,4.69,8.68,4.28,10.9,3.26Z"/><path class="cls-3" d="M180.75,35.49,179,31.75c-1.32-3-3.42-3.71-6.08-3.71h-8.18s9-19.88,10.65-23.63S179.05.66,179.05.66h-5.62c-3.7,0-6.22,1.44-7.46,4.1l-19.09,42c2.22,1,8.76,1.48,10.89-3.26s3.93-8.67,3.93-8.67h15.15c3,0,3.9.69,3.9.69Z"/><path class="cls-7" d="M154.76,1.2c-2.24-1-8.71-1.44-10.85,3.26S116.46,65.1,116.46,65.1c2.23,1,8.7,1.45,10.83-3.26Z"/><path class="cls-3" d="M130.15,43.39c-1.78-3.94-15.34-34.14-17.5-38.94S104,.17,101.76,1.19l19,42.09c1.19,2.54,3.65,4.1,7.45,4.1h5.63S131.94,47.34,130.15,43.39Z"/><path class="cls-2" d="M207.12,47.36a3.47,3.47,0,1,1,3.51-3.47A3.49,3.49,0,0,1,207.12,47.36Zm0-6.5a3,3,0,1,0,3.06,3A3,3,0,0,0,207.12,40.86Zm1,5-1-1.57h-.75v1.57h-.5v-4h1.63a1.18,1.18,0,0,1,1.24,1.21,1.16,1.16,0,0,1-1,1.18l1.08,1.59Zm-.66-3.52H206.3v1.47h1.14a.74.74,0,0,0,0-1.47Z"/></svg>