<svg fill="#fff" xmlns="http://www.w3.org/2000/svg" width="590" height="144">
  <path d="M198.1 80c0 1.5-.4 2.8-1.1 4-.7 1.1-1.7 2.1-2.9 2.8-1 .6-2.2 1.1-3.4 1.4-1.3.3-2.7.5-4.3.5h-2.8v-12c0-1.4 0-3.2-.1-5.2h2.3c1.8 0 3.3.2 4.7.5 1.4.3 2.6.8 3.7 1.5 1.3.8 2.2 1.8 2.8 2.9.8.8 1.1 2.1 1.1 3.6zm-2.2 0c0-1.1-.2-2.1-.7-3-.5-.9-1.2-1.7-2.3-2.3-1-.6-2-1-3.2-1.3-1.2-.2-2.2-.4-3.2-.4h-.7v13.8h.6c1.1 0 2.2-.1 3.4-.4 1.1-.3 2.1-.6 2.8-1.1 1-.6 1.8-1.3 2.4-2.2.6-.8.9-1.9.9-3.1zm17.9 8.5H202.9V71.4H213.7v1.8H205v5.6h8.7v1.8H205v6.3h8.8v1.6zm16.9-15.4h-6.3v15.4h-2.1V73H216v-1.8h14.7v1.9zm16.4 14.4-1.6 1.3c-.2-.2-.9-.9-2-2.2-1.1-1.3-2.9-3.3-5.3-6v-.1c.3-.1.8-.3 1.3-.6s1-.6 1.4-.9c.3-.3.6-.7.8-1.1.2-.4.4-1 .4-1.7s-.2-1.2-.5-1.7-.8-.8-1.4-1c-.5-.2-1-.3-1.6-.3-.5 0-1.1-.1-1.5-.1H236c0 1.6 0 3.1-.1 4.3v11.2h-2.1V77.7c0-1.2 0-3.3-.1-6.3H237.1c.7 0 1.5 0 2.2.1.7.1 1.4.3 2.1.6.8.4 1.5.9 2 1.6.5.7.7 1.5.7 2.5 0 1.2-.4 2.2-1.1 3-.7.8-1.5 1.4-2.1 1.8v.1c1.2 1.4 2.5 2.8 3.9 4.2 1.4 1.3 2.2 2 2.3 2.2zm18.6-7.6c0 1.4-.2 2.7-.7 3.8-.5 1.2-1.1 2.1-1.9 2.9-.8.8-1.7 1.5-2.7 1.8-1 .4-2 .6-3.1.6s-2.1-.2-3-.5c-.9-.4-1.8-.9-2.5-1.6-.8-.8-1.5-1.8-2-2.9-.5-1.2-.8-2.5-.8-4 0-1.3.2-2.5.6-3.6.4-1.1 1-2.1 1.8-2.9.7-.8 1.6-1.4 2.7-1.9 1-.4 2.1-.7 3.3-.7 1.2 0 2.2.2 3.2.6 1 .4 1.8 1 2.6 1.7.8.9 1.5 1.9 1.9 3 .4 1.1.6 2.4.6 3.7zm-2.2.2c0-1.1-.2-2.2-.6-3.3-.4-1.1-.9-2-1.7-2.7-.5-.5-1.1-.9-1.7-1.2-.6-.3-1.4-.4-2.1-.4-.8 0-1.5.1-2.2.4-.7.3-1.3.7-1.8 1.2-.7.7-1.2 1.5-1.6 2.5-.4 1-.6 2.1-.6 3.2 0 1.2.2 2.3.6 3.3.4 1 .9 1.8 1.7 2.5.5.5 1.1.8 1.7 1.1.7.3 1.4.4 2.2.4.8 0 1.5-.1 2.1-.4.7-.3 1.3-.7 1.8-1.2.6-.6 1.2-1.4 1.6-2.4.4-.8.6-1.8.6-3zm9 8.4h-2.1V71.3h2.1v17.2zm17.9-15.4h-6.3v15.4H282V73H275.7v-1.8h14.7v1.9zm30.5 15.1-2.1.4-2.7-14.5c-.3.7-1.1 2.3-2.2 4.8s-2.3 5.1-3.4 7.6h-1.8c-1-2.4-2.2-4.9-3.4-7.7-1.2-2.7-2-4.3-2.2-4.8-.1.2-.4 1.9-1 4.9-.6 3.1-1.3 6.2-1.8 9.5l-2-.4c.9-3.7 1.7-7.4 2.4-11 .7-3.6 1.2-5.6 1.2-5.9l2-.3c.1.2.7 1.6 1.8 4.1 1.1 2.6 2.5 5.5 4 8.9h.1c1.2-2.6 2.4-5.4 3.7-8.4 1.3-3 2-4.5 2-4.6l1.9.2c0 .2.4 2.1 1.1 5.6.8 3.9 1.5 7.6 2.4 11.6zm15.1.3H325.1V71.4H335.9v1.8H327.2v5.6h8.7v1.8H327.2v6.3h8.8v1.6zm16.8-15.4h-6.3v15.4h-2.1V73H338.1v-1.8h14.7v1.9zm16.4 14.4-1.6 1.3c-.2-.2-.9-.9-2-2.2-1.1-1.3-2.9-3.3-5.3-6v-.1c.3-.1.8-.3 1.3-.6s1-.6 1.4-.9c.3-.3.6-.7.8-1.1.2-.4.4-1 .4-1.7s-.2-1.2-.5-1.7-.8-.8-1.4-1c-.5-.2-1-.3-1.6-.3-.5 0-1.1-.1-1.5-.1h-1.1c0 1.6 0 3.1-.1 4.3v11.2h-2.1V77.7c0-1.2 0-3.3-.1-6.3H359.2c.7 0 1.5 0 2.2.1.7.1 1.4.3 2.1.6.8.4 1.5.9 2 1.6.5.7.7 1.5.7 2.5 0 1.2-.4 2.2-1.1 3-.7.8-1.5 1.4-2.1 1.8v.1c1.2 1.4 2.5 2.8 3.9 4.2 1.5 1.3 2.2 2 2.3 2.2zm18.6-7.6c0 1.4-.2 2.7-.7 3.8-.5 1.2-1.1 2.1-1.9 2.9-.8.8-1.7 1.5-2.7 1.8-1 .4-2 .6-3.1.6s-2.1-.2-3-.5c-.9-.4-1.8-.9-2.5-1.6-.8-.8-1.5-1.8-2-2.9-.5-1.2-.8-2.5-.8-4 0-1.3.2-2.5.6-3.6.4-1.1 1-2.1 1.8-2.9.7-.8 1.6-1.4 2.7-1.9 1-.4 2.1-.7 3.3-.7 1.2 0 2.2.2 3.2.6 1 .4 1.8 1 2.6 1.7.8.9 1.5 1.9 1.9 3 .4 1.1.6 2.4.6 3.7zm-2.1.2c0-1.1-.2-2.2-.6-3.3-.4-1.1-.9-2-1.7-2.7-.5-.5-1.1-.9-1.7-1.2-.6-.3-1.4-.4-2.1-.4-.8 0-1.5.1-2.2.4-.7.3-1.3.7-1.8 1.2-.7.7-1.2 1.5-1.6 2.5-.4 1-.6 2.1-.6 3.2 0 1.2.2 2.3.6 3.3.4 1 .9 1.8 1.7 2.5.5.5 1.1.8 1.7 1.1.7.3 1.4.4 2.2.4.8 0 1.5-.1 2.1-.4.7-.3 1.3-.7 1.8-1.2.6-.6 1.2-1.4 1.6-2.4.3-.8.6-1.8.6-3zm21.5 1.9c0 1-.4 1.9-1.1 2.7-.7.7-1.6 1.1-2.7 1.1-1 0-1.9-.4-2.7-1.1-.7-.7-1.1-1.6-1.1-2.7 0-1 .4-1.9 1.1-2.7.8-.7 1.6-1.1 2.7-1.1 1 0 1.9.4 2.7 1.1.7.8 1.1 1.7 1.1 2.7zm36.6-10.3c-1.4 3.8-2.8 7.5-4 11.2-1.2 3.7-1.9 5.6-2 5.7H436c0-.2-.5-1.5-1.4-4.1-.9-2.6-2-5.8-3.5-9.6-1.3 3.2-2.4 6.2-3.5 9.1-1.1 2.9-1.6 4.4-1.7 4.6h-1.8c-.1-.2-.6-1.9-1.7-5-1-3.1-2.4-7-4.1-11.7l2.1-.8c0 .1.5 1.6 1.5 4.5s2.1 6.1 3.3 9.8c1.3-3.3 2.5-6.4 3.4-9.1 1-2.8 1.5-4.2 1.5-4.3h2c0 .1.6 1.7 1.6 4.7s2 5.9 3.1 8.8c1.4-3.7 2.5-7 3.5-9.8.9-2.8 1.4-4.3 1.5-4.4l2 .4zm6.1 16.8h-2.1V71.3h2.1v17.2zm16.6 0H455.9V71.2h2.2v15.4h8.4v1.9zm14.2 0H470.1V71.2h2.2v15.4h8.4v1.9zm18.9-8.6c0 1.4-.2 2.7-.7 3.8-.5 1.2-1.1 2.1-1.9 2.9-.8.8-1.7 1.5-2.7 1.8-1 .4-2 .6-3.1.6s-2.1-.2-3-.5c-.9-.4-1.8-.9-2.5-1.6-.8-.8-1.5-1.8-2-2.9-.5-1.2-.8-2.5-.8-4 0-1.3.2-2.5.6-3.6.4-1.1 1-2.1 1.8-2.9.7-.8 1.6-1.4 2.7-1.9 1-.4 2.1-.7 3.3-.7 1.2 0 2.2.2 3.2.6 1 .4 1.8 1 2.6 1.7.8.9 1.5 1.9 1.9 3 .4 1.1.6 2.4.6 3.7zm-2.2.2c0-1.1-.2-2.2-.6-3.3-.4-1.1-.9-2-1.7-2.7-.5-.5-1.1-.9-1.7-1.2-.6-.3-1.4-.4-2.1-.4-.8 0-1.5.1-2.2.4-.7.3-1.3.7-1.8 1.2-.7.7-1.2 1.5-1.6 2.5-.4 1-.6 2.1-.6 3.2 0 1.2.2 2.3.6 3.3.4 1 .9 1.8 1.7 2.5.5.5 1.1.8 1.7 1.1.7.3 1.4.4 2.2.4.8 0 1.5-.1 2.1-.4.7-.3 1.3-.7 1.8-1.2.6-.6 1.2-1.4 1.6-2.4.4-.8.6-1.8.6-3zm30.3-8.4c-1.4 3.8-2.8 7.5-4 11.2-1.2 3.7-1.9 5.6-2 5.7h-1.8c0-.2-.5-1.5-1.4-4.1-.9-2.6-2-5.8-3.5-9.6-1.3 3.2-2.4 6.2-3.5 9.1-1.1 2.9-1.6 4.4-1.7 4.6H508c-.1-.2-.6-1.9-1.7-5-1-3.1-2.4-7-4.1-11.7l2.1-.8c0 .1.5 1.6 1.5 4.5s2.1 6.1 3.3 9.8c1.3-3.3 2.5-6.4 3.4-9.1 1-2.8 1.5-4.2 1.5-4.3h2c0 .1.6 1.7 1.6 4.7s2 5.9 3.1 8.8c1.4-3.7 2.5-7 3.5-9.8 1-2.8 1.4-4.3 1.5-4.4l2 .4zm23.9 15.8-1.6 1.3c-.2-.2-.9-.9-2-2.2-1.1-1.3-2.9-3.3-5.3-6v-.1c.3-.1.8-.3 1.3-.6s1-.6 1.4-.9c.3-.3.6-.7.8-1.1.2-.4.4-1 .4-1.7s-.2-1.2-.5-1.7-.8-.8-1.4-1c-.5-.2-1-.3-1.6-.3-.5 0-1.1-.1-1.5-.1h-1.1c0 1.6 0 3.1-.1 4.3v11.2h-2.1V77.7c0-1.2 0-3.3-.1-6.3H541.6c.7 0 1.5 0 2.2.1.7.1 1.4.3 2.1.6.8.4 1.5.9 2 1.6.5.7.7 1.5.7 2.5 0 1.2-.4 2.2-1.1 3-.7.8-1.5 1.4-2.1 1.8v.1c1.2 1.4 2.5 2.8 3.9 4.2 1.4 1.3 2.2 2 2.3 2.2zM569 71.3v11.2c0 1-.1 1.9-.4 2.6-.3.8-.7 1.4-1.3 2-.6.6-1.3 1-2.2 1.3-.9.3-1.9.5-3 .5-1.2 0-2.2-.2-3-.5-.9-.3-1.6-.8-2.2-1.3-.6-.6-1-1.2-1.3-2-.3-.8-.4-1.6-.4-2.6V71.3h2.1v11c0 1.6.4 2.8 1.3 3.6.9.8 2.1 1.2 3.6 1.2 1.7 0 2.9-.4 3.7-1.2.8-.8 1.2-2 1.2-3.6v-11h1.9zm20.6 0V87.7l-1.7.8c-2.6-3.5-5-6.6-7.2-9.5-2.2-2.8-3.5-4.4-3.9-4.9v8.5c0 3.3 0 5.3.1 5.8h-2V72l1.9-.9c.2.2 1.5 1.9 3.9 5 2.5 3.1 4.8 6 7 8.7V71.3h1.9zM223.7 106.8c-.9 2.3-1.7 4.6-2.5 6.9-.8 2.3-1.2 3.4-1.2 3.5h-1.1c0-.1-.3-.9-.9-2.5-.5-1.6-1.3-3.6-2.1-5.9-.8 2-1.5 3.8-2.1 5.6-.7 1.8-1 2.7-1 2.8h-1.1c0-.2-.4-1.2-1-3.1-.6-1.9-1.5-4.3-2.5-7.2l1.3-.5c0 .1.3 1 .9 2.8.6 1.8 1.3 3.8 2.1 6 .8-2.1 1.5-3.9 2.1-5.6.6-1.7.9-2.6.9-2.7h1.2c0 .1.3 1.1 1 2.9.6 1.8 1.2 3.6 1.9 5.4.8-2.3 1.6-4.3 2.1-6.1.6-1.7.9-2.7.9-2.7l1.1.4zm12.9 10-1.2.6c0-.1-.2-.4-.5-1.2-.3-.7-.7-1.7-1.3-2.8h-4.7c-.6 1.2-1 2.2-1.3 2.8-.3.7-.5 1-.5 1.1l-1-.6c.1-.3.7-1.5 1.7-3.6s2-4.4 3.1-6.7h1c1.1 2.4 2.1 4.6 3.1 6.8 1 2.4 1.5 3.5 1.6 3.6zm-4.3-6.3c-.3-.7-.6-1.4-1-2.2-.3.6-.6 1.3-1 2.1s-.7 1.5-.9 2.1h3.8c-.3-.7-.6-1.3-.9-2zm15.3-3.4c0 .1-.6.7-1.6 2s-1.8 2.3-2.4 3.1v5.1h-1.3v-5c-.6-.8-1.4-1.9-2.4-3.1-.9-1.2-1.5-1.9-1.5-1.9l1-.8c.1.1.5.6 1.2 1.7.8 1 1.5 2 2.3 3 .7-1 1.5-2 2.3-3 .8-1.1 1.2-1.6 1.3-1.7l1.1.6zm12.6-.5v10.1l-1 .5c-1.6-2.2-3.1-4.1-4.5-5.8-1.4-1.7-2.2-2.7-2.4-3v8.8h-1.2v-10.1l1.2-.6c.1.1.9 1.1 2.4 3.1 1.5 1.9 3 3.7 4.3 5.4V106.6h1.2zm12.1 10.6H265.6v-10.7h6.6v1.1h-5.4v3.5h5.4v1.1h-5.4v3.9h5.4v1.1h.1zm17.3-1v.4c0 .2 0 .5-.1.7h-.2c-1.3 0-2.4-.2-3.4-.5s-1.8-.8-2.5-1.4c-.4-.4-.8-.9-1.1-1.5-.3-.6-.4-1.3-.4-2s.1-1.3.4-1.9c.3-.6.6-1.1 1-1.5.6-.6 1.4-1.1 2.4-1.5 1-.4 2.1-.5 3.3-.5h.4v.5c0 .2 0 .4.1.7h-.2c-.7 0-1.3.1-2 .2s-1.3.4-1.8.7c-.7.4-1.2.9-1.5 1.5-.4.6-.5 1.2-.5 1.9s.2 1.4.5 1.9.8 1.1 1.5 1.5c.6.3 1.2.6 1.9.7.7.1 1.4.2 2.1.2h.1c-.2 0-.1 0 0-.1zm13.3-4.3c0 .9-.1 1.6-.4 2.4-.3.7-.7 1.3-1.1 1.8-.5.5-1.1.9-1.7 1.1-.6.2-1.2.4-1.9.4s-1.3-.1-1.9-.3c-.6-.2-1.1-.6-1.6-1-.5-.5-.9-1.1-1.2-1.8-.3-.7-.5-1.6-.5-2.5 0-.8.1-1.6.4-2.2.2-.7.6-1.3 1.1-1.8.5-.5 1-.9 1.6-1.2.6-.3 1.3-.4 2-.4s1.4.1 2 .4c.6.3 1.1.6 1.6 1.1.5.5.9 1.1 1.2 1.9.3.6.4 1.3.4 2.1zm-1.3.2c0-.7-.1-1.4-.3-2-.2-.7-.6-1.2-1.1-1.7-.3-.3-.7-.5-1.1-.7-.4-.2-.8-.3-1.3-.3s-.9.1-1.3.3c-.4.2-.8.4-1.1.8-.4.4-.8.9-1 1.6-.2.6-.4 1.3-.4 1.9 0 .8.1 1.4.4 2 .2.6.6 1.1 1 1.5.3.3.7.5 1.1.7.4.2.9.3 1.3.3.5 0 .9-.1 1.3-.3.4-.2.8-.4 1.1-.7.4-.4.7-.9 1-1.5.3-.6.4-1.2.4-1.9zm14.4-5.5V113.4c0 .6-.1 1.2-.3 1.6-.2.5-.5.9-.8 1.2-.4.3-.8.6-1.4.8-.5.2-1.2.3-1.9.3s-1.3-.1-1.9-.3c-.5-.2-1-.5-1.4-.8-.4-.3-.6-.8-.8-1.2-.2-.5-.3-1-.3-1.6v-6.8h1.3v6.8c0 1 .3 1.7.8 2.2.6.5 1.3.7 2.2.7 1 0 1.8-.2 2.3-.7.5-.5.8-1.2.8-2.2V106.5h1.4v.1zm14.3 0v10.1l-1 .5c-1.6-2.2-3.1-4.1-4.5-5.8-1.4-1.7-2.2-2.7-2.4-3v8.8h-1.2v-10.1l1.2-.6c.1.1.9 1.1 2.4 3.1 1.5 1.9 3 3.7 4.3 5.4V106.6h1.2zm12.7 1.1h-3.9v9.5h-1.3v-9.5H333.9v-1.1h9.1v1.1zm10.9-.6c0 .1-.6.7-1.6 2s-1.8 2.3-2.4 3.1v5.1h-1.3v-5c-.6-.8-1.4-1.9-2.4-3.1-.9-1.2-1.5-1.9-1.5-1.9l1-.8c.1.1.5.6 1.2 1.7.8 1 1.5 2 2.3 3 .7-1 1.5-2 2.3-3 .8-1.1 1.2-1.6 1.3-1.7l1.1.6zm18 9.7-1.2.6c0-.1-.2-.4-.5-1.2-.3-.7-.7-1.7-1.3-2.8h-4.7c-.6 1.2-1 2.2-1.3 2.8-.3.7-.5 1-.5 1.1l-1-.6c.1-.3.7-1.5 1.7-3.6s2-4.4 3.1-6.7h1c1.1 2.4 2.1 4.6 3.1 6.8 1 2.4 1.6 3.5 1.6 3.6zm-4.3-6.3c-.3-.7-.6-1.4-1-2.2-.3.6-.6 1.3-1 2.1s-.7 1.5-.9 2.1h3.8c-.3-.7-.6-1.3-.9-2zm9.2 6.7h-1.3v-10.6h1.3v10.6zm13.5-.6-1 .8c-.1-.1-.5-.6-1.2-1.4-.7-.8-1.8-2-3.3-3.7v-.1c.2-.1.5-.2.8-.3.3-.2.6-.4.8-.6.2-.2.4-.4.5-.7.1-.3.2-.6.2-1.1 0-.4-.1-.8-.3-1-.2-.3-.5-.5-.9-.6-.3-.1-.6-.2-1-.2h-1.5v9.5h-1.3v-10.6h2.1c.5 0 .9 0 1.3.1s.9.2 1.3.3c.5.2.9.5 1.2 1 .3.4.5.9.5 1.5 0 .7-.2 1.4-.7 1.9-.5.5-.9.9-1.3 1.1.7.8 1.5 1.7 2.4 2.6.9.9 1.4 1.4 1.4 1.5zm10.3-6.3c0 .8-.2 1.5-.7 2.1-.5.6-1.2 1-2 1.3-.4.1-.8.2-1.2.2-.4 0-.9.1-1.4.1v3.3H394v-10.7h1.2c.9 0 1.7.1 2.3.2.6.1 1.2.3 1.6.6.5.3.8.7 1.1 1.2.3.4.4 1 .4 1.7zm-1.3 0c0-.5-.1-1-.4-1.4-.2-.4-.6-.7-1.1-.9-.3-.1-.7-.2-1-.3-.4 0-.7-.1-1.1-.1h-.2v5.2h.4c.4 0 .7 0 1.1-.1.4 0 .7-.1 1-.3.5-.2.9-.5 1.1-.9 0-.2.2-.7.2-1.2zm14.8 1.6c0 .9-.1 1.6-.4 2.4-.3.7-.7 1.3-1.1 1.8-.5.5-1.1.9-1.7 1.1-.6.2-1.2.4-1.9.4s-1.3-.1-1.9-.3c-.6-.2-1.1-.6-1.6-1-.5-.5-.9-1.1-1.2-1.8-.3-.7-.5-1.6-.5-2.5 0-.8.1-1.6.4-2.2.2-.7.6-1.3 1.1-1.8.5-.5 1-.9 1.6-1.2.6-.3 1.3-.4 2-.4s1.4.1 2 .4c.6.3 1.1.6 1.6 1.1.5.5.9 1.1 1.2 1.9.3.6.4 1.3.4 2.1zm-1.3.2c0-.7-.1-1.4-.3-2-.2-.7-.6-1.2-1-1.7-.3-.3-.7-.5-1.1-.7-.4-.2-.8-.3-1.3-.3s-.9.1-1.3.3c-.4.2-.8.4-1.1.8-.4.4-.8.9-1 1.6-.2.6-.4 1.3-.4 1.9 0 .8.1 1.4.4 2 .2.6.6 1.1 1 1.5.3.3.7.5 1.1.7.4.2.9.3 1.3.3s.9-.1 1.3-.3c.4-.2.8-.4 1.1-.7.4-.4.7-.9 1-1.5.2-.6.3-1.2.3-1.9zm14 4.5-1 .8c-.1-.1-.5-.6-1.2-1.4-.7-.8-1.8-2-3.3-3.7v-.1c.2-.1.5-.2.8-.3.3-.2.6-.4.8-.6.2-.2.4-.4.5-.7.1-.3.2-.6.2-1.1 0-.4-.1-.8-.3-1-.2-.3-.5-.5-.9-.6-.3-.1-.6-.2-1-.2h-1.5v9.5h-1.3v-10.6h2.1c.5 0 .9 0 1.3.1s.9.2 1.3.3c.5.2.9.5 1.2 1 .3.4.5.9.5 1.5 0 .7-.2 1.4-.7 1.9-.5.5-.9.9-1.3 1.1.7.8 1.5 1.7 2.4 2.6.9.9 1.3 1.4 1.4 1.5zm11-8.9h-3.9v9.5h-1.3v-9.5H428.7v-1.1h9.1v1.1zm18 9.1-1.2.6c0-.1-.2-.4-.5-1.2-.3-.7-.7-1.7-1.3-2.8h-4.7c-.6 1.2-1 2.2-1.3 2.8-.3.7-.5 1-.5 1.1l-1-.6c.1-.3.7-1.5 1.7-3.6s2-4.4 3.1-6.7h1c1.1 2.4 2.1 4.6 3.1 6.8 1 2.4 1.5 3.5 1.6 3.6zm-4.4-6.3c-.3-.7-.6-1.4-1-2.2-.3.6-.6 1.3-1 2.1s-.7 1.5-.9 2.1h3.8c-.2-.7-.5-1.3-.9-2zm16.6-3.9V113.4c0 .6-.1 1.2-.3 1.6-.2.5-.5.9-.8 1.2-.4.3-.8.6-1.4.8-.5.2-1.2.3-1.9.3s-1.3-.1-1.9-.3c-.5-.2-1-.5-1.4-.8-.4-.3-.6-.8-.8-1.2-.2-.5-.3-1-.3-1.6v-6.8h1.3v6.8c0 1 .3 1.7.8 2.2.6.5 1.3.7 2.2.7 1 0 1.8-.2 2.3-.7.5-.5.8-1.2.8-2.2V106.5h1.4v.1zm12.5 1.1h-3.9v9.5h-1.3v-9.5H471.4v-1.1h9.1v1.1zm12.5 9.5h-1.3v-5H485.3v4.9H484V106.5h1.3v4.6H491.7v-4.6h1.3v10.7zm14.6-5.3c0 .9-.1 1.6-.4 2.4-.3.7-.7 1.3-1.1 1.8-.5.5-1.1.9-1.7 1.1-.6.2-1.2.4-1.9.4s-1.3-.1-1.9-.3c-.6-.2-1.1-.6-1.6-1-.5-.5-.9-1.1-1.2-1.8-.3-.7-.5-1.6-.5-2.5 0-.8.1-1.6.4-2.2.2-.7.6-1.3 1.1-1.8.5-.5 1-.9 1.6-1.2.6-.3 1.3-.4 2-.4s1.4.1 2 .4c.6.3 1.1.6 1.6 1.1.5.5.9 1.1 1.2 1.9.3.6.4 1.3.4 2.1zm-1.3.2c0-.7-.1-1.4-.3-2-.2-.7-.6-1.2-1-1.7-.3-.3-.7-.5-1.1-.7-.4-.2-.8-.3-1.3-.3s-.9.1-1.3.3c-.4.2-.8.4-1.1.8-.4.4-.8.9-1 1.6-.2.6-.4 1.3-.4 1.9 0 .8.1 1.4.4 2 .2.6.6 1.1 1 1.5.3.3.7.5 1.1.7.4.2.9.3 1.3.3s.9-.1 1.3-.3c.4-.2.8-.4 1.1-.7.4-.4.7-.9 1-1.5.3-.6.3-1.2.3-1.9zm14 4.5-1 .8c-.1-.1-.5-.6-1.2-1.4-.7-.8-1.8-2-3.3-3.7v-.1c.2-.1.5-.2.8-.3.3-.2.6-.4.8-.6.2-.2.4-.4.5-.7.1-.3.2-.6.2-1.1 0-.4-.1-.8-.3-1-.2-.3-.5-.5-.9-.6-.3-.1-.6-.2-1-.2h-1.5v9.5h-1.3v-10.6h2.1c.5 0 .9 0 1.3.1s.9.2 1.3.3c.5.2.9.5 1.2 1 .3.4.5.9.5 1.5 0 .7-.2 1.4-.7 1.9-.5.5-.9.9-1.3 1.1.7.8 1.5 1.7 2.4 2.6.9.9 1.3 1.4 1.4 1.5zm5 .6H524v-10.6h1.3v10.6zm12.6-9.5H534v9.5h-1.3v-9.5H528.8v-1.1h9.1v1.1zm11-.6c0 .1-.6.7-1.6 2s-1.8 2.3-2.4 3.1v5.1h-1.3v-5c-.6-.8-1.4-1.9-2.4-3.1-.9-1.2-1.5-1.9-1.5-1.9l1-.8c.1.1.5.6 1.2 1.7.8 1 1.5 2 2.3 3 .7-1 1.5-2 2.3-3 .8-1.1 1.2-1.6 1.3-1.7l1.1.6zM183.2 26.3l19.9-17.6-15.5 22.4zM162.2 31.6 182.1 14l-15.5 22.4zM60.4 91.9c-18.8-4.4-17.3-49.8 21.8-92-34.1 33.6-44.4 63.6-47 74.6-8.5 37 18.7 44.4 54.9 24 21.1-11.9 51.4-39.1 70.2-59.4-16.2 16.7-68.2 60.1-99.9 52.8Z"/>
  <path d="M32.4 117.8C9.5 107.6 10 73.1 42.1 32.9 26.8 47.6 10.2 76.5 6 88.3c-20.3 57.6 12.6 71 72.4 36.2 34.9-20.3 74.5-54.9 103-91.1-23.9 27.4-110.9 101.3-149 84.4Z"/>
</svg>
