<?xml version="1.0" encoding="UTF-8"?> <!-- Generator: Adobe Illustrator 25.3.1, SVG Export Plug-In . SVG Version: 6.00 Build 0) --> <svg xmlns="http://www.w3.org/2000/svg" xmlns:xlink="http://www.w3.org/1999/xlink" version="1.1" id="Layer_1" x="0px" y="0px" viewBox="0 0 387.75 78.6" style="enable-background:new 0 0 387.75 78.6;" xml:space="preserve"> <style type="text/css"> .st0{fill:#002D82;} .st1{fill:#FFD107;} </style> <path class="st0" d="M385.17,36.86c0.33,0,0.5-0.21,0.5-0.49c0-0.29-0.17-0.48-0.5-0.48h-0.49v0.97H385.17z M385.12,37.3h-0.45v0.87 h-0.54v-2.71h1.1c0.64,0,0.98,0.39,0.98,0.92c0,0.38-0.2,0.69-0.53,0.84l0.57,0.95h-0.63L385.12,37.3z"></path> <path class="st0" d="M385.07,34.64c-1.2,0-2.17,0.97-2.17,2.17c0,1.2,0.97,2.17,2.17,2.17c1.2,0,2.17-0.97,2.17-2.17 C387.24,35.61,386.27,34.64,385.07,34.64 M385.07,39.48c-1.48,0-2.68-1.2-2.68-2.67c0-1.47,1.2-2.67,2.68-2.67 c1.47,0,2.67,1.2,2.67,2.67C387.75,38.29,386.55,39.48,385.07,39.48"></path> <path class="st0" d="M377.35,54.07l-7.54-10.38l4.72-4.44c2-1.85,3.02-2.72,5.67-3.05v-1.45h-10.58v1.45c3.04,0.05,3.35,1.55,2,2.95 l-7.5,7.09V23.26h-7.27v1.56c2.27,0.19,3.08,1.04,3.08,2.39v27.3c0,1.1-0.71,1.61-3.08,1.72v1.58h9.97v-1.55 c-2.05-0.05-2.7-0.55-2.7-1.75v-5.49l2.95-2.74l5.34,7.64c1.15,1.7,0.5,2.15-1.95,2.45v1.45h10.93v-1.45 C379,56.11,378.45,55.57,377.35,54.07"></path> <path class="st0" d="M344.56,56.26v1.56h10.32v-1.58c-2.31-0.12-2.9-0.63-2.9-1.72l0.1-12.89c0-4.51-2.43-6.97-5.89-6.97 c-3.31,0-6.68,1.6-8.95,3.4v-3.5h-6.98v1.89c2.22,0.2,2.86,1.1,2.86,2.48V54.5c0,1.08-0.65,1.58-2.86,1.71v1.6h10.24v-1.56 c-2.51-0.05-3.16-0.55-3.16-1.75V39.95c1.35-1.16,3.51-2.2,5.76-2.2c3.01,0,4.76,1.2,4.76,5.67l-0.1,11.09 C347.77,55.71,347.12,56.21,344.56,56.26"></path> <path class="st0" d="M320.23,52.22c-1.11,1.55-3.12,3.09-5.12,3.08c-2.6-0.01-3.81-1.86-3.8-3.96c0.01-3.3,1.73-4.59,8.95-6.11 L320.23,52.22z M327.55,55.83c-2.66,0.21-3.14-0.48-3.13-2.74l0.05-11.47c0.02-4.81-2.92-7.17-8.13-7.2 c-4.81-0.02-8.67,2.27-8.68,5.17c-0.01,1.45,0.89,2.69,2.5,2.69c1.73,0.01,2.66-1.17,2.66-2.67c0-0.7-0.19-1.5-0.59-2.36 c0.85-0.85,2-1.29,3.41-1.29c3.14,0.01,4.65,1.14,4.63,6.14l-0.01,1.45c-1.68,0.44-6.74,1.32-10.53,3.46 c-1.96,1.1-2.92,3.13-2.93,5.14c-0.01,2.7,1.73,5.73,5.86,5.73c2.95,0,5.54-1.63,7.56-3.88l0.2,0c0.29,2.7,0.74,3.86,3.39,3.87 c1.31,0.01,2.41-0.21,3.75-0.63V55.83z"></path> <path class="st0" d="M289.1,55.97h-4.44V40.41h3.87c6.87,0,9.87,3.6,9.87,7.86C298.4,52.78,296.63,55.97,289.1,55.97 M284.66,25.21 h3.98c6.22,0,8.17,2.55,8.17,6.7c0,4.36-2.02,6.65-8.27,6.65h-3.87V25.21z M293.81,39.38v-0.2c6.41-1.23,7.75-4.66,7.74-7.54 c-0.02-4.31-1.76-8.55-12.67-8.28h-13.12v1.71c3.12,0.16,4.03,0.62,4.03,2.14v26.76c0,1.5-0.88,2.01-4.03,2.14v1.71h13.13 c10.77,0,14.3-4.31,14.3-9.74C303.19,44.53,300.48,39.89,293.81,39.38"></path> <path class="st0" d="M208.33,44.87c-0.92-0.34-6.76-1.92-7.66-2.56c-0.43-0.3-0.71-0.62-0.72-1.18c-0.02-0.58,0.25-1.16,0.74-1.54 c0.82-0.62,2.42-0.77,3.69-0.42c0.53,0.14,1.71,0.62,2.42,2.07c0.26,0.52,0.37,0.91,1.21,0.91h4.55c-0.06-2.63-0.93-4.58-2.72-6.01 c-3.6-2.87-10.4-2.76-13.91,0.23c-1.76,1.5-2.6,3.68-2.24,5.83c0.34,2.02,1.81,3.7,3.88,4.75c1.31,0.66,6.07,1.74,7.63,2.2 c0.65,0.19,1.62,0.67,1.62,1.96c0,1.05-0.54,1.77-1.5,2.17c-2.15,0.9-4.96,0.12-6.26-1.81c-0.05-0.08-0.29-0.48-0.53-1.04 c-0.09-0.2-0.22-0.38-0.76-0.38l-4.85,0c0,0,0,0.39,0.02,0.64c0.25,3.2,3.04,6.23,6.63,7.28c3.76,1.1,7.41,0.3,9.22-0.56 c2.67-1.27,4.31-3.87,4.21-6.9C212.9,47.82,211.44,46.02,208.33,44.87"></path> <path class="st0" d="M263.63,36.98c0-2.62,0.01-2.64,0.01-2.64h-5.28l0.03,23.68h5.69c0,0,0.04-9.31,0.01-11.59 c-0.06-4.41,2.26-6.88,6.57-7l0.96-0.01l-0.01-5.09C271.62,34.34,266.38,33.98,263.63,36.98"></path> <path class="st0" d="M224.29,23.33h-5.58v8.06c0,0.52-0.08,0.66-0.23,0.82c-0.13,0.13-0.33,0.21-0.64,0.21h-3.03v4.77h3.89 c0,0.14,0.11,15.02,0.21,15.83c0.33,2.62,1.77,4.23,4.26,4.79c0.42,0.09,1.03,0.13,2.26,0.14h4.22v-5.03c0,0-2.1,0-2.47,0 c-2.42-0.04-2.92-0.33-2.93-2.75c-0.02-3.27,0.03-11.23,0.06-12.99h5.43v-4.84h-5.45V23.33z"></path> <path class="st0" d="M184.06,50.05c-1.08,2.2-3.57,3.27-6.05,2.63c-1.97-0.51-4.14-2.61-4.28-6.12c-0.09-2.29,0.53-4.03,1.73-5.22 c1.76-1.74,4.24-1.46,4.47-1.44c1.74,0.2,3.24,1.29,4.06,2.93C185.09,45.02,185.12,47.9,184.06,50.05 M181.73,34.57 c-3.02-0.55-6.39,0.27-8.3,2.08V23.33h-5.63v34.6h4.94l0.31-2.44c1.92,1.76,4.32,2.75,6.94,2.7c2.94-0.06,5.35-1.15,7.22-3.14 c3.39-3.59,4.22-8.44,2.4-13.37C188.22,37.91,185.39,35.25,181.73,34.57"></path> <polygon class="st0" points="129.99,47.22 123.03,23.33 117.97,23.33 111.01,47.22 104.38,23.33 98.27,23.33 107.88,57.87 113.95,57.87 120.5,35.9 127.03,57.87 133.03,57.87 142.61,23.33 136.59,23.33 "></polygon> <path class="st0" d="M147.4,44.01c0.22-1.37,0.83-2.52,1.71-3.31c0.91-0.82,2.11-1.26,3.49-1.26h0.03c1.38,0,2.58,0.43,3.49,1.26 c0.88,0.8,1.46,1.94,1.68,3.31H147.4z M151,53.5c-2.04-0.58-3.51-2.44-3.77-4.75h16.59c0,0,0.96-6.79-2.86-11.15 c-2.06-2.35-4.88-3.47-8.31-3.47c-2.48,0-5.43,0.64-7.97,3.13c-2.18,2.14-3.26,5.17-3.26,8.95c0,3.92,1.13,7.05,3.36,9.3 c2.1,2.11,4.84,3.18,8.15,3.18c0,0,3.43,0.11,6.31-1.87c1.98-1.36,3.4-3.31,4.01-5.59h-5.53C156.52,53.29,153.64,54.26,151,53.5"></path> <path class="st0" d="M238.03,44.01c0.22-1.37,0.84-2.52,1.72-3.31c0.91-0.82,2.11-1.26,3.49-1.26h0.03c1.38,0,2.58,0.43,3.49,1.26 c0.88,0.8,1.46,1.94,1.68,3.31H238.03z M241.62,53.5c-2.04-0.58-3.51-2.44-3.77-4.75h16.59c0,0,0.96-6.79-2.86-11.15 c-2.06-2.35-4.88-3.47-8.31-3.47c-2.48,0-5.43,0.64-7.97,3.13c-2.18,2.14-3.26,5.17-3.26,8.95c0,3.92,1.13,7.05,3.36,9.3 c2.1,2.11,4.84,3.18,8.15,3.18c0,0,3.43,0.11,6.31-1.87c1.98-1.36,3.4-3.31,4.01-5.59h-5.53C247.15,53.29,244.27,54.26,241.62,53.5"></path> <path class="st0" d="M39.3,75.59c-20.02,0-36.31-16.28-36.31-36.29C2.99,19.28,19.28,3,39.3,3c20.02,0,36.3,16.28,36.3,36.3 C75.6,59.31,59.32,75.59,39.3,75.59 M39.3,0C17.63,0,0,17.63,0,39.3c0,21.67,17.63,39.3,39.3,39.3c21.67,0,39.3-17.63,39.3-39.3 C78.6,17.63,60.97,0,39.3,0"></path> <path class="st1" d="M64.48,34.83l6.76-11.7H60.35c-1.96,0-2.54,1.14-3.48,2.88l-5.09,8.82H64.48z"></path> <path class="st1" d="M38.47,46.95L26.39,26.01c-0.93-1.74-1.51-2.88-3.48-2.88H12.03l20.1,34.8L38.47,46.95z"></path> <path class="st1" d="M57.44,46.95L45.36,26.01c-0.93-1.74-1.51-2.88-3.48-2.88H31l20.1,34.8L57.44,46.95z"></path> </svg> 