<?xml version="1.0" encoding="utf-8"?>
<!-- Generator: Adobe Illustrator 28.3.0, SVG Export Plug-In . SVG Version: 6.00 Build 0)  -->
<svg version="1.1" id="Layer_1" xmlns="http://www.w3.org/2000/svg" xmlns:xlink="http://www.w3.org/1999/xlink" x="0px" y="0px"
	 viewBox="0 0 300 100" style="enable-background:new 0 0 300 100;" xml:space="preserve">
<style type="text/css">
	.st0{fill:#0071B8;}
</style>
<g>
	<polygon class="st0" points="276.64,65.09 286.67,65.09 286.67,35.08 294.83,35.08 294.83,26.58 268.4,26.58 268.4,35.08 
		276.64,35.08 	"/>
	<path class="st0" d="M184.16,56.67V26.58h-10.03V57.1c0,2.12,0.68,4.17,1.87,5.69c1.19,1.53,2.8,2.38,4.51,2.38h15.64v-8.5H184.16z
		"/>
	<path class="st0" d="M169.54,35.08v-8.5h-21.93V57.1c0,2.12,0.68,4.17,1.87,5.69c1.19,1.53,2.81,2.3,4.51,2.38h15.56v-8.5h-11.9
		v-6.63h11.22v-8.5h-11.31v-6.46C157.56,35.08,169.54,35.08,169.54,35.08z"/>
	<path class="st0" d="M259.22,56.67V26.58h-10.03V57.1c0,2.12,0.68,4.17,1.87,5.69c1.19,1.53,2.8,2.38,4.5,2.38h15.64v-8.5H259.22z"
		/>
	<path class="st0" d="M243.58,56.67V26.58h-10.03V57.1c0,2.12,0.68,4.17,1.87,5.69c1.19,1.53,2.8,2.38,4.5,2.38h3.57L243.58,56.67
		L243.58,56.67z"/>
	<path class="st0" d="M238.56,13.58c-2.89,0-5.18,2.3-5.18,5.19s2.3,5.18,5.18,5.18c2.89,0,5.19-2.3,5.19-5.18
		S241.37,13.58,238.56,13.58"/>
	<path d="M161.21,77.24c0.68-0.68,1.61-0.93,2.55-0.93c1.87,0,2.72,1.02,2.72,2.12v3.32c0,0.42,0,0.85,0.09,1.19h-1.1
		c0-0.34-0.09-0.68-0.09-1.02l0,0c-0.51,0.85-1.28,1.1-2.21,1.1c-1.19,0-2.21-0.68-2.21-1.96c0-1.61,1.61-2.21,3.57-2.21h0.94v-0.17
		c0-0.68-0.51-1.36-1.53-1.36c-0.94,0-1.36,0.43-1.87,0.76L161.21,77.24z M164.7,79.79c-1.19,0-2.55,0.17-2.55,1.27
		c0,0.77,0.51,1.02,1.36,1.02c1.36,0,1.87-1.02,1.87-1.87v-0.42C165.38,79.79,164.7,79.79,164.7,79.79z"/>
	<path d="M167.59,76.48h1.19v1.02l0,0c0.34-0.68,1.11-1.19,2.12-1.19c1.28,0,2.38,0.76,2.38,2.47v4.17h-1.19v-3.83
		c0-1.19-0.68-1.61-1.44-1.61c-1.02,0-1.79,0.68-1.79,2.12v3.32h-1.19L167.59,76.48L167.59,76.48z"/>
	<path d="M180.85,73.33h1.19l4.08,9.61h-1.53l-0.94-2.38h-4.59l-0.93,2.38h-1.53L180.85,73.33L180.85,73.33z M183.23,79.37
		l-1.79-4.42l0,0l-1.79,4.42H183.23z"/>
	<rect x="186.54" y="72.65" width="1.19" height="10.28"/>
	<path d="M189.77,73.25c0.51,0,0.94,0.43,0.94,0.93c0,0.51-0.43,0.93-0.94,0.93s-0.93-0.42-0.93-0.93
		C188.84,73.67,189.26,73.25,189.77,73.25z M189.18,76.48h1.19v6.46h-1.19V76.48z"/>
	<path d="M203.29,77.58v4.76c-0.94,0.6-2.46,0.85-3.65,0.85c-3.23,0-5.19-2.29-5.19-5.02c0-2.72,2.04-5.01,5.01-5.01
		c1.79,0,2.8,0.51,3.57,1.28l-0.93,1.02c-0.76-0.76-1.7-1.02-2.64-1.02c-2.21,0-3.65,1.7-3.65,3.82s1.61,3.83,3.74,3.83
		c0.93,0,1.79-0.17,2.38-0.51v-2.72h-2.12v-1.19L203.29,77.58L203.29,77.58z"/>
	<path d="M204.65,76.48h1.19v1.02l0,0c0.34-0.68,1.1-1.19,1.96-1.19c0.17,0,0.34,0,0.51,0.08l-0.09,1.36
		c-0.17-0.08-0.42-0.08-0.59-0.08c-1.19,0-1.87,0.68-1.87,2.04v3.23h-1.19L204.65,76.48L204.65,76.48L204.65,76.48z"/>
	<path d="M211.87,76.31c1.87,0,3.4,1.53,3.4,3.4s-1.53,3.4-3.4,3.4s-3.4-1.53-3.4-3.4S210,76.31,211.87,76.31z M211.87,81.92
		c1.27,0,2.12-0.93,2.12-2.21s-0.85-2.21-2.12-2.21c-1.28,0-2.12,0.93-2.12,2.21S210.6,81.92,211.87,81.92z"/>
	<path d="M221.9,82.94h-1.19v-1.02l0,0c-0.34,0.68-1.11,1.19-2.12,1.19c-1.28,0-2.38-0.77-2.38-2.47v-4.17h1.19v3.82
		c0,1.19,0.68,1.62,1.45,1.62c1.02,0,1.79-0.68,1.79-2.12v-3.32h1.19L221.9,82.94L221.9,82.94L221.9,82.94z"/>
	<path d="M223.09,76.48h1.19v0.93l0,0c0.51-0.68,1.36-1.11,2.21-1.11c2.04,0,3.32,1.44,3.32,3.4s-1.28,3.4-3.32,3.4
		c-0.93,0-1.79-0.43-2.21-1.11l0,0v4.76h-1.19V76.48z M224.28,79.71c0,1.28,0.85,2.21,2.12,2.21c1.27,0,2.12-0.93,2.12-2.21
		s-0.85-2.21-2.12-2.21S224.28,78.43,224.28,79.71z"/>
	<path d="M240.86,75.37c-0.51-0.68-1.45-1.11-2.3-1.11c-2.12,0-3.57,1.7-3.57,3.91c0,2.04,1.36,3.74,3.57,3.74
		c1.1,0,1.95-0.51,2.55-1.28l1.1,0.85c-0.25,0.43-1.45,1.7-3.65,1.7c-3.06,0-4.93-2.55-4.93-4.93c0-2.97,2.04-5.1,5.01-5.1
		c1.28,0,2.55,0.51,3.4,1.53L240.86,75.37L240.86,75.37z"/>
	<path d="M245.87,76.31c1.87,0,3.4,1.53,3.4,3.4s-1.53,3.4-3.4,3.4s-3.4-1.53-3.4-3.4S243.92,76.31,245.87,76.31z M245.87,81.92
		c1.27,0,2.12-0.93,2.12-2.21s-0.85-2.21-2.12-2.21c-1.28,0-2.12,0.93-2.12,2.21S244.51,81.92,245.87,81.92z"/>
	<path d="M250.12,76.48h1.1v1.02l0,0c0.09-0.34,0.94-1.19,2.04-1.19c0.94,0,1.62,0.43,2.04,1.19c0.42-0.76,1.27-1.19,2.04-1.19
		c1.95,0,2.46,1.44,2.46,2.89v3.74h-1.19v-3.57c0-1.02-0.17-1.87-1.36-1.87c-1.19,0-1.61,0.76-1.61,1.96v3.48h-1.19v-3.4
		c0-1.19-0.17-2.12-1.36-2.12c-0.85,0-1.7,0.68-1.7,2.12v3.4h-1.19L250.12,76.48L250.12,76.48z"/>
	<path d="M261.09,76.48h1.19v0.93l0,0c0.51-0.68,1.36-1.11,2.21-1.11c2.04,0,3.32,1.44,3.32,3.4s-1.27,3.4-3.32,3.4
		c-0.93,0-1.79-0.43-2.21-1.11l0,0v4.76h-1.19V76.48z M262.28,79.71c0,1.28,0.85,2.21,2.12,2.21s2.12-0.93,2.12-2.21
		s-0.85-2.21-2.12-2.21S262.28,78.43,262.28,79.71z"/>
	<path d="M268.74,77.24c0.68-0.68,1.7-0.93,2.55-0.93c1.87,0,2.72,1.02,2.72,2.12v3.32c0,0.42,0,0.85,0.08,1.19h-1.1
		c0-0.34,0-0.68,0-1.02l0,0c-0.51,0.85-1.27,1.1-2.21,1.1c-1.19,0-2.21-0.68-2.21-1.96c0-1.61,1.61-2.21,3.57-2.21h0.93v-0.17
		c0-0.68-0.51-1.36-1.53-1.36c-0.94,0-1.36,0.43-1.87,0.76L268.74,77.24L268.74,77.24z M272.14,79.79c-1.19,0-2.55,0.17-2.55,1.27
		c0,0.77,0.51,1.02,1.36,1.02c1.36,0,1.87-1.02,1.87-1.87v-0.42L272.14,79.79L272.14,79.79z"/>
	<path d="M275.11,76.48h1.19v1.02l0,0c0.34-0.68,1.1-1.19,2.12-1.19c1.27,0,2.38,0.76,2.38,2.47v4.17h-1.19v-3.83
		c0-1.19-0.68-1.61-1.45-1.61c-1.02,0-1.79,0.68-1.79,2.12v3.32h-1.19L275.11,76.48L275.11,76.48z"/>
	<path d="M281.15,76.48h1.45l1.87,5.01l0,0l1.79-5.01h1.27l-3.06,7.82c-0.43,1.1-0.85,1.87-2.21,1.87c-0.34,0-0.76-0.08-1.1-0.17
		l0.17-1.11c0.25,0.08,0.51,0.17,0.76,0.17c0.77,0,1.02-0.43,1.27-1.02l0.43-1.02L281.15,76.48L281.15,76.48z"/>
	<path class="st0" d="M145.23,26.5h-10.46l-6.97,24.31L121,26.5h-9.09L104,50.98L96.95,26.5H86.41l9.43,30.68
		c0.68,2.12,2.04,4.33,3.74,5.78c1.7,1.53,2.97,2.13,4.76,2.13h4.42l7.4-23.38l4.33,15.38c0.6,2.12,1.79,4.17,3.31,5.69
		c1.53,1.44,3.15,2.3,4.68,2.38h4.68L145.23,26.5L145.23,26.5z"/>
	<path class="st0" d="M43.15,13.41C23,11.54,5.15,26.33,3.28,46.56s13.01,37.99,33.15,39.87c20.15,1.87,38-13,39.87-33.15
		C78.17,33.13,63.29,15.28,43.15,13.41z M58.87,68.32c-1.44,0.43-3.31,0.17-5.18-0.85s-3.65-2.55-4.85-4.42L40.17,49.7v24.57
		L36,75.63c-1.62,0.51-3.15,0.34-5.1-0.6c-2.04-0.93-4-2.55-5.27-4.42L7.28,44.09l10.03-3.15L31.42,62.2l0.17-25.67l8.59-2.72
		l13.77,21.08l-0.6-25.24l10.03-3.15v40.46L58.87,68.32z"/>
	<path class="st0" d="M199.63,65.09V26.5h14.96c2.81,0,6.04,0.43,8.42,2.98c1.36,1.45,2.38,3.82,2.38,7.23c0,1.7-0.25,3.15-1.1,4.76
		c-0.85,1.53-1.7,2.38-3.15,2.97c2.04,0.26,4.08,1.19,5.27,2.3c1.53,1.53,2.64,3.99,2.64,7.05c0,3.66-1.36,6.12-2.8,7.56
		c-2.12,2.12-5.7,3.65-10.46,3.65L199.63,65.09L199.63,65.09z M209.66,41.71h1.87c1.02,0,2.81-0.08,3.82-1.19
		c0.68-0.68,0.94-1.7,0.94-2.55c0-1.02-0.34-1.95-0.94-2.63c-0.68-0.68-1.87-1.19-3.82-1.19h-1.87V41.71z M209.66,57.27h2.29
		c2.8,0,5.1-0.26,6.21-1.53c0.43-0.51,0.76-1.36,0.76-2.47c0-1.19-0.43-2.21-1.02-2.8c-1.19-1.19-3.74-1.28-6.21-1.28h-2.04v8.08
		H209.66z"/>
	<path class="st0" d="M289.99,61.69c0-0.6,0.17-1.19,0.42-1.7c0.34-0.51,0.77-0.94,1.28-1.28s1.1-0.42,1.7-0.42s1.19,0.17,1.7,0.42
		c0.51,0.26,0.93,0.77,1.27,1.28s0.42,1.1,0.42,1.7c0,0.59-0.17,1.19-0.42,1.7c-0.25,0.51-0.68,0.93-1.27,1.28
		c-0.51,0.34-1.1,0.51-1.79,0.51s-1.19-0.17-1.79-0.51c-0.51-0.34-0.94-0.77-1.27-1.28C290.07,62.88,289.99,62.28,289.99,61.69
		 M290.41,61.69c0,0.51,0.17,1.02,0.43,1.53c0.25,0.51,0.6,0.85,1.1,1.1c0.43,0.26,0.93,0.43,1.53,0.43c0.59,0,1.02-0.17,1.53-0.43
		c0.51-0.25,0.85-0.59,1.1-1.1s0.42-0.94,0.42-1.53c0-0.6-0.17-1.02-0.42-1.53c-0.26-0.42-0.6-0.85-1.1-1.1
		c-0.51-0.25-0.94-0.42-1.53-0.42c-0.6,0-1.02,0.17-1.53,0.42c-0.51,0.26-0.85,0.6-1.1,1.1C290.58,60.67,290.41,61.18,290.41,61.69
		 M294.83,60.84c0,0.26-0.08,0.42-0.17,0.68c-0.17,0.17-0.34,0.34-0.51,0.42l1.1,1.78h-0.76l-0.94-1.62h-0.6v1.62h-0.85v-4.08h1.19
		c0.51,0,0.85,0.08,1.1,0.26C294.66,60.07,294.83,60.41,294.83,60.84 M292.79,61.52h0.51c0.25,0,0.42-0.08,0.6-0.17
		c0.17-0.17,0.26-0.25,0.26-0.51c0-0.25-0.09-0.42-0.17-0.51c-0.09-0.08-0.34-0.17-0.6-0.17h-0.51v1.36
		C292.88,61.52,292.79,61.52,292.79,61.52z"/>
</g>
</svg>
