<?xml version="1.0" encoding="UTF-8"?>
<svg width="266px" height="85px" viewBox="0 0 266 85" version="1.1" xmlns="http://www.w3.org/2000/svg" xmlns:xlink="http://www.w3.org/1999/xlink">
    <title>5097F056-2D97-4321-A412-3D384E6AAF4A@1x</title>
    <defs>
        <polygon id="path-1" points="0 0 265.412804 0 265.412804 53.9582663 0 53.9582663"></polygon>
    </defs>
    <g id="Slim-Page" stroke="none" stroke-width="1" fill="none" fill-rule="evenodd">
        <g id="Wellpoint-MD--Slim-Page" transform="translate(-550.000000, -548.000000)">
            <g id="Wellpoint-Color-Logo" transform="translate(550.293598, 548.332877)">
                <g id="Group-4" transform="translate(0.000000, 30.041734)">
                    <mask id="mask-2" fill="white">
                        <use xlink:href="#path-1"></use>
                    </mask>
                    <g id="Clip-2"></g>
                    <path d="M262.328272,39.3207728 L262.328272,42.0254413 L261.838747,42.0254413 L261.838747,38.5391123 L262.404595,38.5391123 L263.661744,40.5349347 L264.911875,38.5391123 L265.412804,38.5391123 L265.412804,42.0254413 L264.923279,42.0254413 L264.923279,39.3207728 L263.628407,41.340282 L262.328272,39.3207728 Z M260.890402,39.348846 C260.732491,39.1260157 260.400877,38.9347676 260.025399,38.9347676 C259.606057,38.9347676 259.345504,39.1198747 259.345504,39.4032376 C259.345504,40.1708616 261.293076,39.8225796 261.293076,41.0621828 C261.293076,41.6771593 260.793023,42.0912376 260.014872,42.0912376 C259.361295,42.0912376 258.937567,41.8350705 258.698068,41.4973159 L259.051614,41.1657023 C259.285849,41.4709974 259.622726,41.6280313 260.020136,41.6280313 C260.498256,41.6280313 260.770214,41.4209922 260.770214,41.0946423 C260.770214,40.2463081 258.822642,40.6209086 258.822642,39.419906 C258.822642,38.8593211 259.318308,38.4733159 260.042068,38.4733159 C260.585984,38.4733159 261.026381,38.7119373 261.238684,39.0119687 L260.890402,39.348846 L260.890402,39.348846 Z" id="Fill-1" fill="#152E64" mask="url(#mask-2)"></path>
                    <path d="M108.116554,42.0254413 L115.527854,42.0254413 L115.527854,0 L108.116554,0 L108.116554,42.0254413 Z M92.6263394,42.0254413 L100.03764,42.0254413 L100.03764,0 L92.6263394,0 L92.6263394,42.0254413 Z M58.571906,3.08453264 L46.2390392,42.0254413 L36.7617337,42.0254413 L29.1074256,12.5013055 L21.4531175,42.0254413 L12.2793525,42.0254413 L-0.0526370757,3.08453264 L8.33069452,3.08453264 L16.8965013,33.2166266 L24.672752,3.08453264 L34.2105901,3.08453264 L42.0473734,33.2166266 L50.6131802,3.08453264 L58.571906,3.08453264 Z M191.341034,42.0254413 L198.829535,42.0254413 L198.829535,12.582893 L191.341034,12.582893 L191.341034,42.0254413 Z M233.956888,12.5811384 L239.111812,12.5811384 L239.111812,4.9715718 L246.723133,4.9715718 L246.723133,12.5811384 L254.640627,12.5811384 L254.640627,19.2107781 L246.723133,19.2107781 L246.723133,31.6699739 C246.723133,34.4316658 247.889044,35.7818068 250.098924,35.7818068 C251.449065,35.7818068 252.799206,35.1685849 253.536125,34.308846 L256.911039,39.894517 C255.253849,41.4902977 252.492157,42.8404386 248.870726,42.8404386 C242.917473,42.8404386 239.111812,39.096188 239.111812,31.9147363 L239.111812,19.2107781 L233.956888,19.2107781 L233.956888,12.5811384 Z M211.981786,42.0254413 L204.493285,42.0254413 L204.493285,12.582893 L211.981786,12.582893 L211.981786,15.4674047 C213.823206,13.073295 216.646308,11.723154 220.267739,11.723154 C227.080731,11.723154 231.438204,16.5104961 231.438204,24.1832272 L231.438204,42.0254413 L223.95058,42.0254413 L223.95058,25.2877285 C223.95058,21.2978381 221.61788,18.7817859 217.997326,18.7817859 C214.253076,18.7817859 211.981786,21.2978381 211.981786,25.2877285 L211.981786,42.0254413 Z M179.866151,27.2510914 C179.866151,22.5251593 176.61318,18.7809086 172.132888,18.7809086 C167.590308,18.7809086 164.276804,22.5251593 164.276804,27.2502141 C164.276804,31.9761462 167.590308,35.7818068 172.132888,35.7818068 C176.61318,35.7818068 179.866151,31.9770235 179.866151,27.2510914 Z M156.788303,27.311624 C156.78918,18.7194987 163.539885,11.7222768 172.071478,11.7222768 C180.602193,11.7222768 187.415185,18.7194987 187.415185,27.3125013 C187.415185,35.8432167 180.602193,42.8404386 172.071478,42.8404386 C163.539885,42.8404386 156.788303,35.8432167 156.788303,27.311624 Z M130.385546,27.311624 C130.385546,32.0375561 133.699927,35.7818068 138.180219,35.7818068 C142.721922,35.7818068 145.974893,32.0384334 145.974893,27.3125013 C145.97577,22.5865692 142.721922,18.7809086 138.180219,18.7809086 C133.699927,18.7809086 130.385546,22.5865692 130.385546,27.311624 Z M130.385546,12.582893 L130.385546,15.773577 C132.534016,13.2566475 135.541347,11.7222768 139.347008,11.7222768 C147.141681,11.7222768 153.463394,18.1053995 153.463394,27.2510914 C153.463394,36.1502663 147.509264,42.8404386 139.347008,42.8404386 C135.479937,42.8404386 132.472606,41.4288877 130.385546,39.0347781 L130.385546,54.0109034 L122.897922,54.0109034 L122.897922,12.582893 L130.385546,12.582893 Z M64.9611697,24.4271123 L79.1389661,24.4271123 C78.2801044,20.2538695 75.6403551,18.1053995 72.1417441,18.1053995 C68.3983708,18.1053995 65.8200313,20.6837389 64.9611697,24.4271123 Z M57.1664961,27.311624 C57.1664961,18.7194987 63.5496188,11.7222768 72.0198016,11.7222768 C80.4285744,11.7222768 86.8116971,18.2282193 86.8108198,26.6984021 C86.8108198,27.6195509 86.7494099,28.6626423 86.6265901,29.1530444 L64.8383499,29.1530444 C65.5743916,33.2657546 68.7054204,36.2116762 73.2471227,36.2116762 C76.1930444,36.2116762 78.7090966,34.9229452 80.4276971,33.1429347 L84.2947676,38.2373264 C82.0848877,40.8147885 77.9116449,42.8404386 72.9400731,42.8404386 C63.7952585,42.8404386 57.1664961,35.8432167 57.1664961,27.311624 L57.1664961,27.311624 Z" id="Fill-3" fill="#152E64" mask="url(#mask-2)"></path>
                </g>
                <path d="M189.775081,14.4673003 C190.926956,11.2888982 192.730653,8.36490862 195.085285,5.88745692 C197.439916,8.36490862 199.243614,11.2888982 200.395488,14.4673003 C200.42093,14.5392376 200.447248,14.6120522 200.472689,14.6839896 C201.715802,13.961107 203.016815,13.3277076 204.367833,12.7916867 C204.342392,12.7223812 204.316073,12.6521984 204.289755,12.582893 C202.658005,8.28770757 200.006851,4.40484595 196.522277,1.28434465 L195.085285,0 L193.64917,1.28434465 C190.161963,4.40484595 187.509932,8.28946214 185.87906,12.5864021 C185.852742,12.6548303 185.8273,12.7232585 185.801859,12.7916867 C187.152877,13.3268303 188.454768,13.961107 189.69788,14.6839896 C189.723321,14.6120522 189.748762,14.5392376 189.775081,14.4673003" id="Fill-5" fill="#3BB7DE"></path>
                <path d="M217.75695,15.1743916 C217.75695,13.692658 217.61483,12.2433838 217.342872,10.8406057 C216.598057,10.7835822 215.84447,10.7546319 215.084742,10.7546319 C207.338319,10.7546319 200.298987,13.782141 195.084407,18.7177441 C195.084407,18.7177441 195.084407,18.7177441 195.084407,18.7186214 C196.130131,19.7090757 197.103916,20.7758538 197.993483,21.9110601 C197.99436,21.9101828 197.99436,21.9101828 197.99436,21.9101828 C202.074611,18.0334621 207.47342,15.5314465 213.45036,15.1366684 C213.45036,22.4321671 209.197285,28.7530026 203.035238,31.7278747 C203.03436,31.7278747 203.03436,31.7278747 203.033483,31.7278747 C203.440543,33.1288982 203.745838,34.5729086 203.938841,36.0520104 C212.060742,32.6025274 217.75695,24.5543185 217.75695,15.1743916" id="Fill-6" fill="#1B5596"></path>
                <path d="M176.720209,15.1366684 C187.354653,15.8384961 196.159958,23.214705 198.962883,33.1288982 C197.712752,33.3973473 196.416125,33.5403446 195.085285,33.5403446 C184.942997,33.5403446 176.720209,25.2798329 176.720209,15.1366684 Z M175.085828,10.7546319 C174.326099,10.7546319 173.572512,10.7835822 172.827697,10.8406057 C172.555739,12.2433838 172.413619,13.692658 172.413619,15.1743916 C172.413619,27.6958747 182.563802,37.8469347 195.085285,37.8469347 C198.226841,37.8469347 201.219258,37.206517 203.938841,36.0520104 C202.075488,21.7777128 189.868073,10.7546319 175.085828,10.7546319 L175.085828,10.7546319 Z" id="Fill-7" fill="#DA2D5B"></path>
            </g>
        </g>
    </g>
</svg>