<?xml version="1.0" encoding="UTF-8"?>
<svg xmlns="http://www.w3.org/2000/svg" width="203" height="53" viewBox="0 0 203 53" fill="none">
  <path d="M34.1464 32.6152L27.7521 7.81034L21.1557 7.13131L13.8542 36.5297L6.40244 5.57306L0 4.9292L10.556 52.0013L16.9666 50.7893L24.3965 21.4856L31.4985 49.0201L38.0348 48.3383L44.5247 9.57689L38.2644 8.90598L34.1464 32.6152Z" fill="#F4B243"></path>
  <path d="M55.4373 40.195L55.3853 31.438L72.464 31.2676L72.4558 25.1157L55.3498 25.3295L55.2979 16.448L72.3656 17.3678L72.2946 11.2565L49.0977 9.59277L49.1414 46.658L72.6771 45.0943L72.6225 38.7423L55.4373 40.195Z" fill="#F4B243"></path>
  <path d="M148.376 39.5541L148.239 30.9648L165.739 30.9891L165.758 24.4098L148.141 24.6127L148.002 16.3454L165.733 14.4814L165.711 7.62891L141.539 10.4235L141.946 45.4624L165.772 47.9594L165.744 41.2557L148.376 39.5541Z" fill="#F4B243"></path>
  <path d="M191.478 32.669C191.656 32.6311 191.831 32.5851 191.995 32.531C192.219 32.4553 192.435 32.3687 192.64 32.2686C192.946 32.1198 193.238 31.944 193.503 31.7465C193.768 31.5517 194.017 31.3299 194.249 31.0837C194.482 30.8321 194.687 30.5643 194.859 30.2911C195.036 30.0043 195.187 29.704 195.307 29.3956C195.389 29.1846 195.457 28.9736 195.512 28.7545C195.566 28.5272 195.605 28.3162 195.629 28.1106C195.643 27.9943 195.657 27.8779 195.659 27.7751C195.665 27.6696 195.668 27.556 195.668 27.437L195.476 8.89761L195.465 8.32949V8.29703C195.449 8.08602 195.416 7.86959 195.364 7.65317C195.31 7.41781 195.238 7.19868 195.154 6.98496C195.031 6.68197 194.875 6.38439 194.684 6.09763C194.492 5.81628 194.279 5.56198 194.053 5.34556C193.815 5.11561 193.55 4.90459 193.255 4.71793C192.97 4.54209 192.667 4.3987 192.353 4.28508C192.164 4.22016 191.97 4.16605 191.749 4.11735C191.536 4.07136 191.306 4.0389 191.066 4.01726C190.82 3.99562 190.579 3.99021 190.342 4.02537L171.129 6.62787L171.61 48.9846L178.053 49.7665L177.796 33.1749L184.702 33.1587L189.011 51.0921L196.006 51.9145L191.484 32.6663L191.478 32.669ZM188.943 24.8886C188.943 24.9238 188.943 24.9562 188.943 24.9914C188.943 25.0266 188.937 25.059 188.932 25.0942C188.921 25.1754 188.91 25.243 188.893 25.2998C188.874 25.3701 188.852 25.4378 188.825 25.5054C188.79 25.5974 188.74 25.6894 188.683 25.7759C188.62 25.8706 188.555 25.9545 188.489 26.0221C188.415 26.0979 188.333 26.1655 188.238 26.2304C188.161 26.2845 188.074 26.3332 187.97 26.3792C187.902 26.409 187.83 26.4333 187.776 26.4522C187.705 26.4712 187.642 26.4847 187.582 26.4955L187.552 26.5009C187.53 26.5064 187.508 26.5091 187.483 26.5118C187.459 26.5118 187.437 26.5145 187.412 26.5172L177.671 26.8797L177.449 12.639L186.393 11.2701C186.434 11.2647 186.475 11.2593 186.522 11.2566C186.571 11.2539 186.62 11.2539 186.68 11.2566C186.784 11.2566 186.896 11.2674 186.989 11.281C187.09 11.2972 187.191 11.3215 187.276 11.3486C187.437 11.4 187.574 11.4595 187.699 11.5299C187.836 11.6056 187.959 11.6949 188.074 11.7977C188.191 11.9005 188.29 12.006 188.374 12.125C188.462 12.2468 188.541 12.382 188.607 12.5227C188.648 12.6147 188.683 12.7121 188.713 12.8068C188.738 12.9014 188.76 13.0015 188.77 13.08C188.776 13.126 188.779 13.1693 188.781 13.2288C188.784 13.2883 188.787 13.3505 188.787 13.4236L188.948 24.8967L188.943 24.8886Z" fill="#F4B243"></path>
  <path d="M100.611 32.6581C100.857 32.5769 101.095 32.4687 101.302 32.3443C101.513 32.2252 101.718 32.0765 101.923 31.8979C102.114 31.7248 102.28 31.5354 102.423 31.3406C102.57 31.1404 102.699 30.9186 102.802 30.6859C102.876 30.5182 102.936 30.3613 102.977 30.2098C103.021 30.0529 103.057 29.8879 103.084 29.7093V29.6796C103.098 29.6119 103.103 29.5443 103.108 29.474C103.117 29.3901 103.119 29.3062 103.119 29.2224L103.13 14.8519C103.13 14.7734 103.128 14.6922 103.119 14.6354C103.111 14.5435 103.098 14.4461 103.084 14.3784C103.057 14.2188 103.021 14.0673 102.98 13.9348C102.942 13.8022 102.89 13.6642 102.824 13.5181C102.731 13.3125 102.617 13.1151 102.488 12.9365C102.354 12.7498 102.207 12.5794 102.032 12.4171C101.862 12.2602 101.682 12.1222 101.496 12.0059C101.305 11.8869 101.097 11.7868 100.895 11.7083C100.748 11.6488 100.589 11.6001 100.444 11.5676C100.299 11.5325 100.152 11.5081 99.9988 11.4919C99.9496 11.4865 99.8977 11.4838 99.8458 11.4811L79.0781 11.2998L79.3241 44.7832L86.0052 44.5181L85.8795 33.1423L93.3613 33.072L97.2252 44.5046L104.338 44.372L100.13 32.7934C100.286 32.7636 100.441 32.723 100.614 32.6662L100.611 32.6581ZM96.5721 25.1563C96.5721 25.1752 96.5721 25.1969 96.5721 25.2158V25.2267C96.5694 25.2591 96.5639 25.2916 96.553 25.343C96.5393 25.4187 96.5229 25.4891 96.4956 25.5702C96.4738 25.6406 96.4519 25.7028 96.4273 25.7569C96.3836 25.8543 96.3289 25.9436 96.2551 26.0436C96.1978 26.1248 96.1294 26.2006 96.0447 26.279C95.9655 26.3521 95.8808 26.4143 95.7961 26.4684C95.695 26.5279 95.5884 26.582 95.4928 26.6199C95.4272 26.6442 95.3507 26.6686 95.2742 26.6875C95.2168 26.701 95.1512 26.7092 95.0911 26.7146L85.7866 26.8444L85.6882 17.7357L94.9053 17.8223H94.938C94.9599 17.8223 94.9818 17.8223 94.9982 17.825C95.0364 17.8277 95.0774 17.8331 95.1157 17.8385C95.1867 17.852 95.2605 17.8683 95.3452 17.8926C95.3998 17.9061 95.4627 17.9332 95.5255 17.9602C95.6185 18.0008 95.7059 18.0468 95.7988 18.1117C95.8808 18.1685 95.9573 18.2335 96.0365 18.3146C96.1049 18.385 96.1704 18.4634 96.2278 18.55C96.2825 18.6339 96.3317 18.7258 96.3726 18.8313C96.4027 18.9017 96.4218 18.9612 96.4382 19.0261C96.4574 19.0938 96.4683 19.156 96.4765 19.2317C96.4792 19.2561 96.482 19.2777 96.4847 19.3021V19.3129C96.4874 19.348 96.4901 19.3832 96.4901 19.4157L96.5721 25.1536V25.1563Z" fill="#F4B243"></path>
  <path d="M34.033 32.0345L27.6607 7.06033L21.0846 6.37722L13.81 35.97L6.38247 4.80709L0 4.15967L10.5219 51.549L16.9095 50.3255L24.3166 20.8295L31.3924 48.5464L37.9074 47.8633L44.3765 8.83946L38.1368 8.16145L34.033 32.0345Z" fill="#FDB913"></path>
  <path d="M55.2549 39.6662L55.2039 30.847L72.2255 30.6787L72.2153 24.4849L55.1682 24.699L55.1121 15.7574L72.1236 16.6801L72.0522 10.5322L48.9336 8.85498L48.9795 46.171L72.4345 44.5958L72.3785 38.2031L55.2549 39.6662Z" fill="#FDB913"></path>
  <path d="M127.675 10.3845L127.992 31.413L117.684 10.9606L110.17 11.4245L109.762 43.8873L116.593 43.9842L116.343 21.6507L127.227 44.1983L134.644 44.494L134.19 9.99707L127.675 10.3845Z" fill="#FDB913"></path>
  <path d="M147.877 39.0187L147.745 30.3677L165.184 30.3983L165.199 23.7711L147.643 23.975L147.505 15.6503L165.179 13.7743L165.154 6.87695L141.066 9.69095L141.469 44.9678L165.215 47.476L165.189 40.7316L147.877 39.0187Z" fill="#FDB913"></path>
  <path d="M190.836 32.0859C193.125 31.6118 194.909 29.486 195.001 27.1614C195.006 27.0543 195.011 26.9422 195.011 26.8198L194.818 8.15672L194.807 7.58577V7.55518C194.649 5.28665 192.692 3.37497 190.418 3.24752C190.173 3.22713 189.934 3.22204 189.694 3.25262L170.547 5.8729L171.026 48.5161L177.449 49.3063L177.194 32.6059L184.076 32.5906L188.369 50.6419L195.343 51.4729L190.836 32.0961V32.0859ZM188.308 24.2505C188.313 24.7858 188.043 25.3058 187.604 25.6014C187.487 25.6881 187.288 25.7799 187.145 25.8258C187.074 25.8461 187.013 25.8614 186.952 25.8665H186.921C186.921 25.8665 186.875 25.8767 186.855 25.8818C186.829 25.8818 186.809 25.8818 186.783 25.8869L177.072 26.254L176.853 11.9189L185.769 10.5425C185.952 10.517 186.182 10.5272 186.365 10.5527C186.467 10.568 186.564 10.5935 186.651 10.619C187.344 10.8331 187.879 11.3938 188.078 12.082C188.104 12.1789 188.124 12.2809 188.134 12.3573C188.134 12.4032 188.145 12.444 188.145 12.5103C188.145 12.5714 188.15 12.6326 188.15 12.704L188.308 24.2556V24.2505Z" fill="#FDB913"></path>
  <path d="M100.278 32.076C100.523 31.9945 100.763 31.8874 100.966 31.76C101.986 31.1788 102.695 30.042 102.766 28.8644C102.776 28.7829 102.776 28.6962 102.776 28.6095L102.786 14.1419C102.786 14.0655 102.786 13.9839 102.776 13.9227C102.766 13.831 102.756 13.7341 102.74 13.6678C102.557 12.4698 101.69 11.4044 100.559 10.9813C100.411 10.9201 100.253 10.8742 100.11 10.8385C99.9214 10.7927 99.7124 10.7621 99.5135 10.7519L78.8164 10.5684L79.0611 44.2751L85.7188 44.01L85.5965 32.5552L93.0546 32.4839L96.9035 43.9947L103.989 43.8622L99.7939 32.2035C99.9469 32.1729 100.105 32.1321 100.278 32.076ZM96.256 24.5262C96.256 24.5976 96.2509 24.6332 96.2356 24.7148C96.2153 24.8473 96.1643 25.0105 96.1133 25.1328C96.0674 25.2297 96.0164 25.3214 95.9451 25.4234C95.8329 25.5865 95.6596 25.7446 95.4863 25.8516C95.262 25.9893 95.0428 26.0759 94.7828 26.1014L85.5098 26.2289L85.413 17.0579L94.5992 17.1445C94.6706 17.1445 94.7369 17.1547 94.8083 17.1649C94.8796 17.1802 94.951 17.1955 95.0377 17.221C95.2925 17.2975 95.5321 17.4402 95.7259 17.6441C95.9655 17.8837 96.1235 18.2202 96.1643 18.5668C96.1643 18.5923 96.1643 18.6127 96.1694 18.6382V18.6484C96.1694 18.6841 96.1694 18.7198 96.1694 18.7555L96.2509 24.5313L96.256 24.5262Z" fill="#FDB913"></path>
  <path d="M202.997 3.28809C202.997 5.15389 201.544 6.61696 199.678 6.61696C197.813 6.61696 196.375 5.15389 196.375 3.30848C196.375 1.46307 197.813 0 199.694 0C201.575 0 202.997 1.42739 202.997 3.29319V3.28809ZM202.36 3.28809C202.36 1.75875 201.243 0.60664 199.694 0.60664C198.144 0.60664 197.022 1.78933 197.022 3.30848C197.022 4.82763 198.149 6.01032 199.678 6.01032C201.208 6.01032 202.36 4.81744 202.36 3.29319V3.28809ZM200.739 3.90493L201.534 5.12331H200.56L199.877 4.07315H199.23V5.12331H198.256V1.48346H199.842C200.836 1.48346 201.427 1.98815 201.427 2.77831C201.427 3.31358 201.182 3.69592 200.744 3.90493H200.739ZM199.775 3.34417C200.214 3.34417 200.469 3.14025 200.469 2.78341C200.469 2.42656 200.214 2.21245 199.775 2.21245H199.22V3.34926H199.775V3.34417Z" fill="#FDB913"></path>
</svg>
