<svg id="Layer_1" data-name="Layer 1" xmlns="http://www.w3.org/2000/svg" width="210" height="30"><defs><style>.cls-1{fill:#373a36;fill-rule:evenodd}</style></defs><path id="Fill-4" class="cls-1" d="M188.68 22.62V11.38h1.61c3.91 0 5.7 2.33 5.7 5.62s-1.79 5.62-5.7 5.62zm-3.62 3.19h5.41c5.44 0 9.27-3.6 9.27-8.81s-3.86-8.8-9.27-8.8h-5.41zm-17.64 0H179v-3.19h-8V8.2h-3.62zm-19.53 0h12v-3.19h-8.4v-4.45h7.07v-3.11h-7.07v-3.68h8V8.2h-11.6zm-12 0h3.62V8.2h-3.62zm-18.62 0h3.62v-7.28h7V15.3h-7v-3.92h7.72V8.2h-11.36zm-14.43 0h3.62V11.38h5V8.2H97.79v3.18h5zM87.46 26c3.44 0 6-1.78 6-5.05 0-3-1.74-4.37-4.82-5.7l-.91-.38c-1.55-.68-2.22-1.12-2.22-2.21a1.57 1.57 0 011.73-1.55 2.46 2.46 0 012.33 1.55l2.83-1.81A5.36 5.36 0 0087.25 8c-3.24 0-5.31 2.07-5.31 4.79 0 3 1.74 4.35 4.35 5.47l.91.38c1.66.73 2.64 1.17 2.64 2.41 0 1-1 1.79-2.46 1.79a3.93 3.93 0 01-3.57-2.2l-3 1.71A7 7 0 0087.46 26zm-23.57-.23h12v-3.15h-8.4v-4.45h7.08v-3.11h-7.06v-3.68h8V8.2H63.89zM41.2 26h.36l4.12-8.5a28 28 0 001-2.62 27.33 27.33 0 001 2.62l4 8.5H52l6.4-17.8h-3.53l-2.53 7.07c-.44 1.22-.94 3.18-.94 3.18a21.93 21.93 0 00-1.08-3.18L46.87 8h-.36l-3.39 7.23A22.5 22.5 0 0042 18.45s-.49-2-.93-3.18L38.53 8.2H34.7z"/><path id="Fill-6" class="cls-1" d="M14.41 21.92a6.77 6.77 0 10-6.77-6.77 6.77 6.77 0 006.77 6.77"/><path id="Fill-9" class="cls-1" d="M18.63 25.34h6v-6zm-14.41-6v6h6zM10.19 5h-6v6zm14.41 6V5h-6z"/><g style="isolation:isolate"><path d="M201.86 9.8a3.37 3.37 0 01.41-1.65A3.06 3.06 0 01205 6.51a3.09 3.09 0 012.7 1.64 3.48 3.48 0 01.41 1.65 3.52 3.52 0 01-.39 1.62 3.13 3.13 0 01-1.13 1.21 2.87 2.87 0 01-1.59.46 3 3 0 01-1.6-.45 3.17 3.17 0 01-1.12-1.21 3.42 3.42 0 01-.42-1.63zm.5 0a2.91 2.91 0 00.35 1.4 2.67 2.67 0 001 1 2.51 2.51 0 001.31.36 2.43 2.43 0 001.31-.37 2.61 2.61 0 001-1 2.91 2.91 0 00.35-1.4 2.83 2.83 0 00-.35-1.38 2.61 2.61 0 00-1-1A2.43 2.43 0 00205 7a2.57 2.57 0 00-2.27 1.37 2.86 2.86 0 00-.37 1.42zm2 .34v1.48h-.62V7.88h1.21a1.7 1.7 0 011.05.29 1 1 0 01.37.84.89.89 0 01-.56.82.9.9 0 01.54.9V11a1.43 1.43 0 00.07.54v.07h-.64a1.75 1.75 0 01-.06-.56 4.65 4.65 0 000-.48c-.05-.29-.24-.43-.58-.44zm0-.57h.64a.81.81 0 00.51-.15.47.47 0 00.19-.38.55.55 0 00-.17-.45 1 1 0 00-.61-.14h-.61z" style="fill:#373a36"/></g><path id="Fill-10" d="M10.19 5h8.44L14.41.74zM24.6 19.38l4.22-4.22-4.22-4.23zM0 15.16l4.22 4.22v-8.45zm10.19 10.19l4.22 4.22 4.22-4.22z" style="fill:#eb3300;fill-rule:evenodd"/></svg>