<?xml version="1.0" encoding="utf-8"?>
<!-- Generator: Adobe Illustrator 27.5.0, SVG Export Plug-In . SVG Version: 6.00 Build 0)  -->
<svg version="1.1" id="Layer_1" xmlns="http://www.w3.org/2000/svg" xmlns:xlink="http://www.w3.org/1999/xlink" x="0px" y="0px"
	 viewBox="0 0 53 48" style="enable-background:new 0 0 53 48;" xml:space="preserve">
<style type="text/css">
	.st0{fill:#173FC2;}
</style>
<g>
	<path class="st0" d="M25.9,10.4L21.6,33c-0.8,4.1-4.8,7.5-8.8,7.5H7.2c-4.3,0-7.1-3.6-6.4-7.7l4.4-22.4c0.1-0.5,0.6-0.9,1.1-0.9
		h3.6c0.5,0,0.8,0.4,0.7,0.9L6.1,32.9c-0.3,1.4,0.1,2.6,1.5,2.6h8.1l4.9-25.1c0.1-0.5,0.6-0.9,1-0.9h3.6
		C25.6,9.5,25.9,9.9,25.9,10.4"/>
	<path class="st0" d="M46.9,17.2l-0.6,2.6c-0.3,1.4-2,2.6-3.5,2.6h-6.2c-0.5,0-0.8-0.4-0.7-0.9l1.3-6c0.1-0.5,0.6-0.9,1.1-0.9h6.9
		C46.6,14.6,47.2,15.8,46.9,17.2 M45.8,9.5H33.9c-0.5,0-1,0.4-1,0.9L30.5,22l-1,5.2l-2.4,12.5c-0.1,0.5,0.2,0.9,0.7,0.9h3.6
		c0.5,0,1-0.4,1.1-0.9l2.3-12.2h8c4.3,0,8.1-3.5,8.9-7.7l0.5-2.4C53.1,13,50.1,9.5,45.8,9.5"/>
</g>
</svg>
