<svg xmlns="http://www.w3.org/2000/svg" data-name="Layer 1" viewBox="0 0 155 50"><defs><linearGradient id="a" x2="155" y1="765" y2="765" gradientTransform="translate(0 -740)" gradientUnits="userSpaceOnUse"><stop offset="0" stop-color="#e50000"/><stop offset=".09" stop-color="#ff8d00"/><stop offset=".19" stop-color="#fe0"/><stop offset=".28" stop-color="#028121"/><stop offset=".37" stop-color="#004cff"/><stop offset=".49" stop-color="#760088"/><stop offset=".57" stop-color="#ffafc7"/><stop offset=".67" stop-color="#fff"/><stop offset=".75" stop-color="#73d7ee"/><stop offset=".76" stop-color="#72cde1"/><stop offset=".81" stop-color="#66644f"/><stop offset=".84" stop-color="#613915"/><stop offset=".91" stop-color="#a3a3a3"/><stop offset="1"/></linearGradient></defs><path d="M155 9.83 139.8 49.1H127l-6.4-21.93-6.45 21.93h-12.79L90.12 19.81h-7V33c0 6.19 2.5 7.21 5.92 7.21a12.78 12.78 0 0 0 2.69-.34l3.5 9.13a34.9 34.9 0 0 1-8.33 1c-11.72 0-16.72-4.8-16.72-16V19.81h-5.34L53.51 49.1h-12.8l-6.39-21.93-6.47 21.93H15.06L0 9.83h14.51l7.57 23.73L29.3 9.83h10l7.29 23.73 7.53-23.73h16.06V2.77L83.12 0v9.83h17.69l7.56 23.73 7.22-23.73h10l7.29 23.73 7.5-23.73Z" style="fill:url(#a)"/></svg>