<?xml version="1.0" encoding="utf-8"?>
<!-- Generator: Adobe Illustrator 27.3.1, SVG Export Plug-In . SVG Version: 6.00 Build 0)  -->
<svg version="1.1" xmlns="http://www.w3.org/2000/svg" xmlns:xlink="http://www.w3.org/1999/xlink" x="0px" y="0px"
	 viewBox="0 0 1258.6 342.5" style="enable-background:new 0 0 1258.6 342.5;" xml:space="preserve">
<style type="text/css">
	.st0{fill:none;}
	.st1{fill:#FFFFFF;}
</style>
<g id="Container">
	<rect class="st0" width="1258.6" height="342.5"/>
</g>
<g id="Workmark">
	<g>
		<path class="st1" d="M222,208.5l-1.5,1.5H213l-1.5-1.5l-24-88.5H186l-24,88.5l-1.5,1.5H153l-1.5-1.5l-27-97.5v-4.5l1.5-1.5h4.5
			l1.5,1.5l24,87h1.5l24-87l1.5-1.5h7.5l1.5,1.5l24,87h1.5l24-87l1.5-1.5h4.5l1.5,1.5v4.5L222,208.5z"/>
		<path class="st1" d="M266.1,157.5c0-37.5,22.5-54,48-54c25.5,0,48,16.5,48,54c0,37.5-22.5,54-48,54
			C288.6,211.5,266.1,195,266.1,157.5z M275.1,157.5c0,31.5,16.5,46.5,39,46.5c22.5,0,39-15,39-46.5c0-31.5-16.5-46.5-39-46.5
			C291.6,111,275.1,126,275.1,157.5z"/>
		<path class="st1" d="M470.2,210h-7.5l-3-1.5l-60-88.5h-1.5v88.5l-1.5,1.5h-6l-1.5-1.5v-102l1.5-1.5h7.5l3,1.5l60,88.5h1.5v-88.5
			l1.5-1.5h6l1.5,1.5v102L470.2,210z"/>
		<path class="st1" d="M498.7,157.5c0-36,22.5-54,49.5-54c25.5,0,37.5,15,40.5,31.5l-1.5,1.5h-6l-1.5-1.5c-3-13.5-12-24-31.5-24
			c-25.5,0-40.5,19.5-40.5,46.5s15,46.5,40.5,46.5c27,0,31.5-18,31.5-37.5l-1.5-1.5h-34.5l-1.5-1.5V159l1.5-1.5h43.5l1.5,1.5v49.5
			l-1.5,1.5h-3l-1.5-1.5l-1.5-12h-1.5c-6,9-16.5,15-31.5,15C521.2,211.5,498.7,193.5,498.7,157.5z"/>
		<path class="st1" d="M650.7,210h-28.5l-1.5-1.5v-102l1.5-1.5h28.5c37.5,0,49.5,19.5,49.5,52.5C700.2,190.5,688.2,210,650.7,210z
			 M650.7,112.5h-19.5l-1.5,1.5v87l1.5,1.5h19.5c30,0,40.5-15,40.5-45C691.2,129,682.2,112.5,650.7,112.5z"/>
		<path class="st1" d="M723,157.5c0-37.5,22.5-54,48-54s48,16.5,48,54c0,37.5-22.5,54-48,54S723,195,723,157.5z M732,157.5
			c0,31.5,16.5,46.5,39,46.5s39-15,39-46.5c0-31.5-16.5-46.5-39-46.5S732,126,732,157.5z"/>
		<path class="st1" d="M840.3,157.5c0-37.5,22.5-54,48-54s48,16.5,48,54c0,37.5-22.5,54-48,54S840.3,195,840.3,157.5z M849.3,157.5
			c0,31.5,16.5,46.5,39,46.5s39-15,39-46.5c0-31.5-16.5-46.5-39-46.5S849.3,126,849.3,157.5z"/>
		<path class="st1" d="M992.4,210h-28.5l-1.5-1.5v-102l1.5-1.5h28.5c37.5,0,49.5,19.5,49.5,52.5C1041.9,190.5,1029.9,210,992.4,210z
			 M992.4,112.5h-19.5l-1.5,1.5v87l1.5,1.5h19.5c30,0,40.5-15,40.5-45C1032.9,129,1023.9,112.5,992.4,112.5z"/>
		<path class="st1" d="M1101.1,166.5v42l-1.5,1.5h-6l-1.5-1.5v-42l-33-55.5v-4.5l1.5-1.5h3l3,1.5l28.5,49.5h3l28.5-49.5l3-1.5h3
			l1.5,1.5v4.5L1101.1,166.5z"/>
	</g>
</g>
<g id="An_Infosys_company">
	<g>
		<path class="st1" d="M750.1,262.9l-3,9.1h-3.9l9.8-29h4.5l9.9,29h-4l-3.1-9.1H750.1z M759.6,260l-2.8-8.3
			c-0.6-1.9-1.1-3.6-1.5-5.3h-0.1c-0.4,1.7-0.9,3.5-1.5,5.2l-2.8,8.4H759.6z"/>
		<path class="st1" d="M771.4,256.9c0-2.2,0-3.9-0.2-5.6h3.4l0.2,3.4h0.1c1-2,3.4-3.9,6.9-3.9c2.9,0,7.4,1.7,7.4,8.9v12.4h-3.8v-12
			c0-3.4-1.2-6.1-4.8-6.1c-2.5,0-4.4,1.8-5.1,3.9c-0.2,0.5-0.3,1.1-0.3,1.8v12.5h-3.8V256.9z"/>
		<path class="st1" d="M808.3,243.1v29h-3.7v-29H808.3z"/>
		<path class="st1" d="M815.1,256.9c0-2.2,0-3.9-0.2-5.6h3.4l0.2,3.4h0.1c1-2,3.4-3.9,6.9-3.9c2.9,0,7.4,1.7,7.4,8.9v12.4h-3.8v-12
			c0-3.4-1.2-6.1-4.8-6.1c-2.5,0-4.4,1.8-5.1,3.9c-0.2,0.5-0.3,1.1-0.3,1.8v12.5h-3.8V256.9z"/>
		<path class="st1" d="M839.4,272.1v-17.9h-2.9v-2.9h2.9v-1c0-2.9,0.6-5.6,2.4-7.3c1.4-1.4,3.3-1.9,5.1-1.9c1.3,0,2.5,0.3,3.2,0.6
			l-0.5,2.9c-0.6-0.3-1.3-0.5-2.4-0.5c-3.2,0-4,2.8-4,6v1.1h5v2.9h-5v17.9H839.4z"/>
		<path class="st1" d="M869.8,261.5c0,7.7-5.3,11.1-10.4,11.1c-5.6,0-10-4.1-10-10.7c0-7,4.6-11.1,10.3-11.1
			C865.8,250.8,869.8,255.1,869.8,261.5z M853.3,261.7c0,4.6,2.6,8,6.3,8c3.6,0,6.3-3.4,6.3-8.1c0-3.5-1.8-8-6.2-8
			C855.2,253.6,853.3,257.7,853.3,261.7z"/>
		<path class="st1" d="M874.1,268.2c1.1,0.7,3.1,1.5,5,1.5c2.8,0,4-1.4,4-3.1c0-1.8-1.1-2.8-3.9-3.8c-3.7-1.3-5.5-3.4-5.5-5.9
			c0-3.4,2.7-6.1,7.2-6.1c2.1,0,4,0.6,5.1,1.3l-0.9,2.8c-0.8-0.5-2.3-1.2-4.3-1.2c-2.2,0-3.5,1.3-3.5,2.8c0,1.7,1.2,2.5,4,3.5
			c3.6,1.4,5.5,3.2,5.5,6.3c0,3.7-2.8,6.2-7.8,6.2c-2.3,0-4.4-0.6-5.8-1.4L874.1,268.2z"/>
		<path class="st1" d="M893,251.3l4.6,12.3c0.5,1.4,1,3,1.3,4.3h0.1c0.4-1.2,0.8-2.8,1.3-4.3l4.1-12.2h4l-5.7,14.8
			c-2.7,7.1-4.6,10.8-7.1,13c-1.8,1.6-3.7,2.3-4.6,2.5l-0.9-3.2c0.9-0.3,2.2-0.9,3.3-1.8c1-0.8,2.3-2.3,3.2-4.2
			c0.2-0.4,0.3-0.7,0.3-0.9c0-0.2-0.1-0.5-0.3-1l-7.7-19.2H893z"/>
		<path class="st1" d="M911.1,268.2c1.1,0.7,3.1,1.5,5,1.5c2.8,0,4-1.4,4-3.1c0-1.8-1.1-2.8-3.9-3.8c-3.7-1.3-5.5-3.4-5.5-5.9
			c0-3.4,2.7-6.1,7.2-6.1c2.1,0,4,0.6,5.1,1.3l-0.9,2.8c-0.8-0.5-2.3-1.2-4.3-1.2c-2.2,0-3.5,1.3-3.5,2.8c0,1.7,1.2,2.5,4,3.5
			c3.6,1.4,5.5,3.2,5.5,6.3c0,3.7-2.8,6.2-7.8,6.2c-2.3,0-4.4-0.6-5.8-1.4L911.1,268.2z"/>
		<path class="st1" d="M952.6,271.3c-1,0.5-3.2,1.2-6,1.2c-6.3,0-10.4-4.3-10.4-10.6c0-6.4,4.4-11.1,11.2-11.1
			c2.2,0,4.2,0.6,5.2,1.1l-0.9,2.9c-0.9-0.5-2.3-1-4.4-1c-4.8,0-7.4,3.5-7.4,7.9c0,4.8,3.1,7.8,7.2,7.8c2.2,0,3.6-0.6,4.6-1
			L952.6,271.3z"/>
		<path class="st1" d="M975.6,261.5c0,7.7-5.3,11.1-10.4,11.1c-5.6,0-10-4.1-10-10.7c0-7,4.6-11.1,10.3-11.1
			C971.6,250.8,975.6,255.1,975.6,261.5z M959.1,261.7c0,4.6,2.6,8,6.3,8c3.6,0,6.3-3.4,6.3-8.1c0-3.5-1.8-8-6.2-8
			C961,253.6,959.1,257.7,959.1,261.7z"/>
		<path class="st1" d="M980.4,256.9c0-2.2,0-3.9-0.2-5.6h3.3l0.2,3.4h0.1c1.2-2,3.1-3.8,6.5-3.8c2.8,0,5,1.7,5.9,4.2h0.1
			c0.6-1.2,1.5-2.1,2.3-2.7c1.2-0.9,2.6-1.5,4.6-1.5c2.8,0,6.8,1.8,6.8,9v12.3h-3.7v-11.8c0-4-1.5-6.4-4.5-6.4
			c-2.2,0-3.8,1.6-4.5,3.4c-0.2,0.5-0.3,1.2-0.3,1.9v12.9h-3.7v-12.5c0-3.3-1.5-5.7-4.3-5.7c-2.4,0-4.1,1.9-4.7,3.8
			c-0.2,0.6-0.3,1.2-0.3,1.8v12.6h-3.7V256.9z"/>
		<path class="st1" d="M1016.2,258c0-2.7-0.1-4.8-0.2-6.8h3.4l0.2,3.6h0.1c1.5-2.5,4-4,7.4-4c5,0,8.8,4.3,8.8,10.6
			c0,7.5-4.6,11.2-9.5,11.2c-2.8,0-5.2-1.2-6.4-3.3h-0.1v11.3h-3.7V258z M1020,263.6c0,0.6,0.1,1.1,0.2,1.5c0.7,2.6,3,4.4,5.7,4.4
			c4,0,6.3-3.3,6.3-8c0-4.2-2.2-7.7-6.2-7.7c-2.6,0-5,1.8-5.7,4.7c-0.1,0.5-0.3,1-0.3,1.5V263.6z"/>
		<path class="st1" d="M1052.2,272.1l-0.3-2.6h-0.1c-1.2,1.6-3.4,3.1-6.4,3.1c-4.2,0-6.4-3-6.4-6c0-5,4.5-7.8,12.5-7.7v-0.4
			c0-1.7-0.5-4.8-4.7-4.8c-1.9,0-4,0.6-5.4,1.5l-0.9-2.5c1.7-1.1,4.2-1.8,6.8-1.8c6.4,0,7.9,4.3,7.9,8.5v7.8c0,1.8,0.1,3.6,0.3,5
			H1052.2z M1051.7,261.4c-4.1-0.1-8.8,0.6-8.8,4.7c0,2.5,1.6,3.6,3.6,3.6c2.7,0,4.4-1.7,5-3.5c0.1-0.4,0.2-0.8,0.2-1.2V261.4z"/>
		<path class="st1" d="M1061.4,256.9c0-2.2,0-3.9-0.2-5.6h3.4l0.2,3.4h0.1c1-2,3.4-3.9,6.9-3.9c2.9,0,7.4,1.7,7.4,8.9v12.4h-3.8v-12
			c0-3.4-1.2-6.1-4.8-6.1c-2.5,0-4.4,1.8-5.1,3.9c-0.2,0.5-0.3,1.1-0.3,1.8v12.5h-3.8V256.9z"/>
		<path class="st1" d="M1086.1,251.3l4.6,12.3c0.5,1.4,1,3,1.3,4.3h0.1c0.4-1.2,0.8-2.8,1.3-4.3l4.1-12.2h4l-5.7,14.8
			c-2.7,7.1-4.6,10.8-7.1,13c-1.8,1.6-3.7,2.3-4.6,2.5l-0.9-3.2c0.9-0.3,2.2-0.9,3.3-1.8c1-0.8,2.3-2.3,3.2-4.2
			c0.2-0.4,0.3-0.7,0.3-0.9c0-0.2-0.1-0.5-0.3-1l-7.7-19.2H1086.1z"/>
	</g>
</g>
</svg>
